<svg width="80" height="80" viewBox="0 0 80 80" fill="none" xmlns="http://www.w3.org/2000/svg">
<path d="M72.906 4.19239C72.906 5.39536 72.3058 6.37048 71.6458 6.37048H8.50412C7.8439 6.37048 7.09375 5.39536 7.09375 4.19239V4.04215C7.09375 2.83918 7.8439 2.17529 8.50412 2.17529H71.6458C72.3061 2.17529 72.906 2.83918 72.906 4.04215V4.19239Z" fill="#4D4D4D"/>
<path d="M71.6462 2.17529H53.319L46.001 6.37048H71.6462C72.3065 6.37048 72.9064 5.39536 72.9064 4.19239V4.04215C72.9064 2.83918 72.3062 2.17529 71.6462 2.17529Z" fill="#333333"/>
<path d="M70.5462 4.27269C70.5462 4.60673 70.3732 4.79709 70.1595 4.79709H9.57815C9.36446 4.79709 9.19141 4.60673 9.19141 4.27269C9.19141 3.93865 9.36446 3.74829 9.57815 3.74829H70.1595C70.3732 3.74829 70.5462 3.93865 70.5462 4.27269Z" fill="black"/>
<path d="M70.4288 4.81421V76.9581H69.7591L68.0717 77.825L66.2937 76.9581H64.9988L63.3114 77.825L61.5332 76.9581H60.2388L58.5513 77.825L56.7731 76.9581H55.3257L53.638 77.825L51.8601 76.9581H50.5146L48.8269 77.825L47.0487 76.9581H45.7032L44.0158 77.825L42.2376 76.9581H40.8921L39.2047 77.825L37.4264 76.9581H36.081L34.3933 77.825L32.6153 76.9581H31.2696L29.5821 77.825L27.8039 76.9581H26.3565L24.6691 77.825L22.8909 76.9581H21.5965L19.9088 77.825L18.1305 76.9581H16.8362L15.1485 77.825L13.3705 76.9581H12.4602V76.5567L12.3721 76.5135L12.4602 76.5133V4.81421H70.4288Z" fill="#E5E5E5"/>
<path d="M68.6683 3.93481V75.2095H68.0088L66.3469 76.0659L64.5959 75.2095H63.3206L61.6587 76.0659L59.9074 75.2095H58.6327L56.9708 76.0659L55.2195 75.2095H53.7941L52.1319 76.0659L50.3809 75.2095H49.0558L47.3937 76.0659L45.6424 75.2095H44.3173L42.6555 76.0659L40.9042 75.2095H39.5791L37.9172 76.0659L36.166 75.2095H34.8409L33.1787 76.0659L31.4277 75.2095H30.1024L28.4405 76.0659L26.6892 75.2095H25.2638L23.6019 76.0659L21.8506 75.2095H20.5759L18.9137 76.0659L17.1624 75.2095H15.8877L14.2255 76.0659L12.4745 75.2095H11.578V74.8129L11.4912 74.7702L11.578 74.77V3.93481H68.6683Z" fill="#F7F7F7"/>
<path opacity="0.3" d="M69.0009 55.8503H11.5791V72.3689H69.0009V55.8503Z" fill="#ADC7FF"/>
<path d="M55.1953 20.0063V19.3069H60.0786V20.0063H58.0312V25.8179H57.2427V20.0063H55.1953Z" fill="#808080"/>
<path d="M49.8691 25.8179V19.3069H52.0692C52.58 19.3069 52.9975 19.3991 53.3218 19.5835C53.6482 19.7658 53.8898 20.0127 54.0467 20.3242C54.2035 20.6358 54.2819 20.9834 54.2819 21.367C54.2819 21.7506 54.2035 22.0993 54.0467 22.413C53.8919 22.7267 53.6524 22.9768 53.3281 23.1633C53.0039 23.3477 52.5884 23.4399 52.0819 23.4399H50.505V22.7404H52.0565C52.4062 22.7404 52.687 22.68 52.8989 22.5592C53.1109 22.4384 53.2646 22.2752 53.3599 22.0696C53.4574 21.8619 53.5062 21.6277 53.5062 21.367C53.5062 21.1063 53.4574 20.8732 53.3599 20.6676C53.2646 20.462 53.1098 20.3009 52.8958 20.1844C52.6817 20.0657 52.3977 20.0063 52.0437 20.0063H50.6576V25.8179H49.8691Z" fill="#808080"/>
<path d="M48.2875 19.3069V25.8179H47.499V19.3069H48.2875Z" fill="#808080"/>
<path d="M42.1484 25.8179V19.3069H46.078V20.0063H42.9369V22.2063H45.8745V22.9058H42.9369V25.1185H46.1288V25.8179H42.1484Z" fill="#808080"/>
<path d="M40.8736 21.3413H40.0851C40.0385 21.1145 39.9569 20.9152 39.8403 20.7436C39.7259 20.5719 39.586 20.4278 39.4207 20.3112C39.2575 20.1925 39.0763 20.1035 38.877 20.0441C38.6778 19.9848 38.4701 19.9551 38.2539 19.9551C37.8597 19.9551 37.5026 20.0547 37.1825 20.254C36.8646 20.4532 36.6113 20.7467 36.4227 21.1346C36.2362 21.5225 36.1429 21.9983 36.1429 22.5621C36.1429 23.1259 36.2362 23.6017 36.4227 23.9895C36.6113 24.3774 36.8646 24.671 37.1825 24.8702C37.5026 25.0694 37.8597 25.169 38.2539 25.169C38.4701 25.169 38.6778 25.1394 38.877 25.08C39.0763 25.0207 39.2575 24.9327 39.4207 24.8161C39.586 24.6975 39.7259 24.5523 39.8403 24.3806C39.9569 24.2068 40.0385 24.0076 40.0851 23.7829H40.8736C40.8142 24.1157 40.7062 24.4134 40.5493 24.6763C40.3925 24.9391 40.1975 25.1627 39.9643 25.3471C39.7312 25.5293 39.4694 25.6682 39.1791 25.7635C38.8908 25.8589 38.5824 25.9066 38.2539 25.9066C37.6986 25.9066 37.2048 25.771 36.7724 25.4997C36.34 25.2284 35.9998 24.8426 35.7519 24.3424C35.5039 23.8422 35.3799 23.2488 35.3799 22.5621C35.3799 21.8754 35.5039 21.2819 35.7519 20.7817C35.9998 20.2815 36.34 19.8958 36.7724 19.6245C37.2048 19.3532 37.6986 19.2175 38.2539 19.2175C38.5824 19.2175 38.8908 19.2652 39.1791 19.3606C39.4694 19.456 39.7312 19.5959 39.9643 19.7803C40.1975 19.9625 40.3925 20.1851 40.5493 20.4479C40.7062 20.7086 40.8142 21.0064 40.8736 21.3413Z" fill="#808080"/>
<path d="M30.2842 25.8179V19.3069H34.2137V20.0063H31.0726V22.2063H34.0102V22.9058H31.0726V25.1185H34.2646V25.8179H30.2842Z" fill="#808080"/>
<path d="M24.5576 25.8179V19.3069H26.7576C27.2663 19.3069 27.6839 19.3938 28.0103 19.5676C28.3367 19.7393 28.5783 19.9756 28.7351 20.2765C28.892 20.5775 28.9704 20.9198 28.9704 21.3034C28.9704 21.6871 28.892 22.0272 28.7351 22.324C28.5783 22.6207 28.3377 22.8538 28.0134 23.0234C27.6892 23.1908 27.2748 23.2746 26.7704 23.2746H24.99V22.5624H26.7449C27.0925 22.5624 27.3723 22.5115 27.5842 22.4098C27.7983 22.3081 27.953 22.1639 28.0484 21.9774C28.1459 21.7888 28.1947 21.5641 28.1947 21.3034C28.1947 21.0427 28.1459 20.8149 28.0484 20.6199C27.9509 20.4249 27.7951 20.2744 27.5811 20.1685C27.367 20.0604 27.084 20.0063 26.7322 20.0063H25.3461V25.8179H24.5576ZM27.6224 22.893L29.2247 25.8179H28.3091L26.7322 22.893H27.6224Z" fill="#808080"/>
<path d="M59.5162 65.685L59.1436 66.4929H53.9863L54.2805 65.685H59.5162ZM58.8141 67.2773L58.4337 68.093H53.9863L54.2805 67.2773H58.8141ZM60.4731 63.5554L60.0103 64.5476C59.8639 64.4221 59.7044 64.3084 59.5318 64.2064C59.3593 64.1045 59.1736 64.0234 58.9749 63.9633C58.7762 63.9005 58.5631 63.8692 58.3357 63.8692C57.9173 63.8692 57.5448 63.9816 57.2179 64.2064C56.8911 64.4313 56.6336 64.7686 56.4453 65.2183C56.2597 65.6654 56.1669 66.2223 56.1669 66.889C56.1669 67.5557 56.2597 68.1126 56.4453 68.5597C56.6336 69.0068 56.8911 69.3428 57.2179 69.5676C57.5448 69.7899 57.9173 69.901 58.3357 69.901C58.5658 69.901 58.7802 69.8709 58.9789 69.8108C59.1802 69.7506 59.3632 69.6722 59.5279 69.5755C59.6953 69.4761 59.8456 69.3715 59.9789 69.2617L60.4535 70.25C60.1763 70.501 59.8547 70.6906 59.4887 70.8187C59.1227 70.9468 58.7383 71.0109 58.3357 71.0109C57.6794 71.0109 57.0977 70.8448 56.5904 70.5128C56.0858 70.1807 55.6897 69.7075 55.4021 69.0931C55.1145 68.476 54.9707 67.7413 54.9707 66.889C54.9707 66.034 55.1145 65.298 55.4021 64.681C55.6897 64.0639 56.0858 63.5894 56.5904 63.2574C57.0977 62.9253 57.6794 62.7593 58.3357 62.7593C58.754 62.7593 59.1436 62.8286 59.5044 62.9671C59.8652 63.1031 60.1881 63.2992 60.4731 63.5554Z" fill="#0F429F"/>
<path d="M47.1342 71.0109C46.5433 71.0109 46.04 70.8501 45.6242 70.5285C45.2085 70.2043 44.8909 69.735 44.6712 69.1205C44.4516 68.5035 44.3418 67.7583 44.3418 66.8851C44.3418 66.017 44.4516 65.2758 44.6712 64.6614C44.8935 64.0443 45.2125 63.5737 45.6282 63.2495C46.0465 62.9227 46.5485 62.7593 47.1342 62.7593C47.7198 62.7593 48.2205 62.9227 48.6362 63.2495C49.0546 63.5737 49.3735 64.0443 49.5932 64.6614C49.8154 65.2758 49.9265 66.017 49.9265 66.8851C49.9265 67.7583 49.8167 68.5035 49.5971 69.1205C49.3775 69.735 49.0598 70.2043 48.6441 70.5285C48.2284 70.8501 47.7251 71.0109 47.1342 71.0109ZM47.1342 70.1481C47.7198 70.1481 48.1748 69.8657 48.499 69.3009C48.8232 68.7362 48.9853 67.9309 48.9853 66.8851C48.9853 66.1896 48.9108 65.5974 48.7617 65.1085C48.6153 64.6195 48.4035 64.247 48.1264 63.9907C47.8519 63.7345 47.5211 63.6064 47.1342 63.6064C46.5537 63.6064 46.1001 63.8927 45.7733 64.4653C45.4465 65.0353 45.283 65.8419 45.283 66.8851C45.283 67.5805 45.3563 68.1714 45.5027 68.6577C45.6491 69.1441 45.8596 69.514 46.1341 69.7676C46.4112 70.0212 46.7446 70.1481 47.1342 70.1481Z" fill="#0F429F"/>
<path d="M37.2422 69.2539V68.4539L40.7719 62.8691H41.3523V64.1084H40.9601L38.2932 68.3284V68.3911H43.0465V69.2539H37.2422ZM41.0229 70.9011V69.0108V68.6382V62.8691H41.9484V70.9011H41.0229Z" fill="#0F429F"/>
<path d="M54.6709 60.4761V56.8816H55.1062V60.09H56.7771V60.4761H54.6709Z" fill="#B3B3B3"/>
<path d="M51.4788 60.4761H51.0225L52.3423 56.8816H52.7916L54.1115 60.4761H53.6552L52.581 57.4503H52.5529L51.4788 60.4761ZM51.6473 59.072H53.4867V59.4581H51.6473V59.072Z" fill="#B3B3B3"/>
<path d="M48.3818 57.2677V56.8816H51.0777V57.2677H49.9474V60.4761H49.5121V57.2677H48.3818Z" fill="#B3B3B3"/>
<path d="M48.0004 58.6782C48.0004 59.0573 47.932 59.3849 47.7951 59.6611C47.6582 59.9372 47.4704 60.1502 47.2317 60.2999C46.993 60.4497 46.7204 60.5246 46.4138 60.5246C46.1072 60.5246 45.8346 60.4497 45.5959 60.2999C45.3572 60.1502 45.1694 59.9372 45.0325 59.6611C44.8956 59.3849 44.8271 59.0573 44.8271 58.6782C44.8271 58.2991 44.8956 57.9715 45.0325 57.6953C45.1694 57.4192 45.3572 57.2062 45.5959 57.0564C45.8346 56.9067 46.1072 56.8318 46.4138 56.8318C46.7204 56.8318 46.993 56.9067 47.2317 57.0564C47.4704 57.2062 47.6582 57.4192 47.7951 57.6953C47.932 57.9715 48.0004 58.2991 48.0004 58.6782ZM47.5792 58.6782C47.5792 58.3669 47.5271 58.1043 47.423 57.8901C47.32 57.676 47.1802 57.5139 47.0035 57.404C46.828 57.294 46.6314 57.239 46.4138 57.239C46.1962 57.239 45.999 57.294 45.8223 57.404C45.6468 57.5139 45.507 57.676 45.4028 57.8901C45.2999 58.1043 45.2484 58.3669 45.2484 58.6782C45.2484 58.9894 45.2999 59.2521 45.4028 59.4662C45.507 59.6804 45.6468 59.8424 45.8223 59.9524C45.999 60.0624 46.1962 60.1174 46.4138 60.1174C46.6314 60.1174 46.828 60.0624 47.0035 59.9524C47.1802 59.8424 47.32 59.6804 47.423 59.4662C47.5271 59.2521 47.5792 58.9894 47.5792 58.6782Z" fill="#B3B3B3"/>
<path d="M41.7471 57.2677V56.8816H44.443V57.2677H43.3127V60.4761H42.8774V57.2677H41.7471Z" fill="#B3B3B3"/>
<path d="M53.2371 11.7451H26.7549V12.7939H53.2371V11.7451Z" fill="#B3B3B3"/>
<path d="M54.8088 13.9731H25.4424V15.0219H54.8088V13.9731Z" fill="#B3B3B3"/>
<path d="M56.381 9.51587H23.8682V10.5647H56.381V9.51587Z" fill="#B3B3B3"/>
<path d="M62.2809 33.3903C62.235 33.3903 62.1956 33.3738 62.1626 33.3409C62.1297 33.308 62.1133 33.2685 62.1133 33.2226C62.1133 33.1766 62.1297 33.1372 62.1626 33.1043C62.1956 33.0714 62.235 33.0549 62.2809 33.0549C62.3269 33.0549 62.3663 33.0714 62.3992 33.1043C62.4321 33.1372 62.4486 33.1766 62.4486 33.2226C62.4486 33.253 62.4408 33.281 62.4253 33.3064C62.4104 33.3319 62.3902 33.3524 62.3648 33.3679C62.3399 33.3828 62.312 33.3903 62.2809 33.3903Z" fill="#808080"/>
<path d="M61.5573 33.3903C61.5114 33.3903 61.4719 33.3738 61.439 33.3409C61.4061 33.308 61.3896 33.2685 61.3896 33.2226C61.3896 33.1766 61.4061 33.1372 61.439 33.1043C61.4719 33.0714 61.5114 33.0549 61.5573 33.0549C61.6033 33.0549 61.6427 33.0714 61.6756 33.1043C61.7085 33.1372 61.725 33.1766 61.725 33.2226C61.725 33.253 61.7172 33.281 61.7017 33.3064C61.6868 33.3319 61.6666 33.3524 61.6411 33.3679C61.6163 33.3828 61.5884 33.3903 61.5573 33.3903Z" fill="#808080"/>
<path d="M60.8337 33.3903C60.7877 33.3903 60.7483 33.3738 60.7154 33.3409C60.6825 33.308 60.666 33.2685 60.666 33.2226C60.666 33.1766 60.6825 33.1372 60.7154 33.1043C60.7483 33.0714 60.7877 33.0549 60.8337 33.0549C60.8796 33.0549 60.9191 33.0714 60.952 33.1043C60.9849 33.1372 61.0013 33.1766 61.0013 33.2226C61.0013 33.253 60.9936 33.281 60.9781 33.3064C60.9632 33.3319 60.943 33.3524 60.9175 33.3679C60.8927 33.3828 60.8647 33.3903 60.8337 33.3903Z" fill="#808080"/>
<path d="M60.1149 33.3903C60.069 33.3903 60.0295 33.3738 59.9966 33.3409C59.9637 33.308 59.9473 33.2685 59.9473 33.2226C59.9473 33.1766 59.9637 33.1372 59.9966 33.1043C60.0295 33.0714 60.069 33.0549 60.1149 33.0549C60.1609 33.0549 60.2003 33.0714 60.2332 33.1043C60.2661 33.1372 60.2826 33.1766 60.2826 33.2226C60.2826 33.253 60.2748 33.281 60.2593 33.3064C60.2444 33.3319 60.2242 33.3524 60.1988 33.3679C60.1739 33.3828 60.146 33.3903 60.1149 33.3903Z" fill="#808080"/>
<path d="M59.3913 33.3903C59.3453 33.3903 59.3059 33.3738 59.273 33.3409C59.2401 33.308 59.2236 33.2685 59.2236 33.2226C59.2236 33.1766 59.2401 33.1372 59.273 33.1043C59.3059 33.0714 59.3453 33.0549 59.3913 33.0549C59.4372 33.0549 59.4767 33.0714 59.5096 33.1043C59.5425 33.1372 59.559 33.1766 59.559 33.2226C59.559 33.253 59.5512 33.281 59.5357 33.3064C59.5208 33.3319 59.5006 33.3524 59.4751 33.3679C59.4503 33.3828 59.4223 33.3903 59.3913 33.3903Z" fill="#808080"/>
<path d="M58.6706 33.3903C58.6246 33.3903 58.5852 33.3738 58.5523 33.3409C58.5194 33.308 58.5029 33.2685 58.5029 33.2226C58.5029 33.1766 58.5194 33.1372 58.5523 33.1043C58.5852 33.0714 58.6246 33.0549 58.6706 33.0549C58.7165 33.0549 58.756 33.0714 58.7889 33.1043C58.8218 33.1372 58.8383 33.1766 58.8383 33.2226C58.8383 33.253 58.8305 33.281 58.815 33.3064C58.8001 33.3319 58.7799 33.3524 58.7544 33.3679C58.7296 33.3828 58.7016 33.3903 58.6706 33.3903Z" fill="#808080"/>
<path d="M57.947 33.3903C57.901 33.3903 57.8616 33.3738 57.8287 33.3409C57.7958 33.308 57.7793 33.2685 57.7793 33.2226C57.7793 33.1766 57.7958 33.1372 57.8287 33.1043C57.8616 33.0714 57.901 33.0549 57.947 33.0549C57.9929 33.0549 58.0323 33.0714 58.0653 33.1043C58.0982 33.1372 58.1146 33.1766 58.1146 33.2226C58.1146 33.253 58.1069 33.281 58.0913 33.3064C58.0764 33.3319 58.0562 33.3524 58.0308 33.3679C58.006 33.3828 57.978 33.3903 57.947 33.3903Z" fill="#808080"/>
<path d="M57.2263 33.3903C57.1803 33.3903 57.1409 33.3738 57.108 33.3409C57.075 33.308 57.0586 33.2685 57.0586 33.2226C57.0586 33.1766 57.075 33.1372 57.108 33.1043C57.1409 33.0714 57.1803 33.0549 57.2263 33.0549C57.2722 33.0549 57.3116 33.0714 57.3446 33.1043C57.3775 33.1372 57.3939 33.1766 57.3939 33.2226C57.3939 33.253 57.3862 33.281 57.3706 33.3064C57.3557 33.3319 57.3355 33.3524 57.3101 33.3679C57.2852 33.3828 57.2573 33.3903 57.2263 33.3903Z" fill="#808080"/>
<path d="M56.5046 33.3903C56.4586 33.3903 56.4192 33.3738 56.3863 33.3409C56.3534 33.308 56.3369 33.2685 56.3369 33.2226C56.3369 33.1766 56.3534 33.1372 56.3863 33.1043C56.4192 33.0714 56.4586 33.0549 56.5046 33.0549C56.5505 33.0549 56.59 33.0714 56.6229 33.1043C56.6558 33.1372 56.6722 33.1766 56.6722 33.2226C56.6722 33.253 56.6645 33.281 56.649 33.3064C56.634 33.3319 56.6139 33.3524 56.5884 33.3679C56.5636 33.3828 56.5356 33.3903 56.5046 33.3903Z" fill="#808080"/>
<path d="M55.7829 33.3903C55.7369 33.3903 55.6975 33.3738 55.6646 33.3409C55.6317 33.308 55.6152 33.2685 55.6152 33.2226C55.6152 33.1766 55.6317 33.1372 55.6646 33.1043C55.6975 33.0714 55.7369 33.0549 55.7829 33.0549C55.8288 33.0549 55.8683 33.0714 55.9012 33.1043C55.9341 33.1372 55.9506 33.1766 55.9506 33.2226C55.9506 33.253 55.9428 33.281 55.9273 33.3064C55.9124 33.3319 55.8922 33.3524 55.8667 33.3679C55.8419 33.3828 55.8139 33.3903 55.7829 33.3903Z" fill="#808080"/>
<path d="M55.0612 33.3903C55.0153 33.3903 54.9758 33.3738 54.9429 33.3409C54.91 33.308 54.8936 33.2685 54.8936 33.2226C54.8936 33.1766 54.91 33.1372 54.9429 33.1043C54.9758 33.0714 55.0153 33.0549 55.0612 33.0549C55.1072 33.0549 55.1466 33.0714 55.1795 33.1043C55.2124 33.1372 55.2289 33.1766 55.2289 33.2226C55.2289 33.253 55.2211 33.281 55.2056 33.3064C55.1907 33.3319 55.1705 33.3524 55.145 33.3679C55.1202 33.3828 55.0923 33.3903 55.0612 33.3903Z" fill="#808080"/>
<path d="M54.3366 33.3903C54.2907 33.3903 54.2512 33.3738 54.2183 33.3409C54.1854 33.308 54.1689 33.2685 54.1689 33.2226C54.1689 33.1766 54.1854 33.1372 54.2183 33.1043C54.2512 33.0714 54.2907 33.0549 54.3366 33.0549C54.3826 33.0549 54.422 33.0714 54.4549 33.1043C54.4878 33.1372 54.5043 33.1766 54.5043 33.2226C54.5043 33.253 54.4965 33.281 54.481 33.3064C54.4661 33.3319 54.4459 33.3524 54.4204 33.3679C54.3956 33.3828 54.3677 33.3903 54.3366 33.3903Z" fill="#808080"/>
<path d="M53.6149 33.3903C53.569 33.3903 53.5295 33.3738 53.4966 33.3409C53.4637 33.308 53.4473 33.2685 53.4473 33.2226C53.4473 33.1766 53.4637 33.1372 53.4966 33.1043C53.5295 33.0714 53.569 33.0549 53.6149 33.0549C53.6609 33.0549 53.7003 33.0714 53.7332 33.1043C53.7661 33.1372 53.7826 33.1766 53.7826 33.2226C53.7826 33.253 53.7748 33.281 53.7593 33.3064C53.7444 33.3319 53.7242 33.3524 53.6988 33.3679C53.6739 33.3828 53.646 33.3903 53.6149 33.3903Z" fill="#808080"/>
<path d="M52.8923 33.3903C52.8463 33.3903 52.8069 33.3738 52.774 33.3409C52.7411 33.308 52.7246 33.2685 52.7246 33.2226C52.7246 33.1766 52.7411 33.1372 52.774 33.1043C52.8069 33.0714 52.8463 33.0549 52.8923 33.0549C52.9382 33.0549 52.9777 33.0714 53.0106 33.1043C53.0435 33.1372 53.0599 33.1766 53.0599 33.2226C53.0599 33.253 53.0522 33.281 53.0366 33.3064C53.0217 33.3319 53.0016 33.3524 52.9761 33.3679C52.9513 33.3828 52.9233 33.3903 52.8923 33.3903Z" fill="#808080"/>
<path d="M52.1706 33.3903C52.1246 33.3903 52.0852 33.3738 52.0523 33.3409C52.0194 33.308 52.0029 33.2685 52.0029 33.2226C52.0029 33.1766 52.0194 33.1372 52.0523 33.1043C52.0852 33.0714 52.1246 33.0549 52.1706 33.0549C52.2165 33.0549 52.256 33.0714 52.2889 33.1043C52.3218 33.1372 52.3383 33.1766 52.3383 33.2226C52.3383 33.253 52.3305 33.281 52.315 33.3064C52.3001 33.3319 52.2799 33.3524 52.2544 33.3679C52.2296 33.3828 52.2016 33.3903 52.1706 33.3903Z" fill="#808080"/>
<path d="M51.4499 33.3903C51.4039 33.3903 51.3645 33.3738 51.3316 33.3409C51.2987 33.308 51.2822 33.2685 51.2822 33.2226C51.2822 33.1766 51.2987 33.1372 51.3316 33.1043C51.3645 33.0714 51.4039 33.0549 51.4499 33.0549C51.4958 33.0549 51.5353 33.0714 51.5682 33.1043C51.6011 33.1372 51.6176 33.1766 51.6176 33.2226C51.6176 33.253 51.6098 33.281 51.5943 33.3064C51.5794 33.3319 51.5592 33.3524 51.5337 33.3679C51.5089 33.3828 51.4809 33.3903 51.4499 33.3903Z" fill="#808080"/>
<path d="M50.7263 33.3903C50.6803 33.3903 50.6409 33.3738 50.608 33.3409C50.575 33.308 50.5586 33.2685 50.5586 33.2226C50.5586 33.1766 50.575 33.1372 50.608 33.1043C50.6409 33.0714 50.6803 33.0549 50.7263 33.0549C50.7722 33.0549 50.8116 33.0714 50.8446 33.1043C50.8775 33.1372 50.8939 33.1766 50.8939 33.2226C50.8939 33.253 50.8862 33.281 50.8706 33.3064C50.8557 33.3319 50.8355 33.3524 50.8101 33.3679C50.7852 33.3828 50.7573 33.3903 50.7263 33.3903Z" fill="#808080"/>
<path d="M50.0026 33.3903C49.9567 33.3903 49.9172 33.3738 49.8843 33.3409C49.8514 33.308 49.835 33.2685 49.835 33.2226C49.835 33.1766 49.8514 33.1372 49.8843 33.1043C49.9172 33.0714 49.9567 33.0549 50.0026 33.0549C50.0486 33.0549 50.088 33.0714 50.1209 33.1043C50.1538 33.1372 50.1703 33.1766 50.1703 33.2226C50.1703 33.253 50.1625 33.281 50.147 33.3064C50.1321 33.3319 50.1119 33.3524 50.0865 33.3679C50.0616 33.3828 50.0337 33.3903 50.0026 33.3903Z" fill="#808080"/>
<path d="M49.2839 33.3903C49.2379 33.3903 49.1985 33.3738 49.1656 33.3409C49.1327 33.308 49.1162 33.2685 49.1162 33.2226C49.1162 33.1766 49.1327 33.1372 49.1656 33.1043C49.1985 33.0714 49.2379 33.0549 49.2839 33.0549C49.3298 33.0549 49.3693 33.0714 49.4022 33.1043C49.4351 33.1372 49.4515 33.1766 49.4515 33.2226C49.4515 33.253 49.4438 33.281 49.4283 33.3064C49.4133 33.3319 49.3932 33.3524 49.3677 33.3679C49.3429 33.3828 49.3149 33.3903 49.2839 33.3903Z" fill="#808080"/>
<path d="M48.5602 33.3903C48.5143 33.3903 48.4749 33.3738 48.4419 33.3409C48.409 33.308 48.3926 33.2685 48.3926 33.2226C48.3926 33.1766 48.409 33.1372 48.4419 33.1043C48.4749 33.0714 48.5143 33.0549 48.5602 33.0549C48.6062 33.0549 48.6456 33.0714 48.6785 33.1043C48.7114 33.1372 48.7279 33.1766 48.7279 33.2226C48.7279 33.253 48.7201 33.281 48.7046 33.3064C48.6897 33.3319 48.6695 33.3524 48.6441 33.3679C48.6192 33.3828 48.5913 33.3903 48.5602 33.3903Z" fill="#808080"/>
<path d="M47.8395 33.3903C47.7936 33.3903 47.7542 33.3738 47.7212 33.3409C47.6883 33.308 47.6719 33.2685 47.6719 33.2226C47.6719 33.1766 47.6883 33.1372 47.7212 33.1043C47.7542 33.0714 47.7936 33.0549 47.8395 33.0549C47.8855 33.0549 47.9249 33.0714 47.9578 33.1043C47.9907 33.1372 48.0072 33.1766 48.0072 33.2226C48.0072 33.253 47.9994 33.281 47.9839 33.3064C47.969 33.3319 47.9488 33.3524 47.9234 33.3679C47.8985 33.3828 47.8706 33.3903 47.8395 33.3903Z" fill="#808080"/>
<path d="M47.114 33.3903C47.068 33.3903 47.0286 33.3738 46.9957 33.3409C46.9627 33.308 46.9463 33.2685 46.9463 33.2226C46.9463 33.1766 46.9627 33.1372 46.9957 33.1043C47.0286 33.0714 47.068 33.0549 47.114 33.0549C47.1599 33.0549 47.1993 33.0714 47.2322 33.1043C47.2652 33.1372 47.2816 33.1766 47.2816 33.2226C47.2816 33.253 47.2739 33.281 47.2583 33.3064C47.2434 33.3319 47.2232 33.3524 47.1978 33.3679C47.1729 33.3828 47.145 33.3903 47.114 33.3903Z" fill="#808080"/>
<path d="M46.3923 33.3903C46.3463 33.3903 46.3069 33.3738 46.274 33.3409C46.2411 33.308 46.2246 33.2685 46.2246 33.2226C46.2246 33.1766 46.2411 33.1372 46.274 33.1043C46.3069 33.0714 46.3463 33.0549 46.3923 33.0549C46.4382 33.0549 46.4777 33.0714 46.5106 33.1043C46.5435 33.1372 46.5599 33.1766 46.5599 33.2226C46.5599 33.253 46.5522 33.281 46.5366 33.3064C46.5217 33.3319 46.5016 33.3524 46.4761 33.3679C46.4513 33.3828 46.4233 33.3903 46.3923 33.3903Z" fill="#808080"/>
<path d="M45.6706 33.3903C45.6246 33.3903 45.5852 33.3738 45.5523 33.3409C45.5194 33.308 45.5029 33.2685 45.5029 33.2226C45.5029 33.1766 45.5194 33.1372 45.5523 33.1043C45.5852 33.0714 45.6246 33.0549 45.6706 33.0549C45.7165 33.0549 45.756 33.0714 45.7889 33.1043C45.8218 33.1372 45.8383 33.1766 45.8383 33.2226C45.8383 33.253 45.8305 33.281 45.815 33.3064C45.8001 33.3319 45.7799 33.3524 45.7544 33.3679C45.7296 33.3828 45.7016 33.3903 45.6706 33.3903Z" fill="#808080"/>
<path d="M44.9479 33.3903C44.902 33.3903 44.8626 33.3738 44.8296 33.3409C44.7967 33.308 44.7803 33.2685 44.7803 33.2226C44.7803 33.1766 44.7967 33.1372 44.8296 33.1043C44.8626 33.0714 44.902 33.0549 44.9479 33.0549C44.9939 33.0549 45.0333 33.0714 45.0662 33.1043C45.0991 33.1372 45.1156 33.1766 45.1156 33.2226C45.1156 33.253 45.1078 33.281 45.0923 33.3064C45.0774 33.3319 45.0572 33.3524 45.0318 33.3679C45.0069 33.3828 44.979 33.3903 44.9479 33.3903Z" fill="#808080"/>
<path d="M44.2272 33.3903C44.1813 33.3903 44.1418 33.3738 44.1089 33.3409C44.076 33.308 44.0596 33.2685 44.0596 33.2226C44.0596 33.1766 44.076 33.1372 44.1089 33.1043C44.1418 33.0714 44.1813 33.0549 44.2272 33.0549C44.2732 33.0549 44.3126 33.0714 44.3455 33.1043C44.3784 33.1372 44.3949 33.1766 44.3949 33.2226C44.3949 33.253 44.3871 33.281 44.3716 33.3064C44.3567 33.3319 44.3365 33.3524 44.3111 33.3679C44.2862 33.3828 44.2583 33.3903 44.2272 33.3903Z" fill="#808080"/>
<path d="M43.5036 33.3903C43.4576 33.3903 43.4182 33.3738 43.3853 33.3409C43.3524 33.308 43.3359 33.2685 43.3359 33.2226C43.3359 33.1766 43.3524 33.1372 43.3853 33.1043C43.4182 33.0714 43.4576 33.0549 43.5036 33.0549C43.5496 33.0549 43.589 33.0714 43.6219 33.1043C43.6548 33.1372 43.6713 33.1766 43.6713 33.2226C43.6713 33.253 43.6635 33.281 43.648 33.3064C43.6331 33.3319 43.6129 33.3524 43.5874 33.3679C43.5626 33.3828 43.5346 33.3903 43.5036 33.3903Z" fill="#808080"/>
<path d="M42.7819 33.3903C42.736 33.3903 42.6965 33.3738 42.6636 33.3409C42.6307 33.308 42.6143 33.2685 42.6143 33.2226C42.6143 33.1766 42.6307 33.1372 42.6636 33.1043C42.6965 33.0714 42.736 33.0549 42.7819 33.0549C42.8279 33.0549 42.8673 33.0714 42.9002 33.1043C42.9331 33.1372 42.9496 33.1766 42.9496 33.2226C42.9496 33.253 42.9418 33.281 42.9263 33.3064C42.9114 33.3319 42.8912 33.3524 42.8658 33.3679C42.8409 33.3828 42.813 33.3903 42.7819 33.3903Z" fill="#808080"/>
<path d="M42.0622 33.3903C42.0162 33.3903 41.9768 33.3738 41.9439 33.3409C41.911 33.308 41.8945 33.2685 41.8945 33.2226C41.8945 33.1766 41.911 33.1372 41.9439 33.1043C41.9768 33.0714 42.0162 33.0549 42.0622 33.0549C42.1081 33.0549 42.1476 33.0714 42.1805 33.1043C42.2134 33.1372 42.2299 33.1766 42.2299 33.2226C42.2299 33.253 42.2221 33.281 42.2066 33.3064C42.1917 33.3319 42.1715 33.3524 42.146 33.3679C42.1212 33.3828 42.0932 33.3903 42.0622 33.3903Z" fill="#808080"/>
<path d="M41.3395 33.3903C41.2936 33.3903 41.2542 33.3738 41.2212 33.3409C41.1883 33.308 41.1719 33.2685 41.1719 33.2226C41.1719 33.1766 41.1883 33.1372 41.2212 33.1043C41.2542 33.0714 41.2936 33.0549 41.3395 33.0549C41.3855 33.0549 41.4249 33.0714 41.4578 33.1043C41.4907 33.1372 41.5072 33.1766 41.5072 33.2226C41.5072 33.253 41.4994 33.281 41.4839 33.3064C41.469 33.3319 41.4488 33.3524 41.4234 33.3679C41.3985 33.3828 41.3706 33.3903 41.3395 33.3903Z" fill="#808080"/>
<path d="M40.6208 33.3903C40.5748 33.3903 40.5354 33.3738 40.5025 33.3409C40.4696 33.308 40.4531 33.2685 40.4531 33.2226C40.4531 33.1766 40.4696 33.1372 40.5025 33.1043C40.5354 33.0714 40.5748 33.0549 40.6208 33.0549C40.6667 33.0549 40.7062 33.0714 40.7391 33.1043C40.772 33.1372 40.7885 33.1766 40.7885 33.2226C40.7885 33.253 40.7807 33.281 40.7652 33.3064C40.7503 33.3319 40.7301 33.3524 40.7046 33.3679C40.6798 33.3828 40.6518 33.3903 40.6208 33.3903Z" fill="#808080"/>
<path d="M39.8923 33.3903C39.8463 33.3903 39.8069 33.3738 39.774 33.3409C39.7411 33.308 39.7246 33.2685 39.7246 33.2226C39.7246 33.1766 39.7411 33.1372 39.774 33.1043C39.8069 33.0714 39.8463 33.0549 39.8923 33.0549C39.9382 33.0549 39.9777 33.0714 40.0106 33.1043C40.0435 33.1372 40.0599 33.1766 40.0599 33.2226C40.0599 33.253 40.0522 33.281 40.0366 33.3064C40.0217 33.3319 40.0016 33.3524 39.9761 33.3679C39.9513 33.3828 39.9233 33.3903 39.8923 33.3903Z" fill="#808080"/>
<path d="M39.1725 33.3903C39.1266 33.3903 39.0872 33.3738 39.0543 33.3409C39.0213 33.308 39.0049 33.2685 39.0049 33.2226C39.0049 33.1766 39.0213 33.1372 39.0543 33.1043C39.0872 33.0714 39.1266 33.0549 39.1725 33.0549C39.2185 33.0549 39.2579 33.0714 39.2908 33.1043C39.3238 33.1372 39.3402 33.1766 39.3402 33.2226C39.3402 33.253 39.3324 33.281 39.3169 33.3064C39.302 33.3319 39.2818 33.3524 39.2564 33.3679C39.2315 33.3828 39.2036 33.3903 39.1725 33.3903Z" fill="#808080"/>
<path d="M62.155 38.3724C62.109 38.3724 62.0696 38.356 62.0367 38.3231C62.0038 38.2902 61.9873 38.2507 61.9873 38.2048C61.9873 38.1588 62.0038 38.1194 62.0367 38.0865C62.0696 38.0536 62.109 38.0371 62.155 38.0371C62.2009 38.0371 62.2403 38.0536 62.2733 38.0865C62.3062 38.1194 62.3226 38.1588 62.3226 38.2048C62.3226 38.2352 62.3149 38.2631 62.2993 38.2886C62.2844 38.3141 62.2643 38.3346 62.2388 38.3501C62.214 38.365 62.186 38.3724 62.155 38.3724Z" fill="#808080"/>
<path d="M61.4352 38.3724C61.3893 38.3724 61.3499 38.356 61.3169 38.3231C61.284 38.2902 61.2676 38.2507 61.2676 38.2048C61.2676 38.1588 61.284 38.1194 61.3169 38.0865C61.3499 38.0536 61.3893 38.0371 61.4352 38.0371C61.4812 38.0371 61.5206 38.0536 61.5535 38.0865C61.5864 38.1194 61.6029 38.1588 61.6029 38.2048C61.6029 38.2352 61.5951 38.2631 61.5796 38.2886C61.5647 38.3141 61.5445 38.3346 61.5191 38.3501C61.4942 38.365 61.4663 38.3724 61.4352 38.3724Z" fill="#808080"/>
<path d="M60.7116 38.3724C60.6657 38.3724 60.6262 38.356 60.5933 38.3231C60.5604 38.2902 60.5439 38.2507 60.5439 38.2048C60.5439 38.1588 60.5604 38.1194 60.5933 38.0865C60.6262 38.0536 60.6657 38.0371 60.7116 38.0371C60.7576 38.0371 60.797 38.0536 60.8299 38.0865C60.8628 38.1194 60.8793 38.1588 60.8793 38.2048C60.8793 38.2352 60.8715 38.2631 60.856 38.2886C60.8411 38.3141 60.8209 38.3346 60.7954 38.3501C60.7706 38.365 60.7427 38.3724 60.7116 38.3724Z" fill="#808080"/>
<path d="M59.9889 38.3724C59.943 38.3724 59.9036 38.356 59.8707 38.3231C59.8377 38.2902 59.8213 38.2507 59.8213 38.2048C59.8213 38.1588 59.8377 38.1194 59.8707 38.0865C59.9036 38.0536 59.943 38.0371 59.9889 38.0371C60.0349 38.0371 60.0743 38.0536 60.1072 38.0865C60.1402 38.1194 60.1566 38.1588 60.1566 38.2048C60.1566 38.2352 60.1489 38.2631 60.1333 38.2886C60.1184 38.3141 60.0982 38.3346 60.0728 38.3501C60.0479 38.365 60.02 38.3724 59.9889 38.3724Z" fill="#808080"/>
<path d="M59.2692 38.3724C59.2233 38.3724 59.1838 38.356 59.1509 38.3231C59.118 38.2902 59.1016 38.2507 59.1016 38.2048C59.1016 38.1588 59.118 38.1194 59.1509 38.0865C59.1838 38.0536 59.2233 38.0371 59.2692 38.0371C59.3152 38.0371 59.3546 38.0536 59.3875 38.0865C59.4204 38.1194 59.4369 38.1588 59.4369 38.2048C59.4369 38.2352 59.4291 38.2631 59.4136 38.2886C59.3987 38.3141 59.3785 38.3346 59.3531 38.3501C59.3282 38.365 59.3003 38.3724 59.2692 38.3724Z" fill="#808080"/>
<path d="M58.5456 38.3724C58.4996 38.3724 58.4602 38.356 58.4273 38.3231C58.3944 38.2902 58.3779 38.2507 58.3779 38.2048C58.3779 38.1588 58.3944 38.1194 58.4273 38.0865C58.4602 38.0536 58.4996 38.0371 58.5456 38.0371C58.5915 38.0371 58.631 38.0536 58.6639 38.0865C58.6968 38.1194 58.7133 38.1588 58.7133 38.2048C58.7133 38.2352 58.7055 38.2631 58.69 38.2886C58.6751 38.3141 58.6549 38.3346 58.6294 38.3501C58.6046 38.365 58.5766 38.3724 58.5456 38.3724Z" fill="#808080"/>
<path d="M57.8239 38.3724C57.778 38.3724 57.7385 38.356 57.7056 38.3231C57.6727 38.2902 57.6562 38.2507 57.6562 38.2048C57.6562 38.1588 57.6727 38.1194 57.7056 38.0865C57.7385 38.0536 57.778 38.0371 57.8239 38.0371C57.8699 38.0371 57.9093 38.0536 57.9422 38.0865C57.9751 38.1194 57.9916 38.1588 57.9916 38.2048C57.9916 38.2352 57.9838 38.2631 57.9683 38.2886C57.9534 38.3141 57.9332 38.3346 57.9077 38.3501C57.8829 38.365 57.855 38.3724 57.8239 38.3724Z" fill="#808080"/>
<path d="M57.1022 38.3724C57.0563 38.3724 57.0168 38.356 56.9839 38.3231C56.951 38.2902 56.9346 38.2507 56.9346 38.2048C56.9346 38.1588 56.951 38.1194 56.9839 38.0865C57.0168 38.0536 57.0563 38.0371 57.1022 38.0371C57.1482 38.0371 57.1876 38.0536 57.2205 38.0865C57.2534 38.1194 57.2699 38.1588 57.2699 38.2048C57.2699 38.2352 57.2621 38.2631 57.2466 38.2886C57.2317 38.3141 57.2115 38.3346 57.1861 38.3501C57.1612 38.365 57.1333 38.3724 57.1022 38.3724Z" fill="#808080"/>
<path d="M56.3786 38.3724C56.3326 38.3724 56.2932 38.356 56.2603 38.3231C56.2274 38.2902 56.2109 38.2507 56.2109 38.2048C56.2109 38.1588 56.2274 38.1194 56.2603 38.0865C56.2932 38.0536 56.3326 38.0371 56.3786 38.0371C56.4246 38.0371 56.464 38.0536 56.4969 38.0865C56.5298 38.1194 56.5463 38.1588 56.5463 38.2048C56.5463 38.2352 56.5385 38.2631 56.523 38.2886C56.5081 38.3141 56.4879 38.3346 56.4624 38.3501C56.4376 38.365 56.4096 38.3724 56.3786 38.3724Z" fill="#808080"/>
<path d="M55.6569 38.3724C55.611 38.3724 55.5715 38.356 55.5386 38.3231C55.5057 38.2902 55.4893 38.2507 55.4893 38.2048C55.4893 38.1588 55.5057 38.1194 55.5386 38.0865C55.5715 38.0536 55.611 38.0371 55.6569 38.0371C55.7029 38.0371 55.7423 38.0536 55.7752 38.0865C55.8081 38.1194 55.8246 38.1588 55.8246 38.2048C55.8246 38.2352 55.8168 38.2631 55.8013 38.2886C55.7864 38.3141 55.7662 38.3346 55.7408 38.3501C55.7159 38.365 55.688 38.3724 55.6569 38.3724Z" fill="#808080"/>
<path d="M54.9343 38.3724C54.8883 38.3724 54.8489 38.356 54.816 38.3231C54.7831 38.2902 54.7666 38.2507 54.7666 38.2048C54.7666 38.1588 54.7831 38.1194 54.816 38.0865C54.8489 38.0536 54.8883 38.0371 54.9343 38.0371C54.9802 38.0371 55.0196 38.0536 55.0526 38.0865C55.0855 38.1194 55.1019 38.1588 55.1019 38.2048C55.1019 38.2352 55.0942 38.2631 55.0786 38.2886C55.0637 38.3141 55.0436 38.3346 55.0181 38.3501C54.9933 38.365 54.9653 38.3724 54.9343 38.3724Z" fill="#808080"/>
<path d="M54.2145 38.3724C54.1686 38.3724 54.1292 38.356 54.0962 38.3231C54.0633 38.2902 54.0469 38.2507 54.0469 38.2048C54.0469 38.1588 54.0633 38.1194 54.0962 38.0865C54.1292 38.0536 54.1686 38.0371 54.2145 38.0371C54.2605 38.0371 54.2999 38.0536 54.3328 38.0865C54.3657 38.1194 54.3822 38.1588 54.3822 38.2048C54.3822 38.2352 54.3744 38.2631 54.3589 38.2886C54.344 38.3141 54.3238 38.3346 54.2984 38.3501C54.2735 38.365 54.2456 38.3724 54.2145 38.3724Z" fill="#808080"/>
<path d="M53.4909 38.3724C53.445 38.3724 53.4055 38.356 53.3726 38.3231C53.3397 38.2902 53.3232 38.2507 53.3232 38.2048C53.3232 38.1588 53.3397 38.1194 53.3726 38.0865C53.4055 38.0536 53.445 38.0371 53.4909 38.0371C53.5369 38.0371 53.5763 38.0536 53.6092 38.0865C53.6421 38.1194 53.6586 38.1588 53.6586 38.2048C53.6586 38.2352 53.6508 38.2631 53.6353 38.2886C53.6204 38.3141 53.6002 38.3346 53.5747 38.3501C53.5499 38.365 53.522 38.3724 53.4909 38.3724Z" fill="#808080"/>
<path d="M52.7692 38.3724C52.7233 38.3724 52.6838 38.356 52.6509 38.3231C52.618 38.2902 52.6016 38.2507 52.6016 38.2048C52.6016 38.1588 52.618 38.1194 52.6509 38.0865C52.6838 38.0536 52.7233 38.0371 52.7692 38.0371C52.8152 38.0371 52.8546 38.0536 52.8875 38.0865C52.9204 38.1194 52.9369 38.1588 52.9369 38.2048C52.9369 38.2352 52.9291 38.2631 52.9136 38.2886C52.8987 38.3141 52.8785 38.3346 52.8531 38.3501C52.8282 38.365 52.8003 38.3724 52.7692 38.3724Z" fill="#808080"/>
<path d="M52.0485 38.3724C52.0026 38.3724 51.9631 38.356 51.9302 38.3231C51.8973 38.2902 51.8809 38.2507 51.8809 38.2048C51.8809 38.1588 51.8973 38.1194 51.9302 38.0865C51.9631 38.0536 52.0026 38.0371 52.0485 38.0371C52.0945 38.0371 52.1339 38.0536 52.1668 38.0865C52.1997 38.1194 52.2162 38.1588 52.2162 38.2048C52.2162 38.2352 52.2084 38.2631 52.1929 38.2886C52.178 38.3141 52.1578 38.3346 52.1324 38.3501C52.1075 38.365 52.0796 38.3724 52.0485 38.3724Z" fill="#808080"/>
<path d="M51.3259 38.3724C51.2799 38.3724 51.2405 38.356 51.2076 38.3231C51.1747 38.2902 51.1582 38.2507 51.1582 38.2048C51.1582 38.1588 51.1747 38.1194 51.2076 38.0865C51.2405 38.0536 51.2799 38.0371 51.3259 38.0371C51.3718 38.0371 51.4112 38.0536 51.4442 38.0865C51.4771 38.1194 51.4935 38.1588 51.4935 38.2048C51.4935 38.2352 51.4858 38.2631 51.4702 38.2886C51.4553 38.3141 51.4352 38.3346 51.4097 38.3501C51.3849 38.365 51.3569 38.3724 51.3259 38.3724Z" fill="#808080"/>
<path d="M50.6042 38.3724C50.5582 38.3724 50.5188 38.356 50.4859 38.3231C50.453 38.2902 50.4365 38.2507 50.4365 38.2048C50.4365 38.1588 50.453 38.1194 50.4859 38.0865C50.5188 38.0536 50.5582 38.0371 50.6042 38.0371C50.6501 38.0371 50.6896 38.0536 50.7225 38.0865C50.7554 38.1194 50.7718 38.1588 50.7718 38.2048C50.7718 38.2352 50.7641 38.2631 50.7486 38.2886C50.7337 38.3141 50.7135 38.3346 50.688 38.3501C50.6632 38.365 50.6352 38.3724 50.6042 38.3724Z" fill="#808080"/>
<path d="M49.8825 38.3724C49.8366 38.3724 49.7971 38.356 49.7642 38.3231C49.7313 38.2902 49.7148 38.2507 49.7148 38.2048C49.7148 38.1588 49.7313 38.1194 49.7642 38.0865C49.7971 38.0536 49.8366 38.0371 49.8825 38.0371C49.9285 38.0371 49.9679 38.0536 50.0008 38.0865C50.0337 38.1194 50.0502 38.1588 50.0502 38.2048C50.0502 38.2352 50.0424 38.2631 50.0269 38.2886C50.012 38.3141 49.9918 38.3346 49.9663 38.3501C49.9415 38.365 49.9136 38.3724 49.8825 38.3724Z" fill="#808080"/>
<path d="M49.1579 38.3724C49.1119 38.3724 49.0725 38.356 49.0396 38.3231C49.0067 38.2902 48.9902 38.2507 48.9902 38.2048C48.9902 38.1588 49.0067 38.1194 49.0396 38.0865C49.0725 38.0536 49.1119 38.0371 49.1579 38.0371C49.2038 38.0371 49.2433 38.0536 49.2762 38.0865C49.3091 38.1194 49.3256 38.1588 49.3256 38.2048C49.3256 38.2352 49.3178 38.2631 49.3023 38.2886C49.2874 38.3141 49.2672 38.3346 49.2417 38.3501C49.2169 38.365 49.1889 38.3724 49.1579 38.3724Z" fill="#808080"/>
<path d="M48.4343 38.3724C48.3883 38.3724 48.3489 38.356 48.316 38.3231C48.2831 38.2902 48.2666 38.2507 48.2666 38.2048C48.2666 38.1588 48.2831 38.1194 48.316 38.0865C48.3489 38.0536 48.3883 38.0371 48.4343 38.0371C48.4802 38.0371 48.5196 38.0536 48.5526 38.0865C48.5855 38.1194 48.6019 38.1588 48.6019 38.2048C48.6019 38.2352 48.5942 38.2631 48.5786 38.2886C48.5637 38.3141 48.5436 38.3346 48.5181 38.3501C48.4933 38.365 48.4653 38.3724 48.4343 38.3724Z" fill="#808080"/>
<path d="M47.7145 38.3724C47.6686 38.3724 47.6292 38.356 47.5962 38.3231C47.5633 38.2902 47.5469 38.2507 47.5469 38.2048C47.5469 38.1588 47.5633 38.1194 47.5962 38.0865C47.6292 38.0536 47.6686 38.0371 47.7145 38.0371C47.7605 38.0371 47.7999 38.0536 47.8328 38.0865C47.8657 38.1194 47.8822 38.1588 47.8822 38.2048C47.8822 38.2352 47.8744 38.2631 47.8589 38.2886C47.844 38.3141 47.8238 38.3346 47.7984 38.3501C47.7735 38.365 47.7456 38.3724 47.7145 38.3724Z" fill="#808080"/>
<path d="M46.9938 38.3724C46.9479 38.3724 46.9085 38.356 46.8755 38.3231C46.8426 38.2902 46.8262 38.2507 46.8262 38.2048C46.8262 38.1588 46.8426 38.1194 46.8755 38.0865C46.9085 38.0536 46.9479 38.0371 46.9938 38.0371C47.0398 38.0371 47.0792 38.0536 47.1121 38.0865C47.145 38.1194 47.1615 38.1588 47.1615 38.2048C47.1615 38.2352 47.1537 38.2631 47.1382 38.2886C47.1233 38.3141 47.1031 38.3346 47.0777 38.3501C47.0528 38.365 47.0249 38.3724 46.9938 38.3724Z" fill="#808080"/>
<path d="M46.2702 38.3724C46.2243 38.3724 46.1848 38.356 46.1519 38.3231C46.119 38.2902 46.1025 38.2507 46.1025 38.2048C46.1025 38.1588 46.119 38.1194 46.1519 38.0865C46.1848 38.0536 46.2243 38.0371 46.2702 38.0371C46.3162 38.0371 46.3556 38.0536 46.3885 38.0865C46.4214 38.1194 46.4379 38.1588 46.4379 38.2048C46.4379 38.2352 46.4301 38.2631 46.4146 38.2886C46.3997 38.3141 46.3795 38.3346 46.354 38.3501C46.3292 38.365 46.3013 38.3724 46.2702 38.3724Z" fill="#808080"/>
<path d="M45.5485 38.3724C45.5026 38.3724 45.4631 38.356 45.4302 38.3231C45.3973 38.2902 45.3809 38.2507 45.3809 38.2048C45.3809 38.1588 45.3973 38.1194 45.4302 38.0865C45.4631 38.0536 45.5026 38.0371 45.5485 38.0371C45.5945 38.0371 45.6339 38.0536 45.6668 38.0865C45.6997 38.1194 45.7162 38.1588 45.7162 38.2048C45.7162 38.2352 45.7084 38.2631 45.6929 38.2886C45.678 38.3141 45.6578 38.3346 45.6324 38.3501C45.6075 38.365 45.5796 38.3724 45.5485 38.3724Z" fill="#808080"/>
<path d="M44.8249 38.3724C44.7789 38.3724 44.7395 38.356 44.7066 38.3231C44.6737 38.2902 44.6572 38.2507 44.6572 38.2048C44.6572 38.1588 44.6737 38.1194 44.7066 38.0865C44.7395 38.0536 44.7789 38.0371 44.8249 38.0371C44.8708 38.0371 44.9103 38.0536 44.9432 38.0865C44.9761 38.1194 44.9926 38.1588 44.9926 38.2048C44.9926 38.2352 44.9848 38.2631 44.9693 38.2886C44.9544 38.3141 44.9342 38.3346 44.9087 38.3501C44.8839 38.365 44.8559 38.3724 44.8249 38.3724Z" fill="#808080"/>
<path d="M44.1042 38.3724C44.0582 38.3724 44.0188 38.356 43.9859 38.3231C43.953 38.2902 43.9365 38.2507 43.9365 38.2048C43.9365 38.1588 43.953 38.1194 43.9859 38.0865C44.0188 38.0536 44.0582 38.0371 44.1042 38.0371C44.1501 38.0371 44.1896 38.0536 44.2225 38.0865C44.2554 38.1194 44.2718 38.1588 44.2718 38.2048C44.2718 38.2352 44.2641 38.2631 44.2486 38.2886C44.2337 38.3141 44.2135 38.3346 44.188 38.3501C44.1632 38.365 44.1352 38.3724 44.1042 38.3724Z" fill="#808080"/>
<path d="M43.3835 38.3724C43.3375 38.3724 43.2981 38.356 43.2652 38.3231C43.2323 38.2902 43.2158 38.2507 43.2158 38.2048C43.2158 38.1588 43.2323 38.1194 43.2652 38.0865C43.2981 38.0536 43.3375 38.0371 43.3835 38.0371C43.4294 38.0371 43.4689 38.0536 43.5018 38.0865C43.5347 38.1194 43.5511 38.1588 43.5511 38.2048C43.5511 38.2352 43.5434 38.2631 43.5279 38.2886C43.513 38.3141 43.4928 38.3346 43.4673 38.3501C43.4425 38.365 43.4145 38.3724 43.3835 38.3724Z" fill="#808080"/>
<path d="M42.6599 38.3724C42.6139 38.3724 42.5745 38.356 42.5416 38.3231C42.5086 38.2902 42.4922 38.2507 42.4922 38.2048C42.4922 38.1588 42.5086 38.1194 42.5416 38.0865C42.5745 38.0536 42.6139 38.0371 42.6599 38.0371C42.7058 38.0371 42.7452 38.0536 42.7781 38.0865C42.8111 38.1194 42.8275 38.1588 42.8275 38.2048C42.8275 38.2352 42.8198 38.2631 42.8042 38.2886C42.7893 38.3141 42.7691 38.3346 42.7437 38.3501C42.7188 38.365 42.6909 38.3724 42.6599 38.3724Z" fill="#808080"/>
<path d="M41.9352 38.3724C41.8893 38.3724 41.8499 38.356 41.8169 38.3231C41.784 38.2902 41.7676 38.2507 41.7676 38.2048C41.7676 38.1588 41.784 38.1194 41.8169 38.0865C41.8499 38.0536 41.8893 38.0371 41.9352 38.0371C41.9812 38.0371 42.0206 38.0536 42.0535 38.0865C42.0864 38.1194 42.1029 38.1588 42.1029 38.2048C42.1029 38.2352 42.0951 38.2631 42.0796 38.2886C42.0647 38.3141 42.0445 38.3346 42.0191 38.3501C41.9942 38.365 41.9663 38.3724 41.9352 38.3724Z" fill="#808080"/>
<path d="M41.2136 38.3724C41.1676 38.3724 41.1282 38.356 41.0953 38.3231C41.0624 38.2902 41.0459 38.2507 41.0459 38.2048C41.0459 38.1588 41.0624 38.1194 41.0953 38.0865C41.1282 38.0536 41.1676 38.0371 41.2136 38.0371C41.2595 38.0371 41.2989 38.0536 41.3319 38.0865C41.3648 38.1194 41.3812 38.1588 41.3812 38.2048C41.3812 38.2352 41.3735 38.2631 41.3579 38.2886C41.343 38.3141 41.3229 38.3346 41.2974 38.3501C41.2726 38.365 41.2446 38.3724 41.2136 38.3724Z" fill="#808080"/>
<path d="M40.4919 38.3724C40.4459 38.3724 40.4065 38.356 40.3736 38.3231C40.3407 38.2902 40.3242 38.2507 40.3242 38.2048C40.3242 38.1588 40.3407 38.1194 40.3736 38.0865C40.4065 38.0536 40.4459 38.0371 40.4919 38.0371C40.5378 38.0371 40.5773 38.0536 40.6102 38.0865C40.6431 38.1194 40.6595 38.1588 40.6595 38.2048C40.6595 38.2352 40.6518 38.2631 40.6363 38.2886C40.6214 38.3141 40.6012 38.3346 40.5757 38.3501C40.5509 38.365 40.5229 38.3724 40.4919 38.3724Z" fill="#808080"/>
<path d="M39.7722 38.3724C39.7262 38.3724 39.6868 38.356 39.6539 38.3231C39.6209 38.2902 39.6045 38.2507 39.6045 38.2048C39.6045 38.1588 39.6209 38.1194 39.6539 38.0865C39.6868 38.0536 39.7262 38.0371 39.7722 38.0371C39.8181 38.0371 39.8575 38.0536 39.8904 38.0865C39.9234 38.1194 39.9398 38.1588 39.9398 38.2048C39.9398 38.2352 39.9321 38.2631 39.9165 38.2886C39.9016 38.3141 39.8814 38.3346 39.856 38.3501C39.8311 38.365 39.8032 38.3724 39.7722 38.3724Z" fill="#808080"/>
<path d="M39.0505 38.3724C39.0045 38.3724 38.9651 38.356 38.9322 38.3231C38.8993 38.2902 38.8828 38.2507 38.8828 38.2048C38.8828 38.1588 38.8993 38.1194 38.9322 38.0865C38.9651 38.0536 39.0045 38.0371 39.0505 38.0371C39.0964 38.0371 39.1359 38.0536 39.1688 38.0865C39.2017 38.1194 39.2181 38.1588 39.2181 38.2048C39.2181 38.2352 39.2104 38.2631 39.1949 38.2886C39.1799 38.3141 39.1598 38.3346 39.1343 38.3501C39.1095 38.365 39.0815 38.3724 39.0505 38.3724Z" fill="#808080"/>
<path d="M38.3288 38.3724C38.2828 38.3724 38.2434 38.356 38.2105 38.3231C38.1776 38.2902 38.1611 38.2507 38.1611 38.2048C38.1611 38.1588 38.1776 38.1194 38.2105 38.0865C38.2434 38.0536 38.2828 38.0371 38.3288 38.0371C38.3747 38.0371 38.4142 38.0536 38.4471 38.0865C38.48 38.1194 38.4965 38.1588 38.4965 38.2048C38.4965 38.2352 38.4887 38.2631 38.4732 38.2886C38.4583 38.3141 38.4381 38.3346 38.4126 38.3501C38.3878 38.365 38.3598 38.3724 38.3288 38.3724Z" fill="#808080"/>
<path d="M37.6042 38.3724C37.5582 38.3724 37.5188 38.356 37.4859 38.3231C37.453 38.2902 37.4365 38.2507 37.4365 38.2048C37.4365 38.1588 37.453 38.1194 37.4859 38.0865C37.5188 38.0536 37.5582 38.0371 37.6042 38.0371C37.6501 38.0371 37.6896 38.0536 37.7225 38.0865C37.7554 38.1194 37.7718 38.1588 37.7718 38.2048C37.7718 38.2352 37.7641 38.2631 37.7486 38.2886C37.7337 38.3141 37.7135 38.3346 37.688 38.3501C37.6632 38.365 37.6352 38.3724 37.6042 38.3724Z" fill="#808080"/>
<path d="M36.8815 38.3724C36.8356 38.3724 36.7961 38.356 36.7632 38.3231C36.7303 38.2902 36.7139 38.2507 36.7139 38.2048C36.7139 38.1588 36.7303 38.1194 36.7632 38.0865C36.7961 38.0536 36.8356 38.0371 36.8815 38.0371C36.9275 38.0371 36.9669 38.0536 36.9998 38.0865C37.0327 38.1194 37.0492 38.1588 37.0492 38.2048C37.0492 38.2352 37.0414 38.2631 37.0259 38.2886C37.011 38.3141 36.9908 38.3346 36.9654 38.3501C36.9405 38.365 36.9126 38.3724 36.8815 38.3724Z" fill="#808080"/>
<path d="M36.1628 38.3724C36.1168 38.3724 36.0774 38.356 36.0445 38.3231C36.0116 38.2902 35.9951 38.2507 35.9951 38.2048C35.9951 38.1588 36.0116 38.1194 36.0445 38.0865C36.0774 38.0536 36.1168 38.0371 36.1628 38.0371C36.2087 38.0371 36.2482 38.0536 36.2811 38.0865C36.314 38.1194 36.3304 38.1588 36.3304 38.2048C36.3304 38.2352 36.3227 38.2631 36.3072 38.2886C36.2923 38.3141 36.2721 38.3346 36.2466 38.3501C36.2218 38.365 36.1938 38.3724 36.1628 38.3724Z" fill="#808080"/>
<path d="M35.4391 38.3724C35.3932 38.3724 35.3538 38.356 35.3209 38.3231C35.2879 38.2902 35.2715 38.2507 35.2715 38.2048C35.2715 38.1588 35.2879 38.1194 35.3209 38.0865C35.3538 38.0536 35.3932 38.0371 35.4391 38.0371C35.4851 38.0371 35.5245 38.0536 35.5574 38.0865C35.5904 38.1194 35.6068 38.1588 35.6068 38.2048C35.6068 38.2352 35.599 38.2631 35.5835 38.2886C35.5686 38.3141 35.5484 38.3346 35.523 38.3501C35.4981 38.365 35.4702 38.3724 35.4391 38.3724Z" fill="#808080"/>
<path d="M34.7155 38.3724C34.6696 38.3724 34.6301 38.356 34.5972 38.3231C34.5643 38.2902 34.5479 38.2507 34.5479 38.2048C34.5479 38.1588 34.5643 38.1194 34.5972 38.0865C34.6301 38.0536 34.6696 38.0371 34.7155 38.0371C34.7615 38.0371 34.8009 38.0536 34.8338 38.0865C34.8667 38.1194 34.8832 38.1588 34.8832 38.2048C34.8832 38.2352 34.8754 38.2631 34.8599 38.2886C34.845 38.3141 34.8248 38.3346 34.7993 38.3501C34.7745 38.365 34.7466 38.3724 34.7155 38.3724Z" fill="#808080"/>
<path d="M33.9929 38.3724C33.9469 38.3724 33.9075 38.356 33.8746 38.3231C33.8417 38.2902 33.8252 38.2507 33.8252 38.2048C33.8252 38.1588 33.8417 38.1194 33.8746 38.0865C33.9075 38.0536 33.9469 38.0371 33.9929 38.0371C34.0388 38.0371 34.0782 38.0536 34.1112 38.0865C34.1441 38.1194 34.1605 38.1588 34.1605 38.2048C34.1605 38.2352 34.1528 38.2631 34.1372 38.2886C34.1223 38.3141 34.1021 38.3346 34.0767 38.3501C34.0519 38.365 34.0239 38.3724 33.9929 38.3724Z" fill="#808080"/>
<path d="M33.2731 38.3724C33.2272 38.3724 33.1877 38.356 33.1548 38.3231C33.1219 38.2902 33.1055 38.2507 33.1055 38.2048C33.1055 38.1588 33.1219 38.1194 33.1548 38.0865C33.1877 38.0536 33.2272 38.0371 33.2731 38.0371C33.3191 38.0371 33.3585 38.0536 33.3914 38.0865C33.4243 38.1194 33.4408 38.1588 33.4408 38.2048C33.4408 38.2352 33.433 38.2631 33.4175 38.2886C33.4026 38.3141 33.3824 38.3346 33.357 38.3501C33.3321 38.365 33.3042 38.3724 33.2731 38.3724Z" fill="#808080"/>
<path d="M61.7477 43.3549C61.7018 43.3549 61.6624 43.3384 61.6294 43.3055C61.5965 43.2726 61.5801 43.2331 61.5801 43.1872C61.5801 43.1412 61.5965 43.1018 61.6294 43.0689C61.6624 43.036 61.7018 43.0195 61.7477 43.0195C61.7937 43.0195 61.8331 43.036 61.866 43.0689C61.8989 43.1018 61.9154 43.1412 61.9154 43.1872C61.9154 43.2176 61.9076 43.2456 61.8921 43.271C61.8772 43.2965 61.857 43.317 61.8316 43.3325C61.8067 43.3474 61.7788 43.3549 61.7477 43.3549Z" fill="#808080"/>
<path d="M61.0261 43.3549C60.9801 43.3549 60.9407 43.3384 60.9078 43.3055C60.8749 43.2726 60.8584 43.2331 60.8584 43.1872C60.8584 43.1412 60.8749 43.1018 60.9078 43.0689C60.9407 43.036 60.9801 43.0195 61.0261 43.0195C61.072 43.0195 61.1114 43.036 61.1444 43.0689C61.1773 43.1018 61.1937 43.1412 61.1937 43.1872C61.1937 43.2176 61.186 43.2456 61.1704 43.271C61.1555 43.2965 61.1354 43.317 61.1099 43.3325C61.0851 43.3474 61.0571 43.3549 61.0261 43.3549Z" fill="#808080"/>
<path d="M60.3044 43.3549C60.2584 43.3549 60.219 43.3384 60.1861 43.3055C60.1532 43.2726 60.1367 43.2331 60.1367 43.1872C60.1367 43.1412 60.1532 43.1018 60.1861 43.0689C60.219 43.036 60.2584 43.0195 60.3044 43.0195C60.3503 43.0195 60.3898 43.036 60.4227 43.0689C60.4556 43.1018 60.472 43.1412 60.472 43.1872C60.472 43.2176 60.4643 43.2456 60.4488 43.271C60.4339 43.2965 60.4137 43.317 60.3882 43.3325C60.3634 43.3474 60.3354 43.3549 60.3044 43.3549Z" fill="#808080"/>
<path d="M59.5837 43.3549C59.5377 43.3549 59.4983 43.3384 59.4654 43.3055C59.4325 43.2726 59.416 43.2331 59.416 43.1872C59.416 43.1412 59.4325 43.1018 59.4654 43.0689C59.4983 43.036 59.5377 43.0195 59.5837 43.0195C59.6296 43.0195 59.6691 43.036 59.702 43.0689C59.7349 43.1018 59.7513 43.1412 59.7513 43.1872C59.7513 43.2176 59.7436 43.2456 59.7281 43.271C59.7132 43.2965 59.693 43.317 59.6675 43.3325C59.6427 43.3474 59.6147 43.3549 59.5837 43.3549Z" fill="#808080"/>
<path d="M58.8581 43.3549C58.8121 43.3549 58.7727 43.3384 58.7398 43.3055C58.7069 43.2726 58.6904 43.2331 58.6904 43.1872C58.6904 43.1412 58.7069 43.1018 58.7398 43.0689C58.7727 43.036 58.8121 43.0195 58.8581 43.0195C58.904 43.0195 58.9435 43.036 58.9764 43.0689C59.0093 43.1018 59.0258 43.1412 59.0258 43.1872C59.0258 43.2176 59.018 43.2456 59.0025 43.271C58.9876 43.2965 58.9674 43.317 58.9419 43.3325C58.9171 43.3474 58.8891 43.3549 58.8581 43.3549Z" fill="#808080"/>
<path d="M58.1345 43.3549C58.0885 43.3549 58.0491 43.3384 58.0162 43.3055C57.9833 43.2726 57.9668 43.2331 57.9668 43.1872C57.9668 43.1412 57.9833 43.1018 58.0162 43.0689C58.0491 43.036 58.0885 43.0195 58.1345 43.0195C58.1804 43.0195 58.2198 43.036 58.2528 43.0689C58.2857 43.1018 58.3021 43.1412 58.3021 43.1872C58.3021 43.2176 58.2944 43.2456 58.2788 43.271C58.2639 43.2965 58.2438 43.317 58.2183 43.3325C58.1935 43.3474 58.1655 43.3549 58.1345 43.3549Z" fill="#808080"/>
<path d="M57.4157 43.3549C57.3698 43.3549 57.3303 43.3384 57.2974 43.3055C57.2645 43.2726 57.248 43.2331 57.248 43.1872C57.248 43.1412 57.2645 43.1018 57.2974 43.0689C57.3303 43.036 57.3698 43.0195 57.4157 43.0195C57.4617 43.0195 57.5011 43.036 57.534 43.0689C57.5669 43.1018 57.5834 43.1412 57.5834 43.1872C57.5834 43.2176 57.5756 43.2456 57.5601 43.271C57.5452 43.2965 57.525 43.317 57.4995 43.3325C57.4747 43.3474 57.4468 43.3549 57.4157 43.3549Z" fill="#808080"/>
<path d="M56.694 43.3549C56.6481 43.3549 56.6086 43.3384 56.5757 43.3055C56.5428 43.2726 56.5264 43.2331 56.5264 43.1872C56.5264 43.1412 56.5428 43.1018 56.5757 43.0689C56.6086 43.036 56.6481 43.0195 56.694 43.0195C56.74 43.0195 56.7794 43.036 56.8123 43.0689C56.8452 43.1018 56.8617 43.1412 56.8617 43.1872C56.8617 43.2176 56.8539 43.2456 56.8384 43.271C56.8235 43.2965 56.8033 43.317 56.7779 43.3325C56.753 43.3474 56.7251 43.3549 56.694 43.3549Z" fill="#808080"/>
<path d="M55.9704 43.3549C55.9244 43.3549 55.885 43.3384 55.8521 43.3055C55.8192 43.2726 55.8027 43.2331 55.8027 43.1872C55.8027 43.1412 55.8192 43.1018 55.8521 43.0689C55.885 43.036 55.9244 43.0195 55.9704 43.0195C56.0163 43.0195 56.0558 43.036 56.0887 43.0689C56.1216 43.1018 56.1381 43.1412 56.1381 43.1872C56.1381 43.2176 56.1303 43.2456 56.1148 43.271C56.0999 43.2965 56.0797 43.317 56.0542 43.3325C56.0294 43.3474 56.0014 43.3549 55.9704 43.3549Z" fill="#808080"/>
<path d="M55.2477 43.3549C55.2018 43.3549 55.1624 43.3384 55.1294 43.3055C55.0965 43.2726 55.0801 43.2331 55.0801 43.1872C55.0801 43.1412 55.0965 43.1018 55.1294 43.0689C55.1624 43.036 55.2018 43.0195 55.2477 43.0195C55.2937 43.0195 55.3331 43.036 55.366 43.0689C55.3989 43.1018 55.4154 43.1412 55.4154 43.1872C55.4154 43.2176 55.4076 43.2456 55.3921 43.271C55.3772 43.2965 55.357 43.317 55.3316 43.3325C55.3067 43.3474 55.2788 43.3549 55.2477 43.3549Z" fill="#808080"/>
<path d="M54.5251 43.3549C54.4791 43.3549 54.4397 43.3384 54.4068 43.3055C54.3739 43.2726 54.3574 43.2331 54.3574 43.1872C54.3574 43.1412 54.3739 43.1018 54.4068 43.0689C54.4397 43.036 54.4791 43.0195 54.5251 43.0195C54.571 43.0195 54.6105 43.036 54.6434 43.0689C54.6763 43.1018 54.6927 43.1412 54.6927 43.1872C54.6927 43.2176 54.685 43.2456 54.6695 43.271C54.6546 43.2965 54.6344 43.317 54.6089 43.3325C54.5841 43.3474 54.5561 43.3549 54.5251 43.3549Z" fill="#808080"/>
<path d="M53.8034 43.3549C53.7575 43.3549 53.718 43.3384 53.6851 43.3055C53.6522 43.2726 53.6357 43.2331 53.6357 43.1872C53.6357 43.1412 53.6522 43.1018 53.6851 43.0689C53.718 43.036 53.7575 43.0195 53.8034 43.0195C53.8494 43.0195 53.8888 43.036 53.9217 43.0689C53.9546 43.1018 53.9711 43.1412 53.9711 43.1872C53.9711 43.2176 53.9633 43.2456 53.9478 43.271C53.9329 43.2965 53.9127 43.317 53.8872 43.3325C53.8624 43.3474 53.8345 43.3549 53.8034 43.3549Z" fill="#808080"/>
<path d="M53.0837 43.3549C53.0377 43.3549 52.9983 43.3384 52.9654 43.3055C52.9325 43.2726 52.916 43.2331 52.916 43.1872C52.916 43.1412 52.9325 43.1018 52.9654 43.0689C52.9983 43.036 53.0377 43.0195 53.0837 43.0195C53.1296 43.0195 53.1691 43.036 53.202 43.0689C53.2349 43.1018 53.2513 43.1412 53.2513 43.1872C53.2513 43.2176 53.2436 43.2456 53.2281 43.271C53.2132 43.2965 53.193 43.317 53.1675 43.3325C53.1427 43.3474 53.1147 43.3549 53.0837 43.3549Z" fill="#808080"/>
<path d="M52.361 43.3549C52.3151 43.3549 52.2756 43.3384 52.2427 43.3055C52.2098 43.2726 52.1934 43.2331 52.1934 43.1872C52.1934 43.1412 52.2098 43.1018 52.2427 43.0689C52.2756 43.036 52.3151 43.0195 52.361 43.0195C52.407 43.0195 52.4464 43.036 52.4793 43.0689C52.5122 43.1018 52.5287 43.1412 52.5287 43.1872C52.5287 43.2176 52.5209 43.2456 52.5054 43.271C52.4905 43.2965 52.4703 43.317 52.4449 43.3325C52.42 43.3474 52.3921 43.3549 52.361 43.3549Z" fill="#808080"/>
<path d="M51.6354 43.3549C51.5895 43.3549 51.5501 43.3384 51.5171 43.3055C51.4842 43.2726 51.4678 43.2331 51.4678 43.1872C51.4678 43.1412 51.4842 43.1018 51.5171 43.0689C51.5501 43.036 51.5895 43.0195 51.6354 43.0195C51.6814 43.0195 51.7208 43.036 51.7537 43.0689C51.7866 43.1018 51.8031 43.1412 51.8031 43.1872C51.8031 43.2176 51.7953 43.2456 51.7798 43.271C51.7649 43.2965 51.7447 43.317 51.7193 43.3325C51.6944 43.3474 51.6665 43.3549 51.6354 43.3549Z" fill="#808080"/>
<path d="M50.9138 43.3549C50.8678 43.3549 50.8284 43.3384 50.7955 43.3055C50.7625 43.2726 50.7461 43.2331 50.7461 43.1872C50.7461 43.1412 50.7625 43.1018 50.7955 43.0689C50.8284 43.036 50.8678 43.0195 50.9138 43.0195C50.9597 43.0195 50.9991 43.036 51.0321 43.0689C51.065 43.1018 51.0814 43.1412 51.0814 43.1872C51.0814 43.2176 51.0737 43.2456 51.0581 43.271C51.0432 43.2965 51.023 43.317 50.9976 43.3325C50.9727 43.3474 50.9448 43.3549 50.9138 43.3549Z" fill="#808080"/>
<path d="M50.1921 43.3549C50.1461 43.3549 50.1067 43.3384 50.0738 43.3055C50.0409 43.2726 50.0244 43.2331 50.0244 43.1872C50.0244 43.1412 50.0409 43.1018 50.0738 43.0689C50.1067 43.036 50.1461 43.0195 50.1921 43.0195C50.238 43.0195 50.2775 43.036 50.3104 43.0689C50.3433 43.1018 50.3597 43.1412 50.3597 43.1872C50.3597 43.2176 50.352 43.2456 50.3365 43.271C50.3215 43.2965 50.3014 43.317 50.2759 43.3325C50.2511 43.3474 50.2231 43.3549 50.1921 43.3549Z" fill="#808080"/>
<path d="M49.4714 43.3549C49.4254 43.3549 49.386 43.3384 49.3531 43.3055C49.3202 43.2726 49.3037 43.2331 49.3037 43.1872C49.3037 43.1412 49.3202 43.1018 49.3531 43.0689C49.386 43.036 49.4254 43.0195 49.4714 43.0195C49.5173 43.0195 49.5568 43.036 49.5897 43.0689C49.6226 43.1018 49.639 43.1412 49.639 43.1872C49.639 43.2176 49.6313 43.2456 49.6157 43.271C49.6008 43.2965 49.5807 43.317 49.5552 43.3325C49.5304 43.3474 49.5024 43.3549 49.4714 43.3549Z" fill="#808080"/>
<path d="M48.7487 43.3549C48.7028 43.3549 48.6633 43.3384 48.6304 43.3055C48.5975 43.2726 48.5811 43.2331 48.5811 43.1872C48.5811 43.1412 48.5975 43.1018 48.6304 43.0689C48.6633 43.036 48.7028 43.0195 48.7487 43.0195C48.7947 43.0195 48.8341 43.036 48.867 43.0689C48.8999 43.1018 48.9164 43.1412 48.9164 43.1872C48.9164 43.2176 48.9086 43.2456 48.8931 43.271C48.8782 43.2965 48.858 43.317 48.8325 43.3325C48.8077 43.3474 48.7798 43.3549 48.7487 43.3549Z" fill="#808080"/>
<path d="M48.027 43.3549C47.9811 43.3549 47.9417 43.3384 47.9087 43.3055C47.8758 43.2726 47.8594 43.2331 47.8594 43.1872C47.8594 43.1412 47.8758 43.1018 47.9087 43.0689C47.9417 43.036 47.9811 43.0195 48.027 43.0195C48.073 43.0195 48.1124 43.036 48.1453 43.0689C48.1782 43.1018 48.1947 43.1412 48.1947 43.1872C48.1947 43.2176 48.1869 43.2456 48.1714 43.271C48.1565 43.2965 48.1363 43.317 48.1109 43.3325C48.086 43.3474 48.0581 43.3549 48.027 43.3549Z" fill="#808080"/>
<path d="M47.3034 43.3549C47.2575 43.3549 47.218 43.3384 47.1851 43.3055C47.1522 43.2726 47.1357 43.2331 47.1357 43.1872C47.1357 43.1412 47.1522 43.1018 47.1851 43.0689C47.218 43.036 47.2575 43.0195 47.3034 43.0195C47.3494 43.0195 47.3888 43.036 47.4217 43.0689C47.4546 43.1018 47.4711 43.1412 47.4711 43.1872C47.4711 43.2176 47.4633 43.2456 47.4478 43.271C47.4329 43.2965 47.4127 43.317 47.3872 43.3325C47.3624 43.3474 47.3345 43.3549 47.3034 43.3549Z" fill="#808080"/>
<path d="M46.5827 43.3549C46.5367 43.3549 46.4973 43.3384 46.4644 43.3055C46.4315 43.2726 46.415 43.2331 46.415 43.1872C46.415 43.1412 46.4315 43.1018 46.4644 43.0689C46.4973 43.036 46.5367 43.0195 46.5827 43.0195C46.6287 43.0195 46.6681 43.036 46.701 43.0689C46.7339 43.1018 46.7504 43.1412 46.7504 43.1872C46.7504 43.2176 46.7426 43.2456 46.7271 43.271C46.7122 43.2965 46.692 43.317 46.6665 43.3325C46.6417 43.3474 46.6138 43.3549 46.5827 43.3549Z" fill="#808080"/>
<path d="M45.863 43.3549C45.817 43.3549 45.7776 43.3384 45.7447 43.3055C45.7118 43.2726 45.6953 43.2331 45.6953 43.1872C45.6953 43.1412 45.7118 43.1018 45.7447 43.0689C45.7776 43.036 45.817 43.0195 45.863 43.0195C45.9089 43.0195 45.9484 43.036 45.9813 43.0689C46.0142 43.1018 46.0306 43.1412 46.0306 43.1872C46.0306 43.2176 46.0229 43.2456 46.0074 43.271C45.9924 43.2965 45.9723 43.317 45.9468 43.3325C45.922 43.3474 45.894 43.3549 45.863 43.3549Z" fill="#808080"/>
<path d="M45.1393 43.3549C45.0934 43.3549 45.054 43.3384 45.021 43.3055C44.9881 43.2726 44.9717 43.2331 44.9717 43.1872C44.9717 43.1412 44.9881 43.1018 45.021 43.0689C45.054 43.036 45.0934 43.0195 45.1393 43.0195C45.1853 43.0195 45.2247 43.036 45.2576 43.0689C45.2905 43.1018 45.307 43.1412 45.307 43.1872C45.307 43.2176 45.2992 43.2456 45.2837 43.271C45.2688 43.2965 45.2486 43.317 45.2232 43.3325C45.1983 43.3474 45.1704 43.3549 45.1393 43.3549Z" fill="#808080"/>
<path d="M44.4167 43.3549C44.3707 43.3549 44.3313 43.3384 44.2984 43.3055C44.2655 43.2726 44.249 43.2331 44.249 43.1872C44.249 43.1412 44.2655 43.1018 44.2984 43.0689C44.3313 43.036 44.3707 43.0195 44.4167 43.0195C44.4626 43.0195 44.5021 43.036 44.535 43.0689C44.5679 43.1018 44.5843 43.1412 44.5843 43.1872C44.5843 43.2176 44.5766 43.2456 44.5611 43.271C44.5462 43.2965 44.526 43.317 44.5005 43.3325C44.4757 43.3474 44.4477 43.3549 44.4167 43.3549Z" fill="#808080"/>
<path d="M43.6931 43.3549C43.6471 43.3549 43.6077 43.3384 43.5748 43.3055C43.5418 43.2726 43.5254 43.2331 43.5254 43.1872C43.5254 43.1412 43.5418 43.1018 43.5748 43.0689C43.6077 43.036 43.6471 43.0195 43.6931 43.0195C43.739 43.0195 43.7784 43.036 43.8113 43.0689C43.8443 43.1018 43.8607 43.1412 43.8607 43.1872C43.8607 43.2176 43.853 43.2456 43.8374 43.271C43.8225 43.2965 43.8023 43.317 43.7769 43.3325C43.752 43.3474 43.7241 43.3549 43.6931 43.3549Z" fill="#808080"/>
<path d="M42.9724 43.3549C42.9264 43.3549 42.887 43.3384 42.8541 43.3055C42.8211 43.2726 42.8047 43.2331 42.8047 43.1872C42.8047 43.1412 42.8211 43.1018 42.8541 43.0689C42.887 43.036 42.9264 43.0195 42.9724 43.0195C43.0183 43.0195 43.0577 43.036 43.0906 43.0689C43.1236 43.1018 43.14 43.1412 43.14 43.1872C43.14 43.2176 43.1323 43.2456 43.1167 43.271C43.1018 43.2965 43.0816 43.317 43.0562 43.3325C43.0313 43.3474 43.0034 43.3549 42.9724 43.3549Z" fill="#808080"/>
<path d="M62.1432 48.3375C62.0973 48.3375 62.0579 48.3211 62.025 48.2882C61.992 48.2552 61.9756 48.2158 61.9756 48.1699C61.9756 48.1239 61.992 48.0845 62.025 48.0516C62.0579 48.0187 62.0973 48.0022 62.1432 48.0022C62.1892 48.0022 62.2286 48.0187 62.2615 48.0516C62.2945 48.0845 62.3109 48.1239 62.3109 48.1699C62.3109 48.2003 62.3031 48.2282 62.2876 48.2537C62.2727 48.2792 62.2525 48.2996 62.2271 48.3152C62.2022 48.3301 62.1743 48.3375 62.1432 48.3375Z" fill="#808080"/>
<path d="M61.4235 48.3375C61.3776 48.3375 61.3381 48.3211 61.3052 48.2882C61.2723 48.2552 61.2559 48.2158 61.2559 48.1699C61.2559 48.1239 61.2723 48.0845 61.3052 48.0516C61.3381 48.0187 61.3776 48.0022 61.4235 48.0022C61.4695 48.0022 61.5089 48.0187 61.5418 48.0516C61.5747 48.0845 61.5912 48.1239 61.5912 48.1699C61.5912 48.2003 61.5834 48.2282 61.5679 48.2537C61.553 48.2792 61.5328 48.2996 61.5074 48.3152C61.4825 48.3301 61.4546 48.3375 61.4235 48.3375Z" fill="#808080"/>
<path d="M60.6999 48.3375C60.6539 48.3375 60.6145 48.3211 60.5816 48.2882C60.5487 48.2552 60.5322 48.2158 60.5322 48.1699C60.5322 48.1239 60.5487 48.0845 60.5816 48.0516C60.6145 48.0187 60.6539 48.0022 60.6999 48.0022C60.7458 48.0022 60.7853 48.0187 60.8182 48.0516C60.8511 48.0845 60.8676 48.1239 60.8676 48.1699C60.8676 48.2003 60.8598 48.2282 60.8443 48.2537C60.8294 48.2792 60.8092 48.2996 60.7837 48.3152C60.7589 48.3301 60.7309 48.3375 60.6999 48.3375Z" fill="#808080"/>
<path d="M59.9792 48.3375C59.9332 48.3375 59.8938 48.3211 59.8609 48.2882C59.828 48.2552 59.8115 48.2158 59.8115 48.1699C59.8115 48.1239 59.828 48.0845 59.8609 48.0516C59.8938 48.0187 59.9332 48.0022 59.9792 48.0022C60.0251 48.0022 60.0646 48.0187 60.0975 48.0516C60.1304 48.0845 60.1468 48.1239 60.1468 48.1699C60.1468 48.2003 60.1391 48.2282 60.1236 48.2537C60.1087 48.2792 60.0885 48.2996 60.063 48.3152C60.0382 48.3301 60.0102 48.3375 59.9792 48.3375Z" fill="#808080"/>
<path d="M59.2565 48.3375C59.2106 48.3375 59.1711 48.3211 59.1382 48.2882C59.1053 48.2552 59.0889 48.2158 59.0889 48.1699C59.0889 48.1239 59.1053 48.0845 59.1382 48.0516C59.1711 48.0187 59.2106 48.0022 59.2565 48.0022C59.3025 48.0022 59.3419 48.0187 59.3748 48.0516C59.4077 48.0845 59.4242 48.1239 59.4242 48.1699C59.4242 48.2003 59.4164 48.2282 59.4009 48.2537C59.386 48.2792 59.3658 48.2996 59.3404 48.3152C59.3155 48.3301 59.2876 48.3375 59.2565 48.3375Z" fill="#808080"/>
<path d="M58.5348 48.3375C58.4889 48.3375 58.4495 48.3211 58.4166 48.2882C58.3836 48.2552 58.3672 48.2158 58.3672 48.1699C58.3672 48.1239 58.3836 48.0845 58.4166 48.0516C58.4495 48.0187 58.4889 48.0022 58.5348 48.0022C58.5808 48.0022 58.6202 48.0187 58.6531 48.0516C58.6861 48.0845 58.7025 48.1239 58.7025 48.1699C58.7025 48.2003 58.6947 48.2282 58.6792 48.2537C58.6643 48.2792 58.6441 48.2996 58.6187 48.3152C58.5938 48.3301 58.5659 48.3375 58.5348 48.3375Z" fill="#808080"/>
<path d="M57.8132 48.3375C57.7672 48.3375 57.7278 48.3211 57.6949 48.2882C57.662 48.2552 57.6455 48.2158 57.6455 48.1699C57.6455 48.1239 57.662 48.0845 57.6949 48.0516C57.7278 48.0187 57.7672 48.0022 57.8132 48.0022C57.8591 48.0022 57.8986 48.0187 57.9315 48.0516C57.9644 48.0845 57.9808 48.1239 57.9808 48.1699C57.9808 48.2003 57.9731 48.2282 57.9575 48.2537C57.9426 48.2792 57.9225 48.2996 57.897 48.3152C57.8722 48.3301 57.8442 48.3375 57.8132 48.3375Z" fill="#808080"/>
<path d="M57.0925 48.3375C57.0465 48.3375 57.0071 48.3211 56.9742 48.2882C56.9413 48.2552 56.9248 48.2158 56.9248 48.1699C56.9248 48.1239 56.9413 48.0845 56.9742 48.0516C57.0071 48.0187 57.0465 48.0022 57.0925 48.0022C57.1384 48.0022 57.1778 48.0187 57.2108 48.0516C57.2437 48.0845 57.2601 48.1239 57.2601 48.1699C57.2601 48.2003 57.2524 48.2282 57.2368 48.2537C57.2219 48.2792 57.2018 48.2996 57.1763 48.3152C57.1515 48.3301 57.1235 48.3375 57.0925 48.3375Z" fill="#808080"/>
<path d="M56.3669 48.3375C56.3209 48.3375 56.2815 48.3211 56.2486 48.2882C56.2157 48.2552 56.1992 48.2158 56.1992 48.1699C56.1992 48.1239 56.2157 48.0845 56.2486 48.0516C56.2815 48.0187 56.3209 48.0022 56.3669 48.0022C56.4128 48.0022 56.4523 48.0187 56.4852 48.0516C56.5181 48.0845 56.5345 48.1239 56.5345 48.1699C56.5345 48.2003 56.5268 48.2282 56.5113 48.2537C56.4964 48.2792 56.4762 48.2996 56.4507 48.3152C56.4259 48.3301 56.3979 48.3375 56.3669 48.3375Z" fill="#808080"/>
<path d="M55.6432 48.3375C55.5973 48.3375 55.5579 48.3211 55.525 48.2882C55.492 48.2552 55.4756 48.2158 55.4756 48.1699C55.4756 48.1239 55.492 48.0845 55.525 48.0516C55.5579 48.0187 55.5973 48.0022 55.6432 48.0022C55.6892 48.0022 55.7286 48.0187 55.7615 48.0516C55.7945 48.0845 55.8109 48.1239 55.8109 48.1699C55.8109 48.2003 55.8031 48.2282 55.7876 48.2537C55.7727 48.2792 55.7525 48.2996 55.7271 48.3152C55.7022 48.3301 55.6743 48.3375 55.6432 48.3375Z" fill="#808080"/>
<path d="M54.9245 48.3375C54.8785 48.3375 54.8391 48.3211 54.8062 48.2882C54.7733 48.2552 54.7568 48.2158 54.7568 48.1699C54.7568 48.1239 54.7733 48.0845 54.8062 48.0516C54.8391 48.0187 54.8785 48.0022 54.9245 48.0022C54.9705 48.0022 55.0099 48.0187 55.0428 48.0516C55.0757 48.0845 55.0922 48.1239 55.0922 48.1699C55.0922 48.2003 55.0844 48.2282 55.0689 48.2537C55.054 48.2792 55.0338 48.2996 55.0083 48.3152C54.9835 48.3301 54.9555 48.3375 54.9245 48.3375Z" fill="#808080"/>
<path d="M54.2028 48.3375C54.1569 48.3375 54.1174 48.3211 54.0845 48.2882C54.0516 48.2552 54.0352 48.2158 54.0352 48.1699C54.0352 48.1239 54.0516 48.0845 54.0845 48.0516C54.1174 48.0187 54.1569 48.0022 54.2028 48.0022C54.2488 48.0022 54.2882 48.0187 54.3211 48.0516C54.354 48.0845 54.3705 48.1239 54.3705 48.1699C54.3705 48.2003 54.3627 48.2282 54.3472 48.2537C54.3323 48.2792 54.3121 48.2996 54.2867 48.3152C54.2618 48.3301 54.2339 48.3375 54.2028 48.3375Z" fill="#808080"/>
<path d="M53.4792 48.3375C53.4332 48.3375 53.3938 48.3211 53.3609 48.2882C53.328 48.2552 53.3115 48.2158 53.3115 48.1699C53.3115 48.1239 53.328 48.0845 53.3609 48.0516C53.3938 48.0187 53.4332 48.0022 53.4792 48.0022C53.5251 48.0022 53.5646 48.0187 53.5975 48.0516C53.6304 48.0845 53.6468 48.1239 53.6468 48.1699C53.6468 48.2003 53.6391 48.2282 53.6236 48.2537C53.6087 48.2792 53.5885 48.2996 53.563 48.3152C53.5382 48.3301 53.5102 48.3375 53.4792 48.3375Z" fill="#808080"/>
<path d="M52.7565 48.3375C52.7106 48.3375 52.6711 48.3211 52.6382 48.2882C52.6053 48.2552 52.5889 48.2158 52.5889 48.1699C52.5889 48.1239 52.6053 48.0845 52.6382 48.0516C52.6711 48.0187 52.7106 48.0022 52.7565 48.0022C52.8025 48.0022 52.8419 48.0187 52.8748 48.0516C52.9077 48.0845 52.9242 48.1239 52.9242 48.1699C52.9242 48.2003 52.9164 48.2282 52.9009 48.2537C52.886 48.2792 52.8658 48.2996 52.8404 48.3152C52.8155 48.3301 52.7876 48.3375 52.7565 48.3375Z" fill="#808080"/>
<path d="M52.0349 48.3375C51.9889 48.3375 51.9495 48.3211 51.9166 48.2882C51.8836 48.2552 51.8672 48.2158 51.8672 48.1699C51.8672 48.1239 51.8836 48.0845 51.9166 48.0516C51.9495 48.0187 51.9889 48.0022 52.0349 48.0022C52.0808 48.0022 52.1202 48.0187 52.1531 48.0516C52.1861 48.0845 52.2025 48.1239 52.2025 48.1699C52.2025 48.2003 52.1948 48.2282 52.1792 48.2537C52.1643 48.2792 52.1441 48.2996 52.1187 48.3152C52.0938 48.3301 52.0659 48.3375 52.0349 48.3375Z" fill="#808080"/>
<path d="M51.3122 48.3375C51.2662 48.3375 51.2268 48.3211 51.1939 48.2882C51.161 48.2552 51.1445 48.2158 51.1445 48.1699C51.1445 48.1239 51.161 48.0845 51.1939 48.0516C51.2268 48.0187 51.2662 48.0022 51.3122 48.0022C51.3581 48.0022 51.3976 48.0187 51.4305 48.0516C51.4634 48.0845 51.4799 48.1239 51.4799 48.1699C51.4799 48.2003 51.4721 48.2282 51.4566 48.2537C51.4417 48.2792 51.4215 48.2996 51.396 48.3152C51.3712 48.3301 51.3432 48.3375 51.3122 48.3375Z" fill="#808080"/>
<path d="M50.5925 48.3375C50.5465 48.3375 50.5071 48.3211 50.4742 48.2882C50.4413 48.2552 50.4248 48.2158 50.4248 48.1699C50.4248 48.1239 50.4413 48.0845 50.4742 48.0516C50.5071 48.0187 50.5465 48.0022 50.5925 48.0022C50.6384 48.0022 50.6779 48.0187 50.7108 48.0516C50.7437 48.0845 50.7601 48.1239 50.7601 48.1699C50.7601 48.2003 50.7524 48.2282 50.7368 48.2537C50.7219 48.2792 50.7018 48.2996 50.6763 48.3152C50.6515 48.3301 50.6235 48.3375 50.5925 48.3375Z" fill="#808080"/>
<path d="M49.8688 48.3375C49.8229 48.3375 49.7835 48.3211 49.7505 48.2882C49.7176 48.2552 49.7012 48.2158 49.7012 48.1699C49.7012 48.1239 49.7176 48.0845 49.7505 48.0516C49.7835 48.0187 49.8229 48.0022 49.8688 48.0022C49.9148 48.0022 49.9542 48.0187 49.9871 48.0516C50.02 48.0845 50.0365 48.1239 50.0365 48.1699C50.0365 48.2003 50.0287 48.2282 50.0132 48.2537C49.9983 48.2792 49.9781 48.2996 49.9527 48.3152C49.9278 48.3301 49.8999 48.3375 49.8688 48.3375Z" fill="#808080"/>
<path d="M49.1442 48.3375C49.0983 48.3375 49.0588 48.3211 49.0259 48.2882C48.993 48.2552 48.9766 48.2158 48.9766 48.1699C48.9766 48.1239 48.993 48.0845 49.0259 48.0516C49.0588 48.0187 49.0983 48.0022 49.1442 48.0022C49.1902 48.0022 49.2296 48.0187 49.2625 48.0516C49.2954 48.0845 49.3119 48.1239 49.3119 48.1699C49.3119 48.2003 49.3041 48.2282 49.2886 48.2537C49.2737 48.2792 49.2535 48.2996 49.2281 48.3152C49.2032 48.3301 49.1753 48.3375 49.1442 48.3375Z" fill="#808080"/>
<path d="M48.4225 48.3375C48.3766 48.3375 48.3372 48.3211 48.3043 48.2882C48.2713 48.2552 48.2549 48.2158 48.2549 48.1699C48.2549 48.1239 48.2713 48.0845 48.3043 48.0516C48.3372 48.0187 48.3766 48.0022 48.4225 48.0022C48.4685 48.0022 48.5079 48.0187 48.5408 48.0516C48.5738 48.0845 48.5902 48.1239 48.5902 48.1699C48.5902 48.2003 48.5824 48.2282 48.5669 48.2537C48.552 48.2792 48.5318 48.2996 48.5064 48.3152C48.4815 48.3301 48.4536 48.3375 48.4225 48.3375Z" fill="#808080"/>
<path d="M47.7009 48.3375C47.6549 48.3375 47.6155 48.3211 47.5826 48.2882C47.5497 48.2552 47.5332 48.2158 47.5332 48.1699C47.5332 48.1239 47.5497 48.0845 47.5826 48.0516C47.6155 48.0187 47.6549 48.0022 47.7009 48.0022C47.7468 48.0022 47.7862 48.0187 47.8192 48.0516C47.8521 48.0845 47.8685 48.1239 47.8685 48.1699C47.8685 48.2003 47.8608 48.2282 47.8452 48.2537C47.8303 48.2792 47.8102 48.2996 47.7847 48.3152C47.7599 48.3301 47.7319 48.3375 47.7009 48.3375Z" fill="#808080"/>
<path d="M46.9802 48.3375C46.9342 48.3375 46.8948 48.3211 46.8619 48.2882C46.829 48.2552 46.8125 48.2158 46.8125 48.1699C46.8125 48.1239 46.829 48.0845 46.8619 48.0516C46.8948 48.0187 46.9342 48.0022 46.9802 48.0022C47.0261 48.0022 47.0655 48.0187 47.0985 48.0516C47.1314 48.0845 47.1478 48.1239 47.1478 48.1699C47.1478 48.2003 47.1401 48.2282 47.1245 48.2537C47.1096 48.2792 47.0895 48.2996 47.064 48.3152C47.0392 48.3301 47.0112 48.3375 46.9802 48.3375Z" fill="#808080"/>
<path d="M46.2585 48.3375C46.2125 48.3375 46.1731 48.3211 46.1402 48.2882C46.1073 48.2552 46.0908 48.2158 46.0908 48.1699C46.0908 48.1239 46.1073 48.0845 46.1402 48.0516C46.1731 48.0187 46.2125 48.0022 46.2585 48.0022C46.3044 48.0022 46.3439 48.0187 46.3768 48.0516C46.4097 48.0845 46.4261 48.1239 46.4261 48.1699C46.4261 48.2003 46.4184 48.2282 46.4029 48.2537C46.388 48.2792 46.3678 48.2996 46.3423 48.3152C46.3175 48.3301 46.2895 48.3375 46.2585 48.3375Z" fill="#808080"/>
<path d="M45.5358 48.3375C45.4899 48.3375 45.4504 48.3211 45.4175 48.2882C45.3846 48.2552 45.3682 48.2158 45.3682 48.1699C45.3682 48.1239 45.3846 48.0845 45.4175 48.0516C45.4504 48.0187 45.4899 48.0022 45.5358 48.0022C45.5818 48.0022 45.6212 48.0187 45.6541 48.0516C45.687 48.0845 45.7035 48.1239 45.7035 48.1699C45.7035 48.2003 45.6957 48.2282 45.6802 48.2537C45.6653 48.2792 45.6451 48.2996 45.6197 48.3152C45.5948 48.3301 45.5669 48.3375 45.5358 48.3375Z" fill="#808080"/>
<path d="M44.8122 48.3375C44.7662 48.3375 44.7268 48.3211 44.6939 48.2882C44.661 48.2552 44.6445 48.2158 44.6445 48.1699C44.6445 48.1239 44.661 48.0845 44.6939 48.0516C44.7268 48.0187 44.7662 48.0022 44.8122 48.0022C44.8581 48.0022 44.8976 48.0187 44.9305 48.0516C44.9634 48.0845 44.9799 48.1239 44.9799 48.1699C44.9799 48.2003 44.9721 48.2282 44.9566 48.2537C44.9417 48.2792 44.9215 48.2996 44.896 48.3152C44.8712 48.3301 44.8432 48.3375 44.8122 48.3375Z" fill="#808080"/>
<path d="M44.0915 48.3375C44.0455 48.3375 44.0061 48.3211 43.9732 48.2882C43.9403 48.2552 43.9238 48.2158 43.9238 48.1699C43.9238 48.1239 43.9403 48.0845 43.9732 48.0516C44.0061 48.0187 44.0455 48.0022 44.0915 48.0022C44.1374 48.0022 44.1769 48.0187 44.2098 48.0516C44.2427 48.0845 44.2592 48.1239 44.2592 48.1699C44.2592 48.2003 44.2514 48.2282 44.2359 48.2537C44.221 48.2792 44.2008 48.2996 44.1753 48.3152C44.1505 48.3301 44.1225 48.3375 44.0915 48.3375Z" fill="#808080"/>
<path d="M43.3737 48.3375C43.3278 48.3375 43.2883 48.3211 43.2554 48.2882C43.2225 48.2552 43.2061 48.2158 43.2061 48.1699C43.2061 48.1239 43.2225 48.0845 43.2554 48.0516C43.2883 48.0187 43.3278 48.0022 43.3737 48.0022C43.4197 48.0022 43.4591 48.0187 43.492 48.0516C43.5249 48.0845 43.5414 48.1239 43.5414 48.1699C43.5414 48.2003 43.5336 48.2282 43.5181 48.2537C43.5032 48.2792 43.483 48.2996 43.4575 48.3152C43.4327 48.3301 43.4048 48.3375 43.3737 48.3375Z" fill="#808080"/>
<path d="M42.6481 48.3375C42.6022 48.3375 42.5627 48.3211 42.5298 48.2882C42.4969 48.2552 42.4805 48.2158 42.4805 48.1699C42.4805 48.1239 42.4969 48.0845 42.5298 48.0516C42.5627 48.0187 42.6022 48.0022 42.6481 48.0022C42.6941 48.0022 42.7335 48.0187 42.7664 48.0516C42.7993 48.0845 42.8158 48.1239 42.8158 48.1699C42.8158 48.2003 42.808 48.2282 42.7925 48.2537C42.7776 48.2792 42.7574 48.2996 42.732 48.3152C42.7071 48.3301 42.6792 48.3375 42.6481 48.3375Z" fill="#808080"/>
<path d="M41.9255 48.3375C41.8795 48.3375 41.8401 48.3211 41.8072 48.2882C41.7743 48.2552 41.7578 48.2158 41.7578 48.1699C41.7578 48.1239 41.7743 48.0845 41.8072 48.0516C41.8401 48.0187 41.8795 48.0022 41.9255 48.0022C41.9714 48.0022 42.0109 48.0187 42.0438 48.0516C42.0767 48.0845 42.0931 48.1239 42.0931 48.1699C42.0931 48.2003 42.0854 48.2282 42.0699 48.2537C42.0549 48.2792 42.0348 48.2996 42.0093 48.3152C41.9845 48.3301 41.9565 48.3375 41.9255 48.3375Z" fill="#808080"/>
<path d="M41.2018 48.3375C41.1559 48.3375 41.1165 48.3211 41.0835 48.2882C41.0506 48.2552 41.0342 48.2158 41.0342 48.1699C41.0342 48.1239 41.0506 48.0845 41.0835 48.0516C41.1165 48.0187 41.1559 48.0022 41.2018 48.0022C41.2478 48.0022 41.2872 48.0187 41.3201 48.0516C41.353 48.0845 41.3695 48.1239 41.3695 48.1699C41.3695 48.2003 41.3617 48.2282 41.3462 48.2537C41.3313 48.2792 41.3111 48.2996 41.2857 48.3152C41.2608 48.3301 41.2329 48.3375 41.2018 48.3375Z" fill="#808080"/>
<path d="M40.4821 48.3375C40.4362 48.3375 40.3967 48.3211 40.3638 48.2882C40.3309 48.2552 40.3145 48.2158 40.3145 48.1699C40.3145 48.1239 40.3309 48.0845 40.3638 48.0516C40.3967 48.0187 40.4362 48.0022 40.4821 48.0022C40.5281 48.0022 40.5675 48.0187 40.6004 48.0516C40.6333 48.0845 40.6498 48.1239 40.6498 48.1699C40.6498 48.2003 40.642 48.2282 40.6265 48.2537C40.6116 48.2792 40.5914 48.2996 40.5659 48.3152C40.5411 48.3301 40.5132 48.3375 40.4821 48.3375Z" fill="#808080"/>
<path d="M61.8874 53.5814C61.8414 53.5814 61.802 53.565 61.7691 53.5321C61.7362 53.4991 61.7197 53.4597 61.7197 53.4138C61.7197 53.3678 61.7362 53.3284 61.7691 53.2955C61.802 53.2625 61.8414 53.2461 61.8874 53.2461C61.9333 53.2461 61.9728 53.2625 62.0057 53.2955C62.0386 53.3284 62.0551 53.3678 62.0551 53.4138C62.0551 53.4442 62.0473 53.4721 62.0318 53.4976C62.0169 53.523 61.9967 53.5435 61.9712 53.5591C61.9464 53.574 61.9184 53.5814 61.8874 53.5814Z" fill="#808080"/>
<path d="M61.1657 53.5814C61.1198 53.5814 61.0803 53.565 61.0474 53.5321C61.0145 53.4991 60.998 53.4597 60.998 53.4138C60.998 53.3678 61.0145 53.3284 61.0474 53.2955C61.0803 53.2625 61.1198 53.2461 61.1657 53.2461C61.2117 53.2461 61.2511 53.2625 61.284 53.2955C61.3169 53.3284 61.3334 53.3678 61.3334 53.4138C61.3334 53.4442 61.3256 53.4721 61.3101 53.4976C61.2952 53.523 61.275 53.5435 61.2495 53.5591C61.2247 53.574 61.1968 53.5814 61.1657 53.5814Z" fill="#808080"/>
<path d="M60.4431 53.5814C60.3971 53.5814 60.3577 53.565 60.3248 53.5321C60.2918 53.4991 60.2754 53.4597 60.2754 53.4138C60.2754 53.3678 60.2918 53.3284 60.3248 53.2955C60.3577 53.2625 60.3971 53.2461 60.4431 53.2461C60.489 53.2461 60.5284 53.2625 60.5613 53.2955C60.5943 53.3284 60.6107 53.3678 60.6107 53.4138C60.6107 53.4442 60.603 53.4721 60.5874 53.4976C60.5725 53.523 60.5523 53.5435 60.5269 53.5591C60.502 53.574 60.4741 53.5814 60.4431 53.5814Z" fill="#808080"/>
<path d="M59.7223 53.5814C59.6764 53.5814 59.637 53.565 59.6041 53.5321C59.5711 53.4991 59.5547 53.4597 59.5547 53.4138C59.5547 53.3678 59.5711 53.3284 59.6041 53.2955C59.637 53.2625 59.6764 53.2461 59.7223 53.2461C59.7683 53.2461 59.8077 53.2625 59.8406 53.2955C59.8736 53.3284 59.89 53.3678 59.89 53.4138C59.89 53.4442 59.8822 53.4721 59.8667 53.4976C59.8518 53.523 59.8316 53.5435 59.8062 53.5591C59.7813 53.574 59.7534 53.5814 59.7223 53.5814Z" fill="#808080"/>
<path d="M59.0007 53.5814C58.9547 53.5814 58.9153 53.565 58.8824 53.5321C58.8495 53.4991 58.833 53.4597 58.833 53.4138C58.833 53.3678 58.8495 53.3284 58.8824 53.2955C58.9153 53.2625 58.9547 53.2461 59.0007 53.2461C59.0466 53.2461 59.0861 53.2625 59.119 53.2955C59.1519 53.3284 59.1683 53.3678 59.1683 53.4138C59.1683 53.4442 59.1606 53.4721 59.145 53.4976C59.1301 53.523 59.11 53.5435 59.0845 53.5591C59.0597 53.574 59.0317 53.5814 59.0007 53.5814Z" fill="#808080"/>
<path d="M58.279 53.5814C58.233 53.5814 58.1936 53.565 58.1607 53.5321C58.1278 53.4991 58.1113 53.4597 58.1113 53.4138C58.1113 53.3678 58.1278 53.3284 58.1607 53.2955C58.1936 53.2625 58.233 53.2461 58.279 53.2461C58.3249 53.2461 58.3644 53.2625 58.3973 53.2955C58.4302 53.3284 58.4467 53.3678 58.4467 53.4138C58.4467 53.4442 58.4389 53.4721 58.4234 53.4976C58.4085 53.523 58.3883 53.5435 58.3628 53.5591C58.338 53.574 58.31 53.5814 58.279 53.5814Z" fill="#808080"/>
<path d="M57.5544 53.5814C57.5084 53.5814 57.469 53.565 57.4361 53.5321C57.4032 53.4991 57.3867 53.4597 57.3867 53.4138C57.3867 53.3678 57.4032 53.3284 57.4361 53.2955C57.469 53.2625 57.5084 53.2461 57.5544 53.2461C57.6003 53.2461 57.6398 53.2625 57.6727 53.2955C57.7056 53.3284 57.722 53.3678 57.722 53.4138C57.722 53.4442 57.7143 53.4721 57.6988 53.4976C57.6839 53.523 57.6637 53.5435 57.6382 53.5591C57.6134 53.574 57.5854 53.5814 57.5544 53.5814Z" fill="#808080"/>
<path d="M56.8307 53.5814C56.7848 53.5814 56.7454 53.565 56.7125 53.5321C56.6795 53.4991 56.6631 53.4597 56.6631 53.4138C56.6631 53.3678 56.6795 53.3284 56.7125 53.2955C56.7454 53.2625 56.7848 53.2461 56.8307 53.2461C56.8767 53.2461 56.9161 53.2625 56.949 53.2955C56.982 53.3284 56.9984 53.3678 56.9984 53.4138C56.9984 53.4442 56.9906 53.4721 56.9751 53.4976C56.9602 53.523 56.94 53.5435 56.9146 53.5591C56.8897 53.574 56.8618 53.5814 56.8307 53.5814Z" fill="#808080"/>
<path d="M56.111 53.5814C56.0651 53.5814 56.0256 53.565 55.9927 53.5321C55.9598 53.4991 55.9434 53.4597 55.9434 53.4138C55.9434 53.3678 55.9598 53.3284 55.9927 53.2955C56.0256 53.2625 56.0651 53.2461 56.111 53.2461C56.157 53.2461 56.1964 53.2625 56.2293 53.2955C56.2622 53.3284 56.2787 53.3678 56.2787 53.4138C56.2787 53.4442 56.2709 53.4721 56.2554 53.4976C56.2405 53.523 56.2203 53.5435 56.1949 53.5591C56.17 53.574 56.1421 53.5814 56.111 53.5814Z" fill="#808080"/>
<path d="M55.3893 53.5814C55.3434 53.5814 55.304 53.565 55.271 53.5321C55.2381 53.4991 55.2217 53.4597 55.2217 53.4138C55.2217 53.3678 55.2381 53.3284 55.271 53.2955C55.304 53.2625 55.3434 53.2461 55.3893 53.2461C55.4353 53.2461 55.4747 53.2625 55.5076 53.2955C55.5405 53.3284 55.557 53.3678 55.557 53.4138C55.557 53.4442 55.5492 53.4721 55.5337 53.4976C55.5188 53.523 55.4986 53.5435 55.4732 53.5591C55.4483 53.574 55.4204 53.5814 55.3893 53.5814Z" fill="#808080"/>
<path d="M54.6667 53.5814C54.6207 53.5814 54.5813 53.565 54.5484 53.5321C54.5155 53.4991 54.499 53.4597 54.499 53.4138C54.499 53.3678 54.5155 53.3284 54.5484 53.2955C54.5813 53.2625 54.6207 53.2461 54.6667 53.2461C54.7126 53.2461 54.7521 53.2625 54.785 53.2955C54.8179 53.3284 54.8343 53.3678 54.8343 53.4138C54.8343 53.4442 54.8266 53.4721 54.8111 53.4976C54.7962 53.523 54.776 53.5435 54.7505 53.5591C54.7257 53.574 54.6977 53.5814 54.6667 53.5814Z" fill="#808080"/>
<path d="M53.945 53.5814C53.8991 53.5814 53.8596 53.565 53.8267 53.5321C53.7938 53.4991 53.7773 53.4597 53.7773 53.4138C53.7773 53.3678 53.7938 53.3284 53.8267 53.2955C53.8596 53.2625 53.8991 53.2461 53.945 53.2461C53.991 53.2461 54.0304 53.2625 54.0633 53.2955C54.0962 53.3284 54.1127 53.3678 54.1127 53.4138C54.1127 53.4442 54.1049 53.4721 54.0894 53.4976C54.0745 53.523 54.0543 53.5435 54.0288 53.5591C54.004 53.574 53.9761 53.5814 53.945 53.5814Z" fill="#808080"/>
<path d="M53.2214 53.5814C53.1754 53.5814 53.136 53.565 53.1031 53.5321C53.0702 53.4991 53.0537 53.4597 53.0537 53.4138C53.0537 53.3678 53.0702 53.3284 53.1031 53.2955C53.136 53.2625 53.1754 53.2461 53.2214 53.2461C53.2673 53.2461 53.3068 53.2625 53.3397 53.2955C53.3726 53.3284 53.389 53.3678 53.389 53.4138C53.389 53.4442 53.3813 53.4721 53.3658 53.4976C53.3508 53.523 53.3307 53.5435 53.3052 53.5591C53.2804 53.574 53.2524 53.5814 53.2214 53.5814Z" fill="#808080"/>
<path d="M52.4987 53.5814C52.4528 53.5814 52.4133 53.565 52.3804 53.5321C52.3475 53.4991 52.3311 53.4597 52.3311 53.4138C52.3311 53.3678 52.3475 53.3284 52.3804 53.2955C52.4133 53.2625 52.4528 53.2461 52.4987 53.2461C52.5447 53.2461 52.5841 53.2625 52.617 53.2955C52.6499 53.3284 52.6664 53.3678 52.6664 53.4138C52.6664 53.4442 52.6586 53.4721 52.6431 53.4976C52.6282 53.523 52.608 53.5435 52.5825 53.5591C52.5577 53.574 52.5298 53.5814 52.4987 53.5814Z" fill="#808080"/>
<path d="M51.78 53.5814C51.734 53.5814 51.6946 53.565 51.6617 53.5321C51.6288 53.4991 51.6123 53.4597 51.6123 53.4138C51.6123 53.3678 51.6288 53.3284 51.6617 53.2955C51.6946 53.2625 51.734 53.2461 51.78 53.2461C51.8259 53.2461 51.8654 53.2625 51.8983 53.2955C51.9312 53.3284 51.9476 53.3678 51.9476 53.4138C51.9476 53.4442 51.9399 53.4721 51.9243 53.4976C51.9094 53.523 51.8893 53.5435 51.8638 53.5591C51.839 53.574 51.811 53.5814 51.78 53.5814Z" fill="#808080"/>
<path d="M51.0563 53.5814C51.0104 53.5814 50.971 53.565 50.938 53.5321C50.9051 53.4991 50.8887 53.4597 50.8887 53.4138C50.8887 53.3678 50.9051 53.3284 50.938 53.2955C50.971 53.2625 51.0104 53.2461 51.0563 53.2461C51.1023 53.2461 51.1417 53.2625 51.1746 53.2955C51.2075 53.3284 51.224 53.3678 51.224 53.4138C51.224 53.4442 51.2162 53.4721 51.2007 53.4976C51.1858 53.523 51.1656 53.5435 51.1402 53.5591C51.1153 53.574 51.0874 53.5814 51.0563 53.5814Z" fill="#808080"/>
<path d="M50.3327 53.5814C50.2868 53.5814 50.2473 53.565 50.2144 53.5321C50.1815 53.4991 50.165 53.4597 50.165 53.4138C50.165 53.3678 50.1815 53.3284 50.2144 53.2955C50.2473 53.2625 50.2868 53.2461 50.3327 53.2461C50.3787 53.2461 50.4181 53.2625 50.451 53.2955C50.4839 53.3284 50.5004 53.3678 50.5004 53.4138C50.5004 53.4442 50.4926 53.4721 50.4771 53.4976C50.4622 53.523 50.442 53.5435 50.4165 53.5591C50.3917 53.574 50.3638 53.5814 50.3327 53.5814Z" fill="#808080"/>
<path d="M49.612 53.5814C49.566 53.5814 49.5266 53.565 49.4937 53.5321C49.4608 53.4991 49.4443 53.4597 49.4443 53.4138C49.4443 53.3678 49.4608 53.3284 49.4937 53.2955C49.5266 53.2625 49.566 53.2461 49.612 53.2461C49.658 53.2461 49.6974 53.2625 49.7303 53.2955C49.7632 53.3284 49.7797 53.3678 49.7797 53.4138C49.7797 53.4442 49.7719 53.4721 49.7564 53.4976C49.7415 53.523 49.7213 53.5435 49.6958 53.5591C49.671 53.574 49.643 53.5814 49.612 53.5814Z" fill="#808080"/>
<path d="M48.8903 53.5814C48.8444 53.5814 48.8049 53.565 48.772 53.5321C48.7391 53.4991 48.7227 53.4597 48.7227 53.4138C48.7227 53.3678 48.7391 53.3284 48.772 53.2955C48.8049 53.2625 48.8444 53.2461 48.8903 53.2461C48.9363 53.2461 48.9757 53.2625 49.0086 53.2955C49.0415 53.3284 49.058 53.3678 49.058 53.4138C49.058 53.4442 49.0502 53.4721 49.0347 53.4976C49.0198 53.523 48.9996 53.5435 48.9742 53.5591C48.9493 53.574 48.9214 53.5814 48.8903 53.5814Z" fill="#808080"/>
<path d="M48.1686 53.5814C48.1227 53.5814 48.0833 53.565 48.0503 53.5321C48.0174 53.4991 48.001 53.4597 48.001 53.4138C48.001 53.3678 48.0174 53.3284 48.0503 53.2955C48.0833 53.2625 48.1227 53.2461 48.1686 53.2461C48.2146 53.2461 48.254 53.2625 48.2869 53.2955C48.3198 53.3284 48.3363 53.3678 48.3363 53.4138C48.3363 53.4442 48.3285 53.4721 48.313 53.4976C48.2981 53.523 48.2779 53.5435 48.2525 53.5591C48.2276 53.574 48.1997 53.5814 48.1686 53.5814Z" fill="#808080"/>
<path d="M47.446 53.5814C47.4 53.5814 47.3606 53.565 47.3277 53.5321C47.2948 53.4991 47.2783 53.4597 47.2783 53.4138C47.2783 53.3678 47.2948 53.3284 47.3277 53.2955C47.3606 53.2625 47.4 53.2461 47.446 53.2461C47.4919 53.2461 47.5314 53.2625 47.5643 53.2955C47.5972 53.3284 47.6136 53.3678 47.6136 53.4138C47.6136 53.4442 47.6059 53.4721 47.5904 53.4976C47.5755 53.523 47.5553 53.5435 47.5298 53.5591C47.505 53.574 47.477 53.5814 47.446 53.5814Z" fill="#808080"/>
<path d="M46.7253 53.5814C46.6793 53.5814 46.6399 53.565 46.607 53.5321C46.5741 53.4991 46.5576 53.4597 46.5576 53.4138C46.5576 53.3678 46.5741 53.3284 46.607 53.2955C46.6399 53.2625 46.6793 53.2461 46.7253 53.2461C46.7712 53.2461 46.8107 53.2625 46.8436 53.2955C46.8765 53.3284 46.8929 53.3678 46.8929 53.4138C46.8929 53.4442 46.8852 53.4721 46.8697 53.4976C46.8548 53.523 46.8346 53.5435 46.8091 53.5591C46.7843 53.574 46.7563 53.5814 46.7253 53.5814Z" fill="#808080"/>
<path d="M46.0007 53.5814C45.9547 53.5814 45.9153 53.565 45.8824 53.5321C45.8495 53.4991 45.833 53.4597 45.833 53.4138C45.833 53.3678 45.8495 53.3284 45.8824 53.2955C45.9153 53.2625 45.9547 53.2461 46.0007 53.2461C46.0466 53.2461 46.0861 53.2625 46.119 53.2955C46.1519 53.3284 46.1683 53.3678 46.1683 53.4138C46.1683 53.4442 46.1606 53.4721 46.145 53.4976C46.1301 53.523 46.11 53.5435 46.0845 53.5591C46.0597 53.574 46.0317 53.5814 46.0007 53.5814Z" fill="#808080"/>
<path d="M45.278 53.5814C45.2321 53.5814 45.1926 53.565 45.1597 53.5321C45.1268 53.4991 45.1104 53.4597 45.1104 53.4138C45.1104 53.3678 45.1268 53.3284 45.1597 53.2955C45.1926 53.2625 45.2321 53.2461 45.278 53.2461C45.324 53.2461 45.3634 53.2625 45.3963 53.2955C45.4292 53.3284 45.4457 53.3678 45.4457 53.4138C45.4457 53.4442 45.4379 53.4721 45.4224 53.4976C45.4075 53.523 45.3873 53.5435 45.3618 53.5591C45.337 53.574 45.3091 53.5814 45.278 53.5814Z" fill="#808080"/>
<path d="M44.5612 53.5814C44.5153 53.5814 44.4758 53.565 44.4429 53.5321C44.41 53.4991 44.3936 53.4597 44.3936 53.4138C44.3936 53.3678 44.41 53.3284 44.4429 53.2955C44.4758 53.2625 44.5153 53.2461 44.5612 53.2461C44.6072 53.2461 44.6466 53.2625 44.6795 53.2955C44.7124 53.3284 44.7289 53.3678 44.7289 53.4138C44.7289 53.4442 44.7211 53.4721 44.7056 53.4976C44.6907 53.523 44.6705 53.5435 44.645 53.5591C44.6202 53.574 44.5923 53.5814 44.5612 53.5814Z" fill="#808080"/>
<path d="M43.8356 53.5814C43.7897 53.5814 43.7502 53.565 43.7173 53.5321C43.6844 53.4991 43.668 53.4597 43.668 53.4138C43.668 53.3678 43.6844 53.3284 43.7173 53.2955C43.7502 53.2625 43.7897 53.2461 43.8356 53.2461C43.8816 53.2461 43.921 53.2625 43.9539 53.2955C43.9868 53.3284 44.0033 53.3678 44.0033 53.4138C44.0033 53.4442 43.9955 53.4721 43.98 53.4976C43.9651 53.523 43.9449 53.5435 43.9195 53.5591C43.8946 53.574 43.8667 53.5814 43.8356 53.5814Z" fill="#808080"/>
<path d="M43.112 53.5814C43.066 53.5814 43.0266 53.565 42.9937 53.5321C42.9608 53.4991 42.9443 53.4597 42.9443 53.4138C42.9443 53.3678 42.9608 53.3284 42.9937 53.2955C43.0266 53.2625 43.066 53.2461 43.112 53.2461C43.158 53.2461 43.1974 53.2625 43.2303 53.2955C43.2632 53.3284 43.2797 53.3678 43.2797 53.4138C43.2797 53.4442 43.2719 53.4721 43.2564 53.4976C43.2415 53.523 43.2213 53.5435 43.1958 53.5591C43.171 53.574 43.143 53.5814 43.112 53.5814Z" fill="#808080"/>
<path d="M42.3884 53.5814C42.3424 53.5814 42.303 53.565 42.2701 53.5321C42.2372 53.4991 42.2207 53.4597 42.2207 53.4138C42.2207 53.3678 42.2372 53.3284 42.2701 53.2955C42.303 53.2625 42.3424 53.2461 42.3884 53.2461C42.4343 53.2461 42.4737 53.2625 42.5067 53.2955C42.5396 53.3284 42.556 53.3678 42.556 53.4138C42.556 53.4442 42.5483 53.4721 42.5327 53.4976C42.5178 53.523 42.4977 53.5435 42.4722 53.5591C42.4474 53.574 42.4194 53.5814 42.3884 53.5814Z" fill="#808080"/>
<path d="M41.6696 53.5814C41.6237 53.5814 41.5842 53.565 41.5513 53.5321C41.5184 53.4991 41.502 53.4597 41.502 53.4138C41.502 53.3678 41.5184 53.3284 41.5513 53.2955C41.5842 53.2625 41.6237 53.2461 41.6696 53.2461C41.7156 53.2461 41.755 53.2625 41.7879 53.2955C41.8208 53.3284 41.8373 53.3678 41.8373 53.4138C41.8373 53.4442 41.8295 53.4721 41.814 53.4976C41.7991 53.523 41.7789 53.5435 41.7534 53.5591C41.7286 53.574 41.7007 53.5814 41.6696 53.5814Z" fill="#808080"/>
<path d="M37.7636 31.5405H17.0498V33.3759H37.7636V31.5405Z" fill="#808080"/>
<path d="M31.9952 36.5227H17.0498V38.3581H31.9952V36.5227Z" fill="#808080"/>
<path d="M41.4344 41.5044H17.0498V43.3398H41.4344V41.5044Z" fill="#808080"/>
<path d="M39.0746 46.4844H17.0498V48.3198H39.0746V46.4844Z" fill="#808080"/>
<path d="M40.3861 51.7285H17.3125V53.5639H40.3861V51.7285Z" fill="#808080"/>
</svg>
