<svg width="80" height="80" viewBox="0 0 80 80" fill="none" xmlns="http://www.w3.org/2000/svg">
<path d="M69.0373 42.8293C68.7858 57.7484 56.4873 69.6384 41.5682 69.3868C37.5282 69.3185 33.7103 68.3672 30.2958 66.7193C21.1004 62.2823 14.8276 52.7968 15.0107 41.9177C15.2623 26.9986 27.5607 15.1086 42.4798 15.3601C57.3989 15.6117 69.2892 27.9101 69.0373 42.8293Z" fill="#ADC7FF"/>
<g opacity="0.3">
<path d="M69.0373 42.8293C68.7858 57.7484 56.4873 69.6384 41.5682 69.3868C37.5282 69.3185 33.7103 68.3672 30.2958 66.7193C21.1004 62.2823 14.8276 52.7968 15.0107 41.9177C15.2623 26.9986 27.5607 15.1086 42.4798 15.3601C57.3989 15.6117 69.2892 27.9101 69.0373 42.8293Z" fill="black"/>
</g>
<path d="M59.2382 60.747C69.863 50.1222 69.863 32.8959 59.2382 22.2711C48.6134 11.6462 31.3871 11.6462 20.7623 22.2711C10.1375 32.8959 10.1375 50.1222 20.7623 60.747C31.3871 71.3719 48.6134 71.3719 59.2382 60.747Z" fill="#ADC7FF"/>
<path d="M61.8101 52.2244C67.729 40.1784 62.7621 25.615 50.7162 19.696C38.6703 13.777 24.1069 18.7439 18.1879 30.7899C12.269 42.8359 17.2359 57.3993 29.2818 63.3183C41.3277 69.2373 55.8912 64.2704 61.8101 52.2244Z" fill="white"/>
<path d="M64.2997 41.9172C64.2997 41.9172 64.2914 41.7837 64.2858 41.523C64.2735 41.2627 64.2886 40.8745 64.2504 40.3675C64.2043 39.3534 64.0589 37.8549 63.6262 35.9746C63.1779 34.103 62.4118 31.8436 61.0441 29.4681C59.6783 27.1018 57.705 24.6167 54.9966 22.4808C53.6483 21.4103 52.1113 20.4439 50.4134 19.6389C48.7166 18.8346 46.859 18.1805 44.8721 17.7887C42.8897 17.389 40.7868 17.2094 38.6343 17.3413C37.557 17.3874 36.4722 17.5443 35.3823 17.741C34.2947 17.9548 33.2083 18.2477 32.1306 18.6101C27.8343 20.0851 23.7283 22.9052 20.7374 26.8614C17.7321 30.7902 15.8839 35.8371 15.8057 41.0951C15.7051 46.3546 17.3816 51.4631 20.253 55.492C23.1088 59.5484 27.1179 62.5059 31.3629 64.1252C32.4282 64.5242 33.5039 64.8532 34.5839 65.1035C35.6668 65.3372 36.7456 65.5307 37.8209 65.613C39.9678 65.8176 42.0755 65.7087 44.0706 65.3761C46.0694 65.0515 47.9481 64.4602 49.6711 63.7135C51.3953 62.9661 52.9637 62.0522 54.3473 61.0274C57.1261 58.9837 59.1816 56.5665 60.6265 54.2475C62.0733 51.9193 62.9149 49.6873 63.4259 47.832C63.9218 45.9676 64.1173 44.4751 64.1976 43.4634C64.2524 42.9583 64.2504 42.5697 64.2715 42.3098C64.287 42.0507 64.2997 41.9172 64.2997 41.9172C64.2997 41.9172 64.3065 42.4521 64.2401 43.4673C64.1729 44.4818 63.9902 45.9799 63.5046 47.8535C63.0039 49.7179 62.1702 51.9638 60.7258 54.3087C59.2838 56.6444 57.225 59.0818 54.4351 61.1454C53.0459 62.1797 51.47 63.1036 49.7359 63.8598C48.003 64.6152 46.1123 65.2144 44.1 65.545C42.0914 65.884 39.9686 65.9968 37.8054 65.7942C36.7218 65.7127 35.6342 65.5196 34.543 65.2855C33.4542 65.0348 32.3698 64.7042 31.2954 64.3032C27.0149 62.676 22.9702 59.6974 20.0881 55.6093C17.1905 51.5486 15.4977 46.3951 15.599 41.0915C15.6781 35.789 17.5437 30.698 20.5764 26.7382C23.5944 22.7506 27.7366 19.9115 32.0686 18.4293C33.1554 18.0649 34.2506 17.7712 35.3469 17.5575C36.4452 17.3604 37.5388 17.2038 38.624 17.1589C40.7928 17.0294 42.9099 17.2133 44.9059 17.6198C46.9058 18.018 48.775 18.6804 50.4813 19.4938C52.1884 20.308 53.733 21.2844 55.0864 22.3652C57.8052 24.5213 59.7809 27.0267 61.1434 29.4101C62.508 31.8026 63.2658 34.0756 63.7037 35.9559C64.1257 37.8454 64.2584 39.3486 64.291 40.3651C64.3243 41.3828 64.2997 41.9172 64.2997 41.9172Z" fill="#263238"/>
<path d="M28.7611 74.0338L30.0645 66.4465L34.327 67.9955L31.0873 74.7737C30.8381 75.2951 30.26 75.5732 29.6969 75.4429C29.0611 75.2955 28.6506 74.6776 28.7611 74.0338Z" fill="#ADC7FF"/>
<path d="M66.1889 63.7091L61.8628 57.3413L58.623 60.5151L64.3773 65.3455C64.82 65.717 65.4613 65.7309 65.9199 65.3792C66.438 64.9819 66.556 64.2491 66.1889 63.7091Z" fill="#ADC7FF"/>
<path d="M32.3185 10.7529L31.1025 11.1406L32.8343 16.5712L34.0502 16.1835L32.3185 10.7529Z" fill="#ADC7FF"/>
<path d="M32.8829 10.7218L30.6271 11.441C30.1816 11.5829 29.7056 11.3373 29.5637 10.8918L29.3742 10.2974C29.2323 9.85194 29.4779 9.37589 29.9233 9.23403L32.1792 8.5148C32.6246 8.37294 33.1007 8.61851 33.2425 9.06396L33.4321 9.65842C33.5743 10.1039 33.3284 10.5799 32.8829 10.7218Z" fill="#ADC7FF"/>
<path d="M34.9347 36.3755C34.3223 35.6728 34.4878 33.6488 33.772 32.1457C33.0559 30.6428 27.4286 25.6038 27.005 25.2309C26.8406 25.0863 26.7013 25.0389 26.5924 25.0348C26.4702 25.0307 26.4026 25.1752 26.4828 25.2672L31.183 30.6617C31.2632 30.7537 31.2744 30.8936 31.1966 30.9876C31.0972 31.1073 30.9198 31.1055 30.8224 30.9933L26.0316 25.7522C25.9279 25.6387 25.7526 25.6287 25.6368 25.7299C25.5198 25.8315 25.5065 26.0082 25.6065 26.1263L30.1828 31.533C30.263 31.625 30.2742 31.7649 30.1967 31.8588C30.0974 31.9784 29.92 31.9766 29.8221 31.8645L25.0652 26.6086C24.9581 26.4901 24.7757 26.4797 24.6554 26.5845C24.5352 26.6897 24.5209 26.872 24.6238 26.994L29.1826 32.4043C29.2628 32.4962 29.274 32.6362 29.1962 32.7302C29.0968 32.8498 28.9194 32.8481 28.8219 32.7358L24.116 27.3351C24.0292 27.2356 23.8657 27.2858 23.8498 27.4169C23.8368 27.5262 23.8634 27.6729 23.9866 27.8597C24.2977 28.3306 28.5195 34.5944 29.91 35.5096C31.3008 36.4245 33.3284 36.5375 33.9408 37.2403C34.5 37.8819 45.9204 51.865 47.9062 54.2965C48.0677 54.4942 48.3588 54.5166 48.5508 54.3489L50.0009 53.0856C50.1942 52.9169 50.211 52.6238 50.0348 52.4371C47.875 50.1458 35.4938 37.0168 34.9347 36.3755Z" fill="#E0E0E0"/>
<path d="M54.6576 24.6504C54.6576 24.6504 52.1792 23.9451 49.0376 27.4272C45.8961 30.9093 41.6343 36.7316 41.5251 37.0804C41.264 37.9133 41.9673 38.3361 42.3158 39.1718C42.5217 39.6649 42.6409 39.5958 41.7774 40.8105C41.0025 41.9001 33.3139 50.6581 31.7427 52.445C31.5929 52.6155 31.6235 52.8773 31.8083 53.0097L34.1106 54.656C34.2875 54.7823 34.5338 54.7366 34.6538 54.5554L44.5152 39.6347C44.5152 39.6347 54.6735 25.9609 54.8094 25.7011C54.9449 25.4408 55.322 24.9798 54.6576 24.6504Z" fill="#E0E0E0"/>
<path d="M48.8633 1.776C48.8633 1.776 50.0486 -0.591511 52.7428 0.163882C55.4369 0.919673 55.2843 3.48586 55.2843 3.48586L48.8633 1.776Z" fill="#ADC7FF"/>
<path d="M36.3105 8.83668C36.3105 8.83668 41.2383 -1.0049 52.4364 2.13628C63.6346 5.27707 63.0008 15.9456 63.0008 15.9456L36.3105 8.83668Z" fill="#ADC7FF"/>
<path d="M63.1952 16.0905C62.8137 17.5095 56.4861 17.0422 49.0613 15.0462C41.6365 13.0503 35.9276 10.2826 36.3091 8.8632C36.6905 7.44421 43.0186 7.91151 50.443 9.90748C57.8673 11.9035 63.5767 14.6715 63.1952 16.0905Z" fill="#263238"/>
<path d="M48.3534 9.37939L46.9121 15.5795L50.4769 16.3178L52.0755 10.3672L48.3534 9.37939Z" fill="#ADC7FF"/>
<g opacity="0.3">
<path d="M36.3154 9.16646C36.3154 9.16646 43.1143 9.66913 45.3228 10.084C47.5314 10.4992 55.1362 12.467 57.5974 13.46C60.0587 14.453 62.5601 16.633 62.5601 16.633L63.1951 16.0906C63.1951 16.0906 63.4443 15.3543 61.953 14.4657C60.4616 13.5768 53.7136 10.0156 45.2112 8.71347C36.7087 7.4113 36.3221 8.47823 36.2275 9.01507" fill="black"/>
</g>
<g opacity="0.3">
<path d="M49.677 1.99165C45.4176 1.58236 41.0072 3.60734 38.542 7.10496C39.5831 7.21821 40.6242 7.33186 41.6657 7.44511C43.1773 4.39373 46.2751 2.13987 49.677 1.99165Z" fill="white"/>
</g>
<g opacity="0.3">
<path d="M53.044 0.840927C53.0202 0.898147 52.3923 0.532173 51.5575 0.618004C50.7214 0.69708 50.177 1.17829 50.1424 1.12663C50.125 1.10796 50.2334 0.962124 50.4731 0.795627C50.7099 0.629528 51.0886 0.455879 51.5372 0.411772C51.9854 0.367664 52.3911 0.464224 52.6554 0.580652C52.9228 0.697478 53.0579 0.819469 53.044 0.840927Z" fill="white"/>
</g>
<g opacity="0.3">
<path d="M15.6525 50.8951C15.6458 50.8975 15.6112 50.82 15.5516 50.669C15.4865 50.497 15.403 50.2772 15.3001 50.0062C15.19 49.7181 15.0605 49.3641 14.9425 48.9425C14.8229 48.5217 14.6579 48.0496 14.5447 47.5092C14.4167 46.9727 14.2737 46.3854 14.1767 45.7437C14.0504 45.1067 13.9796 44.4169 13.8986 43.6917C13.7738 42.2385 13.742 40.6296 13.8811 38.9499C14.0361 37.271 14.3472 35.6919 14.7227 34.2821C14.9286 33.5819 15.1185 32.9151 15.3537 32.3095C15.5608 31.6944 15.8035 31.1409 16.0233 30.635C16.2287 30.1228 16.4731 29.6865 16.6642 29.2927C16.8534 28.8977 17.0429 28.5715 17.2015 28.3073C17.3501 28.0581 17.4701 27.8566 17.5647 27.6981C17.6497 27.5602 17.697 27.4895 17.7034 27.493C17.7093 27.4966 17.6739 27.5745 17.6008 27.7192C17.5154 27.8821 17.4065 28.0899 17.2722 28.3462C17.1252 28.6156 16.9468 28.9462 16.7684 29.3444C16.5879 29.7413 16.3539 30.1796 16.1584 30.693C15.949 31.2001 15.7153 31.7532 15.5163 32.3671C15.2894 32.9711 15.1074 33.6355 14.9079 34.3321C14.5451 35.7344 14.2423 37.3024 14.0881 38.9682C13.9502 40.6351 13.9757 42.2314 14.0893 43.675C14.1648 44.3954 14.2284 45.0813 14.3468 45.7155C14.4358 46.3544 14.5697 46.9398 14.6877 47.4754C14.7911 48.0146 14.9452 48.4871 15.0541 48.9095C15.1606 49.3327 15.279 49.6891 15.3768 49.98C15.4646 50.2558 15.5357 50.4795 15.5914 50.6547C15.6378 50.8097 15.6593 50.8928 15.6525 50.8951Z" fill="white"/>
</g>
<path d="M6.75563 17.1752C6.75563 17.1752 5.21028 15.025 7.13154 12.9909C9.0528 10.9568 11.2542 12.2848 11.2542 12.2848L6.75563 17.1752Z" fill="#ADC7FF"/>
<path d="M7.17484 31.5704C7.17484 31.5704 0.751827 22.6329 8.73767 14.1781C16.7239 5.72334 25.8748 11.2435 25.8748 11.2435L7.17484 31.5704Z" fill="#ADC7FF"/>
<path d="M25.992 11.2506C27.0713 12.248 23.739 17.6085 18.5494 23.2237C13.3598 28.8389 8.2783 32.5824 7.19906 31.585C6.11981 30.5877 9.45212 25.2272 14.6413 19.612C19.8313 13.9968 24.9128 10.2536 25.992 11.2506Z" fill="#263238"/>
<path d="M13.2529 21.1616L18.0726 25.32L20.3836 22.5067L15.8577 18.3252L13.2529 21.1616Z" fill="#ADC7FF"/>
<g opacity="0.3">
<path d="M7.46811 31.7193C7.46811 31.7193 11.0734 25.9328 12.4678 24.1705C13.8617 22.4082 19.1387 16.5891 21.1621 14.8717C23.1855 13.1539 26.2011 11.87 26.2011 11.87L26.1232 11.4309L26.0139 11.2636C26.0139 11.2636 25.4846 10.6724 23.7847 11.696C22.2974 12.5916 16.3075 16.7091 11.2025 23.6325C6.09759 30.5554 6.86252 31.3938 7.29366 31.7268" fill="black"/>
</g>
<g opacity="0.3">
<path d="M7.6835 16.0818C5.34103 19.6629 5.08433 24.5091 7.035 28.3175C7.61952 27.4485 8.20365 26.579 8.78817 25.71C6.78903 22.9538 6.23351 19.163 7.6835 16.0818Z" fill="white"/>
</g>
<g opacity="0.3">
<path d="M7.72294 12.9237C7.76268 12.9714 7.14676 13.3573 6.83443 14.1365C6.51575 14.9133 6.689 15.6191 6.62741 15.6258C6.60277 15.633 6.52409 15.4689 6.48793 15.1796C6.45098 14.8931 6.47323 14.4766 6.64251 14.059C6.81178 13.6414 7.08557 13.3275 7.31207 13.1474C7.53936 12.9643 7.71023 12.9015 7.72294 12.9237Z" fill="white"/>
</g>
<path d="M61.0729 44.136C60.5057 44.0644 60.0557 43.9209 60.0676 43.816C60.0795 43.7107 60.5506 43.6729 61.1194 43.7321C61.6879 43.791 62.1379 43.9345 62.1244 44.0521C62.1108 44.1698 61.6402 44.2072 61.0729 44.136Z" fill="#263238"/>
<path d="M53.0481 58.2641C52.6975 57.8126 52.4808 57.3928 52.5635 57.3268C52.6466 57.2608 53.0059 57.5673 53.3665 58.0113C53.7266 58.455 53.9437 58.8743 53.8506 58.9483C53.7576 59.0222 53.3983 58.7157 53.0481 58.2641Z" fill="#263238"/>
<path d="M37.3751 62.5798C37.4467 62.0125 37.5898 61.5625 37.6951 61.5745C37.8004 61.5864 37.8382 62.0574 37.779 62.6263C37.7201 63.1947 37.5766 63.6447 37.459 63.6312C37.3413 63.6177 37.3035 63.1466 37.3751 62.5798Z" fill="#263238"/>
<path d="M23.2488 54.55C23.7008 54.1994 24.1202 53.9828 24.1862 54.0654C24.2522 54.1485 23.9457 54.5079 23.5017 54.8684C23.058 55.2286 22.6387 55.4456 22.5647 55.3526C22.4908 55.2596 22.7973 54.9002 23.2488 54.55Z" fill="#263238"/>
<path d="M18.9345 38.8822C19.5018 38.9537 19.9518 39.0968 19.9398 39.2022C19.9279 39.3075 19.4569 39.3453 18.888 39.2861C18.3196 39.2272 17.8696 39.0837 17.8831 38.9661C17.8966 38.8484 18.3673 38.8106 18.9345 38.8822Z" fill="#263238"/>
<path d="M26.9628 24.753C27.3134 25.205 27.53 25.6243 27.4474 25.6903C27.3643 25.7563 27.0049 25.4498 26.6444 25.0058C26.2842 24.5622 26.0672 24.1428 26.1602 24.0689C26.2528 23.9949 26.6126 24.3014 26.9628 24.753Z" fill="#263238"/>
<path d="M42.6282 20.4384C42.5566 21.0057 42.4131 21.4557 42.3082 21.4438C42.2029 21.4318 42.1651 20.9608 42.2243 20.3919C42.2831 19.8235 42.4266 19.3735 42.5443 19.387C42.662 19.4009 42.6993 19.8716 42.6282 20.4384Z" fill="#263238"/>
<path d="M56.7607 28.4679C56.3088 28.8185 55.8894 29.0352 55.8234 28.9525C55.7574 28.8694 56.0639 28.5101 56.5079 28.1495C56.9515 27.7894 57.3709 27.5723 57.4449 27.6653C57.5184 27.7579 57.2123 28.1177 56.7607 28.4679Z" fill="#263238"/>
<path d="M21.3615 13.371C21.3699 13.3825 21.2173 13.5108 20.9348 13.7326C20.6498 13.9507 20.2465 14.2782 19.7518 14.6859C18.7675 15.5072 17.4467 16.6902 16.0869 18.0972C14.7208 19.4988 13.5565 20.8375 12.7252 21.8154C12.3302 22.2823 12.0004 22.6717 11.7425 22.9761C11.5101 23.2503 11.3761 23.3977 11.365 23.3886C11.3539 23.3794 11.4663 23.2153 11.6793 22.926C11.8935 22.6372 12.2094 22.2235 12.6119 21.722C13.4158 20.7187 14.5662 19.3601 15.9383 17.9526C17.3036 16.54 18.6475 15.3673 19.6596 14.5718C20.1682 14.1768 20.5867 13.8665 20.8871 13.6674C21.1851 13.4655 21.3532 13.3594 21.3615 13.371Z" fill="#263238"/>
<path d="M56.8939 12.02C56.8887 12.0335 56.7441 11.9922 56.4874 11.906C56.1882 11.8035 55.8266 11.6795 55.4034 11.534C54.489 11.2181 53.2234 10.7918 51.8112 10.3686C50.3982 9.94617 49.1051 9.61438 48.163 9.39861C47.2216 9.18125 46.6339 9.0676 46.6387 9.03621C46.6411 9.0223 46.7905 9.03422 47.0599 9.06839C47.3293 9.10137 47.7168 9.16416 48.1932 9.25555C49.1465 9.43516 50.4518 9.7467 51.8704 10.1703C53.2882 10.5951 54.5506 11.0453 55.4534 11.397C55.9053 11.5722 56.2681 11.7212 56.516 11.8309C56.7644 11.9402 56.8991 12.0065 56.8939 12.02Z" fill="#263238"/>
</svg>
