<svg width="64" height="64" viewBox="0 0 64 64" fill="none" xmlns="http://www.w3.org/2000/svg">
<rect width="64" height="64" rx="32" fill="#FF006E"/>
<path d="M34.8799 46.0771C34.8465 46.1041 34.8218 46.1271 34.8047 46.1455C34.8123 46.1538 34.82 46.1653 34.8311 46.1758C34.9257 46.2652 35.103 46.3808 35.3838 46.4932C35.9417 46.7164 36.7646 46.8711 37.7109 46.8711C38.6573 46.8711 39.4793 46.7162 40.0371 46.4932C40.3177 46.3809 40.4952 46.2661 40.5898 46.1768C40.6656 46.105 40.6561 46.0854 40.6494 46.1182L41.1699 45.6396L41.7227 45.1328C41.9566 45.3876 42.1445 45.7312 42.1445 46.1475C42.1444 46.6233 41.9009 47.0019 41.6211 47.2666C41.343 47.5296 40.9801 47.7316 40.5947 47.8857C39.8194 48.1958 38.7992 48.3711 37.7109 48.3711C36.6226 48.3711 35.6025 48.1959 34.8271 47.8857C34.4417 47.7315 34.0789 47.5286 33.8008 47.2656C33.5561 47.0342 33.3378 46.7159 33.2871 46.3213L33.2764 46.1475L33.291 45.9463C33.3582 45.4935 33.6448 45.145 33.9404 44.9072L34.8799 46.0771ZM44.3525 46.0762C44.3191 46.1031 44.2944 46.1261 44.2773 46.1445C44.285 46.1528 44.2926 46.1643 44.3037 46.1748C44.3983 46.2642 44.5757 46.3798 44.8564 46.4922C45.4144 46.7154 46.2372 46.8701 47.1836 46.8701C48.1299 46.8701 48.952 46.7152 49.5098 46.4922C49.7904 46.3799 49.9679 46.2652 50.0625 46.1758C50.1383 46.1041 50.1288 46.0845 50.1221 46.1172L50.6426 45.6387L51.1953 45.1318C51.4292 45.3866 51.6171 45.7302 51.6172 46.1465C51.6171 46.6221 51.3734 46.9999 51.0938 47.2646C50.8156 47.5277 50.4528 47.7306 50.0674 47.8848C49.292 48.1949 48.2718 48.3701 47.1836 48.3701C46.0953 48.3701 45.0752 48.1949 44.2998 47.8848C43.9143 47.7305 43.5516 47.5276 43.2734 47.2646C43.0288 47.0332 42.8104 46.715 42.7598 46.3203L42.749 46.1465L42.7637 45.9453C42.8308 45.4925 43.1174 45.1441 43.4131 44.9062L44.3525 46.0762ZM27.9297 16.5752L27.9307 16.5762C27.9313 16.5787 27.9325 16.5842 27.9346 16.5918C27.939 16.6082 27.9473 16.6356 27.959 16.6729C27.9826 16.748 28.0214 16.8626 28.0801 17.0029C28.1979 17.2849 28.3913 17.6662 28.6895 18.0566C29.2675 18.8134 30.2497 19.6206 31.9219 19.8037C33.5933 19.6207 34.576 18.8136 35.1543 18.0566C35.4527 17.666 35.6457 17.284 35.7637 17.002C35.8223 16.8616 35.8621 16.748 35.8857 16.6729L35.9131 16.5771L36.0498 16H40.5645L40.7344 16.0938L51.8438 22.2402L47.7236 31.126L43.084 29.3584V37.4131C43.0839 37.8271 42.748 38.1629 42.334 38.1631C41.9198 38.1631 41.5841 37.8272 41.584 37.4131V27.1826L46.9502 29.2256L49.8945 22.876L40.1777 17.5H37.1797C37.1692 17.5262 37.159 17.5535 37.1475 17.5811C36.9916 17.9537 36.7383 18.4528 36.3457 18.9668C35.5501 20.0083 34.192 21.0915 31.9951 21.3057L31.9219 21.3135L31.8496 21.3057C29.6516 21.0916 28.2926 20.0085 27.4971 18.9668C27.1047 18.453 26.852 17.9537 26.6963 17.5811C26.6848 17.5536 26.6745 17.5261 26.6641 17.5H23.666L13.9482 22.876L16.8945 29.2275L22.2617 27.1846V45.8066H31.9219C32.3361 45.8066 32.6719 46.1424 32.6719 46.5566C32.6718 46.9708 32.336 47.3066 31.9219 47.3066H20.7617V29.3604L16.7754 30.8789L16.1221 31.127L12 22.2402L23.1094 16.0938L23.2793 16H27.7949L27.9297 16.5752ZM44.3545 42.8838C44.321 42.9107 44.2964 42.9337 44.2793 42.9521C44.2869 42.9605 44.2945 42.9719 44.3057 42.9824C44.4003 43.0719 44.5776 43.1874 44.8584 43.2998C45.4163 43.523 46.2392 43.6777 47.1855 43.6777C48.1319 43.6777 48.9539 43.5229 49.5117 43.2998C49.7924 43.1876 49.9698 43.0728 50.0645 42.9834C50.1404 42.9116 50.1308 42.8919 50.124 42.9248L50.6445 42.4463L51.1973 41.9395C51.4312 42.1943 51.6191 42.5378 51.6191 42.9541C51.619 43.43 51.3755 43.8085 51.0957 44.0732C50.8176 44.3363 50.4547 44.5382 50.0693 44.6924C49.294 45.0025 48.2738 45.1777 47.1855 45.1777C46.0972 45.1777 45.0771 45.0025 44.3018 44.6924C43.9163 44.5381 43.5536 44.3352 43.2754 44.0723C43.0307 43.8408 42.8124 43.5226 42.7617 43.1279L42.751 42.9541L42.7656 42.7529C42.8327 42.3001 43.1193 41.9517 43.415 41.7139L44.3545 42.8838ZM37.7109 40.4834C38.8058 40.4834 39.833 40.6741 40.6143 41.0127C41.0034 41.1814 41.3658 41.4021 41.6416 41.6846C41.9208 41.9707 42.1445 42.3592 42.1445 42.8301C42.1444 43.301 41.9208 43.6895 41.6416 43.9756C41.3658 44.2581 41.0034 44.4788 40.6143 44.6475C39.833 44.986 38.8057 45.1767 37.7109 45.1768C36.6162 45.1768 35.5889 44.986 34.8076 44.6475C34.4183 44.4787 34.0552 44.2582 33.7793 43.9756C33.5001 43.6895 33.2765 43.301 33.2764 42.8301C33.2764 42.3592 33.5001 41.9707 33.7793 41.6846C34.0552 41.402 34.4183 41.1814 34.8076 41.0127C35.5889 40.6742 36.6162 40.4834 37.7109 40.4834ZM37.7109 41.9834C36.7712 41.9834 35.9554 42.1504 35.4033 42.3896C35.1265 42.5097 34.9494 42.6332 34.8525 42.7324C34.8044 42.7818 34.7851 42.8144 34.7783 42.8301C34.7852 42.8457 34.8044 42.8784 34.8525 42.9277C34.9495 43.027 35.1264 43.1514 35.4033 43.2715C35.9554 43.5107 36.7713 43.6768 37.7109 43.6768C38.6505 43.6767 39.4656 43.5107 40.0176 43.2715C40.2946 43.1514 40.4714 43.027 40.5684 42.9277C40.6145 42.8804 40.634 42.8484 40.6416 42.832V42.8281C40.6341 42.8118 40.6145 42.7797 40.5684 42.7324C40.4715 42.6332 40.2945 42.5097 40.0176 42.3896C39.4656 42.1504 38.6505 41.9834 37.7109 41.9834ZM47.1836 37.29C48.2784 37.2901 49.3056 37.4807 50.0869 37.8193C50.4761 37.9881 50.8384 38.2087 51.1143 38.4912C51.3935 38.7774 51.6172 39.1658 51.6172 39.6367C51.6171 40.1077 51.3935 40.4961 51.1143 40.7822C50.8384 41.0647 50.4761 41.2854 50.0869 41.4541C49.3057 41.7927 48.2784 41.9834 47.1836 41.9834C46.0889 41.9834 45.0616 41.7926 44.2803 41.4541C43.8909 41.2854 43.5279 41.0648 43.252 40.7822C42.9727 40.4961 42.7491 40.1077 42.749 39.6367C42.7491 39.1658 42.9727 38.7774 43.252 38.4912C43.5278 38.2086 43.891 37.9881 44.2803 37.8193C45.0616 37.4808 46.0888 37.29 47.1836 37.29ZM47.1836 38.79C46.2438 38.79 45.428 38.957 44.876 39.1963C44.5991 39.3164 44.422 39.4398 44.3252 39.5391C44.2769 39.5886 44.2578 39.6211 44.251 39.6367C44.2578 39.6524 44.277 39.685 44.3252 39.7344C44.4221 39.8336 44.599 39.9581 44.876 40.0781C45.428 40.3174 46.2439 40.4834 47.1836 40.4834C48.1231 40.4834 48.9382 40.3173 49.4902 40.0781C49.7673 39.958 49.9441 39.8336 50.041 39.7344C50.0872 39.687 50.1067 39.6551 50.1143 39.6387V39.6348C50.1068 39.6184 50.0873 39.5865 50.041 39.5391C49.9441 39.4398 49.7672 39.3164 49.4902 39.1963C48.9382 38.957 48.1232 38.7901 47.1836 38.79Z" fill="white"/>
</svg>
