<svg width="80" height="80" viewBox="0 0 80 80" fill="none" xmlns="http://www.w3.org/2000/svg">
<path d="M24.8008 19.5289L22.7554 17.4984C22.6186 17.3626 22.3869 17.3434 22.2407 17.4558C22.0944 17.5683 22.0868 17.7714 22.2236 17.9072L24.269 19.9376C24.4058 20.0734 24.6374 20.0926 24.7837 19.9801C24.9299 19.8678 24.9377 19.6647 24.8008 19.5289Z" fill="#699FF0"/>
<path d="M27.8088 23.6325C27.8088 23.6325 12.7785 32.1338 12.8573 47.2854C12.8573 47.2854 19.9407 41.1978 26.1269 40.5726C26.1269 40.5726 23.9775 30.3465 27.8088 23.6325Z" fill="#EB6E58"/>
<path d="M26.2866 40.3419C26.2866 40.3419 34.4587 32.4856 37.7412 33.187L27.9518 23.5817C27.9518 23.5817 22.8236 32.6825 26.2866 40.3419Z" fill="#F1A34F"/>
<path d="M28.3182 23.2808C28.3182 23.2808 39.9693 11.3024 57.302 13.3107C57.302 13.3107 49.4289 18.6894 47.923 23.9873C47.923 23.9873 36.4927 20.8096 28.3182 23.2808Z" fill="#EB6E58"/>
<path d="M47.6642 24.0025C47.6642 24.0025 37.6311 30.0756 38.015 33.007L28.2715 23.3064C28.2715 23.3064 39.3406 20.0272 47.6642 24.0025Z" fill="#F1A34F"/>
<path d="M60.7582 54.6606L29.2779 23.3041C29.0465 23.0736 28.6548 23.0411 28.4075 23.2318L28.3293 23.2922C28.082 23.4829 28.0689 23.8274 28.3002 24.0579L59.7805 55.4144C60.0119 55.6449 60.4036 55.6774 60.651 55.4867L60.7292 55.4264C60.9766 55.2357 60.9896 54.8911 60.7582 54.6606Z" fill="#699FF0"/>
<path d="M22.1546 19.7757C14.1866 27.6024 18.6554 35.9503 18.6554 35.9503C13.3427 39.9225 12.9654 47.229 12.9625 47.2855C12.9089 47.1731 7.34865 32.6455 22.1546 19.7757Z" fill="#F1A34F"/>
<path d="M25.0586 17.6618C35.1061 11.7025 43.6683 17.007 43.6683 17.007C48.9306 12.8731 57.4025 13.4849 57.4681 13.4896C57.3453 13.4282 41.799 6.37272 25.0586 17.6618Z" fill="#F1A34F"/>
<path d="M23.4008 18.8297C23.4008 18.8297 16.5979 23.728 17.1882 30.3375C17.1882 30.3375 17.3998 34.0553 18.994 35.9018C18.994 35.9018 25.3179 21.8875 43.4309 17.1599C43.4309 17.1599 34.3598 10.5421 23.4008 18.8297Z" fill="#C14029"/>
<path d="M60.1696 36.6552C60.1696 36.394 59.9546 36.1764 59.6692 36.1261L59.5437 36.1148H56.8808C56.5351 36.1148 56.2549 36.3567 56.2549 36.6552V36.994C56.2547 37.9021 55.402 38.6385 54.3501 38.6385C53.2982 38.6385 52.4455 37.9021 52.4453 36.994V36.6552C52.4454 34.5403 54.4311 32.826 56.8808 32.8259H59.5437L59.7715 32.8307C62.1152 32.9333 63.9791 34.6064 63.9792 36.6552C63.9792 37.5633 63.1262 38.2995 62.0744 38.2996C61.0224 38.2996 60.1696 37.5634 60.1696 36.6552Z" fill="#0F429F"/>
<path d="M61.9377 37.2709V21.8912H54.3408V37.2709C54.3408 38.1791 53.488 38.9153 52.436 38.9153C51.3841 38.9153 50.5313 38.1791 50.5312 37.2709V20.2467C50.5312 19.3385 51.3841 18.6023 52.436 18.6023H63.8425C64.8944 18.6024 65.7473 19.3386 65.7473 20.2467V37.2709C65.7473 38.179 64.8944 38.9153 63.8425 38.9153C62.7905 38.9153 61.9377 38.1791 61.9377 37.2709Z" fill="#0F429F"/>
<path d="M64.6706 21.3304H51.7499C51.0164 21.3304 50.4219 20.8171 50.4219 20.184V19.7996C50.4219 19.1664 51.0164 18.6531 51.7499 18.6531H64.6706C65.404 18.6531 65.9986 19.1664 65.9986 19.7996V20.184C65.9986 20.8171 65.404 21.3304 64.6706 21.3304Z" fill="#3D74E7"/>
<path d="M49.075 76.9255C50.4734 76.9255 51.607 75.9469 51.607 74.7396C51.607 73.5324 50.4734 72.5537 49.075 72.5537C47.6766 72.5537 46.543 73.5324 46.543 74.7396C46.543 75.9469 47.6766 76.9255 49.075 76.9255Z" fill="#0F429F"/>
<path d="M67.5496 76.9255C68.948 76.9255 70.0816 75.9469 70.0816 74.7396C70.0816 73.5324 68.948 72.5537 67.5496 72.5537C66.1512 72.5537 65.0176 73.5324 65.0176 74.7396C65.0176 75.9469 66.1512 76.9255 67.5496 76.9255Z" fill="#0F429F"/>
<path d="M72.1765 74.6807H44.2441C42.9627 74.6807 41.9238 73.7838 41.9238 72.6776V38.6384C41.9238 37.5322 42.9627 36.6355 44.2441 36.6355H72.1765C73.4579 36.6355 74.4965 37.5324 74.4965 38.6384V72.6778C74.4965 73.784 73.4579 74.6807 72.1765 74.6807Z" fill="#94B7FF"/>
<path d="M49.588 36.6355H44.5242C43.0881 36.6355 41.9238 37.6406 41.9238 38.8804V43.2521C46.1564 43.2521 49.588 40.2896 49.588 36.6355Z" fill="#3D74E7"/>
<path d="M74.4962 43.2521V38.8804C74.4962 37.6406 73.3319 36.6355 71.8958 36.6355H66.832C66.832 40.2896 70.2633 43.2521 74.4962 43.2521Z" fill="#3D74E7"/>
<path d="M74.4962 72.4361V68.0645C70.2633 68.0645 66.832 71.0267 66.832 74.681H71.8958C73.3319 74.681 74.4962 73.6759 74.4962 72.4361Z" fill="#3D74E7"/>
<path d="M41.9238 68.0645V72.4361C41.9238 73.6759 43.0881 74.681 44.5242 74.681H49.588C49.588 71.0267 46.1564 68.0645 41.9238 68.0645Z" fill="#3D74E7"/>
<path d="M50.4727 69.1276H50.2506C49.8846 69.1276 49.5879 68.8714 49.5879 68.5555V44.2967C49.5879 43.9807 49.8846 43.7246 50.2506 43.7246H50.4727C50.8388 43.7246 51.1354 43.9807 51.1354 44.2967V68.5555C51.1354 68.8714 50.8388 69.1276 50.4727 69.1276Z" fill="white"/>
<path d="M54.3966 69.1276H54.1744C53.8084 69.1276 53.5117 68.8714 53.5117 68.5555V44.2967C53.5117 43.9807 53.8084 43.7246 54.1744 43.7246H54.3966C54.7626 43.7246 55.0593 43.9807 55.0593 44.2967V68.5555C55.0593 68.8714 54.7626 69.1276 54.3966 69.1276Z" fill="white"/>
<path d="M58.3204 69.1276H58.0982C57.7322 69.1276 57.4355 68.8714 57.4355 68.5555V44.2967C57.4355 43.9807 57.7322 43.7246 58.0982 43.7246H58.3204C58.6864 43.7246 58.9831 43.9807 58.9831 44.2967V68.5555C58.9831 68.8714 58.6864 69.1276 58.3204 69.1276Z" fill="white"/>
<path d="M62.2462 69.1276H62.024C61.658 69.1276 61.3613 68.8714 61.3613 68.5555V44.2967C61.3613 43.9807 61.658 43.7246 62.024 43.7246H62.2462C62.6122 43.7246 62.9089 43.9807 62.9089 44.2967V68.5555C62.9089 68.8714 62.6122 69.1276 62.2462 69.1276Z" fill="white"/>
<path d="M66.17 69.1276H65.9478C65.5818 69.1276 65.2852 68.8714 65.2852 68.5555V44.2967C65.2852 43.9807 65.5818 43.7246 65.9478 43.7246H66.17C66.536 43.7246 66.8327 43.9807 66.8327 44.2967V68.5555C66.8327 68.8714 66.536 69.1276 66.17 69.1276Z" fill="white"/>
<path opacity="0.3" d="M45.5799 60.3845H45.1538C44.4518 60.3845 43.8828 59.8933 43.8828 59.2873V41.0413C43.8828 40.4353 44.4518 39.9441 45.1538 39.9441H45.5799C46.2818 39.9441 46.8509 40.4353 46.8509 41.0413V59.2873C46.8509 59.8933 46.2818 60.3845 45.5799 60.3845Z" fill="white"/>
<path d="M59.4765 41.3615H56.945C56.6864 41.3615 56.4766 41.1805 56.4766 40.9571V39.7277C56.4766 39.5044 56.6862 39.3232 56.945 39.3232H59.4765C59.7351 39.3232 59.945 39.5042 59.945 39.7277V40.9571C59.945 41.1805 59.7351 41.3615 59.4765 41.3615Z" fill="#162A45"/>
<path opacity="0.3" d="M57.6665 20.0686H52.1255C51.8641 20.0686 51.6523 19.8858 51.6523 19.6601V19.523C51.6523 19.2975 51.8641 19.1145 52.1255 19.1145H57.6665C57.9279 19.1145 58.1397 19.2975 58.1397 19.523V19.6601C58.1397 19.8858 57.9277 20.0686 57.6665 20.0686Z" fill="white"/>
</svg>
