<svg width="80" height="81" viewBox="0 0 80 81" fill="none" xmlns="http://www.w3.org/2000/svg">
<path d="M18.1264 20.1285C17.9942 20.2655 18.0476 20.4972 18.2253 20.5623C20.2337 21.2981 22.5868 21.1287 24.4282 20.0374C25.0825 19.6494 25.7588 19.2993 26.4526 18.9901C26.12 19.5969 25.7873 20.2037 25.4545 20.8108C24.942 21.7455 25.4613 22.9169 26.4917 23.1499L26.522 23.1568C27.0508 23.2766 27.6029 23.112 27.9838 22.7218C29.5452 21.1212 31.1067 19.5204 32.6681 17.9199C31.7277 19.5081 30.7874 21.0963 29.8472 22.6844C29.5569 23.1749 29.8541 23.8035 30.4126 23.8877C30.6615 23.9251 30.913 23.9611 31.1669 23.9956C31.4255 24.0306 31.685 23.9325 31.8589 23.7358C33.0307 22.4123 34.2026 21.089 35.3744 19.7655C34.9086 21.009 34.4429 22.2524 33.9774 23.4959C33.8312 23.8862 34.0984 24.3094 34.5095 24.3372C34.6882 24.3493 34.8677 24.3607 35.0482 24.3707C35.2335 24.3813 35.4143 24.3053 35.5388 24.1658C36.9625 22.5681 38.3862 20.9701 39.8096 19.3724C39.4196 20.7541 39.0296 22.1358 38.6396 23.5175C38.5095 23.9784 38.8613 24.4343 39.3344 24.4168C39.547 24.4088 39.7603 24.3993 39.9741 24.3879C40.2105 24.3756 40.423 24.2394 40.541 24.0314C41.0472 23.1396 41.6006 22.2754 42.1993 21.4443C42.209 22.0648 42.1861 22.6857 42.1314 23.3036C42.089 23.7817 42.4856 24.181 42.9559 24.1215C44.3635 23.9436 45.7869 23.6867 47.2147 23.3345C47.2147 23.3345 32.9407 4.76575 18.1264 20.1285Z" fill="#80C172"/>
<path d="M69.1242 6.66346C69.3039 6.72293 69.3629 6.95309 69.235 7.09443C67.7925 8.68904 65.6298 9.64416 63.4989 9.5417C62.7416 9.50514 61.9822 9.51235 61.2256 9.5641C61.7981 9.94563 62.3709 10.3272 62.9434 10.7084C63.8256 11.2962 63.9016 12.5777 63.0954 13.268L63.0718 13.2883C62.6582 13.6425 62.0935 13.7561 61.5775 13.5892C59.461 12.9042 57.3448 12.2191 55.2284 11.5341C56.7889 12.4997 58.349 13.4654 59.9092 14.4311C60.391 14.7292 60.4156 15.4259 59.959 15.7626C59.7557 15.9127 59.5492 16.0625 59.34 16.2124C59.127 16.3648 58.8521 16.3998 58.6078 16.3073C56.9638 15.6848 55.3194 15.0626 53.6753 14.4401C54.6572 15.3231 55.6392 16.2062 56.6211 17.0892C56.9292 17.3665 56.8865 17.8667 56.5346 18.0845C56.3818 18.1792 56.2278 18.2735 56.0727 18.3672C55.9133 18.4635 55.7183 18.4812 55.5442 18.4158C53.5513 17.6685 51.5584 16.9214 49.5655 16.174C50.5438 17.2151 51.5218 18.2562 52.5001 19.2973C52.8262 19.6446 52.7233 20.2138 52.2962 20.4203C52.1042 20.513 51.9108 20.6046 51.7163 20.6952C51.501 20.7954 51.2503 20.7743 51.0507 20.6456C50.194 20.0931 49.3077 19.5872 48.3969 19.1318C48.6722 19.6861 48.977 20.2254 49.3082 20.7472C49.5645 21.1509 49.3962 21.6908 48.9521 21.8589C47.6235 22.3622 46.2446 22.8029 44.8184 23.1611C44.8184 23.1611 48.9645 0.00696874 69.1242 6.66346Z" fill="#80C172"/>
<path d="M46.9704 22.1611C59.7206 38.4518 62.7097 59.2939 55.5678 77.5911L48.7624 75.8201C51.2896 70.0319 52.8445 63.8814 53.4102 57.7469C54.5005 45.7893 51.7772 33.7083 45.6758 22.7055L46.9704 22.1611Z" fill="#475F8F"/>
<path d="M21.2487 36.9024C21.2137 37.0906 21.3848 37.2536 21.5686 37.208C23.6428 36.6931 25.5091 35.2316 26.4441 33.29C26.7764 32.5998 27.1475 31.9289 27.5561 31.2819C27.6113 31.9737 27.6664 32.6654 27.7216 33.3574C27.8068 34.4232 28.8798 35.1065 29.8652 34.7221L29.8942 34.7108C30.3999 34.5136 30.7695 34.0667 30.8727 33.5281C31.2965 31.3195 31.7201 29.1109 32.1438 26.9023C32.2303 28.752 32.317 30.6017 32.4034 32.4515C32.4301 33.0227 33.0217 33.3793 33.5324 33.1355C33.7602 33.0269 33.9893 32.9157 34.2193 32.8019C34.4537 32.686 34.6159 32.4587 34.6533 32.1974C34.9042 30.4383 35.1554 28.6789 35.4063 26.9198C35.6992 28.2162 35.9921 29.5125 36.2849 30.809C36.377 31.216 36.8308 31.4181 37.1885 31.2106C37.3438 31.1205 37.4994 31.0288 37.6552 30.9362C37.8154 30.8409 37.9242 30.6761 37.9514 30.4903C38.2618 28.3612 38.5725 26.2324 38.8829 24.1033C39.3146 25.4724 39.746 26.8412 40.1776 28.2103C40.3215 28.667 40.8641 28.849 41.2482 28.5689C41.4208 28.4431 41.5932 28.3154 41.7648 28.1861C41.9549 28.043 42.0571 27.8103 42.0416 27.5711C41.9748 26.5447 41.9626 25.5146 42.006 24.4869C42.3536 24.9979 42.6744 25.5275 42.967 26.0725C43.1935 26.4942 43.7419 26.6039 44.1009 26.2906C45.1752 25.3524 46.2196 24.3396 47.2151 23.245C47.2151 23.245 25.1712 15.8005 21.2487 36.9024Z" fill="#A8D29F"/>
<path d="M34.0464 0.00414316C33.8801 -0.0275226 33.736 0.127459 33.7764 0.293769C34.2312 2.17337 35.5227 3.86427 37.2385 4.71178C37.8483 5.01299 38.4409 5.34922 39.013 5.71917C38.4015 5.76911 37.7904 5.81931 37.179 5.86926C36.2373 5.94623 35.6333 6.91886 35.9729 7.81168L35.9828 7.83794C36.157 8.29593 36.5518 8.63112 37.0277 8.72458C38.9794 9.10843 40.9308 9.49253 42.8825 9.87638C41.2481 9.95491 39.6137 10.0332 37.9793 10.1117C37.4746 10.1359 37.1594 10.6719 37.3747 11.1348C37.4706 11.341 37.5689 11.5485 37.6694 11.757C37.7718 11.9694 37.9727 12.1164 38.2035 12.1501C39.7581 12.3777 41.3124 12.605 42.8668 12.8326C41.7212 13.0981 40.5759 13.3635 39.4304 13.6289C39.0709 13.7123 38.8922 14.1235 39.0755 14.4476C39.1553 14.5884 39.2362 14.7295 39.318 14.8706C39.4022 15.0155 39.5476 15.1144 39.7121 15.1388C41.5933 15.4202 43.4744 15.7016 45.3556 15.983C44.146 16.374 42.9364 16.7651 41.7268 17.1562C41.3234 17.2867 41.1624 17.7781 41.41 18.1262C41.5214 18.2825 41.634 18.4387 41.7484 18.5945C41.8748 18.7667 42.0804 18.8594 42.2919 18.8453C43.1988 18.7848 44.1089 18.7734 45.017 18.8128C44.5655 19.1279 44.0975 19.4183 43.616 19.6837C43.2433 19.8889 43.1464 20.3858 43.4233 20.7112C44.2523 21.6846 45.1472 22.631 46.1142 23.5331C46.1142 23.5331 52.6921 3.55843 34.0464 0.00414316Z" fill="#A8D29F"/>
<path d="M72.9862 32.0274C73.0449 32.2094 72.8962 32.3935 72.7081 32.3724C70.5856 32.1337 68.5482 30.9292 67.3727 29.1263C66.955 28.4855 66.5012 27.8689 66.0136 27.2809C66.0471 27.9742 66.0809 28.6672 66.1145 29.3605C66.1664 30.4284 65.1896 31.2468 64.1633 30.9948L64.1333 30.9873C63.6068 30.8581 63.183 30.4634 63.0117 29.9429C62.3092 27.8084 61.6068 25.6739 60.9044 23.5392C61.0549 25.3848 61.2056 27.2302 61.3561 29.0755C61.4027 29.6455 60.8617 30.0765 60.324 29.9019C60.0842 29.8242 59.843 29.7439 59.6002 29.6612C59.3531 29.5771 59.1629 29.3729 59.0925 29.1185C58.6186 27.407 58.145 25.6956 57.6711 23.9841C57.5463 25.3078 57.4217 26.6319 57.2969 27.9557C57.2578 28.3712 56.8335 28.6312 56.4524 28.4724C56.2866 28.4034 56.1206 28.3328 55.9546 28.2615C55.7838 28.1879 55.6546 28.0391 55.604 27.8581C55.0241 25.7877 54.444 23.7173 53.8641 21.647C53.6112 23.0611 53.3582 24.475 53.105 25.8892C53.0206 26.3608 52.506 26.6126 52.0894 26.385C51.902 26.2828 51.7151 26.1788 51.528 26.073C51.3213 25.9561 51.1899 25.7388 51.1749 25.4994C51.1098 24.4729 50.9906 23.4499 50.8162 22.4366C50.5368 22.9888 50.2864 23.5559 50.066 24.1349C49.8954 24.5826 49.3656 24.7636 48.9695 24.4997C47.7846 23.7104 46.6194 22.8428 45.4922 21.8879C45.4924 21.8885 66.3995 11.6172 72.9862 32.0274Z" fill="#A8D29F"/>
<path d="M52.127 65.9804C54.173 66.422 56.2434 66.7761 58.3334 67.0408C58.3794 66.768 58.4239 66.4952 58.4658 66.222C56.3916 65.9582 54.3375 65.602 52.3075 65.1604C52.2487 65.434 52.1895 65.7074 52.127 65.9804Z" fill="#383D84"/>
<path d="M57.8111 69.7409C55.6921 69.3717 53.5732 69.0025 51.4539 68.6333C51.3792 68.9031 51.3034 69.1728 51.2246 69.4418C53.3583 69.8135 55.4918 70.1855 57.6255 70.5572C57.6893 70.2852 57.7514 70.0133 57.8111 69.7409Z" fill="#383D84"/>
<path d="M53.6068 50.7216C55.3167 50.7886 57.0266 50.8553 58.7365 50.9222C58.704 50.6436 58.6697 50.365 58.6328 50.0866C56.9465 50.0207 55.2605 49.9546 53.5742 49.8887C53.5874 50.1665 53.5976 50.4441 53.6068 50.7216Z" fill="#383D84"/>
<path d="M58.9993 53.7783C58.9808 53.5009 58.9599 53.2237 58.9376 52.9466L53.6398 52.9321C53.6387 53.2093 53.6359 53.4865 53.6309 53.7636L58.9993 53.7783Z" fill="#383D84"/>
<path d="M51.7058 29.2983C51.5622 29.0412 51.4165 28.785 51.2685 28.5295C50.4583 28.6887 49.6481 28.8477 48.8379 29.0067C48.947 29.2701 49.0532 29.534 49.1587 29.7982C50.0078 29.6317 50.857 29.465 51.7058 29.2983Z" fill="#383D84"/>
<path d="M51.0999 35.3875C52.2356 35.2468 53.3743 35.1258 54.516 35.0256C54.4023 34.7581 54.2869 34.4914 54.1692 34.2251C53.0626 34.3255 51.9585 34.4441 50.8574 34.5813C50.9406 34.8497 51.0204 35.1185 51.0999 35.3875Z" fill="#383D84"/>
<path d="M47.8047 26.6349C47.9265 26.8996 48.047 27.1646 48.1649 27.4305C48.784 27.1096 49.403 26.7887 50.0221 26.4678C49.8657 26.2216 49.7073 25.9762 49.5472 25.7317C48.9662 26.0327 48.3853 26.3339 47.8047 26.6349Z" fill="#383D84"/>
<path d="M53.0695 44.4794C54.5634 44.4118 56.0562 44.3307 57.548 44.2391C57.4827 43.9656 57.4153 43.6925 57.3459 43.4197C55.8805 43.5086 54.4144 43.5874 52.9473 43.6531C52.9892 43.9284 53.0314 44.2037 53.0695 44.4794Z" fill="#383D84"/>
<path d="M56.7473 73.8583C54.5785 73.4077 52.4064 72.9678 50.2312 72.5383C50.1371 72.805 50.0393 73.0703 49.9414 73.3357C52.1305 73.7679 54.3166 74.2108 56.4994 74.6643C56.5841 74.3961 56.6667 74.1275 56.7473 73.8583Z" fill="#383D84"/>
<path d="M50.061 32.1873C51.0662 32.0846 52.0719 31.9863 53.0789 31.8966C52.9475 31.6315 52.8142 31.3673 52.6787 31.1038C51.7094 31.192 50.741 31.287 49.7734 31.3866C49.8718 31.6531 49.9664 31.9202 50.061 32.1873Z" fill="#383D84"/>
<path d="M51.8859 38.3086C53.1777 38.2881 54.4689 38.2582 55.7596 38.2189C55.6617 37.9444 55.5615 37.6704 55.4593 37.397C54.1991 37.434 52.9384 37.4618 51.6777 37.4806C51.7492 37.7564 51.8183 38.0325 51.8859 38.3086Z" fill="#383D84"/>
<path d="M53.3357 58.689C53.3072 58.9638 53.2764 59.2387 53.2441 59.5136C55.1816 59.7658 57.1218 60.0031 59.0644 60.2265C59.0771 59.9501 59.0878 59.6736 59.0967 59.3973C57.1737 59.1755 55.2535 58.9396 53.3357 58.689Z" fill="#383D84"/>
<path d="M59.1022 55.9907C57.2545 55.9317 55.4065 55.8727 53.5588 55.8137C53.5441 56.0905 53.5283 56.367 53.5098 56.6438C55.3796 56.7034 57.2494 56.7632 59.1193 56.8228C59.1157 56.5454 59.1099 56.2681 59.1022 55.9907Z" fill="#383D84"/>
<path d="M52.7207 63.0539C54.7415 63.2949 56.7659 63.5158 58.7929 63.7201C58.8226 63.4459 58.8501 63.1715 58.8758 62.8968C56.8681 62.6947 54.8631 62.4757 52.8615 62.2368C52.817 62.5094 52.7693 62.7815 52.7207 63.0539Z" fill="#383D84"/>
<path d="M52.5848 41.5237C53.9744 41.4143 55.3665 41.3325 56.7602 41.2786C56.6791 41.0039 56.5962 40.7297 56.5108 40.4561C55.1466 40.5121 53.7842 40.5954 52.4238 40.7048C52.4792 40.9776 52.5331 41.2505 52.5848 41.5237Z" fill="#383D84"/>
<path d="M53.3105 46.4378C53.3398 46.7135 53.3662 46.9895 53.3914 47.2656C54.9778 47.1959 56.5639 47.1263 58.1502 47.0568C58.0989 46.7817 58.0455 46.5071 57.9903 46.2324C56.4304 46.301 54.8705 46.3694 53.3105 46.4378Z" fill="#383D84"/>
<path d="M52.4543 26.2099C52.4492 27.7204 51.236 28.9409 49.7445 28.9358C48.253 28.9306 47.0477 27.7021 47.0528 26.1917C47.0578 24.6812 48.271 23.4607 49.7625 23.4658C51.2543 23.471 52.4594 24.6995 52.4543 26.2099Z" fill="#F78721"/>
<path d="M48.1867 24.1582C48.1816 25.6686 46.9685 26.8892 45.4769 26.884C43.9854 26.8789 42.7801 25.6503 42.7852 24.1399C42.7903 22.6295 44.0034 21.4089 45.495 21.4141C46.9865 21.419 48.1915 22.6475 48.1867 24.1582Z" fill="#FFB552"/>
<path opacity="0.3" d="M34.1856 23.1227C31.833 23.4022 29.6126 24.3723 27.7966 25.9139C27.2917 26.3425 26.8257 26.8157 26.4012 27.3257C26.2548 27.5018 26.2291 27.7551 26.3992 27.9286C26.5486 28.081 26.8474 28.1076 26.9946 27.9307C28.7957 25.7664 31.399 24.3059 34.1828 23.9753C34.4085 23.9485 34.6043 23.8005 34.6053 23.5503C34.6061 23.3415 34.4131 23.0956 34.1856 23.1227Z" fill="white"/>
<path opacity="0.3" d="M38.0989 16.6653C35.9735 15.4363 33.5157 14.8112 31.0682 14.8807C30.3686 14.9005 29.6708 14.9798 28.9828 15.1083C28.7591 15.15 28.631 15.4229 28.6869 15.6317C28.7505 15.8693 28.9795 15.9731 29.2037 15.9313C32.0851 15.3938 35.129 15.9303 37.6712 17.4003C38.1428 17.673 38.5702 16.938 38.0989 16.6653Z" fill="white"/>
<path opacity="0.3" d="M43.9287 6.39705C43.5654 5.98823 42.9692 6.5909 43.3312 6.99792C45.0562 8.93803 45.7263 11.5936 45.8999 14.1413C45.9157 14.3711 46.0804 14.5684 46.3197 14.5691C46.5347 14.5699 46.7577 14.3753 46.7422 14.1441C46.5523 11.3596 45.8117 8.5153 43.9287 6.39705Z" fill="white"/>
<path opacity="0.3" d="M56.3097 7.81347C56.1842 7.59439 55.9442 7.56787 55.7342 7.65849C53.3025 8.70861 51.2303 10.5553 49.8697 12.8483C49.5898 13.3197 50.3161 13.7517 50.5955 13.2811C51.8883 11.1026 53.8501 9.39264 56.157 8.39633C56.3659 8.30596 56.414 7.99523 56.3097 7.81347Z" fill="white"/>
<path opacity="0.3" d="M65.7924 22.5183C63.5493 20.9847 60.9211 20.0826 58.2233 19.8898C57.9963 19.8735 57.8015 20.0955 57.8008 20.3148C57.8 20.5583 57.9927 20.7265 58.2205 20.7427C60.7727 20.9249 63.246 21.8046 65.3648 23.2533C65.8153 23.5609 66.2398 22.8241 65.7924 22.5183Z" fill="white"/>
<path opacity="0.3" d="M67.8538 24.2805C67.6522 24.057 67.428 23.8611 67.1905 23.6778C67.1422 23.6464 67.0901 23.6294 67.0342 23.6266C66.9783 23.6137 66.9223 23.616 66.8661 23.6335C66.8112 23.6467 66.7634 23.6719 66.7228 23.7095C66.6768 23.7394 66.6406 23.7793 66.6139 23.8287C66.5621 23.9275 66.5357 24.0473 66.5705 24.1572C66.5845 24.1912 66.5984 24.2252 66.6127 24.2591C66.6396 24.3055 66.6755 24.3428 66.7159 24.3755C66.9096 24.5287 67.0904 24.6978 67.2564 24.8816C67.2943 24.9233 67.3395 24.9529 67.3916 24.9702C67.4417 24.997 67.4956 25.0096 67.5538 25.0075C67.6118 25.0098 67.6659 24.9977 67.716 24.9712C67.7684 24.9542 67.8136 24.9249 67.8518 24.8834C67.9258 24.8023 67.9807 24.696 67.9761 24.5825C67.9713 24.4666 67.9316 24.3667 67.8538 24.2805Z" fill="white"/>
<path opacity="0.3" d="M27.5764 15.6771C27.5062 15.455 27.2878 15.3175 27.0595 15.3777C26.7082 15.4701 26.366 15.6089 26.0467 15.7835C25.9554 15.8334 25.8799 15.9374 25.8525 16.0376C25.8242 16.1395 25.8364 16.2754 25.8939 16.3663C26.02 16.5656 26.262 16.6346 26.4695 16.5213C26.5734 16.4644 26.6807 16.4137 26.789 16.3661C26.9497 16.3012 27.1134 16.2448 27.2807 16.2008C27.3824 16.174 27.4798 16.097 27.5329 16.0056C27.586 15.9142 27.6089 15.7796 27.5764 15.6771Z" fill="white"/>
<path opacity="0.3" d="M42.4045 4.61003C42.131 4.33816 41.8386 4.08921 41.5343 3.85339C41.4535 3.79083 41.303 3.78363 41.2099 3.80937C41.112 3.83615 41.006 3.91235 40.9577 4.00451C40.9058 4.10337 40.8794 4.22308 40.9142 4.33301C40.9282 4.367 40.9422 4.40098 40.9564 4.43496C40.99 4.49263 41.0355 4.53846 41.0899 4.57501C41.3406 4.77325 41.5801 4.98564 41.8073 5.21116C41.8851 5.28839 41.9952 5.33679 42.1045 5.33705C42.2077 5.33731 42.3313 5.29148 42.4027 5.21322C42.4767 5.13212 42.5316 5.0258 42.527 4.91226C42.5222 4.79976 42.4856 4.69061 42.4045 4.61003Z" fill="white"/>
<path d="M40.5198 43.1388C39.8679 43.1388 39.3394 42.6036 39.3394 41.9435V39.491C39.3394 38.2578 38.3486 37.2544 37.1308 37.2544H30.3623C29.1445 37.2544 28.1537 38.2578 28.1537 39.491V41.9435C28.1537 42.6036 27.6252 43.1388 26.9733 43.1388C26.3215 43.1388 25.793 42.6036 25.793 41.9435V39.491C25.793 36.9396 27.8428 34.8635 30.3625 34.8635H37.1311C39.6508 34.8635 41.7007 36.9396 41.7007 39.491V41.9435C41.7004 42.6036 41.1719 43.1388 40.5198 43.1388Z" fill="#0F429F"/>
<path d="M56.405 80.0739H11.0884C9.38257 80.0739 8 78.6735 8 76.9463V44.723C8 42.9955 9.38283 41.5955 11.0884 41.5955H56.405C58.1109 41.5955 59.4934 42.9958 59.4934 44.723V76.9463C59.4937 78.6735 58.1109 80.0739 56.405 80.0739Z" fill="#94B7FF"/>
<path d="M56.8712 46.267C56.8712 44.8521 55.7392 43.7049 54.342 43.7047H13.1573C11.7603 43.7047 10.6271 44.8519 10.6271 46.267V75.4025C10.6271 76.8173 11.76 77.9648 13.1573 77.9648H54.342C55.7388 77.9646 56.8709 76.8175 56.8712 75.4025V46.267ZM57.9885 75.4025L57.9841 75.5926C57.8862 77.5439 56.2931 79.096 54.342 79.0963H13.1573C11.1429 79.0963 9.50977 77.4421 9.50977 75.4025V46.267C9.50977 44.2271 11.1432 42.5732 13.1573 42.5732H54.342C56.3562 42.5735 57.9885 44.2272 57.9885 46.267V75.4025Z" fill="#4D52A8"/>
<path d="M59.4945 49.9325V45.2472C59.4945 43.2303 57.8799 41.5952 55.8884 41.5952H51.2617C51.2615 46.1996 54.9476 49.9325 59.4945 49.9325Z" fill="#3D74E7"/>
<path d="M16.2328 41.5952H11.6061C9.61435 41.5952 8 43.2303 8 45.2472V49.9325C12.5468 49.9325 16.2328 46.1996 16.2328 41.5952Z" fill="#3D74E7"/>
<path d="M8 71.7363V76.4216C8 78.4385 9.6146 80.0733 11.6061 80.0733H16.2328C16.233 75.4692 12.5471 71.7363 8 71.7363Z" fill="#3D74E7"/>
<path d="M59.4928 76.4221V71.7368C54.946 71.7368 51.2598 75.4694 51.2598 80.0741H55.8865C57.8782 80.0738 59.4928 78.4388 59.4928 76.4221Z" fill="#3D74E7"/>
<path d="M23.7651 41.5952H21.252V80.0739H23.7651V41.5952Z" fill="#0F429F"/>
<path d="M35.5419 68.9131L26.7806 66.7818C26.424 66.695 26.2043 66.3321 26.29 65.9709L27.3915 61.3273C27.4772 60.9662 27.8356 60.7438 28.1923 60.8305L36.9535 62.9619C37.3102 63.0487 37.5298 63.4116 37.4441 63.7728L36.3426 68.4163C36.2569 68.7775 35.8985 68.9999 35.5419 68.9131Z" fill="#A8D29F"/>
<path d="M36.7266 66.7919L34.6942 64.4637L32.6153 65.3857L30.6446 62.4673L26.6877 64.2887L26.3146 65.8613C26.2145 66.2828 26.4711 66.7067 26.8874 66.808L35.4323 68.8869C35.8486 68.9883 36.2671 68.7285 36.3672 68.3069L36.7266 66.7919Z" fill="#80C172"/>
<path d="M45.3339 56.6466L38.8438 57.9338C38.5256 57.997 38.2173 57.7868 38.1548 57.4646L37.2826 52.9552C37.2201 52.6329 37.4277 52.3206 37.7459 52.2574L44.2359 50.9702C44.5541 50.907 44.8625 51.1171 44.9249 51.4394L45.7972 55.9491C45.8593 56.2711 45.6521 56.5836 45.3339 56.6466Z" fill="white"/>
<path d="M45.7753 55.8509L45.285 53.3164C44.3768 53.6049 43.734 54.6832 42.7708 54.6658C42.0037 54.652 41.4079 53.9289 40.6479 53.8224C40.019 53.7344 39.4089 54.0891 38.9375 54.5202C38.545 54.8793 38.2022 55.296 37.7988 55.6392L38.133 57.3669C38.2058 57.7432 38.5659 57.9884 38.9375 57.9147L45.2344 56.6656C45.6059 56.5919 45.8481 56.2271 45.7753 55.8509Z" fill="#CADBFF"/>
<path d="M46.6911 41.5952H44.1777V80.0739H46.6911V41.5952Z" fill="#0F429F"/>
</svg>
