<svg width="80" height="80" viewBox="0 0 80 80" fill="none" xmlns="http://www.w3.org/2000/svg">
<path d="M78.7622 75.2593H76.3438V75.3288H78.7622V75.2593Z" fill="#EBEBEB"/>
<path d="M13.2503 72.3892H1.23828V72.4587H13.2503V72.3892Z" fill="#EBEBEB"/>
<path d="M17.4884 72.3894H15.7266V72.459H17.4884V72.3894Z" fill="#EBEBEB"/>
<path d="M49.2623 73.5635H23.2109V73.633H49.2623V73.5635Z" fill="#EBEBEB"/>
<path d="M51.8191 44.5321L64.4293 42.0712C65.1257 41.9352 65.8004 42.3896 65.9363 43.0862L67.4172 50.6747C67.5532 51.371 67.0988 52.046 66.4022 52.1817L53.7922 54.6426C53.0959 54.7786 52.4209 54.3242 52.2852 53.6278L50.8043 46.0391C50.6683 45.3427 51.1228 44.6681 51.8191 44.5321Z" fill="#EBEBEB"/>
<path d="M51.2963 48.5455L66.4287 45.593L66.0596 43.7015L50.9272 46.6539L51.2963 48.5455Z" fill="#E0E0E0"/>
<path d="M55.214 48.5658L52.6494 49.0662L52.7806 49.7384L55.3451 49.2381L55.214 48.5658Z" fill="#FAFAFA"/>
<path d="M57.1795 48.1834L55.6709 48.4778L55.8021 49.15L57.3107 48.8557L57.1795 48.1834Z" fill="#FAFAFA"/>
<path d="M59.7049 47.6855L58.1963 47.98L58.3275 48.6522L59.8362 48.3577L59.7049 47.6855Z" fill="#FAFAFA"/>
<path d="M61.0269 72.1295C58.9806 73.2655 56.401 72.5274 55.2649 70.4812C54.1289 68.4349 54.8667 65.8553 56.9132 64.7193C58.9595 63.5832 61.5392 64.321 62.6752 66.3673C63.811 68.4138 63.0732 70.9935 61.0269 72.1295Z" fill="#F0F0F0"/>
<path d="M59.3609 67.3641C59.132 67.4913 59.1411 67.7542 59.2135 68.0758L60.0617 67.6048C59.8213 67.2954 59.5707 67.2476 59.3609 67.3641Z" fill="#E0E0E0"/>
<path d="M58.7537 68.8411L57.9102 69.3093C58.1558 69.6281 58.3998 69.686 58.6048 69.5722C58.8382 69.4425 58.8313 69.1718 58.7537 68.8411Z" fill="#E0E0E0"/>
<path d="M62.1329 66.6687C61.1632 64.9219 58.9614 64.292 57.2147 65.2618C55.4679 66.2315 54.8383 68.4335 55.8078 70.1799C56.7775 71.9267 58.9792 72.5563 60.726 71.5868C62.4727 70.6174 63.1026 68.4154 62.1329 66.6687ZM57.3905 69.5976L56.8568 69.894L56.6399 69.5033L57.1688 69.2096C56.9383 68.7266 56.8395 68.1893 56.9163 67.8228L57.5164 67.7699C57.4555 68.1092 57.5159 68.5433 57.6833 68.924L58.6361 68.3951C58.4712 67.7947 58.3279 67.1325 58.9904 66.7649C59.4762 66.4951 60.0961 66.6122 60.5803 67.3161L61.1187 67.0171L61.3356 67.4079L60.8066 67.7015C60.9832 68.0647 61.077 68.4802 61.053 68.8303L60.4632 68.9021C60.4707 68.5675 60.4037 68.2558 60.2919 67.9874L59.3294 68.5216C59.4943 69.122 59.6478 69.7909 58.9854 70.1588C58.4995 70.428 57.8819 70.3034 57.3905 69.5976Z" fill="#E0E0E0"/>
<path d="M60.4252 18.7224C61.3115 22.2598 59.1626 25.8456 55.6252 26.7319C52.088 27.6182 48.5019 25.4694 47.6156 21.932C46.7293 18.3948 48.8782 14.8087 52.4156 13.9224C55.953 13.0361 59.5391 15.1853 60.4252 18.7224Z" fill="#F0F0F0"/>
<path d="M52.5805 19.3134C52.6796 19.709 53.0791 19.8013 53.5924 19.8216L53.2248 18.3552C52.6626 18.5925 52.4896 18.9509 52.5805 19.3134Z" fill="#E0E0E0"/>
<path d="M54.5596 20.8218L54.9249 22.2801C55.5035 22.0386 55.6888 21.6948 55.6001 21.3403C55.4988 20.9364 55.0887 20.8376 54.5596 20.8218Z" fill="#E0E0E0"/>
<path d="M52.6502 14.8598C49.6309 15.6162 47.7965 18.6772 48.5532 21.6963C49.3097 24.7156 52.3707 26.5496 55.3898 25.7932C58.4091 25.0368 60.2435 21.976 59.4867 18.9567C58.7303 15.9374 55.6695 14.1033 52.6502 14.8598ZM55.15 23.1769L55.3811 24.0996L54.7059 24.2689L54.4768 23.3548C53.6569 23.5075 52.8084 23.4399 52.2873 23.1769L52.4494 22.2522C52.9355 22.4805 53.6133 22.5645 54.2537 22.4655L53.841 20.8183C52.871 20.825 51.8165 20.7741 51.5297 19.6292C51.3192 18.789 51.745 17.9036 52.9992 17.458L52.7662 16.5275L53.4414 16.3584L53.6706 17.2726C54.2882 17.153 54.9515 17.1794 55.4685 17.356L55.3392 18.2726C54.8386 18.1266 54.3424 18.1021 53.8933 18.1622L54.3102 19.8258C55.2802 19.8191 56.3489 19.8575 56.6357 21.0027C56.8462 21.8417 56.4101 22.7213 55.15 23.1769Z" fill="#E0E0E0"/>
<g opacity="0.3">
<path d="M28.8037 46.7577L29.5657 46.1305L30.0246 46.6881L29.2695 47.3094C29.7773 48.0097 30.0913 48.8351 30.0766 49.4405L29.1377 49.6999C29.1355 49.1429 28.9127 48.4702 28.5348 47.914L27.1746 49.0336C27.6123 49.9397 28.0336 50.9508 27.0881 51.7289C26.3945 52.2999 25.375 52.2949 24.3994 51.3176L23.6307 51.9503L23.1719 51.3927L23.9266 50.7714C23.5398 50.2456 23.2695 49.6123 23.205 49.0492L24.1216 48.7627C24.2075 49.297 24.4053 49.7728 24.6611 50.1669L26.0349 49.0361C25.5972 48.1301 25.1578 47.1114 26.1036 46.333C26.7977 45.7621 27.8162 45.7793 28.8037 46.7577ZM26.3517 49.7113L25.1411 50.7078C25.6136 51.1291 26.026 51.1316 26.3253 50.8852C26.652 50.6165 26.5608 50.2011 26.3517 49.7113ZM26.8817 47.1534C26.5486 47.4276 26.6384 47.8556 26.8587 48.3587L28.0626 47.3678C27.5789 46.9331 27.1743 46.9126 26.8817 47.1534Z" fill="white"/>
</g>
<g opacity="0.3">
<path d="M29.1473 40.9185L30.0013 40.4241L30.3631 41.0492L29.5169 41.5392C29.9034 42.3129 30.0789 43.1786 29.9655 43.7735L28.9968 43.8764C29.0853 43.3263 28.9754 42.6263 28.6934 42.0159L27.1689 42.8986C27.4528 43.8639 27.7037 44.9301 26.6438 45.5438C25.8663 45.9938 24.8612 45.8228 24.0583 44.6995L23.1968 45.1982L22.835 44.573L23.6812 44.083C23.3853 43.5012 23.2218 42.8321 23.2502 42.2662L24.2013 42.133C24.1988 42.6739 24.3164 43.1758 24.5047 43.6063L26.0445 42.7148C25.7606 41.7495 25.4933 40.6727 26.5532 40.0592C27.3305 39.609 28.3325 39.7922 29.1473 40.9185ZM26.2461 43.4325L24.8893 44.2182C25.2867 44.7109 25.6933 44.7807 26.0287 44.5866C26.3949 44.3744 26.3727 43.9498 26.2461 43.4325ZM27.1864 40.995C26.8129 41.2114 26.8318 41.6483 26.967 42.1805L28.3163 41.3993C27.91 40.8915 27.5143 40.8053 27.1864 40.995Z" fill="white"/>
</g>
<path opacity="0.1" d="M50.9381 59.0923L26.757 68.8408L21.3766 59.5481L8.49219 22.4832L13.6051 19.5225L26.9189 17.6064L50.9381 59.0923Z" fill="black"/>
<path d="M7.93661 16.9112L25.3428 67.4404L49.7482 59.0335L32.342 8.5042L7.93661 16.9112Z" fill="#246AFF"/>
<path d="M7.93661 16.9112L25.3428 67.4404L49.7482 59.0335L32.342 8.5042L7.93661 16.9112Z" fill="#6395FF"/>
<g opacity="0.3">
<path d="M31.6878 36.5514L32.6208 36.23L32.8561 36.9127L31.9317 37.2311C32.1628 38.0646 32.1689 38.9478 31.9433 39.5098L30.9731 39.425C31.1655 38.9022 31.1919 38.1942 31.0323 37.5409L29.3667 38.1146C29.4602 39.1166 29.5019 40.2112 28.3439 40.61C27.4946 40.9026 26.541 40.5416 25.9684 39.2851L25.0273 39.6094L24.792 38.9264L25.7164 38.608C25.5376 37.98 25.5056 37.2923 25.6421 36.7422L26.601 36.7942C26.4948 37.3248 26.5137 37.8396 26.6161 38.2984L28.2983 37.7189C28.2046 36.7169 28.1489 35.609 29.307 35.2102C30.1563 34.9179 31.1043 35.2897 31.6878 36.5514ZM28.3584 38.4622L26.8761 38.9728C27.1717 39.5326 27.5571 39.6792 27.9237 39.5529C28.3236 39.4153 28.3834 38.9942 28.3584 38.4622ZM29.7489 36.2505C29.3409 36.3912 29.2755 36.8237 29.3061 37.3718L30.7803 36.864C30.4789 36.2878 30.1071 36.1273 29.7489 36.2505Z" fill="white"/>
</g>
<path d="M46.8383 55.0898L32.48 13.4073C30.9276 13.9421 29.2357 13.117 28.7012 11.5649L12.6887 17.0805C13.2232 18.6325 12.3981 20.3245 10.8457 20.8593L25.204 62.5417C26.7564 62.0069 28.4486 62.8321 28.9834 64.3847L44.9959 58.8689C44.4611 57.3165 45.2857 55.6246 46.8383 55.0898ZM15.4769 25.8C15.1209 25.9226 14.7333 25.7335 14.6106 25.3775L13.6414 22.564C13.5188 22.208 13.7079 21.8204 14.0639 21.6977C14.4199 21.5751 14.8075 21.7642 14.9302 22.1202L15.8994 24.9337C16.022 25.2894 15.8329 25.6773 15.4769 25.8ZM30.7007 43.3699C27.7211 44.3964 24.4735 42.8126 23.447 39.8328C22.4208 36.8532 24.004 33.6062 26.9836 32.5797C29.9635 31.5532 33.2106 33.1365 34.237 36.116C35.2635 39.0961 33.6806 42.3435 30.7007 43.3699ZM43.6204 54.2522C43.2645 54.3748 42.8765 54.1857 42.7541 53.8297L41.785 51.0162C41.6623 50.6603 41.8514 50.2726 42.2074 50.15C42.5634 50.0273 42.951 50.2164 43.0737 50.5724L44.0429 53.3859C44.1652 53.7416 43.9761 54.1295 43.6204 54.2522Z" fill="#ADC7FF"/>
<path opacity="0.1" d="M47.9906 66.1169L37.4626 74.7841C36.2222 73.5438 35.4561 71.8316 35.4561 69.9391C35.4561 66.1567 38.5227 63.0901 42.3051 63.0901C44.672 63.0898 46.7608 64.2906 47.9906 66.1169Z" fill="black"/>
<path d="M69.9569 79.985H30.8234C29.352 79.985 28.1592 78.7923 28.1592 77.3209V2.67932C28.1592 1.2079 29.352 0.0151367 30.8234 0.0151367H69.9569C71.4283 0.0151367 72.6211 1.2079 72.6211 2.67932V77.3209C72.6211 78.7923 71.4283 79.985 69.9569 79.985Z" fill="#263238"/>
<path opacity="0.3" d="M69.9569 79.985H30.8234C29.352 79.985 28.1592 78.7923 28.1592 77.3209V2.67932C28.1592 1.2079 29.352 0.0151367 30.8234 0.0151367H69.9569C71.4283 0.0151367 72.6211 1.2079 72.6211 2.67932V77.3209C72.6211 78.7923 71.4283 79.985 69.9569 79.985Z" fill="white"/>
<path d="M71.1225 2.69333V77.1627C71.1225 77.7748 70.6283 78.2512 70.0162 78.2512H30.6488C30.0854 78.2512 29.6602 77.8157 29.6602 77.2523V2.60628C29.6602 2.11711 30.0189 1.69189 30.5053 1.69189H40.3476C40.6268 1.69189 40.8779 1.87127 40.9827 2.13491L41.3899 3.13634C41.4922 3.39747 41.7459 3.57434 42.0226 3.57434H58.7801C59.0568 3.57434 59.3101 3.40275 59.4128 3.14412L59.8199 2.13519C59.925 1.87405 60.1759 1.69217 60.4551 1.69217H70.1566C70.6922 1.69217 71.1225 2.15826 71.1225 2.69333Z" fill="#263238"/>
<path opacity="0.6" d="M50.3845 1.78991C50.3845 2.10428 50.1297 2.35911 49.8153 2.35911C49.5009 2.35911 49.2461 2.10428 49.2461 1.78991C49.2461 1.47554 49.5009 1.2207 49.8153 1.2207C50.1297 1.2207 50.3845 1.47554 50.3845 1.78991Z" fill="white"/>
<path opacity="0.6" d="M51.5361 1.79026C51.5361 1.99168 51.3728 2.15498 51.1714 2.15498C50.9699 2.15498 50.8066 1.99168 50.8066 1.79026C50.8066 1.58884 50.9699 1.42554 51.1714 1.42554C51.3728 1.42554 51.5361 1.58884 51.5361 1.79026Z" fill="white"/>
<path d="M70.5239 6.45679H30.2588V74.7769H70.5239V6.45679Z" fill="#246AFF"/>
<path opacity="0.9" d="M70.5239 6.45679H30.2588V74.7769H70.5239V6.45679Z" fill="white"/>
<path d="M68.337 46.3449H32.4478C31.8424 46.3449 31.3516 45.854 31.3516 45.2486V18.2127C31.3516 17.6073 31.8424 17.1165 32.4478 17.1165H68.337C68.9424 17.1165 69.4333 17.6073 69.4333 18.2127V45.2486C69.4333 45.854 68.9424 46.3449 68.337 46.3449Z" fill="white"/>
<path d="M68.337 16.0752H32.4478C31.8424 16.0752 31.3516 15.5844 31.3516 14.979V8.85578C31.3516 8.25037 31.8424 7.75952 32.4478 7.75952H68.337C68.9424 7.75952 69.4333 8.25037 69.4333 8.85578V14.979C69.4333 15.5844 68.9424 16.0752 68.337 16.0752Z" fill="#246AFF"/>
<path d="M37.4481 10.6245L36.6969 12.8524H36.4486L35.7962 10.9524L35.1407 12.8524H34.8957L34.1445 10.6245H34.3865L35.0294 12.5403L35.6947 10.6245H35.9141L36.5698 12.5498L37.2223 10.6245H37.4481Z" fill="black"/>
<path d="M36.7912 12.9851H36.3529L35.7947 11.3596L35.2341 12.9851H34.7991L33.959 10.4922H34.4804L35.0305 12.1305L35.5989 10.4922H36.0077L36.5684 12.138L37.126 10.4922H37.6313L36.7912 12.9851Z" fill="white"/>
<path d="M38.9653 11.8153V12.8533H38.7489V12.5923C38.6471 12.7643 38.4496 12.8694 38.1727 12.8694C37.7938 12.8694 37.5615 12.6719 37.5615 12.3823C37.5615 12.1244 37.7271 11.9079 38.2078 11.9079H38.7394V11.8061C38.7394 11.5196 38.5772 11.3635 38.2651 11.3635C38.0487 11.3635 37.8447 11.44 37.7079 11.561L37.606 11.3924C37.7746 11.2492 38.0233 11.1663 38.2874 11.1663C38.72 11.166 38.9653 11.3824 38.9653 11.8153ZM38.7392 12.3503V12.0765H38.2139C37.8892 12.0765 37.7841 12.204 37.7841 12.3759C37.7841 12.5701 37.9402 12.6911 38.2075 12.6911C38.4621 12.6911 38.6501 12.5701 38.7392 12.3503Z" fill="black"/>
<path d="M38.1726 13.0018C37.7278 13.0018 37.4287 12.7528 37.4287 12.3822C37.4287 12.1997 37.5047 11.7752 38.2077 11.7752H38.6061C38.6 11.6391 38.5465 11.4959 38.265 11.4959C38.0875 11.4959 37.912 11.5573 37.7954 11.66L37.6763 11.7652L37.434 11.364L37.52 11.2908C37.7128 11.1272 37.9924 11.0332 38.2873 11.0332C38.8025 11.0332 39.0979 11.3181 39.0979 11.8152V12.9859H38.6161V12.898C38.4937 12.9659 38.3435 13.0018 38.1726 13.0018ZM38.2141 12.2089C37.917 12.2089 37.917 12.3174 37.917 12.3755C37.917 12.5344 38.0992 12.5583 38.2077 12.5583C38.3415 12.5583 38.5168 12.5169 38.6069 12.3227V12.2089H38.2141Z" fill="white"/>
<path d="M39.5781 10.4907H39.8043V12.8532H39.5781V10.4907Z" fill="black"/>
<path d="M39.9366 10.3586H39.4453V12.9863H39.9366V10.3586Z" fill="white"/>
<path d="M40.4336 10.4907H40.6598V12.8532H40.4336V10.4907Z" fill="black"/>
<path d="M40.7921 10.3586H40.3008V12.9863H40.7921V10.3586Z" fill="white"/>
<path d="M42.7483 12.0856H41.3473C41.3729 12.4358 41.6402 12.6681 42.0063 12.6681C42.21 12.6681 42.3917 12.595 42.5188 12.4484L42.6462 12.595C42.4965 12.7733 42.2642 12.8687 41.9999 12.8687C41.4778 12.8687 41.1211 12.5121 41.1211 12.0155C41.1211 11.5189 41.468 11.1653 41.9393 11.1653C42.4103 11.1653 42.7511 11.5125 42.7511 12.0155C42.7514 12.0347 42.7483 12.06 42.7483 12.0856ZM41.3473 11.9167H42.5347C42.506 11.5887 42.2673 11.3597 41.9393 11.3597C41.6149 11.3597 41.3759 11.589 41.3473 11.9167Z" fill="black"/>
<path d="M41.9986 13.0015C41.4127 13.0015 40.9873 12.587 40.9873 12.0158C40.9873 11.4463 41.3874 11.0332 41.9382 11.0332C42.4854 11.0332 42.8827 11.4463 42.8827 12.0158L42.8797 12.2186H41.5076C41.5771 12.4153 41.7602 12.5361 42.0053 12.5361C42.1761 12.5361 42.3188 12.476 42.4176 12.3619L42.5177 12.2467L42.8196 12.5939L42.7467 12.6807C42.5725 12.8874 42.3071 13.0015 41.9986 13.0015ZM41.5098 11.7843H42.3692C42.3021 11.6052 42.1419 11.4925 41.9379 11.4925C41.7357 11.4922 41.5768 11.6052 41.5098 11.7843Z" fill="white"/>
<path d="M44.0931 12.7511C44.004 12.8306 43.8702 12.8687 43.7397 12.8687C43.4245 12.8687 43.2495 12.6904 43.2495 12.3816V11.3692H42.9502V11.1784H43.2495V10.8123H43.4757V11.1784H43.9851V11.3692H43.4757V12.3688C43.4757 12.5663 43.5775 12.6745 43.7653 12.6745C43.8577 12.6745 43.9501 12.6462 44.0138 12.5886L44.0931 12.7511Z" fill="black"/>
<path d="M43.7396 13.0021C43.3554 13.0021 43.1167 12.7645 43.1167 12.3825V11.5025H42.8174V11.0463H43.1167V10.6802H43.608V11.0463H44.1174V11.5025H43.608V12.3697C43.608 12.5133 43.6709 12.5427 43.7652 12.5427C43.8292 12.5427 43.889 12.5233 43.9249 12.4907L44.0554 12.3733L44.2563 12.7837L44.1811 12.8507C44.0735 12.947 43.9124 13.0021 43.7396 13.0021Z" fill="white"/>
<path d="M66.7567 10.8555H64.0101C63.8639 10.8555 63.7451 10.7367 63.7451 10.5905C63.7451 10.4442 63.8639 10.3254 64.0101 10.3254H66.7567C66.903 10.3254 67.0217 10.4442 67.0217 10.5905C67.0217 10.737 66.903 10.8555 66.7567 10.8555Z" fill="white"/>
<path d="M66.7567 13.5078H64.0101C63.8639 13.5078 63.7451 13.3891 63.7451 13.2428C63.7451 13.0965 63.8639 12.9778 64.0101 12.9778H66.7567C66.903 12.9778 67.0217 13.0965 67.0217 13.2428C67.0217 13.3891 66.903 13.5078 66.7567 13.5078Z" fill="white"/>
<path d="M66.7567 12.1817H64.0101C63.8639 12.1817 63.7451 12.0629 63.7451 11.9166C63.7451 11.7704 63.8639 11.6516 64.0101 11.6516H66.7567C66.903 11.6516 67.0217 11.7704 67.0217 11.9166C67.0217 12.0629 66.903 12.1817 66.7567 12.1817Z" fill="white"/>
<g opacity="0.3">
<path d="M46.4327 34.5617H34.7233C34.3573 34.5617 34.0605 34.265 34.0605 33.899C34.0605 33.5331 34.3573 33.2363 34.7233 33.2363H46.4327C46.7987 33.2363 47.0954 33.5331 47.0954 33.899C47.0954 34.265 46.7987 34.5617 46.4327 34.5617Z" fill="black"/>
<path d="M51.4719 38.2741H34.7233C34.3573 38.2741 34.0605 37.9774 34.0605 37.6114C34.0605 37.2455 34.3573 36.9487 34.7233 36.9487H51.4719C51.8379 36.9487 52.1346 37.2455 52.1346 37.6114C52.1346 37.9774 51.8379 38.2741 51.4719 38.2741Z" fill="black"/>
<path d="M66.0609 38.2741H61.5123C61.1464 38.2741 60.8496 37.9774 60.8496 37.6114C60.8496 37.2455 61.1464 36.9487 61.5123 36.9487H66.0609C66.4269 36.9487 66.7237 37.2455 66.7237 37.6114C66.7237 37.9774 66.4269 38.2741 66.0609 38.2741Z" fill="black"/>
<path d="M42.4545 40.9275H34.7233C34.3573 40.9275 34.0605 40.6307 34.0605 40.2648C34.0605 39.8988 34.3573 39.6021 34.7233 39.6021H42.4545C42.8204 39.6021 43.1172 39.8988 43.1172 40.2648C43.1172 40.6307 42.8204 40.9275 42.4545 40.9275Z" fill="black"/>
<path d="M66.0569 40.9275H59.652C59.286 40.9275 58.9893 40.6307 58.9893 40.2648C58.9893 39.8988 59.286 39.6021 59.652 39.6021H66.0569C66.4229 39.6021 66.7196 39.8988 66.7196 40.2648C66.7196 40.6307 66.4229 40.9275 66.0569 40.9275Z" fill="black"/>
<path d="M49.8806 43.5781H34.7233C34.3573 43.5781 34.0605 43.2814 34.0605 42.9154C34.0605 42.5494 34.3573 42.2527 34.7233 42.2527H49.8806C50.2466 42.2527 50.5433 42.5494 50.5433 42.9154C50.5433 43.2814 50.2466 43.5781 49.8806 43.5781Z" fill="black"/>
<path d="M66.0592 43.5781H62.3063C61.9403 43.5781 61.6436 43.2814 61.6436 42.9154C61.6436 42.5494 61.9403 42.2527 62.3063 42.2527H66.0592C66.4252 42.2527 66.7219 42.5494 66.7219 42.9154C66.7219 43.2814 66.4252 43.5781 66.0592 43.5781Z" fill="black"/>
</g>
<path d="M55.2128 29.9121C58.1108 27.0141 58.1108 22.3155 55.2128 19.4175C52.3147 16.5195 47.6161 16.5195 44.7181 19.4175C41.82 22.3155 41.82 27.0141 44.7181 29.9121C47.6161 32.8101 52.3147 32.8101 55.2128 29.9121Z" fill="#A8D29F"/>
<path d="M51.3458 26.5191C50.2136 26.5191 49.315 25.4986 49.522 24.329C49.6817 23.4264 50.537 22.8115 51.4535 22.8115H53.5028C53.5268 22.8115 53.5465 22.7919 53.5465 22.7679V21.6703C53.5465 21.4145 53.3391 21.2068 53.083 21.2068H46.4234C46.1677 21.2068 45.96 21.4142 45.96 21.6703V27.6607C45.96 27.9164 46.1673 28.1242 46.4234 28.1242H53.083C53.3387 28.1242 53.5465 27.9168 53.5465 27.6607V26.5631C53.5465 26.5391 53.5268 26.5194 53.5028 26.5194L51.3458 26.5191Z" fill="white"/>
<path d="M53.5151 23.407H51.3446C50.6501 23.407 50.0869 23.9702 50.0869 24.6647C50.0869 25.3592 50.6501 25.9223 51.3446 25.9223H53.5151C53.7708 25.9223 53.9778 25.715 53.9778 25.4596V23.8701C53.9778 23.614 53.7705 23.407 53.5151 23.407ZM51.4232 25.1361C51.1627 25.1361 50.9517 24.9251 50.9517 24.6647C50.9517 24.4042 51.1627 24.1932 51.4232 24.1932C51.6837 24.1932 51.8947 24.4042 51.8947 24.6647C51.8947 24.9251 51.6837 25.1361 51.4232 25.1361Z" fill="white"/>
<path opacity="0.6" d="M34.2339 4.69189H34.7461V4.00891H34.2339V4.69189Z" fill="white"/>
<path opacity="0.6" d="M33.3997 4.69189H33.9121V3.78106H33.3997V4.69189Z" fill="white"/>
<path opacity="0.6" d="M32.5627 4.69189H33.0752V3.55321H32.5627V4.69189Z" fill="white"/>
<path opacity="0.6" d="M31.7297 4.69189H32.2422V3.32536H31.7297V4.69189Z" fill="white"/>
<path opacity="0.6" d="M66.4315 3.75952H66.1279V4.44251H66.4315V3.75952Z" fill="white"/>
<path opacity="0.6" d="M66.6393 4.69165H69.0586V3.51012H66.6393V4.69165Z" fill="white"/>
</svg>
