<svg width="80" height="80" viewBox="0 0 80 80" fill="none" xmlns="http://www.w3.org/2000/svg">
<path d="M7.49263 51.9063C7.49263 51.9063 29.1573 50.3999 46.493 52.1516C63.8287 53.9034 67.9384 50.2147 80 52.1516C80 52.1516 75.1911 59.8776 73.2781 70.1106C63.8245 67.6165 14.2175 70.9118 4.56329e-08 68.0722C4.56329e-08 68.0722 1.47052 61.1393 7.49263 51.9063Z" fill="#ADC7FF"/>
<path d="M10.1245 53.6094C10.1245 53.6094 30.035 52.3998 45.9672 53.8063C61.8994 55.2131 65.6764 52.2508 76.7614 53.8063C76.7614 53.8063 72.3417 60.0103 70.5837 68.2279C61.9045 66.2257 16.3033 68.8708 3.23828 66.591C3.23828 66.591 4.59002 61.0234 10.1245 53.6094Z" fill="#E9F0FF"/>
<path d="M47.9722 20.7304C50.2813 16.1151 47.8403 10.1343 43.4924 11.9013C42.3441 7.91967 36.9449 7.79939 35.0564 13.0221C34.4551 15.0874 31.3719 15.2104 31.1394 18.5006C30.9066 21.7908 34.0287 23.1213 32.5746 26.045C30.08 33.312 46.7374 32.0793 49.8338 28.0355C52.4714 24.8545 46.7748 23.95 47.9722 20.7304Z" fill="#163560"/>
<path d="M32.9952 57.0533C31.6096 59.1452 27.3716 60.3357 25.3553 60.8985C23.6027 61.4367 23.7583 63.1101 26.0797 62.8728C29.0246 62.7206 33.2241 62.5569 35.1951 60.6328C37.843 59.2063 35.4683 55.3341 32.9952 57.0533Z" fill="#F99370"/>
<path d="M48.9841 57.0533C50.3696 59.1452 54.6077 60.3357 56.6239 60.8985C58.3766 61.4367 58.221 63.1101 55.8996 62.8728C52.9546 62.7206 48.7552 62.5569 46.7841 60.6328C44.1366 59.2063 46.511 55.3341 48.9841 57.0533Z" fill="#F99370"/>
<path d="M25.0391 44.9424C25.0391 44.9424 37.7675 48.5267 57.8842 44.9872C45.668 53.6252 37.5665 56.3374 25.0391 44.9424Z" fill="#3D74E7"/>
<path d="M47.6907 62.1916C3.02961 54.2516 17.4282 31.912 49.9394 56.9007C50.4474 60.187 47.6907 62.1916 47.6907 62.1916Z" fill="#94B7FF"/>
<path d="M47.6912 62.1917C47.6415 62.1932 47.1449 62.1056 46.3164 61.9356C46.3164 61.9356 49.314 59.9182 48.9445 56.2112C49.5827 56.6462 49.9399 56.9008 49.9399 56.9008C50.4479 60.1871 47.6912 62.1917 47.6912 62.1917Z" fill="#3D74E7"/>
<path d="M49.5241 57.3308L48.4234 59.3527L42.5419 61.0835C42.0719 60.9696 41.5794 60.8472 41.0684 60.7158L49.5241 57.3308Z" fill="#3D74E7"/>
<path d="M35.6635 61.9664C34.9263 62.1163 34.4868 62.1932 34.4401 62.1917C34.4401 62.1917 31.6834 60.1872 32.1914 56.9009C64.3227 32.1234 78.6734 53.9736 35.6635 61.9664Z" fill="#94B7FF"/>
<path d="M47.0799 27.3628C53.3204 32.7464 53.0287 45.8582 64.3965 41.8577C64.9972 41.6183 65.6923 41.9292 65.8823 42.5551C65.7054 45.2077 60.3888 45.6787 58.1835 45.7618C50.3495 45.8983 47.6095 36.4968 43.5704 32.1711C40.4169 29.9391 43.9947 25.0405 47.0799 27.3628Z" fill="#F99370"/>
<path d="M38.563 32.171C34.5245 36.4955 31.7834 45.8999 23.9502 45.7611C21.8897 45.7261 15.7503 45.0816 16.3586 42.3141C16.6479 41.8294 17.2373 41.6625 17.7372 41.8585C28.0851 45.3455 28.749 35.2972 33.3532 29.1363C36.2646 24.1485 42.4316 28.2848 38.563 32.171Z" fill="#F99370"/>
<path d="M50.756 45.9952C44.6836 48.7178 37.4941 48.757 31.4121 46.0493C31.533 43.3486 34.4477 41.411 33.1058 38.145C32.0147 34.894 35.8339 31.3399 34.2676 28.0563C34.4564 27.8235 34.6763 27.6174 34.9162 27.4355C37.968 25.7971 44.3808 25.0719 47.7294 27.9292C46.0368 31.9691 49.5266 34.3728 48.5689 38.3C47.3449 42.0363 50.6507 43.6477 50.756 45.9952Z" fill="#EB5648"/>
<path d="M42.6919 25.213V22.2122H39.4466C39.3416 25.8695 40.3474 25.7863 36.3574 26.6632C36.3873 26.718 38.3357 30.2104 41.0691 31.2519C41.0691 31.2519 45.0247 29.6249 46.1326 26.8424C45.0148 26.2384 42.8885 26.5911 42.6919 25.213Z" fill="#F99370"/>
<path d="M46.3157 18.108C45.9937 19.7206 43.9631 19.2913 44.3216 17.6864C44.6435 16.0738 46.6738 16.5028 46.3157 18.108Z" fill="#F99370"/>
<path d="M45.8521 18.4313C45.6935 18.1366 46.0394 17.4924 45.7608 17.3937C45.453 17.1418 45.1331 17.4801 45.0332 17.321C45.508 16.7118 46.4927 17.5729 45.8521 18.4313Z" fill="#C16256"/>
<path d="M45.1062 18.3197C44.7981 18.3218 45.5347 17.2797 46.0203 17.5687C46.0236 17.6127 45.9903 17.6507 45.9464 17.6537C45.3303 17.7174 45.2516 18.3002 45.1062 18.3197Z" fill="#C16256"/>
<path d="M36.011 18.108C36.3329 19.7206 38.3635 19.2913 38.0051 17.6864C37.6832 16.0738 35.6526 16.5028 36.011 18.108Z" fill="#F99370"/>
<path d="M36.4758 18.4313C35.8343 17.572 36.822 16.7121 37.295 17.3209C37.1962 17.4798 36.8743 17.142 36.5671 17.3937C36.2888 17.4927 36.6338 18.1366 36.4758 18.4313Z" fill="#C16256"/>
<path d="M37.2189 18.3197C37.0747 18.3014 36.994 17.7162 36.3788 17.6534C36.3348 17.6507 36.3016 17.6127 36.3049 17.5687C36.7908 17.2797 37.5274 18.3218 37.2189 18.3197Z" fill="#C16256"/>
<path d="M42.6887 23.9331V22.2122H39.4434V23.9331C39.4434 23.9331 41.0659 24.7855 42.6887 23.9331Z" fill="#E57D61"/>
<path d="M37.0999 19.9406C37.1058 24.7379 44.942 24.8785 45.1966 20.1238C45.2779 18.3603 44.7125 17.7969 44.4815 15.6006C44.0614 11.6136 38.396 11.4015 37.8864 15.5707C37.686 17.2153 37.0855 18.4342 37.0999 19.9406Z" fill="#F99370"/>
<path d="M40.0751 17.4986C40.2055 17.2509 39.8133 17.0517 39.6903 17.3033C39.5598 17.5507 39.9521 17.75 40.0751 17.4986Z" fill="#C16256"/>
<path d="M42.6611 17.5033C42.7915 17.2556 42.3993 17.0563 42.2763 17.3079C42.1456 17.5557 42.5378 17.7549 42.6611 17.5033Z" fill="#C16256"/>
<path d="M41.3549 19.3753C40.4166 19.1719 41.9024 19.2539 41.8793 19.0121C41.4955 18.6887 40.8352 17.792 41.0497 17.6287C41.2463 17.5985 41.3441 18.476 41.8647 18.753C42.3643 19.1049 41.7501 19.3699 41.3549 19.3753Z" fill="#C16256"/>
<path d="M41.3729 20.6027C40.8051 20.5925 40.1316 20.3484 40.5148 20.2371C40.5232 20.2412 41.3756 20.6826 42.1323 20.2389C42.5523 20.4034 41.5141 20.6506 41.3729 20.6027Z" fill="#C16256"/>
<path d="M42.9241 13.0215C42.9241 13.0215 42.4392 15.9282 37.6231 16.9589C37.6231 16.9589 37.3448 14.4532 38.3531 13.0215C39.3617 11.5899 42.1041 11.4667 42.9241 13.0215Z" fill="#163560"/>
<path d="M42.9255 13.0215C42.9255 13.0215 42.702 15.7863 44.6976 16.9654C44.6976 16.9654 45.2083 13.8326 42.9255 13.0215Z" fill="#8C4225"/>
<path d="M35.8477 26.9389C35.8477 26.9389 37.7541 30.8275 41.0649 31.9393C41.0649 31.9393 44.7142 30.7383 46.1284 26.8426C46.1284 26.8426 45.6219 26.5859 45.2704 26.553C45.2704 26.553 43.8292 29.5087 41.0649 30.9953C41.0649 30.9953 38.512 29.7959 36.654 26.5559C36.654 26.5559 36.2139 26.6478 35.8477 26.9389Z" fill="#CE3932"/>
<path d="M64.5339 42.4107C64.4291 40.983 66.706 39.7506 67.667 40.5779C67.1763 41.1589 65.6908 40.9689 65.6121 42.0846C66.2662 43.3678 64.4262 43.8779 64.5339 42.4107Z" fill="#F99370"/>
<path d="M65.4219 41.827C67.5297 42.8961 67.6383 39.8348 68.0925 41.0094C67.5925 44.5868 62.6379 42.2133 65.4219 41.827Z" fill="#F99370"/>
<path d="M65.6983 42.2117C66.7721 42.4316 67.9584 41.9341 68.7749 41.2172C68.8754 41.1253 69.0343 41.1349 69.121 41.2405C68.8416 42.5432 66.8397 43.3169 65.5149 43.2831C64.7343 43.2317 64.9434 42.0002 65.6983 42.2117Z" fill="#F99370"/>
<path d="M65.4476 42.542C66.6327 43.0713 68.1116 42.7182 69.1199 41.9227C69.2264 41.8365 69.3853 41.8563 69.4651 41.9682C68.9649 43.4438 66.5127 43.9832 65.0338 43.5473C64.2906 43.3226 64.7601 42.1779 65.4476 42.542Z" fill="#F99370"/>
<path d="M64.7547 43.0184C66.078 43.5348 67.6641 43.5776 68.9931 43.0223C69.1163 42.9756 69.2536 43.0375 69.3006 43.1605C68.8563 44.2666 64.1354 44.9547 64.002 43.3777C64.0836 43.0525 64.4513 42.8787 64.7547 43.0184Z" fill="#F99370"/>
<path d="M16.7519 42.3086C17.1501 40.9131 13.8195 40.935 14.9409 40.3351C16.345 40.2106 18.0181 41.0696 17.8341 42.7005C17.7838 43.8015 16.0856 43.1825 16.7519 42.3086Z" fill="#F99370"/>
<path d="M17.3095 42.8519C14.872 43.797 13.4715 40.1953 14.7365 40.8921C14.9504 41.9432 16.0682 42.2717 16.9478 41.8268C17.6557 41.4872 18.0749 42.6711 17.3095 42.8519Z" fill="#F99370"/>
<path d="M16.8552 43.2831C16.0629 43.7286 12.0673 41.4733 13.5851 41.2085C14.4045 41.9307 15.5992 42.4352 16.6784 42.2099C17.429 42.0076 17.6328 43.2331 16.8552 43.2831Z" fill="#F99370"/>
<path d="M17.3351 43.5472C16.4573 44.4062 11.5634 42.3229 13.2365 41.9133C14.2507 42.7179 15.7461 43.0787 16.9384 42.5338C17.6235 42.1961 18.069 43.3291 17.3351 43.5472Z" fill="#F99370"/>
<path d="M17.9758 44.0429C17.3158 44.5856 11.9659 43.9044 13.3736 43.022C14.7083 43.5797 16.3024 43.5351 17.6293 43.0116C18.3246 42.7178 18.7097 43.8559 17.9758 44.0429Z" fill="#F99370"/>
<path d="M35.6635 61.9664C34.9263 62.1163 34.4868 62.1932 34.4401 62.1917C34.4401 62.1917 31.6834 60.1871 32.1914 56.9008C32.1914 56.9008 32.5465 56.5939 33.208 56.1965C33.208 56.1965 33.0022 59.6468 35.6635 61.9664Z" fill="#3D74E7"/>
<path d="M33.0334 56.4755C32.7363 56.304 39.1752 52.0839 41.8245 50.7427C39.3242 52.3508 33.1151 56.3761 33.0334 56.4755Z" fill="#3D74E7"/>
<path d="M33.7773 33.344C33.7773 33.344 34.3784 28.01 34.224 27.9897C34.4128 27.7569 34.8395 27.4062 35.0516 27.344C35.1369 28.1581 34.5211 33.0056 33.7773 33.344Z" fill="#CE3932"/>
<path d="M47.7535 32.8026C46.3165 29.7048 46.9002 26.2965 47.7272 27.9289C47.7272 27.9289 47.0552 30.8244 47.7535 32.8026Z" fill="#CE3932"/>
</svg>
