<svg width="320" height="158" viewBox="0 0 320 158" fill="none" xmlns="http://www.w3.org/2000/svg">
<path d="M292.5 157C299.5 157 306.49 142.108 308.809 130.841C315.846 96.2647 301.428 68.3663 273.404 51.8352C259.585 43.669 246.831 42.5435 235.775 43.5639C223.206 44.7237 212.833 48.6621 205.584 48.1882C195.293 47.514 189.422 33.8958 174.355 21.3227C165.531 13.9628 153.553 6.98165 135.685 3.22106C113.87 -1.37342 84.8717 -1.77406 64.3093 6.81384C56.2174 10.1912 49.5078 14.9425 45.1459 21.3229C33.9254 37.725 41.8357 59.3036 51.9522 76.4622C66.2903 100.78 47.5276 105.018 30.5733 114.662C17.7021 121.985 21.9982 132.852 26.4998 157.574C26.4998 157.574 285.5 157 292.5 157Z" fill="#D5E6FE"/>
<path d="M319.638 158H0.362535C0.163141 158 0 157.836 0 157.636V157.512C0 157.312 0.163141 157.148 0.362535 157.148H319.637C319.837 157.148 320 157.312 320 157.512V157.636C320 157.836 319.837 158 319.638 158Z" fill="#8692C2"/>
<path d="M314 98.3219V110.553C313.981 110.767 313.964 110.98 313.944 111.196C313.922 111.456 313.897 111.718 313.871 111.98C313.763 113.088 313.635 114.221 313.486 115.374C313.456 115.607 313.424 115.839 313.392 116.072C313.242 117.187 313.072 118.323 312.88 119.467C312.842 119.7 312.801 119.938 312.76 120.173C312.566 121.298 312.355 122.43 312.122 123.566C312.074 123.805 312.023 124.043 311.973 124.281C311.786 125.177 311.583 126.074 311.373 126.969C311.26 127.441 311.144 127.911 311.028 128.38C310.742 129.519 310.435 130.652 310.111 131.774C310.043 132.008 309.974 132.24 309.904 132.475C309.562 133.619 309.202 134.751 308.819 135.865C308.739 136.101 308.657 136.337 308.573 136.573C308.236 137.524 307.884 138.461 307.518 139.378C307.317 139.881 307.111 140.378 306.902 140.87C306.402 142.036 305.874 143.17 305.321 144.26C305.201 144.498 305.079 144.734 304.957 144.967C304.328 146.156 303.668 147.289 302.974 148.355C302.827 148.581 302.679 148.804 302.526 149.025C301.685 150.259 300.794 151.395 299.853 152.409C299.551 152.736 299.244 153.052 298.931 153.352C297.423 154.808 295.797 155.959 294.05 156.729C293.922 156.785 293.794 156.84 293.665 156.892C293.632 156.906 293.6 156.919 293.568 156.932L193.276 157L174.667 156.887L137.846 156.667L26.5 157C26.5 157 6 143.791 6 122.6C6 122.308 6.00371 122.017 6.01123 121.722C6.31573 110.396 9.35028 88.8091 35.4442 77.6031V87.8013H41.4339V75.3567C43.3302 74.7393 45.3272 74.1718 47.4323 73.658C50.1079 73.0053 52.9536 72.4404 55.9832 71.9751C56.2802 71.9279 56.5797 71.8834 56.8804 71.8401C58.3281 71.6291 59.715 71.3801 61.0446 71.0931V86.2416H67.6644V82.703L75.4722 82.7344V77.0003H77.0442V75.8653H77.2516V77.0003H83.2798V77.0016H84.4865V75.8653H84.6941V77.0016H86.148V88.4056H95.4433V92.6024H100.609V90.1646H105.401V80.4894H107.789V75.9755H108.151V80.4894H113.879V72.0305H114.44V80.4894H118.229V80.3727H118.223V79.2993H118.229V78.2822H118.223V76.5928H118.229V75.5115H118.223V73.8221H118.229V72.7421H118.223V71.0513H118.229V69.8848H118.223V68.1941H118.229V66.709H118.223V65.0182H118.229V63.8976H119.357V62.6328H119.539V63.8976H127.902V62.6328H128.082V63.8976H129.608V72.7419L130.683 72.7484V72.7419H130.675V71.0511H130.683V69.8846H130.675V68.1939H130.683V67.0312H130.675V65.3407H130.683V65.3355H140.825V65.3407H142.568C142.659 65.3865 142.749 65.4298 142.839 65.4757V75.1273H150.253V87.8013H156.242V64.3629H157.545V62.7233H157.779V64.3629H162.509V62.7233H162.743V64.3629H169.44V62.7233H169.675V64.3629H173.889V62.7233H174.123V64.3629H175.855V86.2416H182.474V82.703L190.281 82.7344V77.0003H191.853V75.8653H192.061V77.0003H198.089V77.0016H199.293V75.8653H199.502V77.0016H200.956V88.4056H210.252V92.6024H215.418V90.1646H220.21V80.4894H222.599V75.9755H222.96V80.4894H228.688V72.0305H229.249V80.4894H233.038V80.3727H233.032V79.2993H233.038V78.2822H233.032V76.5928H233.038V75.5115H233.032V73.8221H233.038V72.7421H233.032V71.0513H233.038V69.8848H233.032V68.1941H233.038V66.709H233.032V65.0182H233.038V63.8976H234.168V62.6328H234.348V63.8976H242.71V62.6328H242.891V63.8976H244.417V72.7419L245.477 72.7484H245.492V72.7419H245.484V71.0511H245.492V69.8846H245.484V68.1939H245.492V67.0312H245.484V65.3407H245.492V65.3355H255.634V65.3407H257.376C257.467 65.3865 257.556 65.4298 257.647 65.4757V75.1273H270.091V87.8026H276.081V64.3629H277.383V62.7233H277.618V64.3629H282.348V62.7233H282.581V64.3629H289.279V62.7233H289.513V64.3629H295.693V86.2429H302.313V82.7029L310.121 82.7342V81.2899C310.225 81.6255 310.328 81.9637 310.429 82.3018C310.5 82.5377 310.57 82.7788 310.641 83.0174C310.701 83.2244 310.759 83.4314 310.819 83.6373C311.054 84.4683 311.28 85.3032 311.496 86.1407C311.52 86.231 311.544 86.3228 311.567 86.4158C311.627 86.6518 311.686 86.8877 311.746 87.1236C312.025 88.2521 312.29 89.3845 312.538 90.5209C312.589 90.7542 312.638 90.9888 312.689 91.2221C312.929 92.3532 313.155 93.4869 313.366 94.6206C313.411 94.8565 313.455 95.0924 313.498 95.3284C313.626 96.0257 313.748 96.7216 313.866 97.4163C313.914 97.7046 313.959 98.0075 314 98.3219Z" fill="#BEDAFF"/>
<path d="M175.858 64.3625H160.895V68.0713H175.858V64.3625Z" fill="#E2EEFD"/>
<path d="M175.858 70.071H160.895V73.7798H175.858V70.071Z" fill="#E2EEFD"/>
<path d="M175.858 75.8989H160.895V79.6077H175.858V75.8989Z" fill="#E2EEFD"/>
<path d="M175.858 81.8188H160.895V85.5276H175.858V81.8188Z" fill="#E2EEFD"/>
<path d="M175.858 87.531H160.895V91.2397H175.858V87.531Z" fill="#E2EEFD"/>
<path d="M240.042 63.8984H233.061V66.1507H240.042V63.8984Z" fill="#E2EEFD"/>
<path d="M240.042 67.3645H233.061V69.6168H240.042V67.3645Z" fill="#E2EEFD"/>
<path d="M240.042 70.9043H233.061V73.1566H240.042V70.9043Z" fill="#E2EEFD"/>
<path d="M240.042 74.4995H233.061V76.7518H240.042V74.4995Z" fill="#E2EEFD"/>
<path d="M240.042 77.969H233.061V80.2213H240.042V77.969Z" fill="#E2EEFD"/>
<path d="M240.042 81.7871H233.061V84.0394H240.042V81.7871Z" fill="#E2EEFD"/>
<path d="M240.042 85.2539H233.061V87.5062H240.042V85.2539Z" fill="#E2EEFD"/>
<path d="M240.042 88.7927H233.061V91.0451H240.042V88.7927Z" fill="#E2EEFD"/>
<path d="M240.042 92.3884H233.061V94.6407H240.042V92.3884Z" fill="#E2EEFD"/>
<path d="M240.042 95.8572H233.061V98.1095H240.042V95.8572Z" fill="#E2EEFD"/>
<path d="M252.96 65.375H245.479V67.6273H252.96V65.375Z" fill="#E2EEFD"/>
<path d="M252.96 68.842H245.479V71.0943H252.96V68.842Z" fill="#E2EEFD"/>
<path d="M252.96 72.3809H245.479V74.6332H252.96V72.3809Z" fill="#E2EEFD"/>
<path d="M252.96 75.9761H245.479V78.2284H252.96V75.9761Z" fill="#E2EEFD"/>
<path d="M252.96 79.4456H245.479V81.6979H252.96V79.4456Z" fill="#E2EEFD"/>
<path d="M252.96 83.063H245.479V85.3153H252.96V83.063Z" fill="#E2EEFD"/>
<path d="M252.96 86.5291H245.479V88.7814H252.96V86.5291Z" fill="#E2EEFD"/>
<path d="M252.96 90.0686H245.479V92.3209H252.96V90.0686Z" fill="#E2EEFD"/>
<path d="M252.96 93.6643H245.479V95.9167H252.96V93.6643Z" fill="#E2EEFD"/>
<path d="M252.96 97.1331H245.479V99.3854H252.96V97.1331Z" fill="#E2EEFD"/>
<path d="M252.96 101.112H245.479V103.364H252.96V101.112Z" fill="#E2EEFD"/>
<path d="M252.96 104.579H245.479V106.831H252.96V104.579Z" fill="#E2EEFD"/>
<path d="M252.96 108.118H245.479V110.37H252.96V108.118Z" fill="#E2EEFD"/>
<path d="M252.96 111.714H245.479V113.966H252.96V111.714Z" fill="#E2EEFD"/>
<path d="M252.96 115.183H245.479V117.435H252.96V115.183Z" fill="#E2EEFD"/>
<path d="M295.693 64.3625H282.07V68.0713H295.693V64.3625Z" fill="#E2EEFD"/>
<path d="M295.693 70.071H282.07V73.7798H295.693V70.071Z" fill="#E2EEFD"/>
<path d="M295.693 75.8989H282.07V79.6077H295.693V75.8989Z" fill="#E2EEFD"/>
<path d="M295.693 81.8188H282.07V85.5276H295.693V81.8188Z" fill="#E2EEFD"/>
<path d="M295.693 87.531H282.07V91.2397H295.693V87.531Z" fill="#E2EEFD"/>
<path d="M125.642 63.8984H118.16V66.1507H125.642V63.8984Z" fill="#E2EEFD"/>
<path d="M125.642 67.3645H118.16V69.6168H125.642V67.3645Z" fill="#E2EEFD"/>
<path d="M125.642 70.9043H118.16V73.1566H125.642V70.9043Z" fill="#E2EEFD"/>
<path d="M125.642 74.4995H118.16V76.7518H125.642V74.4995Z" fill="#E2EEFD"/>
<path d="M125.642 77.969H118.16V80.2213H125.642V77.969Z" fill="#E2EEFD"/>
<path d="M125.642 81.7871H118.16V84.0394H125.642V81.7871Z" fill="#E2EEFD"/>
<path d="M125.642 85.2539H118.16V87.5062H125.642V85.2539Z" fill="#E2EEFD"/>
<path d="M125.642 88.7927H118.16V91.0451H125.642V88.7927Z" fill="#E2EEFD"/>
<path d="M125.642 92.3884H118.16V94.6407H125.642V92.3884Z" fill="#E2EEFD"/>
<path d="M125.642 95.8572H118.16V98.1095H125.642V95.8572Z" fill="#E2EEFD"/>
<path d="M139.333 65.375H130.83V67.6273H139.333V65.375Z" fill="#E2EEFD"/>
<path d="M139.333 68.842H130.83V71.0943H139.333V68.842Z" fill="#E2EEFD"/>
<path d="M139.333 72.3809H130.83V74.6332H139.333V72.3809Z" fill="#E2EEFD"/>
<path d="M139.333 75.9761H130.83V78.2284H139.333V75.9761Z" fill="#E2EEFD"/>
<path d="M139.333 79.4456H130.83V81.6979H139.333V79.4456Z" fill="#E2EEFD"/>
<path d="M139.333 83.063H130.83V85.3153H139.333V83.063Z" fill="#E2EEFD"/>
<path d="M139.333 86.5291H130.83V88.7814H139.333V86.5291Z" fill="#E2EEFD"/>
<path d="M139.333 90.0686H130.83V92.3209H139.333V90.0686Z" fill="#E2EEFD"/>
<path d="M139.333 93.6643H130.83V95.9167H139.333V93.6643Z" fill="#E2EEFD"/>
<path d="M139.333 97.1331H130.83V99.3854H139.333V97.1331Z" fill="#E2EEFD"/>
<path d="M139.333 101.112H130.83V103.364H139.333V101.112Z" fill="#E2EEFD"/>
<path d="M139.333 104.579H130.83V106.831H139.333V104.579Z" fill="#E2EEFD"/>
<path d="M139.333 108.118H130.83V110.37H139.333V108.118Z" fill="#E2EEFD"/>
<path d="M139.333 111.714H130.83V113.966H139.333V111.714Z" fill="#E2EEFD"/>
<path d="M139.333 115.183H130.83V117.435H139.333V115.183Z" fill="#E2EEFD"/>
<path d="M241.653 134.846H97.6719V146.088H241.653V134.846Z" fill="#1C2948"/>
<path d="M225.82 157.268C230.991 157.268 235.183 153.076 235.183 147.905C235.183 142.733 230.991 138.542 225.82 138.542C220.649 138.542 216.457 142.733 216.457 147.905C216.457 153.076 220.649 157.268 225.82 157.268Z" fill="#2D3A62"/>
<path d="M225.819 142.104C222.615 142.104 220.018 144.701 220.018 147.905C220.018 151.108 222.615 153.706 225.819 153.706C229.023 153.706 231.62 151.108 231.62 147.905C231.62 144.701 229.023 142.104 225.819 142.104ZM226.613 142.739C227.877 142.932 228.99 143.578 229.785 144.505L227.775 145.747C227.447 145.45 227.051 145.227 226.613 145.103V142.739ZM225.024 142.739V145.103C224.586 145.227 224.19 145.45 223.862 145.747L221.852 144.505C222.647 143.578 223.761 142.932 225.024 142.739ZM221.001 149.931C220.738 149.308 220.593 148.623 220.593 147.905C220.593 147.177 220.742 146.484 221.011 145.854L223.021 147.095C222.947 147.352 222.906 147.624 222.906 147.905C222.906 148.176 222.944 148.439 223.013 148.688L221.001 149.931ZM225.024 153.07C223.751 152.876 222.631 152.222 221.834 151.284L223.842 150.043C224.174 150.35 224.577 150.58 225.024 150.706L225.024 153.07ZM224.502 147.905C224.502 147.177 225.091 146.588 225.819 146.588C226.546 146.588 227.136 147.177 227.136 147.905C227.136 148.632 226.546 149.222 225.819 149.222C225.091 149.222 224.502 148.632 224.502 147.905ZM226.613 153.07V150.707C227.06 150.58 227.463 150.35 227.795 150.044L229.803 151.284C229.007 152.222 227.886 152.876 226.613 153.07ZM228.624 148.688C228.693 148.438 228.731 148.176 228.731 147.905C228.731 147.624 228.691 147.352 228.616 147.095L230.626 145.854C230.895 146.484 231.044 147.177 231.044 147.905C231.044 148.623 230.899 149.308 230.637 149.931L228.624 148.688Z" fill="#98BDF4"/>
<path d="M109.316 157.268C114.487 157.268 118.679 153.076 118.679 147.905C118.679 142.733 114.487 138.542 109.316 138.542C104.145 138.542 99.9531 142.733 99.9531 147.905C99.9531 153.076 104.145 157.268 109.316 157.268Z" fill="#2D3A62"/>
<path d="M109.317 142.104C106.113 142.104 103.516 144.701 103.516 147.905C103.516 151.108 106.113 153.706 109.317 153.706C112.521 153.706 115.118 151.108 115.118 147.905C115.118 144.701 112.521 142.104 109.317 142.104ZM110.111 142.739C111.375 142.932 112.488 143.578 113.283 144.505L111.273 145.747C110.945 145.45 110.549 145.227 110.111 145.103V142.739ZM108.522 142.739V145.103C108.084 145.227 107.688 145.45 107.36 145.747L105.35 144.505C106.145 143.578 107.259 142.932 108.522 142.739ZM104.499 149.931C104.236 149.308 104.091 148.623 104.091 147.905C104.091 147.177 104.241 146.484 104.509 145.854L106.519 147.095C106.445 147.352 106.404 147.624 106.404 147.905C106.404 148.176 106.442 148.438 106.511 148.688L104.499 149.931ZM108.522 153.07C107.249 152.876 106.129 152.222 105.332 151.284L107.34 150.043C107.672 150.35 108.075 150.58 108.522 150.706L108.522 153.07ZM108 147.905C108 147.177 108.589 146.588 109.317 146.588C110.044 146.588 110.634 147.177 110.634 147.905C110.634 148.632 110.044 149.222 109.317 149.222C108.589 149.222 108 148.632 108 147.905ZM110.111 153.07V150.707C110.558 150.58 110.961 150.35 111.293 150.044L113.301 151.284C112.505 152.222 111.384 152.876 110.111 153.07ZM112.122 148.688C112.191 148.438 112.229 148.176 112.229 147.905C112.229 147.624 112.189 147.352 112.114 147.095L114.124 145.854C114.393 146.484 114.542 147.177 114.542 147.905C114.542 148.623 114.397 149.308 114.135 149.931L112.122 148.688Z" fill="#98BDF4"/>
<path d="M158.372 88.5841H76.4785V86.0604C76.4785 84.9224 77.401 84 78.5389 84H154.089C154.761 84 155.391 84.3277 155.776 84.8782L158.372 88.5841Z" fill="#A8D29F"/>
<path d="M76.4785 87.0837V88.584H158.372L157.321 87.0837H76.4785Z" fill="#82B378"/>
<path d="M243.807 88.584H71.3983C68.4752 88.584 66.1055 90.9537 66.1055 93.8768V142.065C66.1055 143.364 67.0322 144.478 68.3093 144.715L82.8206 147.401H98.9417C98.9417 141.724 103.544 137.122 109.221 137.122C114.898 137.122 119.501 141.724 119.501 147.401H215.443C215.443 141.724 220.046 137.122 225.723 137.122C231.4 137.122 236.002 141.724 236.002 147.401H246.477C247.925 147.401 249.1 146.227 249.1 144.778V93.8768C249.1 90.9537 246.73 88.584 243.807 88.584Z" fill="#A8D29F"/>
<path d="M234.207 141.6C235.338 143.251 236 145.249 236 147.401H246.474C247.923 147.401 249.097 146.227 249.097 144.778C249.097 143.023 247.674 141.6 245.919 141.6H234.207Z" fill="#82B378"/>
<path d="M66.1055 141.6V142.065C66.1055 143.364 67.0322 144.478 68.3093 144.715L82.8206 147.401H98.9417C98.9417 145.249 99.6037 143.251 100.735 141.6L66.1055 141.6Z" fill="#82B378"/>
<path d="M117.705 141.6C118.836 143.251 119.498 145.249 119.498 147.401H215.44C215.44 145.249 216.102 143.251 217.233 141.6H117.705Z" fill="#82B378"/>
<path d="M67.3414 127.459H65V139.852H67.3414V127.459Z" fill="#B64C41"/>
<path d="M67.3414 124.099H65V126.441H67.3414V124.099Z" fill="#F1A34F"/>
<path d="M249.097 126.832H247.891V138.038H249.097V126.832Z" fill="#B64C41"/>
<path d="M129.006 121.526H178.633C179.58 121.526 180.347 120.759 180.347 119.812V97.3634C180.347 96.4172 179.58 95.6501 178.633 95.6501H129.006C128.06 95.6501 127.293 96.4172 127.293 97.3634V119.812C127.293 120.759 128.06 121.526 129.006 121.526Z" fill="#163560"/>
<path d="M211.547 121.526H229.811C230.757 121.526 231.524 120.759 231.524 119.812V97.3634C231.524 96.4172 230.757 95.6501 229.811 95.6501H211.547C210.601 95.6501 209.834 96.4172 209.834 97.3634V119.812C209.834 120.759 210.601 121.526 211.547 121.526Z" fill="#163560"/>
<path d="M244.654 121.526H249.096V97.3634C249.096 96.4172 248.329 95.6501 247.383 95.6501H234.94C233.994 95.6501 233.227 96.4172 233.227 97.3634V110.099C233.226 116.41 238.343 121.526 244.654 121.526Z" fill="#163560"/>
<path d="M129.006 121.526H178.633C179.58 121.526 180.347 120.759 180.347 119.812V97.3634C180.347 96.4172 179.58 95.6501 178.633 95.6501H129.006C128.06 95.6501 127.293 96.4172 127.293 97.3634V119.812C127.293 120.759 128.06 121.526 129.006 121.526Z" fill="#98BDF4"/>
<path d="M211.547 121.526H229.811C230.757 121.526 231.524 120.759 231.524 119.812V97.3634C231.524 96.4172 230.757 95.6501 229.811 95.6501H211.547C210.601 95.6501 209.834 96.4172 209.834 97.3634V119.812C209.834 120.759 210.601 121.526 211.547 121.526Z" fill="#98BDF4"/>
<path d="M244.654 121.526H249.096V97.3634C249.096 96.4172 248.329 95.6501 247.383 95.6501H234.94C233.994 95.6501 233.227 96.4172 233.227 97.3634V110.099C233.226 116.41 238.343 121.526 244.654 121.526Z" fill="#98BDF4"/>
<path d="M72.3304 121.526H121.958C122.904 121.526 123.671 120.759 123.671 119.812V97.3634C123.671 96.4172 122.904 95.6501 121.958 95.6501H72.3304C71.3842 95.6501 70.6172 96.4172 70.6172 97.3634V119.812C70.6172 120.759 71.3842 121.526 72.3304 121.526Z" fill="#163560"/>
<path d="M72.3304 121.526H121.958C122.904 121.526 123.671 120.759 123.671 119.812V97.3634C123.671 96.4172 122.904 95.6501 121.958 95.6501H72.3304C71.3842 95.6501 70.6172 96.4172 70.6172 97.3634V119.812C70.6172 120.759 71.3842 121.526 72.3304 121.526Z" fill="#98BDF4"/>
<path d="M206.687 95.6501H193.867H192.35H183.729C182.783 95.6501 182.016 96.4172 182.016 97.3634V147.401H192.35H193.867H208.4V97.3634C208.4 96.4172 207.633 95.6501 206.687 95.6501Z" fill="#98BDF4"/>
<mask id="mask0_7649_83091" style="mask-type:luminance" maskUnits="userSpaceOnUse" x="127" y="95" width="54" height="27">
<path d="M129.006 121.526H178.633C179.58 121.526 180.347 120.759 180.347 119.812V97.3634C180.347 96.4172 179.58 95.6501 178.633 95.6501H129.006C128.06 95.6501 127.293 96.4172 127.293 97.3634V119.812C127.293 120.759 128.06 121.526 129.006 121.526Z" fill="white"/>
</mask>
<g mask="url(#mask0_7649_83091)">
<path d="M128.435 135.699H121.111L153.362 78.874H160.686L128.435 135.699Z" fill="#D5E7F7"/>
</g>
<mask id="mask1_7649_83091" style="mask-type:luminance" maskUnits="userSpaceOnUse" x="127" y="95" width="54" height="27">
<path d="M129.006 121.526H178.633C179.58 121.526 180.347 120.759 180.347 119.812V97.3634C180.347 96.4172 179.58 95.6501 178.633 95.6501H129.006C128.06 95.6501 127.293 96.4172 127.293 97.3634V119.812C127.293 120.759 128.06 121.526 129.006 121.526Z" fill="white"/>
</mask>
<g mask="url(#mask1_7649_83091)">
<path d="M140.38 137H133.057L165.307 80.1753H172.631L140.38 137Z" fill="#D5E7F7"/>
</g>
<mask id="mask2_7649_83091" style="mask-type:luminance" maskUnits="userSpaceOnUse" x="127" y="95" width="54" height="27">
<path d="M129.006 121.526H178.633C179.58 121.526 180.347 120.759 180.347 119.812V97.3634C180.347 96.4172 179.58 95.6501 178.633 95.6501H129.006C128.06 95.6501 127.293 96.4172 127.293 97.3634V119.812C127.293 120.759 128.06 121.526 129.006 121.526Z" fill="white"/>
</mask>
<g mask="url(#mask2_7649_83091)">
<path d="M161.923 138.157H154.6L186.85 81.3318H194.174L161.923 138.157Z" fill="#D5E7F7"/>
</g>
<mask id="mask3_7649_83091" style="mask-type:luminance" maskUnits="userSpaceOnUse" x="127" y="95" width="54" height="27">
<path d="M129.006 121.526H178.633C179.58 121.526 180.347 120.759 180.347 119.812V97.3634C180.347 96.4172 179.58 95.6501 178.633 95.6501H129.006C128.06 95.6501 127.293 96.4172 127.293 97.3634V119.812C127.293 120.759 128.06 121.526 129.006 121.526Z" fill="white"/>
</mask>
<g mask="url(#mask3_7649_83091)">
<path d="M144.925 138.038H142.994L175.245 81.2131H177.176L144.925 138.038Z" fill="#D5E7F7"/>
</g>
<mask id="mask4_7649_83091" style="mask-type:luminance" maskUnits="userSpaceOnUse" x="209" y="95" width="23" height="27">
<path d="M211.547 121.526H229.811C230.757 121.526 231.524 120.759 231.524 119.812V97.3634C231.524 96.4172 230.757 95.6501 229.811 95.6501H211.547C210.601 95.6501 209.834 96.4172 209.834 97.3634V119.812C209.834 120.759 210.601 121.526 211.547 121.526Z" fill="white"/>
</mask>
<g mask="url(#mask4_7649_83091)">
<path d="M212.302 132.772H204.979L237.229 75.9473H244.553L212.302 132.772Z" fill="#D5E7F7"/>
</g>
<mask id="mask5_7649_83091" style="mask-type:luminance" maskUnits="userSpaceOnUse" x="209" y="95" width="23" height="27">
<path d="M211.547 121.526H229.811C230.757 121.526 231.524 120.759 231.524 119.812V97.3634C231.524 96.4172 230.757 95.6501 229.811 95.6501H211.547C210.601 95.6501 209.834 96.4172 209.834 97.3634V119.812C209.834 120.759 210.601 121.526 211.547 121.526Z" fill="white"/>
</mask>
<g mask="url(#mask5_7649_83091)">
<path d="M216.847 133.81H214.916L247.166 76.9851H249.098L216.847 133.81Z" fill="#D5E7F7"/>
</g>
<mask id="mask6_7649_83091" style="mask-type:luminance" maskUnits="userSpaceOnUse" x="233" y="95" width="17" height="27">
<path d="M244.654 121.526H249.096V97.3634C249.096 96.4172 248.329 95.6501 247.383 95.6501H234.94C233.994 95.6501 233.227 96.4172 233.227 97.3634V110.099C233.226 116.41 238.343 121.526 244.654 121.526Z" fill="white"/>
</mask>
<g mask="url(#mask6_7649_83091)">
<path d="M229.818 131.735H226.156L258.407 74.9097H262.069L229.818 131.735Z" fill="#D5E7F7"/>
</g>
<mask id="mask7_7649_83091" style="mask-type:luminance" maskUnits="userSpaceOnUse" x="233" y="95" width="17" height="27">
<path d="M244.654 121.526H249.096V97.3634C249.096 96.4172 248.329 95.6501 247.383 95.6501H234.94C233.994 95.6501 233.227 96.4172 233.227 97.3634V110.099C233.226 116.41 238.343 121.526 244.654 121.526Z" fill="white"/>
</mask>
<g mask="url(#mask7_7649_83091)">
<path d="M234.361 132.772H232.43L264.68 75.9473H266.611L234.361 132.772Z" fill="#D5E7F7"/>
</g>
<mask id="mask8_7649_83091" style="mask-type:luminance" maskUnits="userSpaceOnUse" x="70" y="95" width="54" height="27">
<path d="M72.3304 121.526H121.958C122.904 121.526 123.671 120.759 123.671 119.812V97.3634C123.671 96.4172 122.904 95.6501 121.958 95.6501H72.3304C71.3842 95.6501 70.6172 96.4172 70.6172 97.3634V119.812C70.6172 120.759 71.3842 121.526 72.3304 121.526Z" fill="white"/>
</mask>
<g mask="url(#mask8_7649_83091)">
<path d="M70.9546 135.1H63.6309L95.8813 78.2747H103.205L70.9546 135.1Z" fill="#D5E7F7"/>
</g>
<mask id="mask9_7649_83091" style="mask-type:luminance" maskUnits="userSpaceOnUse" x="70" y="95" width="54" height="27">
<path d="M72.3304 121.526H121.958C122.904 121.526 123.671 120.759 123.671 119.812V97.3634C123.671 96.4172 122.904 95.6501 121.958 95.6501H72.3304C71.3842 95.6501 70.6172 96.4172 70.6172 97.3634V119.812C70.6172 120.759 71.3842 121.526 72.3304 121.526Z" fill="white"/>
</mask>
<g mask="url(#mask9_7649_83091)">
<path d="M96.2241 135.1H88.9004L121.151 78.2747H128.475L96.2241 135.1Z" fill="#D5E7F7"/>
</g>
<mask id="mask10_7649_83091" style="mask-type:luminance" maskUnits="userSpaceOnUse" x="70" y="95" width="54" height="27">
<path d="M72.3304 121.526H121.958C122.904 121.526 123.671 120.759 123.671 119.812V97.3634C123.671 96.4172 122.904 95.6501 121.958 95.6501H72.3304C71.3842 95.6501 70.6172 96.4172 70.6172 97.3634V119.812C70.6172 120.759 71.3842 121.526 72.3304 121.526Z" fill="white"/>
</mask>
<g mask="url(#mask10_7649_83091)">
<path d="M75.1529 135.1H73.2246L105.475 78.2747H107.403L75.1529 135.1Z" fill="#D5E7F7"/>
</g>
<mask id="mask11_7649_83091" style="mask-type:luminance" maskUnits="userSpaceOnUse" x="182" y="95" width="27" height="53">
<path d="M206.687 95.6501H193.867H192.35H183.729C182.783 95.6501 182.016 96.4172 182.016 97.3634V147.401H192.35H193.867H208.4V97.3634C208.4 96.4172 207.633 95.6501 206.687 95.6501Z" fill="white"/>
</mask>
<g mask="url(#mask11_7649_83091)">
<path d="M172.646 148.998H165.322L197.573 92.1731H204.897L172.646 148.998Z" fill="#D5E6FE"/>
</g>
<mask id="mask12_7649_83091" style="mask-type:luminance" maskUnits="userSpaceOnUse" x="182" y="95" width="27" height="53">
<path d="M206.687 95.6501H193.867H192.35H183.729C182.783 95.6501 182.016 96.4172 182.016 97.3634V147.401H192.35H193.867H208.4V97.3634C208.4 96.4172 207.633 95.6501 206.687 95.6501Z" fill="white"/>
</mask>
<g mask="url(#mask12_7649_83091)">
<path d="M177.191 150.035H175.26L207.51 93.2104H209.441L177.191 150.035Z" fill="#D5E6FE"/>
</g>
<mask id="mask13_7649_83091" style="mask-type:luminance" maskUnits="userSpaceOnUse" x="182" y="95" width="27" height="53">
<path d="M206.687 95.6501H193.867H192.35H183.729C182.783 95.6501 182.016 96.4172 182.016 97.3634V147.401H192.35H193.867H208.4V97.3634C208.4 96.4172 207.633 95.6501 206.687 95.6501Z" fill="white"/>
</mask>
<g mask="url(#mask13_7649_83091)">
<path d="M190.16 147.96H186.498L218.749 91.135H222.41L190.16 147.96Z" fill="#D5E6FE"/>
</g>
<path d="M195.892 95.6501H194.479V147.401H195.892V95.6501Z" fill="#163560"/>
<path d="M121.956 121.954H72.3291C71.1482 121.954 70.1875 120.993 70.1875 119.812V97.3635C70.1875 96.1826 71.1482 95.2219 72.3291 95.2219H121.956C123.137 95.2219 124.098 96.1826 124.098 97.3635V119.812C124.098 120.993 123.137 121.954 121.956 121.954ZM72.3291 96.0786C71.6206 96.0786 71.0441 96.6549 71.0441 97.3635V119.812C71.0441 120.521 71.6206 121.097 72.3291 121.097H121.956C122.665 121.097 123.241 120.521 123.241 119.812V97.3635C123.241 96.6549 122.665 96.0786 121.956 96.0786H72.3291Z" fill="#163560"/>
<path d="M178.632 121.954H129.005C127.824 121.954 126.863 120.993 126.863 119.812V97.3635C126.863 96.1826 127.824 95.2219 129.005 95.2219H178.632C179.813 95.2219 180.774 96.1826 180.774 97.3635V119.812C180.774 120.993 179.813 121.954 178.632 121.954ZM129.005 96.0786C128.296 96.0786 127.72 96.6549 127.72 97.3635V119.812C127.72 120.521 128.296 121.097 129.005 121.097H178.632C179.34 121.097 179.917 120.521 179.917 119.812V97.3635C179.917 96.6549 179.34 96.0786 178.632 96.0786H129.005Z" fill="#163560"/>
<path d="M208.829 147.829H181.588V97.3635C181.588 96.1826 182.549 95.2219 183.729 95.2219H206.687C207.868 95.2219 208.829 96.1826 208.829 97.3635V147.829ZM182.445 146.973H207.972V97.3635C207.972 96.6549 207.396 96.0786 206.687 96.0786H183.729C183.021 96.0786 182.445 96.6549 182.445 97.3635V146.973Z" fill="#163560"/>
<path d="M229.809 121.954H211.546C210.365 121.954 209.404 120.993 209.404 119.812V97.3635C209.404 96.1826 210.365 95.2219 211.546 95.2219H229.809C230.99 95.2219 231.951 96.1826 231.951 97.3635V119.812C231.951 120.993 230.99 121.954 229.809 121.954ZM211.546 96.0786C210.837 96.0786 210.261 96.6549 210.261 97.3635V119.812C210.261 120.521 210.837 121.097 211.546 121.097H229.809C230.518 121.097 231.094 120.521 231.094 119.812V97.3635C231.094 96.6549 230.518 96.0786 229.809 96.0786H211.546Z" fill="#163560"/>
<path d="M248.605 121.954H244.654C238.117 121.954 232.799 116.636 232.799 110.099V97.3635C232.799 96.1826 233.76 95.2219 234.94 95.2219H247.384C248.565 95.2219 249.525 96.1826 249.525 97.3635V121.034C249.525 121.541 249.113 121.954 248.605 121.954ZM234.94 96.0786C234.232 96.0786 233.655 96.6549 233.655 97.3635V110.099C233.655 116.163 238.589 121.097 244.654 121.097H248.605C248.64 121.097 248.669 121.069 248.669 121.034V97.3636C248.669 96.655 248.092 96.0786 247.384 96.0786L234.94 96.0786Z" fill="#163560"/>
<path d="M211.355 147.401H179.018V148.932H211.355V147.401Z" fill="#A8D29F"/>
<path d="M212.77 148.932H177.605V150.464H212.77V148.932Z" fill="#82B378"/>
<path d="M253.173 111.812C252.164 111.812 251.346 110.994 251.346 109.984V95.0218C251.346 94.0125 252.164 93.1943 253.173 93.1943C254.182 93.1943 255.001 94.0125 255.001 95.0218V109.984C255.001 110.993 254.182 111.812 253.173 111.812Z" fill="#A8D29F"/>
<path d="M252.396 94.3865H235.206C234.547 94.3865 234.014 93.8528 234.014 93.1944C234.014 92.536 234.547 92.0022 235.206 92.0022H252.396C253.054 92.0022 253.588 92.536 253.588 93.1944C253.588 93.8528 253.054 94.3865 252.396 94.3865Z" fill="#82B378"/>
<path d="M178.038 128.962C178.038 128.962 178.446 129.427 178.208 129.717C177.97 130.006 177.545 130.255 177.145 129.978C176.745 129.701 176.637 128.67 176.868 128.67C177.099 128.67 178.038 128.962 178.038 128.962Z" fill="#CB8757"/>
<path d="M177.25 124.574C177.25 124.574 178.421 128.392 178.174 128.947C177.928 129.501 177.131 129.399 176.683 128.742C176.234 128.084 177.25 124.574 177.25 124.574Z" fill="#AA413E"/>
<path d="M174.197 116.052C174.197 116.052 176.001 116.379 176.67 117.048C177.339 117.717 178.918 119.691 177.925 126.271C177.925 126.271 177.845 128.254 175.615 128.446C173.385 128.637 174.197 116.052 174.197 116.052Z" fill="#B64C41"/>
<path d="M175.198 115.882C175.164 115.537 175.176 115.234 175.193 115.039V115.039C175.205 114.898 175.219 114.814 175.219 114.814L175.193 114.806L173.026 114.145L172.973 114.129C172.941 114.835 172.9 115.357 172.856 115.745C172.807 116.185 172.755 116.452 172.711 116.613H175.346C175.266 116.365 175.221 116.114 175.198 115.882Z" fill="#D9935C"/>
<path d="M176.04 111.367C176.04 111.367 175.791 107.818 171.182 109.162C170.137 109.467 170.273 112.624 172.805 113.826L176.04 111.367Z" fill="#0F429F"/>
<path d="M170.053 132.417C170.363 134.576 172.444 140.189 172.384 142.129C172.336 143.658 172.361 147.189 172.563 149.535C172.618 150.174 172.684 150.721 172.767 151.12C172.946 151.985 173.176 152.981 173.3 153.609C173.575 155.02 173.431 155.842 173.655 156.599C173.902 157.426 176.74 157.275 175.885 156.773C175.58 156.594 175.136 156.213 174.917 155.721C174.119 153.935 175.237 146.233 175.57 143.264C175.613 142.893 175.643 142.598 175.656 142.397C175.767 140.563 177.026 128.345 177.026 128.345C173.968 126.645 169.745 130.258 170.053 132.417Z" fill="#D9935C"/>
<path d="M170.053 132.417C170.363 134.577 172.444 140.189 172.384 142.129C172.336 143.658 172.361 147.19 172.563 149.536L175.57 143.265C175.613 142.894 175.643 142.599 175.656 142.397C175.767 140.563 177.057 128.341 177.057 128.341C174 126.64 169.745 130.258 170.053 132.417Z" fill="#CB8757"/>
<path d="M176.684 128.742C176.684 128.742 174.058 140.812 173.76 142.624C173.462 144.436 171.07 152.969 171.592 155.107C171.899 156.369 172.435 156.742 172.435 156.742C172.561 156.973 170.484 157.432 170.317 156.547C170.104 155.424 170.059 153.846 169.747 151.172C169.21 146.569 170.275 143.949 170.533 142.024C170.792 140.1 169.666 133.984 170.291 131.894C171.384 128.236 173.819 126.737 176.684 128.742Z" fill="#D9935C"/>
<path d="M169.677 139.833C169.677 139.833 170.36 139.939 171.367 140.01L171.914 137.815L172.106 140.05C173.723 140.116 175.834 140.035 177.391 139.392L177.055 128.34C177.055 128.34 174.801 128.935 172.089 127.893C172.089 127.893 168.563 130.647 169.677 139.833Z" fill="#B64C41"/>
<path d="M169.299 154.9C169.424 155.608 169.449 156.883 169.454 157.207H169.676L169.697 155.526C169.712 155.546 169.728 155.564 169.741 155.58C169.94 155.801 170.202 156.881 170.395 157.207H172.858C172.884 157.136 172.865 157.066 172.824 157.002V157.001C172.712 156.824 172.432 156.688 172.432 156.688C172.432 156.688 171.644 156.81 170.86 156.613C170.531 156.53 169.975 153.609 169.975 153.609C169.975 153.609 169.2 154.081 169.114 154.296C169.072 154.4 169.166 154.646 169.299 154.9Z" fill="#AA413E"/>
<path d="M172.696 155.036C172.785 155.646 172.815 156.548 172.825 157.002V157.002C172.827 157.088 172.828 157.158 172.829 157.207H173.051L173.071 155.589C173.269 155.828 173.527 156.885 173.717 157.207H176.181C176.274 156.941 175.754 156.688 175.754 156.688C175.754 156.688 174.966 156.81 174.182 156.613C173.853 156.53 173.297 153.609 173.297 153.609C173.297 153.609 172.522 154.081 172.436 154.296C172.387 154.419 172.527 154.739 172.696 155.036Z" fill="#AA413E"/>
<path d="M171.9 128.069C171.9 128.069 173.971 129.498 177.098 128.452C177.098 128.452 178.166 124.797 177.83 121.278C177.604 118.917 176.264 117.058 175.269 116.326C175.112 116.466 174.836 116.706 172.794 116.21C172.794 116.21 171.857 116.603 171.691 116.965C171.335 117.738 172.529 126.533 171.9 128.069Z" fill="#E7F0FD"/>
<path d="M171.031 129.224C171.954 129.413 172.665 128.762 173.758 128.449C174.121 128.346 174.441 128.217 174.683 128.068C175.66 127.468 176.134 123.023 175.965 121.341C175.798 119.661 172.792 116.21 172.792 116.21C172.099 116.725 171.969 117.922 171.553 119.494C170.551 123.275 171.031 129.224 171.031 129.224Z" fill="#B64C41"/>
<path d="M171.031 129.224C171.954 129.413 172.971 129.07 173.758 128.449C174.159 127.879 174.479 127.183 174.651 126.333C175.147 123.881 173.187 121.219 171.553 119.494C170.551 123.275 171.031 129.224 171.031 129.224Z" fill="#AA413E"/>
<path d="M173.023 114.146C173.27 114.559 174.05 115.704 175.195 115.882C175.161 115.537 175.174 115.234 175.19 115.039V115.039C175.202 114.897 175.217 114.814 175.217 114.814L175.19 114.806L173.023 114.146Z" fill="#CB7D45"/>
<path d="M175.806 114.967C175.806 114.967 173.116 115.507 172.806 113.827C172.495 112.146 171.939 111.084 173.643 110.668C175.347 110.253 175.8 110.832 176.04 111.367C176.28 111.903 176.498 114.783 175.806 114.967Z" fill="#D9935C"/>
<path d="M171.87 110.922C172.769 109.792 173.897 109.942 174.488 110.13C174.606 110.11 174.772 110.097 175 110.091C176.756 110.05 176.271 112.079 176.271 112.079C176.207 110.799 175.099 110.663 175.099 110.663C175.099 110.663 175.085 110.659 175.061 110.652C175.159 111.008 175.124 111.579 174.264 112.119C172.877 112.991 172.983 114.733 173.352 115.223C173.352 115.223 170.59 112.528 171.87 110.922Z" fill="#0F429F"/>
<path d="M176.967 131.225C177.186 130.299 177.433 129.817 177.723 129.75C177.806 129.731 177.89 129.749 177.965 129.804C178.191 129.964 178.381 130.458 178.548 131.312C178.668 131.925 178.728 132.503 178.729 132.509L178.545 132.528C178.544 132.522 178.485 131.952 178.366 131.347C178.163 130.306 177.961 130.027 177.858 129.954C177.815 129.923 177.784 129.925 177.765 129.93C177.373 130.02 177.034 131.592 176.912 132.561L176.729 132.538C176.729 132.532 176.812 131.883 176.967 131.225Z" fill="#233862"/>
<path d="M174.814 135.895L175.216 133.227C175.301 132.661 175.788 132.242 176.361 132.242H179.21C179.467 132.242 179.676 132.45 179.676 132.707V135.964C179.676 136.221 179.467 136.43 179.21 136.43H175.275C174.99 136.43 174.771 136.176 174.814 135.895Z" fill="#233862"/>
<path d="M176.756 132.242H179.264C179.504 132.242 179.709 132.411 179.755 132.646L180.376 135.834C180.436 136.143 180.2 136.43 179.885 136.43H177.201C176.952 136.43 176.741 136.246 176.706 135.999L176.261 132.811C176.219 132.51 176.452 132.242 176.756 132.242Z" fill="#0F429F"/>
<path d="M176.737 129.461C176.737 129.461 177.9 129.766 177.968 130.006C178.037 130.247 177.638 130.93 176.98 130.771C176.322 130.612 175.797 129.828 175.797 129.828L176.737 129.461Z" fill="#DA935B"/>
<path d="M172.794 116.21C172.794 116.21 171.079 116.433 170.26 118.136C169.44 119.838 170.965 125.919 171.186 126.329C171.407 126.739 173.968 130.018 176.144 130.302C176.144 130.302 177.068 129.975 177.037 129.439C177.037 129.439 173.471 125.91 173.218 125.406C172.966 124.901 173.318 119.365 173.287 118.64C173.255 117.915 172.794 116.21 172.794 116.21Z" fill="#B64C41"/>
<path d="M145.557 154.494C145.729 155.073 146.524 155.46 146.631 156.169C146.715 156.719 146.992 157.075 147.292 157.207H149.424C149.475 157.072 149.539 156.735 148.996 156.616C148.308 156.465 148.049 155.632 148.092 154.859C148.11 154.534 148.102 154.165 148.086 153.845C148.064 153.402 148.028 153.055 148.028 153.055L146.567 152.711L146.414 152.908L146.266 153.097C146.266 153.097 145.385 153.914 145.557 154.494Z" fill="#233862"/>
<path d="M157.2 157.207H162.216C162.157 157.025 161.98 156.74 161.451 156.655C160.681 156.53 159.346 156.082 159.049 155.098C159.039 155.066 159.031 155.034 159.024 155.001C158.787 153.948 157.069 155.323 157.069 155.323C157.069 155.323 157.064 155.365 157.057 155.436C157.019 155.804 156.924 156.962 157.2 157.207Z" fill="#233862"/>
<path d="M161.248 129.081C161.248 129.081 160.987 132.337 160.68 136.252C160.263 141.569 159.762 148.1 159.712 149.338C159.626 151.486 159.282 154.923 159.282 154.923C159.282 154.923 158.466 155.74 156.833 155.396C156.833 155.396 155.378 150.489 154.962 145.298C154.956 145.213 154.949 145.128 154.943 145.042C154.556 139.757 153.955 128.63 153.955 128.63L161.248 129.081Z" fill="#0F429F"/>
<path d="M161.248 129.081C161.248 129.081 160.987 132.337 160.68 136.252L154.962 145.298C154.956 145.213 154.949 145.128 154.943 145.042C154.556 139.757 153.955 128.63 153.955 128.63L161.248 129.081Z" fill="#233862"/>
<path d="M160.055 129.468C160.055 129.468 155.35 141.261 152.257 146.803C149.164 152.345 148.197 153.892 148.197 153.892C148.197 153.892 146.425 153.183 146.264 152.7C146.264 152.7 147.447 142 149.518 139.392C150.689 137.918 152.064 133.496 152.128 131.949C152.193 130.402 152.547 127.341 152.547 127.341L160.055 129.468Z" fill="#0F429F"/>
<path d="M164.812 126.212L165.081 126.748C165.081 126.748 166.448 126.939 166.072 128.364C166.072 128.364 165.869 128.951 165.492 128.765C165.115 128.58 165.301 128.595 164.76 128.346C164.22 128.096 163.907 127.616 164.028 127.176L163.941 126.709L164.812 126.212Z" fill="#AB7041"/>
<path d="M157.643 111.263C157.852 110.028 157.858 109.296 157.858 109.296L155.472 107.373C155.56 110.018 153.865 111.29 153.865 111.29C153.865 111.29 157.046 112.855 158.885 112.276C158.885 112.276 158.432 111.697 157.643 111.263Z" fill="#9C5F33"/>
<path d="M158.419 109.253C158.419 109.253 155.383 109.757 155.098 107.861C154.813 105.966 154.229 104.754 156.155 104.352C158.082 103.949 158.568 104.616 158.817 105.226C159.067 105.835 159.202 109.073 158.419 109.253Z" fill="#AB7041"/>
<path d="M155.118 107.992C155.118 107.992 155.18 105.453 157.946 105.045C159.842 104.766 158.694 103.182 158.477 102.932C158.477 102.932 157.028 103.208 155.546 103.534C152.434 104.217 154.79 107.615 155.118 107.992Z" fill="#233862"/>
<path d="M164.495 126.957C164.901 126.54 165.202 125.998 165.202 125.998C165.202 125.998 161.752 121.712 161.471 121.267C161.191 120.823 159.096 113.693 159.096 113.693L153.797 112.619C153.797 112.619 158.22 121.744 158.952 122.856C160.163 124.695 163.785 127.431 163.785 127.431C163.785 127.431 164.176 127.284 164.495 126.957Z" fill="#74ACBE"/>
<path d="M161.449 129.352C161.393 129.398 161.329 129.426 161.256 129.426C160.565 129.416 158.552 129.8 156.849 129.625C155.413 129.487 154.142 129.062 152.777 128.45C152.595 128.368 152.178 128.146 152.188 127.943C152.194 127.721 152.216 127.4 152.243 126.995C152.34 125.586 152.508 123.162 152.344 120.367C152.315 119.846 152.299 119.33 152.297 118.821C152.283 115.033 153.027 111.647 154.537 110.52C154.666 110.427 155.465 110.867 156.192 111.225C156.864 111.557 157.536 111.594 158.171 111.465L158.806 112.026C159.58 112.744 160.427 113.72 160.795 115.202C161.108 116.463 161.292 118.738 161.393 121.094C161.439 122.162 161.476 123.239 161.486 124.261V124.298C161.495 124.399 161.495 124.51 161.495 124.611C161.532 127.235 161.495 129.315 161.449 129.352Z" fill="#9ED9F0"/>
<path d="M152.244 126.995C152.341 125.586 152.509 123.163 152.345 120.367C152.315 119.846 152.3 119.33 152.298 118.822C152.927 117.296 153.441 116.19 153.441 116.19H155.026C155.026 116.19 156.188 124.128 152.244 126.995Z" fill="#74ACBE"/>
<path d="M139.953 134.281L141.184 130.321C141.554 129.132 142.829 128.461 144.018 128.831L153.156 131.671C154.345 132.04 155.016 133.316 154.646 134.505L153.415 138.465C153.046 139.654 151.77 140.325 150.581 139.955L141.443 137.115C140.254 136.745 139.584 135.47 139.953 134.281Z" fill="#D86713"/>
<path d="M138.733 133.95L139.978 129.944C140.349 128.75 141.629 128.077 142.822 128.448L145.963 129.424L146.228 128.57C146.351 128.175 146.772 127.954 147.168 128.076L147.347 128.131L148.981 128.639L149.897 128.924C150.087 128.984 150.244 129.114 150.337 129.292C150.43 129.47 150.45 129.673 150.39 129.863L150.125 130.717L151.944 131.283C152.014 131.305 152.082 131.329 152.148 131.358C152.149 131.358 152.149 131.358 152.15 131.358C152.151 131.358 152.151 131.359 152.152 131.359C152.154 131.36 152.158 131.362 152.161 131.363C153.217 131.813 153.788 133.008 153.44 134.128L152.195 138.134C151.874 139.166 150.872 139.809 149.835 139.723C149.834 139.723 149.834 139.723 149.834 139.723C149.673 139.71 149.511 139.679 149.35 139.63L149.346 139.628L140.229 136.794C139.035 136.424 138.362 135.144 138.733 133.95ZM149.676 130.578L149.941 129.724C149.988 129.577 149.904 129.419 149.757 129.374L148.868 129.097L147.347 128.624L147.028 128.525C147.001 128.517 146.972 128.512 146.945 128.512C146.826 128.512 146.715 128.59 146.678 128.71L146.412 129.564L149.676 130.578Z" fill="#F1A34F"/>
<path d="M149.162 127.488L148.861 128.007C148.861 128.007 149.45 129.255 148.052 129.722C148.052 129.722 147.45 129.873 147.398 129.456C147.347 129.039 147.436 129.203 147.348 128.614C147.261 128.025 147.491 127.501 147.925 127.361L148.268 127.032L149.162 127.488Z" fill="#AB7041"/>
<path d="M148.363 127.63C148.934 127.741 149.552 127.696 149.552 127.696C149.552 127.696 151.247 122.461 151.465 121.983C151.683 121.505 156.499 115.845 156.499 115.845L154.493 110.824C154.493 110.824 149.284 119.524 148.755 120.747C147.882 122.767 147.578 127.296 147.578 127.296C147.578 127.296 147.915 127.543 148.363 127.63Z" fill="#9ED9F0"/>
</svg>
