<svg width="320" height="158" viewBox="0 0 320 158" fill="none" xmlns="http://www.w3.org/2000/svg">
<path d="M290.5 157.574C293.094 152.993 306.489 142.108 308.809 130.841C315.846 96.2647 301.427 68.3663 273.403 51.8352C259.584 43.669 246.83 42.5435 235.774 43.5639C223.206 44.7237 212.832 48.6621 205.583 48.1882C195.293 47.514 189.421 33.8958 174.355 21.3227C165.531 13.9628 153.552 6.98165 135.685 3.22106C113.87 -1.37342 84.8711 -1.77406 64.3086 6.81384C56.2167 10.1912 49.5072 14.9425 45.1453 21.3229C33.9248 37.725 41.8351 59.3036 51.9516 76.4622C66.2897 100.78 47.527 105.018 30.5727 114.662C17.7015 121.985 21.9984 132.852 26.5 157.574H290.5Z" fill="#D5E6FE"/>
<path d="M319.638 158H0.362535C0.163141 158 0 157.836 0 157.636V157.512C0 157.312 0.163141 157.148 0.362535 157.148H319.637C319.837 157.148 320 157.312 320 157.512V157.636C320 157.836 319.837 158 319.638 158Z" fill="#8692C2"/>
<path d="M314 98.3219V110.553C313.981 110.767 313.964 110.98 313.944 111.196C313.922 111.456 313.897 111.718 313.871 111.98C313.763 113.088 313.635 114.221 313.486 115.374C313.456 115.607 313.424 115.839 313.392 116.072C313.242 117.187 313.072 118.323 312.88 119.467C312.842 119.7 312.801 119.938 312.76 120.173C312.566 121.298 312.355 122.43 312.122 123.566C312.074 123.805 312.023 124.043 311.973 124.281C311.786 125.177 311.583 126.074 311.373 126.969C311.26 127.441 311.144 127.911 311.028 128.38C310.742 129.519 310.435 130.652 310.111 131.774C310.043 132.008 309.974 132.24 309.904 132.475C309.562 133.619 309.202 134.751 308.819 135.865C308.739 136.101 308.657 136.337 308.573 136.573C308.236 137.524 307.884 138.461 307.518 139.378C307.317 139.881 307.111 140.378 306.902 140.87C306.402 142.036 305.874 143.17 305.321 144.26C305.201 144.498 305.079 144.734 304.957 144.967C304.328 146.156 303.668 147.289 302.974 148.355C302.827 148.581 302.679 148.804 302.526 149.025C301.685 150.259 300.794 151.395 299.853 152.409C299.551 152.736 299.244 153.052 298.931 153.352C297.423 154.808 295.797 155.959 294.05 156.729C293.922 156.785 293.794 156.84 293.665 156.892C293.632 156.906 293.6 156.919 293.568 156.932L193.276 157L174.667 156.887L137.846 156.667L26.5 157C26.5 157 6 143.791 6 122.6C6 122.308 6.00371 122.017 6.01123 121.722C6.31573 110.396 9.35028 88.8091 35.4442 77.6031V87.8013H41.4339V75.3567C43.3302 74.7393 45.3272 74.1718 47.4323 73.658C50.1079 73.0053 52.9536 72.4404 55.9832 71.9751C56.2802 71.9279 56.5797 71.8834 56.8804 71.8401C58.3281 71.6291 59.715 71.3801 61.0446 71.0931V86.2416H67.6644V82.703L75.4722 82.7344V77.0003H77.0442V75.8653H77.2516V77.0003H83.2798V77.0016H84.4865V75.8653H84.6941V77.0016H86.148V88.4056H95.4433V92.6024H100.609V90.1646H105.401V80.4894H107.789V75.9755H108.151V80.4894H113.879V72.0305H114.44V80.4894H118.229V80.3727H118.223V79.2993H118.229V78.2822H118.223V76.5928H118.229V75.5115H118.223V73.8221H118.229V72.7421H118.223V71.0513H118.229V69.8848H118.223V68.1941H118.229V66.709H118.223V65.0182H118.229V63.8976H119.357V62.6328H119.539V63.8976H127.902V62.6328H128.082V63.8976H129.608V72.7419L130.683 72.7484V72.7419H130.675V71.0511H130.683V69.8846H130.675V68.1939H130.683V67.0312H130.675V65.3407H130.683V65.3355H140.825V65.3407H142.568C142.659 65.3865 142.749 65.4298 142.839 65.4757V75.1273H150.253V87.8013H156.242V64.3629H157.545V62.7233H157.779V64.3629H162.509V62.7233H162.743V64.3629H169.44V62.7233H169.675V64.3629H173.889V62.7233H174.123V64.3629H175.855V86.2416H182.474V82.703L190.281 82.7344V77.0003H191.853V75.8653H192.061V77.0003H198.089V77.0016H199.293V75.8653H199.502V77.0016H200.956V88.4056H210.252V92.6024H215.418V90.1646H220.21V80.4894H222.599V75.9755H222.96V80.4894H228.688V72.0305H229.249V80.4894H233.038V80.3727H233.032V79.2993H233.038V78.2822H233.032V76.5928H233.038V75.5115H233.032V73.8221H233.038V72.7421H233.032V71.0513H233.038V69.8848H233.032V68.1941H233.038V66.709H233.032V65.0182H233.038V63.8976H234.168V62.6328H234.348V63.8976H242.71V62.6328H242.891V63.8976H244.417V72.7419L245.477 72.7484H245.492V72.7419H245.484V71.0511H245.492V69.8846H245.484V68.1939H245.492V67.0312H245.484V65.3407H245.492V65.3355H255.634V65.3407H257.376C257.467 65.3865 257.556 65.4298 257.647 65.4757V75.1273H270.091V87.8026H276.081V64.3629H277.383V62.7233H277.618V64.3629H282.348V62.7233H282.581V64.3629H289.279V62.7233H289.513V64.3629H295.693V86.2429H302.313V82.7029L310.121 82.7342V81.2899C310.225 81.6255 310.328 81.9637 310.429 82.3018C310.5 82.5377 310.57 82.7788 310.641 83.0174C310.701 83.2244 310.759 83.4314 310.819 83.6373C311.054 84.4683 311.28 85.3032 311.496 86.1407C311.52 86.231 311.544 86.3228 311.567 86.4158C311.627 86.6518 311.686 86.8877 311.746 87.1236C312.025 88.2521 312.29 89.3845 312.538 90.5209C312.589 90.7542 312.638 90.9888 312.689 91.2221C312.929 92.3532 313.155 93.4869 313.366 94.6206C313.411 94.8565 313.455 95.0924 313.498 95.3284C313.626 96.0257 313.748 96.7216 313.866 97.4163C313.914 97.7046 313.959 98.0075 314 98.3219Z" fill="#BEDAFF"/>
<path d="M175.858 64.3625H160.895V68.0713H175.858V64.3625Z" fill="#E2EEFD"/>
<path d="M175.858 70.071H160.895V73.7798H175.858V70.071Z" fill="#E2EEFD"/>
<path d="M175.858 75.8989H160.895V79.6077H175.858V75.8989Z" fill="#E2EEFD"/>
<path d="M175.858 81.8188H160.895V85.5276H175.858V81.8188Z" fill="#E2EEFD"/>
<path d="M175.858 87.531H160.895V91.2397H175.858V87.531Z" fill="#E2EEFD"/>
<path d="M240.042 63.8984H233.061V66.1507H240.042V63.8984Z" fill="#E2EEFD"/>
<path d="M240.042 67.3645H233.061V69.6168H240.042V67.3645Z" fill="#E2EEFD"/>
<path d="M240.042 70.9043H233.061V73.1566H240.042V70.9043Z" fill="#E2EEFD"/>
<path d="M240.042 74.4995H233.061V76.7518H240.042V74.4995Z" fill="#E2EEFD"/>
<path d="M240.042 77.969H233.061V80.2213H240.042V77.969Z" fill="#E2EEFD"/>
<path d="M240.042 81.7871H233.061V84.0394H240.042V81.7871Z" fill="#E2EEFD"/>
<path d="M240.042 85.2539H233.061V87.5062H240.042V85.2539Z" fill="#E2EEFD"/>
<path d="M240.042 88.7927H233.061V91.0451H240.042V88.7927Z" fill="#E2EEFD"/>
<path d="M240.042 92.3884H233.061V94.6407H240.042V92.3884Z" fill="#E2EEFD"/>
<path d="M240.042 95.8572H233.061V98.1095H240.042V95.8572Z" fill="#E2EEFD"/>
<path d="M252.96 65.375H245.479V67.6273H252.96V65.375Z" fill="#E2EEFD"/>
<path d="M252.96 68.842H245.479V71.0943H252.96V68.842Z" fill="#E2EEFD"/>
<path d="M252.96 72.3809H245.479V74.6332H252.96V72.3809Z" fill="#E2EEFD"/>
<path d="M252.96 75.9761H245.479V78.2284H252.96V75.9761Z" fill="#E2EEFD"/>
<path d="M252.96 79.4456H245.479V81.6979H252.96V79.4456Z" fill="#E2EEFD"/>
<path d="M252.96 83.063H245.479V85.3153H252.96V83.063Z" fill="#E2EEFD"/>
<path d="M252.96 86.5291H245.479V88.7814H252.96V86.5291Z" fill="#E2EEFD"/>
<path d="M252.96 90.0686H245.479V92.3209H252.96V90.0686Z" fill="#E2EEFD"/>
<path d="M252.96 93.6643H245.479V95.9167H252.96V93.6643Z" fill="#E2EEFD"/>
<path d="M252.96 97.1331H245.479V99.3854H252.96V97.1331Z" fill="#E2EEFD"/>
<path d="M252.96 101.112H245.479V103.364H252.96V101.112Z" fill="#E2EEFD"/>
<path d="M252.96 104.579H245.479V106.831H252.96V104.579Z" fill="#E2EEFD"/>
<path d="M252.96 108.118H245.479V110.37H252.96V108.118Z" fill="#E2EEFD"/>
<path d="M252.96 111.714H245.479V113.966H252.96V111.714Z" fill="#E2EEFD"/>
<path d="M252.96 115.183H245.479V117.435H252.96V115.183Z" fill="#E2EEFD"/>
<path d="M295.693 64.3625H282.07V68.0713H295.693V64.3625Z" fill="#E2EEFD"/>
<path d="M295.693 70.071H282.07V73.7798H295.693V70.071Z" fill="#E2EEFD"/>
<path d="M295.693 75.8989H282.07V79.6077H295.693V75.8989Z" fill="#E2EEFD"/>
<path d="M295.693 81.8188H282.07V85.5276H295.693V81.8188Z" fill="#E2EEFD"/>
<path d="M295.693 87.531H282.07V91.2397H295.693V87.531Z" fill="#E2EEFD"/>
<path d="M125.642 63.8984H118.16V66.1507H125.642V63.8984Z" fill="#E2EEFD"/>
<path d="M125.642 67.3645H118.16V69.6168H125.642V67.3645Z" fill="#E2EEFD"/>
<path d="M125.642 70.9043H118.16V73.1566H125.642V70.9043Z" fill="#E2EEFD"/>
<path d="M125.642 74.4995H118.16V76.7518H125.642V74.4995Z" fill="#E2EEFD"/>
<path d="M125.642 77.969H118.16V80.2213H125.642V77.969Z" fill="#E2EEFD"/>
<path d="M125.642 81.7871H118.16V84.0394H125.642V81.7871Z" fill="#E2EEFD"/>
<path d="M125.642 85.2539H118.16V87.5062H125.642V85.2539Z" fill="#E2EEFD"/>
<path d="M125.642 88.7927H118.16V91.0451H125.642V88.7927Z" fill="#E2EEFD"/>
<path d="M125.642 92.3884H118.16V94.6407H125.642V92.3884Z" fill="#E2EEFD"/>
<path d="M125.642 95.8572H118.16V98.1095H125.642V95.8572Z" fill="#E2EEFD"/>
<path d="M139.333 65.375H130.83V67.6273H139.333V65.375Z" fill="#E2EEFD"/>
<path d="M139.333 68.842H130.83V71.0943H139.333V68.842Z" fill="#E2EEFD"/>
<path d="M139.333 72.3809H130.83V74.6332H139.333V72.3809Z" fill="#E2EEFD"/>
<path d="M139.333 75.9761H130.83V78.2284H139.333V75.9761Z" fill="#E2EEFD"/>
<path d="M139.333 79.4456H130.83V81.6979H139.333V79.4456Z" fill="#E2EEFD"/>
<path d="M139.333 83.063H130.83V85.3153H139.333V83.063Z" fill="#E2EEFD"/>
<path d="M139.333 86.5291H130.83V88.7814H139.333V86.5291Z" fill="#E2EEFD"/>
<path d="M139.333 90.0686H130.83V92.3209H139.333V90.0686Z" fill="#E2EEFD"/>
<path d="M139.333 93.6643H130.83V95.9167H139.333V93.6643Z" fill="#E2EEFD"/>
<path d="M139.333 97.1331H130.83V99.3854H139.333V97.1331Z" fill="#E2EEFD"/>
<path d="M139.333 101.112H130.83V103.364H139.333V101.112Z" fill="#E2EEFD"/>
<path d="M139.333 104.579H130.83V106.831H139.333V104.579Z" fill="#E2EEFD"/>
<path d="M139.333 108.118H130.83V110.37H139.333V108.118Z" fill="#E2EEFD"/>
<path d="M139.333 111.714H130.83V113.966H139.333V111.714Z" fill="#E2EEFD"/>
<path d="M139.333 115.183H130.83V117.435H139.333V115.183Z" fill="#E2EEFD"/>
<mask id="mask0_7622_74146" style="mask-type:alpha" maskUnits="userSpaceOnUse" x="80" y="4" width="162" height="153">
<rect x="80" y="4" width="162" height="153" fill="#D9D9D9"/>
</mask>
<g mask="url(#mask0_7622_74146)">
<path opacity="0.18" d="M112.126 74.2476L112.168 74.2363L109 62.5196L110.299 62.1661C110.302 62.18 110.302 62.1936 110.305 62.2075C110.62 63.369 111.812 64.0554 112.97 63.7402C114.128 63.4252 114.812 62.228 114.498 61.0662C114.494 61.0523 114.487 61.0408 114.483 61.0272L115.924 60.6347C115.927 60.6486 115.927 60.6622 115.931 60.6761C116.245 61.8378 117.438 62.524 118.596 62.2087C119.753 61.8935 120.437 60.6965 120.123 59.5348C120.119 59.5209 120.112 59.5093 120.108 59.4954L121.549 59.103C121.553 59.1169 121.552 59.1305 121.556 59.1444C121.87 60.3058 123.063 60.992 124.221 60.677C125.378 60.362 126.062 59.1648 125.748 58.003C125.744 57.9891 125.737 57.9776 125.733 57.964L127.174 57.5715C127.178 57.5854 127.178 57.599 127.181 57.6129C127.495 58.7744 128.688 59.4608 129.846 59.1456C131.004 58.8303 131.687 57.6333 131.373 56.4716C131.37 56.4577 131.362 56.4462 131.358 56.4326L132.8 56.0401C132.803 56.054 132.803 56.0676 132.806 56.0815C133.121 57.2429 134.313 57.9291 135.471 57.6141C136.629 57.2991 137.312 56.1019 136.998 54.9402C136.994 54.9263 136.987 54.9147 136.983 54.9008L138.424 54.5084C138.428 54.522 138.428 54.5359 138.431 54.5498C138.745 55.7112 139.938 56.3977 141.096 56.0824C142.253 55.7674 142.937 54.5702 142.623 53.4084C142.62 53.3945 142.613 53.3827 142.609 53.3691L144.05 52.9766C144.053 52.9905 144.053 53.0041 144.057 53.018C144.371 54.1798 145.564 54.8659 146.721 54.5507C147.879 54.2357 148.563 53.0384 148.249 51.8767C148.245 51.8628 148.238 51.8513 148.234 51.8377L149.675 51.4452C149.679 51.4591 149.678 51.4727 149.682 51.4866C149.996 52.648 151.189 53.3345 152.347 53.0192C153.504 52.7042 154.188 51.507 153.874 50.3453C153.87 50.3314 153.863 50.3195 153.859 50.3059L155.293 49.9155L171.313 109.331L174.481 121.047L173.182 121.401C173.179 121.387 173.179 121.373 173.175 121.36C172.861 120.198 171.668 119.512 170.511 119.827C169.353 120.142 168.669 121.339 168.983 122.501C168.987 122.515 168.995 122.526 168.998 122.54L167.557 122.932C167.554 122.918 167.554 122.905 167.55 122.891C167.236 121.729 166.043 121.043 164.885 121.358C163.727 121.674 163.044 122.871 163.358 124.032C163.362 124.046 163.369 124.058 163.373 124.071L161.932 124.464C161.928 124.45 161.928 124.436 161.925 124.422C161.611 123.261 160.418 122.575 159.26 122.89C158.102 123.205 157.419 124.402 157.733 125.564C157.737 125.578 157.744 125.589 157.748 125.603L156.306 125.995C156.303 125.982 156.303 125.968 156.3 125.954C155.985 124.792 154.793 124.106 153.635 124.421C152.477 124.736 151.794 125.933 152.108 127.095C152.111 127.109 152.118 127.121 152.123 127.134L150.681 127.527C150.678 127.513 150.678 127.499 150.675 127.485C150.36 126.324 149.167 125.637 148.01 125.953C146.852 126.268 146.168 127.465 146.482 128.627C146.486 128.641 146.493 128.652 146.497 128.666L145.056 129.058C145.053 129.044 145.053 129.031 145.049 129.017C144.735 127.855 143.542 127.169 142.384 127.484C141.227 127.799 140.543 128.996 140.857 130.158C140.861 130.172 140.868 130.183 140.872 130.197L139.431 130.59C139.427 130.576 139.428 130.562 139.424 130.548C139.11 129.387 137.917 128.701 136.759 129.016C135.602 129.331 134.918 130.528 135.232 131.69C135.236 131.704 135.243 131.715 135.247 131.729L133.805 132.122C133.802 132.108 133.802 132.094 133.798 132.08C133.485 130.918 132.291 130.232 131.134 130.548C129.976 130.863 129.292 132.06 129.607 133.222C129.61 133.235 129.618 133.247 129.621 133.261L128.187 133.651L112.126 74.2476Z" fill="#D6D6D6"/>
<path d="M169.279 87.2356L189.177 96.1796C191.103 97.0453 192.708 98.4984 193.763 100.332L206.084 130.311L186.813 144.628L175.633 104.913L173.076 100.741L169.279 87.2356Z" fill="#E2A27D"/>
<path d="M206.084 130.311L214.902 140.217L194.776 154.933L186.812 144.628L206.084 130.311Z" fill="#E2A27D"/>
<path d="M172.767 99.0463L170.998 91.9868L180.939 99.0022C183.207 100.4 184.888 102.58 185.669 105.134L189.588 113.88L172.767 99.0463Z" fill="#D99676"/>
<path d="M162.963 110.34L164.809 115.714C165.693 118.285 167.731 120.289 170.311 121.123L175.573 122.823L167.615 107.382L162.963 110.34Z" fill="#D99676"/>
<path d="M165.471 116.242L167.317 121.615C168.201 124.187 170.239 126.191 172.819 127.024L178.081 128.724L170.123 113.284L165.471 116.242Z" fill="#D99676"/>
<path d="M170.625 123.352L172.471 128.725C173.355 131.297 175.393 133.301 177.973 134.134L183.235 135.834L175.277 120.394L170.625 123.352Z" fill="#D99676"/>
<path d="M97.7937 47.4113L97.847 47.3971L93.7832 32.5138L95.4491 32.0649C95.4533 32.0825 95.4529 32.0998 95.4578 32.1175C95.8609 33.5928 97.391 34.4648 98.8762 34.0643C100.361 33.6638 101.239 32.1434 100.836 30.6677C100.831 30.65 100.822 30.6354 100.816 30.6181L102.666 30.1196C102.67 30.1372 102.669 30.1545 102.674 30.1722C103.077 31.6475 104.607 32.5191 106.093 32.119C107.578 31.7185 108.455 30.1981 108.052 28.7224C108.047 28.7047 108.038 28.6901 108.033 28.6728L109.882 28.1742C109.886 28.1919 109.886 28.2092 109.89 28.2268C110.293 29.7022 111.824 30.5738 113.309 30.1737C114.794 29.7735 115.671 28.2528 115.268 26.7771C115.263 26.7594 115.254 26.7448 115.249 26.7275L117.098 26.2289C117.102 26.2466 117.102 26.2639 117.106 26.2815C117.509 27.7569 119.04 28.6288 120.525 28.2283C122.01 27.8279 122.887 26.3075 122.484 24.8318C122.48 24.8141 122.47 24.7994 122.465 24.7822L124.314 24.2836C124.318 24.3013 124.318 24.3186 124.322 24.3362C124.725 25.8115 126.256 26.6835 127.741 26.283C129.226 25.8826 130.103 24.3621 129.7 22.8864C129.695 22.8688 129.686 22.8541 129.681 22.8369L131.53 22.3383C131.534 22.356 131.534 22.3733 131.538 22.3909C131.942 23.8662 133.472 24.7382 134.957 24.3377C136.442 23.9376 137.319 22.4168 136.916 20.9411C136.911 20.9235 136.902 20.9084 136.897 20.8915L138.746 20.393C138.75 20.4103 138.75 20.4279 138.755 20.4456C139.157 21.9209 140.688 22.7929 142.173 22.3924C143.658 21.9923 144.535 20.4715 144.132 18.9958C144.127 18.9782 144.118 18.9635 144.113 18.9462L145.961 18.4477C145.966 18.4654 145.965 18.4826 145.97 18.5003C146.373 19.9756 147.903 20.8476 149.389 20.4471C150.873 20.047 151.751 18.5262 151.348 17.0505C151.343 17.0329 151.334 17.0178 151.329 17.0005L153.169 16.5046L173.719 91.9769L177.783 106.86L176.117 107.309C176.112 107.292 176.113 107.275 176.108 107.257C175.705 105.782 174.175 104.91 172.69 105.31C171.205 105.711 170.328 107.231 170.73 108.707C170.735 108.724 170.744 108.739 170.75 108.756L168.9 109.255C168.896 109.237 168.897 109.22 168.892 109.202C168.489 107.727 166.959 106.855 165.473 107.255C163.988 107.656 163.111 109.176 163.514 110.652C163.519 110.67 163.528 110.684 163.533 110.702L161.684 111.2C161.68 111.182 161.68 111.165 161.676 111.147C161.273 109.672 159.743 108.8 158.257 109.201C156.773 109.601 155.895 111.122 156.298 112.597C156.303 112.615 156.312 112.63 156.317 112.647L154.468 113.145C154.464 113.128 154.464 113.11 154.46 113.093C154.057 111.617 152.526 110.745 151.041 111.146C149.556 111.546 148.679 113.067 149.082 114.543C149.087 114.56 149.096 114.575 149.101 114.592L147.252 115.091C147.248 115.073 147.248 115.056 147.244 115.038C146.841 113.563 145.31 112.691 143.825 113.091C142.34 113.492 141.463 115.012 141.866 116.488C141.871 116.506 141.88 116.521 141.885 116.537L140.036 117.036C140.032 117.018 140.032 117.001 140.027 116.983C139.624 115.508 138.094 114.636 136.609 115.037C135.124 115.437 134.247 116.957 134.649 118.433C134.654 118.451 134.663 118.465 134.669 118.483L132.82 118.981C132.815 118.964 132.816 118.946 132.811 118.929C132.408 117.453 130.878 116.581 129.393 116.982C127.908 117.382 127.031 118.903 127.433 120.379C127.438 120.396 127.447 120.411 127.452 120.428L125.603 120.927C125.599 120.909 125.6 120.892 125.595 120.874C125.192 119.399 123.661 118.527 122.176 118.928C120.691 119.328 119.814 120.848 120.217 122.324C120.222 122.342 120.231 122.356 120.236 122.374L118.396 122.87L97.7937 47.4113Z" fill="#FDFFFB"/>
<path d="M186.813 144.628L177.306 132.703C175.051 129.874 173.254 126.706 171.984 123.314L167.83 112.227L158.973 98.3926C157.403 95.941 158.119 92.6764 160.57 91.1131L160.755 90.9948C163.073 89.5157 166.136 90.0841 167.774 92.2973L174.438 101.304L186.314 111.063L186.813 144.628Z" fill="#E2A27D"/>
<path d="M162.662 99.0946L167.275 96.1222C167.64 95.8876 167.745 95.4017 167.511 95.0365L166.677 93.7322C165.719 92.2356 163.734 91.8015 162.242 92.7624L161.712 93.1043C160.221 94.0652 159.788 96.0571 160.745 97.5537L161.58 98.8579C161.814 99.2232 162.298 99.3291 162.662 99.0946Z" fill="#E9C3AE"/>
<path d="M211.633 133.111L187.398 149.615L191.677 155.247L215.998 138.351L211.633 133.111Z" fill="#FDFFFB"/>
<path d="M219.29 135.223L188.568 157.905L206.997 181.624L237.559 157.665L219.29 135.223Z" fill="#54749B"/>
<path d="M149.996 35.6975L106.65 47.4475L107.125 49.2121L150.471 37.4621L149.996 35.6975Z" fill="#707070"/>
<path d="M159.752 71.9397L116.406 83.6897L116.881 85.4543L160.227 73.7043L159.752 71.9397Z" fill="#707070"/>
<path d="M148.972 80.1362L128.74 85.6206L129.215 87.3852L149.447 81.9008L148.972 80.1362Z" fill="#707070"/>
<path d="M133.644 50.942L109.361 57.5244L109.836 59.289L134.119 52.7066L133.644 50.942Z" fill="#DADADA"/>
<path d="M119.105 59.7773L110.592 62.085L111.067 63.8495L119.58 61.5419L119.105 59.7773Z" fill="#DADADA"/>
<path d="M129.013 61.9845L111.818 66.6458L112.293 68.4103L129.488 63.7491L129.013 61.9845Z" fill="#DADADA"/>
<path d="M137.327 64.6242L113.045 71.2065L113.52 72.9711L137.802 66.3887L137.327 64.6242Z" fill="#DADADA"/>
<path d="M124.541 72.9847L114.275 75.7673L114.75 77.5319L125.016 74.7492L124.541 72.9847Z" fill="#DADADA"/>
<path d="M152.431 45.8502L142.33 48.5884L142.805 50.3529L152.906 47.6148L152.431 45.8502Z" fill="#DADADA"/>
<path d="M153.656 50.411L143.555 53.1492L144.03 54.9137L154.131 52.1756L153.656 50.411Z" fill="#DADADA"/>
<path d="M154.884 54.9716L144.783 57.7097L145.258 59.4743L155.359 56.7361L154.884 54.9716Z" fill="#DADADA"/>
<path d="M156.115 59.5326L146.014 62.2708L146.489 64.0353L156.59 61.2972L156.115 59.5326Z" fill="#DADADA"/>
<path d="M157.341 64.0929L147.24 66.8311L147.715 68.5956L157.816 65.8575L157.341 64.0929Z" fill="#DADADA"/>
<path d="M120.994 98.5227L120.254 98.7234L123.367 110.286L124.107 110.085L120.994 98.5227Z" fill="#707070"/>
<path d="M122.603 98.0867L121.863 98.2874L124.976 109.85L125.716 109.649L122.603 98.0867Z" fill="#707070"/>
<path d="M126.278 97.0906L125.908 97.1909L129.021 108.753L129.391 108.653L126.278 97.0906Z" fill="#707070"/>
<path d="M127.505 96.7579L127.135 96.8582L130.248 108.421L130.617 108.32L127.505 96.7579Z" fill="#707070"/>
<path d="M125.329 97.3464L123.523 97.8357L126.636 109.398L128.441 108.909L125.329 97.3464Z" fill="#707070"/>
<path d="M130.168 96.0356L128.363 96.5249L131.476 108.087L133.281 107.598L130.168 96.0356Z" fill="#707070"/>
<path d="M131.271 95.7364L130.531 95.937L133.644 107.499L134.384 107.299L131.271 95.7364Z" fill="#707070"/>
<path d="M132.88 95.3002L132.141 95.5007L135.253 107.063L135.993 106.863L132.88 95.3002Z" fill="#707070"/>
<path d="M141.916 92.8515L141.176 93.052L144.289 104.614L145.028 104.414L141.916 92.8515Z" fill="#707070"/>
<path d="M143.521 92.4171L142.781 92.6177L145.894 104.18L146.634 103.98L143.521 92.4171Z" fill="#707070"/>
<path d="M136.557 94.3043L136.188 94.4045L139.3 105.967L139.67 105.867L136.557 94.3043Z" fill="#707070"/>
<path d="M137.784 93.9717L137.414 94.072L140.527 105.634L140.897 105.534L137.784 93.9717Z" fill="#707070"/>
<path d="M135.598 94.5685L133.793 95.0576L136.905 106.62L138.71 106.131L135.598 94.5685Z" fill="#707070"/>
<path d="M140.446 93.2494L138.641 93.7388L141.753 105.301L143.559 104.812L140.446 93.2494Z" fill="#707070"/>
</g>
</svg>
