<svg width="320" height="158" viewBox="0 0 320 158" fill="none" xmlns="http://www.w3.org/2000/svg">
<path opacity="0.6" d="M299.832 157.032C302.426 152.467 306.489 141.62 308.809 130.391C315.846 95.9335 301.428 68.1309 273.403 51.6566C259.584 43.5184 246.83 42.3968 235.774 43.4138C223.206 44.5696 212.832 48.4944 205.583 48.0222C195.293 47.3503 189.421 33.7789 174.355 21.249C165.531 13.9143 153.552 6.95718 135.685 3.2095C113.87 -1.36919 84.8712 -1.76845 64.3087 6.78994C56.2168 10.1557 49.5072 14.8907 45.1453 21.2491C33.9249 37.5949 41.8351 59.0994 51.9516 76.1991C66.2897 100.433 47.5271 104.656 30.5727 114.267C17.7016 121.566 5.87194 132.396 10.3736 157.033H299.832V157.032Z" fill="#D5E6FE"/>
<path d="M319.638 157.457H0.362535C0.163141 157.457 0 157.294 0 157.095V156.971C0 156.772 0.163141 156.608 0.362535 156.608H319.637C319.837 156.608 320 156.772 320 156.971V157.095C320 157.294 319.837 157.457 319.638 157.457Z" fill="#8692C2"/>
<path d="M86.06 23.7686C89.0621 16.9775 100.679 21.0194 100.679 21.0194C100.679 21.0194 106.901 34.6584 109.217 35.3147C111.533 35.9709 106.174 22.6149 106.174 22.6149C110.818 22.8718 121.62 30.2631 121.62 30.2631C121.62 30.2631 118.67 44.6144 121.077 44.6803C123.484 44.7461 123.04 31.8398 123.04 31.8398C127.265 33.8451 130.608 39.6428 130.608 39.6428C134.487 48.8455 122.47 53.3518 122.47 53.3518C122.47 53.3518 121.555 58.3475 123.774 64.5775V64.5777C123.774 64.5777 124.311 65.7474 124.746 67.6626L123.539 67.478C123.49 67.1392 123.429 66.8097 123.355 66.4908C123.355 66.4886 123.355 66.4869 123.353 66.485C123.352 66.4804 123.351 66.4758 123.35 66.4713C123.296 66.272 123.218 65.9884 123.119 65.6423C123.119 65.642 123.119 65.6415 123.119 65.6411C123.119 65.6403 123.118 65.6403 123.118 65.6395C122.86 64.8611 122.692 64.2897 122.593 63.8805C122.593 63.8792 122.593 63.878 122.593 63.8768C121.834 61.4415 120.694 58.2453 119.727 57.4635C119.727 57.4635 119.889 57.2961 120.07 56.9495C119.96 57.1134 119.846 57.2843 119.727 57.4635C116.983 61.5754 106.539 60.7337 100.963 58.6729C95.3876 56.6119 98.1449 55.3722 101.647 53.2111C105.15 51.05 111.538 52.7375 113.614 51.9978C115.691 51.258 113.045 49.7961 109.162 49.5044C105.28 49.213 102.774 52.757 96.4849 52.3995C90.1958 52.0419 87.2556 39.6601 87.2556 39.6601C91.3327 41.6428 99.3687 40.4549 99.8895 39.024C100.41 37.5932 89.0231 36.0031 87.3197 35.2895C85.616 34.5758 83.0582 30.5597 86.06 23.7686Z" fill="#DFEBF9"/>
<g opacity="0.5">
<g opacity="0.5">
<path d="M89.5165 111.37C89.5165 111.37 91.5304 89.3525 83.2598 74.1939C82.1607 72.1794 79.1312 72.6669 78.6999 74.9209C78.6926 74.9585 78.6857 74.9964 78.679 75.0351C78.0049 78.8954 86.8791 97.6777 89.5165 111.37Z" fill="#AEC3FF"/>
</g>
<g opacity="0.5">
<path d="M89.5429 117.802C89.5429 117.802 84.3006 88.6279 68.1047 72.767C67.1172 71.7998 65.5148 71.7326 64.5117 72.6836C63.8585 73.3029 63.3928 74.3889 63.575 76.2783C64.0607 81.3168 81.5584 101.658 89.5429 117.802Z" fill="#AEC3FF"/>
</g>
</g>
<g opacity="0.5">
<g opacity="0.5">
<path d="M184.85 94.404C184.85 94.404 202.068 70.2837 223.728 62.1261C226.607 61.0419 229.257 64.1876 227.723 66.8538C227.697 66.8982 227.671 66.9429 227.644 66.9879C224.951 71.4982 199.507 82.8071 184.85 94.404Z" fill="#AEC3FF"/>
</g>
<g opacity="0.5">
<path d="M179.195 100.912C179.195 100.912 210.043 75.8727 240.366 73.9357C242.215 73.8176 243.901 75.1511 244.087 76.9947C244.209 78.195 243.732 79.7052 241.894 81.4647C236.993 86.1559 201.428 91.5034 179.195 100.912Z" fill="#AEC3FF"/>
</g>
</g>
<path d="M145.715 82.0801L139.754 152.954C139.754 152.954 139.13 157.25 142.325 157.258C147.58 157.27 168.478 157.258 168.478 157.258C168.478 157.258 164.523 156.364 164.571 154.351C164.628 151.979 171.538 81.4092 171.538 81.4092L145.715 82.0801Z" fill="#798EE8"/>
<path d="M170.445 155.969C169.411 155.972 149.179 156.007 144.062 155.941C141.832 155.913 141.441 153.958 141.423 152.693C141.414 152.086 141.491 151.638 141.491 151.638L141.645 149.796L142.041 145.101L142.389 140.953L142.838 135.622L143.216 131.123L147.451 80.7625L173.274 80.0923C173.274 80.0923 170.364 109.626 168.305 131.123C168.075 133.519 167.856 135.815 167.654 137.959C167.589 138.644 167.526 139.313 167.464 139.964C167.274 141.998 167.099 143.866 166.947 145.515C166.867 146.384 166.793 147.192 166.727 147.932C166.464 150.831 166.31 152.683 166.308 153.035C166.307 153.24 166.324 153.431 166.358 153.608C166.782 155.867 170.057 155.969 170.445 155.969Z" fill="#AEC3FF"/>
<path d="M83 43.4824L97.5192 101.803L99.5071 109.79L106.269 136.954H231.903L206.978 43.4824H83Z" fill="#AEC3FF"/>
<path d="M83.0004 43.4822L80.9883 44.1531L103.595 138.983L106.27 136.954L83.0004 43.4822Z" fill="#4F81ED"/>
<path d="M103.596 138.983H228.456L231.904 136.954H106.271L103.596 138.983Z" fill="#849DEF"/>
<path d="M147.443 157.254H174.477V155.969H147.443V157.254Z" fill="#AEC3FF"/>
<path d="M167.603 138.983L167.463 139.965L142.039 145.101L142.388 140.953L142.554 138.983H167.603Z" fill="#8C9DF4"/>
<g opacity="0.5">
<path d="M170.444 155.969C169.411 155.972 149.178 156.007 144.061 155.941C141.831 155.913 141.44 153.958 141.422 152.693L166.726 147.932C166.463 150.831 166.309 152.683 166.307 153.035C166.306 153.24 166.324 153.431 166.358 153.609C166.781 155.867 170.056 155.969 170.444 155.969Z" fill="#8C9DF4"/>
</g>
<path d="M83 43.4822H206.978L227.094 118.604H101.701L83 43.4822Z" fill="#78A2FC"/>
<path d="M221.246 115.349H105.165L101.017 98.824L99.4121 92.4302L98.7577 89.823L94.4941 72.8407L94.2739 71.9565L92.0197 62.9801L91.0113 58.9637L90.1516 55.5374L89.4494 52.7433L88.1348 47.5068H202.543L203.987 52.7433L204.757 55.5374L205.701 58.9637L206.808 62.9801L214.103 89.4406V89.4419L214.721 91.6838L215.009 92.7241L220.045 110.992L221.246 115.349Z" fill="#E9F0FF"/>
<path d="M148.804 118.604L106.312 137.173L101.701 118.604H148.804Z" fill="#8C9DF4"/>
<path d="M67.2725 88.2705L58.9639 85.3855C57.615 84.917 56.0262 85.9634 55.4156 87.7223L54.8945 89.2227L68.1448 93.8234L68.5814 92.2202C69.1797 90.4976 68.5937 88.7292 67.2725 88.2705Z" fill="#233862"/>
<path d="M118.101 105.919L109.792 103.034C108.443 102.566 106.854 103.612 106.244 105.371L105.723 106.872L118.973 111.472L119.41 109.869C120.008 108.146 119.422 106.378 118.101 105.919Z" fill="#233862"/>
<path d="M105.879 157.22C105.429 157.119 97.5249 155.673 95.4816 148.072C94.8352 145.669 94.3489 142.754 93.9936 139.666C93.5291 135.64 90.7851 132.24 86.9564 130.91L69.6861 124.914C65.5311 123.471 60.9245 124.54 57.8024 127.638C55.7446 129.682 53.7004 131.518 51.8253 132.913C45.5111 137.612 38.4123 133.849 37.9956 133.649C33.9532 131.714 32.9877 126.917 35.0556 123.226L53.3223 90.6079C53.7554 89.8342 54.3022 89.1652 54.9294 88.6108C55.895 87.7586 57.2501 87.5046 58.4674 87.9273L65.2983 90.2993C65.7255 90.4476 66.7833 90.8102 67.3006 91.3479C69.9889 94.1431 72.9271 96.2985 77.1304 97.8109L100.431 105.901C103.154 106.847 103.483 105.885 106.239 105.04C106.243 105.039 106.246 105.038 106.249 105.037C106.871 104.848 107.539 104.878 108.153 105.091L118.486 108.679C119.357 108.982 120.043 109.677 120.306 110.561C120.622 111.625 120.711 112.773 120.525 113.943L114.646 150.862C113.982 155.04 110.251 158.206 105.879 157.22Z" fill="#246AFE"/>
<path d="M50.1787 101.275C52.1349 95.6417 58.2384 92.6436 63.8116 94.5786C69.3846 96.5139 72.3168 102.649 70.3608 108.283C68.4047 113.916 62.301 116.914 56.728 114.979C51.1548 113.044 48.2226 106.908 50.1787 101.275Z" fill="#AEC8FF"/>
<path d="M67.1226 120.407C68.1071 117.571 71.2039 116.07 74.0396 117.055C76.8753 118.04 78.3758 121.136 77.3913 123.972C76.4066 126.808 73.3097 128.308 70.474 127.324C67.6383 126.339 66.1378 123.242 67.1226 120.407Z" fill="#233862"/>
<path d="M68.9229 121.031C69.5627 119.189 71.5747 118.214 73.4172 118.854C75.2594 119.493 76.2343 121.505 75.5947 123.348C74.9549 125.19 72.9427 126.165 71.1005 125.525C69.2582 124.886 68.2832 122.873 68.9229 121.031Z" fill="white"/>
<path d="M81.5523 125.417C82.5368 122.581 85.6337 121.081 88.4693 122.065C91.3049 123.05 92.8055 126.147 91.8209 128.982C90.8363 131.818 87.7394 133.318 84.9037 132.334C82.0681 131.349 80.5675 128.252 81.5523 125.417Z" fill="#233862"/>
<path d="M83.3506 126.041C83.9904 124.199 86.0025 123.224 87.8448 123.864C89.6872 124.503 90.662 126.515 90.0224 128.358C89.3825 130.2 87.3704 131.175 85.5282 130.535C83.6859 129.896 82.7109 127.884 83.3506 126.041Z" fill="white"/>
<path d="M91.15 112.435L76.0922 107.207C74.1334 106.527 73.097 104.388 73.7771 102.429L75.5875 97.2146L97.6641 104.88L95.8278 110.169C95.1619 112.087 93.0676 113.101 91.15 112.435Z" fill="#233862"/>
<path d="M60.5587 97.1374L64.2433 98.4168C65.5655 98.876 65.7689 100.675 64.585 101.439L61.5604 103.39C60.9864 103.76 60.2238 103.496 60.0029 102.849L58.6935 99.0189C58.2964 97.8574 59.4067 96.7373 60.5587 97.1374Z" fill="white"/>
<path d="M59.867 111.678L56.1822 110.398C54.86 109.939 54.6567 108.14 55.8405 107.377L58.8651 105.425C59.4391 105.055 60.2017 105.319 60.4227 105.966L61.732 109.796C62.1291 110.957 61.0189 112.078 59.867 111.678Z" fill="white"/>
<path d="M68.064 105.08L66.7707 108.804C66.3065 110.141 64.5216 110.358 63.7719 109.169L61.857 106.132C61.4936 105.555 61.7614 104.784 62.4036 104.557L66.2105 103.211C67.3651 102.803 68.4683 103.915 68.064 105.08Z" fill="white"/>
<path d="M52.6028 104.116L53.896 100.392C54.3601 99.0554 56.1452 98.8383 56.8947 100.027L58.8096 103.065C59.173 103.641 58.9053 104.412 58.2631 104.639L54.4561 105.985C53.3017 106.393 52.1985 105.281 52.6028 104.116Z" fill="white"/>
<path d="M95.2392 116.921C97.1953 111.288 103.299 108.29 108.872 110.225C114.445 112.16 117.377 118.296 115.421 123.929C113.465 129.562 107.361 132.56 101.788 130.625C96.2152 128.69 93.2832 122.555 95.2392 116.921Z" fill="#AEC8FF"/>
<path d="M105.356 114.815C105.759 113.654 107.027 113.04 108.189 113.443C109.35 113.846 109.964 115.114 109.561 116.275C109.158 117.437 107.89 118.051 106.729 117.648C105.567 117.245 104.953 115.977 105.356 114.815Z" fill="#0F429F"/>
<path d="M102.079 124.252C102.482 123.091 103.75 122.476 104.911 122.88C106.073 123.283 106.687 124.551 106.284 125.712C105.881 126.873 104.613 127.488 103.451 127.085C102.29 126.682 101.676 125.413 102.079 124.252Z" fill="#A8D29F"/>
<path d="M111.302 119.811C112.463 120.214 113.078 121.483 112.675 122.644C112.271 123.805 111.003 124.42 109.842 124.016C108.681 123.613 108.066 122.345 108.469 121.184C108.873 120.023 110.141 119.408 111.302 119.811Z" fill="#739AF0"/>
<path d="M101.943 116.564C103.088 117.01 103.655 118.3 103.208 119.446C102.762 120.591 101.471 121.157 100.326 120.711C99.1808 120.264 98.6144 118.974 99.0608 117.829C99.5071 116.683 100.798 116.117 101.943 116.564Z" fill="#233862"/>
<path d="M168.255 100.057C165.897 100.057 164.167 102.272 164.736 104.56L172.498 135.737L173.714 140.623L177.166 154.492C177.569 156.108 179.02 157.242 180.685 157.242H249.992C252.374 157.242 254.109 154.984 253.495 152.681L240.181 102.749C239.757 101.162 238.32 100.057 236.677 100.057H168.255Z" fill="#152949"/>
<path d="M170.782 100.057C168.425 100.057 166.694 102.272 167.264 104.56L175.025 135.737L176.241 140.623L179.694 154.492C180.096 156.108 181.547 157.242 183.213 157.242H252.519C254.901 157.242 256.637 154.984 256.023 152.681L242.708 102.749C242.285 101.162 240.847 100.057 239.204 100.057H170.782Z" fill="#505ABA"/>
<path d="M249.961 154.946H184.948C183.386 154.946 182.025 153.894 181.647 152.396L178.409 139.537L177.268 135.005L174.227 122.933L169.987 106.096C169.453 103.974 171.077 101.921 173.288 101.921H237.471C239.013 101.921 240.361 102.945 240.758 104.417L253.248 150.717C253.823 152.852 252.196 154.946 249.961 154.946Z" fill="#E9F0FF"/>
<path d="M234.38 110.047C232.333 109.45 230.021 110.135 228.577 111.704C225.004 115.584 227.638 118.575 225.85 121.292C224.77 122.933 223.862 125.807 227.21 127.508C228.758 128.294 233.368 132.402 234.312 132.499C243.879 133.482 244.051 123.776 240.826 120.963C236.294 117.01 240.435 111.813 234.38 110.047Z" fill="#233862"/>
<path d="M229.38 125.052C229.38 125.052 220.648 129.282 219.013 129.21C217.377 129.139 207.154 125.539 207.154 125.539L207.411 127.273C207.411 127.273 215.188 131.746 217.907 131.999C220.584 132.249 229.738 129.597 230.622 129.037C231.505 128.477 231.948 125.619 229.38 125.052Z" fill="#ED985F"/>
<path d="M228.42 129.042C229.211 129.591 230.203 130.044 231.449 130.331C236.118 131.41 237.907 127.463 238.579 124.755C237.943 124.39 237.344 124.31 236.998 124.269C236.66 124.229 236.305 124.202 236.011 124.188C235.487 123.786 234.706 122.143 234.533 119.591L234.313 119.65L230.634 120.657C230.634 120.657 230.802 121.827 230.885 122.932C230.949 123.798 230.959 124.624 230.795 124.827C230.508 124.889 230.335 124.93 230.335 124.93C230.335 124.93 230.335 124.931 230.333 124.933C230.284 125.014 229.217 126.77 228.42 129.042Z" fill="#FFB27D"/>
<path d="M230.633 120.658C230.633 120.658 230.802 121.826 230.884 122.933C232.969 122.724 233.936 120.739 234.313 119.651L230.633 120.658Z" fill="#ED985F"/>
<path d="M230.008 121.756C230.008 121.756 234.956 121.483 234.739 118.404C234.521 115.325 235.014 113.216 231.845 113.26C228.677 113.304 228.146 114.522 227.969 115.568C227.792 116.613 228.715 121.747 230.008 121.756Z" fill="#FFB27D"/>
<path d="M227.995 113.845C228.693 112.865 229.284 113.026 229.628 113.282C232.223 111.603 234.121 113.674 234.121 113.674C234.61 115.859 236.294 117.01 236.294 117.01C236.294 117.01 235.417 117.711 233.318 117.246C230.632 116.651 229.71 114.322 229.585 113.964C229.303 114.257 228.938 114.443 228.659 115.078C228.326 115.832 228.118 116.269 228.112 117.508C228.112 117.508 226.949 115.316 227.995 113.845Z" fill="#233862"/>
<path d="M239.987 139.103C240.434 136.818 241.891 127.691 240.434 124.755C239.911 123.699 237.857 123.604 235.604 123.697C234.903 124.149 232.232 125.86 231.135 125.646C231.123 125.644 231.102 125.639 231.074 125.632C230.557 125.503 230.362 125.14 230.793 124.827C230.794 124.826 229.739 124.764 228.418 125.157C226.843 125.626 225.486 126.624 225.486 126.624C225.486 126.624 226.461 128.14 228.028 128.803C227.762 131.187 228.158 132.239 230.632 137.746C232.722 142.401 230.35 146.592 230.35 146.592C230.35 146.592 242.654 156.485 242.723 151.448C242.774 147.656 239.416 142.022 239.987 139.103Z" fill="#739AF0"/>
<path d="M229.739 157.349C229.07 157.274 228.468 156.907 228.094 156.347C228.034 156.259 227.971 156.163 227.903 156.061C226.503 153.941 225.958 147.448 222.808 140.53C222.04 138.846 219.286 138.544 218.535 136.64C218.535 136.64 216.686 130.469 222.073 130.287C227.46 130.105 236.5 147.456 236.643 149.276C236.781 151.039 240.204 158.53 229.739 157.349Z" fill="#94B0ED"/>
<path d="M208.33 157.313H215.997C215.997 157.313 216.284 156.058 215.781 155.204C215.335 154.448 215.506 154.017 215.836 153.392C215.488 153.538 215.039 153.67 214.544 153.641C214.162 153.619 213.758 153.441 213.404 153.229C213.074 153.616 211.661 155.26 211.22 155.586C210.719 155.955 208.484 155.824 208.33 157.313Z" fill="#0A2035"/>
<path d="M218.361 132.071C217.899 135.532 216.096 146.456 212.916 151.786C211.89 153.505 215.499 154.468 215.519 154.463C216.002 154.336 216.809 153.565 217.18 153.23C219.762 150.903 225.004 144.314 225.004 139.031C225.004 136.455 225.049 131.536 223.176 130.286C222.023 129.516 218.544 130.696 218.361 132.071Z" fill="#94B0ED"/>
<path d="M239.687 129.037C239.687 129.037 238.131 132.202 230.868 134.439C223.605 136.675 227.759 131.056 227.759 131.056L237.913 127.508L239.687 129.037Z" fill="#5A7DE0"/>
<path d="M233.484 157.357C233.484 157.357 233.096 156.774 232.849 155.909C232.437 154.463 232.291 153.41 231.499 151.157C230.667 148.792 229.681 145.883 228.448 142.855C228.067 141.921 227.663 140.975 227.233 140.03C226.466 138.346 224.355 138.579 223.604 136.675C223.604 136.675 220.674 130.076 226.061 129.893C231.447 129.712 241.684 147.548 242.272 149.276C242.916 151.167 245.23 159.169 233.484 157.357Z" fill="#AEC3FF"/>
<path d="M213.957 157.313H221.624C221.624 157.313 221.911 156.058 221.407 155.204C220.962 154.448 221.133 154.017 221.463 153.392C221.115 153.538 220.666 153.67 220.171 153.641C219.789 153.619 219.385 153.441 219.031 153.229C218.701 153.616 217.288 155.26 216.846 155.586C216.346 155.955 214.111 155.824 213.957 157.313Z" fill="#0D2644"/>
<g opacity="0.5">
<path d="M231.499 151.157C230.667 148.792 229.68 145.883 228.447 142.855C228.769 140.561 229.464 138.555 230.632 137.746C230.632 137.746 233.465 146.524 231.499 151.157Z" fill="#94B0ED"/>
</g>
<path d="M222.837 131.825C222.375 135.287 221.725 146.456 218.545 151.786C217.519 153.505 221.128 154.468 221.147 154.463C221.631 154.336 222.438 153.565 222.809 153.23C225.391 150.903 230.633 144.314 230.633 139.031C230.633 136.455 227.61 131.742 225.737 130.492C224.584 129.722 223.02 130.451 222.837 131.825Z" fill="#AEC3FF"/>
<path d="M206.239 121.079L214.091 120.245C214.32 120.22 214.536 120.353 214.618 120.568L217.427 127.95C217.55 128.274 217.32 128.623 216.974 128.637L209.183 128.951C208.971 128.96 208.776 128.836 208.695 128.641L205.825 121.778C205.694 121.465 205.902 121.114 206.239 121.079Z" fill="#505ABA"/>
<path d="M205.557 121.15L213.409 120.316C213.638 120.291 213.854 120.424 213.936 120.64L216.746 128.021C216.869 128.345 216.638 128.694 216.292 128.708L208.501 129.022C208.289 129.031 208.095 128.907 208.013 128.712L205.143 121.849C205.012 121.536 205.22 121.186 205.557 121.15Z" fill="#233862"/>
<path d="M209.91 124.597C209.814 124.333 209.95 124.119 210.213 124.119C210.477 124.119 210.768 124.333 210.864 124.597C210.96 124.86 210.824 125.074 210.56 125.074C210.297 125.074 210.006 124.86 209.91 124.597Z" fill="#EBF3FA"/>
<path d="M205.792 121.847C205.745 121.718 205.812 121.613 205.942 121.613C206.071 121.613 206.214 121.718 206.261 121.847C206.308 121.977 206.242 122.082 206.112 122.082C205.983 122.082 205.839 121.977 205.792 121.847Z" fill="#EBF3FA"/>
<path d="M238.577 124.755C238.577 124.755 227.695 128.762 226.06 128.68C225.003 128.627 216.218 125.539 216.218 125.539L215.43 127.031C215.43 127.031 223.98 132.526 226.33 132.499C230.971 132.446 238.802 129.597 239.685 129.037C240.569 128.477 241.145 125.321 238.577 124.755Z" fill="#FFB27D"/>
<path d="M216.22 125.539C216.22 125.539 215.431 124.325 214.646 124.29C213.86 124.254 212.504 124.825 212.04 124.914C211.576 125.003 210.256 125.432 210.648 126.074C211.041 126.717 212.861 126.86 213.646 126.717C214.432 126.574 215.431 127.031 215.431 127.031L216.22 125.539Z" fill="#FFB27D"/>
<path d="M214.86 124.327C214.86 124.327 213.611 123.754 213.254 123.647C212.897 123.54 212.968 123.649 213.076 123.987C213.183 124.325 213.825 124.648 213.825 124.754C213.825 124.861 214.86 124.327 214.86 124.327Z" fill="#FFB27D"/>
<path d="M206.367 124.897C206.367 124.897 206.865 123.255 207.412 123.771C207.981 124.307 207.636 124.844 207.566 125.528C207.433 126.837 207.168 126.781 207.001 126.722C206.833 126.662 206.182 125.555 206.367 124.897Z" fill="#FFB27D"/>
<path d="M206.337 125.146C206.337 125.146 206.086 126.543 207.412 127.273L207.02 126.311L206.337 125.146Z" fill="#FFB27D"/>
<path d="M229.082 119.985C229.082 119.985 229.55 119.8 230.866 119.907C230.866 119.907 230.796 120.42 229.825 120.471C229.275 120.5 229.082 119.985 229.082 119.985Z" fill="white"/>
<path d="M232.971 126.731C232.971 126.731 233.944 129.812 237.287 130.513C237.287 130.513 242.807 128.813 240.058 125.052C240.058 125.052 237.341 123.033 232.971 126.731Z" fill="#739AF0"/>
<path d="M206.337 125.344C206.337 125.344 206.107 124.575 206.094 124.442C206.08 124.308 206.097 124.242 206.215 124.335C206.334 124.428 206.514 124.675 206.46 124.908C206.407 125.141 206.337 125.344 206.337 125.344Z" fill="#FFB27D"/>
<path d="M174.26 87.0349C173.339 87.5337 172.115 87.533 171.427 87.751C170.786 87.9541 170.646 88.6251 170.646 88.6251L170.238 87.1923L169.945 86.7599C169.945 86.7599 170.616 85.6968 170.75 85.336C170.884 84.9758 171.27 84.5756 171.668 84.4737C172.066 84.3723 172.784 83.8924 172.874 84.0034C173.091 84.2708 171.955 84.8003 171.925 85.0561C171.897 85.2873 172.064 85.346 172.097 85.355C172.099 85.3552 172.101 85.3561 172.103 85.3563C173.096 85.668 175.452 84.7285 175.637 85.2946C175.705 85.5064 174.653 86.8225 174.26 87.0349Z" fill="#FFB27D"/>
<path d="M171.531 87.9979C171.531 87.9979 167.334 98.3096 162.546 99.0685C161.95 99.1627 161.31 99.0612 160.646 98.811C160.646 98.811 160.646 98.811 160.645 98.8099C158.479 97.9925 156.059 95.5913 154.087 93.2518C151.81 90.5496 150.131 87.9281 150.131 87.9281C150.131 87.9281 150.773 80.1596 152.379 81.0173C155.749 82.8163 159.77 91.3627 162.105 93.1532L169.743 86.5839C169.743 86.5839 170.937 86.8605 171.531 87.9979Z" fill="#F77D48"/>
<path d="M160.646 98.8099C158.48 97.9925 156.06 95.5914 154.088 93.2519C154.118 89.4705 154.28 85.544 154.562 87.8751C155.052 91.9394 160.56 98.7038 160.646 98.8099Z" fill="#D86036"/>
<path d="M132.92 157.237H128.946C128.445 156.977 128 156.382 127.859 155.495C127.664 154.27 126.23 153.602 125.919 152.599C125.609 151.598 127.199 150.188 127.199 150.188L127.465 149.86L127.742 149.519L130.38 150.113C130.38 150.113 130.445 150.715 130.485 151.48C130.514 152.033 130.529 152.671 130.496 153.231C130.419 154.567 130.887 156.006 132.128 156.266C133.045 156.458 133.004 156.978 132.92 157.237Z" fill="#182B49"/>
<path d="M155.982 157.237H146.894C146.457 156.727 146.618 154.843 146.684 154.228C146.697 154.105 146.707 154.032 146.707 154.032C146.707 154.032 149.81 151.657 150.237 153.476C150.25 153.533 150.265 153.589 150.283 153.644C150.82 155.345 153.229 156.118 154.62 156.333C155.524 156.474 155.859 156.923 155.982 157.237Z" fill="#182B49"/>
<path d="M154.251 108.697C154.251 108.697 153.78 114.323 153.226 121.085C152.474 130.271 151.568 141.555 151.478 143.693C151.324 147.404 150.702 153.342 150.702 153.342C150.702 153.342 149.229 154.752 146.281 154.158C146.281 154.158 143.653 145.682 142.903 136.714C142.891 136.567 142.879 136.419 142.868 136.271C142.17 127.142 141.084 107.918 141.084 107.918L154.251 108.697Z" fill="#2B478B"/>
<path d="M154.251 108.697C154.251 108.697 153.78 114.323 153.226 121.085L142.903 136.714C142.891 136.567 142.879 136.419 142.868 136.271C142.17 127.142 141.084 107.918 141.084 107.918L154.251 108.697Z" fill="#233862"/>
<path d="M152.098 109.365C152.098 109.365 143.604 129.739 138.019 139.314C132.433 148.889 130.688 151.561 130.688 151.561C130.688 151.561 127.488 150.336 127.197 149.501C127.197 149.501 129.333 131.017 133.073 126.511C135.187 123.965 137.669 116.324 137.786 113.652C137.902 110.98 138.542 105.691 138.542 105.691L152.098 109.365Z" fill="#2B478B"/>
<path d="M155.743 105.816C155.588 107.859 155.156 109.322 154.21 109.322C154.21 109.322 150.003 110.803 144.975 110.843C143.993 110.85 142.6 110.658 141.445 110.466C140.266 110.265 139.332 110.064 139.332 110.064C138.322 109.83 137.206 109.206 137.355 108.054C137.435 107.44 137.492 106.652 137.531 105.74C137.534 105.681 137.537 105.622 137.54 105.563C137.616 103.702 137.632 101.351 137.638 98.9051C137.64 97.8408 137.641 96.7584 137.646 95.6909C137.651 94.6733 137.657 93.6693 137.672 92.7077C137.687 91.6233 137.71 90.5909 137.75 89.6505C137.75 89.6505 136.825 83.3324 137.927 82.1896C139.218 80.8517 142.992 79.6283 145.746 79.7334C151.488 79.7334 152.589 81.0469 153.596 82.1112C153.944 82.478 155.33 84.7275 155.368 87.1976C155.42 90.6418 155.285 94.5536 155.285 94.5546C155.322 95.1144 155.382 95.8351 155.448 96.6589C155.518 97.5355 155.596 98.5267 155.662 99.5603C155.695 100.081 155.724 100.612 155.75 101.143C155.824 102.783 155.848 104.432 155.743 105.816Z" fill="#F77D48"/>
<path d="M148.431 80.5886C146.855 81.8564 144.191 80.8874 143.302 80.5072C143.125 80.4313 143.016 80.2527 143.026 80.0597C143.077 79.109 142.989 77.9028 142.573 76.4939C142.56 76.4537 142.882 76.4643 143.371 76.5044C144.826 76.6222 147.772 76.9911 147.903 77.0081C147.906 77.007 147.908 77.007 147.908 77.007C147.908 77.007 148.044 77.6652 148.342 78.8367C148.367 78.9395 148.395 79.0476 148.424 79.159C148.459 79.2966 148.497 79.442 148.537 79.5914C148.578 79.7475 148.61 79.9139 148.635 80.0852C148.662 80.2768 148.582 80.4675 148.431 80.5886Z" fill="#FFB27D"/>
<path d="M148.341 78.8365C146.318 79.6377 142.715 77.0205 142.715 77.0205C142.918 76.8154 143.137 76.6439 143.37 76.5042C144.825 76.6221 147.772 76.9912 147.902 77.0076C147.905 77.0071 147.907 77.0069 147.907 77.0069C147.907 77.0069 148.043 77.6648 148.341 78.8365Z" fill="#ED975D"/>
<path d="M148.745 76.7071C148.745 76.7071 147.93 77.1483 146.853 77.4643C145.279 77.9272 143.145 78.1222 142.184 76.2789C140.565 73.1761 138.836 71.4317 141.923 69.5917C143.576 68.6067 144.697 68.3963 145.504 68.5523C146.206 68.6862 146.67 69.0973 147.038 69.5176C147.83 70.422 149.988 75.9305 148.745 76.7071Z" fill="#FFB27D"/>
<path d="M146.526 69.477C145.788 70.0403 144.728 70.3558 144.365 70.588C144.087 70.7661 143.919 71.0629 143.82 71.3905C143.646 71.9641 143.684 72.6309 143.717 72.9096C143.769 73.3494 143.768 73.7259 142.616 73.6346C142.56 73.6304 142.509 73.6304 142.462 73.6346C142.354 73.6431 142.273 73.6728 142.216 73.7205C141.797 74.065 142.589 75.3002 142.811 75.5608C142.811 75.5608 142.932 75.8365 142.958 76.1756C142.979 76.4491 142.939 76.7649 142.724 77.0101C142.721 77.0131 142.717 77.0174 142.714 77.0206C142.67 77.0694 142.091 77.4405 140.456 76.1408C140.188 75.9287 139.892 75.6711 139.566 75.3595C139.185 74.998 138.764 74.5632 138.298 74.0427C137.776 73.4619 137.151 72.0689 137.59 70.5689C138.026 69.0698 139.777 67.027 142.195 66.657C144.108 66.3644 144.349 66.9915 145.987 66.9724C147.123 66.9592 147.798 68.5058 146.526 69.477Z" fill="#B5453C"/>
<path d="M148.448 74.5898C148.448 74.5898 148.581 75.0033 147.648 75.4922C147.648 75.4922 146.864 75.9028 146.646 75.4912C146.646 75.4912 147.208 74.7648 148.448 74.5898Z" fill="white"/>
<path d="M141.533 90.7415C141.484 90.838 138.884 95.8226 137.639 98.9053C137.641 97.841 137.642 96.7586 137.646 95.691C137.651 94.6735 137.658 93.6694 137.672 92.7079L141.533 90.7415Z" fill="#D86036"/>
<path d="M129.51 107.903C129.51 107.903 128.877 108.746 128.852 109.083C128.682 111.367 129.725 111.683 127.023 112.952C127.023 112.952 125.87 113.392 125.85 112.497C125.83 111.601 126.651 111.587 126.501 110.333C126.328 108.887 126.345 108.873 127.294 108.118L127.923 107.079L129.51 107.903Z" fill="#FFB27D"/>
<path d="M128.512 108.907C128.512 108.907 129.121 109.543 129.16 109.807C129.283 110.656 129.567 111.023 129.425 111.115C129.129 111.307 128.739 110.678 128.552 110.115C128.365 109.551 128.512 108.907 128.512 108.907Z" fill="#FFB27D"/>
<path d="M127.729 108.433C128.639 108.611 129.626 108.539 129.626 108.539C129.626 108.539 132.327 100.194 132.675 99.4318C133.022 98.6695 142.572 89.7682 142.572 89.7682C142.572 89.7682 141.731 80.2868 139.435 81.1607C135.167 82.7856 129.198 95.5128 128.355 97.4616C126.962 100.682 126.479 107.901 126.479 107.901C126.479 107.901 127.015 108.294 127.729 108.433Z" fill="#F77D48"/>
<path d="M141.646 75.6403L140.457 76.1407C140.189 75.9286 139.893 75.671 139.566 75.3594L140.977 74.3342L141.646 75.6403Z" fill="#060633"/>
<path d="M148.474 73.3041L143.237 76.0668C143.042 76.1693 142.825 76.2236 142.597 76.2274L142.504 76.2289C142.172 76.2344 141.831 76.0004 141.646 75.6403L140.978 74.3346C140.749 73.8884 140.744 73.3797 140.965 73.0275C141.045 72.8997 141.152 72.7991 141.279 72.7321L146.672 69.8876C147.095 69.6643 147.672 69.9205 147.955 70.4569L148.729 71.9233C149.012 72.4596 148.897 73.0808 148.474 73.3041Z" fill="#AEC3FF"/>
<path d="M150.063 72.466L148.852 73.1048L148.099 73.502L147.195 73.979L144.901 75.1887L144.295 75.5085C143.933 75.6999 143.48 75.5599 143.288 75.1973L142.181 73.0989C141.99 72.7361 142.13 72.2831 142.492 72.0922L145.204 70.6616L146.46 69.9989L147.3 69.5565L148.261 69.049C148.429 68.9605 148.616 68.9432 148.788 68.9869C148.987 69.0362 149.165 69.167 149.268 69.3609L150.374 71.4592C150.565 71.8216 150.425 72.2746 150.063 72.466Z" fill="#060633"/>
<g opacity="0.4">
<path d="M145.204 70.6619C145.129 71.505 144.994 73.6468 144.901 75.1888L144.295 75.5086C143.933 75.7 143.48 75.56 143.288 75.1974L142.181 73.099C141.99 72.7362 142.13 72.2832 142.492 72.0923L145.204 70.6619Z" fill="#4545AF"/>
</g>
<g opacity="0.8">
<path d="M147.299 69.5566L147.195 73.9792L145.988 74.6157L146.46 69.9991L147.299 69.5566Z" fill="#4545AF"/>
</g>
<path d="M150.064 72.4659L148.852 73.1047L148.789 68.9868C148.988 69.0361 149.166 69.1669 149.268 69.3608L150.375 71.4591C150.566 71.8215 150.426 72.2745 150.064 72.4659Z" fill="#4545AF"/>
<path d="M172.385 59.2868C172.19 59.5099 172.165 59.7593 172.262 60.0254C172.262 60.0265 172.263 60.028 172.264 60.029C172.442 60.5215 173.031 61.0715 173.715 61.6206C173.802 61.691 173.88 61.7553 173.947 61.8148C173.965 61.8304 173.983 61.8461 174 61.8617C174.013 61.8737 174.027 61.8864 174.04 61.8979C174.678 62.4857 174.438 62.6204 175.583 63.8133C176.89 65.1725 177.789 65.197 178.045 65.0733C178.261 64.9678 177.822 64.2468 177.334 63.4365C177.311 63.3975 177.288 63.3578 177.263 63.3183C177.198 63.2106 177.134 63.1013 177.07 62.993C176.498 62.0178 176.645 61.5603 176.78 60.1091C176.891 58.9297 178.615 53.5206 178.615 53.5206L176.112 53.0894C176.112 53.0894 175.358 57.3968 174.527 58.0601C174.083 58.4138 173.586 58.4181 173.159 58.6802C173.129 58.6984 173.099 58.717 173.07 58.7364C172.827 58.8971 172.58 59.0631 172.385 59.2868Z" fill="#FFB27D"/>
<path d="M172.385 59.2867C172.19 59.5098 172.165 59.7592 172.262 60.0254C172.262 60.0264 172.263 60.0279 172.264 60.0289C172.482 60.521 173.056 61.0682 173.717 61.6155C173.803 61.6872 173.879 61.753 173.947 61.8147C173.965 61.8303 173.983 61.846 174 61.8616C174.013 61.8736 174.027 61.8863 174.04 61.8978C174.678 62.4856 174.438 62.6203 175.583 63.8132C176.89 65.1725 177.789 65.1969 178.045 65.0732C178.261 64.9677 177.822 64.2467 177.334 63.4364C177.08 63.3433 175.899 62.8633 175.006 61.7204C174.248 60.7533 173.733 59.5203 173.217 58.7634C173.161 58.7529 173.127 58.7466 173.07 58.7361C172.827 58.897 172.58 59.063 172.385 59.2867Z" fill="#233862"/>
<path d="M192.571 57.7231C192.725 58.4958 193.827 58.3669 195.057 58.0663C196.288 57.7656 195.996 58.1231 197.747 57.9292C199.499 57.7354 200.029 57.0822 200.083 56.8218C200.13 56.5908 199.265 56.5092 198.337 56.4022C198.22 56.3892 198.103 56.3747 197.985 56.3603C196.937 56.2288 196.17 55.5525 195.218 54.997C194.316 54.4709 192.97 52.3274 192.97 52.3274L190.568 52.5176C190.568 52.5176 191.829 54.4322 192.316 55.2646C192.603 55.7542 192.588 56.4016 192.552 56.9015C192.534 57.1732 192.516 57.4509 192.571 57.7231Z" fill="#FFB27D"/>
<path d="M195.057 58.0662C196.287 57.7655 195.995 58.123 197.746 57.9291C199.498 57.7353 200.029 57.0821 200.082 56.8217C200.13 56.5907 199.264 56.5091 198.336 56.4021L198.327 56.4199C198.327 56.4199 197.277 57.1648 195.819 57.1996C194.631 57.2286 193.372 56.8881 192.552 56.9014C192.533 57.1731 192.515 57.4508 192.57 57.723C192.724 58.4958 193.826 58.3669 195.057 58.0662Z" fill="#233862"/>
<path d="M183.365 42.364L181.12 48.4064L178.188 56.2958C178.188 56.2958 177.393 56.3727 176.631 56.1536C175.93 55.9507 175.125 55.4203 175.125 55.4203C175.125 55.4203 175.939 46.9493 177.458 42.0866C177.847 40.8384 178.283 39.8287 178.764 39.2607C181.118 36.4784 183.365 42.364 183.365 42.364Z" fill="#D86036"/>
<path d="M181.083 32.7682C179.804 32.3558 176.469 32.7617 172.852 33.4164C171.853 33.5972 170.845 33.1408 170.319 32.2722L161.215 31.5615C161.215 31.5615 158.211 38.2233 159.855 42.4681C160.097 43.0919 160.628 43.4813 161.446 43.4944C161.446 43.4941 161.447 43.4949 161.446 43.4944C161.446 43.4944 166.947 43.502 168.707 43.502C173.234 43.502 178.288 40.39 178.942 40.2591C180.012 40.0451 180.44 42.1855 181.511 44.4328C182.581 46.68 191.57 54.3853 191.57 54.3853C191.57 54.3853 192.952 54.399 193.523 54.185C194.136 53.9548 194.361 53.6558 194.361 53.6558C194.361 53.6558 184.4 33.8382 181.083 32.7682Z" fill="#F77D48"/>
<path d="M169.351 5.53927C168.675 5.13686 168.016 5.07534 167.612 5.08688C167.331 5.09496 167.051 5.07672 166.773 5.03597C163.298 4.52645 161.206 9.57323 161.083 11.0982C160.858 13.8978 159.377 14.3248 157.293 16.0782C153.113 19.5937 154.338 23.679 156.624 25.1969C157.995 26.1078 160.413 25.1968 160.413 25.1968C160.447 25.2208 167.023 21.5203 170.265 19.7355C175.125 19.0445 171.304 6.70157 169.351 5.53927Z" fill="#152949"/>
<path d="M167.547 18.2157C167.561 18.225 165.952 18.7744 164.876 18.2978C163.863 17.8505 163.096 16.1849 163.112 16.1841C163.572 16.1628 164.078 15.7602 164.467 13.1184L164.663 13.1888L167.96 14.3751C167.96 14.3751 167.721 15.4331 167.567 16.4404C167.437 17.286 167.367 18.0962 167.547 18.2157Z" fill="#FFB27D"/>
<path d="M167.961 14.3753C167.961 14.3753 167.83 14.9461 167.638 16.0125C165.744 15.6716 164.931 14.2129 164.664 13.189L167.961 14.3753Z" fill="#ED975D"/>
<path d="M168.452 15.4255C168.452 15.4255 163.941 14.8201 164.362 12.0167C164.782 9.2133 164.483 7.24711 167.381 7.51515C170.279 7.78319 170.677 8.93661 170.764 9.90648C170.851 10.8762 169.637 15.5107 168.452 15.4255Z" fill="#FFB27D"/>
<path d="M170.599 8.36955C170.599 8.36955 167.711 10.8581 165.747 11.0587C163.783 11.2593 163.039 10.6288 163.039 10.6288C163.039 10.6288 164.197 9.66761 164.894 8.1164C165.099 7.65928 165.533 7.34519 166.032 7.30213C167.435 7.18104 170.094 7.12574 170.599 8.36955Z" fill="#152949"/>
<path d="M168.793 8.14676C168.793 8.14676 169.759 9.08086 170.063 9.77358C170.357 10.4422 170.445 12.0412 170.211 12.6763C170.211 12.6763 171.716 9.74957 170.864 8.32765C169.961 6.81985 168.793 8.14676 168.793 8.14676Z" fill="#152949"/>
<path d="M171.346 24.8611C171.209 33.9924 171.308 32.0842 170.309 32.9508C170.068 33.1594 169.392 33.2837 168.501 33.3426C165.701 33.5283 160.779 33.067 160.592 32.5496C159.946 30.7592 160.402 30.2029 159.863 27.4618C159.807 27.1703 159.738 26.8546 159.656 26.5111C159.207 24.6285 158.77 23.988 160.364 20.9632C161.809 18.2235 163.311 15.9998 163.446 16.08C167.259 18.3438 167.567 16.4409 167.567 16.4409C167.567 16.4409 171.412 20.407 171.346 24.8611Z" fill="#739AF0"/>
<path d="M181.12 48.4065L178.188 56.2958C178.188 56.2958 177.393 56.3727 176.631 56.1536C175.93 55.9508 175.125 55.4203 175.125 55.4203C175.125 55.4203 175.939 46.9493 177.458 42.0867L181.12 48.4065Z" fill="#F77D48"/>
<path d="M167.568 16.4404C167.568 16.4404 171.492 17.1057 171.953 18.7952C172.414 20.4847 173.931 30.7396 173.931 30.7396C173.931 30.7396 172.824 31.8201 171.903 30.8986C170.981 29.9772 169.003 21.3039 169.003 21.3039L167.568 16.4404Z" fill="#739AF0"/>
<path d="M168.501 33.3426C165.701 33.5283 160.779 33.067 160.592 32.5496C159.946 30.7592 160.402 30.2029 159.863 27.4618L161.214 23.6589C161.214 23.6589 160.99 27.8938 162.239 29.0076C163.487 30.1214 167.353 31.1577 167.96 32.0883C168.253 32.5349 168.445 32.9828 168.501 33.3426Z" fill="#5A7DE0"/>
<path d="M165.293 31.5615C165.293 31.5615 168.055 30.9463 168.501 31.1915C168.947 31.4366 170.036 32.3294 170.172 32.6401C170.309 32.9509 169.18 32.4043 168.813 32.3058C168.575 32.242 167.949 32.4594 167.64 32.5628C166.336 32.9974 165.537 32.7738 165.537 32.7738L165.293 31.5615Z" fill="#FFB27D"/>
<path d="M163.444 16.0779C163.444 16.0779 159.735 16.3063 158.451 18.0972C156.644 20.6181 153.058 31.3619 155.113 32.7947C157.427 34.4082 165.645 33.217 165.645 33.217C165.645 33.217 165.919 31.9386 165.538 31.3203C165.158 30.702 158.975 29.7029 158.689 29.4176C158.404 29.1321 162.256 23.8525 162.256 22.9963C162.257 22.1401 163.444 16.0779 163.444 16.0779Z" fill="#739AF0"/>
<path d="M168.637 31.9604C168.637 31.9604 169.216 32.7071 169.405 32.7961C169.595 32.8854 169.718 32.863 169.718 32.863L169.328 32.161L168.637 31.9604Z" fill="#FFB27D"/>
<path d="M168.502 31.1917L170.185 32.0088C170.185 32.0088 170.113 32.126 169.906 32.1165C169.699 32.1072 169.176 31.9159 169.176 31.9159L168.502 31.1917Z" fill="#FFB27D"/>
<path d="M182.871 33.1125H165.293V33.5005H182.715L182.871 33.1125Z" fill="#152949"/>
<path d="M169.404 33.5004H182.716L186.72 23.543H173.429L169.404 33.5004Z" fill="#152949"/>
<path d="M179.356 28.5217C179.456 28.1717 179.254 27.8879 178.904 27.8879C178.554 27.8879 178.189 28.1717 178.088 28.5217C177.988 28.8717 178.19 29.1555 178.54 29.1555C178.89 29.1555 179.255 28.8717 179.356 28.5217Z" fill="#EBF3FA"/>
<path d="M254.616 96.3143C254.616 96.2642 255.349 94.7489 255.116 94.6324C254.883 94.5159 254.465 94.5337 254.416 94.799C254.368 95.0643 254.616 96.3143 254.616 96.3143Z" fill="#FFB27D"/>
<path d="M265.555 77.4814C265.555 77.4814 269.852 72.3178 272.127 75.6218C272.127 75.6218 273.824 76.3259 274.438 79.2146C275.064 82.1619 273.104 84.4021 272.09 83.8486C271.441 83.4936 270.948 84.6309 270.948 84.6309L265.555 77.4814Z" fill="#233862"/>
<path d="M260.226 104.958C256.81 103.7 253.52 97.8536 253.52 97.8536L254.597 97.0996C255.494 98.4123 259.531 100.932 259.531 100.932C259.623 99.8265 259.757 98.8228 259.922 97.9138C261.043 91.7356 263.607 89.9054 264.295 89.5167C264.406 89.4537 264.469 89.429 264.469 89.429C264.469 89.429 264.467 89.4744 264.461 89.5607C264.451 89.7464 264.43 90.1211 264.394 90.6347C264.127 94.4597 263.08 106.011 260.226 104.958Z" fill="#FFB27D"/>
<path d="M271.658 75.0981C271.658 75.0981 272.236 72.7873 275.63 73.5094C275.63 73.5094 274.005 73.3048 273.56 73.9306C273.56 73.9306 274.848 73.3409 275.654 73.8343C276.461 74.3279 276.593 75.9888 276.473 76.4943C276.352 76.9999 275.462 78.5044 274.872 78.5044C274.282 78.5044 273.584 77.9869 273.584 77.9869L271.658 75.0981Z" fill="#233862"/>
<path d="M276.736 111.267C275.048 107.482 274.24 106.412 274.212 105.221C274.19 104.279 274.654 103.263 275.556 100.771C275.769 100.184 275.915 99.5806 276.006 98.9703C276.719 94.1671 273.941 88.9745 272.215 88.6208C271.735 88.4938 270.92 86.759 270.93 83.9636L270.714 84.0061L267.079 84.726C267.079 84.726 267.162 85.8699 267.164 86.9476C267.167 87.8457 267.113 88.6969 266.909 88.8041C266.647 88.8278 266.493 88.8435 266.493 88.8435C266.493 88.8435 263.462 93.0528 263.207 96.9676C262.952 100.883 265.634 102.583 263.187 110.407C260.688 118.397 277.668 113.358 276.736 111.267Z" fill="#FFB27D"/>
<path d="M267.08 84.7262C267.08 84.7262 267.163 85.8701 267.165 86.9478C269.199 86.8905 270.274 85.0349 270.715 84.0063L267.08 84.7262Z" fill="#E8945B"/>
<path d="M271.091 83.6106C271.091 83.6106 272.157 81.9262 272.413 80.486C272.595 79.4578 272.072 75.6465 268.242 76.1954C268.242 76.1954 267.129 76.305 266.083 77.0111C265.252 77.5728 264.052 78.7852 265.394 82.1112L265.742 83.2347L271.091 83.6106Z" fill="#233862"/>
<path d="M266.4 85.7466C266.4 85.7466 271.212 85.8261 271.216 82.8282C271.219 79.8303 271.843 77.8215 268.77 77.6441C265.697 77.4667 265.099 78.6099 264.854 79.6103C264.61 80.6106 265.148 85.6487 266.4 85.7466Z" fill="#FFB27D"/>
<path d="M266.578 77.5704C266.578 77.5704 267.896 81.0876 269.918 81.6076C271.941 82.1277 272.818 81.5859 272.818 81.5859C272.818 81.5859 271.267 80.3537 270.945 78.2027C270.945 78.2027 267.572 75.8965 266.578 77.5704Z" fill="#233862"/>
<path d="M266.904 77.8562C266.904 77.8562 265.92 78.6414 265.68 79.4048C265.44 80.1682 265.332 81.7397 264.874 81.6865C264.874 81.6865 263.881 79.2958 264.997 77.9435C266.18 76.5095 266.904 77.8562 266.904 77.8562Z" fill="#233862"/>
<path d="M272.475 147.586C271.264 152.403 269.442 156.095 269.442 156.095L267.854 155.985C267.854 155.985 268.633 152.283 268.588 147.28C268.557 143.782 268.124 139.649 266.742 135.702C261.993 122.14 262.761 112.269 262.761 112.269L271.691 113.314L272.107 113.363C272.144 117.464 272.25 123.032 272.343 127.387C272.425 131.303 272.496 134.236 272.496 134.236C274.213 137.934 273.59 143.153 272.475 147.586Z" fill="#243F77"/>
<path d="M282.995 115.287L281.55 115.72C281.55 115.72 276.627 108.192 276.193 106.135C276.052 105.465 275.728 104.755 275.459 102.242C275.115 99.0394 273.542 95.3257 273.542 95.3257L273.186 93.7849L271.973 88.5308C271.973 88.5308 274.296 88.7681 275.655 89.3363C276.104 89.5239 276.448 89.7481 276.568 90.0112C277.566 92.2062 278.562 97.7456 279.263 101.697C279.653 103.9 279.951 105.609 280.106 105.971C280.54 106.982 281.864 112.543 282.995 115.287Z" fill="#FFB27D"/>
<path d="M277.108 145.505C276.405 150.964 275.545 155.014 275.545 155.014L274.066 156.392C274.066 156.392 273.348 152.531 272.84 147.937C272.357 143.572 271.693 138.952 270.943 137.542C267.965 131.949 267.068 110.838 267.068 110.838L276.123 110.388C277.033 111.919 277.43 114.43 277.525 117.285C277.763 124.49 276.253 132.031 276 133.39C276 133.391 278.279 136.41 277.108 145.505Z" fill="#2B478B"/>
<path d="M266.723 77.9749C266.723 77.9749 267.661 81.6579 270.213 82.8375C270.213 82.8375 267.661 80.5748 267.445 78.1434C267.228 75.7121 266.723 77.9749 266.723 77.9749Z" fill="#233862"/>
<path d="M277.871 113.999C277.886 114.305 277.87 114.548 277.814 114.723C277.622 115.329 276.96 115.605 275.361 115.44C274.383 115.338 273.947 113.7 273.753 112.302C273.166 114.302 272.344 115.424 271.281 115.66C269.73 116.005 261.908 116.956 261.396 113.238C260.833 109.148 262.519 101.907 262.612 98.0022C262.382 96.6178 262.303 95.4162 262.328 94.384C262.394 91.6026 263.21 90.0436 263.837 89.4159C264.015 89.2795 264.193 89.1943 264.907 89.072C265.272 89.0099 265.777 88.9381 266.493 88.8438C266.493 88.8438 266.785 88.8108 266.779 88.8217C266.646 89.0581 265.923 90.1924 266.08 91.2158C266.491 93.8841 270.005 91.6912 270.499 91.3731C272.089 90.3499 272.993 88.6667 272.993 88.6667C272.993 88.6667 275.217 88.9098 276.306 89.7014C276.306 89.7014 276.302 89.7062 276.294 89.7153C276.426 89.8097 276.524 89.9097 276.58 90.0164C277.742 92.2271 278.901 97.8061 279.716 101.786C277.74 102.875 276.013 102.551 275.477 102.407C276.178 106.99 277.766 111.911 277.871 113.999Z" fill="#739AF0"/>
<path d="M254.596 97.0997C254.597 96.951 254.721 94.8013 254.338 94.3496C253.956 93.8981 253.174 93.2559 252.929 93.2756C252.683 93.2954 251.722 94.5724 252.011 95.551C252.3 96.5297 253.519 97.8537 253.519 97.8537L254.596 97.0997Z" fill="#FFB27D"/>
<path d="M255.826 94.5483L253.618 95.21C253.539 95.2337 253.455 95.1885 253.431 95.1091L251.956 90.1864C251.932 90.1069 251.977 90.0231 252.056 89.9992L254.264 89.3376C254.343 89.3139 254.427 89.359 254.451 89.4385L255.927 94.3611C255.95 94.4406 255.905 94.5244 255.826 94.5483Z" fill="#2B478B"/>
<path d="M255.49 94.6489L253.506 95.2437C253.365 95.2858 253.216 95.2058 253.174 95.0648L251.765 90.3648C251.723 90.2237 251.803 90.0751 251.944 90.0329L253.929 89.438C254.07 89.3958 254.218 89.4758 254.261 89.6169L255.669 94.3169C255.712 94.4579 255.632 94.6065 255.49 94.6489Z" fill="#233862"/>
<path d="M277.87 113.999C276.795 113.64 275.417 112.686 273.761 110.546C269.378 104.881 273.389 98.2237 273.926 98.0997C274.464 97.9756 275.476 102.407 275.476 102.407C276.177 106.99 277.766 111.911 277.87 113.999Z" fill="#5A7DE0"/>
<path d="M263.838 89.416C263.838 89.416 261.105 90.7992 260.105 96.8947C260.105 96.8947 261.089 98.2422 262.473 98.6398C262.671 98.6966 262.877 98.734 263.09 98.7454C264.79 98.836 263.838 89.416 263.838 89.416Z" fill="#739AF0"/>
<path d="M252.699 93.4403C252.699 93.4403 253.627 92.013 253.854 92.0923C254.177 92.2057 253.013 94.0171 253.013 94.0171C253.013 94.0171 253.876 92.6635 254.01 92.7652C254.318 92.9971 253.829 93.8476 253.344 94.4994C253.344 94.4994 254.212 93.7047 254.24 93.8478C254.339 94.3492 253.287 95.564 253.287 95.564L252.699 94.2213V93.4403H252.699Z" fill="#FFB27D"/>
<path d="M252.002 94.7657C252.047 94.5912 252.273 91.1826 252.37 91.506C252.467 91.8293 252.698 93.6166 252.698 93.6166L252.002 94.7657Z" fill="#FFB27D"/>
<path d="M267.34 83.967C267.34 83.967 267.257 84.3205 266.378 84.2659C266.378 84.2659 265.64 84.2204 265.663 83.8321C265.663 83.8321 266.378 83.5557 267.34 83.967Z" fill="white"/>
<path d="M263.648 157.242H271.316C271.316 157.242 271.602 155.987 271.099 155.132C270.653 154.376 270.65 153.924 270.744 153.034C270.396 153.18 268.642 153.265 268.287 153.054C268.287 153.946 266.98 155.189 266.538 155.514C266.037 155.884 263.803 155.752 263.648 157.242Z" fill="#152F54"/>
<path d="M268.922 157.242H276.589C276.589 157.242 276.876 155.987 276.372 155.132C275.927 154.376 275.834 153.944 275.927 153.054C275.58 153.2 273.915 153.265 273.561 153.054C273.561 153.946 272.253 155.188 271.811 155.514C271.31 155.884 269.076 155.752 268.922 157.242Z" fill="#1D3868"/>
<path d="M282.996 115.287C282.996 115.287 284.739 116.446 285.005 116.934C285.272 117.423 285.893 119.221 285.893 119.221C285.893 119.221 285.449 119.288 285.005 118.511C284.561 117.734 283.096 117.8 282.607 117.378C282.119 116.956 281.551 115.72 281.551 115.72L282.996 115.287Z" fill="#FFB27D"/>
<path d="M281.74 116.103C281.74 116.103 282.03 117.467 282.385 117.867C282.741 118.266 283.229 118.932 283.429 118.755C283.629 118.577 283.207 117.09 283.207 117.09L281.74 116.103Z" fill="#FFB27D"/>
<path d="M284.762 117.09C284.806 117.156 286.338 118.784 286.338 118.784C286.338 118.784 285.783 119.036 285.628 118.784C285.472 118.533 284.762 117.09 284.762 117.09Z" fill="#FFB27D"/>
<path d="M105.975 100.292C105.878 100.292 105.787 100.231 105.754 100.133C105.585 99.6255 105.43 99.1239 105.291 98.6424C105.255 98.5188 105.326 98.3899 105.45 98.3542C105.573 98.3187 105.702 98.3901 105.738 98.5135C105.875 98.989 106.029 99.4844 106.196 99.9861C106.237 100.108 106.171 100.24 106.049 100.281C106.024 100.289 106 100.292 105.975 100.292ZM105.12 97.3099C105.015 97.3099 104.919 97.2375 104.894 97.1301C104.771 96.6049 104.666 96.0887 104.582 95.5958C104.56 95.4691 104.645 95.3487 104.772 95.3272C104.899 95.3064 105.019 95.391 105.041 95.5175C105.123 96.001 105.226 96.5077 105.347 97.0237C105.377 97.149 105.299 97.2742 105.174 97.3036C105.156 97.3078 105.138 97.3099 105.12 97.3099ZM117.636 96.382C117.629 96.382 117.622 96.3818 117.615 96.381C117.108 96.3352 116.582 96.2437 116.051 96.1096C115.927 96.0783 115.851 95.9516 115.883 95.827C115.914 95.7023 116.041 95.6265 116.165 95.6584C116.672 95.7864 117.174 95.8735 117.657 95.9174C117.785 95.9291 117.88 96.0422 117.868 96.1702C117.857 96.2912 117.755 96.382 117.636 96.382ZM119.185 96.3774C119.067 96.3774 118.966 96.2882 118.954 96.1682C118.94 96.0405 119.034 95.926 119.162 95.9129C119.666 95.8612 120.159 95.7559 120.626 95.5997C120.748 95.559 120.88 95.6249 120.92 95.7468C120.961 95.8687 120.895 96.0005 120.773 96.0413C120.274 96.2081 119.747 96.3209 119.209 96.376C119.201 96.3769 119.193 96.3774 119.185 96.3774ZM200.472 95.6717C200.406 95.6717 200.34 95.6439 200.294 95.5896C200.211 95.4914 200.223 95.3447 200.321 95.2615C200.704 94.9364 201.062 94.5756 201.384 94.1891C201.467 94.0904 201.613 94.0769 201.712 94.1596C201.811 94.2419 201.824 94.3886 201.742 94.4874C201.402 94.8942 201.025 95.2741 200.622 95.6163C200.579 95.6535 200.525 95.6717 200.472 95.6717ZM114.632 95.6392C114.604 95.6392 114.575 95.634 114.547 95.6231C114.073 95.4372 113.59 95.2175 113.112 94.9701C112.998 94.911 112.953 94.7706 113.012 94.6564C113.071 94.5423 113.212 94.4974 113.326 94.5567C113.79 94.7966 114.258 95.0097 114.717 95.1896C114.837 95.2366 114.896 95.3716 114.849 95.4913C114.813 95.5832 114.725 95.6392 114.632 95.6392ZM122.104 95.4011C122.025 95.4011 121.948 95.3612 121.905 95.2891C121.838 95.1791 121.873 95.0361 121.983 94.9692C122.382 94.727 122.769 94.4361 123.135 94.1045L123.179 94.0643L123.496 94.405L123.448 94.4492C123.06 94.8008 122.649 95.1097 122.224 95.3672C122.187 95.3902 122.145 95.4011 122.104 95.4011ZM104.608 94.2513C104.489 94.2513 104.387 94.1604 104.377 94.0395C104.333 93.5542 104.31 93.0796 104.31 92.6289C104.31 92.5742 104.311 92.5201 104.311 92.4661C104.313 92.3386 104.417 92.2361 104.544 92.2361C104.545 92.2361 104.546 92.2361 104.547 92.2361C104.675 92.2376 104.778 92.3431 104.777 92.4716C104.776 92.5237 104.776 92.576 104.776 92.6289C104.776 93.0656 104.797 93.5261 104.84 93.9975C104.852 94.1255 104.757 94.2388 104.629 94.2502C104.622 94.251 104.615 94.2513 104.608 94.2513ZM111.873 94.2197C111.831 94.2197 111.787 94.2078 111.748 94.1832C111.12 93.7816 110.671 93.4394 110.46 93.2711C110.359 93.1911 110.342 93.0446 110.423 92.944C110.503 92.8434 110.649 92.8266 110.75 92.9069C110.954 93.0695 111.389 93.4007 111.999 93.7907C112.107 93.8601 112.139 94.0041 112.07 94.1122C112.026 94.1818 111.95 94.2197 111.873 94.2197ZM202.452 93.302C202.412 93.302 202.372 93.2917 202.335 93.2703C202.224 93.2053 202.187 93.0628 202.252 92.9517C202.502 92.5226 202.724 92.0641 202.91 91.5886C202.957 91.4688 203.091 91.4099 203.211 91.4567C203.331 91.5034 203.39 91.6385 203.343 91.7582C203.148 92.2561 202.916 92.7366 202.653 93.1866C202.61 93.2608 202.532 93.302 202.452 93.302ZM124.345 93.2902C124.301 93.2902 124.258 93.2782 124.218 93.2529C124.11 93.1832 124.08 93.039 124.149 92.9312C124.429 92.4992 124.623 92.0471 124.728 91.5879C124.756 91.4624 124.881 91.3842 125.006 91.4125C125.132 91.4411 125.21 91.5659 125.182 91.6911C125.065 92.2036 124.849 92.7058 124.54 93.1838C124.496 93.2526 124.421 93.2902 124.345 93.2902ZM109.548 92.1781C109.482 92.1781 109.416 92.1503 109.371 92.0961C109.042 91.7089 108.71 91.2996 108.385 90.8792C108.307 90.7775 108.326 90.6313 108.427 90.5526C108.529 90.4739 108.675 90.4926 108.754 90.5944C109.074 91.0091 109.401 91.4129 109.725 91.7945C109.809 91.8927 109.797 92.0394 109.699 92.1227C109.655 92.1599 109.601 92.1781 109.548 92.1781ZM104.662 91.1567C104.65 91.1567 104.639 91.1558 104.627 91.1542C104.5 91.1355 104.412 91.0172 104.431 90.8901C104.511 90.3455 104.633 89.825 104.793 89.3433C104.833 89.2213 104.965 89.1553 105.087 89.1959C105.209 89.2365 105.275 89.3681 105.235 89.4902C105.083 89.9463 104.968 90.4402 104.892 90.9579C104.875 91.0734 104.775 91.1567 104.662 91.1567ZM203.586 90.4256C203.568 90.4256 203.55 90.4237 203.532 90.4194C203.407 90.3899 203.33 90.2647 203.359 90.1396C203.473 89.655 203.556 89.1504 203.607 88.64C203.62 88.5121 203.735 88.4183 203.862 88.4315C203.99 88.4442 204.083 88.5583 204.071 88.6864C204.018 89.2169 203.931 89.7417 203.812 90.246C203.787 90.3532 203.692 90.4256 203.586 90.4256ZM124.997 90.332C124.885 90.332 124.787 90.2513 124.768 90.1373C124.691 89.674 124.529 89.2075 124.285 88.7508C124.224 88.6375 124.267 88.4964 124.381 88.4359C124.494 88.3753 124.635 88.4183 124.696 88.5317C124.963 89.033 125.142 89.5475 125.227 90.0608C125.248 90.1877 125.162 90.3076 125.036 90.3287C125.023 90.331 125.01 90.332 124.997 90.332ZM107.646 89.7195C107.573 89.7195 107.501 89.6851 107.456 89.6209C107.155 89.1939 106.861 88.7574 106.583 88.3232C106.514 88.2149 106.545 88.071 106.653 88.0017C106.762 87.9324 106.906 87.9639 106.975 88.0721C107.249 88.5004 107.539 88.9312 107.836 89.3525C107.911 89.4576 107.885 89.6028 107.78 89.677C107.74 89.7055 107.693 89.7195 107.646 89.7195ZM105.652 88.2407C105.611 88.2407 105.57 88.2302 105.533 88.2081C105.423 88.1424 105.386 87.9994 105.452 87.8891C105.615 87.6141 105.798 87.3508 105.998 87.1015C105.909 87.1116 105.818 87.0687 105.771 86.986C105.508 86.5288 105.257 86.0657 105.026 85.6096C104.968 85.4951 105.013 85.3548 105.128 85.2966C105.243 85.2382 105.383 85.2843 105.441 85.3989C105.669 85.8477 105.916 86.3038 106.175 86.7539C106.193 86.7859 106.203 86.8204 106.205 86.8548C106.276 86.7741 106.35 86.6949 106.425 86.6176C106.514 86.5253 106.661 86.5231 106.754 86.6126C106.846 86.7021 106.848 86.8496 106.759 86.9417C106.412 87.2991 106.107 87.6978 105.853 88.1266C105.809 88.2002 105.731 88.2407 105.652 88.2407ZM123.595 87.6113C123.531 87.6113 123.468 87.5851 123.422 87.5339C123.1 87.1755 122.727 86.8317 122.313 86.5125C122.211 86.4339 122.192 86.2878 122.271 86.1858C122.349 86.0841 122.496 86.0654 122.597 86.1437C123.034 86.4803 123.428 86.8433 123.768 87.2231C123.854 87.3187 123.846 87.466 123.75 87.5518C123.706 87.5916 123.65 87.6113 123.595 87.6113ZM203.899 87.3461C203.773 87.3461 203.669 87.2451 203.667 87.1181C203.656 86.6162 203.617 86.1051 203.549 85.5987C203.532 85.4713 203.621 85.3541 203.749 85.3369C203.875 85.3203 203.993 85.4093 204.01 85.5367C204.081 86.0604 204.122 86.5892 204.132 87.1084C204.135 87.237 204.033 87.3433 203.904 87.346C203.903 87.3461 203.901 87.3461 203.899 87.3461ZM107.785 86.0279C107.71 86.0279 107.636 85.9913 107.591 85.9235C107.52 85.8162 107.55 85.6718 107.657 85.6009C108.08 85.321 108.552 85.0681 109.058 84.8492C109.176 84.7981 109.313 84.8522 109.364 84.9704C109.415 85.0885 109.361 85.2254 109.243 85.2764C108.762 85.4845 108.314 85.7243 107.913 85.9894C107.874 86.0155 107.829 86.0279 107.785 86.0279ZM121.158 85.7109C121.12 85.7109 121.081 85.7015 121.045 85.6815C120.611 85.4399 120.148 85.2216 119.67 85.0328C119.55 84.9856 119.492 84.8503 119.539 84.7307C119.586 84.6111 119.722 84.5524 119.841 84.5998C120.338 84.7961 120.819 85.0232 121.271 85.2746C121.384 85.3372 121.424 85.4789 121.362 85.5912C121.319 85.6678 121.24 85.7109 121.158 85.7109ZM110.613 84.7807C110.511 84.7807 110.418 84.7136 110.389 84.6111C110.354 84.4875 110.426 84.3586 110.55 84.3238C111.028 84.1885 111.545 84.0709 112.085 83.9741C112.211 83.9514 112.332 84.0355 112.355 84.1622C112.378 84.2887 112.293 84.4098 112.167 84.4323C111.641 84.5265 111.14 84.6407 110.676 84.7718C110.655 84.7779 110.634 84.7807 110.613 84.7807ZM118.281 84.5687C118.261 84.5687 118.242 84.5664 118.222 84.5612C117.733 84.4341 117.23 84.335 116.727 84.2664C116.6 84.2491 116.511 84.1317 116.528 84.0042C116.545 83.877 116.663 83.7875 116.79 83.805C117.311 83.8759 117.832 83.9787 118.339 84.1104C118.463 84.1427 118.538 84.2699 118.506 84.3943C118.479 84.4992 118.384 84.5687 118.281 84.5687ZM104.57 84.3333C104.48 84.3333 104.395 84.2813 104.356 84.1938C104.144 83.7082 103.948 83.2185 103.773 82.7387C103.73 82.6179 103.792 82.4843 103.913 82.4405C104.033 82.3965 104.167 82.4588 104.211 82.5798C104.382 83.0503 104.574 83.5306 104.783 84.0071C104.834 84.125 104.781 84.2621 104.663 84.3137C104.632 84.327 104.601 84.3333 104.57 84.3333ZM203.49 84.2775C203.386 84.2775 203.291 84.2064 203.264 84.1003C203.143 83.6084 202.994 83.117 202.821 82.6402C202.777 82.5193 202.839 82.3859 202.96 82.342C203.081 82.298 203.215 82.3605 203.259 82.4814C203.437 82.9739 203.591 83.4811 203.716 83.989C203.747 84.1139 203.671 84.2401 203.546 84.2707C203.528 84.2753 203.509 84.2775 203.49 84.2775ZM113.663 84.22C113.534 84.22 113.43 84.1158 113.43 83.9872C113.43 83.869 113.518 83.7713 113.632 83.7563L113.636 83.7558C113.637 83.7557 113.638 83.7556 113.639 83.7555L113.64 83.7554C114.095 83.7071 114.559 83.6843 115.022 83.6837C115.087 83.6837 115.151 83.6841 115.216 83.6853C115.344 83.6874 115.447 83.7935 115.445 83.9219C115.443 84.0491 115.339 84.1508 115.212 84.1508C115.211 84.1508 115.21 84.1507 115.208 84.1507C115.14 84.1496 115.072 84.1492 115.005 84.1492C114.567 84.1492 114.127 84.1723 113.696 84.2177L113.663 84.22ZM164.673 81.5648C164.545 81.5648 164.441 81.4612 164.441 81.3329C164.44 81.2044 164.544 81.0998 164.672 81.0991C165.123 81.0974 165.611 81.0419 166.166 80.9295C166.292 80.9043 166.414 80.9856 166.44 81.1115C166.466 81.2375 166.384 81.3603 166.258 81.3859C165.674 81.5042 165.155 81.5627 164.674 81.5648C164.674 81.5648 164.674 81.5648 164.673 81.5648ZM103.514 81.4153C103.412 81.4153 103.319 81.3485 103.29 81.246C103.145 80.7348 103.021 80.2211 102.921 79.7191C102.896 79.5929 102.978 79.4706 103.104 79.4454C103.23 79.4206 103.353 79.5023 103.378 79.6285C103.475 80.1182 103.596 80.6195 103.738 81.1187C103.773 81.2424 103.701 81.3713 103.577 81.4062C103.556 81.4123 103.535 81.4153 103.514 81.4153ZM202.435 81.3659C202.348 81.3659 202.265 81.3179 202.225 81.2351C202.002 80.7779 201.752 80.3294 201.482 79.9025C201.414 79.7939 201.446 79.65 201.555 79.5815C201.664 79.5127 201.808 79.5454 201.876 79.6541C202.155 80.0953 202.413 80.5585 202.643 81.0309C202.7 81.1464 202.652 81.2859 202.536 81.3422C202.504 81.3582 202.469 81.3659 202.435 81.3659ZM163.15 81.3186C163.123 81.3186 163.096 81.3139 163.069 81.3039C162.606 81.1321 162.185 80.8688 161.818 80.5214C161.778 80.4833 161.738 80.4452 161.7 80.4069C161.608 80.3164 161.608 80.1689 161.698 80.0776C161.789 79.9863 161.936 79.9856 162.027 80.0763C162.064 80.1119 162.1 80.1476 162.138 80.1833C162.464 80.4916 162.821 80.7154 163.231 80.8676C163.352 80.9123 163.413 81.0461 163.368 81.1668C163.333 81.2605 163.244 81.3186 163.15 81.3186ZM167.712 80.9977C167.613 80.9977 167.521 80.9336 167.49 80.834C167.452 80.7111 167.52 80.5807 167.643 80.5426C168.085 80.4051 168.561 80.2413 169.099 80.0419C169.219 79.9968 169.353 80.0585 169.398 80.179C169.443 80.2995 169.381 80.4335 169.261 80.4782C168.715 80.6807 168.231 80.8471 167.781 80.987C167.758 80.9942 167.735 80.9977 167.712 80.9977ZM170.627 79.9308C170.535 79.9308 170.447 79.8755 170.411 79.7848C170.363 79.6655 170.421 79.53 170.54 79.482C171.05 79.2766 171.574 79.0596 171.973 78.8936C172.092 78.8441 172.228 78.9004 172.278 79.0193C172.327 79.1379 172.271 79.2742 172.152 79.3236C171.751 79.49 171.226 79.7077 170.714 79.9138C170.685 79.9254 170.656 79.9308 170.627 79.9308ZM160.921 79.2491C160.839 79.2491 160.76 79.2055 160.717 79.1287C160.454 78.6521 160.279 78.1517 160.182 77.5988C160.16 77.4722 160.244 77.3514 160.371 77.3293C160.497 77.3076 160.618 77.3917 160.64 77.5185C160.728 78.0198 160.887 78.4728 161.125 78.9037C161.187 79.0162 161.146 79.1577 161.033 79.22C160.998 79.2397 160.959 79.2491 160.921 79.2491ZM200.78 78.7482C200.712 78.7482 200.644 78.7183 200.598 78.6608C200.279 78.263 199.936 77.8824 199.579 77.5298C199.487 77.4394 199.486 77.292 199.576 77.2006C199.666 77.1089 199.814 77.1077 199.905 77.1981C200.276 77.5636 200.632 77.9578 200.961 78.3698C201.042 78.47 201.026 78.6166 200.925 78.6969C200.882 78.7314 200.831 78.7482 200.78 78.7482ZM173.496 78.7443C173.405 78.7443 173.318 78.6904 173.281 78.6009C173.231 78.4821 173.288 78.3459 173.406 78.2965C173.873 78.1022 174.352 77.904 174.843 77.704C174.962 77.6554 175.098 77.7127 175.146 77.8318C175.195 77.9508 175.138 78.0866 175.019 78.1352C174.529 78.3347 174.051 78.5324 173.585 78.7263C173.556 78.7385 173.526 78.7443 173.496 78.7443ZM102.915 78.3729C102.798 78.3729 102.697 78.284 102.684 78.1645C102.628 77.6362 102.598 77.1074 102.596 76.5929C102.595 76.4644 102.699 76.3596 102.827 76.3589C102.828 76.3589 102.828 76.3589 102.829 76.3589C102.956 76.3589 103.061 76.4625 103.061 76.5905C103.064 77.0895 103.093 77.6027 103.147 78.1157C103.16 78.2435 103.068 78.3582 102.94 78.3716C102.932 78.3726 102.923 78.3729 102.915 78.3729ZM176.372 77.5756C176.279 77.5756 176.191 77.5197 176.155 77.4278C176.108 77.3083 176.167 77.1731 176.287 77.1262C176.793 76.9277 177.268 76.7459 177.741 76.5704C177.861 76.5254 177.995 76.587 178.04 76.7075C178.085 76.8281 178.023 76.9621 177.903 77.0069C177.433 77.1816 176.96 77.3623 176.457 77.5597C176.429 77.5704 176.4 77.5756 176.372 77.5756ZM198.574 76.5772C198.524 76.5772 198.474 76.5614 198.432 76.5287C198.03 76.219 197.606 75.9327 197.171 75.6776C197.061 75.6124 197.024 75.4697 197.089 75.3588C197.154 75.2482 197.296 75.2112 197.407 75.2759C197.859 75.541 198.299 75.8383 198.716 76.1598C198.818 76.2384 198.837 76.3844 198.759 76.4864C198.713 76.5459 198.644 76.5772 198.574 76.5772ZM179.282 76.4958C179.186 76.4958 179.096 76.4356 179.062 76.3393C179.02 76.2179 179.084 76.0852 179.206 76.0431C179.704 75.8704 180.201 75.7044 180.684 75.5501C180.806 75.511 180.937 75.5784 180.976 75.701C181.015 75.8234 180.948 75.9544 180.825 75.9936C180.346 76.1466 179.853 76.3114 179.358 76.4828C179.333 76.4917 179.307 76.4958 179.282 76.4958ZM160.344 76.2453C160.339 76.2453 160.334 76.2452 160.329 76.2449C160.2 76.2366 160.103 76.1259 160.111 75.9975C160.142 75.5305 160.211 75.0186 160.323 74.4324C160.348 74.3062 160.471 74.2237 160.596 74.2475C160.722 74.2719 160.805 74.3939 160.781 74.5201C160.672 75.0868 160.605 75.5801 160.576 76.0274C160.568 76.1507 160.466 76.2453 160.344 76.2453ZM182.239 75.5525C182.138 75.5525 182.045 75.4862 182.016 75.3844C181.98 75.2609 182.051 75.1318 182.174 75.0961C182.677 74.9508 183.183 74.8127 183.678 74.6852C183.803 74.6534 183.93 74.7283 183.962 74.8529C183.994 74.9773 183.919 75.1043 183.794 75.1361C183.303 75.2623 182.802 75.3992 182.304 75.5432C182.282 75.5495 182.26 75.5525 182.239 75.5525ZM102.904 75.2753C102.896 75.2753 102.888 75.2749 102.88 75.2741C102.752 75.2607 102.659 75.1462 102.672 75.0183C102.727 74.4932 102.812 73.9691 102.926 73.4608C102.953 73.3354 103.078 73.2564 103.203 73.2842C103.329 73.3122 103.408 73.4366 103.38 73.5621C103.271 74.0531 103.188 74.5592 103.135 75.0666C103.123 75.1864 103.022 75.2753 102.904 75.2753ZM195.905 75.0116C195.875 75.0116 195.844 75.0056 195.814 74.9929C195.35 74.7951 194.868 74.6246 194.38 74.486C194.257 74.4509 194.185 74.3221 194.22 74.1985C194.255 74.075 194.384 74.0029 194.507 74.0381C195.014 74.1821 195.515 74.3591 195.996 74.5645C196.115 74.6151 196.17 74.7517 196.119 74.8699C196.082 74.9585 195.996 75.0116 195.905 75.0116ZM185.245 74.7818C185.138 74.7818 185.042 74.7079 185.018 74.5995C184.99 74.474 185.069 74.3496 185.195 74.3216C185.703 74.2085 186.217 74.1029 186.723 74.0083C186.848 73.9849 186.97 74.068 186.994 74.1944C187.018 74.3207 186.935 74.4421 186.808 74.4659C186.308 74.5597 185.799 74.6639 185.296 74.7761C185.279 74.7799 185.262 74.7818 185.245 74.7818ZM188.295 74.2113C188.182 74.2113 188.083 74.1286 188.065 74.0132C188.046 73.8861 188.133 73.7675 188.261 73.7484C188.375 73.7312 188.489 73.7143 188.605 73.6978C189.012 73.6398 189.421 73.5971 189.821 73.5705C189.947 73.5614 190.06 73.659 190.069 73.7874C190.077 73.9155 189.98 74.0266 189.852 74.0351C189.464 74.0609 189.066 74.1023 188.67 74.1588C188.557 74.1749 188.443 74.1915 188.33 74.2086C188.318 74.2106 188.307 74.2113 188.295 74.2113ZM192.93 74.1638C192.918 74.1638 192.906 74.1628 192.894 74.1609C192.4 74.084 191.89 74.0344 191.378 74.014C191.25 74.0089 191.15 73.9006 191.155 73.772C191.16 73.6436 191.271 73.5448 191.397 73.5488C191.927 73.57 192.454 73.6212 192.966 73.7009C193.093 73.7208 193.18 73.8398 193.16 73.9668C193.142 74.0816 193.043 74.1638 192.93 74.1638ZM160.891 73.1952C160.873 73.1952 160.854 73.1929 160.835 73.1884C160.71 73.1575 160.634 73.0312 160.665 72.9065C160.788 72.4083 160.929 71.8729 161.053 71.4007C161.086 71.2763 161.213 71.2023 161.337 71.2346C161.462 71.2671 161.536 71.3946 161.503 71.5188C161.38 71.9896 161.24 72.5234 161.117 73.0183C161.091 73.1242 160.996 73.1952 160.891 73.1952ZM103.579 72.2528C103.553 72.2528 103.527 72.2487 103.502 72.2397C103.38 72.1972 103.317 72.0644 103.359 71.9431C103.531 71.4509 103.736 70.9611 103.967 70.487C104.023 70.3715 104.162 70.3236 104.278 70.3796C104.393 70.4358 104.442 70.5751 104.385 70.6907C104.162 71.1487 103.965 71.6217 103.799 72.097C103.765 72.1928 103.675 72.2528 103.579 72.2528ZM161.668 70.1902C161.649 70.1902 161.63 70.1879 161.611 70.1832C161.486 70.1517 161.411 70.0251 161.442 69.9004C161.579 69.3573 161.698 68.8655 161.805 68.3972C161.834 68.2717 161.959 68.1935 162.084 68.2221C162.209 68.2507 162.288 68.3756 162.259 68.5009C162.151 68.9728 162.032 69.4679 161.893 70.0144C161.867 70.1201 161.772 70.1902 161.668 70.1902ZM104.931 69.467C104.889 69.467 104.846 69.4555 104.807 69.4313C104.698 69.3626 104.666 69.2189 104.734 69.1101C104.792 69.0185 104.851 68.9271 104.912 68.8356C105.149 68.4778 105.396 68.1374 105.645 67.8237C105.725 67.7233 105.872 67.7067 105.973 67.7868C106.073 67.8669 106.09 68.0135 106.009 68.1139C105.768 68.4167 105.529 68.7461 105.3 69.0926C105.241 69.1812 105.184 69.2697 105.128 69.3585C105.084 69.4286 105.008 69.467 104.931 69.467ZM162.356 67.1644C162.341 67.1644 162.326 67.1629 162.311 67.1601C162.185 67.1354 162.102 67.013 162.127 66.8869C162.227 66.3769 162.318 65.8655 162.398 65.3674C162.418 65.2403 162.537 65.1536 162.664 65.1742C162.791 65.1944 162.877 65.3136 162.857 65.4407C162.777 65.9442 162.685 66.461 162.584 66.9766C162.562 67.0876 162.465 67.1644 162.356 67.1644ZM106.873 67.0575C106.811 67.0575 106.75 67.033 106.704 66.9844C106.615 66.891 106.62 66.7437 106.713 66.6554C107.11 66.2807 107.528 65.9477 107.957 65.6656C108.065 65.5952 108.209 65.6249 108.279 65.7322C108.35 65.8396 108.32 65.9841 108.213 66.0546C107.807 66.3217 107.41 66.6379 107.033 66.9938C106.988 67.0362 106.93 67.0575 106.873 67.0575ZM123.241 66.1439C123.241 66.1439 123.241 66.1439 123.24 66.1439C122.744 66.1421 122.23 66.1135 121.67 66.0567C121.542 66.0436 121.449 65.9295 121.461 65.8016C121.474 65.6735 121.589 65.5804 121.716 65.5934C122.262 65.6487 122.761 65.6765 123.242 65.6783C123.371 65.6787 123.475 65.7834 123.474 65.9119C123.474 66.0402 123.37 66.1439 123.241 66.1439ZM124.789 66.0497C124.674 66.0497 124.574 65.9645 124.558 65.8473C124.541 65.7199 124.631 65.603 124.758 65.5862C125.269 65.5185 125.766 65.4112 126.235 65.2671C126.358 65.2293 126.488 65.2984 126.526 65.4212C126.564 65.544 126.495 65.6743 126.372 65.7122C125.878 65.8638 125.356 65.9767 124.819 66.0477C124.809 66.049 124.799 66.0497 124.789 66.0497ZM120.156 65.8495C120.143 65.8495 120.131 65.8483 120.118 65.8463C119.56 65.7549 119.005 65.6495 118.584 65.568C118.458 65.5436 118.375 65.4215 118.4 65.2953C118.424 65.1691 118.546 65.0868 118.672 65.1109C119.091 65.1919 119.642 65.2965 120.193 65.3869C120.32 65.4077 120.406 65.5274 120.385 65.6543C120.367 65.7683 120.268 65.8495 120.156 65.8495ZM109.456 65.3736C109.364 65.3736 109.277 65.3186 109.24 65.2277C109.192 65.1085 109.25 64.9729 109.369 64.9248C109.853 64.73 110.367 64.5794 110.899 64.4773C111.025 64.4527 111.147 64.5356 111.171 64.662C111.196 64.7882 111.113 64.9102 110.987 64.9344C110.484 65.031 109.999 65.1729 109.543 65.3567C109.515 65.3682 109.485 65.3736 109.456 65.3736ZM117.105 65.2753C117.09 65.2753 117.076 65.274 117.061 65.2711C116.45 65.1545 115.981 65.072 115.54 65.0038C115.413 64.9841 115.326 64.8653 115.345 64.7381C115.365 64.6111 115.484 64.5238 115.611 64.5438C116.058 64.613 116.532 64.6962 117.148 64.8139C117.274 64.838 117.357 64.9599 117.333 65.0861C117.312 65.1976 117.214 65.2753 117.105 65.2753ZM127.738 65.1367C127.654 65.1367 127.572 65.0909 127.531 65.0109C127.472 64.8968 127.517 64.7563 127.631 64.6971C128.068 64.4708 128.497 64.1992 128.907 63.8901C129.009 63.8126 129.155 63.8328 129.233 63.9356C129.31 64.0382 129.29 64.184 129.187 64.2615C128.757 64.5866 128.305 64.8722 127.845 65.1108C127.81 65.1285 127.774 65.1367 127.738 65.1367ZM114.035 64.8185C114.028 64.8185 114.022 64.8182 114.015 64.8177C113.47 64.7726 112.981 64.7573 112.491 64.7728C112.364 64.775 112.255 64.676 112.251 64.5476C112.247 64.419 112.348 64.3115 112.477 64.3075C112.984 64.2916 113.49 64.3071 114.054 64.3535C114.182 64.3642 114.277 64.4766 114.267 64.6048C114.256 64.7264 114.155 64.8185 114.035 64.8185ZM162.842 64.1002C162.832 64.1002 162.823 64.0996 162.814 64.0984C162.686 64.0832 162.595 63.9674 162.61 63.8398C162.671 63.3314 162.722 62.815 162.762 62.3051C162.772 62.177 162.884 62.0811 163.012 62.0914C163.141 62.1014 163.236 62.2135 163.226 62.3416C163.185 62.8578 163.134 63.3804 163.072 63.8948C163.058 64.0133 162.958 64.1002 162.842 64.1002ZM130.211 63.2852C130.152 63.2852 130.093 63.2628 130.047 63.2179C129.956 63.1274 129.955 62.9801 130.046 62.8887C130.388 62.5428 130.726 62.1575 131.05 61.743C131.129 61.6418 131.275 61.624 131.377 61.7032C131.478 61.7824 131.496 61.9286 131.416 62.03C131.081 62.4583 130.731 62.8575 130.376 63.2159C130.331 63.2621 130.271 63.2852 130.211 63.2852ZM163.027 61.0078C162.908 61.0078 162.807 60.9168 162.796 60.7956C162.752 60.2962 162.64 59.8117 162.462 59.3554C162.416 59.2355 162.475 59.1006 162.595 59.0541C162.716 59.0074 162.85 59.0671 162.896 59.1869C163.089 59.6841 163.211 60.2114 163.26 60.7545C163.271 60.8824 163.176 60.9956 163.048 61.0069C163.041 61.0076 163.034 61.0078 163.027 61.0078ZM132.219 60.9222C132.163 60.9222 132.107 60.9022 132.062 60.8613C131.967 60.7746 131.96 60.6276 132.047 60.5326C132.394 60.1524 132.77 59.7796 133.166 59.4242C133.261 59.3383 133.408 59.346 133.494 59.4417C133.58 59.5373 133.572 59.6843 133.477 59.7703C133.093 60.1157 132.728 60.4776 132.391 60.8464C132.345 60.8966 132.282 60.9222 132.219 60.9222ZM134.522 58.8458C134.451 58.8458 134.381 58.8137 134.335 58.7525C134.258 58.6495 134.279 58.5038 134.382 58.4266C134.792 58.1193 135.228 57.8201 135.676 57.5375C135.785 57.4691 135.929 57.5015 135.997 57.6103C136.066 57.7191 136.033 57.8629 135.924 57.9314C135.487 58.2075 135.062 58.4993 134.661 58.7994C134.619 58.8307 134.57 58.8458 134.522 58.8458ZM161.926 58.1557C161.855 58.1557 161.785 58.1235 161.74 58.0624C161.453 57.6802 161.106 57.3159 160.709 56.9797C160.611 56.8965 160.599 56.7497 160.682 56.6516C160.765 56.5533 160.912 56.5412 161.01 56.6242C161.434 56.983 161.805 57.3729 162.112 57.7833C162.19 57.8861 162.168 58.0319 162.066 58.109C162.024 58.1404 161.975 58.1557 161.926 58.1557ZM137.143 57.1891C137.06 57.1891 136.979 57.1443 136.937 57.0657C136.877 56.9524 136.92 56.8113 137.034 56.7509C137.486 56.5098 137.96 56.2778 138.441 56.0612C138.558 56.0085 138.696 56.0608 138.749 56.178C138.801 56.2953 138.749 56.4332 138.632 56.4859C138.16 56.6981 137.696 56.9256 137.252 57.1618C137.217 57.1804 137.18 57.1891 137.143 57.1891ZM159.591 56.1445C159.551 56.1445 159.511 56.1342 159.474 56.1126C159.057 55.8681 158.598 55.6407 158.112 55.4365C157.994 55.3866 157.938 55.2503 157.988 55.1316C158.038 55.0131 158.174 54.9576 158.293 55.0072C158.798 55.2195 159.274 55.4561 159.709 55.7109C159.82 55.7759 159.857 55.9184 159.792 56.0295C159.749 56.1032 159.671 56.1445 159.591 56.1445ZM139.972 55.9136C139.877 55.9136 139.789 55.8562 139.754 55.7629C139.708 55.6428 139.769 55.5084 139.889 55.463C140.371 55.281 140.869 55.1091 141.369 54.9521C141.492 54.9132 141.623 54.9818 141.661 55.1044C141.699 55.2271 141.631 55.3578 141.509 55.3961C141.016 55.5507 140.527 55.7195 140.054 55.8983C140.027 55.9088 139.999 55.9136 139.972 55.9136ZM142.932 54.9833C142.828 54.9833 142.734 54.9132 142.707 54.808C142.675 54.6833 142.75 54.5565 142.875 54.5248C143.376 54.3974 143.889 54.2809 144.401 54.1787C144.527 54.1533 144.649 54.2353 144.675 54.3613C144.7 54.4875 144.618 54.61 144.492 54.6353C143.988 54.7358 143.483 54.8504 142.99 54.9759C142.971 54.981 142.951 54.9833 142.932 54.9833ZM156.742 54.9316C156.72 54.9316 156.697 54.9285 156.675 54.9217C156.202 54.7787 155.703 54.6515 155.191 54.5433C155.065 54.5167 154.984 54.3932 155.011 54.2674C155.037 54.1414 155.161 54.0613 155.287 54.0876C155.812 54.1987 156.325 54.3292 156.81 54.4758C156.933 54.5131 157.002 54.643 156.965 54.766C156.935 54.8667 156.842 54.9316 156.742 54.9316ZM145.975 54.3754C145.862 54.3754 145.762 54.2921 145.745 54.1763C145.727 54.049 145.815 53.9308 145.942 53.9122C146.456 53.8368 146.978 53.7739 147.494 53.7251C147.623 53.7131 147.735 53.8069 147.748 53.9348C147.76 54.0628 147.666 54.1765 147.538 54.1885C147.03 54.2366 146.515 54.2987 146.009 54.3728C145.998 54.3746 145.986 54.3754 145.975 54.3754ZM153.709 54.2845C153.699 54.2845 153.688 54.2835 153.678 54.282C153.181 54.2145 152.667 54.1615 152.149 54.1247C152.021 54.1156 151.924 54.0042 151.933 53.8761C151.942 53.7479 152.053 53.651 152.182 53.6603C152.71 53.6979 153.234 53.752 153.741 53.8209C153.868 53.8383 153.957 53.9556 153.94 54.083C153.924 54.1997 153.824 54.2845 153.709 54.2845ZM149.063 54.0839C148.939 54.0839 148.836 53.9862 148.831 53.8608C148.825 53.7325 148.925 53.6239 149.054 53.6185C149.577 53.5966 150.103 53.5886 150.618 53.5953C150.747 53.5971 150.85 53.7026 150.848 53.831C150.846 53.9586 150.743 54.0609 150.615 54.0609C150.614 54.0609 150.613 54.0609 150.612 54.0609C150.105 54.054 149.588 54.062 149.073 54.0836C149.07 54.0838 149.067 54.0839 149.063 54.0839Z" fill="#EB6E58"/>
<path d="M195.571 74.1613C195.475 74.1613 195.386 74.102 195.352 74.0068C195.308 73.8858 195.372 73.7526 195.492 73.7093C195.498 73.7073 196.038 73.5131 196.936 73.1376C197.055 73.0878 197.191 73.1438 197.241 73.2624C197.29 73.381 197.234 73.5175 197.115 73.5671C196.206 73.9479 195.672 74.1397 195.65 74.1476C195.624 74.1569 195.597 74.1613 195.571 74.1613ZM198.453 72.9628C198.364 72.9628 198.28 72.9121 198.241 72.8259C198.188 72.7089 198.24 72.571 198.357 72.5179C198.822 72.307 199.295 72.0855 199.761 71.8594C199.876 71.8032 200.015 71.8517 200.072 71.9672C200.128 72.083 200.08 72.2222 199.964 72.2783C199.494 72.5063 199.018 72.7294 198.549 72.942C198.518 72.9561 198.485 72.9628 198.453 72.9628ZM201.253 71.6042C201.169 71.6042 201.088 71.5584 201.046 71.4785C200.987 71.3643 201.032 71.2238 201.146 71.1647C201.604 70.9275 202.063 70.6817 202.512 70.4339C202.625 70.3714 202.766 70.4125 202.829 70.5252C202.891 70.6377 202.85 70.7793 202.737 70.8415C202.285 71.0914 201.821 71.3392 201.36 71.5781C201.326 71.5957 201.289 71.6042 201.253 71.6042ZM203.976 70.1003C203.896 70.1003 203.819 70.0592 203.775 69.9855C203.71 69.8748 203.747 69.7322 203.858 69.6667C204.305 69.4031 204.75 69.1323 205.18 68.8619C205.289 68.7936 205.433 68.8262 205.501 68.9351C205.57 69.0438 205.537 69.1877 205.428 69.256C204.994 69.5287 204.546 69.8019 204.094 70.0679C204.057 70.0898 204.016 70.1003 203.976 70.1003ZM206.607 68.4439C206.532 68.4439 206.459 68.408 206.414 68.3412C206.342 68.2345 206.37 68.0898 206.477 68.0181C206.908 67.7279 207.334 67.4302 207.745 67.1329C207.849 67.0576 207.995 67.0811 208.07 67.1852C208.145 67.2894 208.122 67.4349 208.018 67.5102C207.603 67.8104 207.172 68.1111 206.737 68.4041C206.697 68.4311 206.652 68.4439 206.607 68.4439ZM209.124 66.6211C209.055 66.6211 208.987 66.5904 208.941 66.5315C208.861 66.4304 208.88 66.2839 208.981 66.2048C209.392 65.8845 209.795 65.5567 210.179 65.2308C210.277 65.1475 210.424 65.1598 210.507 65.2578C210.591 65.3559 210.578 65.5028 210.48 65.5859C210.091 65.9157 209.683 66.2476 209.267 66.5718C209.225 66.6052 209.174 66.6211 209.124 66.6211ZM211.492 64.6134C211.429 64.6134 211.366 64.5882 211.321 64.5387C211.233 64.4444 211.239 64.297 211.333 64.2096C211.716 63.856 212.088 63.4947 212.439 63.1361C212.529 63.0443 212.676 63.0428 212.768 63.1328C212.86 63.2228 212.862 63.3702 212.772 63.462C212.415 63.826 212.037 64.1926 211.65 64.5516C211.605 64.5929 211.548 64.6134 211.492 64.6134ZM213.663 62.3939C213.608 62.3939 213.554 62.3749 213.509 62.3358C213.413 62.251 213.403 62.1039 213.488 62.0072C213.832 61.6161 214.163 61.2172 214.471 60.8212C214.55 60.72 214.696 60.7014 214.798 60.7806C214.899 60.8596 214.918 61.0057 214.838 61.1073C214.525 61.5104 214.188 61.9166 213.838 62.3148C213.792 62.3672 213.728 62.3939 213.663 62.3939ZM215.568 59.94C215.523 59.94 215.478 59.9271 215.438 59.9001C215.331 59.828 215.303 59.6833 215.375 59.5769C215.665 59.1477 215.939 58.7094 216.188 58.2742C216.252 58.1624 216.394 58.124 216.506 58.188C216.617 58.2519 216.656 58.3941 216.592 58.5056C216.337 58.9508 216.058 59.3989 215.761 59.8375C215.716 59.9041 215.643 59.94 215.568 59.94ZM217.106 57.2476C217.073 57.2476 217.039 57.2406 217.007 57.2257C216.891 57.1711 216.841 57.0324 216.895 56.916C217.113 56.4509 217.311 55.9767 217.482 55.5071C217.526 55.3864 217.66 55.324 217.781 55.3684C217.901 55.4124 217.964 55.546 217.919 55.6668C217.743 56.1494 217.541 56.6362 217.317 57.1136C217.277 57.1981 217.193 57.2476 217.106 57.2476ZM218.163 54.3418C218.143 54.3418 218.123 54.3394 218.104 54.3344C217.979 54.302 217.905 54.1748 217.937 54.0504C218.066 53.5578 218.17 53.0556 218.248 52.558C218.268 52.4309 218.388 52.3443 218.515 52.3642C218.642 52.3841 218.728 52.5033 218.708 52.6303C218.628 53.1429 218.52 53.6603 218.388 54.1678C218.361 54.2726 218.266 54.3418 218.163 54.3418ZM218.641 51.2873C218.637 51.2873 218.633 51.2873 218.628 51.2871C218.5 51.2801 218.402 51.1704 218.409 51.042C218.424 50.7673 218.431 50.4874 218.431 50.2106C218.431 49.9798 218.426 49.7454 218.416 49.5142C218.41 49.3857 218.509 49.2769 218.638 49.2712C218.765 49.2637 218.875 49.3646 218.881 49.4932C218.891 49.7314 218.897 49.9728 218.897 50.2108C218.897 50.4962 218.889 50.7845 218.873 51.0674C218.867 51.1914 218.764 51.2873 218.641 51.2873ZM218.502 48.1922C218.388 48.1922 218.289 48.1082 218.272 47.9922C218.201 47.4952 218.106 46.9893 217.987 46.4888C217.958 46.3638 218.035 46.2383 218.16 46.2088C218.285 46.1792 218.411 46.2567 218.44 46.3818C218.562 46.896 218.66 47.4156 218.733 47.9265C218.751 48.0538 218.663 48.1717 218.536 48.1899C218.524 48.1915 218.513 48.1922 218.502 48.1922ZM217.793 45.1747C217.695 45.1747 217.604 45.1123 217.572 45.014C217.417 44.5384 217.238 44.0542 217.041 43.5751C216.992 43.4562 217.049 43.3202 217.167 43.2711C217.286 43.2224 217.422 43.2788 217.471 43.3977C217.673 43.8876 217.856 44.3828 218.015 44.8696C218.055 44.992 217.988 45.1231 217.866 45.1632C217.842 45.171 217.817 45.1747 217.793 45.1747ZM216.616 42.3061C216.53 42.3061 216.447 42.2582 216.407 42.1756C216.18 41.7116 215.944 41.2491 215.705 40.8008C215.645 40.6872 215.688 40.5464 215.802 40.4859C215.915 40.4255 216.056 40.4688 216.116 40.5822C216.357 41.035 216.596 41.5023 216.825 41.9708C216.882 42.0863 216.834 42.2257 216.718 42.2823C216.685 42.2983 216.65 42.3061 216.616 42.3061ZM215.158 39.568C215.078 39.568 215 39.5263 214.957 39.4517C214.696 39.0026 214.428 38.5587 214.158 38.1323C214.089 38.0238 214.122 37.88 214.23 37.8113C214.339 37.7424 214.483 37.7748 214.551 37.8834C214.824 38.3148 215.096 38.764 215.359 39.2184C215.424 39.3296 215.386 39.4721 215.275 39.5366C215.238 39.5577 215.198 39.568 215.158 39.568ZM213.498 36.9474C213.424 36.9474 213.352 36.9123 213.307 36.8472C213.011 36.4202 212.706 36.0012 212.4 35.6016C212.322 35.4996 212.342 35.3535 212.444 35.2754C212.546 35.1972 212.692 35.2169 212.77 35.3189C213.08 35.7241 213.389 36.149 213.689 36.5819C213.763 36.6875 213.737 36.8325 213.631 36.9058C213.59 36.9339 213.544 36.9474 213.498 36.9474ZM193.559 36.7194C193.494 36.7194 193.43 36.7179 193.367 36.7149C193.239 36.7089 193.139 36.5999 193.145 36.4716C193.151 36.3431 193.26 36.2426 193.389 36.2499C193.83 36.2706 194.322 36.2096 194.853 36.0697C194.978 36.0369 195.105 36.1113 195.137 36.2356C195.17 36.3599 195.096 36.4874 194.972 36.5202C194.469 36.6523 193.994 36.7194 193.559 36.7194ZM191.923 36.2444C191.876 36.2444 191.827 36.2297 191.786 36.1991C191.35 35.8789 191.032 35.4167 190.84 34.8256C190.8 34.7032 190.868 34.572 190.99 34.5324C191.112 34.4927 191.243 34.5597 191.283 34.682C191.444 35.1786 191.706 35.5626 192.062 35.8242C192.165 35.9003 192.187 36.0459 192.111 36.1495C192.065 36.2116 191.995 36.2444 191.923 36.2444ZM196.368 35.9923C196.28 35.9923 196.196 35.9423 196.157 35.8576C196.103 35.741 196.153 35.6025 196.27 35.5482C196.711 35.3432 197.16 35.0967 197.604 34.8158C197.713 34.747 197.857 34.7795 197.926 34.8881C197.994 34.9968 197.962 35.1407 197.853 35.2093C197.392 35.5009 196.925 35.7569 196.466 35.9706C196.434 35.9853 196.401 35.9923 196.368 35.9923ZM211.613 34.4842C211.547 34.4842 211.482 34.4563 211.436 34.4019C211.101 34.0063 210.755 33.6206 210.41 33.2552C210.322 33.1619 210.326 33.0147 210.419 32.9262C210.512 32.8379 210.66 32.8421 210.748 32.9353C211.099 33.3066 211.45 33.6988 211.791 34.1009C211.874 34.199 211.862 34.3458 211.764 34.4291C211.72 34.4661 211.667 34.4842 211.613 34.4842ZM198.993 34.3436C198.924 34.3436 198.857 34.3137 198.811 34.2561C198.73 34.1557 198.747 34.0091 198.847 33.9289C199.247 33.6093 199.63 33.2672 199.987 32.9119C200.078 32.8213 200.226 32.8215 200.316 32.9125C200.407 33.0036 200.407 33.151 200.316 33.2417C199.947 33.6089 199.551 33.9625 199.138 34.2926C199.095 34.327 199.044 34.3436 198.993 34.3436ZM190.856 33.4558C190.855 33.4558 190.854 33.4558 190.853 33.4558C190.724 33.4543 190.621 33.3491 190.623 33.2205C190.629 32.6755 190.708 32.1399 190.859 31.6278C190.896 31.5047 191.025 31.4339 191.149 31.4705C191.272 31.507 191.342 31.6365 191.306 31.7597C191.167 32.2305 191.094 32.7236 191.088 33.2257C191.087 33.3533 190.983 33.4558 190.856 33.4558ZM209.48 32.2335C209.423 32.2335 209.366 32.2126 209.321 32.1707C208.942 31.8161 208.554 31.4752 208.167 31.1577C208.067 31.0762 208.053 30.9293 208.134 30.8299C208.216 30.7304 208.363 30.7161 208.462 30.7976C208.857 31.1219 209.253 31.4694 209.639 31.831C209.733 31.9189 209.738 32.0661 209.65 32.16C209.604 32.2088 209.542 32.2335 209.48 32.2335ZM201.185 32.1516C201.135 32.1516 201.084 32.1354 201.041 32.1018C200.94 32.0223 200.923 31.876 201.002 31.7749C201.328 31.36 201.614 30.9375 201.852 30.519C201.915 30.4071 202.057 30.368 202.169 30.4312C202.281 30.4947 202.32 30.6367 202.257 30.7487C202.008 31.1874 201.709 31.6297 201.368 32.0628C201.322 32.1211 201.254 32.1516 201.185 32.1516ZM191.723 30.5197C191.681 30.5197 191.637 30.5079 191.599 30.4834C191.49 30.4144 191.458 30.2706 191.527 30.1622C191.81 29.7169 192.157 29.3022 192.558 28.9295C192.652 28.8419 192.8 28.8476 192.887 28.9417C192.975 29.0359 192.969 29.1832 192.875 29.2708C192.503 29.6162 192.181 30 191.92 30.4117C191.876 30.4814 191.8 30.5197 191.723 30.5197ZM207.08 30.2703C207.034 30.2703 206.987 30.2564 206.946 30.2277C206.524 29.9297 206.091 29.6495 205.66 29.3945C205.549 29.3292 205.513 29.1863 205.578 29.0757C205.644 28.9649 205.786 28.9285 205.897 28.9937C206.339 29.255 206.782 29.542 207.215 29.847C207.32 29.9212 207.345 30.0665 207.271 30.1715C207.225 30.2358 207.153 30.2703 207.08 30.2703ZM202.684 29.4512C202.66 29.4512 202.637 29.4477 202.613 29.4402C202.491 29.401 202.423 29.2701 202.462 29.1477C202.622 28.6462 202.705 28.1572 202.708 27.6937C202.709 27.5658 202.813 27.4626 202.941 27.4626C202.942 27.4626 202.942 27.4626 202.943 27.4626C203.067 27.4635 203.168 27.5618 203.173 27.6846C203.62 27.8508 204.069 28.0419 204.511 28.2532C204.627 28.3086 204.677 28.4478 204.621 28.5636C204.566 28.6795 204.427 28.7288 204.311 28.6732C203.926 28.4892 203.535 28.3209 203.146 28.172C203.107 28.5359 203.027 28.91 202.906 29.289C202.874 29.3882 202.783 29.4512 202.684 29.4512ZM193.965 28.4168C193.884 28.4168 193.806 28.3751 193.763 28.3002C193.699 28.1889 193.737 28.0466 193.848 27.9823C194.298 27.7228 194.786 27.5019 195.301 27.3259C195.423 27.284 195.555 27.349 195.597 27.4707C195.638 27.5925 195.573 27.7248 195.452 27.7663C194.966 27.9327 194.504 28.1409 194.081 28.3855C194.044 28.4066 194.004 28.4168 193.965 28.4168ZM201.498 27.643C201.48 27.643 201.461 27.6407 201.443 27.6361C200.942 27.5133 200.438 27.4205 199.945 27.3601C199.817 27.3445 199.727 27.2285 199.742 27.1008C199.758 26.9733 199.873 26.8821 200.001 26.898C200.513 26.9605 201.035 27.0566 201.553 27.1841C201.678 27.2148 201.755 27.3407 201.724 27.4657C201.698 27.5719 201.603 27.643 201.498 27.643ZM196.88 27.4058C196.768 27.4058 196.669 27.3246 196.651 27.2103C196.63 27.0833 196.716 26.9637 196.843 26.9432C197.354 26.8605 197.885 26.8156 198.422 26.8093C198.423 26.8093 198.424 26.8093 198.425 26.8093C198.553 26.8093 198.656 26.9118 198.658 27.0394C198.659 27.1679 198.556 27.2732 198.428 27.2748C197.913 27.2808 197.405 27.3237 196.918 27.4027C196.905 27.4048 196.892 27.4058 196.88 27.4058ZM202.657 26.4133C202.565 26.4133 202.478 26.3585 202.441 26.2683C202.338 26.0143 202.202 25.7673 202.039 25.5345C201.918 25.3626 201.787 25.1902 201.65 25.0219C201.569 24.9225 201.583 24.7758 201.683 24.6943C201.782 24.6131 201.929 24.6276 202.01 24.7272C202.155 24.9044 202.293 25.0861 202.42 25.2674C202.603 25.5287 202.755 25.8063 202.872 26.0925C202.921 26.2115 202.864 26.3474 202.745 26.396C202.716 26.4077 202.686 26.4133 202.657 26.4133ZM200.759 23.9868C200.703 23.9868 200.647 23.9668 200.603 23.9265C200.239 23.5978 199.839 23.2788 199.411 22.9785C199.306 22.9045 199.281 22.7594 199.355 22.6541C199.429 22.5489 199.574 22.5237 199.679 22.5976C200.122 22.9087 200.538 23.2398 200.915 23.5813C201.01 23.6675 201.018 23.8145 200.932 23.9101C200.885 23.9609 200.822 23.9868 200.759 23.9868ZM179.446 22.8882C179.384 22.8882 179.321 22.8633 179.275 22.8142C179.188 22.7201 179.193 22.5728 179.287 22.4851C179.607 22.1865 179.955 21.9037 180.321 21.6442C180.426 21.5698 180.571 21.5945 180.645 21.6994C180.72 21.8044 180.695 21.9496 180.59 22.0239C180.241 22.2714 179.91 22.541 179.605 22.8253C179.56 22.8674 179.503 22.8882 179.446 22.8882ZM198.23 22.1975C198.192 22.1975 198.153 22.188 198.117 22.168C197.682 21.9254 197.221 21.6954 196.747 21.4844C196.63 21.4322 196.577 21.2945 196.629 21.1771C196.682 21.0596 196.82 21.0068 196.937 21.0591C197.424 21.2757 197.897 21.5121 198.344 21.7614C198.456 21.8241 198.496 21.9659 198.434 22.0782C198.391 22.1545 198.312 22.1975 198.23 22.1975ZM181.784 21.2663C181.699 21.2663 181.617 21.2199 181.576 21.1392C181.518 21.0246 181.563 20.8845 181.678 20.8261C182.136 20.5926 182.624 20.3822 183.13 20.2012C183.251 20.1581 183.384 20.2209 183.428 20.3419C183.471 20.4629 183.408 20.5962 183.287 20.6395C182.8 20.8141 182.329 21.0163 181.889 21.2408C181.855 21.2581 181.819 21.2663 181.784 21.2663ZM195.399 20.9332C195.374 20.9332 195.348 20.929 195.322 20.9202C194.846 20.7532 194.353 20.6016 193.857 20.4696C193.733 20.4365 193.659 20.3089 193.692 20.1847C193.725 20.0605 193.852 19.9868 193.977 20.0197C194.484 20.1547 194.989 20.3099 195.476 20.4807C195.598 20.5232 195.661 20.656 195.619 20.7772C195.586 20.8732 195.495 20.9332 195.399 20.9332ZM184.696 20.2142C184.591 20.2142 184.495 20.142 184.47 20.0349C184.44 19.9098 184.518 19.7844 184.643 19.7547C185.142 19.6368 185.664 19.5407 186.192 19.4695C186.32 19.4526 186.437 19.5416 186.454 19.6691C186.471 19.7965 186.382 19.9136 186.254 19.9309C185.741 20 185.235 20.0932 184.75 20.2078C184.732 20.2121 184.714 20.2142 184.696 20.2142ZM192.404 20.1339C192.39 20.1339 192.375 20.1325 192.361 20.1299C191.858 20.0353 191.348 19.9586 190.843 19.9017C190.715 19.8872 190.623 19.772 190.638 19.6444C190.652 19.5166 190.768 19.4246 190.895 19.4391C191.411 19.4972 191.933 19.5757 192.447 19.6724C192.573 19.6962 192.656 19.818 192.633 19.9443C192.611 20.056 192.514 20.1339 192.404 20.1339ZM187.769 19.795C187.645 19.795 187.542 19.6977 187.536 19.5728C187.53 19.4444 187.63 19.3355 187.758 19.3298C188.275 19.3064 188.805 19.3041 189.329 19.3228C189.458 19.3274 189.558 19.4353 189.553 19.5637C189.549 19.6922 189.445 19.7933 189.312 19.7881C188.801 19.77 188.283 19.7718 187.779 19.7949C187.776 19.795 187.772 19.795 187.769 19.795Z" fill="#EB6E58"/>
<path d="M253.918 85.7571C253.871 85.7571 253.824 85.743 253.783 85.7138C253.678 85.639 253.654 85.4938 253.729 85.389C254.014 84.9897 254.28 84.5536 254.521 84.0924C254.581 83.9786 254.721 83.9343 254.835 83.9938C254.949 84.0534 254.993 84.194 254.934 84.3081C254.683 84.7881 254.405 85.243 254.108 85.6596C254.062 85.7233 253.991 85.7571 253.918 85.7571ZM255.356 83.0146C255.329 83.0146 255.301 83.0099 255.275 83.0001C255.154 82.9555 255.093 82.8217 255.137 82.7011C255.312 82.2284 255.459 81.738 255.575 81.2432C255.604 81.118 255.729 81.0405 255.855 81.0694C255.98 81.0988 256.057 81.224 256.028 81.3491C255.908 81.8627 255.755 82.3718 255.574 82.8624C255.539 82.9564 255.45 83.0146 255.356 83.0146ZM256.062 80.0004C256.054 80.0004 256.045 79.9998 256.037 79.9989C255.909 79.985 255.816 79.8702 255.83 79.7423C255.881 79.2789 255.907 78.8032 255.907 78.3288L255.906 78.2207C255.905 78.0922 256.008 77.987 256.137 77.9861C256.137 77.986 256.138 77.986 256.139 77.986C256.266 77.986 256.371 78.0889 256.372 78.2168L256.372 78.3289C256.372 78.8202 256.346 79.3126 256.293 79.7928C256.28 79.912 256.179 80.0004 256.062 80.0004ZM256.04 76.9036C255.924 76.9036 255.823 76.8165 255.809 76.6981C255.751 76.2023 255.665 75.6957 255.553 75.1921C255.525 75.0666 255.604 74.9423 255.73 74.9144C255.856 74.887 255.98 74.9659 256.007 75.0913C256.122 75.6101 256.211 76.1323 256.272 76.6435C256.287 76.7711 256.195 76.8869 256.068 76.9019C256.059 76.9031 256.05 76.9036 256.04 76.9036ZM255.374 73.8772C255.276 73.8772 255.184 73.8142 255.153 73.7152C255.088 73.5106 255.017 73.3026 254.943 73.0967C254.848 72.8318 254.732 72.5664 254.601 72.3083C254.542 72.1939 254.588 72.0537 254.702 71.9952C254.817 71.9369 254.957 71.9823 255.015 72.0969C255.156 72.3724 255.279 72.6558 255.381 72.9394C255.457 73.1503 255.529 73.3637 255.596 73.5736C255.635 73.696 255.568 73.827 255.445 73.8661C255.422 73.8736 255.398 73.8772 255.374 73.8772ZM253.97 71.1324C253.901 71.1324 253.833 71.1019 253.787 71.0434C253.488 70.6628 253.142 70.2888 252.759 69.9317C252.665 69.8439 252.66 69.6966 252.748 69.6026C252.836 69.5087 252.983 69.5033 253.077 69.591C253.478 69.9646 253.84 70.3565 254.153 70.756C254.232 70.8572 254.215 71.0035 254.114 71.0829C254.071 71.1162 254.02 71.1324 253.97 71.1324ZM242.464 70.265C242.463 70.265 242.462 70.265 242.461 70.265C241.925 70.2578 241.397 70.2302 240.893 70.1828C240.765 70.1708 240.671 70.0574 240.683 69.9293C240.695 69.8013 240.809 69.7083 240.936 69.7194C241.428 69.7655 241.943 69.7926 242.467 69.7994C242.596 69.8011 242.699 69.9067 242.697 70.0352C242.695 70.1626 242.591 70.265 242.464 70.265ZM244.016 70.2297C243.893 70.2297 243.791 70.1341 243.784 70.0103C243.776 69.8819 243.874 69.7719 244.002 69.7645C244.513 69.735 245.028 69.6876 245.534 69.6233C245.662 69.6077 245.778 69.6977 245.794 69.8252C245.811 69.9527 245.72 70.0691 245.593 70.0853C245.076 70.1509 244.55 70.1991 244.029 70.2292C244.025 70.2295 244.02 70.2297 244.016 70.2297ZM239.378 69.9639C239.364 69.9639 239.348 69.9624 239.333 69.9594C238.776 69.8489 238.261 69.709 237.803 69.5437C237.682 69.5002 237.619 69.3667 237.662 69.2459C237.706 69.1248 237.839 69.062 237.96 69.1058C238.397 69.2631 238.89 69.3966 239.424 69.5027C239.55 69.5278 239.632 69.6502 239.607 69.7764C239.585 69.8872 239.487 69.9639 239.378 69.9639ZM247.095 69.8379C246.987 69.8379 246.889 69.7615 246.867 69.6508C246.842 69.5248 246.924 69.4022 247.05 69.3769C247.564 69.2739 248.065 69.1529 248.54 69.0166C248.664 68.9811 248.793 69.0527 248.828 69.1763C248.864 69.2999 248.792 69.4288 248.668 69.4642C248.181 69.6038 247.667 69.728 247.141 69.8334C247.126 69.8364 247.11 69.8379 247.095 69.8379ZM251.718 69.0113C251.671 69.0113 251.623 68.997 251.582 68.9671C251.4 68.8353 251.211 68.7054 251.016 68.578C250.745 68.7109 250.459 68.8378 250.16 68.957C250.041 69.005 249.906 68.9467 249.858 68.8274C249.81 68.7081 249.868 68.5725 249.988 68.5249C250.181 68.4476 250.368 68.3672 250.55 68.2842C250.467 68.234 250.383 68.1844 250.299 68.1353C250.188 68.0706 250.15 67.9282 250.215 67.8171C250.28 67.706 250.422 67.6682 250.534 67.733C250.707 67.834 250.877 67.9372 251.044 68.0425C251.152 67.9861 251.257 67.9289 251.359 67.8707C251.47 67.8069 251.612 67.8456 251.676 67.9573C251.74 68.069 251.701 68.2111 251.59 68.2749C251.556 68.2942 251.522 68.3134 251.487 68.3324C251.613 68.4175 251.735 68.5034 251.855 68.5902C251.959 68.6655 251.982 68.811 251.907 68.9151C251.861 68.9778 251.79 69.0113 251.718 69.0113ZM236.498 68.8643C236.452 68.8643 236.405 68.8506 236.364 68.8218C235.928 68.5139 235.6 68.161 235.391 67.7729C235.354 67.7032 235.319 67.6326 235.289 67.5634C235.237 67.4459 235.29 67.3083 235.408 67.2565C235.525 67.205 235.663 67.258 235.715 67.3756C235.74 67.4337 235.769 67.493 235.801 67.552C235.976 67.876 236.255 68.1752 236.633 68.4412C236.738 68.5153 236.763 68.6604 236.689 68.7655C236.643 68.83 236.571 68.8643 236.498 68.8643ZM249.042 67.4444C249.009 67.4444 248.975 67.4371 248.942 67.4219C248.492 67.2074 248.017 67.003 247.532 66.8141C247.412 66.7675 247.353 66.6326 247.4 66.5127C247.447 66.393 247.581 66.3332 247.701 66.3802C248.197 66.5731 248.681 66.7822 249.142 67.0014C249.259 67.0564 249.308 67.1954 249.253 67.3114C249.213 67.3952 249.129 67.4444 249.042 67.4444ZM252.738 67.4096C252.674 67.4096 252.61 67.3836 252.564 67.3324C252.478 67.2367 252.486 67.0896 252.582 67.0037C252.979 66.6471 253.288 66.2647 253.501 65.8671C253.561 65.7537 253.702 65.711 253.816 65.7714C253.929 65.8319 253.972 65.973 253.911 66.0864C253.673 66.532 253.331 66.9573 252.893 67.3501C252.848 67.39 252.793 67.4096 252.738 67.4096ZM246.152 66.3146C246.129 66.3146 246.105 66.3112 246.082 66.3037C245.597 66.1505 245.099 66.0101 244.602 65.8865C244.477 65.8553 244.401 65.729 244.432 65.6045C244.463 65.4796 244.59 65.4038 244.714 65.4348C245.22 65.5606 245.728 65.7037 246.222 65.8598C246.344 65.8986 246.412 66.0293 246.374 66.1518C246.342 66.2512 246.25 66.3146 246.152 66.3146ZM235.637 66.2481C235.584 66.2481 235.53 66.2298 235.486 66.1921C235.388 66.1085 235.377 65.9614 235.461 65.8639C235.761 65.5136 236.249 65.2401 236.912 65.0506C237.036 65.0155 237.165 65.0869 237.2 65.2105C237.235 65.3343 237.164 65.4631 237.04 65.4984C236.467 65.6621 236.054 65.8872 235.814 66.167C235.768 66.2206 235.703 66.2481 235.637 66.2481ZM243.141 65.5656C243.127 65.5656 243.112 65.5643 243.098 65.5618C242.586 65.4677 242.075 65.3915 241.578 65.335C241.45 65.3204 241.359 65.205 241.373 65.0773C241.388 64.9496 241.504 64.858 241.631 64.8724C242.138 64.9302 242.66 65.0082 243.182 65.1039C243.309 65.1271 243.392 65.2484 243.369 65.3749C243.349 65.487 243.251 65.5656 243.141 65.5656ZM238.504 65.2507C238.384 65.2507 238.282 65.1582 238.272 65.0363C238.262 64.9083 238.358 64.796 238.486 64.7858C238.971 64.7473 239.503 64.7367 240.064 64.7551C240.192 64.7592 240.293 64.8669 240.289 64.9952C240.284 65.1236 240.178 65.2221 240.048 65.2203C239.505 65.2027 238.991 65.2128 238.523 65.2499C238.516 65.2506 238.51 65.2507 238.504 65.2507ZM254.092 64.7268C254.091 64.7268 254.09 64.7268 254.09 64.7268C253.961 64.7256 253.858 64.6205 253.859 64.4921L253.859 64.4583C253.859 64.0153 253.76 63.5493 253.566 63.0727C253.517 62.9537 253.574 62.8177 253.693 62.7692C253.812 62.7203 253.948 62.7774 253.997 62.8965C254.214 63.4294 254.325 63.9548 254.325 64.4585L254.324 64.496C254.323 64.624 254.219 64.7268 254.092 64.7268ZM253.014 61.8732C252.942 61.8732 252.871 61.84 252.825 61.7773C252.552 61.401 252.22 61.0129 251.841 60.6235C251.751 60.5314 251.753 60.3841 251.845 60.2943C251.937 60.2045 252.084 60.2063 252.174 60.2982C252.57 60.7037 252.915 61.1091 253.202 61.5036C253.277 61.6076 253.254 61.7532 253.15 61.8286C253.109 61.8589 253.061 61.8732 253.014 61.8732ZM250.857 59.654C250.806 59.654 250.755 59.6374 250.712 59.6033C250.324 59.2937 249.905 58.9977 249.467 58.7234C249.358 58.655 249.325 58.5114 249.393 58.4024C249.462 58.2936 249.605 58.2606 249.714 58.3288C250.167 58.6125 250.6 58.9188 251.002 59.2393C251.103 59.3194 251.119 59.4659 251.039 59.5664C250.993 59.624 250.926 59.654 250.857 59.654ZM248.234 58.0028C248.2 58.0028 248.165 57.9952 248.131 57.9787C247.687 57.7585 247.215 57.5504 246.73 57.3605C246.611 57.3137 246.552 57.1785 246.599 57.0589C246.646 56.9393 246.78 56.8801 246.9 56.9271C247.398 57.122 247.881 57.3355 248.338 57.5616C248.453 57.6186 248.5 57.7582 248.443 57.8735C248.403 57.9554 248.32 58.0028 248.234 58.0028ZM219.235 57.5847C219.131 57.5847 219.037 57.5153 219.01 57.4106C218.977 57.2863 219.051 57.159 219.176 57.1265C219.181 57.125 219.741 56.979 220.7 56.7695C220.825 56.7417 220.949 56.8215 220.977 56.9471C221.004 57.0728 220.925 57.1967 220.799 57.2241C219.851 57.4315 219.299 57.5755 219.293 57.577C219.274 57.5823 219.254 57.5847 219.235 57.5847ZM222.271 56.915C222.162 56.915 222.064 56.838 222.043 56.7268C222.018 56.6006 222.1 56.4783 222.226 56.4536C222.73 56.3551 223.245 56.2599 223.758 56.1703C223.884 56.1482 224.006 56.2327 224.028 56.3595C224.05 56.4862 223.965 56.6067 223.838 56.6289C223.328 56.7179 222.816 56.8127 222.316 56.9106C222.301 56.9137 222.286 56.915 222.271 56.915ZM245.351 56.8658C245.328 56.8658 245.305 56.8626 245.282 56.8554C244.806 56.7089 244.308 56.5728 243.799 56.4509C243.674 56.4209 243.597 56.2952 243.627 56.1702C243.657 56.0452 243.782 55.9683 243.908 55.9981C244.426 56.1222 244.934 56.2609 245.419 56.4105C245.542 56.4484 245.611 56.5787 245.573 56.7015C245.542 56.8016 245.45 56.8658 245.351 56.8658ZM225.331 56.3804C225.218 56.3804 225.118 56.2981 225.101 56.183C225.081 56.056 225.168 55.937 225.295 55.9175C225.808 55.8384 226.327 55.7637 226.837 55.6954C226.963 55.6787 227.081 55.7679 227.099 55.8953C227.116 56.0229 227.026 56.1398 226.899 56.157C226.392 56.2248 225.876 56.299 225.366 56.3776C225.354 56.3795 225.342 56.3804 225.331 56.3804ZM242.335 56.1387C242.321 56.1387 242.307 56.1374 242.293 56.1349C241.801 56.0456 241.288 55.9655 240.77 55.8971C240.642 55.8802 240.552 55.7633 240.569 55.6357C240.586 55.5083 240.702 55.4182 240.83 55.4355C241.357 55.505 241.877 55.5863 242.376 55.677C242.503 55.6999 242.587 55.8211 242.564 55.9476C242.543 56.0598 242.445 56.1387 242.335 56.1387ZM228.409 55.9693C228.292 55.9693 228.191 55.8814 228.178 55.7625C228.163 55.6347 228.255 55.5195 228.383 55.505C228.901 55.4469 229.423 55.3941 229.933 55.3481C230.06 55.3373 230.174 55.4311 230.186 55.559C230.197 55.6872 230.103 55.8002 229.975 55.8118C229.468 55.8575 228.95 55.91 228.435 55.9678C228.426 55.9687 228.417 55.9693 228.409 55.9693ZM239.257 55.7291C239.25 55.7291 239.243 55.7289 239.236 55.7283C238.735 55.6836 238.217 55.6476 237.696 55.6211C237.567 55.6145 237.468 55.505 237.475 55.3767C237.481 55.2483 237.593 55.15 237.719 55.1561C238.246 55.183 238.77 55.2195 239.277 55.2646C239.405 55.276 239.499 55.389 239.488 55.5172C239.477 55.638 239.376 55.7291 239.257 55.7291ZM231.502 55.6915C231.38 55.6915 231.278 55.5973 231.27 55.4741C231.261 55.3459 231.358 55.2349 231.486 55.2264C232.009 55.1916 232.532 55.1636 233.043 55.1428C233.172 55.1358 233.279 55.2374 233.285 55.3658C233.29 55.4942 233.19 55.6028 233.062 55.608C232.555 55.6287 232.036 55.6565 231.517 55.691C231.512 55.6914 231.507 55.6915 231.502 55.6915ZM236.156 55.5688C236.155 55.5688 236.153 55.5688 236.152 55.5688C235.867 55.5639 235.573 55.5633 235.281 55.5615C235.056 55.5615 234.831 55.563 234.607 55.5659C234.477 55.5652 234.373 55.4648 234.372 55.3363C234.37 55.2077 234.473 55.1022 234.601 55.1004C234.831 55.0974 235.064 55.0977 235.292 55.0959C235.584 55.0959 235.876 55.0984 236.16 55.1035C236.288 55.1055 236.391 55.2117 236.389 55.3401C236.386 55.4672 236.283 55.5688 236.156 55.5688Z" fill="#EB6E58"/>
<path d="M229.084 106.802C224.492 109.111 218.981 103.548 220.046 110.992C221.111 118.435 210.374 118.452 202.789 117.508C195.204 116.562 196.1 125.695 188.438 126.746C180.776 127.797 174.227 122.933 174.227 122.933L169.987 106.096C169.453 103.974 171.077 101.921 173.288 101.921H229.977C229.977 101.921 233.675 104.493 229.084 106.802Z" fill="#AEC8FF"/>
</svg>
