<svg width="320" height="158" viewBox="0 0 320 158" fill="none" xmlns="http://www.w3.org/2000/svg">
<path opacity="0.6" d="M299.832 157.032C302.426 152.467 306.489 141.62 308.809 130.391C315.846 95.9335 301.428 68.1309 273.403 51.6566C259.584 43.5184 246.83 42.3968 235.774 43.4138C223.206 44.5696 212.832 48.4944 205.583 48.0222C195.293 47.3503 189.421 33.7789 174.355 21.249C165.531 13.9143 153.552 6.95718 135.685 3.2095C113.87 -1.36919 84.8712 -1.76845 64.3087 6.78994C56.2168 10.1557 49.5072 14.8907 45.1453 21.2491C33.9249 37.5949 41.8351 59.0994 51.9516 76.1991C66.2897 100.433 47.5271 104.656 30.5727 114.267C17.7016 121.566 5.87194 132.396 10.3736 157.033H299.832V157.032Z" fill="#D5E6FE"/>
<path d="M319.638 157.457H0.362535C0.163141 157.457 0 157.294 0 157.095V156.971C0 156.772 0.163141 156.608 0.362535 156.608H319.637C319.837 156.608 320 156.772 320 156.971V157.095C320 157.294 319.837 157.457 319.638 157.457Z" fill="#8692C2"/>
<path d="M125.727 81.5979L119.766 152.472C119.766 152.472 119.142 156.768 122.337 156.776C127.592 156.788 148.49 156.776 148.49 156.776C148.49 156.776 144.535 155.881 144.583 153.869C144.64 151.497 151.55 80.927 151.55 80.927L125.727 81.5979Z" fill="#798EE8"/>
<path d="M150.456 155.487C149.423 155.49 129.191 155.525 124.074 155.459C121.844 155.431 121.453 153.476 121.434 152.211C121.425 151.604 121.502 151.156 121.502 151.156L121.657 149.314L122.052 144.619L122.401 140.47L122.85 135.14L123.227 130.641L127.463 80.2803L153.286 79.6101C153.286 79.6101 150.376 109.143 148.317 130.641C148.087 133.036 147.868 135.333 147.666 137.477C147.6 138.162 147.538 138.831 147.476 139.482C147.285 141.516 147.111 143.384 146.959 145.033C146.879 145.902 146.805 146.71 146.738 147.45C146.476 150.349 146.322 152.201 146.32 152.553C146.319 152.758 146.336 152.949 146.37 153.126C146.794 155.385 150.068 155.487 150.456 155.487Z" fill="#AEC3FF"/>
<g opacity="0.5">
<g opacity="0.5">
<path d="M90.5274 129.621C90.5274 129.621 81.1634 109.593 66.3773 100.673C64.4123 99.4879 62.0419 101.437 62.8062 103.601C62.8189 103.637 62.832 103.673 62.8458 103.71C64.2103 107.383 81.3451 119.127 90.5274 129.621Z" fill="#AEC3FF"/>
</g>
<g opacity="0.5">
<path d="M93.7935 135.162C93.7935 135.162 74.5547 112.613 52.5706 107.083C51.23 106.746 49.8125 107.496 49.4258 108.823C49.174 109.687 49.3195 110.86 50.4296 112.4C53.3899 116.506 78.7574 125.247 93.7935 135.162Z" fill="#AEC3FF"/>
</g>
</g>
<path d="M63.0117 43.0002L77.5309 101.321L79.5188 109.308L86.2812 136.472H211.914L186.989 43.0002H63.0117Z" fill="#A6C2FC"/>
<path d="M63.0121 43L61 43.6709L83.6066 138.501L86.282 136.472L63.0121 43Z" fill="#4F81ED"/>
<path d="M83.6074 138.501H208.467L211.915 136.472H86.2828L83.6074 138.501Z" fill="#849DEF"/>
<path d="M127.456 156.772H154.49V155.487H127.456V156.772Z" fill="#AEC3FF"/>
<path d="M147.614 138.5L147.475 139.483L122.051 144.619L122.4 140.471L122.566 138.5H147.614Z" fill="#8C9DF4"/>
<g opacity="0.5">
<path d="M150.456 155.487C149.422 155.49 129.19 155.525 124.073 155.459C121.843 155.431 121.452 153.476 121.434 152.211L146.738 147.45C146.475 150.349 146.321 152.201 146.319 152.553C146.318 152.758 146.336 152.949 146.369 153.126C146.793 155.385 150.068 155.487 150.456 155.487Z" fill="#8C9DF4"/>
</g>
<g opacity="0.5">
<g opacity="0.5">
<path d="M183.314 95.5783C183.314 95.5783 200.532 71.458 222.193 63.3004C225.072 62.2162 227.722 65.3619 226.188 68.0281C226.162 68.0725 226.136 68.1172 226.109 68.1622C223.416 72.6725 197.972 83.9814 183.314 95.5783Z" fill="#AEC3FF"/>
</g>
<g opacity="0.5">
<path d="M177.66 102.086C177.66 102.086 208.508 77.047 238.831 75.1101C240.68 74.992 242.366 76.3255 242.552 78.1691C242.674 79.3693 242.197 80.8796 240.359 82.639C235.457 87.3303 199.893 92.6777 177.66 102.086Z" fill="#AEC3FF"/>
</g>
</g>
<path d="M84.5249 24.9429C87.527 18.1518 99.1435 22.1938 99.1435 22.1938C99.1435 22.1938 105.365 35.8328 107.682 36.489C109.998 37.1452 104.639 23.7892 104.639 23.7892C109.282 24.0461 120.085 31.4374 120.085 31.4374C120.085 31.4374 117.135 45.7887 119.542 45.8546C121.948 45.9204 121.505 33.0141 121.505 33.0141C125.73 35.0194 129.073 40.8171 129.073 40.8171C132.952 50.0198 120.935 54.5262 120.935 54.5262C120.935 54.5262 120.02 59.5218 122.239 65.7518V65.752C122.239 65.752 122.776 66.9217 123.211 68.8369L122.004 68.6523C121.955 68.3135 121.894 67.984 121.82 67.6651C121.82 67.6629 121.819 67.6612 121.818 67.6593C121.817 67.6547 121.816 67.6501 121.815 67.6456C121.761 67.4464 121.683 67.1627 121.584 66.8167C121.584 66.8163 121.584 66.8159 121.583 66.8154C121.583 66.8146 121.583 66.8146 121.583 66.8138C121.324 66.0354 121.157 65.464 121.058 65.0548C121.058 65.0535 121.057 65.0524 121.057 65.0511C120.299 62.6158 119.158 59.4196 118.191 58.6378C118.191 58.6378 118.354 58.4704 118.534 58.1238C118.425 58.2877 118.311 58.4587 118.191 58.6378C115.448 62.7497 105.004 61.9081 99.4281 59.8472C93.8524 57.7863 96.6098 56.5465 100.112 54.3854C103.615 52.2243 110.002 53.9118 112.079 53.1721C114.156 52.4323 111.509 50.9704 107.627 50.6787C103.744 50.3873 101.239 53.9313 94.9497 53.5738C88.6607 53.2162 85.7204 40.8344 85.7204 40.8344C89.7976 42.8171 97.8335 41.6292 98.3543 40.1984C98.8752 38.7676 87.488 37.1775 85.7845 36.4638C84.0808 35.7501 81.523 31.734 84.5249 24.9429Z" fill="#DFEBF9"/>
<path d="M63.0117 43H186.99L207.105 118.122H81.7132L63.0117 43Z" fill="#78A2FC"/>
<path d="M201.258 114.867H85.1768L81.0287 98.3418L79.4238 91.948L78.7694 89.3409L74.5059 72.3585L74.2856 71.4743L72.0314 62.4979L71.023 58.4815L70.1633 55.0552L69.4612 52.2611L68.1465 47.0247H182.555L183.999 52.2611L184.769 55.0552L185.713 58.4815L186.82 62.4979L194.115 88.9584V88.9597L194.733 91.2016L195.02 92.2419L200.056 110.509L201.258 114.867Z" fill="#E9F0FF"/>
<path d="M128.816 118.122L86.3236 136.691L81.7129 118.122H128.816Z" fill="#4F81ED"/>
<mask id="mask0_7631_78418" style="mask-type:alpha" maskUnits="userSpaceOnUse" x="96" y="4" width="162" height="153">
<rect x="96" y="4" width="162" height="153" fill="#D9D9D9"/>
</mask>
<g mask="url(#mask0_7631_78418)">
<path opacity="0.18" d="M128.126 74.2476L128.168 74.2363L125 62.5196L126.299 62.1661C126.302 62.18 126.302 62.1936 126.305 62.2075C126.62 63.369 127.812 64.0554 128.97 63.7402C130.128 63.4252 130.812 62.228 130.498 61.0662C130.494 61.0523 130.487 61.0408 130.483 61.0272L131.924 60.6347C131.927 60.6486 131.927 60.6622 131.931 60.6761C132.245 61.8378 133.438 62.524 134.596 62.2087C135.753 61.8935 136.437 60.6965 136.123 59.5348C136.119 59.5209 136.112 59.5093 136.108 59.4954L137.549 59.103C137.553 59.1169 137.552 59.1305 137.556 59.1444C137.87 60.3058 139.063 60.992 140.221 60.677C141.378 60.362 142.062 59.1648 141.748 58.003C141.744 57.9891 141.737 57.9776 141.733 57.964L143.174 57.5715C143.178 57.5854 143.178 57.599 143.181 57.6129C143.495 58.7744 144.688 59.4608 145.846 59.1456C147.004 58.8303 147.687 57.6333 147.373 56.4716C147.37 56.4577 147.362 56.4462 147.358 56.4326L148.8 56.0401C148.803 56.054 148.803 56.0676 148.806 56.0815C149.121 57.2429 150.313 57.9291 151.471 57.6141C152.629 57.2991 153.312 56.1019 152.998 54.9402C152.994 54.9263 152.987 54.9147 152.983 54.9008L154.424 54.5084C154.428 54.522 154.428 54.5359 154.431 54.5498C154.745 55.7112 155.938 56.3977 157.096 56.0824C158.253 55.7674 158.937 54.5702 158.623 53.4084C158.62 53.3945 158.613 53.3827 158.609 53.3691L160.05 52.9766C160.053 52.9905 160.053 53.0041 160.057 53.018C160.371 54.1798 161.564 54.8659 162.721 54.5507C163.879 54.2357 164.563 53.0384 164.249 51.8767C164.245 51.8628 164.238 51.8513 164.234 51.8377L165.675 51.4452C165.679 51.4591 165.678 51.4727 165.682 51.4866C165.996 52.648 167.189 53.3345 168.347 53.0192C169.504 52.7042 170.188 51.507 169.874 50.3453C169.87 50.3314 169.863 50.3195 169.859 50.3059L171.293 49.9155L187.313 109.331L190.481 121.047L189.182 121.401C189.179 121.387 189.179 121.373 189.175 121.36C188.861 120.198 187.668 119.512 186.511 119.827C185.353 120.142 184.669 121.339 184.983 122.501C184.987 122.515 184.995 122.526 184.998 122.54L183.557 122.932C183.554 122.918 183.554 122.905 183.55 122.891C183.236 121.729 182.043 121.043 180.885 121.358C179.727 121.674 179.044 122.871 179.358 124.032C179.362 124.046 179.369 124.058 179.373 124.071L177.932 124.464C177.928 124.45 177.928 124.436 177.925 124.422C177.611 123.261 176.418 122.575 175.26 122.89C174.102 123.205 173.419 124.402 173.733 125.564C173.737 125.578 173.744 125.589 173.748 125.603L172.306 125.995C172.303 125.982 172.303 125.968 172.3 125.954C171.985 124.792 170.793 124.106 169.635 124.421C168.477 124.736 167.794 125.933 168.108 127.095C168.111 127.109 168.118 127.121 168.123 127.134L166.681 127.527C166.678 127.513 166.678 127.499 166.675 127.485C166.36 126.324 165.167 125.637 164.01 125.953C162.852 126.268 162.168 127.465 162.482 128.627C162.486 128.641 162.493 128.652 162.497 128.666L161.056 129.058C161.053 129.044 161.053 129.031 161.049 129.017C160.735 127.855 159.542 127.169 158.384 127.484C157.227 127.799 156.543 128.996 156.857 130.158C156.861 130.172 156.868 130.183 156.872 130.197L155.431 130.59C155.427 130.576 155.428 130.562 155.424 130.548C155.11 129.387 153.917 128.701 152.759 129.016C151.602 129.331 150.918 130.528 151.232 131.69C151.236 131.704 151.243 131.715 151.247 131.729L149.805 132.122C149.802 132.108 149.802 132.094 149.798 132.08C149.485 130.918 148.291 130.232 147.134 130.548C145.976 130.863 145.292 132.06 145.607 133.222C145.61 133.235 145.618 133.247 145.621 133.261L144.187 133.651L128.126 74.2476Z" fill="#D6D6D6"/>
<path d="M185.279 87.2356L205.177 96.1796C207.103 97.0453 208.708 98.4984 209.763 100.332L222.084 130.311L202.813 144.628L191.633 104.913L189.076 100.741L185.279 87.2356Z" fill="#E2A27D"/>
<path d="M222.084 130.311L230.902 140.217L210.776 154.933L202.812 144.628L222.084 130.311Z" fill="#E2A27D"/>
<path d="M188.767 99.0463L186.998 91.9868L196.939 99.0022C199.207 100.4 200.888 102.58 201.669 105.134L205.588 113.88L188.767 99.0463Z" fill="#D99676"/>
<path d="M178.963 110.34L180.809 115.714C181.693 118.285 183.731 120.289 186.311 121.123L191.573 122.823L183.615 107.382L178.963 110.34Z" fill="#D99676"/>
<path d="M181.471 116.242L183.317 121.615C184.201 124.187 186.239 126.191 188.819 127.024L194.081 128.724L186.123 113.284L181.471 116.242Z" fill="#D99676"/>
<path d="M186.625 123.352L188.471 128.725C189.355 131.297 191.393 133.301 193.973 134.134L199.235 135.834L191.277 120.394L186.625 123.352Z" fill="#D99676"/>
<path d="M113.794 47.4113L113.847 47.3971L109.783 32.5138L111.449 32.0649C111.453 32.0825 111.453 32.0998 111.458 32.1175C111.861 33.5928 113.391 34.4648 114.876 34.0643C116.361 33.6638 117.239 32.1434 116.836 30.6677C116.831 30.65 116.822 30.6354 116.816 30.6181L118.666 30.1196C118.67 30.1372 118.669 30.1545 118.674 30.1722C119.077 31.6475 120.607 32.5191 122.093 32.119C123.578 31.7185 124.455 30.1981 124.052 28.7224C124.047 28.7047 124.038 28.6901 124.033 28.6728L125.882 28.1742C125.886 28.1919 125.886 28.2092 125.89 28.2268C126.293 29.7022 127.824 30.5738 129.309 30.1737C130.794 29.7735 131.671 28.2528 131.268 26.7771C131.263 26.7594 131.254 26.7448 131.249 26.7275L133.098 26.2289C133.102 26.2466 133.102 26.2639 133.106 26.2815C133.509 27.7569 135.04 28.6288 136.525 28.2283C138.01 27.8279 138.887 26.3075 138.484 24.8318C138.48 24.8141 138.47 24.7994 138.465 24.7822L140.314 24.2836C140.318 24.3013 140.318 24.3186 140.322 24.3362C140.725 25.8115 142.256 26.6835 143.741 26.283C145.226 25.8826 146.103 24.3621 145.7 22.8864C145.695 22.8688 145.686 22.8541 145.681 22.8369L147.53 22.3383C147.534 22.356 147.534 22.3733 147.538 22.3909C147.942 23.8662 149.472 24.7382 150.957 24.3377C152.442 23.9376 153.319 22.4168 152.916 20.9411C152.911 20.9235 152.902 20.9084 152.897 20.8915L154.746 20.393C154.75 20.4103 154.75 20.4279 154.755 20.4456C155.157 21.9209 156.688 22.7929 158.173 22.3924C159.658 21.9923 160.535 20.4715 160.132 18.9958C160.127 18.9782 160.118 18.9635 160.113 18.9462L161.961 18.4477C161.966 18.4654 161.965 18.4826 161.97 18.5003C162.373 19.9756 163.903 20.8476 165.389 20.4471C166.873 20.047 167.751 18.5262 167.348 17.0505C167.343 17.0329 167.334 17.0178 167.329 17.0005L169.169 16.5046L189.719 91.9769L193.783 106.86L192.117 107.309C192.112 107.292 192.113 107.275 192.108 107.257C191.705 105.782 190.175 104.91 188.69 105.31C187.205 105.711 186.328 107.231 186.73 108.707C186.735 108.724 186.744 108.739 186.75 108.756L184.9 109.255C184.896 109.237 184.897 109.22 184.892 109.202C184.489 107.727 182.959 106.855 181.473 107.255C179.988 107.656 179.111 109.176 179.514 110.652C179.519 110.67 179.528 110.684 179.533 110.702L177.684 111.2C177.68 111.182 177.68 111.165 177.676 111.147C177.273 109.672 175.743 108.8 174.257 109.201C172.773 109.601 171.895 111.122 172.298 112.597C172.303 112.615 172.312 112.63 172.317 112.647L170.468 113.145C170.464 113.128 170.464 113.11 170.46 113.093C170.057 111.617 168.526 110.745 167.041 111.146C165.556 111.546 164.679 113.067 165.082 114.543C165.087 114.56 165.096 114.575 165.101 114.592L163.252 115.091C163.248 115.073 163.248 115.056 163.244 115.038C162.841 113.563 161.31 112.691 159.825 113.091C158.34 113.492 157.463 115.012 157.866 116.488C157.871 116.506 157.88 116.521 157.885 116.537L156.036 117.036C156.032 117.018 156.032 117.001 156.027 116.983C155.624 115.508 154.094 114.636 152.609 115.037C151.124 115.437 150.247 116.957 150.649 118.433C150.654 118.451 150.663 118.465 150.669 118.483L148.82 118.981C148.815 118.964 148.816 118.946 148.811 118.929C148.408 117.453 146.878 116.581 145.393 116.982C143.908 117.382 143.031 118.903 143.433 120.379C143.438 120.396 143.447 120.411 143.452 120.428L141.603 120.927C141.599 120.909 141.6 120.892 141.595 120.874C141.192 119.399 139.661 118.527 138.176 118.928C136.691 119.328 135.814 120.848 136.217 122.324C136.222 122.342 136.231 122.356 136.236 122.374L134.396 122.87L113.794 47.4113Z" fill="#FDFFFB"/>
<path d="M202.813 144.628L193.306 132.703C191.051 129.874 189.254 126.706 187.984 123.314L183.83 112.227L174.973 98.3926C173.403 95.941 174.119 92.6764 176.57 91.1131L176.755 90.9948C179.073 89.5157 182.136 90.0841 183.774 92.2973L190.438 101.304L202.314 111.063L202.813 144.628Z" fill="#E2A27D"/>
<path d="M178.662 99.0946L183.275 96.1222C183.64 95.8876 183.745 95.4017 183.511 95.0365L182.677 93.7322C181.719 92.2356 179.734 91.8015 178.242 92.7624L177.712 93.1043C176.221 94.0652 175.788 96.0571 176.745 97.5537L177.58 98.8579C177.814 99.2232 178.298 99.3291 178.662 99.0946Z" fill="#E9C3AE"/>
<path d="M227.633 133.111L203.398 149.615L207.677 155.247L231.998 138.351L227.633 133.111Z" fill="#FDFFFB"/>
<path d="M235.29 135.223L204.568 157.905L222.997 181.624L253.559 157.665L235.29 135.223Z" fill="#54749B"/>
<path d="M154.918 36.7703L153.95 37.0328L152.934 33.2598L151.694 33.5959L151.477 32.7874L154.924 31.8527L155.142 32.6612L153.902 32.9973L154.918 36.7703Z" fill="#707070"/>
<path d="M149.365 33.3598C149.954 33.2001 150.418 33.211 150.757 33.3925C151.096 33.5719 151.325 33.8841 151.445 34.3291C151.499 34.5296 151.521 34.73 151.51 34.9302C151.498 35.1283 151.443 35.3171 151.344 35.4964C151.247 35.6751 151.096 35.837 150.892 35.9821C150.687 36.1251 150.418 36.2418 150.084 36.3321L149.669 36.4446L150.108 38.0742L149.14 38.3366L147.906 33.7551L149.365 33.3598ZM149.529 34.1693L149.089 34.2887L149.455 35.6487L149.773 35.5623C149.954 35.5132 150.105 35.4466 150.226 35.3624C150.346 35.2783 150.429 35.1751 150.474 35.053C150.519 34.9309 150.52 34.7894 150.477 34.6285C150.416 34.4029 150.309 34.2527 150.155 34.1779C150 34.1011 149.791 34.0982 149.529 34.1693Z" fill="#707070"/>
<path d="M147.022 38.9103L145.789 34.3289L146.757 34.0664L147.991 38.6479L147.022 38.9103Z" fill="#707070"/>
<path d="M146.068 39.1695L143.439 39.8823L142.205 35.3008L144.835 34.588L145.049 35.3839L143.387 35.8343L143.658 36.8402L145.204 36.4212L145.418 37.2171L143.873 37.6362L144.191 38.8176L145.852 38.3672L146.068 39.1695Z" fill="#707070"/>
<path d="M140.264 36.6233C140.079 36.6735 139.924 36.7546 139.8 36.8667C139.678 36.9761 139.586 37.112 139.525 37.2743C139.466 37.436 139.437 37.6198 139.439 37.8255C139.44 38.0313 139.474 38.2543 139.538 38.4945C139.625 38.8184 139.74 39.0844 139.881 39.2928C140.023 39.4985 140.195 39.6391 140.396 39.7145C140.597 39.7879 140.83 39.7885 141.097 39.7162C141.282 39.666 141.462 39.5949 141.636 39.5029C141.812 39.4103 141.999 39.2957 142.197 39.1592L142.416 39.9739C142.237 40.1122 142.054 40.2257 141.868 40.3143C141.682 40.4049 141.468 40.4833 141.224 40.5493C140.754 40.6768 140.34 40.6847 139.984 40.5728C139.629 40.4582 139.332 40.2452 139.091 39.9338C138.851 39.6202 138.667 39.2284 138.54 38.7583C138.447 38.4115 138.408 38.0813 138.424 37.7676C138.441 37.4539 138.511 37.167 138.635 36.9069C138.759 36.6468 138.939 36.4232 139.175 36.236C139.41 36.0489 139.701 35.9085 140.047 35.8148C140.274 35.7532 140.508 35.721 140.751 35.718C140.995 35.7123 141.235 35.7314 141.47 35.7752L141.37 36.6496C141.178 36.6144 140.987 36.5899 140.798 36.5762C140.609 36.5624 140.431 36.5781 140.264 36.6233Z" fill="#707070"/>
<path d="M138.404 41.2469L135.774 41.9597L134.541 37.3782L137.171 36.6654L137.385 37.4613L135.723 37.9117L135.994 38.9176L137.54 38.4986L137.754 39.2945L136.209 39.7136L136.527 40.895L138.188 40.4446L138.404 41.2469Z" fill="#707070"/>
<path d="M131.649 38.1621C132.063 38.0498 132.418 38.0073 132.714 38.0348C133.011 38.0617 133.253 38.1587 133.439 38.3258C133.624 38.4929 133.759 38.731 133.842 39.0402C133.898 39.2492 133.908 39.4427 133.871 39.6208C133.834 39.7989 133.766 39.9598 133.666 40.1034C133.566 40.2471 133.45 40.3737 133.319 40.4833L135.199 42.1154L134.125 42.4066L132.562 40.9441L132.047 41.0837L132.52 42.8418L131.552 43.1042L130.318 38.5227L131.649 38.1621ZM131.794 38.9767L131.501 39.0562L131.834 40.2941L132.146 40.2094C132.467 40.1225 132.682 40.0071 132.79 39.8633C132.901 39.7169 132.928 39.5392 132.871 39.3303C132.813 39.113 132.696 38.9787 132.522 38.9274C132.349 38.8756 132.107 38.892 131.794 38.9767Z" fill="#707070"/>
<path d="M165.996 35.6975L122.65 47.4475L123.125 49.2121L166.471 37.4621L165.996 35.6975Z" fill="#707070"/>
<path d="M175.752 71.9397L132.406 83.6897L132.881 85.4543L176.227 73.7043L175.752 71.9397Z" fill="#707070"/>
<path d="M164.972 80.1362L144.74 85.6206L145.215 87.3852L165.447 81.9008L164.972 80.1362Z" fill="#707070"/>
<path d="M149.644 50.942L125.361 57.5244L125.836 59.289L150.119 52.7066L149.644 50.942Z" fill="#DADADA"/>
<path d="M135.105 59.7773L126.592 62.085L127.067 63.8495L135.58 61.5419L135.105 59.7773Z" fill="#DADADA"/>
<path d="M145.013 61.9845L127.818 66.6458L128.293 68.4103L145.488 63.7491L145.013 61.9845Z" fill="#DADADA"/>
<path d="M153.327 64.6242L129.045 71.2065L129.52 72.9711L153.802 66.3887L153.327 64.6242Z" fill="#DADADA"/>
<path d="M140.541 72.9847L130.275 75.7673L130.75 77.5319L141.016 74.7492L140.541 72.9847Z" fill="#DADADA"/>
<path d="M168.431 45.8502L158.33 48.5884L158.805 50.3529L168.906 47.6148L168.431 45.8502Z" fill="#DADADA"/>
<path d="M169.656 50.411L159.555 53.1492L160.03 54.9137L170.131 52.1756L169.656 50.411Z" fill="#DADADA"/>
<path d="M170.884 54.9716L160.783 57.7097L161.258 59.4743L171.359 56.7361L170.884 54.9716Z" fill="#DADADA"/>
<path d="M172.115 59.5326L162.014 62.2708L162.489 64.0353L172.59 61.2972L172.115 59.5326Z" fill="#DADADA"/>
<path d="M173.341 64.0929L163.24 66.8311L163.715 68.5956L173.816 65.8575L173.341 64.0929Z" fill="#DADADA"/>
<path d="M136.994 98.5227L136.254 98.7234L139.367 110.286L140.107 110.085L136.994 98.5227Z" fill="#707070"/>
<path d="M138.603 98.0867L137.863 98.2874L140.976 109.85L141.716 109.649L138.603 98.0867Z" fill="#707070"/>
<path d="M142.278 97.0906L141.908 97.1909L145.021 108.753L145.391 108.653L142.278 97.0906Z" fill="#707070"/>
<path d="M143.505 96.7579L143.135 96.8582L146.248 108.421L146.617 108.32L143.505 96.7579Z" fill="#707070"/>
<path d="M141.329 97.3464L139.523 97.8357L142.636 109.398L144.441 108.909L141.329 97.3464Z" fill="#707070"/>
<path d="M146.168 96.0356L144.363 96.5249L147.476 108.087L149.281 107.598L146.168 96.0356Z" fill="#707070"/>
<path d="M147.271 95.7364L146.531 95.937L149.644 107.499L150.384 107.299L147.271 95.7364Z" fill="#707070"/>
<path d="M148.88 95.3002L148.141 95.5007L151.253 107.063L151.993 106.863L148.88 95.3002Z" fill="#707070"/>
<path d="M157.916 92.8515L157.176 93.052L160.289 104.614L161.028 104.414L157.916 92.8515Z" fill="#707070"/>
<path d="M159.521 92.4171L158.781 92.6177L161.894 104.18L162.634 103.98L159.521 92.4171Z" fill="#707070"/>
<path d="M152.557 94.3043L152.188 94.4045L155.3 105.967L155.67 105.867L152.557 94.3043Z" fill="#707070"/>
<path d="M153.784 93.9717L153.414 94.072L156.527 105.634L156.897 105.534L153.784 93.9717Z" fill="#707070"/>
<path d="M151.598 94.5685L149.793 95.0576L152.905 106.62L154.71 106.131L151.598 94.5685Z" fill="#707070"/>
<path d="M156.446 93.2494L154.641 93.7388L157.753 105.301L159.559 104.812L156.446 93.2494Z" fill="#707070"/>
</g>
</svg>
