<svg width="30" height="30" xmlns="http://www.w3.org/2000/svg">
 <g>
  <title>Layer 1</title>
  <g id="svg_1">
   <g id="svg_2">
    <path fill="#0f429f" d="m11.4,23.7c-1.2,-0.5 -2.2,-1.2 -3.1,-2.1c-1,-1.1 -1.6,-2.3 -2,-3.7l6.2,0l0,-2.9l0,-2.8l-6,0c0.5,-1.5 1.3,-2.8 2.3,-3.9c1.1,-1.2 2.5,-1.9 4,-2.4c1.3,-0.3 2.6,-0.4 3.9,-0.1l2.3,-2l-0.7,-3.4c-2.2,-0.5 -4.5,-0.5 -6.7,0.1c-2.7,0.6 -5,1.8 -6.9,3.6c-2,1.8 -3.3,4 -4.1,6.6c-0.7,2.6 -0.8,5.1 -0.1,7.7c0.7,2.6 1.9,4.9 3.7,6.8c1.6,1.7 3.5,3 5.6,3.7l-0.7,-3.4l2.3,-1.8z" id="svg_3"/>
   </g>
   <g id="svg_4">
    <path fill="#0f429f" d="m29.6,11.4c-0.6,-2.6 -1.9,-4.8 -3.7,-6.8c-1.6,-1.7 -3.5,-2.9 -5.7,-3.7l0.7,3.4l-2.3,2c1.2,0.5 2.2,1.2 3,2.1c1.1,1.2 1.8,2.6 2.2,4.2c0.4,1.6 0.3,3.2 -0.2,4.9c-0.5,1.7 -1.3,3.1 -2.5,4.3c-1.2,1.2 -2.5,1.9 -4.1,2.4c-1.2,0.3 -2.5,0.4 -3.8,0.1l-2.2,2.1l0.8,3.3c2.3,0.5 4.5,0.5 6.8,-0.1c2.6,-0.7 4.9,-1.9 6.8,-3.8c1.9,-1.8 3.3,-4 4,-6.6c0.7,-2.6 0.8,-5.2 0.2,-7.8z" id="svg_5"/>
   </g>
  </g>
 </g>

</svg>