<svg width="64" height="64" viewBox="0 0 64 64" fill="none" xmlns="http://www.w3.org/2000/svg">
<rect width="64" height="64" rx="32" fill="#FC9D13"/>
<path d="M44.0186 13.001C44.028 13.0012 44.0374 13.0014 44.0469 13.002C44.0639 13.0029 44.0809 13.0039 44.0977 13.0059C44.1029 13.0065 44.1081 13.0071 44.1133 13.0078C44.8832 13.1114 45.9624 13.5266 46.8574 14.4258C47.7327 15.3052 48.394 16.612 48.4541 18.4316C48.9848 18.5817 49.5767 18.8371 50.1055 19.2354C50.7169 19.6961 51.242 20.3497 51.4844 21.2334C51.7876 21.3676 51.9999 21.6723 52 22.0273V25.6533C51.9999 26.1324 51.6142 26.5214 51.1387 26.5215C50.6631 26.5215 50.2774 26.1324 50.2773 25.6533V22.0273C50.2774 21.7459 50.411 21.4964 50.6172 21.3379C50.4172 20.7221 50.036 20.2669 49.5898 19.9307C49.2331 19.6619 48.8352 19.4708 48.46 19.3418V44.0889C48.4597 45.6028 47.4426 46.8763 46.0596 47.2568V49.5283C46.0594 50.3411 45.4055 51 44.5986 51H40.999C40.1923 50.9999 39.5383 50.3411 39.5381 49.5283V47.374H24.46V49.5283C24.4598 50.3411 23.8059 51 22.999 51H19.3994C18.5926 50.9999 17.9386 50.3411 17.9385 49.5283V47.2568C16.5559 46.876 15.5393 45.6024 15.5391 44.0889V19.3418C15.1638 19.4708 14.7659 19.6619 14.4092 19.9307C13.9631 20.2668 13.5809 20.7214 13.3809 21.3369C13.588 21.4953 13.7226 21.7451 13.7227 22.0273V25.6533C13.7226 26.1324 13.3369 26.5215 12.8613 26.5215C12.3858 26.5214 12.0001 26.1324 12 25.6533V22.0273C12.0001 21.6731 12.2115 21.3691 12.5137 21.2344C12.7559 20.3501 13.2819 19.6963 13.8936 19.2354C14.4223 18.8371 15.0142 18.5817 15.5449 18.4316C15.605 16.612 16.2664 15.3052 17.1416 14.4258C18.0051 13.5582 19.0405 13.1438 19.8037 13.0225C19.8539 13.0107 19.9059 13.0044 19.959 13.002L20 13H43.999C44.0055 13 44.0121 13.0008 44.0186 13.001ZM19.6611 49.2646H22.7383V47.374H19.6611V49.2646ZM41.2607 49.2646H44.3379V47.374H41.2607V49.2646ZM46.4492 35.4668C45.6287 35.5812 44.4492 35.7335 43.0088 35.8857C40.1295 36.19 36.1977 36.4941 31.999 36.4941C27.8004 36.4941 23.8686 36.19 20.9893 35.8857C19.5493 35.7336 18.3703 35.5812 17.5498 35.4668C17.4483 35.4526 17.3521 35.4368 17.2617 35.4238V44.0889C17.262 44.9446 17.9503 45.6385 18.7998 45.6387H45.1992C46.0487 45.6385 46.737 44.9446 46.7373 44.0889V35.4238C46.6468 35.4368 46.5509 35.4526 46.4492 35.4668ZM35.8994 41.9736C36.3964 41.9736 36.7998 42.3792 36.7998 42.8799C36.7997 43.3805 36.3964 43.7861 35.8994 43.7861H28.1006C27.6036 43.7861 27.2003 43.3805 27.2002 42.8799C27.2002 42.3792 27.6036 41.9736 28.1006 41.9736H35.8994ZM23.0518 38.9512C23.6858 38.9512 24.2 39.4687 24.2002 40.1074C24.2002 40.7463 23.6859 41.2646 23.0518 41.2646C22.4177 41.2646 21.9033 40.7462 21.9033 40.1074C21.9035 39.4688 22.4178 38.9513 23.0518 38.9512ZM40.9482 38.9512C41.5822 38.9513 42.0965 39.4688 42.0967 40.1074C42.0967 40.7462 41.5823 41.2646 40.9482 41.2646C40.3141 41.2646 39.7998 40.7463 39.7998 40.1074C39.8 39.4687 40.3142 38.9512 40.9482 38.9512ZM20.0527 38.6484C20.6869 38.6484 21.2012 39.1668 21.2012 39.8057C21.2011 40.4445 20.6869 40.9619 20.0527 40.9619C19.4187 40.9618 18.9043 40.4445 18.9043 39.8057C18.9043 39.1669 19.4186 38.6485 20.0527 38.6484ZM43.9473 38.6484C44.5814 38.6485 45.0957 39.1669 45.0957 39.8057C45.0957 40.4445 44.5813 40.9618 43.9473 40.9619C43.3131 40.9619 42.7989 40.4445 42.7988 39.8057C42.7988 39.1668 43.3131 38.6484 43.9473 38.6484ZM17.2617 33.6699C17.4144 33.6921 17.5896 33.7197 17.7861 33.7471C18.5903 33.8592 19.7503 34.0093 21.1689 34.1592C24.0093 34.4593 27.8782 34.7588 31.999 34.7588C36.1199 34.7588 39.9887 34.4593 42.8291 34.1592C44.2476 34.0093 45.4077 33.8592 46.2119 33.7471C46.4087 33.7196 46.5845 33.6921 46.7373 33.6699V19.5713H17.2617V33.6699ZM20.0713 14.7354C19.6373 14.8044 18.9431 15.0678 18.3584 15.6553C17.8967 16.1193 17.4785 16.8106 17.3252 17.8359H46.6738C46.5205 16.8106 46.1024 16.1193 45.6406 15.6553C45.0559 15.0678 44.3617 14.8044 43.9277 14.7354H20.0713Z" fill="white"/>
</svg>
