<svg width="80" height="80" viewBox="0 0 80 80" fill="none" xmlns="http://www.w3.org/2000/svg">
<path d="M65.8316 14.6257C58.3091 5.4516 40.8477 24.6213 40.8477 24.6213L43.3962 25.2976C45.9445 25.9738 73.5988 24.0985 65.8316 14.6257ZM45.521 24.043C45.521 24.043 58.4548 14.6941 60.9471 18.6883C62.4045 21.0238 54.4166 24.5853 45.521 24.043Z" fill="#FFB63D"/>
<path d="M61.6414 1.46713C51.3308 -7.1628 40.0566 25.0972 40.0566 25.0972H42.6935C45.3304 25.0968 75.5609 13.1177 61.6414 1.46713ZM44.4253 22.5125C44.4253 22.5125 55.4787 7.33583 57.9622 9.08345C60.4457 10.8311 53.1627 19.9283 44.4253 22.5125Z" fill="#FFD25E"/>
<path d="M15.0176 14.6257C22.5401 5.4516 40.0015 24.6213 40.0015 24.6213L37.453 25.2976C34.9044 25.9738 7.25041 24.0985 15.0176 14.6257ZM35.3282 24.043C35.3282 24.043 22.3947 14.6941 19.9021 18.6883C18.4444 21.0238 26.4323 24.5853 35.3282 24.043Z" fill="#FFB63D"/>
<path d="M19.2072 1.46713C29.5178 -7.1628 40.792 25.0972 40.792 25.0972H38.1551C35.5182 25.0968 5.28732 13.1177 19.2072 1.46713ZM36.4229 22.5125C36.4229 22.5125 25.3695 7.33583 22.886 9.08345C20.4026 10.8311 27.6855 19.9283 36.4229 22.5125Z" fill="#FFD25E"/>
<path d="M71.8772 39.2859H8.96875V79.9999H71.8772V39.2859Z" fill="#CB4C36"/>
<path d="M71.8772 39.2859H8.96875V43.3304H71.8772V39.2859Z" fill="#C13E26"/>
<path d="M76.8481 25.0967H4V39.3433H76.8481V25.0967Z" fill="#EB6E58"/>
<path d="M44.792 25.0967H36.0547V79.9999H44.792V25.0967Z" fill="#FFD25E"/>
</svg>
