<svg width="80" height="80" viewBox="0 0 80 80" fill="none" xmlns="http://www.w3.org/2000/svg">
<path d="M41.457 10.5104C41.457 10.5104 46.9125 9.27738 48.1291 10.3C49.3455 11.3227 51.7246 29.2725 51.7246 29.2725C51.7246 29.2725 48.3984 22.0643 47.3923 18.4731C46.3355 14.7014 41.457 10.5104 41.457 10.5104Z" fill="#588DDB"/>
<path d="M51.7232 29.2711C51.5896 29.1271 37.9222 14.3725 37.8319 12.9553C37.7412 11.5316 41.0894 9.95852 45.5651 9.9126C45.5651 9.9126 42.2687 12.3244 42.4066 13.1613C42.6535 14.6603 44.8635 15.928 46.5974 19.8308C48.6359 24.4191 51.681 29.2037 51.7232 29.2711Z" fill="#72A9F7"/>
<path d="M51.7187 29.2685C51.6422 29.209 50.7214 28.4971 49.3135 27.4708C49.3119 27.4701 49.3104 27.4689 49.3094 27.4682C45.0819 24.3883 36.4696 18.4875 33.0931 18.9127C31.6414 19.0951 30.1272 19.663 28.7806 20.3938C28.7806 20.3938 28.7807 20.3938 28.78 20.3943C25.9013 21.9544 23.7858 24.2559 24.6669 25.1246C25.9611 26.3999 42.8451 24.5908 51.7232 29.2718C51.7218 29.2705 51.7203 29.2693 51.7187 29.2685ZM29.7579 23.4139C29.7579 23.4139 32.5906 22.122 33.5793 22.2045C34.568 22.287 41.6526 23.8808 42.4889 24.5839C43.3253 25.2869 29.7579 23.4139 29.7579 23.4139Z" fill="#72A9F7"/>
<path d="M51.7232 29.272C42.8451 24.5909 25.961 26.4 24.6669 25.1248C23.7858 24.2561 25.9013 21.9546 28.78 20.3945C28.7439 20.4304 27.0108 22.1414 28.5454 22.5038C29.9612 22.838 40.6104 21.7934 49.3094 27.4684C49.3104 27.4691 49.312 27.4703 49.3135 27.4711C50.1358 28.0079 50.9407 28.6043 51.7187 29.2687C51.7202 29.2694 51.7218 29.2707 51.7232 29.272Z" fill="#588DDB"/>
<path d="M51.6415 29.2634C51.6415 29.2634 55.9077 20.833 55.313 16.223C55.313 16.223 54.2721 17.3548 53.9175 17.5506C53.9175 17.5506 53.0388 16.2334 52.9748 16.0617C52.9108 15.8901 53.0389 16.2333 53.0389 16.2333C53.0389 16.2333 51.2769 26.5673 51.6415 29.2634Z" fill="#588DDB"/>
<path d="M51.7246 29.2726C51.7246 29.2726 55.321 21.0855 63.9414 21.1266C63.9414 21.1266 62.5045 22.3977 62.4942 22.9077C62.4942 22.9077 64.0301 23.3345 64.4901 23.3859C64.4901 23.3859 56.8305 24.8322 52.6906 29.3803L51.7246 29.2726Z" fill="#72A9F7"/>
<path d="M19.3146 70.0522H59.2305L59.2305 31.7304L19.3146 31.7304L19.3146 70.0522Z" fill="#D86713"/>
<path d="M39.2716 70.0522H79.1875V31.7304L39.2716 31.7304L39.2716 70.0522Z" fill="#F1A34F"/>
<path d="M39.2715 31.7305H79.2903V43.9148L39.2715 70.0523V31.7305Z" fill="#EA913D"/>
<path d="M39.2724 27.7917H18.4727V34.4357H39.2724V27.7917Z" fill="#F4A762"/>
<path d="M79.9997 27.7917H39.2715V34.4357H79.9997V27.7917Z" fill="#FFB871"/>
<path d="M61.771 27.7917H58.6855V70.1057H61.771V27.7917Z" fill="#72A9F7"/>
<path d="M30.8353 27.7917H27.75V70.0165H30.8353V27.7917Z" fill="#588DDB"/>
<path d="M9.05664 46.4747C9.05664 46.4747 11.2062 45.9889 11.6855 46.3918C12.1649 46.7947 13.1022 53.8671 13.1022 53.8671C13.1022 53.8671 11.7916 51.027 11.3952 49.612C10.9788 48.126 9.05664 46.4747 9.05664 46.4747Z" fill="#D86713"/>
<path d="M13.101 53.8667C13.0483 53.8099 7.66324 47.9965 7.62766 47.4382C7.59193 46.8771 8.91117 46.2573 10.6746 46.2393C10.6746 46.2393 9.37579 47.1896 9.43003 47.5193C9.52732 48.1098 10.3981 48.6094 11.0813 50.147C11.8845 51.9548 13.0842 53.8401 13.101 53.8667Z" fill="#F1A34F"/>
<path d="M13.0995 53.8655C13.0694 53.842 12.7066 53.5616 12.1519 53.1572C12.1512 53.1569 12.1505 53.1564 12.1503 53.1561C10.4846 51.9427 7.0912 49.6177 5.76086 49.7852C5.1889 49.857 4.59224 50.0808 4.06175 50.3688C4.06175 50.3688 4.06175 50.3688 4.06152 50.369C2.9272 50.9837 2.09374 51.8905 2.44098 52.2328C2.95084 52.7353 9.6033 52.0225 13.1013 53.8668C13.1007 53.8663 13.1001 53.8658 13.0995 53.8655ZM4.44683 51.5587C4.44683 51.5587 5.56295 51.0498 5.95249 51.0822C6.34203 51.1147 9.13347 51.7426 9.46303 52.0196C9.79245 52.2968 4.44683 51.5587 4.44683 51.5587Z" fill="#F1A34F"/>
<path d="M13.1013 53.8669C9.6033 52.0226 2.95084 52.7355 2.44097 52.2329C2.09373 51.8906 2.92727 50.9838 4.06152 50.3691C4.04732 50.3833 3.3644 51.0574 3.96906 51.2002C4.5269 51.3318 8.72269 50.9203 12.1503 53.1563C12.1506 53.1565 12.1513 53.157 12.1519 53.1573C12.4757 53.3688 12.793 53.6038 13.0995 53.8656C13.1001 53.8659 13.1007 53.8665 13.1013 53.8669Z" fill="#D86713"/>
<path d="M13.0684 53.8635C13.0684 53.8635 14.6332 51.5836 14.3395 50.2989C14.3395 50.2989 13.9457 50.5989 13.8092 50.6485C13.8092 50.6485 13.447 50.2722 13.4197 50.2238C13.3923 50.1753 13.447 50.2722 13.447 50.2722C13.447 50.2722 12.8901 53.1118 13.0684 53.8635Z" fill="#D86713"/>
<path d="M13.1016 53.8671C13.1016 53.8671 15.3706 49.0652 20.9339 49.144C20.9339 49.144 20.0147 49.884 20.0112 50.1845C20.0112 50.1845 21.0051 50.4457 21.3024 50.4788C21.3024 50.4788 16.3685 51.2827 13.7256 53.9366L13.1016 53.8671Z" fill="#F1A34F"/>
<path d="M16.0593 54.8354H0.332031V69.9346H16.0593V54.8354Z" fill="#4A75CB"/>
<path d="M23.9226 54.8354H8.19531V69.9346H23.9226V54.8354Z" fill="#72A9F7"/>
<path d="M8.19531 54.8354H23.9632V59.6362L8.19531 69.9346V54.8354Z" fill="#6699EA"/>
<path d="M8.19528 53.2837H0V55.9015H8.19528V53.2837Z" fill="#3160AA"/>
<path d="M24.2426 53.2837H8.19531V55.9015H24.2426V53.2837Z" fill="#3366CC"/>
<path d="M17.0594 53.2837H15.8438V69.9558H17.0594V53.2837Z" fill="#FFB871"/>
<path d="M4.87193 53.2837H3.65625V69.9207H4.87193V53.2837Z" fill="#EA913D"/>
</svg>
