<svg width="80" height="80" viewBox="0 0 80 80" fill="none" xmlns="http://www.w3.org/2000/svg">
<path d="M8.06556 20.6874C7.94792 20.8077 7.99543 21.0113 8.15356 21.0685C9.9407 21.7151 12.0346 21.5662 13.6731 20.6073C14.2554 20.2664 14.8572 19.9587 15.4745 19.687C15.1786 20.2202 14.8825 20.7534 14.5864 21.2869C14.1303 22.1083 14.5925 23.1376 15.5094 23.3423L15.5363 23.3484C16.0068 23.4536 16.4982 23.3091 16.8371 22.9661C18.2265 21.5597 19.6159 20.153 21.0054 18.7466C20.1686 20.1422 19.3318 21.5377 18.4952 22.9333C18.2369 23.3643 18.5014 23.9167 18.9984 23.9907C19.2198 24.0235 19.4436 24.0551 19.6696 24.0855C19.8996 24.1162 20.1306 24.03 20.2853 23.8572C21.328 22.6942 22.3709 21.5314 23.4135 20.3684C22.9991 21.461 22.5846 22.5537 22.1704 23.6464C22.0404 23.9893 22.2781 24.3612 22.6439 24.3857C22.8029 24.3963 22.9627 24.4062 23.1233 24.4151C23.2882 24.4243 23.449 24.3576 23.5599 24.235C24.8267 22.8311 26.0936 21.4269 27.3602 20.0229C27.0131 21.2371 26.6661 22.4512 26.3191 23.6654C26.2033 24.0703 26.5164 24.4709 26.9374 24.4556C27.1265 24.4485 27.3163 24.4402 27.5065 24.4302C27.7169 24.4194 27.906 24.2997 28.011 24.1169C28.4614 23.3333 28.9539 22.5738 29.4866 21.8436C29.4952 22.3888 29.4749 22.9344 29.4262 23.4774C29.3885 23.8975 29.7414 24.2483 30.1599 24.1961C31.4125 24.0398 32.6791 23.814 33.9495 23.5045C33.9495 23.5045 21.2479 7.18773 8.06556 20.6874Z" fill="#80C172"/>
<path d="M53.4447 8.8553C53.6047 8.90756 53.6571 9.1098 53.5434 9.234C52.2598 10.6352 50.3353 11.4745 48.4391 11.3845C47.7652 11.3524 47.0895 11.3587 46.4163 11.4042C46.9257 11.7394 47.4354 12.0747 47.9448 12.4097C48.7298 12.9262 48.7975 14.0523 48.0801 14.6588L48.0591 14.6767C47.691 14.988 47.1886 15.0877 46.7294 14.9412C44.8461 14.3392 42.963 13.7372 41.0797 13.1352C42.4683 13.9838 43.8566 14.8323 45.2449 15.6809C45.6736 15.9429 45.6955 16.555 45.2892 16.8509C45.1083 16.9828 44.9246 17.1145 44.7384 17.2461C44.5488 17.3801 44.3043 17.4108 44.0869 17.3296C42.6239 16.7826 41.1607 16.2358 39.6977 15.6888C40.5714 16.4648 41.4453 17.2407 42.3189 18.0167C42.5931 18.2603 42.5551 18.6998 42.242 18.8912C42.1061 18.9745 41.969 19.0573 41.831 19.1396C41.6892 19.2242 41.5156 19.2398 41.3607 19.1824C39.5873 18.5257 37.814 17.8692 36.0406 17.2124C36.9111 18.1273 37.7814 19.0421 38.6519 19.957C38.9421 20.2621 38.8505 20.7623 38.4705 20.9438C38.2997 21.0252 38.1275 21.1057 37.9545 21.1854C37.7629 21.2734 37.5398 21.2548 37.3622 21.1417C36.5999 20.6562 35.8113 20.2117 35.0007 19.8115C35.2457 20.2986 35.5169 20.7725 35.8117 21.2311C36.0397 21.5858 35.89 22.0602 35.4948 22.2079C34.3125 22.6502 33.0855 23.0374 31.8164 23.3521C31.8164 23.3521 35.5059 3.00608 53.4447 8.8553Z" fill="#80C172"/>
<path d="M33.8033 22.4734C44.984 38.3438 47.6052 58.6483 41.3424 76.4734L35.3746 74.7481C37.5908 69.1092 38.9543 63.1174 39.4503 57.1411C40.4065 45.492 38.0183 33.7226 32.668 23.0038L33.8033 22.4734Z" fill="#475F8F"/>
<path d="M10.8439 35.4271C10.8127 35.5924 10.965 35.7356 11.1285 35.6956C12.9743 35.2431 14.635 33.9589 15.467 32.2527C15.7627 31.6462 16.0929 31.0567 16.4565 30.4882C16.5056 31.096 16.5547 31.7039 16.6038 32.312C16.6795 33.2485 17.6344 33.8489 18.5112 33.5112L18.537 33.5012C18.987 33.3279 19.3159 32.9352 19.4078 32.462C19.7849 30.5212 20.1618 28.5804 20.5389 26.6397C20.6158 28.2651 20.6929 29.8905 20.7698 31.5159C20.7936 32.0179 21.32 32.3312 21.7745 32.117C21.9772 32.0215 22.181 31.9238 22.3857 31.8238C22.5943 31.722 22.7386 31.5222 22.7719 31.2926C22.9952 29.7468 23.2187 28.2008 23.442 26.655C23.7026 27.7943 23.9632 28.9333 24.2238 30.0726C24.3057 30.4302 24.7095 30.6078 25.0278 30.4255C25.166 30.3463 25.3044 30.2658 25.4431 30.1843C25.5856 30.1006 25.6825 29.9559 25.7067 29.7925C25.9829 27.9217 26.2593 26.051 26.5355 24.1802C26.9197 25.3832 27.3035 26.586 27.6877 27.7891C27.8157 28.1904 28.2985 28.3503 28.6403 28.1042C28.7939 27.9936 28.9473 27.8814 29.1 27.7678C29.2692 27.642 29.3601 27.4375 29.3463 27.2274C29.2868 26.3254 29.276 25.4203 29.3147 24.5172C29.6239 24.9663 29.9094 25.4316 30.1698 25.9105C30.3713 26.2811 30.8593 26.3775 31.1787 26.1021C32.1347 25.2778 33.064 24.3878 33.9499 23.4259C33.9499 23.4259 14.3343 16.8842 10.8439 35.4271Z" fill="#A8D29F"/>
<path d="M22.2327 3.00364C22.0847 2.97582 21.9565 3.112 21.9924 3.25814C22.3972 4.9098 23.5464 6.39563 25.0731 7.14036C25.6158 7.40504 26.1431 7.70048 26.6521 8.02557C26.1081 8.06945 25.5642 8.11357 25.0202 8.15745C24.1823 8.22509 23.6448 9.07976 23.947 9.8643L23.9558 9.88738C24.1108 10.2898 24.4621 10.5844 24.8856 10.6665C26.6223 11.0038 28.3587 11.3413 30.0954 11.6786C28.6411 11.7476 27.1867 11.8164 25.7323 11.8854C25.2833 11.9066 25.0028 12.3776 25.1944 12.7844C25.2797 12.9656 25.3672 13.1479 25.4566 13.3312C25.5477 13.5178 25.7264 13.647 25.9319 13.6766C27.3152 13.8766 28.6983 14.0764 30.0814 14.2763C29.0621 14.5096 28.0429 14.7428 27.0236 14.976C26.7037 15.0493 26.5447 15.4106 26.7078 15.6954C26.7788 15.8192 26.8508 15.9431 26.9236 16.0671C26.9985 16.1945 27.1279 16.2813 27.2743 16.3028C28.9483 16.5501 30.6221 16.7974 32.2961 17.0446C31.2198 17.3883 30.1434 17.7319 29.0671 18.0755C28.708 18.1902 28.5648 18.6221 28.7852 18.9279C28.8843 19.0652 28.9845 19.2026 29.0863 19.3394C29.1987 19.4908 29.3817 19.5722 29.5699 19.5598C30.3769 19.5066 31.1867 19.4967 31.9948 19.5313C31.593 19.8082 31.1766 20.0633 30.7481 20.2966C30.4165 20.4769 30.3303 20.9135 30.5766 21.1994C31.3143 22.0548 32.1106 22.8864 32.9712 23.6791C32.9712 23.6791 38.8244 6.12688 22.2327 3.00364Z" fill="#A8D29F"/>
<path d="M56.8833 31.1433C56.9356 31.3032 56.8032 31.465 56.6358 31.4464C54.7471 31.2367 52.9342 30.1782 51.8881 28.594C51.5165 28.0309 51.1126 27.4891 50.6788 26.9724C50.7086 27.5816 50.7387 28.1906 50.7686 28.7999C50.8147 29.7382 49.9456 30.4574 49.0323 30.2359L49.0056 30.2294C48.5371 30.1158 48.16 29.769 48.0075 29.3116C47.3825 27.436 46.7574 25.5603 46.1324 23.6845C46.2663 25.3063 46.4005 26.9279 46.5344 28.5494C46.5758 29.0503 46.0944 29.429 45.6159 29.2756C45.4026 29.2073 45.1879 29.1367 44.9719 29.0641C44.752 28.9901 44.5828 28.8107 44.5201 28.5872C44.0984 27.0833 43.677 25.5793 43.2553 24.0754C43.1442 25.2386 43.0334 26.4021 42.9223 27.5654C42.8875 27.9305 42.5099 28.159 42.1708 28.0194C42.0233 27.9588 41.8756 27.8968 41.7279 27.8341C41.5759 27.7694 41.4609 27.6386 41.4159 27.4796C40.8999 25.6603 40.3837 23.841 39.8677 22.0218C39.6426 23.2644 39.4175 24.5068 39.1922 25.7495C39.1171 26.1639 38.6592 26.3851 38.2884 26.1852C38.1217 26.0954 37.9554 26.004 37.7889 25.911C37.605 25.8083 37.488 25.6173 37.4747 25.407C37.4168 24.505 37.3107 23.606 37.1555 22.7156C36.9069 23.2008 36.684 23.6992 36.4879 24.208C36.3361 24.6014 35.8647 24.7604 35.5122 24.5285C34.4578 23.8349 33.421 23.0726 32.418 22.2335C32.4182 22.234 51.0222 13.2083 56.8833 31.1433Z" fill="#A8D29F"/>
<path d="M37.9492 65.2027C39.7698 65.6314 41.6122 65.9752 43.472 66.232C43.5129 65.9673 43.5525 65.7025 43.5898 65.4373C41.7441 65.1812 39.9162 64.8354 38.1098 64.4067C38.0576 64.6723 38.0049 64.9377 37.9492 65.2027Z" fill="#383D84"/>
<path d="M43.0074 68.8533C41.1219 68.4949 39.2363 68.1365 37.3505 67.7781C37.284 68.04 37.2166 68.3018 37.1465 68.5629C39.0452 68.9237 40.9436 69.2848 42.8423 69.6456C42.8991 69.3816 42.9543 69.1177 43.0074 68.8533Z" fill="#383D84"/>
<path d="M39.2672 50.3906C40.7888 50.4556 42.3104 50.5204 43.8319 50.5853C43.803 50.3149 43.7724 50.0444 43.7396 49.7741C42.2391 49.7102 40.7388 49.646 39.2383 49.582C39.25 49.8517 39.2591 50.1212 39.2672 50.3906Z" fill="#383D84"/>
<path d="M44.0642 53.3578C44.0477 53.0885 44.0292 52.8194 44.0093 52.5504L39.295 52.5364C39.2941 52.8054 39.2916 53.0745 39.2871 53.3435L44.0642 53.3578Z" fill="#383D84"/>
<path d="M37.5754 29.5946C37.4476 29.3451 37.318 29.0963 37.1863 28.8484C36.4654 29.0029 35.7444 29.1572 35.0234 29.3116C35.1205 29.5672 35.2151 29.8235 35.3089 30.0799C36.0645 29.9183 36.8201 29.7565 37.5754 29.5946Z" fill="#383D84"/>
<path d="M37.0361 35.5056C38.0467 35.3689 39.0599 35.2516 40.0759 35.1543C39.9747 34.8946 39.872 34.6357 39.7673 34.3772C38.7825 34.4747 37.8001 34.5898 36.8203 34.723C36.8943 34.9835 36.9653 35.2445 37.0361 35.5056Z" fill="#383D84"/>
<path d="M34.1035 27.0094C34.2119 27.2663 34.3191 27.5235 34.4241 27.7816C34.9749 27.4701 35.5258 27.1586 36.0766 26.8471C35.9375 26.6081 35.7966 26.3699 35.654 26.1326C35.1371 26.4248 34.6202 26.7172 34.1035 27.0094Z" fill="#383D84"/>
<path d="M38.7904 44.3312C40.1197 44.2656 41.4481 44.1868 42.7756 44.0979C42.7174 43.8325 42.6575 43.5673 42.5957 43.3025C41.2918 43.3888 39.9872 43.4653 38.6816 43.5291C38.719 43.7963 38.7565 44.0636 38.7904 44.3312Z" fill="#383D84"/>
<path d="M42.0601 72.8499C40.1302 72.4125 38.1973 71.9855 36.2618 71.5686C36.1781 71.8275 36.091 72.085 36.0039 72.3427C37.9519 72.7622 39.8972 73.1921 41.8395 73.6323C41.9148 73.372 41.9884 73.1112 42.0601 72.8499Z" fill="#383D84"/>
<path d="M36.1113 32.399C37.0058 32.2993 37.9007 32.2039 38.7968 32.1168C38.6798 31.8595 38.5613 31.603 38.4407 31.3472C37.5781 31.4329 36.7165 31.525 35.8555 31.6217C35.943 31.8804 36.0272 32.1397 36.1113 32.399Z" fill="#383D84"/>
<path d="M37.736 38.341C38.8855 38.3211 40.0345 38.292 41.183 38.2539C41.0959 37.9875 41.0068 37.7215 40.9158 37.4561C39.7944 37.492 38.6726 37.519 37.5508 37.5373C37.6143 37.8049 37.6759 38.073 37.736 38.341Z" fill="#383D84"/>
<path d="M39.0248 58.125C38.9995 58.3918 38.9721 58.6586 38.9434 58.9255C40.6674 59.1703 42.3939 59.4006 44.1225 59.6175C44.1338 59.3492 44.1433 59.0808 44.1512 58.8126C42.4401 58.5973 40.7314 58.3683 39.0248 58.125Z" fill="#383D84"/>
<path d="M44.1561 55.5055C42.5119 55.4483 40.8675 55.391 39.2233 55.3337C39.2102 55.6024 39.1962 55.8708 39.1797 56.1395C40.8435 56.1974 42.5074 56.2554 44.1713 56.3133C44.1681 56.044 44.1629 55.7748 44.1561 55.5055Z" fill="#383D84"/>
<path d="M38.4785 62.362C40.2767 62.5959 42.0781 62.8104 43.8818 63.0087C43.9083 62.7425 43.9327 62.4761 43.9556 62.2095C42.1691 62.0133 40.3849 61.8007 38.6038 61.5688C38.5642 61.8334 38.5217 62.0976 38.4785 62.362Z" fill="#383D84"/>
<path d="M38.358 41.462C39.5946 41.3558 40.8334 41.2764 42.0735 41.224C42.0013 40.9574 41.9276 40.6911 41.8516 40.4255C40.6377 40.48 39.4254 40.5608 38.2148 40.667C38.2642 40.9318 38.3121 41.1968 38.358 41.462Z" fill="#383D84"/>
<path d="M39.002 46.2321C39.028 46.4998 39.0515 46.7676 39.0739 47.0356C40.4855 46.968 41.8969 46.9004 43.3085 46.833C43.2628 46.5659 43.2153 46.2993 43.1662 46.0327C41.7781 46.0993 40.39 46.1657 39.002 46.2321Z" fill="#383D84"/>
<path d="M38.6112 26.0312C38.6067 27.3585 37.5272 28.431 36.1999 28.4264C34.8727 28.4219 33.8002 27.3424 33.8047 26.0151C33.8092 24.6879 34.8888 23.6154 36.216 23.6199C37.5435 23.6244 38.6157 24.704 38.6112 26.0312Z" fill="#F78721"/>
<path d="M34.8143 24.2282C34.8098 25.5555 33.7303 26.628 32.4031 26.6235C31.0758 26.6189 30.0033 25.5394 30.0078 24.2122C30.0124 22.8849 31.0919 21.8124 32.4191 21.8169C33.7464 21.8212 34.8186 22.9007 34.8143 24.2282Z" fill="#FFB552"/>
<path opacity="0.3" d="M22.3559 23.3184C20.2624 23.5641 18.2866 24.4165 16.6707 25.7712C16.2214 26.1478 15.8068 26.5636 15.429 27.0118C15.2987 27.1665 15.2758 27.3891 15.4272 27.5416C15.5602 27.6755 15.826 27.6988 15.957 27.5434C17.5598 25.6415 19.8763 24.3582 22.3534 24.0677C22.5543 24.0442 22.7285 23.9141 22.7294 23.6942C22.73 23.5107 22.5583 23.2947 22.3559 23.3184Z" fill="white"/>
<path opacity="0.3" d="M25.838 17.6441C23.9468 16.5641 21.7596 16.0148 19.5818 16.0759C18.9593 16.0933 18.3383 16.163 17.7261 16.2759C17.5271 16.3125 17.413 16.5523 17.4628 16.7358C17.5194 16.9446 17.7232 17.0357 17.9227 16.9991C20.4867 16.5267 23.1952 16.9982 25.4575 18.2899C25.8771 18.5295 26.2574 17.8836 25.838 17.6441Z" fill="white"/>
<path opacity="0.3" d="M31.0243 8.621C30.701 8.26175 30.1705 8.79134 30.4927 9.149C32.0276 10.8538 32.6239 13.1873 32.7784 15.426C32.7924 15.628 32.939 15.8013 33.1519 15.802C33.3433 15.8027 33.5417 15.6316 33.5279 15.4285C33.3589 12.9817 32.6999 10.4824 31.0243 8.621Z" fill="white"/>
<path opacity="0.3" d="M42.0446 9.86614C41.9328 9.67363 41.7192 9.65033 41.5324 9.72996C39.3686 10.6527 37.5247 12.2754 36.3139 14.2904C36.0648 14.7046 36.7112 15.0842 36.9598 14.6707C38.1101 12.7564 39.8559 11.2538 41.9086 10.3783C42.0945 10.2989 42.1373 10.0259 42.0446 9.86614Z" fill="white"/>
<path opacity="0.3" d="M50.4804 22.7873C48.4845 21.4397 46.1458 20.647 43.7451 20.4775C43.5431 20.4633 43.3698 20.6583 43.3691 20.851C43.3685 21.065 43.5399 21.2128 43.7426 21.227C46.0137 21.3872 48.2146 22.1602 50.0999 23.4331C50.5008 23.7035 50.8785 23.056 50.4804 22.7873Z" fill="white"/>
<path opacity="0.3" d="M52.3142 24.3357C52.1348 24.1393 51.9353 23.9672 51.724 23.8061C51.681 23.7785 51.6347 23.7636 51.5849 23.7611C51.5351 23.7498 51.4853 23.7518 51.4353 23.7672C51.3865 23.7787 51.344 23.8009 51.3078 23.8339C51.2668 23.8602 51.2347 23.8952 51.2109 23.9387C51.1648 24.0256 51.1413 24.1307 51.1723 24.2273C51.1847 24.2572 51.1971 24.2871 51.2098 24.3169C51.2338 24.3576 51.2657 24.3904 51.3017 24.4192C51.474 24.5538 51.6349 24.7024 51.7826 24.8639C51.8163 24.9006 51.8566 24.9266 51.903 24.9418C51.9475 24.9653 51.9955 24.9764 52.0473 24.9746C52.0989 24.9766 52.147 24.966 52.1916 24.9427C52.2382 24.9277 52.2785 24.9019 52.3124 24.8655C52.3782 24.7943 52.4271 24.7008 52.423 24.6011C52.4187 24.4993 52.3834 24.4115 52.3142 24.3357Z" fill="white"/>
<path opacity="0.3" d="M16.4747 16.7758C16.4123 16.5806 16.2179 16.4598 16.0148 16.5127C15.7022 16.5939 15.3977 16.7159 15.1135 16.8692C15.0323 16.9131 14.9651 17.0045 14.9407 17.0925C14.9156 17.1821 14.9265 17.3016 14.9776 17.3814C15.0898 17.5565 15.3051 17.6171 15.4897 17.5176C15.5823 17.4676 15.6777 17.423 15.7741 17.3812C15.9171 17.3242 16.0628 17.2746 16.2116 17.236C16.3021 17.2124 16.3887 17.1448 16.436 17.0645C16.4833 16.9842 16.5037 16.8659 16.4747 16.7758Z" fill="white"/>
<path opacity="0.3" d="M29.6683 7.05103C29.4249 6.81214 29.1647 6.59338 28.8939 6.38616C28.822 6.33118 28.6881 6.32485 28.6053 6.34747C28.5182 6.371 28.4239 6.43796 28.3809 6.51895C28.3347 6.60582 28.3112 6.71101 28.3422 6.80761C28.3546 6.83747 28.3671 6.86733 28.3797 6.8972C28.4096 6.94787 28.4501 6.98814 28.4985 7.02026C28.7215 7.19445 28.9347 7.38109 29.1369 7.57926C29.2061 7.64712 29.3041 7.68965 29.4013 7.68988C29.4932 7.69011 29.6031 7.64984 29.6667 7.58107C29.7325 7.50981 29.7814 7.41638 29.7773 7.31661C29.773 7.21775 29.7405 7.12183 29.6683 7.05103Z" fill="white"/>
<path d="M32.9396 54.759C32.56 54.759 32.2522 54.4512 32.2522 54.0716V52.6612C32.2522 51.952 31.6752 51.375 30.966 51.375H27.0243C26.3151 51.375 25.7381 51.952 25.7381 52.6612V54.0716C25.7381 54.4512 25.4303 54.759 25.0507 54.759C24.6711 54.759 24.3633 54.4512 24.3633 54.0716V52.6612C24.3633 51.1939 25.557 50 27.0244 50H30.9662C32.4336 50 33.6273 51.1939 33.6273 52.6612V54.0716C33.6272 54.4512 33.3194 54.759 32.9396 54.759Z" fill="#0F429F"/>
<path d="M42.1893 76H15.7986C14.8052 76 14 75.1947 14 74.2014V55.6702C14 54.6767 14.8053 53.8716 15.7986 53.8716H42.1893C43.1828 53.8716 43.9879 54.6769 43.9879 55.6702V74.2014C43.9881 75.1947 43.1828 76 42.1893 76Z" fill="#94B7FF"/>
<path d="M42.4605 56.5578C42.4605 55.7441 41.8012 55.0844 40.9876 55.0843H17.0031C16.1895 55.0843 15.5296 55.744 15.5296 56.5578V73.3133C15.5296 74.1269 16.1894 74.7868 17.0031 74.7868H40.9876C41.801 74.7867 42.4603 74.127 42.4605 73.3133V56.5578ZM43.1112 73.3133L43.1086 73.4226C43.0516 74.5448 42.1238 75.4374 40.9876 75.4375H17.0031C15.83 75.4375 14.8789 74.4862 14.8789 73.3133V56.5578C14.8789 55.3847 15.8301 54.4336 17.0031 54.4336H40.9876C42.1606 54.4337 43.1112 55.3848 43.1112 56.5578V73.3133Z" fill="#4D52A8"/>
<path d="M43.9878 58.6657V55.9713C43.9878 54.8114 43.0475 53.8711 41.8878 53.8711H39.1934C39.1932 56.519 41.3399 58.6657 43.9878 58.6657Z" fill="#3D74E7"/>
<path d="M18.7945 53.8711H16.1C14.9401 53.8711 14 54.8114 14 55.9713V58.6657C16.6479 58.6657 18.7945 56.519 18.7945 53.8711Z" fill="#3D74E7"/>
<path d="M14 71.2053V73.8998C14 75.0597 14.9403 75.9998 16.1 75.9998H18.7945C18.7946 73.352 16.6481 71.2053 14 71.2053Z" fill="#3D74E7"/>
<path d="M43.988 73.9V71.2056C41.3401 71.2056 39.1934 73.3521 39.1934 76.0002H41.8878C43.0477 76.0001 43.988 75.0598 43.988 73.9Z" fill="#3D74E7"/>
<path d="M23.1784 53.8711H21.7148V75.9997H23.1784V53.8711Z" fill="#0F429F"/>
<path d="M36.5301 53.8711H35.0664V75.9997H36.5301V53.8711Z" fill="#0F429F"/>
<path d="M70.0809 75.5L72.5 75.5L72.5 65.2192C70.6604 65.2192 69.1469 64.0452 68.9492 62.5362C68.8339 62.6554 68.6606 62.7331 68.4642 62.7331C68.1169 62.7331 67.8352 62.4952 67.8352 62.202C67.8352 61.9087 68.1169 61.6709 68.4642 61.6709C68.6604 61.6709 68.8335 61.7485 68.9489 61.8674C69.1455 60.3576 70.6597 59.1825 72.5 59.1825L72.5 28L70.0751 28L70.0751 28.001C70.0751 28.4895 69.6061 28.8854 69.0279 28.8854C68.4495 28.8854 67.9807 28.4895 67.9807 28.001L67.9807 28L65.7593 28L65.7593 28.001C65.7593 28.4895 65.2904 28.8854 64.7121 28.8854C64.1337 28.8854 63.6649 28.4895 63.6649 28.001L63.6649 28L61.4435 28L61.4435 28.001C61.4435 28.4895 60.9746 28.8854 60.3964 28.8854C59.8179 28.8854 59.3492 28.4895 59.3492 28.001L59.3492 28L57.1278 28L57.1278 28.001C57.1278 28.4895 56.659 28.8854 56.0806 28.8854C55.5022 28.8854 55.0334 28.4895 55.0334 28.001L55.0334 28L52.812 28L52.812 28.001C52.812 28.4895 52.3431 28.8854 51.7649 28.8854C51.1864 28.8854 50.7177 28.4895 50.7177 28.001L50.7177 28L48.4963 28L48.4963 28.001C48.4963 28.4895 48.0275 28.8854 47.4491 28.8854C46.8707 28.8854 46.4019 28.4895 46.4019 28.001L46.4019 28L44 28L44 59.1825C45.8419 59.1825 47.3573 60.3595 47.5518 61.8713C47.6674 61.7501 47.8426 61.6709 48.0419 61.6709C48.3891 61.6709 48.6708 61.9087 48.6708 62.202C48.6708 62.4952 48.3891 62.7331 48.0419 62.7331C47.8422 62.7331 47.6668 62.6538 47.5515 62.5323C47.3559 64.0431 45.8412 65.2192 44 65.2192L44 75.5L46.4191 75.5C46.4487 75.034 46.9015 74.6626 47.4608 74.6626C48.0201 74.6626 48.4729 75.0338 48.5025 75.5L50.735 75.5C50.7646 75.034 51.2174 74.6626 51.7767 74.6626C52.336 74.6626 52.7888 75.0338 52.8184 75.5L55.051 75.5C55.0805 75.034 55.5334 74.6626 56.0927 74.6626C56.6519 74.6626 57.1048 75.0338 57.1343 75.5L59.3671 75.5C59.3967 75.034 59.8495 74.6626 60.4088 74.6626C60.9681 74.6626 61.4209 75.0338 61.4505 75.5L63.683 75.5C63.7126 75.034 64.1654 74.6626 64.7247 74.6626C65.284 74.6626 65.7368 75.0338 65.7664 75.5L67.9977 75.5C68.0273 75.034 68.4801 74.6626 69.0394 74.6626C69.5985 74.6628 70.0513 75.034 70.0809 75.5ZM49.6801 62.2021C49.6801 61.9089 49.9617 61.671 50.3107 61.671C50.658 61.671 50.9379 61.9089 50.9379 62.2021C50.9379 62.4954 50.658 62.7332 50.3107 62.7332C49.9617 62.7332 49.6801 62.4954 49.6801 62.2021ZM51.9495 62.2021C51.9495 61.9089 52.2311 61.671 52.5784 61.671C52.9256 61.671 53.2073 61.9089 53.2073 62.2021C53.2073 62.4954 52.9256 62.7332 52.5784 62.7332C52.231 62.7332 51.9495 62.4954 51.9495 62.2021ZM54.2188 62.2021C54.2188 61.9089 54.5005 61.671 54.8478 61.671C55.195 61.671 55.4767 61.9089 55.4767 62.2021C55.4767 62.4954 55.195 62.7332 54.8478 62.7332C54.5005 62.7332 54.2188 62.4954 54.2188 62.2021ZM56.4882 62.2021C56.4882 61.9089 56.7699 61.671 57.1172 61.671C57.4644 61.671 57.7461 61.9089 57.7461 62.2021C57.7461 62.4954 57.4644 62.7332 57.1172 62.7332C56.7699 62.7332 56.4882 62.4954 56.4882 62.2021ZM58.7575 62.2021C58.7575 61.9089 59.0392 61.671 59.3864 61.671C59.7336 61.671 60.0153 61.9089 60.0153 62.2021C60.0153 62.4954 59.7336 62.7332 59.3864 62.7332C59.0393 62.7332 58.7575 62.4954 58.7575 62.2021ZM61.0269 62.2021C61.0269 61.9089 61.3086 61.671 61.6558 61.671C62.003 61.671 62.2847 61.9089 62.2847 62.2021C62.2847 62.4954 62.003 62.7332 61.6558 62.7332C61.3087 62.7332 61.0269 62.4954 61.0269 62.2021ZM63.2963 62.2021C63.2963 61.9089 63.5779 61.671 63.9252 61.671C64.2724 61.671 64.5541 61.9089 64.5541 62.2021C64.5541 62.4954 64.2724 62.7332 63.9252 62.7332C63.5779 62.7332 63.2963 62.4954 63.2963 62.2021ZM65.5658 62.2021C65.5658 61.9089 65.8475 61.671 66.1948 61.671C66.542 61.671 66.8237 61.9089 66.8237 62.2021C66.8237 62.4954 66.542 62.7332 66.1948 62.7332C65.8473 62.7332 65.5658 62.4954 65.5658 62.2021Z" fill="#CFDFFF"/>
<path d="M69.7636 48.5039H68.8066V49.4608H69.7636V48.5039Z" fill="#246AFF"/>
<path d="M69.7636 47.5464H68.8066V48.5033H69.7636V47.5464Z" fill="#246AFF"/>
<path d="M69.7636 46.5891H68.8066V47.5461H69.7636V46.5891Z" fill="#246AFF"/>
<path d="M69.7636 43.718H68.8066V44.675H69.7636V43.718Z" fill="#246AFF"/>
<path d="M69.7636 42.7612H68.8066V43.7182H69.7636V42.7612Z" fill="#246AFF"/>
<path d="M69.7636 41.8042H68.8066V42.7611H69.7636V41.8042Z" fill="#246AFF"/>
<path d="M68.8065 47.5464H67.8496V48.5033H68.8065V47.5464Z" fill="#246AFF"/>
<path d="M68.8065 46.5891H67.8496V47.5461H68.8065V46.5891Z" fill="#246AFF"/>
<path d="M68.8065 45.6323H67.8496V46.5893H68.8065V45.6323Z" fill="#246AFF"/>
<path d="M68.8065 43.718H67.8496V44.675H68.8065V43.718Z" fill="#246AFF"/>
<path d="M68.8065 42.7612H67.8496V43.7182H68.8065V42.7612Z" fill="#246AFF"/>
<path d="M67.8495 47.5464H66.8926V48.5033H67.8495V47.5464Z" fill="#246AFF"/>
<path d="M67.8495 46.5891H66.8926V47.5461H67.8495V46.5891Z" fill="#246AFF"/>
<path d="M67.8495 44.6753H66.8926V45.6322H67.8495V44.6753Z" fill="#246AFF"/>
<path d="M67.8495 43.718H66.8926V44.675H67.8495V43.718Z" fill="#246AFF"/>
<path d="M67.8495 42.7612H66.8926V43.7182H67.8495V42.7612Z" fill="#246AFF"/>
<path d="M67.8495 41.8042H66.8926V42.7611H67.8495V41.8042Z" fill="#246AFF"/>
<path d="M66.8925 48.5039H65.9355V49.4608H66.8925V48.5039Z" fill="#246AFF"/>
<path d="M66.8925 47.5461H65.9355V48.5031H66.8925V47.5461Z" fill="#246AFF"/>
<path d="M66.8925 44.6753H65.9355V45.6322H66.8925V44.6753Z" fill="#246AFF"/>
<path d="M66.8925 43.7183H65.9355V44.6752H66.8925V43.7183Z" fill="#246AFF"/>
<path d="M66.8925 42.7612H65.9355V43.7182H66.8925V42.7612Z" fill="#246AFF"/>
<path d="M66.8925 41.8042H65.9355V42.7611H66.8925V41.8042Z" fill="#246AFF"/>
<path d="M65.9354 48.5039H64.9785V49.4608H65.9354V48.5039Z" fill="#246AFF"/>
<path d="M65.9354 47.5464H64.9785V48.5033H65.9354V47.5464Z" fill="#246AFF"/>
<path d="M65.9354 46.5891H64.9785V47.5461H65.9354V46.5891Z" fill="#246AFF"/>
<path d="M65.9354 45.6323H64.9785V46.5893H65.9354V45.6323Z" fill="#246AFF"/>
<path d="M65.9354 44.6753H64.9785V45.6322H65.9354V44.6753Z" fill="#246AFF"/>
<path d="M65.9354 42.7612H64.9785V43.7182H65.9354V42.7612Z" fill="#246AFF"/>
<path d="M65.9354 41.8042H64.9785V42.7611H65.9354V41.8042Z" fill="#246AFF"/>
<path d="M64.9784 47.5461H64.0215V48.5031H64.9784V47.5461Z" fill="#246AFF"/>
<path d="M64.9784 45.6323H64.0215V46.5893H64.9784V45.6323Z" fill="#246AFF"/>
<path d="M64.9784 44.6753H64.0215V45.6322H64.9784V44.6753Z" fill="#246AFF"/>
<path d="M64.9784 43.7183H64.0215V44.6752H64.9784V43.7183Z" fill="#246AFF"/>
<path d="M64.9784 42.7612H64.0215V43.7182H64.9784V42.7612Z" fill="#246AFF"/>
<path d="M64.9784 41.8042H64.0215V42.7611H64.9784V41.8042Z" fill="#246AFF"/>
<path d="M64.0214 47.5464H63.0645V48.5033H64.0214V47.5464Z" fill="#246AFF"/>
<path d="M64.0214 46.5891H63.0645V47.5461H64.0214V46.5891Z" fill="#246AFF"/>
<path d="M64.0214 45.6323H63.0645V46.5893H64.0214V45.6323Z" fill="#246AFF"/>
<path d="M64.0214 41.8042H63.0645V42.7611H64.0214V41.8042Z" fill="#246AFF"/>
<path d="M69.7636 39.8904H68.8066V40.8473H69.7636V39.8904Z" fill="#246AFF"/>
<path d="M69.7636 38.9331H68.8066V39.89H69.7636V38.9331Z" fill="#246AFF"/>
<path d="M69.7636 37.9753H68.8066V38.9323H69.7636V37.9753Z" fill="#246AFF"/>
<path d="M69.7636 37.0181H68.8066V37.975H69.7636V37.0181Z" fill="#246AFF"/>
<path d="M69.7636 36.0615H68.8066V37.0185H69.7636V36.0615Z" fill="#246AFF"/>
<path d="M69.7636 35.1042H68.8066V36.0612H69.7636V35.1042Z" fill="#246AFF"/>
<path d="M69.7636 34.147H68.8066V35.1039H69.7636V34.147Z" fill="#246AFF"/>
<path d="M68.8065 34.147H67.8496V35.1039H68.8065V34.147Z" fill="#246AFF"/>
<path d="M67.8495 39.8904H66.8926V40.8473H67.8495V39.8904Z" fill="#246AFF"/>
<path d="M68.8065 39.8904H67.8496V40.8473H68.8065V39.8904Z" fill="#246AFF"/>
<path d="M67.8495 37.9753H66.8926V38.9323H67.8495V37.9753Z" fill="#246AFF"/>
<path d="M67.8495 37.0181H66.8926V37.975H67.8495V37.0181Z" fill="#246AFF"/>
<path d="M67.8495 36.0615H66.8926V37.0185H67.8495V36.0615Z" fill="#246AFF"/>
<path d="M67.8495 34.147H66.8926V35.1039H67.8495V34.147Z" fill="#246AFF"/>
<path d="M66.8925 39.8904H65.9355V40.8473H66.8925V39.8904Z" fill="#246AFF"/>
<path d="M66.8925 37.9753H65.9355V38.9323H66.8925V37.9753Z" fill="#246AFF"/>
<path d="M66.8925 37.0181H65.9355V37.975H66.8925V37.0181Z" fill="#246AFF"/>
<path d="M66.8925 36.0615H65.9355V37.0185H66.8925V36.0615Z" fill="#246AFF"/>
<path d="M66.8925 34.147H65.9355V35.1039H66.8925V34.147Z" fill="#246AFF"/>
<path d="M65.9354 39.8904H64.9785V40.8473H65.9354V39.8904Z" fill="#246AFF"/>
<path d="M65.9354 37.9753H64.9785V38.9323H65.9354V37.9753Z" fill="#246AFF"/>
<path d="M65.9354 37.0181H64.9785V37.975H65.9354V37.0181Z" fill="#246AFF"/>
<path d="M65.9354 36.0615H64.9785V37.0185H65.9354V36.0615Z" fill="#246AFF"/>
<path d="M65.9354 34.147H64.9785V35.1039H65.9354V34.147Z" fill="#246AFF"/>
<path d="M64.9784 39.8904H64.0215V40.8473H64.9784V39.8904Z" fill="#246AFF"/>
<path d="M64.9784 34.147H64.0215V35.1039H64.9784V34.147Z" fill="#246AFF"/>
<path d="M64.0214 39.8904H63.0645V40.8473H64.0214V39.8904Z" fill="#246AFF"/>
<path d="M64.0214 38.9331H63.0645V39.89H64.0214V38.9331Z" fill="#246AFF"/>
<path d="M64.0214 37.9753H63.0645V38.9323H64.0214V37.9753Z" fill="#246AFF"/>
<path d="M64.0214 37.0181H63.0645V37.975H64.0214V37.0181Z" fill="#246AFF"/>
<path d="M64.0214 36.0615H63.0645V37.0185H64.0214V36.0615Z" fill="#246AFF"/>
<path d="M64.0214 35.1042H63.0645V36.0612H64.0214V35.1042Z" fill="#246AFF"/>
<path d="M64.0214 34.147H63.0645V35.1039H64.0214V34.147Z" fill="#246AFF"/>
<path d="M63.0643 48.5039H62.1074V49.4608H63.0643V48.5039Z" fill="#246AFF"/>
<path d="M63.0643 47.5464H62.1074V48.5033H63.0643V47.5464Z" fill="#246AFF"/>
<path d="M63.0643 45.6323H62.1074V46.5893H63.0643V45.6323Z" fill="#246AFF"/>
<path d="M63.0643 42.7612H62.1074V43.7182H63.0643V42.7612Z" fill="#246AFF"/>
<path d="M63.0643 41.8042H62.1074V42.7611H63.0643V41.8042Z" fill="#246AFF"/>
<path d="M62.1073 41.8042H61.1504V42.7611H62.1073V41.8042Z" fill="#246AFF"/>
<path d="M62.1073 35.1045H61.1504V36.0614H62.1073V35.1045Z" fill="#246AFF"/>
<path d="M62.1073 39.8904H61.1504V40.8473H62.1073V39.8904Z" fill="#246AFF"/>
<path d="M62.1073 37.9753H61.1504V38.9323H62.1073V37.9753Z" fill="#246AFF"/>
<path d="M61.1503 55.2029H60.1934V56.1598H61.1503V55.2029Z" fill="#246AFF"/>
<path d="M62.1073 56.1599H61.1504V57.1169H62.1073V56.1599Z" fill="#246AFF"/>
<path d="M61.1503 51.375H60.1934V52.3319H61.1503V51.375Z" fill="#246AFF"/>
<path d="M61.1503 50.418H60.1934V51.3749H61.1503V50.418Z" fill="#246AFF"/>
<path d="M61.1503 49.4607H60.1934V50.4176H61.1503V49.4607Z" fill="#246AFF"/>
<path d="M61.1503 41.8042H60.1934V42.7611H61.1503V41.8042Z" fill="#246AFF"/>
<path d="M61.1503 38.9331H60.1934V39.89H61.1503V38.9331Z" fill="#246AFF"/>
<path d="M61.1503 36.0615H60.1934V37.0185H61.1503V36.0615Z" fill="#246AFF"/>
<path d="M61.1503 35.1042H60.1934V36.0612H61.1503V35.1042Z" fill="#246AFF"/>
<path d="M61.1503 34.147H60.1934V35.1039H61.1503V34.147Z" fill="#246AFF"/>
<path d="M63.0643 44.6753H62.1074V45.6322H63.0643V44.6753Z" fill="#246AFF"/>
<path d="M62.1073 43.7183H61.1504V44.6752H62.1073V43.7183Z" fill="#246AFF"/>
<path d="M60.1933 55.2029H59.2363V56.1598H60.1933V55.2029Z" fill="#246AFF"/>
<path d="M60.1933 54.2461H59.2363V55.203H60.1933V54.2461Z" fill="#246AFF"/>
<path d="M60.1933 51.375H59.2363V52.3319H60.1933V51.375Z" fill="#246AFF"/>
<path d="M60.1933 50.418H59.2363V51.3749H60.1933V50.418Z" fill="#246AFF"/>
<path d="M60.1933 49.4607H59.2363V50.4176H60.1933V49.4607Z" fill="#246AFF"/>
<path d="M60.1933 48.5039H59.2363V49.4608H60.1933V48.5039Z" fill="#246AFF"/>
<path d="M60.1933 47.5464H59.2363V48.5033H60.1933V47.5464Z" fill="#246AFF"/>
<path d="M60.1933 46.5891H59.2363V47.5461H60.1933V46.5891Z" fill="#246AFF"/>
<path d="M60.1933 45.6323H59.2363V46.5893H60.1933V45.6323Z" fill="#246AFF"/>
<path d="M60.1933 44.6753H59.2363V45.6322H60.1933V44.6753Z" fill="#246AFF"/>
<path d="M60.1933 43.718H59.2363V44.675H60.1933V43.718Z" fill="#246AFF"/>
<path d="M60.1933 40.8469H59.2363V41.8039H60.1933V40.8469Z" fill="#246AFF"/>
<path d="M60.1933 39.8904H59.2363V40.8473H60.1933V39.8904Z" fill="#246AFF"/>
<path d="M60.1933 38.9331H59.2363V39.89H60.1933V38.9331Z" fill="#246AFF"/>
<path d="M60.1933 36.0615H59.2363V37.0185H60.1933V36.0615Z" fill="#246AFF"/>
<path d="M60.1933 35.1042H59.2363V36.0612H60.1933V35.1042Z" fill="#246AFF"/>
<path d="M59.2362 55.2029H58.2793V56.1598H59.2362V55.2029Z" fill="#246AFF"/>
<path d="M59.2362 54.2461H58.2793V55.203H59.2362V54.2461Z" fill="#246AFF"/>
<path d="M59.2362 50.418H58.2793V51.3749H59.2362V50.418Z" fill="#246AFF"/>
<path d="M59.2362 49.4607H58.2793V50.4176H59.2362V49.4607Z" fill="#246AFF"/>
<path d="M59.2362 46.5891H58.2793V47.5461H59.2362V46.5891Z" fill="#246AFF"/>
<path d="M59.2362 45.6323H58.2793V46.5893H59.2362V45.6323Z" fill="#246AFF"/>
<path d="M59.2362 42.7612H58.2793V43.7182H59.2362V42.7612Z" fill="#246AFF"/>
<path d="M59.2362 41.8042H58.2793V42.7611H59.2362V41.8042Z" fill="#246AFF"/>
<path d="M59.2362 40.8469H58.2793V41.8039H59.2362V40.8469Z" fill="#246AFF"/>
<path d="M59.2362 39.8904H58.2793V40.8473H59.2362V39.8904Z" fill="#246AFF"/>
<path d="M59.2362 38.9331H58.2793V39.89H59.2362V38.9331Z" fill="#246AFF"/>
<path d="M59.2362 37.0181H58.2793V37.975H59.2362V37.0181Z" fill="#246AFF"/>
<path d="M59.2362 35.1042H58.2793V36.0612H59.2362V35.1042Z" fill="#246AFF"/>
<path d="M58.2792 56.1599H57.3223V57.1169H58.2792V56.1599Z" fill="#246AFF"/>
<path d="M58.2792 54.2461H57.3223V55.203H58.2792V54.2461Z" fill="#246AFF"/>
<path d="M58.2792 53.2891H57.3223V54.246H58.2792V53.2891Z" fill="#246AFF"/>
<path d="M58.2792 51.375H57.3223V52.3319H58.2792V51.375Z" fill="#246AFF"/>
<path d="M58.2792 50.418H57.3223V51.3749H58.2792V50.418Z" fill="#246AFF"/>
<path d="M58.2792 49.4609H57.3223V50.4179H58.2792V49.4609Z" fill="#246AFF"/>
<path d="M58.2792 48.5039H57.3223V49.4608H58.2792V48.5039Z" fill="#246AFF"/>
<path d="M58.2792 42.7612H57.3223V43.7182H58.2792V42.7612Z" fill="#246AFF"/>
<path d="M58.2792 41.8042H57.3223V42.7611H58.2792V41.8042Z" fill="#246AFF"/>
<path d="M56.3652 37.9753H55.4082V38.9323H56.3652V37.9753Z" fill="#246AFF"/>
<path d="M58.2792 39.8904H57.3223V40.8473H58.2792V39.8904Z" fill="#246AFF"/>
<path d="M58.2792 38.9331H57.3223V39.89H58.2792V38.9331Z" fill="#246AFF"/>
<path d="M58.2792 37.0181H57.3223V37.975H58.2792V37.0181Z" fill="#246AFF"/>
<path d="M57.3222 56.1599H56.3652V57.1169H57.3222V56.1599Z" fill="#246AFF"/>
<path d="M57.3222 55.2029H56.3652V56.1598H57.3222V55.2029Z" fill="#246AFF"/>
<path d="M57.3222 54.2461H56.3652V55.203H57.3222V54.2461Z" fill="#246AFF"/>
<path d="M57.3222 51.375H56.3652V52.3319H57.3222V51.375Z" fill="#246AFF"/>
<path d="M57.3222 48.5039H56.3652V49.4608H57.3222V48.5039Z" fill="#246AFF"/>
<path d="M57.3222 43.718H56.3652V44.675H57.3222V43.718Z" fill="#246AFF"/>
<path d="M57.3222 42.7612H56.3652V43.7182H57.3222V42.7612Z" fill="#246AFF"/>
<path d="M57.3222 41.8042H56.3652V42.7611H57.3222V41.8042Z" fill="#246AFF"/>
<path d="M57.3222 39.8904H56.3652V40.8473H57.3222V39.8904Z" fill="#246AFF"/>
<path d="M57.3222 38.9331H56.3652V39.89H57.3222V38.9331Z" fill="#246AFF"/>
<path d="M57.3222 34.147H56.3652V35.1039H57.3222V34.147Z" fill="#246AFF"/>
<path d="M56.3652 56.1599H55.4082V57.1169H56.3652V56.1599Z" fill="#246AFF"/>
<path d="M56.3652 55.2029H55.4082V56.1598H56.3652V55.2029Z" fill="#246AFF"/>
<path d="M56.3652 54.2461H55.4082V55.203H56.3652V54.2461Z" fill="#246AFF"/>
<path d="M56.3652 53.2891H55.4082V54.246H56.3652V53.2891Z" fill="#246AFF"/>
<path d="M56.3652 52.3318H55.4082V53.2887H56.3652V52.3318Z" fill="#246AFF"/>
<path d="M56.3652 51.375H55.4082V52.3319H56.3652V51.375Z" fill="#246AFF"/>
<path d="M56.3652 48.5039H55.4082V49.4608H56.3652V48.5039Z" fill="#246AFF"/>
<path d="M56.3652 46.5891H55.4082V47.5461H56.3652V46.5891Z" fill="#246AFF"/>
<path d="M56.3652 45.6323H55.4082V46.5893H56.3652V45.6323Z" fill="#246AFF"/>
<path d="M56.3652 42.7612H55.4082V43.7182H56.3652V42.7612Z" fill="#246AFF"/>
<path d="M56.3652 35.1045H55.4082V36.0614H56.3652V35.1045Z" fill="#246AFF"/>
<path d="M56.3652 34.147H55.4082V35.1039H56.3652V34.147Z" fill="#246AFF"/>
<path d="M55.4081 56.1599H54.4512V57.1169H55.4081V56.1599Z" fill="#246AFF"/>
<path d="M55.4081 53.2891H54.4512V54.246H55.4081V53.2891Z" fill="#246AFF"/>
<path d="M55.4081 52.3318H54.4512V53.2887H55.4081V52.3318Z" fill="#246AFF"/>
<path d="M55.4081 51.375H54.4512V52.3319H55.4081V51.375Z" fill="#246AFF"/>
<path d="M55.4081 50.418H54.4512V51.3749H55.4081V50.418Z" fill="#246AFF"/>
<path d="M55.4081 49.4607H54.4512V50.4176H55.4081V49.4607Z" fill="#246AFF"/>
<path d="M55.4081 48.5039H54.4512V49.4608H55.4081V48.5039Z" fill="#246AFF"/>
<path d="M55.4081 46.5891H54.4512V47.5461H55.4081V46.5891Z" fill="#246AFF"/>
<path d="M55.4081 45.6323H54.4512V46.5893H55.4081V45.6323Z" fill="#246AFF"/>
<path d="M55.4081 44.6753H54.4512V45.6322H55.4081V44.6753Z" fill="#246AFF"/>
<path d="M55.4081 43.718H54.4512V44.675H55.4081V43.718Z" fill="#246AFF"/>
<path d="M55.4081 42.7612H54.4512V43.7182H55.4081V42.7612Z" fill="#246AFF"/>
<path d="M55.4081 41.8042H54.4512V42.7611H55.4081V41.8042Z" fill="#246AFF"/>
<path d="M55.4081 37.0181H54.4512V37.975H55.4081V37.0181Z" fill="#246AFF"/>
<path d="M55.4081 36.0615H54.4512V37.0185H55.4081V36.0615Z" fill="#246AFF"/>
<path d="M55.4081 35.1042H54.4512V36.0612H55.4081V35.1042Z" fill="#246AFF"/>
<path d="M55.4081 34.147H54.4512V35.1039H55.4081V34.147Z" fill="#246AFF"/>
<path d="M62.1073 52.3318H61.1504V53.2887H62.1073V52.3318Z" fill="#246AFF"/>
<path d="M62.1073 47.5461H61.1504V48.5031H62.1073V47.5461Z" fill="#246AFF"/>
<path d="M54.4511 56.1599H53.4941V57.1169H54.4511V56.1599Z" fill="#246AFF"/>
<path d="M54.4511 55.2029H53.4941V56.1598H54.4511V55.2029Z" fill="#246AFF"/>
<path d="M54.4511 54.2461H53.4941V55.203H54.4511V54.2461Z" fill="#246AFF"/>
<path d="M54.4511 53.2891H53.4941V54.246H54.4511V53.2891Z" fill="#246AFF"/>
<path d="M54.4511 52.3318H53.4941V53.2887H54.4511V52.3318Z" fill="#246AFF"/>
<path d="M54.4511 51.375H53.4941V52.3319H54.4511V51.375Z" fill="#246AFF"/>
<path d="M54.4511 50.418H53.4941V51.3749H54.4511V50.418Z" fill="#246AFF"/>
<path d="M54.4511 49.4607H53.4941V50.4176H54.4511V49.4607Z" fill="#246AFF"/>
<path d="M54.4511 48.5039H53.4941V49.4608H54.4511V48.5039Z" fill="#246AFF"/>
<path d="M54.4511 47.5464H53.4941V48.5033H54.4511V47.5464Z" fill="#246AFF"/>
<path d="M54.4511 46.5891H53.4941V47.5461H54.4511V46.5891Z" fill="#246AFF"/>
<path d="M54.4511 44.6753H53.4941V45.6322H54.4511V44.6753Z" fill="#246AFF"/>
<path d="M54.4511 43.718H53.4941V44.675H54.4511V43.718Z" fill="#246AFF"/>
<path d="M54.4511 42.7612H53.4941V43.7182H54.4511V42.7612Z" fill="#246AFF"/>
<path d="M53.4941 53.2891H52.5371V54.246H53.4941V53.2891Z" fill="#246AFF"/>
<path d="M53.4941 50.418H52.5371V51.3749H53.4941V50.418Z" fill="#246AFF"/>
<path d="M53.4941 49.4609H52.5371V50.4179H53.4941V49.4609Z" fill="#246AFF"/>
<path d="M53.4941 48.5039H52.5371V49.4608H53.4941V48.5039Z" fill="#246AFF"/>
<path d="M53.4941 47.5461H52.5371V48.5031H53.4941V47.5461Z" fill="#246AFF"/>
<path d="M53.4941 46.5891H52.5371V47.5461H53.4941V46.5891Z" fill="#246AFF"/>
<path d="M53.4941 45.6323H52.5371V46.5893H53.4941V45.6323Z" fill="#246AFF"/>
<path d="M53.4941 43.7183H52.5371V44.6752H53.4941V43.7183Z" fill="#246AFF"/>
<path d="M53.4941 41.8042H52.5371V42.7611H53.4941V41.8042Z" fill="#246AFF"/>
<path d="M52.5351 50.418H51.5781V51.3749H52.5351V50.418Z" fill="#246AFF"/>
<path d="M52.5351 48.5039H51.5781V49.4608H52.5351V48.5039Z" fill="#246AFF"/>
<path d="M52.5351 46.5891H51.5781V47.5461H52.5351V46.5891Z" fill="#246AFF"/>
<path d="M52.5351 45.6323H51.5781V46.5893H52.5351V45.6323Z" fill="#246AFF"/>
<path d="M52.5351 43.718H51.5781V44.675H52.5351V43.718Z" fill="#246AFF"/>
<path d="M52.5351 42.7612H51.5781V43.7182H52.5351V42.7612Z" fill="#246AFF"/>
<path d="M52.5351 41.8042H51.5781V42.7611H52.5351V41.8042Z" fill="#246AFF"/>
<path d="M51.58 55.2029H50.623V56.1598H51.58V55.2029Z" fill="#246AFF"/>
<path d="M51.58 50.418H50.623V51.3749H51.58V50.418Z" fill="#246AFF"/>
<path d="M51.58 48.5039H50.623V49.4608H51.58V48.5039Z" fill="#246AFF"/>
<path d="M51.58 46.5891H50.623V47.5461H51.58V46.5891Z" fill="#246AFF"/>
<path d="M51.58 44.6753H50.623V45.6322H51.58V44.6753Z" fill="#246AFF"/>
<path d="M51.58 43.718H50.623V44.675H51.58V43.718Z" fill="#246AFF"/>
<path d="M51.58 42.7612H50.623V43.7182H51.58V42.7612Z" fill="#246AFF"/>
<path d="M50.623 56.1599H49.666V57.1169H50.623V56.1599Z" fill="#246AFF"/>
<path d="M50.623 55.2029H49.666V56.1598H50.623V55.2029Z" fill="#246AFF"/>
<path d="M50.623 52.3318H49.666V53.2887H50.623V52.3318Z" fill="#246AFF"/>
<path d="M50.623 51.375H49.666V52.3319H50.623V51.375Z" fill="#246AFF"/>
<path d="M52.5351 52.3318H51.5781V53.2887H52.5351V52.3318Z" fill="#246AFF"/>
<path d="M50.623 50.418H49.666V51.3749H50.623V50.418Z" fill="#246AFF"/>
<path d="M50.623 48.5039H49.666V49.4608H50.623V48.5039Z" fill="#246AFF"/>
<path d="M50.623 54.2461H49.666V55.203H50.623V54.2461Z" fill="#246AFF"/>
<path d="M50.623 53.2891H49.666V54.246H50.623V53.2891Z" fill="#246AFF"/>
<path d="M49.6659 53.2891H48.709V54.246H49.6659V53.2891Z" fill="#246AFF"/>
<path d="M48.7089 54.2461H47.752V55.203H48.7089V54.2461Z" fill="#246AFF"/>
<path d="M48.7089 53.2891H47.752V54.246H48.7089V53.2891Z" fill="#246AFF"/>
<path d="M50.623 43.718H49.666V44.675H50.623V43.718Z" fill="#246AFF"/>
<path d="M50.623 42.7612H49.666V43.7182H50.623V42.7612Z" fill="#246AFF"/>
<path d="M50.623 41.8042H49.666V42.7611H50.623V41.8042Z" fill="#246AFF"/>
<path d="M49.6659 56.1599H48.709V57.1169H49.6659V56.1599Z" fill="#246AFF"/>
<path d="M49.6659 51.375H48.709V52.3319H49.6659V51.375Z" fill="#246AFF"/>
<path d="M49.6659 50.418H48.709V51.3749H49.6659V50.418Z" fill="#246AFF"/>
<path d="M49.6659 49.4609H48.709V50.4179H49.6659V49.4609Z" fill="#246AFF"/>
<path d="M49.6659 44.6753H48.709V45.6322H49.6659V44.6753Z" fill="#246AFF"/>
<path d="M49.6659 41.8042H48.709V42.7611H49.6659V41.8042Z" fill="#246AFF"/>
<path d="M48.7089 51.375H47.752V52.3319H48.7089V51.375Z" fill="#246AFF"/>
<path d="M48.7089 50.418H47.752V51.3749H48.7089V50.418Z" fill="#246AFF"/>
<path d="M48.7089 46.5891H47.752V47.5461H48.7089V46.5891Z" fill="#246AFF"/>
<path d="M48.7089 45.6323H47.752V46.5893H48.7089V45.6323Z" fill="#246AFF"/>
<path d="M48.7089 44.6753H47.752V45.6322H48.7089V44.6753Z" fill="#246AFF"/>
<path d="M48.7089 41.8042H47.752V42.7611H48.7089V41.8042Z" fill="#246AFF"/>
<path d="M47.7519 56.1599H46.7949V57.1169H47.7519V56.1599Z" fill="#246AFF"/>
<path d="M47.7519 52.3318H46.7949V53.2887H47.7519V52.3318Z" fill="#246AFF"/>
<path d="M47.7519 51.375H46.7949V52.3319H47.7519V51.375Z" fill="#246AFF"/>
<path d="M47.7519 50.418H46.7949V51.3749H47.7519V50.418Z" fill="#246AFF"/>
<path d="M47.7519 48.5039H46.7949V49.4608H47.7519V48.5039Z" fill="#246AFF"/>
<path d="M47.7519 46.5891H46.7949V47.5461H47.7519V46.5891Z" fill="#246AFF"/>
<path d="M47.7519 45.6323H46.7949V46.5893H47.7519V45.6323Z" fill="#246AFF"/>
<path d="M47.7519 44.6753H46.7949V45.6322H47.7519V44.6753Z" fill="#246AFF"/>
<path d="M47.7519 42.7612H46.7949V43.7182H47.7519V42.7612Z" fill="#246AFF"/>
<path d="M47.7519 41.8042H46.7949V42.7611H47.7519V41.8042Z" fill="#246AFF"/>
<path d="M53.4941 39.8904H52.5371V40.8473H53.4941V39.8904Z" fill="#246AFF"/>
<path d="M53.4941 38.9331H52.5371V39.89H53.4941V38.9331Z" fill="#246AFF"/>
<path d="M53.4941 37.9753H52.5371V38.9323H53.4941V37.9753Z" fill="#246AFF"/>
<path d="M53.4941 37.0181H52.5371V37.975H53.4941V37.0181Z" fill="#246AFF"/>
<path d="M53.4941 36.0615H52.5371V37.0185H53.4941V36.0615Z" fill="#246AFF"/>
<path d="M53.4941 35.1045H52.5371V36.0614H53.4941V35.1045Z" fill="#246AFF"/>
<path d="M53.4941 34.147H52.5371V35.1039H53.4941V34.147Z" fill="#246AFF"/>
<path d="M52.5351 34.147H51.5781V35.1039H52.5351V34.147Z" fill="#246AFF"/>
<path d="M51.58 39.8904H50.623V40.8473H51.58V39.8904Z" fill="#246AFF"/>
<path d="M52.5351 39.8904H51.5781V40.8473H52.5351V39.8904Z" fill="#246AFF"/>
<path d="M51.58 37.9753H50.623V38.9323H51.58V37.9753Z" fill="#246AFF"/>
<path d="M51.58 37.0181H50.623V37.975H51.58V37.0181Z" fill="#246AFF"/>
<path d="M51.58 36.0615H50.623V37.0185H51.58V36.0615Z" fill="#246AFF"/>
<path d="M51.58 34.147H50.623V35.1039H51.58V34.147Z" fill="#246AFF"/>
<path d="M50.623 39.8904H49.666V40.8473H50.623V39.8904Z" fill="#246AFF"/>
<path d="M50.623 37.9753H49.666V38.9323H50.623V37.9753Z" fill="#246AFF"/>
<path d="M50.623 37.0181H49.666V37.975H50.623V37.0181Z" fill="#246AFF"/>
<path d="M50.623 36.0615H49.666V37.0185H50.623V36.0615Z" fill="#246AFF"/>
<path d="M50.623 34.147H49.666V35.1039H50.623V34.147Z" fill="#246AFF"/>
<path d="M49.6659 39.8904H48.709V40.8473H49.6659V39.8904Z" fill="#246AFF"/>
<path d="M49.6659 37.9753H48.709V38.9323H49.6659V37.9753Z" fill="#246AFF"/>
<path d="M49.6659 37.0181H48.709V37.975H49.6659V37.0181Z" fill="#246AFF"/>
<path d="M49.6659 36.0615H48.709V37.0185H49.6659V36.0615Z" fill="#246AFF"/>
<path d="M49.6659 34.147H48.709V35.1039H49.6659V34.147Z" fill="#246AFF"/>
<path d="M48.7089 39.8904H47.752V40.8473H48.7089V39.8904Z" fill="#246AFF"/>
<path d="M48.7089 34.147H47.752V35.1039H48.7089V34.147Z" fill="#246AFF"/>
<path d="M47.7519 39.8904H46.7949V40.8473H47.7519V39.8904Z" fill="#246AFF"/>
<path d="M47.7519 38.9331H46.7949V39.89H47.7519V38.9331Z" fill="#246AFF"/>
<path d="M47.7519 37.9753H46.7949V38.9323H47.7519V37.9753Z" fill="#246AFF"/>
<path d="M47.7519 37.0181H46.7949V37.975H47.7519V37.0181Z" fill="#246AFF"/>
<path d="M47.7519 36.0615H46.7949V37.0185H47.7519V36.0615Z" fill="#246AFF"/>
<path d="M47.7519 35.1045H46.7949V36.0614H47.7519V35.1045Z" fill="#246AFF"/>
<path d="M47.7519 34.147H46.7949V35.1039H47.7519V34.147Z" fill="#246AFF"/>
<path d="M69.7636 56.1606H68.8066V57.1176H69.7636V56.1606Z" fill="#246AFF"/>
<path d="M69.7636 55.2034H68.8066V56.1603H69.7636V55.2034Z" fill="#246AFF"/>
<path d="M69.7636 54.2461H68.8066V55.203H69.7636V54.2461Z" fill="#246AFF"/>
<path d="M69.7636 53.2891H68.8066V54.246H69.7636V53.2891Z" fill="#246AFF"/>
<path d="M69.7636 52.3318H68.8066V53.2887H69.7636V52.3318Z" fill="#246AFF"/>
<path d="M69.7636 51.375H68.8066V52.3319H69.7636V51.375Z" fill="#246AFF"/>
<path d="M69.7636 50.418H68.8066V51.3749H69.7636V50.418Z" fill="#246AFF"/>
<path d="M68.8065 50.418H67.8496V51.3749H68.8065V50.418Z" fill="#246AFF"/>
<path d="M67.8495 56.1606H66.8926V57.1176H67.8495V56.1606Z" fill="#246AFF"/>
<path d="M68.8065 56.1606H67.8496V57.1176H68.8065V56.1606Z" fill="#246AFF"/>
<path d="M67.8495 54.2461H66.8926V55.203H67.8495V54.2461Z" fill="#246AFF"/>
<path d="M67.8495 53.2891H66.8926V54.246H67.8495V53.2891Z" fill="#246AFF"/>
<path d="M67.8495 52.3318H66.8926V53.2887H67.8495V52.3318Z" fill="#246AFF"/>
<path d="M67.8495 50.418H66.8926V51.3749H67.8495V50.418Z" fill="#246AFF"/>
<path d="M66.8925 56.1606H65.9355V57.1176H66.8925V56.1606Z" fill="#246AFF"/>
<path d="M66.8925 54.2461H65.9355V55.203H66.8925V54.2461Z" fill="#246AFF"/>
<path d="M66.8925 53.2891H65.9355V54.246H66.8925V53.2891Z" fill="#246AFF"/>
<path d="M66.8925 52.3318H65.9355V53.2887H66.8925V52.3318Z" fill="#246AFF"/>
<path d="M66.8925 50.418H65.9355V51.3749H66.8925V50.418Z" fill="#246AFF"/>
<path d="M65.9354 56.1606H64.9785V57.1176H65.9354V56.1606Z" fill="#246AFF"/>
<path d="M65.9354 54.2461H64.9785V55.203H65.9354V54.2461Z" fill="#246AFF"/>
<path d="M65.9354 53.2891H64.9785V54.246H65.9354V53.2891Z" fill="#246AFF"/>
<path d="M65.9354 52.3318H64.9785V53.2887H65.9354V52.3318Z" fill="#246AFF"/>
<path d="M65.9354 50.418H64.9785V51.3749H65.9354V50.418Z" fill="#246AFF"/>
<path d="M64.9784 56.1606H64.0215V57.1176H64.9784V56.1606Z" fill="#246AFF"/>
<path d="M64.9784 50.418H64.0215V51.3749H64.9784V50.418Z" fill="#246AFF"/>
<path d="M64.0214 56.1606H63.0645V57.1176H64.0214V56.1606Z" fill="#246AFF"/>
<path d="M64.0214 55.2034H63.0645V56.1603H64.0214V55.2034Z" fill="#246AFF"/>
<path d="M64.0214 54.2461H63.0645V55.203H64.0214V54.2461Z" fill="#246AFF"/>
<path d="M64.0214 53.2891H63.0645V54.246H64.0214V53.2891Z" fill="#246AFF"/>
<path d="M64.0214 52.3318H63.0645V53.2887H64.0214V52.3318Z" fill="#246AFF"/>
<path d="M64.0214 51.375H63.0645V52.3319H64.0214V51.375Z" fill="#246AFF"/>
<path d="M64.0214 50.418H63.0645V51.3749H64.0214V50.418Z" fill="#246AFF"/>
</svg>
