<svg width="64" height="64" viewBox="0 0 64 64" fill="none" xmlns="http://www.w3.org/2000/svg">
  <rect width="64" height="64" rx="32" fill="#8E44AD"/>
  <path d="M32 13L47 20V33C47 41.5 40.5 48 32 51C23.5 48 17 41.5 17 33V20L32 13Z" stroke="white" stroke-width="2.5" fill="none" stroke-linejoin="round"/>
  <path d="M27.5 36.5C27.5 36.5 27.5 39 32 39C36.5 39 36.5 36.5 36.5 36.5C36.5 34 34.5 33 32 32C29.5 31 27.5 30 27.5 27.5C27.5 27.5 27.5 25 32 25C36.5 25 36.5 27.5 36.5 27.5" stroke="white" stroke-width="2.5" stroke-linecap="round"/>
  <line x1="32" y1="23" x2="32" y2="25" stroke="white" stroke-width="2.5" stroke-linecap="round"/>
  <line x1="32" y1="39" x2="32" y2="41" stroke="white" stroke-width="2.5" stroke-linecap="round"/>
</svg>
