<svg xmlns="http://www.w3.org/2000/svg" version="1.1" width="731" height="731" viewBox="405 124 731 731">
<path d="M0 0 C0.87043945 0.22719727 1.74087891 0.45439453 2.63769531 0.68847656 C10.30894951 2.71638032 17.84721842 5.12151082 25.375 7.625 C26.02963226 7.84242859 26.68426453 8.05985718 27.35873413 8.28387451 C38.39953291 11.96956304 49.14978745 16.12028341 59.73583984 20.96923828 C61.85108296 21.93220533 63.97838188 22.85899077 66.11328125 23.77734375 C91.55844204 34.95141144 115.86676606 51.05216437 137 69 C138.23943359 69.98226562 138.23943359 69.98226562 139.50390625 70.984375 C148.49861241 78.11579628 156.73790911 86.04346867 165 94 C165.88582764 94.85078125 165.88582764 94.85078125 166.78955078 95.71875 C173.72856619 102.41367944 180.00778962 109.43552157 186 117 C187.41622734 118.68786872 188.832905 120.37535968 190.25 122.0625 C200.5347118 134.67650192 209.58530615 148.0450932 217.84667969 162.05615234 C218.82900589 163.71180036 219.83759742 165.35181862 220.8515625 166.98828125 C234.93715906 190.05261116 245.64923747 216.80704549 252.46728516 242.95703125 C253.04813198 245.1845868 253.65574317 247.40415668 254.26171875 249.625 C256.68855798 258.71860028 258.62416024 267.84373778 260.1875 277.125 C260.34226807 278.04095947 260.49703613 278.95691895 260.65649414 279.90063477 C261.14306537 282.92933564 261.57944806 285.96141149 262 289 C262.18095215 290.2691626 262.3619043 291.5383252 262.54833984 292.84594727 C264.15807645 304.99310736 264.30688134 317.07109452 264.26074219 329.3112793 C264.25007035 332.66538805 264.26067403 336.01895477 264.2734375 339.37304688 C264.28804491 358.91185144 263.22722363 378.19779311 259.3125 397.375 C259.18339233 398.01988373 259.05428467 398.66476746 258.92126465 399.32919312 C249.20877185 447.6980844 229.09148584 496.16303574 198.45263672 535.14599609 C197.02606681 536.96673086 195.62212499 538.80291583 194.22265625 540.64453125 C188.36218919 548.30475184 182.08490442 555.43422597 175.45996094 562.43847656 C174.04796029 563.94870335 172.66415376 565.47959874 171.2890625 567.0234375 C161.13608124 578.36738431 150.01255094 588.64101521 138 598 C137.42056641 598.45197754 136.84113281 598.90395508 136.24414062 599.36962891 C126.19112441 607.1698319 115.79789258 614.27445548 105 621 C104.35675781 621.40347656 103.71351563 621.80695312 103.05078125 622.22265625 C94.29419477 627.69326595 85.33295484 632.54840944 76.02832031 637.02050781 C74.02942319 637.98579131 72.04185866 638.97178098 70.0546875 639.9609375 C29.02416557 660.12433716 -18.6870014 672.92593144 -64.50390625 673.23828125 C-66.28029732 673.25304001 -66.28029732 673.25304001 -68.09257507 673.26809692 C-123.95690597 673.63649487 -174.42919737 665.42281186 -226 643 C-226.87205078 642.62262695 -227.74410156 642.24525391 -228.64257812 641.85644531 C-246.96227719 633.82780414 -264.73277249 623.64038416 -281 612 C-281.69367676 611.50564453 -282.38735352 611.01128906 -283.10205078 610.50195312 C-305.51260136 594.46701942 -327.26715378 576.19865867 -345 555 C-345.45358887 554.46020508 -345.90717773 553.92041016 -346.37451172 553.36425781 C-382.49301077 510.21598378 -408.06832678 460.09663289 -420 405 C-420.15251221 404.31023071 -420.30502441 403.62046143 -420.4621582 402.90979004 C-425.4117773 380.35120083 -426.57281684 357.98870666 -426.625 334.9375 C-426.63575562 333.04061432 -426.63575562 333.04061432 -426.64672852 331.10540771 C-426.78358934 286.27984868 -417.4897455 242.85707568 -400.08398438 201.58496094 C-399.18137833 199.43253012 -398.30697114 197.27360672 -397.453125 195.1015625 C-387.56343081 170.61002572 -372.74096202 146.38030158 -356 126 C-354.97230087 124.70965168 -353.94636447 123.41789815 -352.921875 122.125 C-337.59146045 102.8724779 -320.52965182 84.04234743 -301 69 C-299.88780943 68.09067245 -298.77863547 67.17764764 -297.671875 66.26171875 C-276.77878187 49.04947954 -253.49845426 34.43495068 -228.98583984 22.9375 C-226.8920903 21.94905664 -224.81629209 20.92732145 -222.73828125 19.90625 C-191.47384645 4.88143302 -157.26572106 -3.66941914 -123 -8 C-122.1347168 -8.11859375 -121.26943359 -8.2371875 -120.37792969 -8.359375 C-80.81676743 -13.73010248 -38.44042123 -10.4480532 0 0 Z " fill="#3972C1" transform="translate(852,160)" />
<path d="M0 0 C0.36990734 16.21159119 -3.65466 31.5845185 -13 45 C-14.16015625 46.06927734 -14.16015625 46.06927734 -15.34375 47.16015625 C-17.27663341 48.91006804 -17.27663341 48.91006804 -17.0859375 51.6015625 C-16.19592325 54.19072327 -16.19592325 54.19072327 -13.6640625 55.3359375 C-12.66117188 55.67882812 -11.65828125 56.02171875 -10.625 56.375 C12.28910071 65.08996011 28.27824993 83.15803593 38.18994141 105.02685547 C39.76251968 108.85734902 40.70485245 112.79275078 41.52734375 116.83984375 C41.78978155 118.96965512 41.78978155 118.96965512 43 120 C45.01498142 120.05099784 47.03171049 120.03534918 49.046875 119.9921875 C50.284375 119.97542969 51.521875 119.95867187 52.796875 119.94140625 C55.41681471 119.89739541 58.03663345 119.84540743 60.65625 119.78515625 C61.89890625 119.77097656 63.1415625 119.75679687 64.421875 119.7421875 C65.56237305 119.7201123 66.70287109 119.69803711 67.87792969 119.67529297 C71.36747576 120.03821886 73.20898346 120.91275545 76 123 C78.20111915 127.4022383 77.18584324 133.3786497 77.18530273 138.2734375 C77.18746422 140.46374685 77.20554893 142.6535315 77.22460938 144.84375 C77.25533705 152.44993515 76.86277499 159.58952954 75 167 C74.78859375 168.13308594 74.5771875 169.26617188 74.359375 170.43359375 C72.48674398 179.66470436 69.35438464 188.7020463 62 195 C58.54468508 196.61781697 55.60003747 197.29253307 51.8046875 197.52734375 C50.84175781 197.59759766 49.87882812 197.66785156 48.88671875 197.74023438 C46.87137709 197.87223795 44.85574048 197.99980994 42.83984375 198.12304688 C41.87949219 198.19458984 40.91914062 198.26613281 39.9296875 198.33984375 C39.05554199 198.39519287 38.18139648 198.45054199 37.28076172 198.50756836 C34.58857253 199.08882993 33.69009727 199.8660651 32 202 C31.12955243 203.6265094 30.30051434 205.2754565 29.5 206.9375 C25.72914969 214.01956962 20.62481369 219.36709305 15 225 C14.34128906 225.6703125 13.68257812 226.340625 13.00390625 227.03125 C3.98219788 235.56792029 -7.41405858 240.66401809 -19.13427734 244.30273438 C-21.27514361 245.03749734 -23.10220165 245.76615861 -25 247 C-26.22395873 249.60943695 -26.59126488 251.21110529 -27 254 C-27.46120349 256.16800446 -27.92941473 258.33452312 -28.40234375 260.5 C-28.91677924 262.99944238 -29.42841613 265.49946212 -29.9375 268 C-30.18951172 269.22589844 -30.44152344 270.45179688 -30.70117188 271.71484375 C-32.49738189 280.47079334 -34.24701104 289.23505521 -36 298 C-47.88 298 -59.76 298 -72 298 C-75.26990835 290.15221997 -78.39918161 282.36825618 -81.25 274.375 C-81.94166856 272.44493956 -82.63432577 270.51523305 -83.328125 268.5859375 C-83.6262207 267.7511084 -83.92431641 266.9162793 -84.23144531 266.05615234 C-84.96687076 263.97813657 -84.96687076 263.97813657 -86 262 C-91.04442922 262.32873808 -96.04103682 262.79179005 -101.01391602 263.71459961 C-112.64866987 265.85312896 -123.90978181 266.40903159 -135.72558594 266.28125 C-138.6296894 266.24994946 -141.53324379 266.24023824 -144.4375 266.234375 C-160.99595641 266.16843933 -177.00628613 265.50619707 -193.3125 262.4375 C-195.82890079 261.97499191 -198.34580776 261.51522696 -200.86328125 261.05859375 C-201.94907471 260.85548584 -203.03486816 260.65237793 -204.15356445 260.44311523 C-207.17861252 259.89745266 -207.17861252 259.89745266 -211 260 C-215.62 272.54 -220.24 285.08 -225 298 C-235.89 298 -246.78 298 -258 298 C-260.10335369 293.09217473 -261.52382286 289.42796469 -262.61328125 284.37890625 C-262.88849609 283.124729 -263.16371094 281.87055176 -263.44726562 280.57836914 C-263.58817627 279.92289093 -263.72908691 279.26741272 -263.87426758 278.59207153 C-264.47035861 275.83141456 -265.08855902 273.07585968 -265.70553589 270.31980896 C-266.74817033 265.66131231 -267.78290164 261.00129447 -268.79443359 256.3359375 C-269.50669692 253.07244266 -270.24943335 249.81736364 -271 246.5625 C-271.20020752 245.60609619 -271.40041504 244.64969238 -271.60668945 243.66430664 C-273.21232434 236.8682361 -276.01578916 232.82970833 -281 228 C-281.51014648 227.49364014 -282.02029297 226.98728027 -282.54589844 226.46557617 C-283.97537749 225.06722521 -285.42512132 223.68968829 -286.875 222.3125 C-305.57775902 203.9376541 -316.64562415 177.69186412 -317.30078125 151.5390625 C-317.31520363 148.9010782 -317.31896573 146.2630158 -317.3125 143.625 C-317.33666992 141.66433594 -317.33666992 141.66433594 -317.36132812 139.6640625 C-317.3739196 114.27964765 -307.21726854 90.3172066 -291 71 C-289.92298828 69.71416016 -289.92298828 69.71416016 -288.82421875 68.40234375 C-269.87847969 46.62988696 -239.51854727 25.80945756 -210 23 C-206.85182663 24.06449028 -204.74294172 25.9608689 -202.3125 28.1875 C-198.59652223 31.5325798 -194.7087568 34.55113729 -190.6875 37.51953125 C-190.130625 38.00808594 -189.57375 38.49664062 -189 39 C-189 39.66 -189 40.32 -189 41 C-189.73637695 41.20157715 -190.47275391 41.4031543 -191.23144531 41.61083984 C-194.57216036 42.52792986 -197.91108156 43.45139139 -201.25 44.375 C-202.40886719 44.69210937 -203.56773437 45.00921875 -204.76171875 45.3359375 C-205.87675781 45.6453125 -206.99179687 45.9546875 -208.140625 46.2734375 C-209.16704102 46.55622559 -210.19345703 46.83901367 -211.25097656 47.13037109 C-213.69100342 47.9022517 -215.80794475 48.68565024 -218 50 C-219.52491998 53.04983996 -219.23562548 55.6423369 -219 59 C-218.03882095 61.12870693 -218.03882095 61.12870693 -216 62 C-210.82882404 61.42101864 -205.87861536 59.93600238 -200.875 58.5625 C-193.63445846 56.62079395 -186.45771585 54.88416219 -179 54 C-178.28626221 53.91459961 -177.57252441 53.82919922 -176.8371582 53.74121094 C-167.96675494 52.79993776 -159.09808178 52.75762326 -150.1875 52.75 C-149.36907623 52.74899292 -148.55065247 52.74798584 -147.70742798 52.74694824 C-107.43922997 52.78038501 -107.43922997 52.78038501 -91 61 C-88.04211431 61.4167552 -88.04211431 61.4167552 -85 61 C-82.4275616 58.77055339 -82.04819991 57.29522443 -81.5 53.9375 C-81.67239597 50.85045048 -81.67239597 50.85045048 -84.17260742 49.43041992 C-87.01411108 47.99286099 -89.6774142 47.04329972 -92.73828125 46.17578125 C-93.80498047 45.86962891 -94.87167969 45.56347656 -95.97070312 45.24804688 C-97.07349609 44.93931641 -98.17628906 44.63058594 -99.3125 44.3125 C-100.43462891 43.99216797 -101.55675781 43.67183594 -102.71289062 43.34179688 C-105.47349477 42.55473101 -108.23581526 41.77437846 -111 41 C-109.70032264 38.01299447 -108.53827655 36.35780625 -105.84765625 34.52734375 C-105.23599609 34.10259766 -104.62433594 33.67785156 -103.99414062 33.24023438 C-103.35669922 32.81033203 -102.71925781 32.38042969 -102.0625 31.9375 C-100.80158961 31.07423175 -99.54241429 30.20842265 -98.28515625 29.33984375 C-97.72707275 28.96206787 -97.16898926 28.58429199 -96.59399414 28.19506836 C-94.92511858 27.02618394 -94.92511858 27.02618394 -93.5246582 25.34399414 C-92 24 -92 24 -88.3203125 24.15625 C-84.03947979 24.87657302 -79.98147769 26.11534953 -75.875 27.5 C-69.07115888 29.94506593 -69.07115888 29.94506593 -62 31 C-59.72833729 29.24444227 -59.72833729 29.24444227 -57.875 26.625 C-44.96054913 11.26088624 -20.62408649 -1.08721223 0 0 Z " fill="#3B72C1" transform="translate(880,404)" />
<path d="M0 0 C1.54300781 0.56074219 1.54300781 0.56074219 3.1171875 1.1328125 C23.60708366 9.00552069 38.8141921 23.97336303 48.375 43.5625 C56.35139545 61.85739039 57.78695508 83.77990645 51.1875 102.75 C48.67804644 109.10352288 45.79302449 115.31046326 42 121 C43.74635165 121.53293835 45.49727652 122.05090663 47.25 122.5625 C48.22453125 122.85253906 49.1990625 123.14257812 50.203125 123.44140625 C53.1593318 124.03182185 54.27966532 124.21135824 57 123 C59.1633734 121.35652942 61.23689513 119.68444566 63.3125 117.9375 C80.69714561 103.81952063 104.70788338 94.45483497 127.30078125 94.578125 C131.64264388 95.25673739 134.35233182 97.57801377 137 101 C141.92777687 115.7833306 135.5359594 135.11345017 130 149 C129.608125 149.74765625 129.21625 150.4953125 128.8125 151.265625 C127.71718343 153.28449494 127.71718343 153.28449494 128 157 C130.2006201 158.6261615 130.2006201 158.6261615 133.125 160 C152.25176683 170.57836515 169.78737625 189.82803223 176 211 C176 211.99 176 212.98 176 214 C177.25554687 213.96519531 178.51109375 213.93039062 179.8046875 213.89453125 C199.4637452 213.50975241 199.4637452 213.50975241 207.875 218.8125 C217.03835784 228.24536837 217.54794155 238.73752262 217.4375 251.3125 C217.43512329 252.01942993 217.43274658 252.72635986 217.43029785 253.45471191 C217.36794676 265.31549845 216.25977359 276.5625937 213 288 C212.49726562 289.77890625 212.49726562 289.77890625 211.984375 291.59375 C211.09297421 294.45189223 210.11001452 297.22055887 209 300 C208.71640625 300.72058594 208.4328125 301.44117188 208.140625 302.18359375 C204.35000404 310.7124909 198.17053883 317.22300886 189.640625 321.00390625 C181.96349162 323.89986633 175.21752023 325.40414034 167 325 C166.690625 325.99 166.690625 325.99 166.375 327 C157.18431577 347.05240196 136.43257087 359.42503517 117.20703125 368.1875 C115 369 115 369 112 369 C111.83455688 369.93658447 111.83455688 369.93658447 111.66577148 370.89208984 C110.24550019 378.82691187 108.67855035 386.72792777 107.0625 394.625 C106.81048828 395.883125 106.55847656 397.14125 106.29882812 398.4375 C102.31539978 417.87581528 102.31539978 417.87581528 97.4375 421.5 C96.83808594 421.9640625 96.23867188 422.428125 95.62109375 422.90625 C92.76320243 424.83446583 90.96814185 425.13562838 87.55371094 425.17700195 C86.63225281 425.18983719 85.71079468 425.20267242 84.76141357 425.21589661 C83.26302948 425.22697701 83.26302948 425.22697701 81.734375 425.23828125 C80.70822083 425.246353 79.68206665 425.25442474 78.62481689 425.26274109 C76.44927666 425.27658889 74.27371464 425.28730792 72.09814453 425.29516602 C68.77724758 425.31235893 65.45735115 425.35623722 62.13671875 425.40039062 C60.02344482 425.41051919 57.91016243 425.41903478 55.796875 425.42578125 C54.80604919 425.44328934 53.81522339 425.46079742 52.79437256 425.47883606 C46.99046116 425.46065777 43.57380142 424.9334159 39 421 C38.42193604 420.52272461 37.84387207 420.04544922 37.24829102 419.55371094 C35.62853752 417.53765163 34.89432174 415.5755419 34.02734375 413.140625 C33.68509766 412.18929688 33.34285156 411.23796875 32.99023438 410.2578125 C32.64283203 409.26523437 32.29542969 408.27265625 31.9375 407.25 C31.58623047 406.27289062 31.23496094 405.29578125 30.87304688 404.2890625 C29.06999046 399.23096095 27.44745846 394.17331635 26 389 C24.36248779 389.31831787 24.36248779 389.31831787 22.69189453 389.64306641 C9.37434186 392.07414562 -3.61333639 392.47399035 -17.125 392.375 C-18.20073273 392.37167664 -19.27646545 392.36835327 -20.38479614 392.3649292 C-39.65949362 392.29501995 -58.1060523 390.91915464 -77 387 C-77.18792114 388.30988892 -77.18792114 388.30988892 -77.37963867 389.64624023 C-78.37272127 395.01498309 -80.39634777 399.96400214 -82.3125 405.0625 C-82.70373047 406.13822266 -83.09496094 407.21394531 -83.49804688 408.32226562 C-83.88669922 409.36189453 -84.27535156 410.40152344 -84.67578125 411.47265625 C-85.2003894 412.88430054 -85.2003894 412.88430054 -85.7355957 414.32446289 C-88.10288212 419.33374882 -90.66729796 422.47762008 -95.97387695 424.47903442 C-99.89651199 425.48763942 -103.81444495 425.44699748 -107.84375 425.43359375 C-108.77167358 425.4388356 -109.69959717 425.44407745 -110.65563965 425.44947815 C-112.6087952 425.4558741 -114.5619894 425.45459297 -116.51513672 425.44604492 C-119.49126116 425.43752502 -122.46547051 425.46634616 -125.44140625 425.49804688 C-127.3463536 425.49965896 -129.25130431 425.49908121 -131.15625 425.49609375 C-132.03873413 425.50732773 -132.92121826 425.51856171 -133.83044434 425.53013611 C-139.72513459 425.46413015 -143.15509174 424.40203537 -148 421 C-152.70512533 415.78398541 -153.74958095 409.2252036 -155.3125 402.5625 C-155.75480957 400.74262573 -155.75480957 400.74262573 -156.20605469 398.88598633 C-157.83865846 392.10808925 -159.38814707 385.31304461 -160.90234375 378.5078125 C-161.05798294 377.81016281 -161.21362213 377.11251312 -161.37397766 376.39372253 C-162.12875718 373.00458255 -162.87437088 369.6139017 -163.6027832 366.21899414 C-165.67133213 354.9699067 -165.67133213 354.9699067 -172.0625 345.875 C-192.16173569 326.87825403 -208.05445918 295.82742841 -209.11572266 267.96142578 C-209.24287895 260.97196457 -209.17067595 253.98808607 -209 247 C-209.77400146 246.84998535 -210.54800293 246.6999707 -211.34545898 246.54541016 C-220.29454069 244.70670432 -231.45096077 240.54903923 -238 234 C-239.51825897 233.75435576 -241.03976988 233.52870443 -242.5625 233.3125 C-248.26356081 232.20644541 -251.78838196 229.91208486 -256 226 C-256.556875 225.49597656 -257.11375 224.99195313 -257.6875 224.47265625 C-263.71695138 218.30754221 -266.13974328 209.85304144 -266.5 201.375 C-266.11661039 192.77965225 -262.79010118 185.97035404 -256.9296875 179.7578125 C-252.64303473 175.85296686 -247.91932976 172.45533306 -242 172 C-240.4840625 171.7834375 -240.4840625 171.7834375 -238.9375 171.5625 C-232.20457061 172.31060327 -225.82607849 175.21731619 -220.96484375 180.00390625 C-214.5135207 188.35733929 -213.98821323 196.80037171 -215 207 C-216.18431101 210.19905523 -217.74815523 212.46506618 -220 215 C-221.051875 216.3921875 -221.051875 216.3921875 -222.125 217.8125 C-223.68670129 219.63448484 -225.29344058 221.31754452 -227 223 C-224.81855776 224.15879664 -222.63096983 225.30187378 -220.4375 226.4375 C-219.82841797 226.76298828 -219.21933594 227.08847656 -218.59179688 227.42382812 C-214.34439386 229.60371221 -210.75837333 230.56519369 -206 231 C-205.855625 230.278125 -205.71125 229.55625 -205.5625 228.8125 C-205.2840625 227.4203125 -205.2840625 227.4203125 -205 226 C-204.855625 225.2575 -204.71125 224.515 -204.5625 223.75 C-204.2840625 222.38875 -204.2840625 222.38875 -204 221 C-203.88245361 220.36537842 -203.76490723 219.73075684 -203.64379883 219.0769043 C-202.49995392 213.34105596 -200.65845999 208.32327312 -198.125 203.0625 C-197.73280273 202.24620117 -197.34060547 201.42990234 -196.93652344 200.58886719 C-178.91862509 164.20307246 -147.09101743 136.85737167 -108.93310547 123.26367188 C-105.31991645 122.06256215 -101.67690111 120.98743634 -98 120 C-98.67457876 115.63605842 -100.23057754 111.79010747 -101.9375 107.75 C-104.20100419 102.23124664 -106.12257252 96.91408911 -107 91 C-107.10957031 90.30003906 -107.21914063 89.60007812 -107.33203125 88.87890625 C-108.64325206 79.0709746 -108.42635595 69.59322236 -106 60 C-105.76667969 58.95328125 -105.53335938 57.9065625 -105.29296875 56.828125 C-101.03915579 39.65748272 -90.97043938 23.89745919 -77 13 C-76.25105469 12.41476562 -75.50210938 11.82953125 -74.73046875 11.2265625 C-53.73847397 -4.30547887 -24.63289797 -9.84029606 0 0 Z M64.3046875 136.4921875 C62.79113217 138.17791659 62.79113217 138.17791659 61 141 C55.47477096 140.24264773 50.35775398 138.59004229 45.09765625 136.81640625 C40.37881249 135.27982707 35.97696836 134.21367089 31 134 C28.77379814 135.04860258 28.77379814 135.04860258 27.1875 136.9375 C23.161465 140.939427 18.78819986 144.07582374 14.125 147.30078125 C13.42375 147.86152344 12.7225 148.42226563 12 149 C12 149.66 12 150.32 12 151 C12.80743652 151.23187012 13.61487305 151.46374023 14.44677734 151.70263672 C17.44131546 152.5659231 20.43408622 153.43502206 23.42578125 154.30810547 C24.72100088 154.68479635 26.01689911 155.05916199 27.31347656 155.43115234 C29.176899 155.96620856 31.03771204 156.51032633 32.8984375 157.0546875 C34.01911621 157.37937012 35.13979492 157.70405273 36.29443359 158.03857422 C39 159 39 159 41 161 C41.35685017 164.28302159 41.29607814 166.37494615 39.875 169.375 C38 171 38 171 35.375 171.4375 C32.56433773 171.07315489 30.56100018 170.55403054 27.94140625 169.60546875 C22.88659211 167.88340321 17.80839808 166.83438151 12.5625 165.875 C11.68529297 165.70613281 10.80808594 165.53726563 9.90429688 165.36328125 C-1.28906585 163.2681345 -12.26288643 162.81355417 -23.62866211 162.81469727 C-26.03322488 162.81252643 -28.43731576 162.79435846 -30.84179688 162.77539062 C-49.61766349 162.70705919 -68.78533636 164.51365943 -86.4140625 171.328125 C-89.38065481 172.09890125 -91.09769591 171.93111462 -94 171 C-96 169 -96 169 -96.3125 165.5625 C-96 162 -96 162 -94.94921875 160.43359375 C-92.07775285 158.32171402 -88.87963386 157.48023503 -85.5 156.5 C-84.79037109 156.28641846 -84.08074219 156.07283691 -83.34960938 155.8527832 C-77.59483648 154.13401917 -71.81189388 152.51454014 -66 151 C-67.53459971 146.69514888 -70.8185714 144.58506924 -74.375 142 C-80.63019405 137.39237938 -80.63019405 137.39237938 -83.17578125 134.69140625 C-85.05145128 132.5747126 -85.05145128 132.5747126 -88.8125 132.9375 C-121.0721746 138.22597125 -153.40256536 160.43991351 -172.53515625 186.3671875 C-186.9599456 206.70919776 -194.22834463 227.98757574 -194.25 252.9375 C-194.25067474 253.63319092 -194.25134949 254.32888184 -194.25204468 255.0456543 C-194.23618439 265.3254931 -193.83229532 275.02986364 -191 285 C-190.6596875 286.23878906 -190.319375 287.47757813 -189.96875 288.75390625 C-183.94696331 308.58918337 -172.66423081 324.29799442 -157.4453125 338.18139648 C-152.60079421 342.76680859 -150.49448967 346.53560191 -149 353 C-148.73807861 354.08249023 -148.47615723 355.16498047 -148.20629883 356.28027344 C-147.46803851 359.4256293 -146.7580188 362.57548302 -146.06723022 365.73156738 C-145.46597171 368.47583888 -144.85279597 371.21740421 -144.24021912 373.95916748 C-143.78143538 376.01293363 -143.32405702 378.06700966 -142.86669922 380.12109375 C-141.66415048 385.50309218 -140.44109028 390.87966927 -139.1875 396.25 C-138.9930127 397.10561523 -138.79852539 397.96123047 -138.59814453 398.84277344 C-137.76768807 402.37349157 -137.03162801 404.95255799 -135 408 C-132.4482303 408.2668855 -130.13532807 408.34868275 -127.5859375 408.29296875 C-126.93923096 408.28994751 -126.29252441 408.28692627 -125.6262207 408.28381348 C-123.20898494 408.26810979 -120.79197655 408.22622554 -118.375 408.1875 C-110.269375 408.0946875 -110.269375 408.0946875 -102 408 C-97.38 395.46 -92.76 382.92 -88 370 C-76.79697647 371.12030235 -76.79697647 371.12030235 -72.58984375 371.9375 C-71.19668945 372.19660156 -71.19668945 372.19660156 -69.77539062 372.4609375 C-67.90984831 372.81530067 -66.04522342 373.17453461 -64.18164062 373.5390625 C-48.31875498 376.46088611 -32.01568004 376.26535831 -15.9375 376.3125 C-14.95119598 376.31644775 -13.96489197 376.32039551 -12.94869995 376.32446289 C1.41420126 376.35126179 14.9215548 375.52162905 28.97998047 372.375 C31.67242641 371.87516957 34.2716139 371.85803519 37 372 C40.8995976 381.8643667 44.69936797 391.74148803 48.13330078 401.77905273 C49.10139927 405.15266384 49.10139927 405.15266384 51 408 C53.6662603 408.08855161 56.30647114 408.11524673 58.97265625 408.09765625 C59.77029892 408.0962413 60.56794159 408.09482635 61.38975525 408.09336853 C63.94737435 408.08775316 66.50490718 408.07519812 69.0625 408.0625 C70.79231645 408.05748698 72.52213426 408.05292373 74.25195312 408.04882812 C78.50133553 408.03777875 82.75065312 408.02050386 87 408 C87.25579834 406.71053467 87.51159668 405.42106934 87.77514648 404.0925293 C89.68958327 394.45025787 91.63783134 384.81505357 93.625 375.1875 C93.83084717 374.18074219 94.03669434 373.17398437 94.2487793 372.13671875 C94.63985324 370.25120063 95.04519542 368.36856425 95.46728516 366.48974609 C95.92280517 364.36078501 96.25550021 362.20617562 96.5625 360.05078125 C98.48674867 355.96698176 100.54951628 355.39110576 104.67773438 353.8972168 C105.56783203 353.60113525 106.45792969 353.30505371 107.375 353 C109.20815806 352.32557608 111.03891468 351.64458823 112.8671875 350.95703125 C113.75374023 350.62654785 114.64029297 350.29606445 115.55371094 349.95556641 C126.14808722 345.81720425 134.08170857 338.90678229 142 331 C142.680625 330.33097656 143.36125 329.66195312 144.0625 328.97265625 C148.64643266 324.13292378 151.55311536 318.57262363 154.51953125 312.66015625 C156 310 156 310 158 309 C159.59467141 308.81505286 161.1952248 308.67939499 162.796875 308.5703125 C163.7559375 308.49683594 164.715 308.42335938 165.703125 308.34765625 C167.71827604 308.20039521 169.7339158 308.05966184 171.75 307.92578125 C178.7011077 307.37749869 183.57886856 306.47877743 188.625 301.3125 C199.05637603 287.58174306 200.20364864 269.56687933 200.29516602 252.94433594 C200.30677934 251.47418668 200.32737561 250.00408254 200.35668945 248.53417969 C200.3992703 246.39229176 200.41550765 244.25163285 200.42578125 242.109375 C200.44036377 240.84061523 200.45494629 239.57185547 200.4699707 238.26464844 C199.91929974 234.43941614 199.0138901 233.32414934 196 231 C193.18175808 229.59087904 190.82748718 229.88816447 187.6796875 229.90234375 C185.79443359 229.90717773 185.79443359 229.90717773 183.87109375 229.91210938 C182.55238281 229.92048828 181.23367188 229.92886719 179.875 229.9375 C178.53515789 229.94251511 177.195314 229.94707799 175.85546875 229.95117188 C172.57026794 229.96298914 169.28515603 229.97946383 166 230 C165.80881592 229.42282227 165.61763184 228.84564453 165.4206543 228.25097656 C156.95323952 202.75643715 143.98551041 182.03896352 119.58276367 169.55957031 C116.40948156 167.99224991 113.21031989 166.49011435 110 165 C108.66371504 164.33926956 107.32856693 163.67611548 106 163 C106.23073198 159.30828835 107.44629275 157.24047199 109.6875 154.4375 C115.87762056 146.42151655 119.27124612 138.1514328 121.375 128.3125 C121.62660889 127.13723755 121.62660889 127.13723755 121.88330078 125.93823242 C122.93238561 120.54964838 123.14223576 115.48701809 123 110 C101.72171572 108.87830131 78.62722778 121.7421087 64.3046875 136.4921875 Z " fill="#FAFAFC" transform="translate(757,294)" />
<path d="M0 0 C14.20691661 10.66575179 24.68737141 25.06944297 28.5234375 42.5859375 C31.20109992 61.76853549 27.45308598 79.14242053 15.86328125 94.90625 C5.24440624 108.3195658 -8.24089927 117.61953275 -25.38671875 120.5859375 C-44.03303393 122.72270443 -61.70421412 119.9565745 -76.9375 108.4375 C-80.15445723 105.79334631 -83.16904689 103.06048985 -86 100 C-86.46921875 99.51273437 -86.9384375 99.02546875 -87.421875 98.5234375 C-101.23041327 83.50487268 -103.64236041 66.16295641 -103.12304688 46.67919922 C-102.38064891 30.51436737 -93.01327127 16.18669071 -81.52148438 5.34375 C-58.49472345 -14.99310689 -25.42281325 -16.15096371 0 0 Z " fill="#3C73C0" transform="translate(768,315)" />
<path d="M0 0 C2.37421169 3.56131754 2.58274296 6.52516333 2.96484375 10.6640625 C3.04277664 11.43663895 3.12070953 12.20921539 3.20100403 13.00520325 C3.45485149 15.54438853 3.69644454 18.08457094 3.9375 20.625 C4.10979361 22.38164661 4.28265051 24.13823806 4.45605469 25.89477539 C4.89690368 30.38797293 5.32630976 34.88217919 5.75140381 39.37689209 C5.99046821 41.89942362 6.2322975 44.42167326 6.47509766 46.94384766 C6.90731375 51.44106519 7.33039113 55.93909089 7.75 60.4375 C7.81484589 61.12378479 7.87969177 61.81006958 7.94650269 62.51715088 C9.76419089 81.86786534 9.76419089 81.86786534 7.3125 85.5 C4.42706805 87.37163153 3.40624035 87.44285836 0 87 C-2.6366884 85.75368731 -5.05231673 84.2050886 -7.5 82.625 C-13.49552929 78.82351216 -13.49552929 78.82351216 -20 76 C-26.40883879 84.20876798 -32.58738051 92.54337824 -38.60791016 101.04003906 C-61.5885028 133.39503692 -61.5885028 133.39503692 -66 137 C-69.92139797 137 -71.51206969 136.46224977 -74.375 133.75 C-76.20430766 130.65424857 -76.43573884 129.51703492 -76 126 C-74.5234375 123.5546875 -74.5234375 123.5546875 -72.375 120.875 C-71.54149871 119.81234932 -70.70957444 118.74846052 -69.87890625 117.68359375 C-69.18885498 116.80743408 -69.18885498 116.80743408 -68.48486328 115.91357422 C-65.68799458 112.3091913 -63.00928797 108.61698088 -60.3125 104.9375 C-59.10185618 103.29145063 -57.89091447 101.64562031 -56.6796875 100 C-56.07092773 99.17242187 -55.46216797 98.34484375 -54.83496094 97.4921875 C-53.04084993 95.05548112 -51.24365822 92.62108226 -49.4453125 90.1875 C-41.55797661 79.50990009 -33.74915674 68.77830172 -26 58 C-21.44684052 58.61811534 -17.71540233 60.46765893 -13.6875 62.5625 C-12.71973633 63.0565332 -12.71973633 63.0565332 -11.73242188 63.56054688 C-10.15214772 64.36824255 -8.57567895 65.18337613 -7 66 C-7.49338089 54.09080612 -8.64973137 42.29182714 -9.98364258 30.44824219 C-10.11407959 29.28325195 -10.2445166 28.11826172 -10.37890625 26.91796875 C-10.4982251 25.87406982 -10.61754395 24.8301709 -10.74047852 23.75463867 C-11 21 -11 21 -11 17 C-22.97491841 21.69553208 -34.83276761 26.58469271 -46.57055664 31.84912109 C-47.49731201 32.25984863 -48.42406738 32.67057617 -49.37890625 33.09375 C-50.1994751 33.46177734 -51.02004395 33.82980469 -51.86547852 34.20898438 C-54 35 -54 35 -57 35 C-53.8296865 38.48420592 -50.26911027 40.86503346 -46.25 43.25 C-45.64800781 43.61351562 -45.04601562 43.97703125 -44.42578125 44.3515625 C-42.95361969 45.23953297 -41.4772326 46.12049158 -40 47 C-40.60704151 50.09928651 -41.58345523 52.12339887 -43.44921875 54.66015625 C-43.96025146 55.36132568 -44.47128418 56.06249512 -44.99780273 56.78491211 C-45.55540283 57.53651611 -46.11300293 58.28812012 -46.6875 59.0625 C-47.26765869 59.85470947 -47.84781738 60.64691895 -48.44555664 61.46313477 C-50.2910031 63.97992272 -52.14511473 66.49016312 -54 69 C-55.1619191 70.58039051 -56.32338655 72.16111319 -57.484375 73.7421875 C-59.79496948 76.88616472 -62.11041157 80.02648453 -64.4296875 83.1640625 C-66.90073476 86.50756584 -69.36332295 89.85709055 -71.8203125 93.2109375 C-72.44687744 94.06502197 -73.07344238 94.91910645 -73.71899414 95.79907227 C-74.91235264 97.42609196 -76.10433837 99.05411979 -77.29467773 100.68334961 C-86.20573858 112.81798176 -86.20573858 112.81798176 -90 113.6875 C-94.01276656 112.76790766 -95.53725189 111.25951956 -98 108 C-98.474737 104.07334835 -97.80828606 102.12632587 -95.4296875 99.0234375 C-94.86983154 98.279729 -94.30997559 97.53602051 -93.7331543 96.76977539 C-93.11996338 95.97949951 -92.50677246 95.18922363 -91.875 94.375 C-90.58689133 92.67344066 -89.29914119 90.97160986 -88.01171875 89.26953125 C-87.3470459 88.39893066 -86.68237305 87.52833008 -85.99755859 86.63134766 C-82.84465104 82.4780798 -79.76936172 78.26858418 -76.6875 74.0625 C-72.05280801 67.76328083 -67.38683864 61.48935038 -62.671875 55.25 C-61.3981761 53.53586316 -60.18459003 51.77688504 -59 50 C-59.67675781 49.7525 -60.35351562 49.505 -61.05078125 49.25 C-64.58350966 47.75268465 -67.86977335 45.91367305 -71.1875 44 C-71.81591797 43.64421875 -72.44433594 43.2884375 -73.09179688 42.921875 C-75.66706373 41.44557229 -77.89138726 40.10861274 -80 38 C-80.375 35.625 -80.375 35.625 -80 33 C-76.65959021 28.67085978 -72.2055847 27.08454394 -67.30078125 25.05859375 C-66.44074997 24.69403076 -65.58071869 24.32946777 -64.69462585 23.95385742 C-61.90418598 22.77298825 -59.1084074 21.60535666 -56.3125 20.4375 C-54.40121785 19.63076275 -52.49041119 18.8228981 -50.58007812 18.01391602 C-47.72665527 16.80560438 -44.87301601 15.59785573 -42.01785278 14.3936615 C-34.31418166 11.14363699 -26.64691348 7.81888318 -19 4.4375 C-17.98848877 3.99140381 -16.97697754 3.54530762 -15.93481445 3.08569336 C-6.0317141 -1.29251016 -6.0317141 -1.29251016 0 0 Z " fill="#F9FAFC" transform="translate(1062,388)" />


<path d="M0 0 C2.5990387 2.53064294 2.76206886 2.94942223 2.875 6.375 C2.375 10.3125 2.375 10.3125 0.375 13.3125 C-3.97086828 13.70757893 -5.94503497 13.76581002 -9.625 11.3125 C-16.86426643 9.58886514 -24.11796014 9.14922492 -30.765625 12.83203125 C-34.83003922 16.06819299 -37.32965301 20.72180602 -39.625 25.3125 C-38.84785645 25.30202637 -38.07071289 25.29155273 -37.27001953 25.28076172 C-33.763379 25.23929718 -30.25678994 25.21320422 -26.75 25.1875 C-25.52667969 25.17074219 -24.30335938 25.15398437 -23.04296875 25.13671875 C-21.87636719 25.13027344 -20.70976563 25.12382812 -19.5078125 25.1171875 C-18.42902832 25.10671387 -17.35024414 25.09624023 -16.23876953 25.08544922 C-13.625 25.3125 -13.625 25.3125 -11.625 27.3125 C-12.18055556 31.86805556 -12.18055556 31.86805556 -13.625 33.3125 C-15.69762076 33.40017112 -17.77320294 33.41945873 -19.84765625 33.41015625 C-21.10771484 33.40693359 -22.36777344 33.40371094 -23.66601562 33.40039062 C-25.00651109 33.39203403 -26.34700588 33.38356907 -27.6875 33.375 C-29.03189942 33.3699866 -30.3763006 33.36542342 -31.72070312 33.36132812 C-35.02217941 33.34949488 -38.32356803 33.33300971 -41.625 33.3125 C-41.625 35.9525 -41.625 38.5925 -41.625 41.3125 C-40.41384521 41.29678955 -40.41384521 41.29678955 -39.17822266 41.28076172 C-35.53551318 41.23930169 -31.89285325 41.21320562 -28.25 41.1875 C-26.34347656 41.16236328 -26.34347656 41.16236328 -24.3984375 41.13671875 C-22.58085938 41.12705078 -22.58085938 41.12705078 -20.7265625 41.1171875 C-19.60588379 41.10671387 -18.48520508 41.09624023 -17.33056641 41.08544922 C-14.625 41.3125 -14.625 41.3125 -12.625 43.3125 C-12.4375 45.875 -12.4375 45.875 -12.625 48.3125 C-13.625 49.3125 -13.625 49.3125 -16.12524414 49.42602539 C-17.20926514 49.42078857 -18.29328613 49.41555176 -19.41015625 49.41015625 C-20.57998047 49.40693359 -21.74980469 49.40371094 -22.95507812 49.40039062 C-24.18677734 49.39201172 -25.41847656 49.38363281 -26.6875 49.375 C-28.54084961 49.36823242 -28.54084961 49.36823242 -30.43164062 49.36132812 C-33.49614117 49.34949608 -36.56054721 49.33301173 -39.625 49.3125 C-33.76859223 58.58759138 -33.76859223 58.58759138 -24.625 64.3125 C-17.47624424 65.42949309 -12.02070793 64.44509164 -5.625 61.3125 C-2.72997094 60.91772331 -1.3582143 60.90796797 1.1875 62.3125 C3.04221038 65.43622274 3.22118959 68.84112382 2.375 72.3125 C-1.64273842 77.32554181 -6.51618599 78.25241867 -12.625 79.3125 C-23.91250223 80.44809113 -33.93909483 78.33535514 -42.84765625 71.06640625 C-48.7530703 65.23886579 -51.88793322 58.02458815 -54.625 50.3125 C-55.32367187 50.27511719 -56.02234375 50.23773438 -56.7421875 50.19921875 C-57.65226563 50.13347656 -58.56234375 50.06773437 -59.5 50 C-60.85738281 49.91298828 -60.85738281 49.91298828 -62.2421875 49.82421875 C-64.625 49.3125 -64.625 49.3125 -66.625 46.3125 C-66.10775862 42.79525862 -66.10775862 42.79525862 -64.625 41.3125 C-63.10571962 41.24070036 -61.58332518 41.22857993 -60.0625 41.25 C-59.23621094 41.25902344 -58.40992188 41.26804687 -57.55859375 41.27734375 C-56.92050781 41.28894531 -56.28242187 41.30054688 -55.625 41.3125 C-55.625 38.6725 -55.625 36.0325 -55.625 33.3125 C-56.25148438 33.33570313 -56.87796875 33.35890625 -57.5234375 33.3828125 C-58.34070313 33.40085937 -59.15796875 33.41890625 -60 33.4375 C-60.81210937 33.46070313 -61.62421875 33.48390625 -62.4609375 33.5078125 C-64.625 33.3125 -64.625 33.3125 -66.625 31.3125 C-66.29528521 28.01535207 -66.0023161 26.6898161 -63.625 24.3125 C-61.4609375 23.8984375 -61.4609375 23.8984375 -59 23.6875 C-58.18273437 23.61273438 -57.36546875 23.53796875 -56.5234375 23.4609375 C-55.89695312 23.41195313 -55.27046875 23.36296875 -54.625 23.3125 C-54.41746094 22.69503906 -54.20992187 22.07757813 -53.99609375 21.44140625 C-50.18798689 10.97309575 -44.5079289 3.63810656 -34.625 -1.6875 C-22.88590352 -6.80774421 -11.30732087 -5.26375282 0 0 Z " fill="#FAFAFC" transform="translate(757.625,330.6875)" />
<path d="M0 0 C2.43859151 2.20800836 3.75988264 4.30199593 5.1875 7.25 C8.98193332 14.26741584 14.71473452 18.90376217 22 22 C22 22.66 22 23.32 22 24 C20.1761066 25.05420439 18.31384378 26.04225888 16.4375 27 C9.96191968 30.64251393 6.76456324 34.7397096 3 41 C2.0157804 42.345024 1.02071622 43.68245829 0 45 C-0.35191406 44.27554688 -0.70382812 43.55109375 -1.06640625 42.8046875 C-6.04303225 33.05933633 -11.14382913 28.49579724 -21 24 C-21 23.34 -21 22.68 -21 22 C-20.26394531 21.63648438 -19.52789063 21.27296875 -18.76953125 20.8984375 C-8.81284542 15.76883714 -4.6446332 10.00078467 0 0 Z " fill="#386FBC" transform="translate(853,234)" />
<path d="M0 0 C2.478686 2.2612574 4.02650651 4.55798745 5.625 7.5 C6.05039062 8.2734375 6.47578125 9.046875 6.9140625 9.84375 C8 12 8 12 9 15 C10.80557156 16.09103057 10.80557156 16.09103057 13 17 C14.58753149 17.86735992 16.1708239 18.74251924 17.75 19.625 C18.54921875 20.07101562 19.3484375 20.51703125 20.171875 20.9765625 C20.77515625 21.31429688 21.3784375 21.65203125 22 22 C19.66884824 24.54307465 17.17158275 26.18535233 14.25 28 C9.1706581 31.46791325 6.41062678 35.35407593 3.375 40.64453125 C2 43 2 43 0 45 C-0.3403125 44.28714844 -0.680625 43.57429688 -1.03125 42.83984375 C-5.84714902 33.3233199 -11.61567624 27.88766863 -21 23 C-18.94469656 21.4030056 -16.9155352 19.95048127 -14.66796875 18.6328125 C-6.77177322 13.83292041 -3.73350971 8.22113892 0 0 Z " fill="#3971BE" transform="translate(933,303)" />
<path d="M0 0 C4.16256547 1.80981108 6.22954011 3.80680552 8 8 C8.53218983 13.58799317 8.25015553 17.23310522 5 22 C1.7525341 24.86985359 -0.77097319 26.25126393 -5.0625 26.4375 C-10.26880282 25.85902191 -13.64890794 24.02131048 -17 20 C-18.45228719 15.64313842 -18.63669736 11.54884895 -18 7 C-13.98562784 -0.88422692 -7.8534048 -1.69993199 0 0 Z " fill="#F8F9FC" transform="translate(882,502)" />
<path d="M0 0 C3.5793379 0.89483448 5.44598226 2.88368915 8 5.5 C9.86056886 9.22113772 9.42750583 13.43869457 9 17.5 C6.41703935 23.11513185 1.18303915 28.13284956 -4 31.5 C-6.11328125 31.46875 -6.11328125 31.46875 -8 30.5 C-9.44921875 28.72265625 -9.44921875 28.72265625 -10.6875 26.5625 C-11.10386719 25.85222656 -11.52023437 25.14195312 -11.94921875 24.41015625 C-14.36534321 20.01801922 -14.46260104 16.47926941 -14 11.5 C-11.5247648 4.72567209 -7.79096619 -0.47217977 0 0 Z " fill="#3870BF" transform="translate(519,480.5)" />
<path d="M0 0 C2.4375 0.75 2.4375 0.75 4.4375 2.75 C4.6875 5.75 4.6875 5.75 4.4375 8.75 C2.4375 10.75 2.4375 10.75 -0.5 11.0625 C-3.5625 10.75 -3.5625 10.75 -5.5 9.625 C-6.5625 7.75 -6.5625 7.75 -6.4375 4.6875 C-5.31039351 0.90364248 -4.04478927 -0.39461359 0 0 Z " fill="#F3F6FB" transform="translate(990.5625,371.25)" />
<path d="M0 0 C3.67023076 5.50534614 4.22536854 10.14018451 4.0625 16.6875 C3.88440836 21.94055088 3.88440836 21.94055088 5 27 C4.87890625 29.26171875 4.87890625 29.26171875 4.5625 31.6875 C4.46066406 32.49574219 4.35882812 33.30398438 4.25390625 34.13671875 C4.12822266 35.05904297 4.12822266 35.05904297 4 36 C3.67 36 3.34 36 3 36 C2.48712497 32.25164737 1.99216862 28.50112299 1.5 24.75 C1.28537109 23.18378906 1.28537109 23.18378906 1.06640625 21.5859375 C0.1283526 14.34952364 -0.1767031 7.2939111 0 0 Z " fill="#4A74B1" transform="translate(1064,390)" />
<path d="M0 0 C3.29714793 0.32971479 4.6226839 0.6226839 7 3 C7.3125 5.5 7.3125 5.5 7 8 C4 10 4 10 1.4375 9.75 C-1 9 -1 9 -3 7 C-2.67028521 3.70285207 -2.3773161 2.3773161 0 0 Z " fill="#F3F6FB" transform="translate(961,388)" />
<path d="M0 0 C0 3 0 3 -1.56054688 4.90112305 C-2.62885742 5.94586792 -2.62885742 5.94586792 -3.71875 7.01171875 C-4.48574219 7.76904297 -5.25273438 8.52636719 -6.04296875 9.30664062 C-6.85378906 10.09232422 -7.66460938 10.87800781 -8.5 11.6875 C-9.31082031 12.48478516 -10.12164063 13.28207031 -10.95703125 14.10351562 C-12.96482203 16.0758748 -14.9792687 18.04091492 -17 20 C-17.66 19.67 -18.32 19.34 -19 19 C-13.0763504 12.14630879 -6.85369121 5.9236496 0 0 Z " fill="#4B7ABE" transform="translate(608,456)" />
<path d="M0 0 C0.33 0 0.66 0 1 0 C1.22786458 1.98567708 1.45572917 3.97135417 1.68359375 5.95703125 C1.97170735 8.19396393 1.97170735 8.19396393 3 11 C2.87890625 13.26171875 2.87890625 13.26171875 2.5625 15.6875 C2.46066406 16.49574219 2.35882812 17.30398438 2.25390625 18.13671875 C2.17011719 18.75160156 2.08632812 19.36648438 2 20 C1.67 20 1.34 20 1 20 C0.11722245 15.48184719 -0.10589503 11.22487306 -0.0625 6.625 C-0.05347656 5.37976563 -0.04445313 4.13453125 -0.03515625 2.8515625 C-0.02355469 1.91054688 -0.01195312 0.96953125 0 0 Z " fill="#3B66A4" transform="translate(1066,406)" />
<path d="M0 0 C0.33 1.32 0.66 2.64 1 4 C3.64 4.66 6.28 5.32 9 6 C9 6.33 9 6.66 9 7 C7.3954444 6.85851011 5.79136233 6.71164314 4.1875 6.5625 C3.29417969 6.48128906 2.40085937 6.40007812 1.48046875 6.31640625 C-1 6 -1 6 -4 5 C-2.25 1.125 -2.25 1.125 0 0 Z " fill="#3A6CB4" transform="translate(773,440)" />
<path d="M0 0 C0 3 0 3 -2.1875 5.26171875 C-3.115625 6.06222656 -4.04375 6.86273438 -5 7.6875 C-5.928125 8.49574219 -6.85625 9.30398438 -7.8125 10.13671875 C-8.8953125 11.05904297 -8.8953125 11.05904297 -10 12 C-10.66 11.67 -11.32 11.34 -12 11 C-10.56564079 9.5385774 -9.12739414 8.08096951 -7.6875 6.625 C-6.88699219 5.81289063 -6.08648438 5.00078125 -5.26171875 4.1640625 C-3 2 -3 2 0 0 Z " fill="#4B7CC2" transform="translate(832,421)" />
<path d="M0 0 C0 3 0 3 -1.96875 5.04296875 C-2.8040625 5.75066406 -3.639375 6.45835937 -4.5 7.1875 C-5.3353125 7.90292969 -6.170625 8.61835938 -7.03125 9.35546875 C-7.6809375 9.89816406 -8.330625 10.44085938 -9 11 C-9.66 10.67 -10.32 10.34 -11 10 C-9.73232923 8.70522938 -8.46073776 7.41429661 -7.1875 6.125 C-6.47980469 5.40570313 -5.77210938 4.68640625 -5.04296875 3.9453125 C-3 2 -3 2 0 0 Z " fill="#4E7DC0" transform="translate(691,317)" />
<path d="M0 0 C0.33 0 0.66 0 1 0 C1.8125 3.1875 1.8125 3.1875 2 7 C-0.4375 9.9375 -0.4375 9.9375 -3 12 C-3.66 11.67 -4.32 11.34 -5 11 C-4.54625 10.484375 -4.0925 9.96875 -3.625 9.4375 C-1.61799617 6.42699426 -0.87268191 3.49072763 0 0 Z " fill="#6688B9" transform="translate(860,703)" />
<path d="M0 0 C0.66 0.33 1.32 0.66 2 1 C1.67 1.66 1.34 2.32 1 3 C0.34 3 -0.32 3 -1 3 C-1.2475 3.61875 -1.495 4.2375 -1.75 4.875 C-3.22047178 7.37480203 -4.41403076 7.83316022 -7 9 C-6.02180976 7.68677212 -5.0424189 6.37443848 -4.0625 5.0625 C-3.51722656 4.33160156 -2.97195313 3.60070312 -2.41015625 2.84765625 C-1 1 -1 1 0 0 Z " fill="#4577BF" transform="translate(918,629)" />
<path d="M0 0 C0.66 0 1.32 0 2 0 C1.67 1.32 1.34 2.64 1 4 C3.475 4.99 3.475 4.99 6 6 C5.01 6.495 5.01 6.495 4 7 C2.02 5.68 0.04 4.36 -2 3 C-1.34 2.01 -0.68 1.02 0 0 Z " fill="#4674B6" transform="translate(531,514)" />
<path d="M0 0 C0.33 0 0.66 0 1 0 C1 2.64 1 5.28 1 8 C-0.32 7.67 -1.64 7.34 -3 7 C-2.690625 6.401875 -2.38125 5.80375 -2.0625 5.1875 C-0.89790296 2.91043228 -0.89790296 2.91043228 0 0 Z " fill="#5887CB" transform="translate(1055,447)" />

<g id="coins" transform="translate(405.0 124.0) scale(11.421875)" fill="none" stroke="white" stroke-width="1.0" stroke-linecap="round" stroke-linejoin="round">
  <!-- stack of two coins in the back -->
  <ellipse cx="49.3" cy="45.5" rx="4.0" ry="1.65"/>
  <path d="M45.3 45.5 C45.3 46.9 47.1 48.0 49.3 48.0 C51.5 48.0 53.3 46.9 53.3 45.5"/>
  <path d="M45.3 48.2 C45.3 49.6 47.1 50.7 49.3 50.7 C51.5 50.7 53.3 49.6 53.3 48.2"/>

  <!-- single coin in front -->
  <ellipse cx="44.1" cy="48.5" rx="4.0" ry="1.65"/>
  <path d="M40.1 48.5 C40.1 49.9 41.9 51.0 44.1 51.0 C46.3 51.0 48.1 49.9 48.1 48.5"/>
</g>
</svg>
