<svg width="64" height="64" viewBox="0 0 64 64" fill="none" xmlns="http://www.w3.org/2000/svg">
<rect width="64" height="64" rx="32" fill="#FF8A00"/>
<path d="M34.5146 40.543C34.4646 40.5844 34.4333 40.6193 34.4141 40.6436C34.4249 40.657 34.4402 40.6741 34.4609 40.6943C34.5647 40.7952 34.7557 40.9227 35.0527 41.0449C35.6427 41.2876 36.5083 41.455 37.502 41.4551C38.4963 41.4551 39.3631 41.2876 39.9531 41.0449C40.2501 40.9227 40.4403 40.7961 40.5439 40.6953C40.5648 40.675 40.579 40.6571 40.5898 40.6436C40.5853 40.6379 40.5812 40.6299 40.5752 40.623L41.6641 39.5703C41.9041 39.8391 42.0964 40.202 42.0967 40.6416C42.0967 41.1445 41.846 41.5446 41.5586 41.8242C41.2726 42.1024 40.8986 42.3181 40.499 42.4824C39.6952 42.813 38.6348 43 37.502 43C36.369 42.9999 35.3095 42.8112 34.5059 42.4805C34.1064 42.316 33.7322 42.1013 33.4463 41.8232C33.1592 41.5439 32.9082 41.1443 32.9082 40.6416C32.9085 40.0589 33.2424 39.6204 33.5898 39.333L34.5146 40.543ZM44.418 40.543C44.3679 40.5844 44.3366 40.6193 44.3174 40.6436C44.3282 40.657 44.3435 40.6741 44.3643 40.6943C44.468 40.7952 44.659 40.9227 44.9561 41.0449C45.546 41.2876 46.4116 41.455 47.4053 41.4551C48.3996 41.4551 49.2664 41.2876 49.8564 41.0449C50.1534 40.9227 50.3437 40.7961 50.4473 40.6953C50.4681 40.675 50.4823 40.6571 50.4932 40.6436C50.4886 40.6379 50.4846 40.6299 50.4785 40.623L51.5674 39.5703C51.8075 39.8392 51.9999 40.2027 52 40.6426C51.9998 41.1453 51.7492 41.5447 51.4619 41.8242C51.1759 42.1024 50.8019 42.3181 50.4023 42.4824C49.5986 42.813 48.5381 43 47.4053 43C46.2724 42.9999 45.2128 42.8121 44.4092 42.4814C44.0096 42.317 43.6356 42.1013 43.3496 41.8232C43.0626 41.544 42.8117 41.1451 42.8115 40.6426C42.8117 40.0596 43.1456 39.6204 43.4932 39.333L44.418 40.543ZM31.5791 22C32.2109 22.0172 32.8373 22.1348 33.4336 22.3496L33.7295 22.4658L33.7422 22.4707L47.4043 28.5371C48.1843 28.8841 48.7618 29.5984 48.9316 30.4639C48.9912 30.7681 48.8679 31.0642 48.6426 31.2373C49.3064 31.3288 49.9147 31.4937 50.4219 31.7197C50.8253 31.8996 51.1996 32.1335 51.4834 32.4326C51.7704 32.7351 51.9999 33.1454 52 33.6436C51.9999 34.1414 51.7702 34.5511 51.4834 34.8535C51.1996 35.1526 50.8252 35.3875 50.4219 35.5674C49.6122 35.9282 48.5446 36.1328 47.4053 36.1328C46.266 36.1328 45.1992 35.9283 44.3896 35.5674C43.9862 35.3875 43.612 35.1527 43.3281 34.8535C43.0413 34.5511 42.8116 34.1414 42.8115 33.6436C42.8116 33.1455 43.0412 32.7351 43.3281 32.4326C43.612 32.1335 43.9863 31.8996 44.3896 31.7197C45.1992 31.3589 46.2661 31.1544 47.4053 31.1543C47.4963 31.1543 47.5868 31.1576 47.6768 31.1602C47.5787 31.0571 47.5065 30.9251 47.4766 30.7725C47.4163 30.4656 47.2256 30.1911 46.9453 30.0234L46.8213 29.959L40.041 26.9482L37.332 28.7891L37.3105 28.8027L37.2881 28.8164C36.7047 29.1551 36.0383 29.3059 35.373 29.2549V29.2559L23.2119 28.4619L23.2051 28.4609C22.4053 28.3995 21.7003 27.8827 21.3838 27.1133L21.3809 27.1064L20.0625 23.8223L16.3701 23.9141L17.1689 25.9834L17.3574 26.4697L13.5244 30.2471C13.4956 30.2755 13.4854 30.3091 13.4854 30.3359V34.9551C13.4856 35.3579 13.8188 35.7312 14.2861 35.7314H16.4053C16.5066 33.1857 18.5226 31.1544 20.9951 31.1543C23.4678 31.1546 25.4832 33.1863 25.584 35.7324H32.5508C32.8344 35.7324 33.0779 35.8995 33.2031 36.1426C33.2702 36.0425 33.3452 35.9501 33.4248 35.8662C33.7087 35.567 34.0828 35.3322 34.4863 35.1523C35.2347 34.8188 36.2031 34.6211 37.2451 34.5928C37.2021 34.5762 37.1598 34.5557 37.1191 34.5303C36.768 34.3101 36.6549 33.8351 36.8662 33.4697C37.6689 32.0842 39.1318 31.1544 40.8037 31.1543C41.5069 31.1543 42.1757 31.3199 42.7734 31.6152C43.1434 31.7985 43.3016 32.2585 43.126 32.6436C42.9499 33.0289 42.5053 33.1928 42.1348 33.0098C41.7322 32.811 41.2814 32.6993 40.8037 32.6992C39.674 32.6993 38.6838 33.3259 38.1387 34.2666C38.0464 34.4257 37.9062 34.534 37.75 34.5918C38.7956 34.6192 39.7679 34.8178 40.5186 35.1523C40.922 35.3322 41.2962 35.5671 41.5801 35.8662C41.867 36.1687 42.0967 36.579 42.0967 37.0771C42.0965 37.575 41.8669 37.9847 41.5801 38.2871C41.2963 38.5862 40.9219 38.8201 40.5186 39C39.7088 39.3609 38.6414 39.5654 37.502 39.5654C36.3627 39.5654 35.2959 39.3609 34.4863 39C34.083 38.8202 33.7086 38.5862 33.4248 38.2871C33.157 38.0047 32.9409 37.6287 32.9131 37.1748C32.8054 37.2379 32.6831 37.2773 32.5508 37.2773H25.4023C24.8437 39.2611 23.083 40.7107 20.9951 40.7109C18.9071 40.7108 17.1456 39.2612 16.5869 37.2773H14.2861C13.0489 37.277 12.0002 36.2629 12 34.9551V30.3359C12 29.8758 12.1846 29.4414 12.502 29.1279L15.6016 26.0693L14.1934 22.4229L31.2627 22H31.5791ZM44.418 37.1094C44.3678 37.1509 44.3366 37.1857 44.3174 37.21C44.3282 37.2235 44.3434 37.2404 44.3643 37.2607C44.468 37.3616 44.6589 37.489 44.9561 37.6113C45.546 37.854 46.4116 38.0214 47.4053 38.0215C48.3996 38.0215 49.2664 37.854 49.8564 37.6113C50.1534 37.4891 50.3437 37.3625 50.4473 37.2617C50.4681 37.2414 50.4823 37.2235 50.4932 37.21C50.4886 37.2043 50.4846 37.1963 50.4785 37.1895L51.5674 36.1377C51.8074 36.4065 51.9999 36.7693 52 37.209C51.9999 37.7117 51.7492 38.1111 51.4619 38.3906C51.1759 38.6688 50.8019 38.8845 50.4023 39.0488C49.5985 39.3794 48.5381 39.5664 47.4053 39.5664C46.2723 39.5664 45.2128 39.3786 44.4092 39.0479C44.0095 38.8834 43.6356 38.6678 43.3496 38.3896C43.0625 38.1103 42.8116 37.7116 42.8115 37.209C42.8117 36.6262 43.1457 36.1878 43.4932 35.9004L44.418 37.1094ZM20.9951 32.6992C19.2784 32.6993 17.8859 34.1471 17.8857 35.9326C17.8859 37.7181 19.2785 39.1649 20.9951 39.165C22.7117 39.1648 24.1033 37.718 24.1035 35.9326C24.1034 34.1472 22.7117 32.6995 20.9951 32.6992ZM37.502 36.1328C36.5145 36.1329 35.6554 36.3129 35.0713 36.5732C34.7782 36.7039 34.5883 36.8397 34.4824 36.9512C34.3805 37.0587 34.3934 37.1004 34.3936 37.0771C34.3936 37.0529 34.3797 37.0949 34.4824 37.2031C34.5883 37.3146 34.7785 37.4505 35.0713 37.5811C35.6554 37.8414 36.5146 38.0205 37.502 38.0205C38.4896 38.0205 39.3494 37.8415 39.9336 37.5811C40.2265 37.4505 40.4165 37.3146 40.5225 37.2031C40.5869 37.1353 40.6055 37.0928 40.6104 37.0771C40.6059 37.0622 40.5879 37.0202 40.5225 36.9512C40.4166 36.8397 40.2266 36.7039 39.9336 36.5732C39.3493 36.3128 38.4896 36.1328 37.502 36.1328ZM47.4053 32.6992C46.4178 32.6993 45.5588 32.8793 44.9746 33.1396C44.6815 33.2703 44.4916 33.4061 44.3857 33.5176C44.2835 33.6253 44.2967 33.667 44.2969 33.6436C44.2968 33.6198 44.2835 33.6617 44.3857 33.7695C44.4916 33.8809 44.6819 34.0169 44.9746 34.1475C45.5588 34.4078 46.418 34.5869 47.4053 34.5869C48.3929 34.5869 49.2527 34.4079 49.8369 34.1475C50.1299 34.0168 50.3199 33.881 50.4258 33.7695C50.4905 33.7014 50.509 33.6591 50.5137 33.6436C50.5091 33.6283 50.4908 33.5861 50.4258 33.5176C50.3199 33.4061 50.1298 33.2703 49.8369 33.1396C49.2527 32.8793 48.3929 32.6992 47.4053 32.6992ZM31.2988 23.5449L31.0918 23.5498V27.4277L35.4668 27.7139L35.4766 27.7148C35.8495 27.7445 36.2216 27.6598 36.5479 27.4746L38.3984 26.2188L33.1582 23.8916C32.5719 23.6464 31.9377 23.5276 31.2998 23.5439L31.2988 23.5449ZM21.6562 23.7832L22.749 26.5049L22.791 26.5889C22.9 26.7763 23.0928 26.9028 23.3135 26.9199H23.3125L29.6064 27.3311V23.5859L21.6562 23.7832Z" fill="white"/>
</svg>
