<svg width="64" height="64" viewBox="0 0 64 64" fill="none" xmlns="http://www.w3.org/2000/svg">
<rect width="64" height="64" rx="32" fill="#22AC39"/>
<path d="M27.4863 15.001C28.0676 15.0185 28.5068 15.245 28.8242 15.5156C29.1417 15.245 29.5809 15.0185 30.1621 15.001C30.9791 14.9765 31.5523 15.3761 31.8926 15.7402C32.061 15.9206 32.1815 16.1004 32.2598 16.2344C32.2993 16.302 32.3291 16.3609 32.3506 16.4053C32.3613 16.4274 32.3703 16.447 32.377 16.4619C32.3802 16.4691 32.3835 16.4752 32.3857 16.4805C32.3868 16.4829 32.3878 16.4853 32.3887 16.4873C32.3891 16.4884 32.3892 16.4912 32.3896 16.4922L32.3906 16.4932L32.4375 16.6064L32.4492 16.7275V16.7344C32.4497 16.739 32.4504 16.7461 32.4512 16.7549C32.4528 16.7729 32.4548 16.8001 32.458 16.835C32.4645 16.9051 32.4751 17.0083 32.4873 17.1396C32.5117 17.4028 32.5467 17.7802 32.5889 18.2363C32.6733 19.1489 32.7857 20.3778 32.9023 21.6416C33.1353 24.1664 33.3814 26.8376 33.4307 27.4062C33.4635 27.7851 33.6388 28.1883 33.9434 28.7295C34.2239 29.2278 34.6378 29.8777 34.9385 30.5742C35.1495 31.064 35.1825 31.6962 35.1895 32.2549C35.1932 32.5526 35.1882 32.8746 35.1846 33.1963C35.1809 33.522 35.1787 33.8546 35.1846 34.1943C35.2087 35.5774 35.3815 36.9331 36.1055 37.9834C36.2297 38.1636 36.563 38.5647 36.8984 38.9551C37.0593 39.1423 37.2116 39.3162 37.3232 39.4434C37.379 39.5069 37.4254 39.559 37.457 39.5947C37.4725 39.6122 37.485 39.6255 37.4932 39.6348C37.4972 39.6393 37.4999 39.6441 37.502 39.6465C37.5027 39.6473 37.5042 39.6487 37.5049 39.6494C37.7973 39.9788 37.7704 40.4858 37.4443 40.7812C37.1383 41.0581 36.6784 41.0506 36.3809 40.7773L36.3213 40.7188C36.3207 40.7181 36.3203 40.7159 36.3193 40.7148C36.3171 40.7124 36.3135 40.7094 36.3096 40.7051C36.3008 40.6952 36.2868 40.6806 36.2705 40.6621C36.2379 40.6252 36.1917 40.5717 36.1348 40.5068C36.0207 40.3769 35.8648 40.1985 35.6992 40.0059C35.3815 39.6362 34.9847 39.1648 34.8018 38.8994C33.7918 37.4343 33.6217 35.6613 33.5967 34.2227C33.5903 33.8573 33.5939 33.5035 33.5977 33.1768C33.6014 32.8459 33.605 32.5479 33.6016 32.2744C33.5943 31.6918 33.549 31.3715 33.4824 31.2158L33.3838 30.9961C33.1459 30.4959 32.8608 30.0505 32.5625 29.5205C32.2458 28.9578 31.9147 28.2963 31.8496 27.5469C31.8114 27.1066 31.6511 25.3724 31.4717 23.4248C31.471 23.421 31.4705 23.4162 31.4697 23.4111C31.4662 23.3894 31.461 23.3569 31.4541 23.3154C31.4403 23.2322 31.4206 23.1116 31.3945 22.9658C31.3423 22.6735 31.2682 22.2814 31.1797 21.8779C31.0903 21.4709 30.9898 21.0674 30.8867 20.748C30.8351 20.5881 30.7873 20.4646 30.7471 20.3789C30.7322 20.3472 30.7196 20.3271 30.7129 20.3154C30.4844 20.1066 30.3491 19.9949 30.2471 19.9326C30.2009 19.9045 30.176 19.8959 30.168 19.8936C30.1631 19.8921 30.1597 19.8913 30.1523 19.8916C30.0812 19.8949 29.9288 19.9286 29.8145 20.0176C29.7648 20.0563 29.7212 20.1064 29.6875 20.1768C29.6552 20.2442 29.6215 20.3547 29.6182 20.5303C29.6183 20.5397 29.6191 20.5491 29.6191 20.5586H29.6182V42.1846C29.6202 42.1968 29.6231 42.2132 29.627 42.2324C29.6392 42.293 29.66 42.3811 29.6953 42.4814C29.7693 42.6916 29.8861 42.9054 30.0576 43.0547C30.2927 43.2591 30.722 43.501 31.2793 43.8115C31.7755 44.088 32.39 44.4285 32.7979 44.7881L33.457 45.3682C33.6191 45.5109 33.7091 45.7056 33.7256 45.9062C33.849 45.718 34.003 45.5599 34.1592 45.4346L35.1475 46.6885C35.1343 46.699 35.1234 46.7097 35.1133 46.7188C35.2061 46.8024 35.3757 46.9121 35.6445 47.0195C36.2007 47.2417 37.0238 47.3974 37.9727 47.3975C38.9216 47.3975 39.7446 47.2425 40.3008 47.0205C40.5808 46.9087 40.7547 46.7948 40.8447 46.71C40.9326 46.6268 40.884 46.6291 40.8838 46.7188C40.8838 46.7262 40.886 46.7343 40.8867 46.7412L42.0342 45.6641C42.2745 45.9253 42.4725 46.2826 42.4727 46.7188C42.4727 47.2175 42.2159 47.6095 41.9297 47.8799C41.6448 48.1489 41.2756 48.3551 40.8857 48.5107C40.101 48.824 39.0701 49 37.9727 49C36.8752 49 35.8452 48.8241 35.0605 48.5107C34.6706 48.355 34.3015 48.1488 34.0166 47.8799C33.7305 47.6098 33.4736 47.2176 33.4736 46.7188C33.4737 46.6609 33.4779 46.6047 33.4844 46.5498C33.1909 46.8345 32.7256 46.8503 32.4131 46.5752L31.7539 45.9951C31.503 45.7739 31.0623 45.5216 30.5117 45.2148C30.0219 44.9419 29.4113 44.6094 29.0205 44.2695C28.9491 44.2074 28.8845 44.1413 28.8232 44.0752C28.7621 44.1411 28.6982 44.2076 28.627 44.2695C28.236 44.6094 27.6255 44.942 27.1357 45.2148C26.7228 45.4449 26.3716 45.6446 26.1162 45.8232L25.8945 45.9951L25.5684 46.2812C25.5969 46.8448 25.3928 47.2992 25.1387 47.6182C24.9837 47.8125 24.8172 47.9506 24.6914 48.04C24.6276 48.0854 24.5708 48.1204 24.5273 48.1455C24.5055 48.1581 24.486 48.1687 24.4707 48.1768C24.4633 48.1806 24.4568 48.1846 24.4512 48.1875C24.4485 48.1889 24.4456 48.1903 24.4434 48.1914C24.4423 48.1919 24.4406 48.192 24.4395 48.1924L24.4365 48.1943C24.4336 48.189 24.4049 48.1285 24.0928 47.4717L24.4355 48.1943L24.2734 48.2734H13.8135C13.7985 48.2733 13.7793 48.2734 13.7568 48.2725C13.7116 48.2706 13.6503 48.2662 13.5791 48.2578C13.4402 48.2414 13.2389 48.2058 13.0273 48.124C12.8179 48.043 12.5574 47.901 12.3467 47.6484C12.1232 47.3803 11.9973 47.0355 12.001 46.6416C12.0048 46.2272 12.0049 45.3672 12.0039 44.6064C12.0034 44.2273 12.0026 43.8736 12.002 43.6152C12.0016 43.4862 12.0012 43.3797 12.001 43.3066V43.1934L12 42.6855L12.4551 42.4668L12.4561 42.4658C12.4568 42.4656 12.458 42.4653 12.459 42.4648C12.4616 42.4636 12.4658 42.4623 12.4707 42.46C12.481 42.455 12.4959 42.447 12.5156 42.4375C12.5554 42.4184 12.6142 42.391 12.6885 42.3555C12.8373 42.2843 13.0504 42.1826 13.3057 42.0605C13.8168 41.8163 14.5001 41.4898 15.1846 41.1641C15.8686 40.8385 16.5562 40.5125 17.0771 40.2676C17.3372 40.1453 17.5573 40.0415 17.7158 39.9688C17.7941 39.9328 17.8613 39.9037 17.9111 39.8818C17.9352 39.8713 17.9626 39.8591 17.9863 39.8496C17.9972 39.8452 18.0157 39.8375 18.0371 39.8301C18.0475 39.8265 18.0688 39.8194 18.0947 39.8125C18.101 39.8108 18.1894 39.7852 18.3008 39.7852L18.4336 39.7959C18.7288 39.8405 18.9172 40.0241 18.999 40.1191C19.0629 40.1934 19.1123 40.2742 19.1523 40.3457C19.2735 40.2606 19.4053 40.1661 19.543 40.0605C20.203 39.5545 20.978 38.8462 21.5312 38L21.5371 37.9922L21.543 37.9834C22.2668 36.9331 22.4398 35.5773 22.4639 34.1943C22.4698 33.8546 22.4666 33.522 22.4629 33.1963C22.4592 32.8746 22.4553 32.5526 22.459 32.2549C22.466 31.6965 22.4983 31.0659 22.709 30.5762C23.0094 29.8789 23.4233 29.2281 23.7041 28.7295C24.009 28.188 24.1849 27.7851 24.2178 27.4062C24.2671 26.8376 24.5131 24.1664 24.7461 21.6416C24.8627 20.3778 24.9752 19.1489 25.0596 18.2363C25.1018 17.7802 25.1368 17.4028 25.1611 17.1396C25.1733 17.0084 25.183 16.9051 25.1895 16.835C25.1927 16.8001 25.1956 16.7729 25.1973 16.7549C25.1981 16.7461 25.1979 16.739 25.1982 16.7344C25.1984 16.7322 25.1991 16.7296 25.1992 16.7285L25.2109 16.6064L25.2578 16.4941L25.2588 16.4922C25.2592 16.4912 25.2593 16.4884 25.2598 16.4873C25.2606 16.4853 25.2617 16.4829 25.2627 16.4805C25.2649 16.4752 25.2674 16.4689 25.2705 16.4619C25.2772 16.4469 25.2871 16.4275 25.2979 16.4053C25.3194 16.3609 25.3491 16.302 25.3887 16.2344C25.467 16.1004 25.5874 15.9206 25.7559 15.7402C26.0962 15.376 26.6692 14.9764 27.4863 15.001ZM44.6758 46.6885C44.6627 46.699 44.6517 46.7097 44.6416 46.7188C44.7344 46.8024 44.904 46.9121 45.1729 47.0195C45.729 47.2417 46.552 47.3974 47.501 47.3975C48.45 47.3975 49.2729 47.2425 49.8291 47.0205C50.1095 46.9086 50.2831 46.7939 50.373 46.709C50.4607 46.626 50.4123 46.6291 50.4121 46.7188C50.4121 46.7262 50.4133 46.7343 50.4141 46.7412L51.5625 45.6641C51.8028 45.9253 51.9999 46.2826 52 46.7188C52 47.2175 51.7442 47.6095 51.458 47.8799C51.173 48.1489 50.8031 48.355 50.4131 48.5107C49.6284 48.8239 48.5983 49 47.501 49C46.4035 49 45.3735 48.8241 44.5889 48.5107C44.1989 48.355 43.8298 48.1488 43.5449 47.8799C43.2588 47.6098 43.002 47.2177 43.002 46.7188C43.0021 46.1405 43.3436 45.7107 43.6875 45.4346L44.6758 46.6885ZM17.7471 41.7197C17.2295 41.963 16.545 42.2889 15.8613 42.6143C15.1781 42.9394 14.4969 43.2648 13.9863 43.5088C13.8391 43.5792 13.7046 43.6414 13.5898 43.6963C13.5904 43.945 13.5914 44.2644 13.5918 44.6045C13.5927 45.3432 13.5925 46.1875 13.5889 46.623C13.5907 46.6238 13.5927 46.6251 13.5947 46.626C13.6438 46.6449 13.7057 46.6583 13.7627 46.665C13.7886 46.6681 13.8094 46.6694 13.8213 46.6699H23.582C21.1524 46.2865 19.7536 44.9573 18.9238 43.6357C18.4633 42.9022 18.1838 42.1828 17.9961 41.6875C17.9867 41.6626 17.9775 41.6382 17.9688 41.6152C17.8993 41.6477 17.825 41.6831 17.7471 41.7197ZM37.9727 40.9863C39.077 40.9863 40.1152 41.1783 40.9062 41.5205C41.3002 41.691 41.6696 41.9151 41.9521 42.2041C42.238 42.4966 42.4727 42.8985 42.4727 43.3906C42.4725 43.8825 42.2379 44.2838 41.9521 44.5762C41.6696 44.8651 41.3001 45.0893 40.9062 45.2598C40.1152 45.6019 39.077 45.7939 37.9727 45.7939C36.8685 45.7939 35.831 45.6019 35.04 45.2598C34.646 45.0893 34.2767 44.8652 33.9941 44.5762C33.744 44.3203 33.5331 43.9809 33.4844 43.5703L33.4736 43.3906L33.4844 43.21C33.5331 42.7994 33.744 42.46 33.9941 42.2041C34.2767 41.9151 34.646 41.691 35.04 41.5205C35.831 41.1784 36.8685 40.9864 37.9727 40.9863ZM44.6758 43.4834C44.6627 43.4939 44.6517 43.5046 44.6416 43.5137C44.7345 43.5973 44.9042 43.7061 45.1729 43.8135C45.729 44.0356 46.552 44.1914 47.501 44.1914C48.4501 44.1914 49.2729 44.0365 49.8291 43.8145C50.1094 43.7025 50.2831 43.5888 50.373 43.5039C50.461 43.4207 50.4122 43.4239 50.4121 43.5137C50.4122 43.521 50.4133 43.5283 50.4141 43.5352L51.5625 42.458C51.803 42.7193 51.9999 43.0773 52 43.5137C51.9999 44.0123 51.7442 44.4045 51.458 44.6748C51.173 44.9439 50.8031 45.149 50.4131 45.3047C49.6284 45.6179 48.5983 45.7939 47.501 45.7939C46.4034 45.7939 45.3735 45.6181 44.5889 45.3047C44.199 45.149 43.8298 44.9436 43.5449 44.6748C43.2588 44.4047 43.0021 44.0125 43.002 43.5137C43.0021 42.9353 43.3435 42.5047 43.6875 42.2285L44.6758 43.4834ZM27.4805 19.8936C27.4724 19.8959 27.4483 19.9046 27.4023 19.9326C27.3001 19.9949 27.1636 20.106 26.9346 20.3154C26.9278 20.3272 26.9161 20.3476 26.9014 20.3789C26.8611 20.4646 26.8134 20.588 26.7617 20.748C26.6586 21.0674 26.5591 21.4709 26.4697 21.8779C26.3812 22.2814 26.3071 22.6735 26.2549 22.9658C26.2289 23.1116 26.2082 23.2322 26.1943 23.3154C26.1876 23.3563 26.1813 23.3885 26.1777 23.4102C25.9978 25.3637 25.8371 27.1054 25.7988 27.5469C25.7337 28.2966 25.4018 28.9588 25.085 29.5215C24.7441 30.1268 24.4213 30.6215 24.166 31.2139C24.0991 31.3691 24.0542 31.6905 24.0469 32.2744C24.0435 32.5479 24.047 32.8459 24.0508 33.1768C24.0545 33.5034 24.0581 33.8573 24.0518 34.2227C24.0267 35.6612 23.8566 37.4343 22.8467 38.8994L22.8457 38.8984C22.1561 39.9472 21.2334 40.7776 20.5039 41.3369C20.2344 41.5436 19.9843 41.7142 19.7773 41.8516C19.9098 42.15 20.0677 42.4646 20.2646 42.7783C20.9323 43.8416 22.0676 44.9393 24.2842 45.1436L24.4346 45.1523L24.8486 44.7881C25.2566 44.4283 25.8727 44.0881 26.3691 43.8115C26.9264 43.5011 27.3558 43.2591 27.5908 43.0547C27.7623 42.9054 27.8782 42.6915 27.9521 42.4814C27.9875 42.381 28.0093 42.293 28.0215 42.2324C28.0254 42.2131 28.0283 42.1968 28.0303 42.1846V20.5586H28.0293C28.0293 20.5492 28.0292 20.5396 28.0293 20.5303C28.0259 20.3546 27.9932 20.2442 27.9609 20.1768C27.9272 20.1065 27.8836 20.0563 27.834 20.0176C27.7195 19.9286 27.567 19.8948 27.4961 19.8916C27.4886 19.8913 27.4856 19.8921 27.4805 19.8936ZM37.9727 42.5889C37.0307 42.5889 36.215 42.7562 35.665 42.9941C35.3891 43.1136 35.2163 43.2357 35.124 43.3301C35.0996 43.3551 35.086 43.3764 35.0762 43.3906C35.086 43.4049 35.0998 43.4263 35.124 43.4512C35.2164 43.5455 35.3893 43.6678 35.665 43.7871C36.215 44.025 37.0307 44.1914 37.9727 44.1914C38.9145 44.1914 39.7303 44.025 40.2803 43.7871C40.5563 43.6677 40.7299 43.5455 40.8223 43.4512C40.8463 43.4265 40.8593 43.4048 40.8691 43.3906C40.8593 43.3765 40.8463 43.3547 40.8223 43.3301C40.73 43.2357 40.5565 43.1137 40.2803 42.9941C39.7303 42.7562 38.9147 42.5889 37.9727 42.5889ZM47.501 37.7803C48.6053 37.7803 49.6435 37.9723 50.4346 38.3145C50.8285 38.4849 51.1979 38.7091 51.4805 38.998C51.7664 39.2906 52 39.6924 52 40.1846C52 40.6768 51.7664 41.0786 51.4805 41.3711C51.1979 41.6601 50.8285 41.8842 50.4346 42.0547C49.6435 42.3969 48.6053 42.5889 47.501 42.5889C46.3968 42.5888 45.3593 42.3968 44.5684 42.0547C44.1743 41.8842 43.8041 41.6601 43.5215 41.3711C43.2356 41.0786 43.002 40.6766 43.002 40.1846C43.002 39.6925 43.2356 39.2905 43.5215 38.998C43.8041 38.709 44.1743 38.4849 44.5684 38.3145C45.3593 37.9724 46.3968 37.7803 47.501 37.7803ZM47.501 39.3828C46.559 39.3828 45.7433 39.5502 45.1934 39.7881C44.9175 39.9075 44.7447 40.0297 44.6523 40.124C44.6279 40.149 44.6144 40.1703 44.6045 40.1846C44.6144 40.1988 44.6279 40.2201 44.6523 40.2451C44.7447 40.3394 44.9175 40.4617 45.1934 40.5811C45.7433 40.819 46.559 40.9863 47.501 40.9863C48.443 40.9863 49.2586 40.819 49.8086 40.5811C50.0848 40.4615 50.2583 40.3395 50.3506 40.2451C50.3746 40.2206 50.3866 40.1987 50.3965 40.1846C50.3866 40.1704 50.3746 40.1486 50.3506 40.124C50.2583 40.0296 50.0848 39.9076 49.8086 39.7881C49.2586 39.5502 48.443 39.3828 47.501 39.3828ZM20.5869 31.373C20.987 31.4143 21.2998 31.7561 21.2998 32.1709C21.2997 32.5856 20.987 32.9265 20.5869 32.9678L20.5049 32.9717H15.2119C14.7736 32.9716 14.4181 32.6133 14.418 32.1709C14.418 31.7284 14.7735 31.3693 15.2119 31.3691H20.5049L20.5869 31.373ZM42.8184 31.373C43.2185 31.4143 43.5312 31.7561 43.5312 32.1709C43.5311 32.5856 43.2184 32.9265 42.8184 32.9678L42.7373 32.9717H36.3848C35.9464 32.9716 35.5909 32.6133 35.5908 32.1709C35.5908 31.7284 35.9464 31.3693 36.3848 31.3691H42.7373L42.8184 31.373ZM14.4287 26.6963C14.5009 26.26 14.9105 25.9646 15.3428 26.0371L21.6943 27.1055C22.1268 27.1782 22.4195 27.5919 22.3477 28.0283C22.2755 28.4645 21.8668 28.7598 21.4346 28.6875L15.082 27.6191C14.6498 27.5463 14.3568 27.1326 14.4287 26.6963ZM42.6074 26.0371C43.0397 25.9648 43.4493 26.26 43.5215 26.6963C43.5934 27.1327 43.2996 27.5464 42.8672 27.6191L36.5156 28.6875C36.0833 28.76 35.6737 28.4646 35.6016 28.0283C35.5297 27.592 35.8226 27.1784 36.2549 27.1055L42.6074 26.0371ZM15.5166 20.1631C15.6553 19.7433 16.1056 19.5163 16.5215 19.6562L22.873 21.793C23.289 21.9329 23.5146 22.3877 23.376 22.8076C23.2373 23.2274 22.7871 23.4544 22.3711 23.3145L16.0195 21.1777C15.6035 21.0378 15.3779 20.583 15.5166 20.1631ZM41.4268 19.6562C41.8427 19.5164 42.2929 19.7434 42.4316 20.1631C42.5703 20.583 42.3447 21.0378 41.9287 21.1777L35.5771 23.3145C35.1612 23.4544 34.711 23.2274 34.5723 22.8076C34.4336 22.3877 34.6592 21.9329 35.0752 21.793L41.4268 19.6562ZM30.209 16.6025C29.9875 16.6093 29.8476 16.7141 29.7373 16.8564C29.6846 16.9246 29.6451 16.995 29.6182 17.0518V18.3662C29.7953 18.3177 29.9575 18.2956 30.0859 18.29C30.4427 18.2748 30.749 18.3787 31.0205 18.5342C31.0158 18.4838 31.0113 18.4343 31.0068 18.3857C30.9647 17.9296 30.9296 17.5523 30.9053 17.2891C30.8957 17.1861 30.8879 17.1001 30.8818 17.0342C30.8479 16.978 30.8003 16.9064 30.7373 16.8389C30.6033 16.6954 30.4388 16.5957 30.209 16.6025ZM27.4385 16.6025C27.2088 16.5958 27.0451 16.6956 26.9111 16.8389C26.8485 16.9059 26.7996 16.9762 26.7656 17.0322C26.7595 17.0984 26.7518 17.1851 26.7422 17.2891C26.7178 17.5523 26.6828 17.9297 26.6406 18.3857C26.6362 18.434 26.6306 18.4832 26.626 18.5332C26.8978 18.3771 27.2059 18.2746 27.5635 18.29C27.6918 18.2956 27.8533 18.3178 28.0303 18.3662V17.0518C28.0034 16.995 27.9639 16.9246 27.9111 16.8564C27.8008 16.714 27.6602 16.6092 27.4385 16.6025Z" fill="white"/>
</svg>
