<svg width="64" height="64" viewBox="0 0 64 64" fill="none" xmlns="http://www.w3.org/2000/svg">
<rect width="64" height="64" rx="32" fill="#9A59B5"/>
<path d="M37.0537 13C38.2617 13 39.4197 13.2191 40.4873 13.6191C40.7964 13.735 41.021 14.0046 41.0752 14.3262C41.1292 14.6475 41.0063 14.9736 40.752 15.1816L36.3164 18.8076C38.4361 18.8637 40.5509 19.6034 42.29 21.0566C43.2099 21.8248 43.9477 22.7297 44.4951 23.7139L44.4912 23.7158C44.565 23.848 44.6112 23.9977 44.6104 24.1592C44.6077 24.6317 44.2424 25.0196 43.7754 25.0664L43.6807 25.0713C43.6778 25.0713 43.6739 25.0704 43.6709 25.0703L36.4277 24.9951C38.5228 26.6625 39.8966 29.1779 39.9834 32.0322V32.0342C40.0191 33.2195 39.8285 34.3621 39.4512 35.4209C39.3421 35.7266 39.0774 35.9536 38.7549 36.0166C38.4322 36.0793 38.0988 35.9694 37.8799 35.7275L30.6748 27.7607L31.0361 40.916C31.0496 41.4215 30.6448 41.8426 30.1318 41.8564C29.6185 41.8701 29.1908 41.4707 29.1768 40.9648L28.7559 25.6738H28.0947L27.9229 25.8623L27.3564 46.5234C27.4789 46.5175 27.5951 46.5145 27.7021 46.5107C28.3862 46.4874 29.2136 46.4557 30.0391 46.6367C30.2846 46.6907 30.4851 46.8361 30.6133 47.0283C30.7428 46.648 31.0119 46.3465 31.292 46.127L32.3047 47.3818C32.2357 47.4359 32.1969 47.48 32.1758 47.5078C32.189 47.525 32.2099 47.5493 32.2422 47.5791C32.3619 47.6894 32.5799 47.8259 32.916 47.957C33.5842 48.2176 34.5633 48.3965 35.6855 48.3965C36.8079 48.3965 37.7869 48.2174 38.4551 47.957C38.7913 47.826 39.0102 47.6893 39.1299 47.5791C39.1615 47.5499 39.1812 47.5249 39.1943 47.5078C39.1868 47.4979 39.1784 47.484 39.165 47.4697L39.7607 46.9238L40.3574 46.3779C40.625 46.662 40.8396 47.0438 40.8398 47.5059C40.8397 48.034 40.5619 48.4552 40.2412 48.751C39.9218 49.0454 39.5024 49.2733 39.0537 49.4482C38.1513 49.7999 36.9599 50.001 35.6855 50.001C34.411 50.0009 33.2197 49.8001 32.3174 49.4482C31.8688 49.2733 31.4502 49.0452 31.1309 48.751C30.9216 48.5581 30.7315 48.3112 30.624 48.0166C30.4207 48.3362 30.0298 48.5113 29.6348 48.4248C29.0781 48.3028 28.4872 48.3172 27.7656 48.3418C27.5639 48.3488 27.3865 48.3572 27.2256 48.3701C27.072 48.6869 26.7402 48.9025 26.3613 48.8926C26.2071 48.8884 26.0628 48.8464 25.9365 48.7773C25.7532 48.8736 25.524 48.9968 25.3125 49.0957C23.9241 49.746 22.3581 49.8668 20.9004 49.4268C20.1094 49.1882 19.353 48.7834 18.7305 48.4766C18.0662 48.1492 17.5113 47.9089 16.959 47.8271H16.957C15.8214 47.6595 14.5174 48.2584 13.7158 49.5088C13.4415 49.9367 12.8678 50.0642 12.4336 49.7939C11.9994 49.5236 11.8694 48.9582 12.1436 48.5303C13.2681 46.776 15.2459 45.7205 17.2344 46.0146L17.2334 46.0156C18.1051 46.1444 18.8925 46.5072 19.5615 46.8369C20.2728 47.1875 20.8444 47.4936 21.4453 47.6748L21.8252 47.7705C22.72 47.9523 23.6598 47.8408 24.5146 47.4404C24.7321 47.3388 24.9132 47.2355 25.1855 47.0957C25.2781 47.0482 25.3783 47.0008 25.4834 46.9521L26.0049 27.9834L19.0039 35.7275C18.7851 35.9693 18.4524 36.0791 18.1299 36.0166C17.807 35.9537 17.5407 35.7269 17.4316 35.4209C17.0543 34.3621 16.8657 33.2195 16.9014 32.0342V32.0322C16.9881 29.1783 18.3607 26.6625 20.4551 24.9951L13.2119 25.0713L13.2109 25.0703C13.2085 25.0703 13.2056 25.0713 13.2031 25.0713H13.2021C12.6906 25.0712 12.2753 24.6633 12.2725 24.1592C12.2716 23.9979 12.317 23.8479 12.3906 23.7158L12.3877 23.7139C12.9351 22.7297 13.673 21.8247 14.5928 21.0566L14.9775 20.751C16.6391 19.4992 18.6007 18.8595 20.5664 18.8076L16.1318 15.1816C15.8774 14.9736 15.7536 14.6476 15.8076 14.3262C15.8618 14.0048 16.0856 13.7351 16.3945 13.6191C17.4616 13.2189 18.6211 13 19.8291 13C23.5998 13.0001 26.8662 15.1298 28.4414 18.2324C30.0166 15.1298 33.283 13 37.0537 13ZM43.4648 47.3818C43.3959 47.4359 43.357 47.4799 43.3359 47.5078C43.3491 47.525 43.37 47.5493 43.4023 47.5791C43.5221 47.6894 43.74 47.8259 44.0762 47.957C44.7443 48.2176 45.7235 48.3965 46.8457 48.3965C47.968 48.3965 48.9471 48.2174 49.6152 47.957C49.9515 47.826 50.1704 47.6893 50.29 47.5791C50.3217 47.5499 50.3413 47.5249 50.3545 47.5078C50.347 47.4979 50.3386 47.484 50.3252 47.4697L50.9209 46.9238L51.5176 46.3779C51.7852 46.662 51.9998 47.0438 52 47.5059C51.9998 48.034 51.7221 48.4552 51.4014 48.751C51.0819 49.0454 50.6625 49.2733 50.2139 49.4482C49.3115 49.7999 48.1201 50.001 46.8457 50.001C45.5712 50.0009 44.3798 49.8001 43.4775 49.4482C43.029 49.2733 42.6104 49.0452 42.291 48.751C41.9704 48.4554 41.6926 48.0341 41.6924 47.5059C41.6926 46.8935 42.0635 46.4316 42.4521 46.127L43.4648 47.3818ZM43.4648 43.7158C43.3959 43.7699 43.357 43.8139 43.3359 43.8418C43.3492 43.859 43.37 43.8833 43.4023 43.9131C43.5221 44.0233 43.74 44.1599 44.0762 44.291C44.7443 44.5516 45.7235 44.7304 46.8457 44.7305C47.968 44.7305 48.9471 44.5514 49.6152 44.291C49.9515 44.16 50.1704 44.0233 50.29 43.9131C50.3217 43.8838 50.3413 43.8589 50.3545 43.8418C50.347 43.8319 50.3386 43.818 50.3252 43.8037L50.9209 43.2568L51.5176 42.7119C51.7852 42.996 51.9998 43.3778 52 43.8398C51.9998 44.368 51.7221 44.7892 51.4014 45.085C51.0819 45.3794 50.6625 45.6073 50.2139 45.7822C49.3115 46.1339 48.1201 46.335 46.8457 46.335C45.5712 46.3349 44.3798 46.1341 43.4775 45.7822C43.029 45.6073 42.6104 45.3792 42.291 45.085C41.9704 44.7894 41.6926 44.3681 41.6924 43.8398C41.6926 43.2274 42.0635 42.7656 42.4521 42.4609L43.4648 43.7158ZM35.6855 41.0645C36.9671 41.0645 38.1663 41.2821 39.0752 41.666C39.5281 41.8573 39.9476 42.1062 40.2646 42.4229C40.5848 42.7428 40.8397 43.1756 40.8398 43.6992C40.8395 44.2228 40.5848 44.6557 40.2646 44.9756C39.9475 45.2922 39.5281 45.5421 39.0752 45.7334C38.1664 46.1172 36.9669 46.334 35.6855 46.334C34.4042 46.3339 33.2047 46.1172 32.2959 45.7334C31.8431 45.5421 31.4245 45.2921 31.1074 44.9756C30.7872 44.6557 30.5325 44.2228 30.5322 43.6992C30.5324 43.1755 30.7872 42.7428 31.1074 42.4229C31.4244 42.1063 31.8432 41.8573 32.2959 41.666C33.2047 41.2822 34.4041 41.0645 35.6855 41.0645ZM35.6855 42.668C34.5705 42.668 33.5993 42.8602 32.9375 43.1396C32.6054 43.28 32.3886 43.4279 32.2666 43.5498C32.2081 43.6083 32.1796 43.6517 32.168 43.6758C32.163 43.6862 32.1609 43.6934 32.1602 43.6963V43.7021C32.161 43.7053 32.163 43.7124 32.168 43.7227C32.1798 43.7469 32.2081 43.7912 32.2666 43.8496C32.3888 43.9714 32.6057 44.1186 32.9375 44.2588C33.5993 44.5382 34.5706 44.7304 35.6855 44.7305C36.8007 44.7305 37.7727 44.5383 38.4346 44.2588C38.7665 44.1186 38.9833 43.9714 39.1055 43.8496C39.1639 43.7912 39.1913 43.7469 39.2031 43.7227C39.2082 43.7122 39.211 43.7052 39.2119 43.7021V43.6963C39.2111 43.6934 39.2082 43.6863 39.2031 43.6758C39.1914 43.6517 39.1637 43.608 39.1055 43.5498C38.9834 43.428 38.7667 43.28 38.4346 43.1396C37.7727 42.8601 36.8008 42.668 35.6855 42.668ZM46.8457 37.3984C48.1273 37.3984 49.3265 37.6161 50.2354 38C50.6883 38.1913 51.1077 38.4402 51.4248 38.7568C51.7448 39.0767 51.9997 39.5088 52 40.0322C51.9998 40.556 51.745 40.9896 51.4248 41.3096C51.1077 41.6262 50.6882 41.8751 50.2354 42.0664C49.3265 42.4502 48.1272 42.668 46.8457 42.668C45.5643 42.6679 44.3648 42.4502 43.4561 42.0664C43.0034 41.8752 42.5846 41.626 42.2676 41.3096C41.9473 40.9896 41.6925 40.5561 41.6924 40.0322C41.6927 39.5087 41.9475 39.0767 42.2676 38.7568C42.5845 38.4403 43.0034 38.1913 43.4561 38C44.3648 37.6161 45.5642 37.3985 46.8457 37.3984ZM46.8457 39.002C45.7307 39.002 44.7595 39.1942 44.0977 39.4736C43.7655 39.614 43.5488 39.7619 43.4268 39.8838C43.3683 39.9422 43.3398 39.9857 43.3281 40.0098C43.3231 40.0203 43.3211 40.0274 43.3203 40.0303V40.0361C43.3212 40.0393 43.3232 40.0464 43.3281 40.0566C43.3399 40.0808 43.3684 40.1243 43.4268 40.1826C43.5489 40.3044 43.7657 40.4525 44.0977 40.5928C44.7594 40.8722 45.7308 41.0644 46.8457 41.0645C47.9609 41.0645 48.9329 40.8723 49.5947 40.5928C49.9267 40.4525 50.1435 40.3044 50.2656 40.1826C50.3237 40.1245 50.3515 40.0808 50.3633 40.0566C50.3683 40.0463 50.3712 40.0393 50.3721 40.0361V40.0303C50.3713 40.0274 50.3684 40.0205 50.3633 40.0098C50.3516 39.9857 50.3239 39.9421 50.2656 39.8838C50.1436 39.7619 49.9268 39.614 49.5947 39.4736C48.9329 39.1941 47.961 39.002 46.8457 39.002ZM24.6045 24.9521C21.3285 25.7639 18.8659 28.6229 18.7607 32.0879C18.7495 32.4605 18.7657 32.8274 18.8076 33.1865L26.083 25.1436L26.0889 24.9355L24.6045 24.9521ZM38.0752 33.1865C38.1172 32.8274 38.1343 32.4605 38.123 32.0879C38.0178 28.6222 35.5542 25.7633 32.2773 24.9521L30.6094 24.9346L38.0752 33.1865ZM23.2803 21.0273C20.7894 20.217 17.9394 20.6632 15.7959 22.4541L15.7949 22.4551C15.5082 22.6945 15.2438 22.9499 15.002 23.2188L24.373 23.1201C24.7757 23.0303 25.188 22.969 25.6074 22.9307L23.2803 21.0273ZM41.0879 22.4541C38.9453 20.6637 36.0961 20.2166 33.6055 21.0254L31.2744 22.9307C31.6938 22.969 32.1061 23.0304 32.5088 23.1201L41.8799 23.2188C41.6382 22.9501 41.3744 22.6944 41.0879 22.4551V22.4541ZM19.8291 14.833C19.45 14.833 19.0771 14.8588 18.7129 14.9102L24.208 19.4043C25.4045 19.8431 26.5258 20.5195 27.4912 21.4307C27.4943 21.4019 27.4986 21.3734 27.502 21.3447C26.9661 17.6671 23.7417 14.8331 19.8291 14.833ZM37.0537 14.833C33.1433 14.8331 29.9178 17.6634 29.3789 21.3379C29.3825 21.3688 29.3873 21.3996 29.3906 21.4307C30.3548 20.5204 31.4749 19.8452 32.6699 19.4062L38.1689 14.9102C37.8051 14.8589 37.4326 14.833 37.0537 14.833Z" fill="white"/>
</svg>
