<svg width="64" height="64" viewBox="0 0 64 64" fill="none" xmlns="http://www.w3.org/2000/svg">
<rect width="64" height="64" rx="32" fill="#9E58F9"/>
<path d="M33.4961 46.5127C33.4429 46.5547 33.41 46.5907 33.3896 46.6152C33.4011 46.6289 33.4165 46.6465 33.4385 46.667C33.5482 46.7691 33.7509 46.8977 34.0654 47.0215C34.6897 47.2671 35.6057 47.4365 36.6572 47.4365C37.7094 47.4365 38.6266 47.2671 39.251 47.0215C39.565 46.8979 39.7663 46.7699 39.876 46.668C39.8981 46.6474 39.9133 46.6289 39.9248 46.6152C39.92 46.6095 39.9156 46.6016 39.9092 46.5947L41.0615 45.5293C41.3156 45.8014 41.5194 46.1691 41.5195 46.6143C41.5194 47.1231 41.2542 47.5276 40.9502 47.8105C40.6475 48.0921 40.2519 48.3102 39.8291 48.4766C38.9785 48.8112 37.8562 49 36.6572 49C35.4583 49 34.3368 48.8093 33.4863 48.4746C33.0637 48.3082 32.6678 48.0909 32.3652 47.8096C32.0615 47.5269 31.796 47.1229 31.7959 46.6143C31.796 46.0242 32.1498 45.58 32.5176 45.2891L33.4961 46.5127ZM43.9766 46.5127C43.9234 46.5547 43.8905 46.5907 43.8701 46.6152C43.8816 46.6289 43.897 46.6465 43.9189 46.667C44.0287 46.7691 44.2314 46.8977 44.5459 47.0215C45.1702 47.2671 46.0862 47.4365 47.1377 47.4365C48.1899 47.4365 49.1071 47.2671 49.7314 47.0215C50.0455 46.8979 50.2467 46.7699 50.3564 46.668C50.3786 46.6474 50.3937 46.6289 50.4053 46.6152C50.4005 46.6095 50.3961 46.6016 50.3896 46.5947L51.542 45.5293C51.7961 45.8014 51.9999 46.1691 52 46.6143C51.9999 47.1231 51.7347 47.5276 51.4307 47.8105C51.128 48.0921 50.7324 48.3102 50.3096 48.4766C49.4589 48.8112 48.3366 49 47.1377 49C45.9388 49 44.8173 48.8093 43.9668 48.4746C43.5441 48.3082 43.1482 48.0909 42.8457 47.8096C42.542 47.5269 42.2765 47.1229 42.2764 46.6143C42.2765 46.0242 42.6303 45.58 42.998 45.2891L43.9766 46.5127ZM33.1035 16.0898C34.2577 14.8773 35.7979 14.7169 37.0498 15.4092C38.1883 16.0389 39.001 17.3156 39.1621 18.9111L39.1855 19.2354V19.2393C39.1893 19.3346 39.1924 19.43 39.1924 19.5254C39.1924 20.886 38.7705 22.148 38.0537 23.0859C38.0479 23.0935 38.042 23.1009 38.0361 23.1084H42.6846V30.4648H41.5195V40.1084C41.5195 40.5403 41.1675 40.8906 40.7334 40.8906C40.2993 40.8906 39.9473 40.5402 39.9473 40.1084V30.4648H31.0391V48.999H13.165V30.4648H12V23.1084H16.5498C16.5368 23.0901 16.5234 23.0722 16.5107 23.0537C15.8671 22.1178 15.4941 20.8675 15.4941 19.5254C15.4941 19.4311 15.4957 19.3365 15.499 19.2422V19.2383C15.5673 17.5275 16.3113 16.1162 17.4316 15.4277C17.9977 15.0799 18.6589 14.9222 19.334 15.0371C20.0097 15.1523 20.629 15.5283 21.1367 16.1211L26.791 22.7197L33.1035 16.0898ZM14.7373 47.4355H24.8096V30.4648H14.7373V47.4355ZM26.3818 28.9004L26.3828 47.4355H29.4668V24.6729H26.3818V28.9004ZM43.9766 43.0381C43.9235 43.0801 43.8905 43.1151 43.8701 43.1396C43.8816 43.1533 43.8969 43.1709 43.9189 43.1914C44.0287 43.2935 44.2314 43.4221 44.5459 43.5459C45.1702 43.7915 46.0862 43.9609 47.1377 43.9609C48.1899 43.9609 49.1071 43.7915 49.7314 43.5459C50.0456 43.4223 50.2468 43.2944 50.3564 43.1924C50.3786 43.1718 50.3937 43.1534 50.4053 43.1396C50.4005 43.1339 50.3961 43.1261 50.3896 43.1191L51.542 42.0537C51.7961 42.3258 51.9999 42.6935 52 43.1387C51.9999 43.6476 51.7347 44.052 51.4307 44.335C51.128 44.6165 50.7324 44.8346 50.3096 45.001C49.4589 45.3356 48.3367 45.5254 47.1377 45.5254C45.9388 45.5253 44.8173 45.3347 43.9668 45C43.544 44.8335 43.1483 44.6154 42.8457 44.334C42.5419 44.0513 42.2764 43.6474 42.2764 43.1387C42.2765 42.5486 42.6303 42.1044 42.998 41.8135L43.9766 43.0381ZM36.6572 40.4854C37.863 40.4854 38.9928 40.6923 39.8496 41.0576C40.2765 41.2397 40.6723 41.4765 40.9727 41.7793C41.2765 42.0855 41.5195 42.5015 41.5195 43.0059C41.5193 43.5098 41.2762 43.9244 40.9727 44.2305C40.6723 44.5332 40.2765 44.7701 39.8496 44.9521C38.9928 45.3174 37.863 45.5244 36.6572 45.5244C35.4516 45.5244 34.3226 45.3174 33.4658 44.9521C33.039 44.7702 32.6431 44.5331 32.3428 44.2305C32.0393 43.9244 31.7961 43.5096 31.7959 43.0059C31.7959 42.5016 32.0391 42.0855 32.3428 41.7793C32.6431 41.4767 33.039 41.2396 33.4658 41.0576C34.3226 40.6924 35.4517 40.4854 36.6572 40.4854ZM36.6572 42.0498C35.6123 42.0499 34.7031 42.2316 34.085 42.4951C33.7747 42.6274 33.5739 42.7651 33.4619 42.8779C33.3544 42.9863 33.3679 43.0287 33.3682 43.0059C33.3682 42.9814 33.3533 43.0233 33.4619 43.1328C33.574 43.2456 33.7751 43.3835 34.085 43.5156C34.7031 43.7791 35.6124 43.9609 36.6572 43.9609C37.7024 43.9609 38.6122 43.7792 39.2305 43.5156C39.5405 43.3834 39.7414 43.2456 39.8535 43.1328C39.9215 43.0643 39.9421 43.0218 39.9473 43.0059C39.9426 42.9907 39.9228 42.9478 39.8535 42.8779C39.7415 42.7651 39.5405 42.6273 39.2305 42.4951C38.6122 42.2316 37.7023 42.0498 36.6572 42.0498ZM47.1377 37.0098C48.3434 37.0098 49.4732 37.2168 50.3301 37.582C50.7569 37.7641 51.1528 38.001 51.4531 38.3037C51.7569 38.6099 52 39.0259 52 39.5303C51.9998 40.0342 51.7567 40.4488 51.4531 40.7549C51.1528 41.0576 50.7569 41.2945 50.3301 41.4766C49.4732 41.8419 48.3435 42.0488 47.1377 42.0488C45.9321 42.0488 44.803 41.8418 43.9463 41.4766C43.5195 41.2946 43.1236 41.0576 42.8232 40.7549C42.5198 40.4488 42.2766 40.0341 42.2764 39.5303C42.2764 39.026 42.5196 38.6099 42.8232 38.3037C43.1236 38.0011 43.5195 37.764 43.9463 37.582C44.803 37.2168 45.9321 37.0098 47.1377 37.0098ZM47.1377 38.5742C46.0927 38.5743 45.1836 38.756 44.5654 39.0195C44.2552 39.1518 44.0544 39.2895 43.9424 39.4023C43.8347 39.5109 43.8484 39.5533 43.8486 39.5303C43.8486 39.5058 43.8338 39.5477 43.9424 39.6572C44.0545 39.77 44.2556 39.9079 44.5654 40.04C45.1836 40.3035 46.0929 40.4853 47.1377 40.4854C48.1828 40.4854 49.0927 40.3036 49.7109 40.04C50.021 39.9078 50.2219 39.7701 50.334 39.6572C50.4021 39.5886 50.4226 39.5461 50.4277 39.5303C50.4231 39.5151 50.4032 39.4722 50.334 39.4023C50.222 39.2895 50.0209 39.1517 49.7109 39.0195C49.0927 38.756 48.1828 38.5742 47.1377 38.5742ZM13.5723 28.9004H24.8096V24.6729H13.5723V28.9004ZM31.0391 28.9004H41.1123V24.6729H31.0391V28.9004ZM19.0693 16.5791C18.813 16.5354 18.5355 16.5864 18.2578 16.7568C17.6901 17.1056 17.1234 17.9693 17.0703 19.3008C17.0677 19.3757 17.0664 19.4505 17.0664 19.5254C17.0664 20.5935 17.3657 21.527 17.8086 22.1709C18.2539 22.8182 18.7887 23.1082 19.2822 23.1084H25.0566L19.9404 17.1348C19.6314 16.774 19.3254 16.6229 19.0693 16.5791ZM36.2852 16.7754C35.6616 16.4309 34.9051 16.4705 34.2441 17.165L28.5879 23.1084H35.0693C35.692 23.1084 36.3135 22.7801 36.8037 22.1387C37.2941 21.4967 37.6201 20.5749 37.6201 19.5254C37.6201 19.4503 37.6182 19.3749 37.6152 19.2998C37.5563 18.0065 36.9453 17.1404 36.2852 16.7754Z" fill="white"/>
</svg>
