<svg width="64" height="64" viewBox="0 0 64 64" fill="none" xmlns="http://www.w3.org/2000/svg">
<rect width="64" height="64" rx="32" fill="#FFD600"/>
<path d="M44.4502 43.5996C44.412 43.63 44.3838 43.6555 44.3652 43.6758C44.3744 43.686 44.3828 43.7012 44.3975 43.7148C44.4981 43.8089 44.6855 43.9286 44.9795 44.0449C45.5635 44.276 46.4232 44.4355 47.4102 44.4355C48.3971 44.4355 49.256 44.2758 49.8398 44.0449C50.1337 43.9287 50.3203 43.8089 50.4209 43.7148C50.4351 43.7016 50.4441 43.6867 50.4531 43.6768C50.4525 43.676 50.4518 43.6746 50.4512 43.6738L50.4766 43.6494C50.4884 43.6328 50.4903 43.6309 50.4873 43.6396L51.0078 43.1582L51.5645 42.6406C51.8056 42.9003 51.9998 43.2517 52 43.6787C52 44.1673 51.7465 44.5544 51.458 44.8242C51.171 45.0926 50.7972 45.2993 50.3984 45.457C49.596 45.7744 48.539 45.954 47.4102 45.9541C46.2809 45.9541 45.2225 45.7746 44.4199 45.457C44.0212 45.2992 43.6473 45.0924 43.3604 44.8242C43.0721 44.5546 42.8184 44.1673 42.8184 43.6787C42.8186 43.1125 43.1567 42.688 43.5049 42.4111L44.4502 43.5996ZM34.1885 43.3262C34.1502 43.3566 34.1221 43.382 34.1035 43.4023C34.1127 43.4125 34.1212 43.4278 34.1357 43.4414C34.2364 43.5355 34.4238 43.6552 34.7178 43.7715C35.3018 44.0025 36.1615 44.1621 37.1484 44.1621C38.1354 44.162 38.9943 44.0024 39.5781 43.7715C39.8719 43.6553 40.0586 43.5354 40.1592 43.4414C40.1734 43.4281 40.1824 43.4133 40.1914 43.4033C40.1908 43.4026 40.1901 43.4012 40.1895 43.4004L40.2148 43.376C40.2267 43.3593 40.2286 43.3575 40.2256 43.3662L40.7461 42.8838L41.3027 42.3672C41.5439 42.6269 41.7381 42.9782 41.7383 43.4053C41.7383 43.8938 41.4847 44.2809 41.1963 44.5508C40.9093 44.8191 40.5355 45.0259 40.1367 45.1836C39.3343 45.501 38.2773 45.6806 37.1484 45.6807C36.0191 45.6807 34.9608 45.5012 34.1582 45.1836C33.7595 45.0258 33.3856 44.819 33.0986 44.5508C32.8104 44.2812 32.5566 43.8938 32.5566 43.4053C32.5568 42.8389 32.8949 42.4146 33.2432 42.1377L34.1885 43.3262ZM18.3428 18C18.7621 18.0002 19.1015 18.3405 19.1016 18.7598V23.5947H19.1025V25.6211C19.1023 27.2275 17.8524 28.4565 16.3125 28.7666V42.0732C16.3125 42.4926 15.973 42.8329 15.5537 42.833C15.1343 42.833 14.7939 42.4927 14.7939 42.0732V28.7676C13.252 28.4589 12.0002 27.229 12 25.6211V18.7598C12 18.3404 12.3403 18 12.7598 18C13.1791 18.0002 13.5185 18.3405 13.5186 18.7598V23.5947H14.7939V18.7598C14.794 18.3404 15.1343 18 15.5537 18C15.973 18.0002 16.3125 18.3405 16.3125 18.7598V23.5947H17.583V18.7598C17.583 18.3404 17.9234 18 18.3428 18ZM31.8359 18C38.6808 18 44.2275 23.5612 44.2275 30.417C44.2275 31.7888 43.7479 33.4151 43.1621 34.5869C42.9745 34.962 42.5177 35.1152 42.1426 34.9277C41.7677 34.7402 41.6165 34.2842 41.8037 33.9092C42.3124 32.8918 42.7079 31.4975 42.708 30.417C42.708 24.397 37.8388 19.5195 31.8359 19.5195C25.8333 19.5198 20.9648 24.3972 20.9648 30.417C20.965 36.2906 25.6006 41.077 31.4014 41.3057C31.8202 41.3224 32.1462 41.6749 32.1299 42.0938C32.1134 42.5129 31.7599 42.8388 31.3408 42.8223C24.7256 42.5613 19.4455 37.1064 19.4453 30.417C19.4453 23.5614 24.9913 18.0002 31.8359 18ZM37.5557 37.8672C38.6912 37.8672 39.7559 38.0627 40.5645 38.4092C40.9673 38.5818 41.3411 38.8081 41.626 39.0967C41.9141 39.3886 42.1465 39.786 42.1465 40.2695C42.1463 40.7528 41.914 41.1496 41.626 41.4414C41.3411 41.7299 40.9673 41.9563 40.5645 42.1289C39.7559 42.4754 38.6911 42.6708 37.5557 42.6709C36.4202 42.6708 35.3554 42.4754 34.5469 42.1289C34.1439 41.9562 33.7693 41.7301 33.4844 41.4414C33.2324 41.186 33.024 40.85 32.9756 40.4463L32.9648 40.2695L32.9756 40.0918C33.024 39.6882 33.2325 39.352 33.4844 39.0967C33.7693 38.808 34.1439 38.5819 34.5469 38.4092C35.3554 38.0627 36.4202 37.8672 37.5557 37.8672ZM44.4502 40.3154C44.412 40.3458 44.3838 40.3713 44.3652 40.3916C44.3744 40.4018 44.3828 40.417 44.3975 40.4307C44.4981 40.5247 44.6855 40.6444 44.9795 40.7607C45.5635 40.9918 46.4232 41.1514 47.4102 41.1514C48.3971 41.1513 49.256 40.9917 49.8398 40.7607C50.1337 40.6445 50.3203 40.5247 50.4209 40.4307C50.4351 40.4174 50.4441 40.4026 50.4531 40.3926C50.4525 40.3919 50.4518 40.3904 50.4512 40.3896L50.4766 40.3652C50.4884 40.3485 50.4903 40.3467 50.4873 40.3555L51.0078 39.874L51.5645 39.3564C51.8056 39.6162 51.9998 39.9675 52 40.3945C52 40.8831 51.7465 41.2702 51.458 41.54C51.171 41.8084 50.7972 42.0151 50.3984 42.1729C49.596 42.4902 48.539 42.6698 47.4102 42.6699C46.2809 42.6699 45.2225 42.4904 44.4199 42.1729C44.0212 42.015 43.6473 41.8082 43.3604 41.54C43.0721 41.2704 42.8184 40.8831 42.8184 40.3945C42.8186 39.8283 43.1567 39.4038 43.5049 39.127L44.4502 40.3154ZM37.5557 39.3867C36.5756 39.3868 35.7235 39.558 35.1455 39.8057C34.8552 39.9301 34.6683 40.0599 34.5654 40.1641C34.5127 40.2176 34.4923 40.2522 34.4854 40.2686C34.4919 40.2845 34.5117 40.3195 34.5654 40.374C34.6683 40.4782 34.8552 40.608 35.1455 40.7324C35.7235 40.9801 36.5756 41.1513 37.5557 41.1514C38.5357 41.1513 39.3878 40.9801 39.9658 40.7324C40.2561 40.608 40.4431 40.4782 40.5459 40.374C40.5992 40.3199 40.6183 40.2847 40.625 40.2686C40.6179 40.2521 40.5982 40.2172 40.5459 40.1641C40.4431 40.0599 40.2561 39.9301 39.9658 39.8057C39.3878 39.558 38.5358 39.3868 37.5557 39.3867ZM31.835 20.7969C37.138 20.7969 41.4344 25.1055 41.4346 30.416C41.4345 32.4898 40.7785 34.4137 39.6631 35.9854C39.4202 36.3267 38.9463 36.4065 38.6045 36.1641C38.2628 35.9213 38.1825 35.4474 38.4248 35.1055C39.3636 33.7825 39.9159 32.1647 39.916 30.416C39.9158 25.9413 36.296 22.3164 31.835 22.3164C27.3742 22.3167 23.7551 25.9415 23.7549 30.416C23.7551 34.8906 27.3742 38.5153 31.835 38.5156C32.2543 38.5156 32.5946 38.856 32.5947 39.2754C32.5945 39.6946 32.2543 40.0342 31.835 40.0342C26.5322 40.0339 22.2365 35.7263 22.2363 30.416C22.2365 25.1057 26.5322 20.7972 31.835 20.7969ZM47.4102 34.583C48.5455 34.5831 49.6095 34.7785 50.418 35.125C50.8209 35.2977 51.1956 35.5238 51.4805 35.8125C51.7685 36.1044 52 36.502 52 36.9854C51.9998 37.4685 51.7684 37.8654 51.4805 38.1572C51.1956 38.4459 50.8209 38.672 50.418 38.8447C49.6095 39.1911 48.5454 39.3857 47.4102 39.3857C46.2745 39.3857 45.209 39.1913 44.4004 38.8447C43.9976 38.6721 43.6237 38.4458 43.3389 38.1572C43.0868 37.9018 42.8775 37.5659 42.8291 37.1621L42.8184 36.9854L42.8291 36.8076C42.8775 36.4039 43.0868 36.0679 43.3389 35.8125C43.6237 35.5239 43.9976 35.2977 44.4004 35.125C45.209 34.7784 46.2745 34.583 47.4102 34.583ZM47.4102 36.1025C46.4298 36.1025 45.5771 36.2737 44.999 36.5215C44.7087 36.6459 44.5218 36.7747 44.4189 36.8789C44.366 36.9326 44.3458 36.968 44.3389 36.9844C44.3454 37.0003 44.3653 37.0353 44.4189 37.0898C44.5218 37.194 44.7087 37.3238 44.999 37.4482C45.5771 37.696 46.4298 37.8672 47.4102 37.8672C48.39 37.8671 49.2414 37.6958 49.8193 37.4482C50.1097 37.3238 50.2966 37.194 50.3994 37.0898C50.4527 37.0358 50.4717 37.0006 50.4785 36.9844C50.4714 36.9678 50.452 36.9322 50.3994 36.8789C50.2965 36.7747 50.1095 36.6459 49.8193 36.5215C49.2414 36.2739 48.3901 36.1026 47.4102 36.1025ZM48.8799 33.2148C48.8796 33.634 48.5393 33.9736 48.1201 33.9736C47.7011 33.9734 47.3616 33.6339 47.3613 33.2148V32.3154H44.5693V21.0928C44.5694 19.2629 46.2923 18.0002 48.1201 18H48.8799V33.2148ZM47.3613 19.6318C46.5598 19.882 46.0879 20.5109 46.0879 21.0928V30.7969H47.3613V19.6318ZM13.5186 25.6211C13.5188 26.4743 14.3387 27.325 15.5508 27.3252C16.763 27.3251 17.5827 26.4744 17.583 25.6211V25.1143H13.5186V25.6211Z" fill="white"/>
</svg>
