<svg width="320" height="158" viewBox="0 0 320 158" fill="none" xmlns="http://www.w3.org/2000/svg">
<path opacity="0.6" d="M299.832 157.032C302.426 152.467 306.489 141.62 308.809 130.391C315.846 95.9335 301.428 68.1309 273.403 51.6566C259.584 43.5184 246.83 42.3968 235.774 43.4138C223.206 44.5696 212.832 48.4944 205.583 48.0222C195.293 47.3503 189.421 33.7789 174.355 21.249C165.531 13.9143 153.552 6.95718 135.685 3.2095C113.87 -1.36919 84.8712 -1.76845 64.3087 6.78994C56.2168 10.1557 49.5072 14.8907 45.1453 21.2491C33.9249 37.5949 41.8351 59.0994 51.9516 76.1991C66.2897 100.433 47.5271 104.656 30.5727 114.267C17.7016 121.566 5.87194 132.396 10.3736 157.033H299.832V157.032Z" fill="#D5E6FE"/>
<path d="M319.638 157.457H0.362535C0.163141 157.457 0 157.294 0 157.095V156.971C0 156.772 0.163141 156.608 0.362535 156.608H319.637C319.837 156.608 320 156.772 320 156.971V157.095C320 157.294 319.837 157.457 319.638 157.457Z" fill="#8692C2"/>
<path opacity="0.9" d="M53 55.4479C53 55.4479 55.85 50.479 62.6653 51.0311C62.6653 51.0311 72.5597 42.7494 83.1109 49.9269C83.1109 49.9269 94.3267 48.1485 102.633 51.4668C108.171 53.6792 110 56 110 56L53 55.4479Z" fill="#F8FCFF"/>
<path d="M297.105 131.931V131.545H296.876L285.771 112.799L277.453 126.841V120.317H279.686L277.453 116.547V116.092H277.183L264.096 94.0003L251.009 116.092H250.739V116.547L248.505 120.317H250.739V127.067H250.227V128.342H250.739V129.621L238.629 109.18L227.245 128.396L225.901 126.127V125.741H225.672L214.567 106.995L204.327 124.281V120.317H206.56L204.327 116.547V116.092H204.057L190.97 94.0002L177.883 116.092H177.613V116.547L175.38 120.317H177.613V127.067H177.102V128.342H177.613V129.621L165.503 109.18L156.254 124.794V120.317H158.412L156.254 116.547V116.091H155.993L143.346 94.0001L130.698 116.091H130.437V116.547L128.279 120.317H130.437V127.067H129.943V128.341H130.437V129.621L118.735 109.18L107.733 128.396L106.434 126.127V125.74H106.213L95.4813 106.995L85.5855 124.28V120.317H87.7436L85.5855 116.547V116.091H85.3247L72.6773 94L60.0299 116.091H59.7691V116.547L57.6109 120.317H59.7691V127.067H59.275V128.341H59.7691V129.621L48.0663 109.18L35.4189 131.272H35.1581V131.727L33 135.497H35.1581V157H152.147H175.246H297.105V135.13H299L297.105 131.931ZM47.8065 152.982H38.483V139.141H47.8065V152.982ZM57.6497 152.982H48.4349V139.141H57.6497V152.982ZM66.3447 134.677H63.5168V128.342H66.3447V134.677ZM66.3447 127.067H63.5168V120.836H66.3447V127.067ZM70.1152 134.677H66.9731V128.342H70.1152V134.677ZM70.1152 127.067H66.9731V120.836H70.1152V127.067ZM77.6562 134.677H74.8283V128.342H77.6562V134.677ZM77.6562 127.067H74.8283V120.836H77.6562V127.067ZM81.4267 134.677H78.2846V128.342H81.4267V134.677ZM81.4267 127.067H78.2846V120.836H81.4267V127.067ZM93.2349 143.784H87.636V141.132H93.2349V143.784ZM93.2349 139.616H87.636V132.039H93.2349V139.616ZM95.02 126.613H90.7975L95.02 116.22V126.613ZM95.5532 115.37C95.4769 115.37 95.4046 115.394 95.3388 115.436L95.4814 115.085L95.6001 115.377C95.5844 115.375 95.5692 115.37 95.5532 115.37ZM96.0864 116.574L100.165 126.613H96.0864V116.574ZM103.285 143.784H97.6861V141.132H103.285V143.784ZM103.285 139.616H97.6861V132.039H103.285V139.616ZM106.434 130.665V129.326H107.201L106.434 130.665ZM118.475 152.982H109.151V139.141H118.475V152.982ZM128.318 152.982H119.103V139.141H128.318V152.982ZM137.013 134.677H134.185V128.342H137.013V134.677ZM137.013 127.067H134.185V120.836H137.013V127.067ZM140.784 134.677H137.642V128.342H140.784V134.677ZM140.784 127.067H137.642V120.836H140.784V127.067ZM148.953 120.836H152.095V127.067H148.953V120.836ZM148.325 134.677H145.497V128.342H148.325V134.677ZM148.325 127.067H145.497V120.836H148.325V127.067ZM148.953 128.342H152.095V131.814L150.399 134.677H148.953V128.342ZM184.417 134.677H181.491V128.342H184.417V134.677ZM184.417 127.067H181.491V120.836H184.417V127.067ZM188.319 134.677H185.068V128.342H188.319V134.677ZM188.319 127.067H185.068V120.836H188.319V127.067ZM196.122 134.677H193.196V128.342H196.122V134.677ZM196.122 127.067H193.196V120.836H196.122V127.067ZM200.024 134.677H196.773V128.342H200.024V134.677ZM200.024 127.067H196.773V120.836H200.024V127.067ZM212.243 143.784H206.449V141.132H212.243V143.784ZM212.243 139.616H206.449V132.039H212.243V139.616ZM214.09 126.613H209.72L214.09 116.22V126.613ZM214.642 115.37C214.563 115.37 214.488 115.394 214.42 115.436L214.567 115.085L214.69 115.377C214.674 115.375 214.658 115.37 214.642 115.37ZM215.193 116.574L219.414 126.613H215.193V116.574ZM222.642 143.784H216.849V141.132H222.642V143.784ZM222.642 139.616H216.849V132.039H222.642V139.616ZM225.901 130.665V129.326H226.695L225.901 130.665ZM238.36 152.982H228.712V139.141H238.36V152.982ZM248.546 152.982H239.01V139.141H248.546V152.982ZM257.543 134.677H254.617V128.342H257.543V134.677ZM257.543 127.067H254.617V120.836H257.543V127.067ZM261.445 134.677H258.193V128.342H261.445V134.677ZM261.445 127.067H258.193V120.836H261.445V127.067ZM269.248 134.677H266.322V128.342H269.248V134.677ZM269.248 127.067H266.322V120.836H269.248V127.067ZM273.149 134.106L272.811 134.677H269.898V128.342H273.149L273.149 134.106ZM273.149 127.067H269.898V120.836H273.149V127.067ZM283.447 149.588H277.653V146.936H283.447V149.588ZM283.447 145.42H277.653V137.844H283.447V145.42ZM285.294 132.417H280.924L285.294 122.024V132.417ZM285.846 121.174C285.767 121.174 285.692 121.198 285.624 121.24L285.771 120.889L285.894 121.181C285.878 121.179 285.862 121.174 285.846 121.174ZM286.397 122.378L290.618 132.417H286.397V122.378ZM293.846 149.588H288.053V146.936H293.846V149.588ZM293.846 145.42H288.053V137.844H293.846V145.42Z" fill="#B7D1FF"/>
<mask id="mask0_7708_21099" style="mask-type:alpha" maskUnits="userSpaceOnUse" x="101" y="4" width="162" height="153">
<rect x="101" y="4" width="162" height="153" fill="#D9D9D9"/>
</mask>
<g mask="url(#mask0_7708_21099)">
<path opacity="0.18" d="M133.126 74.2476L133.168 74.2363L130 62.5196L131.299 62.1661C131.302 62.18 131.302 62.1936 131.305 62.2075C131.62 63.369 132.812 64.0554 133.97 63.7402C135.128 63.4252 135.812 62.228 135.498 61.0662C135.494 61.0523 135.487 61.0408 135.483 61.0272L136.924 60.6347C136.927 60.6486 136.927 60.6622 136.931 60.6761C137.245 61.8378 138.438 62.524 139.596 62.2087C140.753 61.8935 141.437 60.6965 141.123 59.5348C141.119 59.5209 141.112 59.5093 141.108 59.4954L142.549 59.103C142.553 59.1169 142.552 59.1305 142.556 59.1444C142.87 60.3058 144.063 60.992 145.221 60.677C146.378 60.362 147.062 59.1648 146.748 58.003C146.744 57.9891 146.737 57.9776 146.733 57.964L148.174 57.5715C148.178 57.5854 148.178 57.599 148.181 57.6129C148.495 58.7744 149.688 59.4608 150.846 59.1456C152.004 58.8303 152.687 57.6333 152.373 56.4716C152.37 56.4577 152.362 56.4462 152.358 56.4326L153.8 56.0401C153.803 56.054 153.803 56.0676 153.806 56.0815C154.121 57.2429 155.313 57.9291 156.471 57.6141C157.629 57.2991 158.312 56.1019 157.998 54.9402C157.994 54.9263 157.987 54.9147 157.983 54.9008L159.424 54.5084C159.428 54.522 159.428 54.5359 159.431 54.5498C159.745 55.7112 160.938 56.3977 162.096 56.0824C163.253 55.7674 163.937 54.5702 163.623 53.4084C163.62 53.3945 163.613 53.3827 163.609 53.3691L165.05 52.9766C165.053 52.9905 165.053 53.0041 165.057 53.018C165.371 54.1798 166.564 54.8659 167.721 54.5507C168.879 54.2357 169.563 53.0384 169.249 51.8767C169.245 51.8628 169.238 51.8513 169.234 51.8377L170.675 51.4452C170.679 51.4591 170.678 51.4727 170.682 51.4866C170.996 52.648 172.189 53.3345 173.347 53.0192C174.504 52.7042 175.188 51.507 174.874 50.3453C174.87 50.3314 174.863 50.3195 174.859 50.3059L176.293 49.9155L192.313 109.331L195.481 121.047L194.182 121.401C194.179 121.387 194.179 121.373 194.175 121.36C193.861 120.198 192.668 119.512 191.511 119.827C190.353 120.142 189.669 121.339 189.983 122.501C189.987 122.515 189.995 122.526 189.998 122.54L188.557 122.932C188.554 122.918 188.554 122.905 188.55 122.891C188.236 121.729 187.043 121.043 185.885 121.358C184.727 121.674 184.044 122.871 184.358 124.032C184.362 124.046 184.369 124.058 184.373 124.071L182.932 124.464C182.928 124.45 182.928 124.436 182.925 124.422C182.611 123.261 181.418 122.575 180.26 122.89C179.102 123.205 178.419 124.402 178.733 125.564C178.737 125.578 178.744 125.589 178.748 125.603L177.306 125.995C177.303 125.982 177.303 125.968 177.3 125.954C176.985 124.792 175.793 124.106 174.635 124.421C173.477 124.736 172.794 125.933 173.108 127.095C173.111 127.109 173.118 127.121 173.123 127.134L171.681 127.527C171.678 127.513 171.678 127.499 171.675 127.485C171.36 126.324 170.167 125.637 169.01 125.953C167.852 126.268 167.168 127.465 167.482 128.627C167.486 128.641 167.493 128.652 167.497 128.666L166.056 129.058C166.053 129.044 166.053 129.031 166.049 129.017C165.735 127.855 164.542 127.169 163.384 127.484C162.227 127.799 161.543 128.996 161.857 130.158C161.861 130.172 161.868 130.183 161.872 130.197L160.431 130.59C160.427 130.576 160.428 130.562 160.424 130.548C160.11 129.387 158.917 128.701 157.759 129.016C156.602 129.331 155.918 130.528 156.232 131.69C156.236 131.704 156.243 131.715 156.247 131.729L154.805 132.122C154.802 132.108 154.802 132.094 154.798 132.08C154.485 130.918 153.291 130.232 152.134 130.548C150.976 130.863 150.292 132.06 150.607 133.222C150.61 133.235 150.618 133.247 150.621 133.261L149.187 133.651L133.126 74.2476Z" fill="#D6D6D6"/>
<path d="M190.279 87.2356L210.177 96.1796C212.103 97.0453 213.708 98.4984 214.763 100.332L227.084 130.311L207.813 144.628L196.633 104.913L194.076 100.741L190.279 87.2356Z" fill="#E2A27D"/>
<path d="M227.084 130.311L235.902 140.217L215.776 154.933L207.812 144.628L227.084 130.311Z" fill="#E2A27D"/>
<path d="M193.767 99.0463L191.998 91.9868L201.939 99.0022C204.207 100.4 205.888 102.58 206.669 105.134L210.588 113.88L193.767 99.0463Z" fill="#D99676"/>
<path d="M183.963 110.34L185.809 115.714C186.693 118.285 188.731 120.289 191.311 121.123L196.573 122.823L188.615 107.382L183.963 110.34Z" fill="#D99676"/>
<path d="M186.471 116.242L188.317 121.615C189.201 124.187 191.239 126.191 193.819 127.024L199.081 128.724L191.123 113.284L186.471 116.242Z" fill="#D99676"/>
<path d="M191.625 123.352L193.471 128.725C194.355 131.297 196.393 133.301 198.973 134.134L204.235 135.834L196.277 120.394L191.625 123.352Z" fill="#D99676"/>
<path d="M118.794 47.4113L118.847 47.3971L114.783 32.5138L116.449 32.0649C116.453 32.0825 116.453 32.0998 116.458 32.1175C116.861 33.5928 118.391 34.4648 119.876 34.0643C121.361 33.6638 122.239 32.1434 121.836 30.6677C121.831 30.65 121.822 30.6354 121.816 30.6181L123.666 30.1196C123.67 30.1372 123.669 30.1545 123.674 30.1722C124.077 31.6475 125.607 32.5191 127.093 32.119C128.578 31.7185 129.455 30.1981 129.052 28.7224C129.047 28.7047 129.038 28.6901 129.033 28.6728L130.882 28.1742C130.886 28.1919 130.886 28.2092 130.89 28.2268C131.293 29.7022 132.824 30.5738 134.309 30.1737C135.794 29.7735 136.671 28.2528 136.268 26.7771C136.263 26.7594 136.254 26.7448 136.249 26.7275L138.098 26.2289C138.102 26.2466 138.102 26.2639 138.106 26.2815C138.509 27.7569 140.04 28.6288 141.525 28.2283C143.01 27.8279 143.887 26.3075 143.484 24.8318C143.48 24.8141 143.47 24.7994 143.465 24.7822L145.314 24.2836C145.318 24.3013 145.318 24.3186 145.322 24.3362C145.725 25.8115 147.256 26.6835 148.741 26.283C150.226 25.8826 151.103 24.3621 150.7 22.8864C150.695 22.8688 150.686 22.8541 150.681 22.8369L152.53 22.3383C152.534 22.356 152.534 22.3733 152.538 22.3909C152.942 23.8662 154.472 24.7382 155.957 24.3377C157.442 23.9376 158.319 22.4168 157.916 20.9411C157.911 20.9235 157.902 20.9084 157.897 20.8915L159.746 20.393C159.75 20.4103 159.75 20.4279 159.755 20.4456C160.157 21.9209 161.688 22.7929 163.173 22.3924C164.658 21.9923 165.535 20.4715 165.132 18.9958C165.127 18.9782 165.118 18.9635 165.113 18.9462L166.961 18.4477C166.966 18.4654 166.965 18.4826 166.97 18.5003C167.373 19.9756 168.903 20.8476 170.389 20.4471C171.873 20.047 172.751 18.5262 172.348 17.0505C172.343 17.0329 172.334 17.0178 172.329 17.0005L174.169 16.5046L194.719 91.9769L198.783 106.86L197.117 107.309C197.112 107.292 197.113 107.275 197.108 107.257C196.705 105.782 195.175 104.91 193.69 105.31C192.205 105.711 191.328 107.231 191.73 108.707C191.735 108.724 191.744 108.739 191.75 108.756L189.9 109.255C189.896 109.237 189.897 109.22 189.892 109.202C189.489 107.727 187.959 106.855 186.473 107.255C184.988 107.656 184.111 109.176 184.514 110.652C184.519 110.67 184.528 110.684 184.533 110.702L182.684 111.2C182.68 111.182 182.68 111.165 182.676 111.147C182.273 109.672 180.743 108.8 179.257 109.201C177.773 109.601 176.895 111.122 177.298 112.597C177.303 112.615 177.312 112.63 177.317 112.647L175.468 113.145C175.464 113.128 175.464 113.11 175.46 113.093C175.057 111.617 173.526 110.745 172.041 111.146C170.556 111.546 169.679 113.067 170.082 114.543C170.087 114.56 170.096 114.575 170.101 114.592L168.252 115.091C168.248 115.073 168.248 115.056 168.244 115.038C167.841 113.563 166.31 112.691 164.825 113.091C163.34 113.492 162.463 115.012 162.866 116.488C162.871 116.506 162.88 116.521 162.885 116.537L161.036 117.036C161.032 117.018 161.032 117.001 161.027 116.983C160.624 115.508 159.094 114.636 157.609 115.037C156.124 115.437 155.247 116.957 155.649 118.433C155.654 118.451 155.663 118.465 155.669 118.483L153.82 118.981C153.815 118.964 153.816 118.946 153.811 118.929C153.408 117.453 151.878 116.581 150.393 116.982C148.908 117.382 148.031 118.903 148.433 120.379C148.438 120.396 148.447 120.411 148.452 120.428L146.603 120.927C146.599 120.909 146.6 120.892 146.595 120.874C146.192 119.399 144.661 118.527 143.176 118.928C141.691 119.328 140.814 120.848 141.217 122.324C141.222 122.342 141.231 122.356 141.236 122.374L139.396 122.87L118.794 47.4113Z" fill="#FDFFFB"/>
<path d="M207.813 144.628L198.306 132.703C196.051 129.874 194.254 126.706 192.984 123.314L188.83 112.227L179.973 98.3926C178.403 95.941 179.119 92.6764 181.57 91.1131L181.755 90.9948C184.073 89.5157 187.136 90.0841 188.774 92.2973L195.438 101.304L207.314 111.063L207.813 144.628Z" fill="#E2A27D"/>
<path d="M183.662 99.0946L188.275 96.1222C188.64 95.8876 188.745 95.4017 188.511 95.0365L187.677 93.7322C186.719 92.2356 184.734 91.8015 183.242 92.7624L182.712 93.1043C181.221 94.0652 180.788 96.0571 181.745 97.5537L182.58 98.8579C182.814 99.2232 183.298 99.3291 183.662 99.0946Z" fill="#E9C3AE"/>
<path d="M232.633 133.111L208.398 149.615L212.677 155.247L236.998 138.351L232.633 133.111Z" fill="#FDFFFB"/>
<path d="M240.29 135.223L209.568 157.905L227.997 181.624L258.559 157.665L240.29 135.223Z" fill="#54749B"/>
<path d="M159.918 36.7703L158.95 37.0328L157.934 33.2598L156.694 33.5959L156.477 32.7874L159.924 31.8527L160.142 32.6612L158.902 32.9973L159.918 36.7703Z" fill="#707070"/>
<path d="M154.365 33.3598C154.954 33.2001 155.418 33.211 155.757 33.3925C156.096 33.5719 156.325 33.8841 156.445 34.3291C156.499 34.5296 156.521 34.73 156.51 34.9302C156.498 35.1283 156.443 35.3171 156.344 35.4964C156.247 35.6751 156.096 35.837 155.892 35.9821C155.687 36.1251 155.418 36.2418 155.084 36.3321L154.669 36.4446L155.108 38.0742L154.14 38.3366L152.906 33.7551L154.365 33.3598ZM154.529 34.1693L154.089 34.2887L154.455 35.6487L154.773 35.5623C154.954 35.5132 155.105 35.4466 155.226 35.3624C155.346 35.2783 155.429 35.1751 155.474 35.053C155.519 34.9309 155.52 34.7894 155.477 34.6285C155.416 34.4029 155.309 34.2527 155.155 34.1779C155 34.1011 154.791 34.0982 154.529 34.1693Z" fill="#707070"/>
<path d="M152.022 38.9103L150.789 34.3289L151.757 34.0664L152.991 38.6479L152.022 38.9103Z" fill="#707070"/>
<path d="M151.068 39.1695L148.439 39.8823L147.205 35.3008L149.835 34.588L150.049 35.3839L148.387 35.8343L148.658 36.8402L150.204 36.4212L150.418 37.2171L148.873 37.6362L149.191 38.8176L150.852 38.3672L151.068 39.1695Z" fill="#707070"/>
<path d="M145.264 36.6233C145.079 36.6735 144.924 36.7546 144.8 36.8667C144.678 36.9761 144.586 37.112 144.525 37.2743C144.466 37.436 144.437 37.6198 144.439 37.8255C144.44 38.0313 144.474 38.2543 144.538 38.4945C144.625 38.8184 144.74 39.0844 144.881 39.2928C145.023 39.4985 145.195 39.6391 145.396 39.7145C145.597 39.7879 145.83 39.7885 146.097 39.7162C146.282 39.666 146.462 39.5949 146.636 39.5029C146.812 39.4103 146.999 39.2957 147.197 39.1592L147.416 39.9739C147.237 40.1122 147.054 40.2257 146.868 40.3143C146.682 40.4049 146.468 40.4833 146.224 40.5493C145.754 40.6768 145.34 40.6847 144.984 40.5728C144.629 40.4582 144.332 40.2452 144.091 39.9338C143.851 39.6202 143.667 39.2284 143.54 38.7583C143.447 38.4115 143.408 38.0813 143.424 37.7676C143.441 37.4539 143.511 37.167 143.635 36.9069C143.759 36.6468 143.939 36.4232 144.175 36.236C144.41 36.0489 144.701 35.9085 145.047 35.8148C145.274 35.7532 145.508 35.721 145.751 35.718C145.995 35.7123 146.235 35.7314 146.47 35.7752L146.37 36.6496C146.178 36.6144 145.987 36.5899 145.798 36.5762C145.609 36.5624 145.431 36.5781 145.264 36.6233Z" fill="#707070"/>
<path d="M143.404 41.2469L140.774 41.9597L139.541 37.3782L142.171 36.6654L142.385 37.4613L140.723 37.9117L140.994 38.9176L142.54 38.4986L142.754 39.2945L141.209 39.7136L141.527 40.895L143.188 40.4446L143.404 41.2469Z" fill="#707070"/>
<path d="M136.649 38.1621C137.063 38.0498 137.418 38.0073 137.714 38.0348C138.011 38.0617 138.253 38.1587 138.439 38.3258C138.624 38.4929 138.759 38.731 138.842 39.0402C138.898 39.2492 138.908 39.4427 138.871 39.6208C138.834 39.7989 138.766 39.9598 138.666 40.1034C138.566 40.2471 138.45 40.3737 138.319 40.4833L140.199 42.1154L139.125 42.4066L137.562 40.9441L137.047 41.0837L137.52 42.8418L136.552 43.1042L135.318 38.5227L136.649 38.1621ZM136.794 38.9767L136.501 39.0562L136.834 40.2941L137.146 40.2094C137.467 40.1225 137.682 40.0071 137.79 39.8633C137.901 39.7169 137.928 39.5392 137.871 39.3303C137.813 39.113 137.696 38.9787 137.522 38.9274C137.349 38.8756 137.107 38.892 136.794 38.9767Z" fill="#707070"/>
<path d="M170.996 35.6975L127.65 47.4475L128.125 49.2121L171.471 37.4621L170.996 35.6975Z" fill="#707070"/>
<path d="M180.752 71.9397L137.406 83.6897L137.881 85.4543L181.227 73.7043L180.752 71.9397Z" fill="#707070"/>
<path d="M169.972 80.1362L149.74 85.6206L150.215 87.3852L170.447 81.9008L169.972 80.1362Z" fill="#707070"/>
<path d="M154.644 50.942L130.361 57.5244L130.836 59.289L155.119 52.7066L154.644 50.942Z" fill="#DADADA"/>
<path d="M140.105 59.7773L131.592 62.085L132.067 63.8495L140.58 61.5419L140.105 59.7773Z" fill="#DADADA"/>
<path d="M150.013 61.9845L132.818 66.6458L133.293 68.4103L150.488 63.7491L150.013 61.9845Z" fill="#DADADA"/>
<path d="M158.327 64.6242L134.045 71.2065L134.52 72.9711L158.802 66.3887L158.327 64.6242Z" fill="#DADADA"/>
<path d="M145.541 72.9847L135.275 75.7673L135.75 77.5319L146.016 74.7492L145.541 72.9847Z" fill="#DADADA"/>
<path d="M173.431 45.8502L163.33 48.5884L163.805 50.3529L173.906 47.6148L173.431 45.8502Z" fill="#DADADA"/>
<path d="M174.656 50.411L164.555 53.1492L165.03 54.9137L175.131 52.1756L174.656 50.411Z" fill="#DADADA"/>
<path d="M175.884 54.9716L165.783 57.7097L166.258 59.4743L176.359 56.7361L175.884 54.9716Z" fill="#DADADA"/>
<path d="M177.115 59.5326L167.014 62.2708L167.489 64.0353L177.59 61.2972L177.115 59.5326Z" fill="#DADADA"/>
<path d="M178.341 64.0929L168.24 66.8311L168.715 68.5956L178.816 65.8575L178.341 64.0929Z" fill="#DADADA"/>
<path d="M141.994 98.5227L141.254 98.7234L144.367 110.286L145.107 110.085L141.994 98.5227Z" fill="#707070"/>
<path d="M143.603 98.0867L142.863 98.2874L145.976 109.85L146.716 109.649L143.603 98.0867Z" fill="#707070"/>
<path d="M147.278 97.0906L146.908 97.1909L150.021 108.753L150.391 108.653L147.278 97.0906Z" fill="#707070"/>
<path d="M148.505 96.7579L148.135 96.8582L151.248 108.421L151.617 108.32L148.505 96.7579Z" fill="#707070"/>
<path d="M146.329 97.3464L144.523 97.8357L147.636 109.398L149.441 108.909L146.329 97.3464Z" fill="#707070"/>
<path d="M151.168 96.0356L149.363 96.5249L152.476 108.087L154.281 107.598L151.168 96.0356Z" fill="#707070"/>
<path d="M152.271 95.7364L151.531 95.937L154.644 107.499L155.384 107.299L152.271 95.7364Z" fill="#707070"/>
<path d="M153.88 95.3002L153.141 95.5007L156.253 107.063L156.993 106.863L153.88 95.3002Z" fill="#707070"/>
<path d="M162.916 92.8515L162.176 93.052L165.289 104.614L166.028 104.414L162.916 92.8515Z" fill="#707070"/>
<path d="M164.521 92.4171L163.781 92.6177L166.894 104.18L167.634 103.98L164.521 92.4171Z" fill="#707070"/>
<path d="M157.557 94.3043L157.188 94.4045L160.3 105.967L160.67 105.867L157.557 94.3043Z" fill="#707070"/>
<path d="M158.784 93.9717L158.414 94.072L161.527 105.634L161.897 105.534L158.784 93.9717Z" fill="#707070"/>
<path d="M156.598 94.5685L154.793 95.0576L157.905 106.62L159.71 106.131L156.598 94.5685Z" fill="#707070"/>
<path d="M161.446 93.2494L159.641 93.7388L162.753 105.301L164.559 104.812L161.446 93.2494Z" fill="#707070"/>
</g>
<path opacity="0.9" d="M222 86.7377C222 86.7377 224.374 83.9511 230.05 84.2607C230.05 84.2607 238.291 79.6162 247.08 83.6414C247.08 83.6414 256.421 82.644 263.34 84.505C267.952 85.7457 269.476 87.0473 269.476 87.0473L222 86.7377Z" fill="#F8FCFF"/>
<path opacity="0.9" d="M65 17.3029C65 17.3029 66.4619 14.1839 69.9578 14.5304C69.9578 14.5304 75.0332 9.33183 80.4455 13.8373C80.4455 13.8373 86.1986 12.721 90.4593 14.8039C93.3 16.1927 94.2383 17.6495 94.2383 17.6495L65 17.3029Z" fill="#F8FCFF"/>
</svg>
