<svg width="320" height="158" viewBox="0 0 320 158" fill="none" xmlns="http://www.w3.org/2000/svg">
<path opacity="0.6" d="M299.832 157.032C302.426 152.467 306.489 141.62 308.809 130.391C315.846 95.9335 301.428 68.1309 273.403 51.6566C259.584 43.5184 246.83 42.3968 235.774 43.4138C223.206 44.5696 212.832 48.4944 205.583 48.0222C195.293 47.3503 189.421 33.7789 174.355 21.249C165.531 13.9143 153.552 6.95718 135.685 3.2095C113.87 -1.36919 84.8712 -1.76845 64.3087 6.78994C56.2168 10.1557 49.5072 14.8907 45.1453 21.2491C33.9249 37.5949 41.8351 59.0994 51.9516 76.1991C66.2897 100.433 47.5271 104.656 30.5727 114.267C17.7016 121.566 5.87194 132.396 10.3736 157.033H299.832V157.032Z" fill="#D5E6FE"/>
<path d="M319.638 157.457H0.362535C0.163141 157.457 0 157.294 0 157.095V156.971C0 156.772 0.163141 156.608 0.362535 156.608H319.637C319.837 156.608 320 156.772 320 156.971V157.095C320 157.294 319.837 157.457 319.638 157.457Z" fill="#8692C2"/>
<path opacity="0.9" d="M53 55.4479C53 55.4479 55.85 50.479 62.6653 51.0311C62.6653 51.0311 72.5597 42.7494 83.1109 49.9269C83.1109 49.9269 94.3267 48.1485 102.633 51.4668C108.171 53.6792 110 56 110 56L53 55.4479Z" fill="#F8FCFF"/>
<path d="M297.105 131.931V131.545H296.876L285.771 112.799L277.453 126.841V120.317H279.686L277.453 116.547V116.092H277.183L264.096 94.0003L251.009 116.092H250.739V116.547L248.505 120.317H250.739V127.067H250.227V128.342H250.739V129.621L238.629 109.18L227.245 128.396L225.901 126.127V125.741H225.672L214.567 106.995L204.327 124.281V120.317H206.56L204.327 116.547V116.092H204.057L190.97 94.0002L177.883 116.092H177.613V116.547L175.38 120.317H177.613V127.067H177.102V128.342H177.613V129.621L165.503 109.18L156.254 124.794V120.317H158.412L156.254 116.547V116.091H155.993L143.346 94.0001L130.698 116.091H130.437V116.547L128.279 120.317H130.437V127.067H129.943V128.341H130.437V129.621L118.735 109.18L107.733 128.396L106.434 126.127V125.74H106.213L95.4813 106.995L85.5855 124.28V120.317H87.7436L85.5855 116.547V116.091H85.3247L72.6773 94L60.0299 116.091H59.7691V116.547L57.6109 120.317H59.7691V127.067H59.275V128.341H59.7691V129.621L48.0663 109.18L35.4189 131.272H35.1581V131.727L33 135.497H35.1581V157H152.147H175.246H297.105V135.13H299L297.105 131.931ZM47.8065 152.982H38.483V139.141H47.8065V152.982ZM57.6497 152.982H48.4349V139.141H57.6497V152.982ZM66.3447 134.677H63.5168V128.342H66.3447V134.677ZM66.3447 127.067H63.5168V120.836H66.3447V127.067ZM70.1152 134.677H66.9731V128.342H70.1152V134.677ZM70.1152 127.067H66.9731V120.836H70.1152V127.067ZM77.6562 134.677H74.8283V128.342H77.6562V134.677ZM77.6562 127.067H74.8283V120.836H77.6562V127.067ZM81.4267 134.677H78.2846V128.342H81.4267V134.677ZM81.4267 127.067H78.2846V120.836H81.4267V127.067ZM93.2349 143.784H87.636V141.132H93.2349V143.784ZM93.2349 139.616H87.636V132.039H93.2349V139.616ZM95.02 126.613H90.7975L95.02 116.22V126.613ZM95.5532 115.37C95.4769 115.37 95.4046 115.394 95.3388 115.436L95.4814 115.085L95.6001 115.377C95.5844 115.375 95.5692 115.37 95.5532 115.37ZM96.0864 116.574L100.165 126.613H96.0864V116.574ZM103.285 143.784H97.6861V141.132H103.285V143.784ZM103.285 139.616H97.6861V132.039H103.285V139.616ZM106.434 130.665V129.326H107.201L106.434 130.665ZM118.475 152.982H109.151V139.141H118.475V152.982ZM128.318 152.982H119.103V139.141H128.318V152.982ZM137.013 134.677H134.185V128.342H137.013V134.677ZM137.013 127.067H134.185V120.836H137.013V127.067ZM140.784 134.677H137.642V128.342H140.784V134.677ZM140.784 127.067H137.642V120.836H140.784V127.067ZM148.953 120.836H152.095V127.067H148.953V120.836ZM148.325 134.677H145.497V128.342H148.325V134.677ZM148.325 127.067H145.497V120.836H148.325V127.067ZM148.953 128.342H152.095V131.814L150.399 134.677H148.953V128.342ZM184.417 134.677H181.491V128.342H184.417V134.677ZM184.417 127.067H181.491V120.836H184.417V127.067ZM188.319 134.677H185.068V128.342H188.319V134.677ZM188.319 127.067H185.068V120.836H188.319V127.067ZM196.122 134.677H193.196V128.342H196.122V134.677ZM196.122 127.067H193.196V120.836H196.122V127.067ZM200.024 134.677H196.773V128.342H200.024V134.677ZM200.024 127.067H196.773V120.836H200.024V127.067ZM212.243 143.784H206.449V141.132H212.243V143.784ZM212.243 139.616H206.449V132.039H212.243V139.616ZM214.09 126.613H209.72L214.09 116.22V126.613ZM214.642 115.37C214.563 115.37 214.488 115.394 214.42 115.436L214.567 115.085L214.69 115.377C214.674 115.375 214.658 115.37 214.642 115.37ZM215.193 116.574L219.414 126.613H215.193V116.574ZM222.642 143.784H216.849V141.132H222.642V143.784ZM222.642 139.616H216.849V132.039H222.642V139.616ZM225.901 130.665V129.326H226.695L225.901 130.665ZM238.36 152.982H228.712V139.141H238.36V152.982ZM248.546 152.982H239.01V139.141H248.546V152.982ZM257.543 134.677H254.617V128.342H257.543V134.677ZM257.543 127.067H254.617V120.836H257.543V127.067ZM261.445 134.677H258.193V128.342H261.445V134.677ZM261.445 127.067H258.193V120.836H261.445V127.067ZM269.248 134.677H266.322V128.342H269.248V134.677ZM269.248 127.067H266.322V120.836H269.248V127.067ZM273.149 134.106L272.811 134.677H269.898V128.342H273.149L273.149 134.106ZM273.149 127.067H269.898V120.836H273.149V127.067ZM283.447 149.588H277.653V146.936H283.447V149.588ZM283.447 145.42H277.653V137.844H283.447V145.42ZM285.294 132.417H280.924L285.294 122.024V132.417ZM285.846 121.174C285.767 121.174 285.692 121.198 285.624 121.24L285.771 120.889L285.894 121.181C285.878 121.179 285.862 121.174 285.846 121.174ZM286.397 122.378L290.618 132.417H286.397V122.378ZM293.846 149.588H288.053V146.936H293.846V149.588ZM293.846 145.42H288.053V137.844H293.846V145.42Z" fill="#B7D1FF"/>
<path opacity="0.9" d="M222 86.7377C222 86.7377 224.374 83.9511 230.05 84.2607C230.05 84.2607 238.291 79.6162 247.08 83.6414C247.08 83.6414 256.421 82.644 263.34 84.505C267.952 85.7457 269.476 87.0473 269.476 87.0473L222 86.7377Z" fill="#F8FCFF"/>
<path opacity="0.9" d="M65 17.3029C65 17.3029 66.4619 14.1839 69.9578 14.5304C69.9578 14.5304 75.0332 9.33183 80.4455 13.8373C80.4455 13.8373 86.1986 12.721 90.4593 14.8039C93.3 16.1927 94.2383 17.6495 94.2383 17.6495L65 17.3029Z" fill="#F8FCFF"/>
<path d="M198.788 153.617H121.212C119.99 153.617 119 152.626 119 151.405V46.6643C119 45.4428 119.99 44.4526 121.212 44.4526H198.788C200.01 44.4526 201 45.4428 201 46.6643V151.405C201 152.626 200.01 153.617 198.788 153.617Z" fill="#6B9CF5"/>
<path d="M196.627 148.89H140.408L127.301 139.482V47.3906H196.627V148.89Z" fill="#5F7FCF"/>
<path d="M195.576 148.063H139.358L126.25 138.733V47.4014H195.576V148.063Z" fill="white"/>
<path d="M139.357 148.103L126.254 138.733L134.951 136.97L139.357 148.103Z" fill="#CDD8FA"/>
<path d="M126.254 138.733L140.407 148.89C140.407 148.89 129.715 145.731 126.254 138.733Z" fill="#5F7FCF"/>
<path d="M181.305 44.8873V49.9404C181.305 50.4628 180.882 50.8866 180.359 50.8866H141.771C141.248 50.8866 140.824 50.4628 140.824 49.9404V44.8873C140.824 42.7229 142.579 40.9678 144.745 40.9678H177.386C178.395 40.9678 179.316 41.3491 180.011 41.9762C180.806 42.6937 181.305 43.7321 181.305 44.8873Z" fill="#F37A50"/>
<path d="M169.389 42.3234H152.742C152.742 41.8615 152.779 41.4093 152.853 40.968C153.499 37.0155 156.931 34.0005 161.066 34.0005C165.2 34.0005 168.632 37.0155 169.278 40.968C169.351 41.4093 169.389 41.8615 169.389 42.3234Z" fill="#F37A50"/>
<path d="M180.011 41.9759L140.824 48.9916V44.887C140.824 42.7226 142.579 40.9675 144.745 40.9675H152.852C153.499 37.015 156.93 34 161.065 34C165.2 34 168.631 37.015 169.278 40.9675H177.386C178.395 40.9675 179.316 41.3489 180.011 41.9759Z" fill="#DE623C"/>
<path d="M163.554 38.4843C163.554 39.859 162.44 40.9734 161.065 40.9734C159.691 40.9734 158.576 39.859 158.576 38.4843C158.576 37.1095 159.691 35.9951 161.065 35.9951C162.44 35.9951 163.554 37.1095 163.554 38.4843Z" fill="#E3E9FF"/>
<path d="M142.713 76.6873H130.974C130.602 76.6873 130.301 76.386 130.301 76.0143V64.275C130.301 63.9033 130.602 63.6021 130.974 63.6021H142.713C143.085 63.6021 143.386 63.9034 143.386 64.275V76.0143C143.386 76.386 143.085 76.6873 142.713 76.6873ZM131.647 75.3412H142.04V64.948H131.647V75.3412Z" fill="#C3D8FF"/>
<path d="M135.657 75.8692L129.367 68.5785L131.598 66.6535L135.678 71.3824L143.988 61.9297L146.201 63.8753L135.657 75.8692Z" fill="#82B378"/>
<path d="M175.942 64.4858H148.865V66.8986H175.942V64.4858Z" fill="#6B9CF5"/>
<path d="M192.379 64.4858H177.793V66.8986H192.379V64.4858Z" fill="#6B9CF5"/>
<path d="M164.403 69.2827H148.865V71.6956H164.403V69.2827Z" fill="#6B9CF5"/>
<path d="M182.93 74.0791H148.865V76.4919H182.93V74.0791Z" fill="#6B9CF5"/>
<path d="M192.38 69.2827H166.15V71.6956H192.38V69.2827Z" fill="#6B9CF5"/>
<path d="M142.713 103.457H130.974C130.602 103.457 130.301 103.156 130.301 102.784V91.0446C130.301 90.6728 130.602 90.3716 130.974 90.3716H142.713C143.085 90.3716 143.386 90.6728 143.386 91.0446V102.784C143.386 103.156 143.085 103.457 142.713 103.457ZM131.647 102.111H142.04V91.7176H131.647V102.111Z" fill="#C3D8FF"/>
<path d="M135.657 102.639L129.367 95.3485L131.598 93.4236L135.678 98.1524L143.988 88.6997L146.201 90.6454L135.657 102.639Z" fill="#82B378"/>
<path d="M186.914 90.9175H148.865V93.3302H186.914V90.9175Z" fill="#6B9CF5"/>
<path d="M172.898 95.7134H148.865V98.1262H172.898V95.7134Z" fill="#6B9CF5"/>
<path d="M158.325 100.51H148.865V102.923H158.325V100.51Z" fill="#6B9CF5"/>
<path d="M192.182 100.51H159.863V102.923H192.182V100.51Z" fill="#6B9CF5"/>
<path d="M192.183 95.7134H174.854V98.1262H192.183V95.7134Z" fill="#6B9CF5"/>
<path d="M133 132.901V115.299H140.482C142.556 115.299 144.146 115.894 145.253 117.084C146.188 118.09 146.657 119.449 146.657 121.159C146.657 123.858 145.487 125.677 143.149 126.616L147.147 132.901H142.938L139.383 127.269H136.601V132.901H133ZM136.601 123.849H140.249C141.122 123.849 141.801 123.619 142.283 123.159C142.767 122.697 143.009 122.082 143.009 121.312C143.009 120.49 142.76 119.866 142.261 119.438C141.761 119.009 141.068 118.796 140.18 118.796H136.603V123.849H136.601Z" fill="#0F429F"/>
<path d="M149.953 132.901V115.299H153.554V132.901H149.953Z" fill="#0F429F"/>
<path d="M163.351 133.153C160.669 133.153 158.356 132.214 156.406 130.338L158.533 127.598C160.138 129.023 161.768 129.736 163.42 129.736C164.153 129.736 164.73 129.585 165.15 129.283C165.571 128.981 165.78 128.561 165.78 128.026C165.78 127.525 165.562 127.118 165.125 126.807C164.688 126.497 163.809 126.159 162.483 125.788C161.548 125.537 160.791 125.289 160.214 125.047C159.637 124.805 159.088 124.481 158.564 124.079C158.043 123.677 157.661 123.168 157.419 122.558C157.177 121.947 157.057 121.212 157.057 120.358C157.057 118.766 157.59 117.482 158.658 116.51C159.725 115.538 161.102 115.051 162.785 115.051C165.107 115.051 167.134 115.797 168.864 117.289L166.992 120.207C165.449 119.05 164.031 118.473 162.736 118.473C162.066 118.473 161.548 118.619 161.182 118.912C160.816 119.205 160.631 119.587 160.631 120.056C160.631 120.626 160.858 121.053 161.309 121.339C161.761 121.623 162.712 121.967 164.162 122.369C165.938 122.871 167.248 123.517 168.089 124.305C168.931 125.093 169.352 126.226 169.352 127.7C169.352 129.41 168.804 130.746 167.705 131.71C166.615 132.671 165.161 133.153 163.351 133.153Z" fill="#0F429F"/>
<path d="M184.272 115.646L184.698 117.598L183.328 118.845C185.311 119.765 186.687 121.772 186.687 124.101C186.687 127.298 184.096 129.891 180.897 129.891C180.575 129.891 180.26 129.864 179.953 129.813L178.508 131.132L178.912 132.984C179.551 133.126 180.215 133.204 180.897 133.204C185.923 133.204 190 129.127 190 124.101C190.002 120.266 187.629 116.987 184.272 115.646Z" fill="#0F429F"/>
<path d="M175.307 125.591H179.223V122.611H175.305C175.962 120.135 178.218 118.31 180.9 118.31C181.19 118.31 181.477 118.333 181.757 118.375L183.231 117.032L182.833 115.206C182.21 115.071 181.563 115 180.902 115C175.875 115 171.799 119.074 171.799 124.103C171.799 127.917 174.146 131.181 177.472 132.535L177.043 130.566L178.402 129.327C176.89 128.601 175.744 127.24 175.307 125.591Z" fill="#0F429F"/>
</svg>
