<svg width="320" height="158" viewBox="0 0 320 158" fill="none" xmlns="http://www.w3.org/2000/svg">
<path opacity="0.6" d="M299.832 157.574C302.426 152.993 306.489 142.108 308.809 130.841C315.846 96.2642 301.428 68.3658 273.403 51.8347C259.584 43.6685 246.83 42.543 235.774 43.5634C223.206 44.7232 212.832 48.6616 205.583 48.1877C195.293 47.5135 189.421 33.8953 174.355 21.3222C165.531 13.9623 153.552 6.98116 135.685 3.22057C113.87 -1.37391 84.8712 -1.77454 64.3087 6.81335C56.2168 10.1907 49.5072 14.9421 45.1453 21.3224C33.9249 37.7245 41.8351 59.3031 51.9516 76.4618C66.2897 100.779 47.5271 105.017 30.5727 114.661C17.7016 121.985 5.87194 132.852 10.3736 157.574H299.832V157.574Z" fill="#D5E6FE"/>
<path d="M319.638 158H0.362535C0.163141 158 0 157.836 0 157.636V157.512C0 157.312 0.163141 157.148 0.362535 157.148H319.637C319.837 157.148 320 157.312 320 157.512V157.636C320 157.837 319.837 158 319.638 158Z" fill="#8692C2"/>
<g opacity="0.4">
<path d="M136.106 135.168C135.407 133.522 132.965 129.342 128.721 125.302C125.605 122.336 121.997 119.854 117.996 117.927C112.994 115.517 107.361 113.97 101.252 113.328L101.263 113.229C107.384 113.871 113.03 115.422 118.043 117.837C122.054 119.77 125.671 122.259 128.794 125.232C133.049 129.284 135.498 133.478 136.199 135.129L136.106 135.168Z" fill="#5082EB"/>
<path d="M97.5749 110.442C95.3816 110.107 94.7883 110.596 94.5897 111.498C94.391 112.401 94.7478 113.333 96.1836 113.777C99.6572 114.85 103.99 114.203 104.124 113.597C104.221 113.155 100.628 110.907 97.5749 110.442Z" fill="#ADC7FF"/>
<path d="M102.076 116.599C100.192 117.77 100.058 118.527 100.494 119.342C100.929 120.157 101.806 120.634 103.186 120.038C106.524 118.597 109.397 115.29 109.105 114.742C108.892 114.344 104.7 114.97 102.076 116.599Z" fill="#ADC7FF"/>
<path d="M104.231 113.621C100.991 113.585 98.0343 111.845 94.7821 111.923C94.7498 111.924 94.7497 111.975 94.7821 111.974C98.0341 111.895 100.991 113.635 104.231 113.672C104.263 113.672 104.263 113.622 104.231 113.621Z" fill="#5082EB"/>
<path d="M99.3002 112.69C99.3606 111.993 99.1291 111.201 98.6862 110.657C98.6657 110.632 98.6303 110.668 98.6506 110.693C99.0849 111.226 99.3091 112.007 99.2499 112.69C99.2471 112.722 99.2974 112.722 99.3002 112.69Z" fill="#5082EB"/>
<path d="M97.7723 112.286C97.2939 112.896 96.6073 113.342 95.8918 113.626C95.8621 113.637 95.8751 113.686 95.9052 113.674C96.6282 113.387 97.3241 112.938 97.8079 112.322C97.8277 112.296 97.7923 112.261 97.7723 112.286Z" fill="#5082EB"/>
<path d="M98.1094 110.591C98.4846 111.2 98.7168 111.861 98.8035 112.571C98.8074 112.603 98.8577 112.603 98.8538 112.571C98.766 111.852 98.5329 111.183 98.1528 110.566C98.1359 110.538 98.0923 110.563 98.1094 110.591Z" fill="#5082EB"/>
<path d="M109.234 107.333C108.614 105.202 107.921 104.87 107.019 105.069C106.117 105.269 105.421 105.985 105.623 107.474C106.111 111.077 108.521 114.735 109.128 114.601C109.569 114.504 110.096 110.298 109.234 107.333Z" fill="#ADC7FF"/>
<path d="M109.152 114.708C107.822 111.754 108.157 108.339 106.716 105.422C106.702 105.393 106.658 105.418 106.673 105.447C108.113 108.364 107.778 111.779 109.109 114.733C109.122 114.762 109.166 114.737 109.152 114.708Z" fill="#5082EB"/>
<path d="M107.919 109.845C108.574 109.611 109.205 109.063 109.507 108.435C109.521 108.406 109.478 108.38 109.463 108.409C109.168 109.026 108.548 109.567 107.906 109.796C107.876 109.807 107.889 109.856 107.919 109.845Z" fill="#5082EB"/>
<path d="M107.643 108.287C106.887 108.107 106.198 107.673 105.637 107.144C105.614 107.122 105.578 107.157 105.602 107.179C106.169 107.715 106.865 108.154 107.63 108.335C107.661 108.343 107.675 108.294 107.643 108.287Z" fill="#5082EB"/>
<path d="M109.324 107.881C108.932 108.477 108.426 108.969 107.819 109.343C107.791 109.36 107.816 109.404 107.844 109.387C108.458 109.008 108.972 108.509 109.367 107.906C109.385 107.879 109.341 107.854 109.324 107.881Z" fill="#5082EB"/>
<path d="M118.078 109.206C117.355 106.718 116.546 106.33 115.492 106.563C114.438 106.796 113.626 107.632 113.861 109.372C114.431 113.579 117.246 117.852 117.955 117.695C118.47 117.581 119.085 112.67 118.078 109.206Z" fill="#ADC7FF"/>
<path d="M117.979 117.819C116.421 114.371 116.821 110.379 115.134 106.975C115.117 106.941 115.067 106.971 115.083 107.005C116.77 110.408 116.37 114.401 117.929 117.849C117.944 117.884 117.995 117.854 117.979 117.819Z" fill="#5082EB"/>
<path d="M116.54 112.141C117.304 111.868 118.041 111.228 118.394 110.494C118.41 110.46 118.36 110.43 118.343 110.464C117.997 111.184 117.274 111.816 116.524 112.084C116.489 112.097 116.504 112.153 116.54 112.141Z" fill="#5082EB"/>
<path d="M116.219 110.322C115.339 110.116 114.528 109.604 113.877 108.987C113.849 108.961 113.808 109.002 113.835 109.028C114.494 109.654 115.313 110.17 116.204 110.378C116.241 110.387 116.256 110.33 116.219 110.322Z" fill="#5082EB"/>
<path d="M118.18 109.846C117.723 110.543 117.132 111.118 116.422 111.554C116.39 111.574 116.419 111.625 116.452 111.605C117.169 111.164 117.769 110.581 118.231 109.876C118.251 109.844 118.201 109.815 118.18 109.846Z" fill="#5082EB"/>
<path d="M109.819 120.741C107.733 122.279 107.648 123.172 108.23 124.081C108.813 124.99 109.878 125.463 111.429 124.642C115.182 122.656 118.221 118.539 117.829 117.928C117.545 117.484 112.723 118.601 109.819 120.741Z" fill="#ADC7FF"/>
<path d="M117.938 117.86C115.241 120.514 111.352 121.512 108.741 124.272C108.715 124.3 108.756 124.341 108.782 124.314C111.394 121.554 115.282 120.556 117.979 117.902C118.006 117.875 117.965 117.834 117.938 117.86Z" fill="#5082EB"/>
<path d="M113.102 121.168C112.577 120.543 111.729 120.08 110.915 119.999C110.877 119.995 110.877 120.054 110.915 120.058C111.711 120.137 112.548 120.599 113.061 121.21C113.085 121.239 113.126 121.197 113.102 121.168Z" fill="#5082EB"/>
<path d="M111.507 122.096C111.617 122.994 111.419 123.931 111.063 124.756C111.048 124.79 111.099 124.82 111.114 124.785C111.473 123.952 111.677 123.004 111.565 122.096C111.561 122.059 111.502 122.059 111.507 122.096Z" fill="#5082EB"/>
<path d="M110.38 120.422C111.193 120.612 111.934 120.967 112.59 121.481C112.62 121.504 112.662 121.463 112.632 121.44C111.967 120.918 111.219 120.558 110.396 120.365C110.359 120.357 110.344 120.413 110.38 120.422Z" fill="#5082EB"/>
<path d="M115.117 125.202C112.771 126.932 112.675 127.937 113.33 128.96C113.985 129.982 115.183 130.515 116.929 129.591C121.151 127.356 124.571 122.725 124.13 122.037C123.81 121.538 118.384 122.794 115.117 125.202Z" fill="#ADC7FF"/>
<path d="M124.593 121.548C121.446 124.65 116.951 125.949 113.906 129.175C113.877 129.206 113.923 129.252 113.953 129.221C116.998 125.996 121.493 124.697 124.64 121.594C124.67 121.564 124.623 121.518 124.593 121.548Z" fill="#5082EB"/>
<path d="M118.811 125.684C118.225 124.982 117.262 124.456 116.35 124.368C116.308 124.364 116.308 124.43 116.35 124.434C117.244 124.52 118.191 125.043 118.764 125.73C118.792 125.763 118.838 125.716 118.811 125.684Z" fill="#5082EB"/>
<path d="M117.016 126.729C117.142 127.736 116.917 128.796 116.517 129.721C116.5 129.76 116.557 129.793 116.574 129.754C116.979 128.819 117.21 127.748 117.082 126.729C117.076 126.687 117.01 126.687 117.016 126.729Z" fill="#5082EB"/>
<path d="M115.75 124.844C116.663 125.057 117.5 125.457 118.237 126.036C118.27 126.062 118.317 126.016 118.284 125.989C117.537 125.403 116.693 124.996 115.768 124.78C115.726 124.771 115.709 124.834 115.75 124.844Z" fill="#5082EB"/>
<path d="M121.28 128.676C118.529 129.641 118.142 130.574 118.469 131.744C118.795 132.914 119.784 133.775 121.724 133.403C126.416 132.505 131.044 129.08 130.824 128.294C130.665 127.722 125.109 127.332 121.28 128.676Z" fill="#ADC7FF"/>
<path d="M131.408 127.962C127.489 130.004 122.812 129.93 118.954 132.119C118.917 132.14 118.95 132.197 118.987 132.176C122.845 129.987 127.522 130.062 131.441 128.019C131.479 128 131.446 127.942 131.408 127.962Z" fill="#5082EB"/>
<path d="M124.67 130.224C124.316 129.378 123.55 128.59 122.7 128.238C122.66 128.222 122.643 128.286 122.682 128.302C123.506 128.643 124.263 129.422 124.606 130.242C124.623 130.281 124.687 130.264 124.67 130.224Z" fill="#5082EB"/>
<path d="M122.647 130.692C122.471 131.693 121.946 132.638 121.292 133.406C121.264 133.438 121.311 133.485 121.338 133.453C122 132.676 122.533 131.723 122.711 130.71C122.718 130.668 122.654 130.65 122.647 130.692Z" fill="#5082EB"/>
<path d="M121.989 128.52C122.8 128.991 123.481 129.619 124.016 130.389C124.04 130.424 124.097 130.391 124.073 130.356C123.532 129.577 122.842 128.939 122.022 128.463C121.985 128.441 121.952 128.498 121.989 128.52Z" fill="#5082EB"/>
<path d="M123.58 111.457C124.068 108.582 124.923 108.044 126.131 108.169C127.339 108.294 128.354 109.123 128.315 111.098C128.22 115.875 125.624 121.013 124.812 120.929C124.222 120.868 122.901 115.458 123.58 111.457Z" fill="#ADC7FF"/>
<path d="M124.648 121.581C125.999 117.374 125.14 112.776 126.646 108.605C126.661 108.565 126.597 108.547 126.582 108.587C125.076 112.759 125.935 117.356 124.584 121.564C124.571 121.604 124.635 121.622 124.648 121.581Z" fill="#5082EB"/>
<path d="M125.693 114.474C124.82 114.271 123.928 113.66 123.449 112.9C123.426 112.864 123.369 112.897 123.392 112.934C123.88 113.708 124.785 114.331 125.675 114.538C125.717 114.547 125.734 114.483 125.693 114.474Z" fill="#5082EB"/>
<path d="M125.823 112.527C126.791 112.181 127.644 111.497 128.298 110.714C128.325 110.682 128.279 110.635 128.251 110.667C127.604 111.442 126.764 112.121 125.806 112.463C125.766 112.477 125.783 112.541 125.823 112.527Z" fill="#5082EB"/>
<path d="M123.496 112.228C124.104 112.954 124.844 113.524 125.701 113.926C125.74 113.944 125.773 113.887 125.735 113.869C124.883 113.47 124.146 112.902 123.543 112.181C123.516 112.148 123.469 112.195 123.496 112.228Z" fill="#5082EB"/>
<path d="M134.922 116.673C136.747 113.799 137.911 113.606 139.155 114.287C140.399 114.968 141.117 116.321 140.181 118.428C137.919 123.528 132.8 127.886 131.963 127.428C131.356 127.096 132.381 120.673 134.922 116.673Z" fill="#ADC7FF"/>
<path d="M131.486 128.059C134.849 124.145 135.994 118.798 139.507 114.993C139.541 114.956 139.487 114.901 139.453 114.938C135.939 118.744 134.795 124.091 131.432 128.005C131.399 128.042 131.454 128.097 131.486 128.059Z" fill="#5082EB"/>
<path d="M135.826 120.873C134.98 120.265 134.293 119.193 134.126 118.162C134.118 118.113 134.044 118.134 134.051 118.182C134.222 119.232 134.926 120.321 135.787 120.94C135.828 120.969 135.866 120.902 135.826 120.873Z" fill="#5082EB"/>
<path d="M136.856 118.839C138.052 118.908 139.285 118.552 140.34 118.004C140.384 117.981 140.345 117.914 140.301 117.937C139.259 118.479 138.037 118.83 136.856 118.762C136.806 118.759 136.806 118.836 136.856 118.839Z" fill="#5082EB"/>
<path d="M134.482 117.463C134.806 118.52 135.35 119.477 136.093 120.296C136.126 120.333 136.181 120.279 136.148 120.242C135.413 119.431 134.877 118.488 134.557 117.442C134.542 117.395 134.468 117.415 134.482 117.463Z" fill="#5082EB"/>
</g>
<path d="M133.111 128.409C133.111 128.371 133.027 124.581 130.827 119.709C129.535 116.848 127.777 114.179 125.6 111.776C122.88 108.773 119.495 106.18 115.541 104.068L115.575 104.004C119.538 106.12 122.93 108.719 125.656 111.729C127.838 114.138 129.6 116.814 130.896 119.682C133.101 124.567 133.184 128.37 133.185 128.408L133.111 128.409Z" fill="#5082EB"/>
<path d="M113.847 101.107C112.455 100.279 111.92 100.446 111.538 101.002C111.155 101.558 111.141 102.286 111.99 102.98C114.044 104.66 117.152 105.413 117.409 105.039C117.595 104.768 115.783 102.261 113.847 101.107Z" fill="#ADC7FF"/>
<path d="M115.2 106.506C113.604 106.78 113.306 107.255 113.377 107.926C113.447 108.597 113.909 109.16 115.006 109.136C117.659 109.079 120.51 107.632 120.463 107.181C120.428 106.853 117.422 106.125 115.2 106.506Z" fill="#ADC7FF"/>
<path d="M117.474 105.085C115.295 104.166 113.771 102.186 111.551 101.342C111.529 101.334 111.52 101.369 111.542 101.378C113.76 102.222 115.285 104.202 117.465 105.121C117.486 105.13 117.496 105.094 117.474 105.085Z" fill="#5082EB"/>
<path d="M114.395 103.103C114.627 102.647 114.69 102.05 114.54 101.56C114.533 101.537 114.498 101.547 114.505 101.569C114.652 102.051 114.591 102.638 114.363 103.085C114.353 103.106 114.385 103.124 114.395 103.103Z" fill="#5082EB"/>
<path d="M113.474 102.41C112.98 102.69 112.397 102.801 111.834 102.798C111.81 102.798 111.81 102.834 111.834 102.835C112.404 102.838 112.993 102.725 113.492 102.442C113.513 102.43 113.494 102.398 113.474 102.41Z" fill="#5082EB"/>
<path d="M114.168 101.356C114.254 101.872 114.228 102.379 114.093 102.885C114.086 102.908 114.122 102.918 114.128 102.895C114.265 102.384 114.29 101.869 114.204 101.346C114.2 101.323 114.164 101.333 114.168 101.356Z" fill="#5082EB"/>
<path d="M122.587 102.206C122.754 100.596 122.376 100.18 121.711 100.068C121.046 99.9547 120.38 100.248 120.107 101.31C119.447 103.881 120.073 107.016 120.52 107.092C120.845 107.147 122.356 104.448 122.587 102.206Z" fill="#ADC7FF"/>
<path d="M120.506 107.173C120.425 104.81 121.573 102.593 121.408 100.225C121.407 100.201 121.37 100.201 121.372 100.225C121.536 102.593 120.389 104.809 120.469 107.173C120.47 107.196 120.506 107.196 120.506 107.173Z" fill="#5082EB"/>
<path d="M121.008 103.544C121.518 103.563 122.087 103.367 122.468 103.025C122.486 103.009 122.46 102.983 122.442 102.999C122.069 103.335 121.508 103.526 121.008 103.507C120.984 103.506 120.984 103.543 121.008 103.544Z" fill="#5082EB"/>
<path d="M121.245 102.414C120.783 102.088 120.435 101.601 120.203 101.09C120.194 101.068 120.162 101.087 120.172 101.108C120.406 101.625 120.76 102.116 121.227 102.446C121.246 102.46 121.264 102.428 121.245 102.414Z" fill="#5082EB"/>
<path d="M122.498 102.599C122.065 102.895 121.59 103.088 121.074 103.176C121.051 103.18 121.06 103.216 121.084 103.212C121.603 103.122 122.081 102.929 122.516 102.631C122.535 102.617 122.517 102.586 122.498 102.599Z" fill="#5082EB"/>
<path d="M119.298 111.433C117.466 111.9 117.162 112.481 117.307 113.255C117.451 114.03 118.041 114.643 119.316 114.514C122.399 114.201 125.584 112.252 125.487 111.731C125.417 111.353 121.849 110.784 119.298 111.433Z" fill="#ADC7FF"/>
<path d="M125.582 111.714C123.024 112.76 120.127 112.385 117.597 113.526C117.572 113.537 117.594 113.574 117.619 113.563C120.144 112.424 123.039 112.8 125.594 111.755C125.619 111.745 125.608 111.703 125.582 111.714Z" fill="#5082EB"/>
<path d="M121.401 112.626C121.22 112.061 120.772 111.509 120.245 111.233C120.221 111.22 120.199 111.257 120.224 111.27C120.741 111.541 121.182 112.083 121.36 112.637C121.368 112.663 121.41 112.652 121.401 112.626Z" fill="#5082EB"/>
<path d="M120.065 112.817C119.892 113.455 119.501 114.031 119.034 114.493C119.014 114.512 119.044 114.543 119.064 114.523C119.537 114.056 119.931 113.474 120.107 112.828C120.114 112.802 120.072 112.79 120.065 112.817Z" fill="#5082EB"/>
<path d="M119.769 111.375C120.266 111.726 120.67 112.171 120.972 112.699C120.986 112.723 121.023 112.702 121.009 112.678C120.704 112.143 120.294 111.693 119.791 111.338C119.768 111.322 119.747 111.359 119.769 111.375Z" fill="#5082EB"/>
<path d="M128.71 106.276C129.104 104.427 128.718 103.898 127.96 103.683C127.202 103.469 126.391 103.726 125.942 104.926C124.855 107.828 125.189 111.548 125.698 111.692C126.069 111.796 128.161 108.851 128.71 106.276Z" fill="#ADC7FF"/>
<path d="M125.671 111.785C125.868 109.028 127.489 106.597 127.588 103.824C127.589 103.797 127.546 103.8 127.545 103.827C127.446 106.596 125.825 109.024 125.629 111.777C125.627 111.804 125.669 111.812 125.671 111.785Z" fill="#5082EB"/>
<path d="M126.708 107.633C127.295 107.721 127.988 107.564 128.469 107.214C128.491 107.198 128.468 107.162 128.446 107.178C127.974 107.521 127.292 107.677 126.717 107.59C126.689 107.586 126.681 107.628 126.708 107.633Z" fill="#5082EB"/>
<path d="M127.13 106.352C126.635 105.913 126.291 105.307 126.085 104.684C126.076 104.658 126.035 104.672 126.044 104.698C126.253 105.328 126.6 105.94 127.101 106.384C127.122 106.402 127.15 106.37 127.13 106.352Z" fill="#5082EB"/>
<path d="M128.556 106.725C128.021 107.014 127.443 107.179 126.836 107.215C126.808 107.217 126.811 107.26 126.839 107.258C127.453 107.222 128.038 107.054 128.58 106.76C128.604 106.747 128.58 106.711 128.556 106.725Z" fill="#5082EB"/>
<path d="M121.655 115.906C119.593 116.431 119.252 117.085 119.414 117.956C119.577 118.827 120.24 119.517 121.674 119.371C125.143 119.02 128.728 116.827 128.618 116.241C128.539 115.816 124.525 115.175 121.655 115.906Z" fill="#ADC7FF"/>
<path d="M129.068 116.036C126.083 117.264 122.692 116.923 119.741 118.261C119.713 118.273 119.737 118.315 119.765 118.302C122.712 116.967 126.1 117.309 129.081 116.083C129.109 116.071 129.097 116.024 129.068 116.036Z" fill="#5082EB"/>
<path d="M124.021 117.249C123.817 116.613 123.313 115.992 122.72 115.682C122.693 115.667 122.668 115.709 122.696 115.723C123.277 116.028 123.774 116.638 123.974 117.261C123.984 117.291 124.03 117.278 124.021 117.249Z" fill="#5082EB"/>
<path d="M122.519 117.462C122.324 118.18 121.884 118.829 121.359 119.348C121.337 119.37 121.371 119.404 121.393 119.382C121.924 118.857 122.368 118.202 122.566 117.475C122.574 117.445 122.527 117.432 122.519 117.462Z" fill="#5082EB"/>
<path d="M122.182 115.84C122.741 116.234 123.196 116.736 123.536 117.33C123.551 117.357 123.593 117.333 123.577 117.306C123.234 116.704 122.773 116.198 122.207 115.798C122.181 115.78 122.157 115.822 122.182 115.84Z" fill="#5082EB"/>
<path d="M124.869 119.947C122.743 119.845 122.226 120.369 122.125 121.25C122.025 122.131 122.457 122.985 123.871 123.266C127.29 123.947 131.36 122.902 131.428 122.31C131.477 121.88 127.827 120.09 124.869 119.947Z" fill="#ADC7FF"/>
<path d="M131.918 122.246C128.706 122.542 125.566 121.225 122.355 121.636C122.325 121.64 122.324 121.688 122.355 121.684C125.566 121.273 128.706 122.59 131.918 122.294C131.949 122.291 131.949 122.243 131.918 122.246Z" fill="#5082EB"/>
<path d="M126.738 121.923C126.727 121.252 126.429 120.518 125.953 120.043C125.931 120.021 125.897 120.055 125.919 120.077C126.386 120.543 126.679 121.264 126.69 121.923C126.69 121.954 126.739 121.954 126.738 121.923Z" fill="#5082EB"/>
<path d="M125.238 121.688C124.842 122.317 124.228 122.809 123.575 123.15C123.547 123.164 123.571 123.206 123.599 123.192C124.26 122.847 124.88 122.348 125.279 121.712C125.296 121.686 125.254 121.662 125.238 121.688Z" fill="#5082EB"/>
<path d="M125.392 120.034C125.811 120.578 126.099 121.189 126.251 121.86C126.258 121.89 126.305 121.877 126.298 121.847C126.144 121.172 125.856 120.558 125.433 120.009C125.415 119.985 125.373 120.009 125.392 120.034Z" fill="#5082EB"/>
<path d="M131.155 108.935C132.274 107.126 133 106.996 133.782 107.413C134.565 107.829 135.024 108.669 134.455 109.993C133.079 113.197 129.912 115.959 129.386 115.679C129.004 115.476 129.596 111.454 131.155 108.935Z" fill="#ADC7FF"/>
<path d="M129.093 116.077C131.159 113.6 131.848 110.262 134.008 107.851C134.029 107.828 133.995 107.794 133.974 107.817C131.813 110.228 131.125 113.567 129.059 116.043C129.039 116.067 129.073 116.101 129.093 116.077Z" fill="#5082EB"/>
<path d="M131.749 111.553C131.215 111.175 130.783 110.518 130.666 109.872C130.661 109.841 130.614 109.854 130.62 109.885C130.739 110.545 131.179 111.208 131.725 111.595C131.75 111.613 131.774 111.571 131.749 111.553Z" fill="#5082EB"/>
<path d="M132.379 110.275C133.133 110.302 133.887 110.077 134.55 109.727C134.577 109.713 134.553 109.671 134.526 109.686C133.871 110.03 133.123 110.254 132.379 110.227C132.348 110.225 132.348 110.274 132.379 110.275Z" fill="#5082EB"/>
<path d="M130.886 109.432C131.099 110.091 131.444 110.682 131.914 111.191C131.935 111.214 131.969 111.18 131.948 111.157C131.482 110.653 131.143 110.072 130.933 109.419C130.923 109.39 130.876 109.402 130.886 109.432Z" fill="#5082EB"/>
<path d="M137.391 115.577C139.414 114.136 140.254 114.324 140.908 115.126C141.563 115.929 141.676 117.04 140.465 118.209C137.535 121.036 132.876 122.577 132.436 122.038C132.117 121.646 134.574 117.584 137.391 115.577Z" fill="#ADC7FF"/>
<path d="M131.945 122.331C135.291 120.602 137.539 117.313 140.957 115.698C140.99 115.683 140.962 115.634 140.929 115.649C137.511 117.264 135.263 120.553 131.917 122.282C131.884 122.299 131.913 122.348 131.945 122.331Z" fill="#5082EB"/>
<path d="M136.849 118.668C136.445 118.017 136.276 117.119 136.441 116.369C136.449 116.334 136.395 116.319 136.387 116.354C136.218 117.12 136.388 118.032 136.801 118.697C136.82 118.727 136.869 118.699 136.849 118.668Z" fill="#5082EB"/>
<path d="M138.1 117.571C138.894 117.944 139.818 118.044 140.685 117.966C140.721 117.962 140.721 117.906 140.685 117.909C139.828 117.987 138.915 117.891 138.129 117.523C138.096 117.507 138.068 117.556 138.1 117.571Z" fill="#5082EB"/>
<path d="M136.876 115.994C136.808 116.8 136.911 117.585 137.186 118.346C137.198 118.38 137.252 118.365 137.24 118.331C136.967 117.574 136.864 116.795 136.932 115.994C136.935 115.958 136.879 115.958 136.876 115.994Z" fill="#5082EB"/>
<path d="M105.716 131.872C105.134 130.907 105.249 130.534 105.635 130.266C106.02 129.998 106.527 129.986 107.013 130.574C108.189 131.997 108.723 134.157 108.464 134.337C108.276 134.468 106.525 133.216 105.716 131.872Z" fill="#ADC7FF"/>
<path d="M108.58 134.57C107.909 133 106.512 131.864 105.895 130.265C105.889 130.249 105.866 130.261 105.872 130.277C106.489 131.876 107.886 133.012 108.557 134.582C108.564 134.597 108.586 134.585 108.58 134.57Z" fill="#5082EB"/>
<path d="M107.094 132.225C106.783 132.385 106.375 132.429 106.04 132.329C106.024 132.324 106.016 132.349 106.032 132.353C106.374 132.456 106.789 132.41 107.105 132.247C107.12 132.24 107.108 132.217 107.094 132.225Z" fill="#5082EB"/>
<path d="M106.642 131.621C106.838 131.274 106.915 130.861 106.911 130.466C106.91 130.449 106.885 130.448 106.885 130.465C106.89 130.856 106.815 131.263 106.621 131.607C106.613 131.621 106.634 131.635 106.642 131.621Z" fill="#5082EB"/>
<path d="M105.885 132.12C106.249 132.178 106.603 132.159 106.959 132.061C106.974 132.057 106.969 132.032 106.953 132.036C106.601 132.133 106.246 132.152 105.886 132.094C105.87 132.091 105.868 132.117 105.885 132.12Z" fill="#5082EB"/>
<g opacity="0.5">
<path d="M228.364 127.064C229.296 126.281 229.713 126.341 230.064 126.707C230.415 127.073 230.514 127.611 229.968 128.229C228.647 129.724 226.432 130.658 226.196 130.412C226.025 130.233 227.066 128.154 228.364 127.064Z" fill="#ADC7FF"/>
<path d="M225.968 130.575C227.531 129.594 228.508 127.912 230.11 126.984C230.125 126.975 230.109 126.953 230.094 126.962C228.491 127.89 227.514 129.572 225.951 130.552C225.936 130.562 225.953 130.584 225.968 130.575Z" fill="#5082EB"/>
<path d="M228.218 128.594C227.996 128.29 227.879 127.862 227.93 127.487C227.932 127.47 227.905 127.465 227.903 127.483C227.851 127.865 227.969 128.301 228.196 128.611C228.207 128.625 228.229 128.608 228.218 128.594Z" fill="#5082EB"/>
<path d="M228.788 128.01C229.191 128.16 229.644 128.173 230.065 128.101C230.082 128.098 230.08 128.071 230.062 128.074C229.645 128.145 229.198 128.133 228.799 127.984C228.782 127.978 228.771 128.003 228.788 128.01Z" fill="#5082EB"/>
<path d="M228.129 127.288C228.128 127.687 228.208 128.062 228.372 128.425C228.379 128.441 228.405 128.431 228.398 128.414C228.236 128.055 228.155 127.679 228.156 127.285C228.156 127.268 228.129 127.271 228.129 127.288Z" fill="#5082EB"/>
</g>
<g opacity="0.4">
<path d="M207.603 140.512L207.52 140.502C207.692 139.024 208.665 135.115 211.109 130.898C212.902 127.803 215.202 124.979 217.945 122.505C221.373 119.414 225.507 116.864 230.231 114.926L230.263 115.003C225.548 116.937 221.422 119.482 218.001 122.567C215.265 125.035 212.97 127.852 211.181 130.94C208.744 135.146 207.775 139.04 207.603 140.512Z" fill="#5082EB"/>
<path d="M232.516 111.848C234.184 111.071 234.771 111.321 235.139 111.994C235.507 112.666 235.441 113.491 234.401 114.179C231.885 115.843 228.285 116.338 228.037 115.886C227.857 115.557 230.194 112.93 232.516 111.848Z" fill="#ADC7FF"/>
<path d="M230.369 117.798C232.142 118.291 232.425 118.862 232.268 119.613C232.111 120.363 231.524 120.947 230.287 120.794C227.294 120.425 224.235 118.462 224.341 117.957C224.417 117.591 227.9 117.112 230.369 117.798Z" fill="#ADC7FF"/>
<path d="M227.97 115.971C230.543 115.191 232.489 113.108 235.097 112.417C235.123 112.41 235.11 112.371 235.084 112.378C232.475 113.068 230.529 115.151 227.957 115.931C227.932 115.939 227.945 115.979 227.97 115.971Z" fill="#5082EB"/>
<path d="M231.706 114.027C231.5 113.5 231.497 112.82 231.719 112.297C231.729 112.273 231.692 112.253 231.682 112.278C231.455 112.813 231.455 113.501 231.667 114.04C231.677 114.065 231.716 114.052 231.706 114.027Z" fill="#5082EB"/>
<path d="M232.766 113.396C233.294 113.774 233.953 113.972 234.595 114.031C234.621 114.034 234.63 113.993 234.604 113.991C233.968 113.931 233.316 113.739 232.794 113.365C232.772 113.349 232.744 113.38 232.766 113.396Z" fill="#5082EB"/>
<path d="M232.086 112.081C231.928 112.659 231.898 113.245 231.995 113.836C231.999 113.862 232.041 113.86 232.037 113.833C231.94 113.246 231.97 112.665 232.127 112.09C232.134 112.064 232.094 112.055 232.086 112.081Z" fill="#5082EB"/>
<path d="M222.508 112.089C222.505 110.248 222.979 109.822 223.744 109.771C224.509 109.72 225.229 110.127 225.416 111.36C225.867 114.342 224.8 117.817 224.286 117.851C223.912 117.876 222.512 114.651 222.508 112.089Z" fill="#ADC7FF"/>
<path d="M224.334 117.95C224.706 115.288 223.641 112.647 224.11 109.99C224.114 109.963 224.073 109.954 224.069 109.981C223.6 112.638 224.665 115.28 224.293 117.941C224.289 117.968 224.33 117.977 224.334 117.95Z" fill="#5082EB"/>
<path d="M224.141 113.741C223.576 113.706 222.96 113.42 222.579 113C222.56 112.98 222.533 113.011 222.551 113.031C222.941 113.462 223.565 113.747 224.144 113.783C224.17 113.784 224.168 113.743 224.141 113.741Z" fill="#5082EB"/>
<path d="M224.021 112.514C224.587 112.194 225.042 111.678 225.366 111.12C225.38 111.097 225.342 111.078 225.329 111.101C225.009 111.652 224.557 112.163 223.998 112.479C223.975 112.492 223.998 112.527 224.021 112.514Z" fill="#5082EB"/>
<path d="M222.536 112.576C222.994 112.964 223.517 113.24 224.094 113.4C224.12 113.407 224.129 113.366 224.103 113.359C223.531 113.201 223.017 112.929 222.564 112.545C222.544 112.528 222.516 112.559 222.536 112.576Z" fill="#5082EB"/>
<path d="M215.906 115.641C215.902 113.491 216.456 112.994 217.35 112.934C218.243 112.874 219.084 113.35 219.302 114.79C219.829 118.273 218.583 122.33 217.983 122.371C217.546 122.4 215.912 118.633 215.906 115.641Z" fill="#ADC7FF"/>
<path d="M218.038 122.486C218.477 119.378 217.226 116.292 217.776 113.189C217.782 113.158 217.734 113.148 217.729 113.179C217.178 116.282 218.429 119.368 217.991 122.476C217.986 122.507 218.034 122.517 218.038 122.486Z" fill="#5082EB"/>
<path d="M217.812 117.571C217.153 117.532 216.429 117.196 215.986 116.705C215.965 116.681 215.933 116.718 215.954 116.741C216.406 117.244 217.141 117.58 217.814 117.619C217.846 117.621 217.843 117.573 217.812 117.571Z" fill="#5082EB"/>
<path d="M217.671 116.138C218.332 115.766 218.864 115.162 219.242 114.511C219.258 114.484 219.214 114.462 219.199 114.489C218.826 115.132 218.297 115.73 217.644 116.097C217.617 116.113 217.644 116.154 217.671 116.138Z" fill="#5082EB"/>
<path d="M215.94 116.211C216.473 116.664 217.085 116.988 217.759 117.173C217.79 117.181 217.8 117.134 217.77 117.125C217.102 116.942 216.5 116.623 215.973 116.175C215.949 116.155 215.916 116.191 215.94 116.211Z" fill="#5082EB"/>
<path d="M225.168 122.899C227.187 123.637 227.463 124.329 227.211 125.188C226.959 126.047 226.222 126.673 224.795 126.38C221.344 125.673 217.966 123.104 218.135 122.526C218.258 122.107 222.358 121.872 225.168 122.899Z" fill="#ADC7FF"/>
<path d="M218.011 122.541C220.776 124.026 224.106 123.912 226.827 125.502C226.854 125.518 226.876 125.475 226.849 125.459C224.128 123.869 220.798 123.983 218.033 122.497C218.005 122.482 217.983 122.526 218.011 122.541Z" fill="#5082EB"/>
<path d="M222.698 124.028C222.962 123.423 223.523 122.858 224.138 122.612C224.167 122.6 224.152 122.554 224.123 122.565C223.496 122.816 222.923 123.389 222.655 124.006C222.642 124.035 222.685 124.057 222.698 124.028Z" fill="#5082EB"/>
<path d="M224.092 124.382C224.213 125.129 224.595 125.841 225.075 126.419C225.095 126.443 225.136 126.416 225.116 126.392C224.641 125.82 224.26 125.119 224.141 124.379C224.136 124.349 224.087 124.351 224.092 124.382Z" fill="#5082EB"/>
<path d="M224.621 122.737C224.013 123.079 223.5 123.54 223.095 124.108C223.077 124.134 223.113 124.166 223.131 124.141C223.533 123.577 224.044 123.118 224.648 122.777C224.675 122.762 224.648 122.721 224.621 122.737Z" fill="#5082EB"/>
<path d="M221.992 127.687C224.263 128.517 224.574 129.295 224.291 130.262C224.007 131.229 223.178 131.932 221.573 131.604C217.69 130.808 213.889 127.917 214.079 127.267C214.218 126.795 218.83 126.531 221.992 127.687Z" fill="#ADC7FF"/>
<path d="M213.571 127.034C216.798 128.772 220.682 128.756 223.857 130.615C223.887 130.633 223.912 130.584 223.882 130.567C220.707 128.707 216.823 128.724 213.596 126.985C213.565 126.968 213.54 127.017 213.571 127.034Z" fill="#5082EB"/>
<path d="M219.211 128.957C219.505 128.277 220.141 127.636 220.832 127.363C220.865 127.35 220.848 127.298 220.815 127.311C220.111 127.59 219.462 128.238 219.163 128.932C219.149 128.964 219.197 128.989 219.211 128.957Z" fill="#5082EB"/>
<path d="M220.782 129.353C220.915 130.193 221.348 130.996 221.888 131.645C221.91 131.671 221.956 131.642 221.934 131.614C221.399 130.973 220.968 130.181 220.836 129.35C220.831 129.315 220.776 129.318 220.782 129.353Z" fill="#5082EB"/>
<path d="M221.375 127.503C220.692 127.887 220.113 128.407 219.658 129.046C219.638 129.074 219.678 129.111 219.699 129.083C220.151 128.448 220.726 127.931 221.405 127.549C221.436 127.531 221.405 127.486 221.375 127.503Z" fill="#5082EB"/>
<path d="M217.895 131.888C220.31 132.015 220.835 132.668 220.848 133.675C220.86 134.683 220.274 135.599 218.643 135.755C214.698 136.133 210.215 134.485 210.207 133.808C210.201 133.315 214.533 131.71 217.895 131.888Z" fill="#ADC7FF"/>
<path d="M209.65 133.733C213.246 134.447 216.953 133.295 220.534 134.14C220.568 134.148 220.58 134.095 220.545 134.087C216.964 133.242 213.257 134.393 209.661 133.679C209.627 133.672 209.615 133.726 209.65 133.733Z" fill="#5082EB"/>
<path d="M215.608 133.917C215.69 133.181 216.11 132.381 216.69 131.917C216.717 131.895 216.687 131.849 216.66 131.871C216.068 132.345 215.638 133.154 215.555 133.905C215.551 133.94 215.605 133.952 215.608 133.917Z" fill="#5082EB"/>
<path d="M217.23 133.842C217.604 134.606 218.255 135.245 218.962 135.706C218.991 135.726 219.016 135.677 218.987 135.658C218.287 135.2 217.646 134.568 217.275 133.812C217.26 133.781 217.214 133.811 217.23 133.842Z" fill="#5082EB"/>
<path d="M217.252 131.892C216.709 132.462 216.308 133.132 216.06 133.878C216.049 133.911 216.103 133.923 216.114 133.89C216.359 133.153 216.757 132.492 217.292 131.929C217.317 131.903 217.276 131.867 217.252 131.892Z" fill="#5082EB"/>
<path d="M212.05 118.716C210.992 116.541 210.186 116.312 209.253 116.692C208.321 117.073 207.706 117.971 208.197 119.533C209.385 123.314 212.65 126.8 213.277 126.544C213.732 126.358 213.523 121.743 212.05 118.716Z" fill="#ADC7FF"/>
<path d="M213.606 126.995C211.546 123.963 211.165 120.098 208.991 117.13C208.97 117.101 208.924 117.131 208.945 117.16C211.119 120.128 211.5 123.993 213.56 127.025C213.58 127.055 213.626 127.024 213.606 126.995Z" fill="#5082EB"/>
<path d="M211.102 121.655C211.761 121.286 212.34 120.575 212.545 119.845C212.555 119.811 212.501 119.8 212.492 119.834C212.29 120.549 211.717 121.248 211.071 121.609C211.041 121.626 211.071 121.672 211.102 121.655Z" fill="#5082EB"/>
<path d="M210.512 120.035C209.672 119.988 208.84 119.641 208.147 119.175C208.118 119.155 208.093 119.204 208.122 119.223C208.823 119.694 209.666 120.043 210.515 120.089C210.551 120.091 210.547 120.037 210.512 120.035Z" fill="#5082EB"/>
<path d="M212.247 119.285C211.936 119.999 211.48 120.624 210.895 121.139C210.869 121.162 210.91 121.199 210.936 121.176C211.525 120.658 211.983 120.029 212.296 119.31C212.31 119.277 212.261 119.252 212.247 119.285Z" fill="#5082EB"/>
<path d="M204.236 125.511C202.113 123.649 201.141 123.766 200.31 124.598C199.478 125.43 199.221 126.674 200.457 128.134C203.447 131.667 208.538 133.944 209.097 133.385C209.503 132.978 207.191 128.104 204.236 125.511Z" fill="#ADC7FF"/>
<path d="M209.654 133.718C206.821 131.88 204.872 129.02 202.376 126.794C201.706 126.197 200.994 125.646 200.223 125.184C200.188 125.163 200.159 125.22 200.194 125.241C203.091 126.978 205.067 129.837 207.51 132.102C208.171 132.714 208.868 133.285 209.624 133.775C209.659 133.798 209.688 133.741 209.654 133.718Z" fill="#5082EB"/>
<path d="M204.541 129.109C205.084 128.419 205.391 127.382 205.28 126.508C205.275 126.468 205.211 126.471 205.216 126.512C205.325 127.369 205.026 128.389 204.494 129.066C204.468 129.098 204.516 129.141 204.541 129.109Z" fill="#5082EB"/>
<path d="M203.182 127.626C202.26 127.957 201.2 127.961 200.247 127.772C200.207 127.764 200.193 127.827 200.233 127.835C201.199 128.026 202.268 128.022 203.202 127.687C203.241 127.673 203.221 127.612 203.182 127.626Z" fill="#5082EB"/>
<path d="M204.706 126.039C204.695 126.946 204.488 127.823 204.091 128.639C204.073 128.676 204.13 128.705 204.148 128.668C204.55 127.843 204.759 126.953 204.77 126.036C204.77 125.995 204.706 125.998 204.706 126.039Z" fill="#5082EB"/>
</g>
<path d="M138.322 157.517H115.07C114.158 156.378 113.206 155.603 111.783 155.661C107.28 155.843 104.629 153.921 103.303 151.297C103.291 151.275 103.281 151.253 103.27 151.231C102.964 150.614 102.731 149.959 102.563 149.284C102.558 149.263 102.553 149.241 102.547 149.22C102.494 148.999 102.447 148.777 102.408 148.553C101.719 144.663 92.113 143.937 95.1749 139.327C98.2367 134.717 107.037 139.202 110.426 136.831C110.797 136.571 111.201 136.327 111.631 136.107C111.649 136.097 111.668 136.088 111.687 136.078C115.178 134.307 120.316 134.035 123.199 138.63C123.635 139.326 124.068 139.857 124.504 140.268C125.005 140.741 125.512 141.056 126.035 141.283C126.055 141.292 126.074 141.301 126.095 141.309C128.495 142.319 131.253 141.544 135.492 145.676C138.588 148.694 138.822 153.535 138.322 157.517Z" fill="#5082EB"/>
<path d="M131.425 157.517H131.155C129.601 155.814 127.966 154.186 126.253 152.651C125.473 151.952 124.672 151.282 123.849 150.638C123.288 150.199 122.718 149.773 122.138 149.359C122.12 149.346 122.101 149.333 122.083 149.32C121.516 148.916 120.94 148.524 120.356 148.145C120.356 148.145 120.356 148.145 120.356 148.144C120.346 148.137 120.335 148.129 120.324 148.123C118.815 147.141 117.253 146.24 115.648 145.418C111.982 143.539 108.102 142.073 104.11 141.054C103.438 140.883 102.76 140.722 102.08 140.576C102.058 140.57 102.035 140.566 102.013 140.561C99.7737 140.081 97.4967 139.749 95.2114 139.653C95.0832 139.647 95.0832 139.449 95.2114 139.454C95.5124 139.467 95.8134 139.484 96.1145 139.505C99.293 139.729 102.448 140.36 105.511 141.226C105.887 141.332 106.261 141.442 106.635 141.556C106.656 141.562 106.677 141.568 106.698 141.575C109.731 142.505 112.688 143.693 115.517 145.128C115.539 145.139 115.561 145.15 115.584 145.162C116.131 145.439 116.674 145.727 117.211 146.024C117.321 146.084 117.43 146.145 117.539 146.206C117.558 146.217 117.577 146.228 117.596 146.238C119.793 147.476 121.884 148.869 123.865 150.411C124.455 150.871 125.035 151.343 125.605 151.83C125.621 151.843 125.638 151.856 125.654 151.87C126.266 152.394 126.868 152.933 127.457 153.486C128.83 154.775 130.154 156.122 131.425 157.517Z" fill="#5082EB"/>
<path d="M111.602 136.071C113.814 138.635 115.07 141.946 115.538 145.273C115.544 145.312 115.603 145.296 115.597 145.257C115.128 141.919 113.864 138.599 111.645 136.028C111.619 135.998 111.576 136.041 111.602 136.071Z" fill="#5082EB"/>
<path d="M113.641 135.38C114.848 136.974 115.839 138.726 116.57 140.588C117.284 142.405 117.861 144.353 117.521 146.319C117.514 146.357 117.573 146.374 117.58 146.335C117.915 144.395 117.369 142.485 116.674 140.687C115.936 138.778 114.929 136.981 113.693 135.349C113.67 135.318 113.617 135.348 113.641 135.38Z" fill="#5082EB"/>
<path d="M122.148 149.284C117.749 151.751 112.524 152.714 107.523 152.132C106.088 151.965 104.672 151.664 103.293 151.23C103.256 151.218 103.24 151.277 103.277 151.289C108.136 152.82 113.503 152.681 118.319 151.052C119.655 150.6 120.948 150.027 122.179 149.337C122.213 149.318 122.182 149.265 122.148 149.284Z" fill="#5082EB"/>
<path d="M120.312 148.126C116.03 150.204 111.077 150.717 106.395 150.056C105.1 149.873 103.819 149.593 102.565 149.221C102.527 149.21 102.511 149.269 102.549 149.28C107.104 150.63 112.089 150.793 116.686 149.545C117.945 149.203 119.17 148.748 120.343 148.179C120.379 148.162 120.348 148.109 120.312 148.126Z" fill="#5082EB"/>
<path d="M105.049 137.523C106.014 138.659 106.518 140.202 106.644 141.672C106.648 141.711 106.709 141.711 106.705 141.672C106.577 140.185 106.069 138.629 105.092 137.48C105.066 137.45 105.023 137.493 105.049 137.523Z" fill="#5082EB"/>
<path d="M102.109 140.45C100.695 142.149 98.6477 143.237 96.4472 143.455C96.4084 143.459 96.408 143.52 96.4472 143.516C98.6637 143.297 100.727 142.205 102.152 140.493C102.177 140.463 102.134 140.419 102.109 140.45Z" fill="#5082EB"/>
<path d="M126.034 141.295C126.125 143.112 126.325 144.921 126.455 146.735C126.58 148.479 126.449 150.281 125.598 151.843C125.579 151.877 125.632 151.908 125.65 151.873C126.466 150.378 126.631 148.655 126.533 146.98C126.421 145.083 126.19 143.194 126.095 141.295C126.093 141.256 126.032 141.256 126.034 141.295Z" fill="#5082EB"/>
<g opacity="0.4">
<path d="M213.211 152.62C213.211 152.62 212.389 143.677 217.242 140.989C222.095 138.3 223.334 141.38 226.315 138.637C229.296 135.894 233.03 137.612 234.779 139.716C236.528 141.82 242.925 140.494 244.075 143.969C245.225 147.445 238.969 146.232 237.851 148.594C236.732 150.956 234.398 152.691 230.629 151.495C226.859 150.3 225.83 159.908 213.211 152.62Z" fill="#5082EB"/>
<path d="M244.027 144.043C242.049 143.591 240.006 143.409 237.98 143.38C235.226 143.34 232.465 143.612 229.771 144.188C226.986 144.784 224.282 145.713 221.738 146.995C219.343 148.203 217.052 149.635 214.895 151.229C212.998 152.629 211.113 154.171 209.645 156.031C209.505 156.208 209.37 156.39 209.24 156.575C209.192 156.644 209.308 156.705 209.356 156.637C210.672 154.762 212.494 153.227 214.297 151.842C216.395 150.232 218.633 148.789 220.966 147.544C223.426 146.231 226.02 145.231 228.729 144.563C231.46 143.889 234.271 143.539 237.083 143.509C239.205 143.487 241.345 143.634 243.428 144.049C243.619 144.087 243.809 144.128 243.998 144.171C244.081 144.19 244.109 144.062 244.027 144.043Z" fill="#5082EB"/>
<path d="M219.325 140.166C217.444 142.863 217.536 146.282 217.657 149.421C217.658 149.447 217.698 149.445 217.697 149.419C217.576 146.286 217.483 142.877 219.361 140.185C219.376 140.164 219.34 140.145 219.325 140.166Z" fill="#5082EB"/>
<path d="M220.425 147.771C222.035 149.56 224.35 150.652 226.609 151.37C227.249 151.574 227.898 151.746 228.555 151.887C228.58 151.892 228.589 151.853 228.564 151.848C226.218 151.343 223.856 150.465 221.907 149.042C221.381 148.657 220.889 148.226 220.453 147.742C220.435 147.722 220.408 147.752 220.425 147.771Z" fill="#5082EB"/>
<path d="M234.141 138.992C232.277 140.244 230.89 142.145 230.01 144.192C229.999 144.216 230.035 144.235 230.045 144.211C230.923 142.17 232.304 140.275 234.163 139.026C234.184 139.011 234.162 138.977 234.141 138.992Z" fill="#5082EB"/>
<path d="M232.957 138.198C231.878 139.029 230.916 140.007 230.109 141.105C229.36 142.124 228.68 143.242 228.559 144.529C228.556 144.555 228.596 144.564 228.598 144.538C228.721 143.235 229.419 142.101 230.182 141.073C230.978 140.002 231.922 139.046 232.979 138.233C232.999 138.217 232.978 138.183 232.957 138.198Z" fill="#5082EB"/>
<path d="M225.098 145.648C227.491 148.005 230.685 149.538 234 150.033C234.933 150.172 235.877 150.225 236.819 150.189C236.845 150.188 236.843 150.148 236.817 150.149C233.478 150.278 230.106 149.267 227.334 147.415C226.543 146.886 225.803 146.285 225.125 145.618C225.107 145.6 225.079 145.63 225.098 145.648Z" fill="#5082EB"/>
<path d="M226.473 145.229C228.842 147.302 231.913 148.498 235.015 148.895C235.884 149.007 236.76 149.053 237.636 149.034C237.662 149.034 237.66 148.993 237.634 148.994C234.519 149.061 231.34 148.306 228.641 146.734C227.881 146.291 227.163 145.779 226.501 145.2C226.481 145.182 226.454 145.212 226.473 145.229Z" fill="#5082EB"/>
<path d="M238.068 141.061C237.244 141.622 236.648 142.53 236.308 143.455C236.299 143.479 236.339 143.488 236.347 143.464C236.683 142.549 237.276 141.65 238.09 141.095C238.111 141.081 238.09 141.047 238.068 141.061Z" fill="#5082EB"/>
<path d="M239.42 143.492C240.029 144.832 241.155 145.893 242.53 146.418C242.554 146.427 242.573 146.392 242.549 146.383C241.184 145.861 240.063 144.81 239.458 143.479C239.448 143.456 239.409 143.468 239.42 143.492Z" fill="#5082EB"/>
<path d="M224.003 139.834C223.616 141.013 223.151 142.164 222.748 143.337C222.383 144.402 222.178 145.549 222.442 146.661C222.448 146.687 222.486 146.674 222.481 146.649C222.206 145.492 222.447 144.306 222.837 143.205C223.235 142.083 223.671 140.974 224.042 139.843C224.05 139.818 224.011 139.809 224.003 139.834Z" fill="#5082EB"/>
<path d="M224.574 154.669C221.95 154.518 219.409 153.421 217.165 152.112C216.549 151.752 215.948 151.367 215.364 150.957C215.343 150.942 215.324 150.978 215.345 150.993C217.496 152.502 219.916 153.766 222.481 154.388C223.169 154.555 223.869 154.668 224.576 154.709C224.602 154.71 224.6 154.67 224.574 154.669Z" fill="#5082EB"/>
</g>
<path d="M165.141 117.399C164.698 119.314 158.855 123.128 158.347 124.846C158.3 125.004 158.298 125.144 158.35 125.263C158.462 125.521 158.557 125.772 158.638 126.017C158.647 126.041 158.653 126.063 158.659 126.085C158.729 126.296 158.786 126.501 158.832 126.703C158.876 126.891 158.911 127.076 158.938 127.258C158.942 127.281 158.947 127.305 158.949 127.326C159.029 129.02 158.642 130.409 158.044 131.532C157.152 133.209 155.79 134.29 154.811 134.898C154.114 135.332 153.613 135.526 153.613 135.526C153.283 136.466 154.451 151.725 156.402 157.518H131.59C130.845 139.394 129.921 133.835 129.921 133.835C125.134 129.886 125.218 122.979 125.956 118.897C125.956 118.893 125.956 118.89 125.957 118.887C125.992 118.692 126.043 118.518 126.108 118.363C126.108 118.361 126.109 118.361 126.109 118.36C126.88 116.509 129.682 117.096 133.557 112.025C133.883 111.599 134.21 111.152 134.537 110.685C134.888 110.184 135.238 109.658 135.583 109.107C135.711 108.906 135.836 108.701 135.961 108.494C135.983 108.46 136.002 108.428 136.021 108.394C136.188 108.121 136.351 107.841 136.513 107.555C136.699 107.231 136.88 106.901 137.062 106.563C137.081 106.525 137.101 106.487 137.121 106.45C138.744 103.388 140.194 99.7315 141.199 95.4105C141.379 94.6484 141.542 93.8672 141.69 93.0636C141.925 91.7831 143.633 92.6238 146.027 94.6204C147.388 95.7556 148.972 97.2626 150.633 98.9658C151.537 99.8915 152.465 100.875 153.392 101.887C154.74 103.36 156.089 104.893 157.367 106.4C159.048 108.381 160.607 110.316 161.881 112.003C161.945 112.087 162.006 112.17 162.068 112.251C162.08 112.267 162.091 112.283 162.101 112.296C164.047 114.894 165.266 116.852 165.141 117.399Z" fill="#FDBAA0"/>
<g opacity="0.5">
<path d="M168.862 106.07C164.841 105.383 155.913 106.573 155.913 106.573L155.911 106.57C155.067 105.275 154.2 103.688 153.322 101.731L155.538 100.283L168.862 106.07Z" fill="#F18E7B"/>
</g>
<path opacity="0.4" d="M158.045 131.53C157.952 131.43 157.86 131.251 157.771 130.979C156.71 127.738 146.371 128.325 146.371 128.325L158.347 124.844C158.3 125.002 158.298 125.142 158.35 125.261C158.462 125.519 158.558 125.77 158.638 126.015C158.647 126.038 158.653 126.061 158.659 126.083C158.729 126.294 158.786 126.499 158.832 126.701C158.876 126.889 158.911 127.074 158.939 127.256C158.942 127.279 158.948 127.303 158.949 127.324C159.029 129.018 158.642 130.407 158.045 131.53Z" fill="#F18E7B"/>
<path d="M161.617 112.098C163.414 112.876 165.338 113.2 167.29 113.053C167.414 113.043 167.397 112.852 167.273 112.861C165.352 113.006 163.467 112.69 161.7 111.924C161.586 111.874 161.503 112.049 161.617 112.098Z" fill="#F18E7B"/>
<path d="M142.949 128.07L178.706 124.989C181.265 124.768 183.16 122.515 182.939 119.957L177.096 52.1649C176.876 49.6063 174.623 47.711 172.064 47.9315L136.307 51.0135C133.749 51.234 131.854 53.4869 132.074 56.0454L137.917 123.837C138.138 126.396 140.391 128.291 142.949 128.07Z" fill="#E6EEFB"/>
<path d="M183.568 119.904L181.905 100.608V100.607L180.181 80.6118L180.137 80.105V80.1037L179.089 67.9344L178.317 58.9846L177.725 52.1125C177.475 49.2105 174.911 47.0537 172.01 47.3039L136.254 50.3861C134.845 50.5079 133.613 51.1742 132.744 52.1605C132.734 52.1722 132.724 52.1838 132.714 52.1968C131.814 53.2376 131.318 54.6258 131.445 56.1007L135.023 97.6054L135.961 108.494L137.288 123.892C137.539 126.794 140.102 128.951 143.003 128.701L144.225 128.596L144.333 128.587L158.949 127.327L167.281 126.607L167.403 126.597L178.761 125.618C180.212 125.493 181.476 124.789 182.347 123.753L182.366 123.73C183.225 122.698 183.693 121.343 183.568 119.904ZM136.362 51.6433L172.119 48.5611C174.327 48.3706 176.277 50.0128 176.468 52.2201L178.749 78.6832L178.8 79.2755L179.264 84.6518V84.6531L180.527 99.3123V99.3136L182.311 120.011C182.404 121.096 182.057 122.118 181.417 122.901C180.753 123.712 179.776 124.264 178.652 124.361L167.317 125.339L167.185 125.35L158.66 126.085L144.454 127.309L142.896 127.444C140.687 127.634 138.736 125.992 138.546 123.785L137.062 106.563L136.241 97.0468L132.703 55.9932C132.606 54.8694 132.984 53.8118 133.67 53.0199C134.329 52.255 135.278 51.7365 136.362 51.6433Z" fill="#383463"/>
<path d="M183.63 119.829L181.978 100.66V100.659L180.232 80.4082V80.4056L180.212 80.1762L179.181 68.2V68.1987L178.374 58.8446L177.787 52.036C177.537 49.1353 174.975 46.9785 172.073 47.2287L136.316 50.3109C134.874 50.4353 133.615 51.1327 132.744 52.1592C132.734 52.1709 132.724 52.1825 132.714 52.1955C131.854 53.2272 131.385 54.5842 131.508 56.0255L135.089 97.5717L136.022 108.393L137.352 123.817C137.602 126.718 140.165 128.875 143.067 128.624L144.241 128.523L144.343 128.514L158.939 127.257L167.276 126.539L167.399 126.527L178.823 125.543C180.24 125.422 181.479 124.748 182.347 123.752L182.367 123.729C183.264 122.688 183.757 121.302 183.63 119.829ZM178.715 124.286L167.312 125.269L167.18 125.28L158.638 126.017L144.456 127.239L142.958 127.368C140.75 127.558 138.798 125.917 138.609 123.709L137.121 106.449L136.309 97.0169L132.765 55.9166C132.672 54.8279 133.023 53.8014 133.67 53.0184C134.332 52.2135 135.305 51.664 136.424 51.5681L172.181 48.4859C174.389 48.2954 176.341 49.9363 176.53 52.1449L178.824 78.7635L178.855 79.1226V79.1239L179.312 84.4082L180.604 99.4018L182.374 119.936C182.47 121.055 182.097 122.107 181.416 122.899C180.756 123.671 179.804 124.193 178.715 124.286Z" fill="#5A669A"/>
<path d="M125.958 118.887C126.375 117.902 129.473 101.232 131.998 99.3995C136.325 96.2575 142.707 94.8027 146.231 94.6058C148.166 94.4977 150.353 93.9997 151.341 93.6469C151.912 93.4429 152.364 93.5255 152.679 94.0443C153.205 94.9102 153.03 96.2353 151.996 97.6109C149.565 100.842 143.96 101.543 143.96 101.543C142.589 102.535 141.799 104.113 139.207 105.246C138.713 105.462 148.876 127.633 142.188 132.952C130.782 142.025 125.821 119.21 125.958 118.887Z" fill="#FDBAA0"/>
<path d="M147.508 94.4667C147.508 94.4667 147.463 95.7527 148.586 95.7527C149.71 95.7527 152.479 94.568 152.479 93.7756C152.48 92.8039 149.015 94.1096 147.508 94.4667Z" fill="#FFC6B2"/>
<path d="M126.906 129.933C128.512 133.53 132.31 135.933 136.248 135.853C136.372 135.851 136.372 135.658 136.248 135.66C132.372 135.739 128.653 133.374 127.073 129.835C127.022 129.722 126.856 129.82 126.906 129.933Z" fill="#F18E7B"/>
<path d="M144.409 129.711C144.282 130.955 143.85 132.123 143.146 133.155C143.076 133.258 143.243 133.355 143.313 133.253C144.037 132.191 144.472 130.99 144.602 129.711C144.614 129.588 144.421 129.589 144.409 129.711Z" fill="#F18E7B"/>
<path d="M150.29 136.671C152.318 136.137 154.347 135.635 155.924 134.153C156.015 134.067 155.878 133.931 155.787 134.016C154.236 135.474 152.232 135.96 150.238 136.485C150.118 136.516 150.169 136.703 150.29 136.671Z" fill="#F18E7B"/>
<path d="M137.832 105.67C140.633 105.181 142.949 103.106 144.457 100.784C144.525 100.68 144.358 100.583 144.29 100.687C142.808 102.97 140.533 105.003 137.781 105.484C137.659 105.505 137.71 105.692 137.832 105.67Z" fill="#F18E7B"/>
<path d="M138.97 105.238C138.795 105.617 138.584 105.975 138.337 106.312C138.263 106.412 138.431 106.508 138.503 106.409C138.751 106.072 138.961 105.715 139.136 105.335C139.188 105.223 139.022 105.125 138.97 105.238Z" fill="#F18E7B"/>
<path opacity="0.2" d="M156.402 157.517H146.57C150.365 153.844 147.209 153.31 146.88 150.022C146.474 145.959 147.592 143.29 149.049 140.392C150.966 136.578 152.1 136.098 152.237 136.057L154.81 134.897C154.114 135.331 153.613 135.525 153.613 135.525C153.283 136.465 154.451 151.724 156.402 157.517Z" fill="#F18E7B"/>
<path d="M143.115 137.302C142.769 139.164 142.684 141.054 142.869 142.939C142.88 143.061 143.074 143.063 143.062 142.939C142.879 141.072 142.958 139.198 143.301 137.353C143.324 137.232 143.138 137.18 143.115 137.302Z" fill="#F18E7B"/>
<path d="M132.969 37.249C132.969 37.249 129.43 38.6448 130.519 42.0503L131.799 41.8898C131.799 41.8898 131.232 39.7265 133.602 38.4904L132.969 37.249Z" fill="#F6CC53"/>
<path d="M147.505 44.4521C147.505 44.4521 147.497 47.0075 145.496 47.0996L143.635 46.4635C143.635 46.4635 145.882 47.0424 145.708 44.6274L147.505 44.4521Z" fill="#F64D63"/>
<path d="M141.242 44.7478C141.242 44.7478 141.863 47.9641 145.882 47.0422C145.882 47.0422 143.613 46.4282 143.523 44.1611L141.242 44.7478Z" fill="#EB6E58"/>
<path d="M172.188 112.315L150.244 114.206C147.423 114.449 144.938 112.359 144.695 109.538C144.452 106.716 146.542 104.232 149.363 103.989L171.308 102.097C174.129 101.854 176.613 103.944 176.857 106.766C177.1 109.587 175.01 112.071 172.188 112.315Z" fill="#246AFF"/>
<path d="M223.132 157.516H186.862C186.06 156.894 185.199 156.194 184.274 155.405C184.273 155.404 184.271 155.404 184.27 155.403C184.147 155.299 184.032 155.187 183.924 155.071C181.003 151.946 183.326 144.949 185.442 144.661C185.469 144.657 185.496 144.654 185.524 144.653C185.55 144.651 185.578 144.651 185.604 144.652H185.611C185.623 144.653 185.635 144.654 185.647 144.654C185.647 144.654 185.572 144.524 185.433 144.274C185.382 144.179 185.319 144.068 185.248 143.94V143.939C185.179 143.814 185.101 143.674 185.016 143.518C184.985 143.462 184.953 143.402 184.919 143.341C184.918 143.339 184.917 143.336 184.916 143.334C184.629 142.809 184.268 142.139 183.85 141.346C182.59 138.947 180.811 135.425 179.005 131.393C177.179 127.314 175.891 123.973 174.439 120.82C173.047 117.796 171.73 114.989 170.337 112.219C166.938 105.457 171.245 103.448 173.672 106.585C177.587 111.646 183.538 123.261 185.791 126.032C186.032 126.329 186.232 126.524 186.381 126.599H186.382C186.433 126.625 186.478 126.636 186.518 126.633C186.566 126.629 186.605 126.603 186.634 126.552C187.052 125.837 186.192 121.618 191.036 121.769C192.948 121.828 194.133 123.952 194.839 124.714C195.014 124.902 195.158 125.008 195.277 124.978C195.329 124.966 195.376 124.929 195.417 124.864C196.003 123.95 195.196 121.486 199.153 121.082C200.804 120.914 201.92 121.901 202.531 122.282C202.63 122.343 202.716 122.389 202.789 122.411H202.79C202.845 122.428 202.893 122.432 202.933 122.417C202.959 122.409 202.981 122.392 203.001 122.368C204.315 120.72 205.803 120.789 207.068 121.527C209.411 122.892 209.612 125.565 214.371 133.433C215.26 134.903 215.908 138.725 216.713 142.69C217.451 146.328 218.321 150.086 219.628 152.258C220.195 153.2 221.474 155.113 223.132 157.516Z" fill="#FDBAA0"/>
<path d="M169.521 106.831C169.521 106.831 170.112 109.555 171.169 110.026C172.227 110.497 173.976 109.41 173.996 108.878C174.016 108.347 172.434 105.804 172.106 105.671C171.777 105.538 169.886 106.184 169.521 106.831Z" fill="#FFC6B2"/>
<path d="M185.212 144.053C186.326 145.693 187.287 147.424 188.09 149.237C188.135 149.337 188.281 149.25 188.237 149.151C187.434 147.338 186.473 145.607 185.359 143.967C185.298 143.877 185.15 143.962 185.212 144.053Z" fill="#F18E7B"/>
<path d="M199.152 157.517H186.639C185.843 156.855 185.047 156.142 184.273 155.406C184.272 155.405 184.271 155.404 184.27 155.404C184.154 155.294 184.039 155.183 183.924 155.072C181.707 152.931 179.693 150.647 178.354 148.936C175.111 144.793 174.473 143.601 173.833 140.864C173.608 139.897 172.978 138.779 172.255 137.738C170.967 135.878 169.387 134.259 169.31 134.181L169.308 134.179C168.395 133.189 170.33 131.453 173.241 132.149C176.15 132.844 179.143 137.456 179.143 137.456C180.274 138.314 182.611 141.3 183.224 142.429C183.394 142.742 184.036 143.084 184.998 143.511H184.999C185.005 143.514 185.01 143.516 185.016 143.519C187.52 144.627 192.173 146.306 196.335 149.539C199.258 151.809 199.951 155.019 199.152 157.517Z" fill="#FDBAA0"/>
<path d="M183.859 141.386C185.24 144.042 186.428 146.794 187.415 149.621C187.447 149.712 187.594 149.673 187.561 149.58C186.57 146.741 185.377 143.977 183.99 141.309C183.945 141.223 183.814 141.299 183.859 141.386Z" fill="#F18E7B"/>
<path d="M179.001 137.356C178.55 137.372 178.122 137.47 177.708 137.648C177.618 137.686 177.695 137.817 177.784 137.779C178.173 137.611 178.578 137.522 179.001 137.508C179.098 137.505 179.098 137.353 179.001 137.356Z" fill="#F18E7B"/>
<path d="M178.827 137.466C178.648 137.609 178.486 137.771 178.342 137.95C178.282 138.025 178.388 138.133 178.449 138.057C178.593 137.878 178.755 137.716 178.935 137.573C179.011 137.512 178.903 137.406 178.827 137.466Z" fill="#F18E7B"/>
<path d="M183.867 142.985C183.601 142.8 183.303 142.695 182.981 142.665C182.884 142.657 182.884 142.808 182.981 142.817C183.277 142.844 183.547 142.946 183.791 143.116C183.871 143.172 183.947 143.041 183.867 142.985Z" fill="#F18E7B"/>
<path d="M185.805 126.111C186.319 126.646 186.834 127.182 187.348 127.718C187.415 127.788 187.522 127.681 187.455 127.611C186.941 127.075 186.426 126.539 185.912 126.003C185.844 125.933 185.737 126.04 185.805 126.111Z" fill="#F18E7B"/>
<path d="M194.704 124.801C195.07 125.084 195.482 125.265 195.939 125.335C196.034 125.35 196.075 125.204 195.979 125.189C195.55 125.124 195.156 124.96 194.811 124.694C194.735 124.635 194.627 124.741 194.704 124.801Z" fill="#F18E7B"/>
<path d="M202.384 122.132C202.779 122.566 203.28 122.861 203.851 122.998C203.946 123.02 203.986 122.874 203.891 122.851C203.344 122.721 202.869 122.44 202.491 122.025C202.425 121.953 202.318 122.06 202.384 122.132Z" fill="#F18E7B"/>
<path d="M172.984 136.591C173.007 137.091 172.597 137.492 172.255 137.738C170.277 135.94 169.241 134.336 169.31 134.181L169.307 134.179C169.307 134.179 169.834 133.199 170.521 133.683C171.207 134.168 172.944 135.743 172.984 136.591Z" fill="#FFC6B2"/>
<path d="M176.79 120.296C177.459 119.78 178.225 119.448 179.06 119.311C179.155 119.296 179.115 119.15 179.019 119.165C178.173 119.304 177.393 119.642 176.713 120.165C176.637 120.224 176.713 120.356 176.79 120.296Z" fill="#F18E7B"/>
<path d="M177.852 120.595C178.093 120.51 178.334 120.426 178.575 120.341C178.666 120.309 178.627 120.163 178.534 120.195C178.294 120.28 178.053 120.364 177.812 120.449C177.72 120.481 177.76 120.628 177.852 120.595Z" fill="#F18E7B"/>
<path d="M185.994 49.7691L183.462 50.339L174.77 52.2949L140.907 59.9165L133.514 61.5808L127.163 63.0104L125.07 53.7154L123.194 45.3786L122.049 40.29L180.88 27.0488L181.727 30.8117L183.559 38.9507L185.994 49.7691Z" fill="#ADC7FF"/>
<path d="M180.882 27.0456L122.051 40.2881L122.518 42.3631L181.349 29.1207L180.882 27.0456Z" fill="#88B3FF"/>
<path d="M181.753 28.1683L176.332 29.3884L167.73 31.3244L141.151 37.3071L132.299 39.2992L121.46 41.7391L120.846 39.0102L119.852 34.5953L127.479 32.8786L155.99 26.4616L164.18 24.6185L175.981 21.9627L180.144 21.0254L181.476 26.942L181.753 28.1683Z" fill="#ADC7FF"/>
<path d="M150.223 27.5891C148.879 27.7497 147.322 27.8213 146.026 27.3678C144.876 26.9654 144.18 25.6968 144.592 24.5156C145.157 22.8948 147.078 24.1934 147.924 24.8507C148.904 25.6108 149.691 26.5794 150.259 27.6792C150.393 27.9393 150.852 27.7566 150.74 27.4763C150.309 26.3947 149.869 25.2471 149.881 24.0651C149.891 23.0368 150.44 21.5042 151.695 21.5248C153.322 21.5516 152.547 23.5793 152.169 24.4214C151.69 25.4888 151.054 26.4781 150.293 27.3656C150.431 27.4719 150.569 27.5784 150.707 27.6847C151.322 26.7601 152.07 25.9326 152.937 25.2379C153.355 24.9035 153.814 24.5451 154.317 24.3473C154.84 24.1414 155.6 24.1429 155.604 24.8874C155.61 26.0141 153.9 26.3279 153.077 26.5485C152.073 26.8176 151.057 27.0817 150.21 27.7129C149.941 27.9132 150.203 28.3706 150.476 28.1677C151.655 27.289 153.14 27.1777 154.48 26.6722C155.396 26.3267 156.602 25.4107 155.99 24.2814C155.374 23.146 153.913 23.8868 153.16 24.4162C152.008 25.2263 151.031 26.2474 150.252 27.4189C150.088 27.6652 150.47 27.9662 150.665 27.7381C151.642 26.6004 152.421 25.3129 152.946 23.907C153.174 23.2966 153.374 22.5881 153.133 21.9494C152.932 21.4155 152.443 21.0858 151.888 21.015C150.583 20.8483 149.669 22.1058 149.438 23.2501C149.138 24.7393 149.688 26.252 150.232 27.6164C150.392 27.5487 150.553 27.4811 150.713 27.4134C150.165 26.3508 149.412 25.3974 148.49 24.6329C147.684 23.9639 146.557 23.1284 145.449 23.1984C144.363 23.2669 143.886 24.4408 143.958 25.4001C144.037 26.4391 144.652 27.3518 145.613 27.7679C146.994 28.3661 148.762 28.2905 150.223 28.116C150.555 28.076 150.559 27.5488 150.223 27.5891Z" fill="#EB6E58"/>
<path d="M149.742 27.762C148.534 28.1966 147.243 28.6707 146.432 29.7228C146.057 30.2082 145.796 30.787 145.756 31.4043C145.707 32.1607 146.152 32.7572 146.243 33.4811C146.343 34.2728 145.771 34.9064 145.231 35.4041C144.74 35.858 144.238 36.2798 143.866 36.8437C143.162 37.9127 142.947 39.2358 143.22 40.4792C143.293 40.8102 143.8 40.6701 143.728 40.3391C143.455 39.0982 143.752 37.7497 144.573 36.7685C145.323 35.8724 146.522 35.2583 146.751 34.0136C146.862 33.4122 146.629 32.8962 146.437 32.3405C146.204 31.6684 146.252 31.0277 146.606 30.4055C147.288 29.2067 148.655 28.7115 149.882 28.2699C150.198 28.1559 150.062 27.6468 149.742 27.762Z" fill="#EB6E58"/>
<path d="M150.172 28.2627C151.082 27.6849 151.981 28.5297 152.574 29.1626C153.117 29.7429 153.701 30.37 154.517 30.5274C155.317 30.6815 156.093 30.3728 156.863 30.2035C157.822 29.9925 158.738 30.1961 159.428 30.9191C159.662 31.1648 160.034 30.792 159.8 30.5467C159.213 29.9314 158.397 29.5623 157.54 29.5828C156.536 29.6067 155.515 30.2538 154.512 29.9868C153.531 29.7258 152.988 28.7006 152.231 28.106C151.568 27.5856 150.663 27.3273 149.906 27.8079C149.621 27.989 149.884 28.4451 150.172 28.2627Z" fill="#EB6E58"/>
<path opacity="0.3" d="M127.656 34.2127C127.656 37.0265 125.374 39.3067 122.562 39.3067C121.959 39.3067 121.382 39.2019 120.846 39.0105L119.852 34.5956L127.479 32.8789C127.594 33.3043 127.656 33.7512 127.656 34.2127Z" fill="white"/>
<path opacity="0.3" d="M141.151 37.3077L132.298 39.2999C132.176 38.8899 132.111 38.4555 132.111 38.0058C132.111 35.4954 134.147 33.46 136.658 33.46C138.931 33.4599 140.815 35.1288 141.151 37.3077Z" fill="white"/>
<path opacity="0.1" d="M141.204 58.2969C141.204 58.8675 141.099 59.413 140.907 59.916L133.514 61.5803C132.649 60.7531 132.111 59.5882 132.111 58.2969C132.111 55.7864 134.147 53.751 136.658 53.751C139.168 53.751 141.204 55.7864 141.204 58.2969Z" fill="white"/>
<path opacity="0.1" d="M168.063 44.9385C168.64 42.495 167.127 40.0465 164.684 39.4695C162.24 38.8925 159.792 40.4056 159.215 42.8491C158.638 45.2926 160.151 47.7412 162.594 48.3181C165.038 48.8951 167.486 47.382 168.063 44.9385Z" fill="white"/>
<path opacity="0.1" d="M183.463 50.3391L174.77 52.295C174.515 51.727 174.373 51.0967 174.373 50.4338C174.373 47.9233 176.409 45.8879 178.919 45.8879C181.398 45.888 183.413 47.872 183.463 50.3391Z" fill="white"/>
<path opacity="0.1" d="M183.558 38.951C182.807 39.501 181.88 39.8251 180.878 39.8251C178.368 39.8251 176.332 37.7897 176.332 35.2792C176.332 32.7679 178.368 30.7324 180.878 30.7324C181.168 30.7324 181.451 30.7595 181.726 30.8119L183.558 38.951Z" fill="white"/>
<path opacity="0.1" d="M130.196 49.206C130.196 51.7165 128.161 53.7519 125.65 53.7519C125.453 53.7519 125.26 53.7393 125.07 53.7158L123.193 45.3789C123.901 44.9238 124.745 44.6592 125.65 44.6592C128.161 44.6592 130.196 46.6946 130.196 49.206Z" fill="white"/>
<path opacity="0.1" d="M147.146 51.5622C148.921 49.7869 148.921 46.9084 147.146 45.1331C145.37 43.3577 142.492 43.3577 140.717 45.1331C138.941 46.9084 138.941 49.7869 140.717 51.5622C142.492 53.3376 145.37 53.3376 147.146 51.5622Z" fill="white"/>
<path opacity="0.3" d="M165.015 27.2452C165.015 29.7565 162.979 31.792 160.468 31.792C157.957 31.792 155.922 29.7565 155.922 27.2452C155.922 26.9779 155.944 26.7169 155.99 26.4623L164.179 24.6191C164.705 25.3606 165.015 26.2672 165.015 27.2452Z" fill="white"/>
<path opacity="0.3" d="M176.333 29.2714C176.333 29.3102 176.332 29.3499 176.331 29.3888L167.73 31.3249C167.416 30.7081 167.24 30.0101 167.24 29.2715C167.24 26.761 169.276 24.7256 171.786 24.7256C174.297 24.7255 176.333 26.7609 176.333 29.2714Z" fill="white"/>
<path opacity="0.3" d="M181.475 26.9421C181.159 27.0116 180.83 27.0486 180.493 27.0486C177.983 27.0486 175.947 25.0132 175.947 22.5018C175.947 22.3194 175.958 22.1397 175.979 21.9627L180.143 21.0254L181.475 26.9421Z" fill="white"/>
<path d="M150.757 27.6384L149.523 27.916L155.964 56.5271L157.197 56.2495L150.757 27.6384Z" fill="#EB6E58"/>
<path d="M183.077 36.8005L124.246 50.043L124.454 50.9679L183.285 37.7254L183.077 36.8005Z" fill="#EB6E58"/>
<path d="M117.437 60.5078C117.437 60.5078 123.01 58.6838 121.646 53.3438L119.661 53.4735C119.661 53.4735 120.335 56.8544 116.576 58.5399L117.437 60.5078Z" fill="#75ACF2"/>
<path d="M94.3821 32.7367C94.3821 32.7367 90.9399 27.9885 86.2734 30.9212L87.0045 32.7714C87.0045 32.7714 90.0169 31.0951 92.7719 34.1581L94.3821 32.7367Z" fill="#75ACF2"/>
<path d="M109.107 50.3899C109.107 50.3899 108.289 54.2431 105.24 53.7513L102.633 52.2049C102.633 52.2049 105.842 53.7868 106.341 50.0879L109.107 50.3899Z" fill="#F64D63"/>
<path d="M99.5625 48.8625C99.5625 48.8625 99.4862 53.9116 105.84 53.7871C105.84 53.7871 102.611 52.1455 103.19 48.6963L99.5625 48.8625Z" fill="#EB6E58"/>
<path d="M124.801 72.94C125.227 73.0226 125.462 73.6551 125.128 73.9783C124.953 74.1481 124.64 74.1609 124.42 74.2543C124.224 74.3374 124.048 74.4624 123.932 74.6437C123.467 75.3675 124.118 76.1528 124.09 76.8979C124.069 77.45 123.4 77.3145 123.012 77.3683C122.597 77.4258 122.249 77.6487 122.185 78.0898C122.104 78.6428 122.595 79.0892 122.482 79.6478C122.362 80.2391 121.755 80.7467 121.141 80.6487C120.767 80.5887 120.605 81.1625 120.983 81.2229C121.906 81.3705 122.798 80.7668 123.041 79.861C123.186 79.3224 122.967 78.9661 122.827 78.4642C122.71 78.0393 122.905 77.966 123.27 77.9427C123.49 77.9286 123.715 77.9342 123.931 77.8786C124.791 77.6564 124.734 76.8037 124.548 76.1142C124.464 75.8048 124.254 75.3271 124.406 75.0116C124.59 74.6316 125.312 74.6763 125.607 74.3357C126.162 73.6953 125.8 72.5286 124.959 72.3657C124.585 72.2931 124.425 72.8669 124.801 72.94Z" fill="#F6CC53"/>
<path d="M84.837 68.7248C85.7252 68.0236 86.0187 66.7628 85.6783 65.7025C85.5208 65.2121 85.2269 64.7505 84.8058 64.4462C84.4169 64.1653 83.8278 64.0666 83.6078 64.603C83.1775 65.652 84.3113 66.6632 85.2154 66.894C86.366 67.1876 87.4494 66.5805 88.0005 65.5645C88.516 64.6142 88.7469 62.9714 87.9512 62.0963C87.6162 61.7279 87.0413 61.5811 86.5964 61.8501C86.0986 62.1512 86.1618 62.7328 86.3704 63.1973C86.8875 64.3491 88.1563 65.1693 89.4308 65.0542C90.6516 64.9438 91.7775 63.9832 91.9758 62.7556C92.0677 62.1864 91.9196 61.4303 91.292 61.2355C90.807 61.085 90.2073 61.3497 90.1968 61.9099C90.184 62.5957 90.9747 63.1808 91.5171 63.4591C92.1796 63.7991 92.9111 63.8973 93.6425 63.78C93.9546 63.7299 93.8222 63.2552 93.5116 63.305C92.6303 63.4463 91.701 63.1623 91.0641 62.5313C90.8952 62.364 90.5443 61.9994 90.777 61.7763C90.9754 61.5861 91.2612 61.7053 91.393 61.9149C91.6389 62.3056 91.4901 62.8897 91.2954 63.2693C90.4319 64.9531 88.1421 64.9084 87.0846 63.4538C86.8656 63.1524 86.413 62.4052 86.9667 62.2251C87.4765 62.0592 87.7781 62.6489 87.8744 63.0416C88.062 63.8068 87.9352 64.6855 87.5464 65.3689C87.1682 66.0338 86.5 66.5311 85.7094 66.4775C85.0311 66.4315 84.2824 66.0196 84.0806 65.332C84.0278 65.1522 83.9468 64.7181 84.2416 64.7008C84.4241 64.6901 84.6775 64.9675 84.7888 65.0936C85.0507 65.39 85.2136 65.7658 85.2841 66.153C85.4355 66.986 85.158 67.8481 84.4886 68.3765C84.2401 68.5728 84.5907 68.9192 84.837 68.7248Z" fill="#F6CC53"/>
<path d="M106.713 41.4784C107.092 41.0646 107.787 40.3989 108.383 40.795C108.728 41.0243 108.908 41.4661 109.163 41.7813C109.698 42.4432 110.396 42.3358 110.913 41.716C111.149 41.4331 111.411 40.9217 111.677 41.4439C111.874 41.8312 112.057 42.1477 112.496 42.2948C112.935 42.4421 113.408 42.3771 113.857 42.3165C114.276 42.26 115.053 42.1674 115.238 42.6797C115.368 43.0374 115.943 42.8831 115.813 42.5214C115.393 41.361 114.078 41.7832 113.158 41.7892C112.827 41.7913 112.522 41.7374 112.332 41.44C112.203 41.2379 112.156 40.9943 111.982 40.8179C111.694 40.5263 111.292 40.5228 110.974 40.7598C110.669 40.9872 110.45 41.5862 110.055 41.6578C109.649 41.7315 109.329 40.9676 109.128 40.7102C108.276 39.6199 107.078 40.1989 106.292 41.0572C106.033 41.3396 106.453 41.7618 106.713 41.4784Z" fill="#EB6E58"/>
<path d="M75 38.9527C75 38.9527 76.5631 37.9956 78.119 38.5227L78.3001 40.2634C78.3001 40.2634 76.3388 40.0394 75.5934 40.6955L75 38.9527Z" fill="#EB6E58"/>
<path d="M103.029 67.7321C103.029 67.7321 103.327 69.5405 102.253 70.7836L100.572 70.2962C100.572 70.2962 101.518 68.5633 101.191 67.626L103.029 67.7321Z" fill="#EB6E58"/>
<path d="M112.088 67.5053C112.088 67.5053 113.88 66.2017 115.806 66.6876L116.191 68.7683C116.191 68.7683 113.806 68.6866 112.97 69.549L112.088 67.5053Z" fill="#F6CC53"/>
<path d="M85.2031 47.4224C85.2031 47.4224 87.1219 43.3886 89.8083 42.6777L91.1276 44.5466C91.1276 44.5466 88.8611 46.3552 87.726 48.7371L85.2031 47.4224Z" fill="#F6CC53"/>
<path d="M206.541 51.1222C206.541 51.1222 210.231 47.9744 207.508 44.3184L206.031 45.0418C206.031 45.0418 207.609 47.4161 205.264 49.8874L206.541 51.1222Z" fill="#75ACF2"/>
<path d="M219.297 60.9385C219.297 60.9385 223.912 62.4324 225.599 58.198L224.209 57.3184C224.209 57.3184 223.014 59.9069 219.68 59.2038L219.297 60.9385Z" fill="#F6CC53"/>
<path d="M193.794 68.1406C193.794 68.1406 196.032 70.5086 194.264 72.352L191.986 73.3997C191.986 73.3997 194.571 71.9595 192.288 69.8814L193.794 68.1406Z" fill="#F64D63"/>
<path d="M188.27 73.9166C188.27 73.9166 191.67 76.3417 194.571 71.9593C194.571 71.9593 191.936 73.3854 189.861 71.3701L188.27 73.9166Z" fill="#EB6E58"/>
<path d="M218.926 90.6887C218.754 91.0889 218.104 91.1998 217.842 90.8086C217.697 90.5909 217.769 90.2669 217.714 90.0181C217.665 89.7962 217.565 89.5942 217.392 89.4431C216.741 88.8718 215.862 89.4079 215.144 89.1448C214.642 88.9612 214.986 88.2629 214.985 87.8761C214.985 87.4281 214.717 87.0732 214.267 87.0002C213.716 86.9108 213.225 87.2506 212.703 86.9153C212.205 86.5948 211.976 85.9719 212.193 85.4204C212.334 85.0637 211.758 84.909 211.619 85.2621C211.293 86.0904 211.73 87.069 212.497 87.4856C212.929 87.7201 213.337 87.6887 213.804 87.6155C214.188 87.5554 214.423 87.6311 214.373 88.0513C214.346 88.2877 214.276 88.5207 214.28 88.7607C214.295 89.663 215.127 89.8114 215.857 89.776C216.176 89.7605 216.692 89.6554 216.969 89.8653C217.319 90.1305 217.108 90.8413 217.401 91.2097C217.913 91.8541 219.106 91.7673 219.441 90.9891C219.591 90.641 219.078 90.3373 218.926 90.6887Z" fill="#F6CC53"/>
<path d="M217.947 71.1423C219.002 71.5205 220.21 71.1262 220.937 70.2939C221.284 69.8958 221.532 69.3949 221.571 68.8629C221.607 68.386 221.395 67.8393 220.823 67.9201C219.783 68.0671 219.469 69.4237 219.652 70.2741C219.902 71.4339 220.913 72.1428 222.076 72.1622C223.207 72.1812 224.741 71.5364 225.183 70.411C225.382 69.9051 225.244 69.2884 224.742 69.0142C224.196 68.7157 223.715 69.1223 223.425 69.5697C222.739 70.6294 222.748 72.1422 223.537 73.1447C224.268 74.0723 225.621 74.5063 226.737 74.0685C227.285 73.8535 227.894 73.3336 227.733 72.6736C227.601 72.1335 226.991 71.7775 226.507 72.1371C226.006 72.5093 225.921 73.363 225.954 73.9337C225.998 74.7047 226.301 75.4131 226.805 75.9934C227.013 76.233 227.36 75.8835 227.153 75.6451C226.57 74.9736 226.311 74.048 226.502 73.1731C226.548 72.9669 226.607 72.6895 226.794 72.5641C227.228 72.2733 227.309 72.9287 227.155 73.1763C226.917 73.5594 226.374 73.7161 225.949 73.7421C224.125 73.8538 223.004 71.9988 223.582 70.3631C223.704 70.0168 224.117 69.1335 224.585 69.4998C225.062 69.8726 224.616 70.5045 224.298 70.8008C223.694 71.363 222.836 71.7022 222.009 71.6686C221.232 71.637 220.528 71.2331 220.232 70.4975C220.003 69.9271 220.011 69.1865 220.436 68.7069C220.472 68.6662 220.532 68.5986 220.582 68.5675C220.665 68.468 220.766 68.4524 220.885 68.5206C221.049 68.491 221.116 68.5513 221.087 68.7014C221.132 68.8685 221.036 69.128 220.978 69.2894C220.852 69.6363 220.626 69.9425 220.351 70.1857C219.728 70.7352 218.867 70.9501 218.078 70.6674C217.78 70.5603 217.651 71.036 217.947 71.1423Z" fill="#F6CC53"/>
<path d="M188.702 86.8791C189.482 87.6723 190.708 87.8526 191.725 87.4419C192.213 87.2453 192.648 86.916 192.932 86.4695C193.204 86.0419 193.277 85.3738 192.661 85.2183C191.589 84.9475 190.737 86.1214 190.592 87.0334C190.407 88.191 191.081 89.2 192.128 89.6629C193.143 90.1116 194.81 90.1702 195.632 89.2916C195.975 88.9249 196.063 88.3426 195.762 87.9205C195.409 87.4245 194.801 87.5639 194.35 87.8378C193.28 88.4881 192.641 89.8008 192.867 91.0415C193.088 92.2528 194.177 93.2588 195.41 93.3428C195.967 93.3807 196.679 93.1756 196.853 92.574C196.999 92.0705 196.679 91.4515 196.107 91.4823C195.439 91.5181 194.947 92.3332 194.721 92.8766C194.427 93.5816 194.385 94.3524 194.587 95.0871C194.671 95.3924 195.146 95.2628 195.062 94.9562C194.822 94.0807 194.989 93.1264 195.56 92.4105C195.704 92.2307 196.03 91.8183 196.305 92.0409C196.465 92.1706 196.399 92.4718 196.283 92.6032C195.981 92.9456 195.377 92.8858 194.988 92.7702C193.137 92.2198 192.85 89.8848 194.139 88.6231C194.401 88.3669 195.09 87.7816 195.389 88.2508C195.692 88.7247 195.103 89.1501 194.727 89.2898C193.978 89.5685 193.08 89.5408 192.348 89.2232C191.648 88.9191 191.084 88.3102 191.052 87.5204C191.025 86.8574 191.332 86.09 191.965 85.7963C192.153 85.709 192.66 85.533 192.637 85.961C192.627 86.1466 192.401 86.3777 192.279 86.5042C192.01 86.7807 191.659 86.9691 191.29 87.0717C190.501 87.2909 189.632 87.123 189.05 86.531C188.828 86.3044 188.48 86.6527 188.702 86.8791Z" fill="#F6CC53"/>
<path d="M199.613 78.9668C199.613 78.9668 201.327 79.6178 201.862 81.171L200.595 82.3792C200.595 82.3792 199.573 80.6906 198.598 80.5023L199.613 78.9668Z" fill="#EB6E58"/>
<path d="M230.564 47.6825C230.564 47.6825 232.343 47.2399 233.668 48.2105L233.317 49.9251C233.317 49.9251 231.514 49.1215 230.606 49.5229L230.564 47.6825Z" fill="#EB6E58"/>
<path d="M236.847 84.335C236.847 84.335 238.127 85.6463 237.959 87.2804L236.302 87.8439C236.302 87.8439 236.085 85.8817 235.279 85.3009L236.847 84.335Z" fill="#EB6E58"/>
<path d="M205.445 62.583C205.445 62.583 206.918 61.4922 208.514 61.8804L208.848 63.5985C208.848 63.5985 206.874 63.5478 206.19 64.2669L205.445 62.583Z" fill="#EB6E58"/>
<path d="M196.564 38.125C196.564 38.125 198.037 37.0342 199.634 37.4224L199.967 39.1405C199.967 39.1405 197.994 39.0898 197.309 39.8089L196.564 38.125Z" fill="#EB6E58"/>
<path d="M188.857 60.1058C188.857 60.1058 190.764 56.0664 193.449 55.3477L194.773 57.2127C194.773 57.2127 192.512 59.0279 191.384 61.413L188.857 60.1058Z" fill="#F6CC53"/>
<path d="M237.851 66.1992C237.851 66.1992 241.961 67.9484 242.783 70.603L240.971 71.9989C240.971 71.9989 239.07 69.8097 236.643 68.7746L237.851 66.1992Z" fill="#F6CC53"/>
<path d="M206.867 72.3867C206.867 72.3867 211.126 73.7313 212.2 76.2942L210.531 77.8584C210.531 77.8584 208.428 75.8627 205.912 75.0666L206.867 72.3867Z" fill="#75ACF2"/>
<path d="M129.272 157.516C129.272 157.516 127.758 151.491 131.19 149.475C131.19 149.475 135.253 152.245 142.568 150.89C149.882 149.535 154.826 150.051 154.826 150.051C154.826 150.051 158.371 152.403 158.19 157.516H129.272Z" fill="#0F429F"/>
<path opacity="0.2" d="M223.131 157.516H208.49C219.598 157.516 216.678 142.664 216.678 142.664L216.712 142.69C217.45 146.328 218.32 150.086 219.627 152.258C220.194 153.2 221.473 155.112 223.131 157.516Z" fill="#F18E7B"/>
</svg>
