<svg width="320" height="159" viewBox="0 0 320 159" fill="none" xmlns="http://www.w3.org/2000/svg">
<path opacity="0.6" d="M299.832 157.574C302.426 152.993 306.489 142.108 308.809 130.841C315.846 96.2642 301.428 68.3658 273.403 51.8347C259.584 43.6685 246.83 42.543 235.774 43.5634C223.206 44.7232 212.832 48.6616 205.583 48.1877C195.293 47.5135 189.421 33.8953 174.355 21.3222C165.531 13.9623 153.552 6.98116 135.685 3.22057C113.87 -1.37391 84.8712 -1.77454 64.3087 6.81335C56.2168 10.1907 49.5072 14.9421 45.1453 21.3224C33.9249 37.7245 41.8351 59.3031 51.9516 76.4618C66.2897 100.779 47.5271 105.017 30.5727 114.661C17.7016 121.985 5.87194 132.852 10.3736 157.574H299.832V157.574Z" fill="#D5E6FE"/>
<path d="M319.638 158H0.362535C0.163141 158 0 157.836 0 157.636V157.512C0 157.312 0.163141 157.148 0.362535 157.148H319.637C319.837 157.148 320 157.312 320 157.512V157.636C320 157.837 319.837 158 319.638 158Z" fill="#8692C2"/>
<path d="M143.867 106.075H130.469V144.666H143.867V106.075Z" fill="#7DA7FF"/>
<path d="M130.468 106.075H95.0723V144.666H130.468V106.075Z" fill="#ADC7FF"/>
<path d="M130.469 127.656V124.955H95.0735V127.656H130.469Z" fill="#E0EAFF"/>
<path d="M143.865 127.656V124.955H130.467V127.656H143.865Z" fill="#C0D6FE"/>
<path d="M120.89 105.484C120.89 105.484 131.741 100.559 139.305 102.43L137.795 103.441L138.556 105.225C138.556 105.225 130.141 103.032 120.672 105.775L120.89 105.484Z" fill="#246AFF"/>
<path d="M119.036 105.295C119.036 105.295 117.625 105.124 115.522 104.835C109.939 104.067 99.4822 102.46 97.6054 100.974C94.6562 98.6381 101.645 88.7193 104.67 87.3426C107.695 85.967 119.036 105.295 119.036 105.295Z" fill="#72A9F7"/>
<path d="M141.162 92.9423C141.666 95.3996 118.83 106.015 118.83 106.015C118.83 106.015 119.246 104.892 119.921 103.133C119.921 103.133 119.922 103.131 119.923 103.13C122.392 96.7052 128.34 81.7958 130.294 82.0021C130.49 82.0224 130.72 82.0927 130.977 82.205C133.978 83.5259 140.697 90.6793 141.162 92.9423Z" fill="#72A9F7"/>
<path d="M130.779 84.3902C129.384 86.8127 120.064 102.879 119.918 103.13C122.387 96.7052 128.335 81.7958 130.289 82.0021C130.289 82.0021 130.676 81.991 130.971 82.205C131.328 82.4647 131.549 83.0524 130.779 84.3902Z" fill="#246AFF"/>
<path d="M115.524 104.835H115.521C109.938 104.067 99.481 102.46 97.6041 100.973C96.7566 98.5863 98.9556 98.3918 100.556 98.2238C102.155 98.0559 115.524 104.835 115.524 104.835Z" fill="#246AFF"/>
<path d="M114.773 106.053C114.773 106.053 116.054 103.141 118.573 102.98C121.204 102.811 122.699 106.053 122.699 106.053H114.773Z" fill="#246AFF"/>
<path d="M131.036 106.075H94V111.383H131.036V106.075Z" fill="#88B3FF"/>
<path d="M144.995 106.075H131.035V111.383H144.995V106.075Z" fill="#246AFF"/>
<path d="M116.07 105.633C116.07 105.633 108.816 103.335 103.921 104.854C98.2788 106.605 98.6131 113.567 98.6131 113.567L99.9401 113.022L101.731 113.862C101.731 113.862 102.034 106.49 106.634 105.458C110.611 104.566 116.07 105.633 116.07 105.633Z" fill="#246AFF"/>
<path d="M112.349 106.075H109.648V144.999H112.349V106.075Z" fill="#E0EAFF"/>
<path d="M190.115 43.1619V151.741C190.115 155.145 187.298 157.903 183.821 157.903H128.594C126.848 157.903 125.269 157.207 124.128 156.083C122.999 154.969 122.301 153.435 122.301 151.741V43.1619C122.301 39.7582 125.118 37 128.594 37H183.821C184.849 37 185.819 37.2408 186.676 37.6692C188.718 38.6875 190.115 40.7644 190.115 43.1619Z" fill="#8692C2"/>
<path d="M190.116 43.1621V151.742C190.116 155.145 187.299 157.903 183.822 157.903H128.595C126.849 157.903 125.269 157.208 124.129 156.084L186.677 37.6694C188.719 38.6878 190.116 40.7647 190.116 43.1621Z" fill="#8692C2"/>
<path d="M122.302 70.8767H122.019C120.904 70.8767 120 69.9918 120 68.8999V58.5087C120 57.4171 120.904 56.5322 122.019 56.5322H122.302V70.8767Z" fill="#8692C2"/>
<path d="M190.115 67.1237H190.347C191.26 67.1237 191.999 66.3995 191.999 65.5066V57.0605C191.999 56.1672 191.259 55.4434 190.347 55.4434H190.115V67.1237Z" fill="#8692C2"/>
<path d="M122.302 87.1676H122.019C120.904 87.1676 120 86.2827 120 85.1911V74.8C120 73.7084 120.904 72.8235 122.019 72.8235H122.302V87.1676Z" fill="#8692C2"/>
<path d="M186.977 42.7882V152.112C186.977 153.615 185.735 154.827 184.204 154.827H128.216C127.07 154.827 126.088 154.148 125.664 153.175C125.522 152.848 125.443 152.489 125.443 152.112V42.7882C125.443 41.2896 126.686 40.0732 128.216 40.0732H184.204C184.592 40.0732 184.959 40.1499 185.293 40.2893C186.283 40.7075 186.977 41.6695 186.977 42.7882Z" fill="white"/>
<path d="M177.671 145L182 145L182 126.603C178.708 126.603 176 124.502 175.646 121.802C175.44 122.015 175.13 122.154 174.778 122.154C174.157 122.154 173.653 121.728 173.653 121.204C173.653 120.679 174.157 120.253 174.778 120.253C175.129 120.253 175.439 120.392 175.645 120.605C175.997 117.903 178.707 115.8 182 115.8L182 60L177.661 60L177.661 60.0019C177.661 60.876 176.821 61.5844 175.787 61.5844C174.752 61.5844 173.913 60.876 173.913 60.0019L173.913 60L169.938 60L169.938 60.0019C169.938 60.876 169.099 61.5844 168.064 61.5844C167.029 61.5844 166.19 60.876 166.19 60.0019L166.19 60L162.215 60L162.215 60.0019C162.215 60.876 161.376 61.5844 160.341 61.5844C159.306 61.5844 158.467 60.876 158.467 60.0019L158.467 60L154.492 60L154.492 60.0019C154.492 60.876 153.653 61.5844 152.618 61.5844C151.583 61.5844 150.744 60.876 150.744 60.0019L150.744 60L146.769 60L146.769 60.0019C146.769 60.876 145.93 61.5844 144.895 61.5844C143.86 61.5844 143.021 60.876 143.021 60.0019L143.021 60L139.046 60L139.046 60.0019C139.046 60.876 138.207 61.5844 137.172 61.5844C136.137 61.5844 135.298 60.876 135.298 60.0019L135.298 60L131 60L131 115.8C134.296 115.8 137.008 117.907 137.356 120.612C137.563 120.395 137.876 120.253 138.233 120.253C138.854 120.253 139.358 120.679 139.358 121.204C139.358 121.728 138.854 122.154 138.233 122.154C137.876 122.154 137.562 122.012 137.355 121.795C137.005 124.498 134.295 126.603 131 126.603L131 145L135.329 145C135.382 144.166 136.192 143.502 137.193 143.502C138.194 143.502 139.004 144.166 139.057 145L143.052 145C143.105 144.166 143.915 143.502 144.916 143.502C145.917 143.502 146.727 144.166 146.78 145L150.775 145C150.828 144.166 151.639 143.502 152.639 143.502C153.64 143.502 154.451 144.166 154.504 145L158.499 145C158.552 144.166 159.362 143.502 160.363 143.502C161.364 143.502 162.174 144.166 162.227 145L166.222 145C166.275 144.166 167.085 143.502 168.086 143.502C169.087 143.502 169.897 144.166 169.95 145L173.943 145C173.996 144.166 174.806 143.502 175.807 143.502C176.808 143.502 177.618 144.166 177.671 145ZM141.164 121.204C141.164 120.679 141.668 120.253 142.293 120.253C142.914 120.253 143.415 120.679 143.415 121.204C143.415 121.729 142.914 122.154 142.293 122.154C141.668 122.154 141.164 121.729 141.164 121.204ZM145.225 121.204C145.225 120.679 145.729 120.253 146.351 120.253C146.972 120.253 147.476 120.679 147.476 121.204C147.476 121.729 146.972 122.154 146.351 122.154C145.729 122.154 145.225 121.729 145.225 121.204ZM149.286 121.204C149.286 120.679 149.79 120.253 150.412 120.253C151.033 120.253 151.537 120.679 151.537 121.204C151.537 121.729 151.033 122.154 150.412 122.154C149.79 122.154 149.286 121.729 149.286 121.204ZM153.347 121.204C153.347 120.679 153.851 120.253 154.473 120.253C155.094 120.253 155.598 120.679 155.598 121.204C155.598 121.729 155.094 122.154 154.473 122.154C153.851 122.154 153.347 121.729 153.347 121.204ZM157.408 121.204C157.408 120.679 157.912 120.253 158.534 120.253C159.155 120.253 159.659 120.679 159.659 121.204C159.659 121.729 159.155 122.154 158.534 122.154C157.912 122.154 157.408 121.729 157.408 121.204ZM161.469 121.204C161.469 120.679 161.973 120.253 162.595 120.253C163.216 120.253 163.72 120.679 163.72 121.204C163.72 121.729 163.216 122.154 162.595 122.154C161.974 122.154 161.469 121.729 161.469 121.204ZM165.53 121.204C165.53 120.679 166.034 120.253 166.656 120.253C167.277 120.253 167.781 120.679 167.781 121.204C167.781 121.729 167.277 122.154 166.656 122.154C166.034 122.154 165.53 121.729 165.53 121.204ZM169.592 121.204C169.592 120.679 170.096 120.253 170.717 120.253C171.338 120.253 171.842 120.679 171.842 121.204C171.842 121.729 171.338 122.154 170.717 122.154C170.095 122.154 169.592 121.729 169.592 121.204Z" fill="#ADC7FF"/>
<path d="M177.103 96.6914H175.391V98.4038H177.103V96.6914Z" fill="#246AFF"/>
<path d="M177.103 94.9775H175.391V96.69H177.103V94.9775Z" fill="#246AFF"/>
<path d="M177.103 93.2646H175.391V94.9771H177.103V93.2646Z" fill="#246AFF"/>
<path d="M177.103 88.127H175.391V89.8394H177.103V88.127Z" fill="#246AFF"/>
<path d="M177.103 86.415H175.391V88.1275H177.103V86.415Z" fill="#246AFF"/>
<path d="M177.103 84.7021H175.391V86.4146H177.103V84.7021Z" fill="#246AFF"/>
<path d="M175.392 94.9775H173.68V96.69H175.392V94.9775Z" fill="#246AFF"/>
<path d="M175.392 93.2646H173.68V94.9771H175.392V93.2646Z" fill="#246AFF"/>
<path d="M175.392 91.5527H173.68V93.2652H175.392V91.5527Z" fill="#246AFF"/>
<path d="M175.392 88.127H173.68V89.8394H175.392V88.127Z" fill="#246AFF"/>
<path d="M175.392 86.415H173.68V88.1275H175.392V86.415Z" fill="#246AFF"/>
<path d="M173.679 94.9775H171.967V96.69H173.679V94.9775Z" fill="#246AFF"/>
<path d="M173.679 93.2646H171.967V94.9771H173.679V93.2646Z" fill="#246AFF"/>
<path d="M173.679 89.8398H171.967V91.5523H173.679V89.8398Z" fill="#246AFF"/>
<path d="M173.679 88.127H171.967V89.8394H173.679V88.127Z" fill="#246AFF"/>
<path d="M173.679 86.415H171.967V88.1275H173.679V86.415Z" fill="#246AFF"/>
<path d="M173.679 84.7021H171.967V86.4146H173.679V84.7021Z" fill="#246AFF"/>
<path d="M171.966 96.6914H170.254V98.4038H171.966V96.6914Z" fill="#246AFF"/>
<path d="M171.966 94.9773H170.254V96.6897H171.966V94.9773Z" fill="#246AFF"/>
<path d="M171.966 89.8398H170.254V91.5523H171.966V89.8398Z" fill="#246AFF"/>
<path d="M171.966 88.1272H170.254V89.8396H171.966V88.1272Z" fill="#246AFF"/>
<path d="M171.966 86.4148H170.254V88.1272H171.966V86.4148Z" fill="#246AFF"/>
<path d="M171.966 84.7021H170.254V86.4146H171.966V84.7021Z" fill="#246AFF"/>
<path d="M170.253 96.6914H168.541V98.4038H170.253V96.6914Z" fill="#246AFF"/>
<path d="M170.253 94.9775H168.541V96.69H170.253V94.9775Z" fill="#246AFF"/>
<path d="M170.253 93.2646H168.541V94.9771H170.253V93.2646Z" fill="#246AFF"/>
<path d="M170.253 91.5527H168.541V93.2652H170.253V91.5527Z" fill="#246AFF"/>
<path d="M170.253 89.8398H168.541V91.5523H170.253V89.8398Z" fill="#246AFF"/>
<path d="M170.253 86.415H168.541V88.1275H170.253V86.415Z" fill="#246AFF"/>
<path d="M170.253 84.7021H168.541V86.4146H170.253V84.7021Z" fill="#246AFF"/>
<path d="M168.541 94.9773H166.828V96.6897H168.541V94.9773Z" fill="#246AFF"/>
<path d="M168.541 91.5527H166.828V93.2652H168.541V91.5527Z" fill="#246AFF"/>
<path d="M168.541 89.8398H166.828V91.5523H168.541V89.8398Z" fill="#246AFF"/>
<path d="M168.541 88.1272H166.828V89.8396H168.541V88.1272Z" fill="#246AFF"/>
<path d="M168.541 86.4148H166.828V88.1272H168.541V86.4148Z" fill="#246AFF"/>
<path d="M168.541 84.7021H166.828V86.4146H168.541V84.7021Z" fill="#246AFF"/>
<path d="M166.828 94.9775H165.115V96.69H166.828V94.9775Z" fill="#246AFF"/>
<path d="M166.828 93.2646H165.115V94.9771H166.828V93.2646Z" fill="#246AFF"/>
<path d="M166.828 91.5527H165.115V93.2652H166.828V91.5527Z" fill="#246AFF"/>
<path d="M166.828 84.7021H165.115V86.4146H166.828V84.7021Z" fill="#246AFF"/>
<path d="M177.103 81.2773H175.391V82.9898H177.103V81.2773Z" fill="#246AFF"/>
<path d="M177.103 79.5645H175.391V81.2769H177.103V79.5645Z" fill="#246AFF"/>
<path d="M177.103 77.8506H175.391V79.563H177.103V77.8506Z" fill="#246AFF"/>
<path d="M177.103 76.1377H175.391V77.8501H177.103V76.1377Z" fill="#246AFF"/>
<path d="M177.103 74.4258H175.391V76.1382H177.103V74.4258Z" fill="#246AFF"/>
<path d="M177.103 72.7129H175.391V74.4253H177.103V72.7129Z" fill="#246AFF"/>
<path d="M177.103 71H175.391V72.7124H177.103V71Z" fill="#246AFF"/>
<path d="M175.392 71H173.68V72.7124H175.392V71Z" fill="#246AFF"/>
<path d="M173.679 81.2773H171.967V82.9898H173.679V81.2773Z" fill="#246AFF"/>
<path d="M175.392 81.2773H173.68V82.9898H175.392V81.2773Z" fill="#246AFF"/>
<path d="M173.679 77.8506H171.967V79.563H173.679V77.8506Z" fill="#246AFF"/>
<path d="M173.679 76.1377H171.967V77.8501H173.679V76.1377Z" fill="#246AFF"/>
<path d="M173.679 74.4258H171.967V76.1382H173.679V74.4258Z" fill="#246AFF"/>
<path d="M173.679 71H171.967V72.7124H173.679V71Z" fill="#246AFF"/>
<path d="M171.966 81.2773H170.254V82.9898H171.966V81.2773Z" fill="#246AFF"/>
<path d="M171.966 77.8506H170.254V79.563H171.966V77.8506Z" fill="#246AFF"/>
<path d="M171.966 76.1377H170.254V77.8501H171.966V76.1377Z" fill="#246AFF"/>
<path d="M171.966 74.4258H170.254V76.1382H171.966V74.4258Z" fill="#246AFF"/>
<path d="M171.966 71H170.254V72.7124H171.966V71Z" fill="#246AFF"/>
<path d="M170.253 81.2773H168.541V82.9898H170.253V81.2773Z" fill="#246AFF"/>
<path d="M170.253 77.8506H168.541V79.563H170.253V77.8506Z" fill="#246AFF"/>
<path d="M170.253 76.1377H168.541V77.8501H170.253V76.1377Z" fill="#246AFF"/>
<path d="M170.253 74.4258H168.541V76.1382H170.253V74.4258Z" fill="#246AFF"/>
<path d="M170.253 71H168.541V72.7124H170.253V71Z" fill="#246AFF"/>
<path d="M168.541 81.2773H166.828V82.9898H168.541V81.2773Z" fill="#246AFF"/>
<path d="M168.541 71H166.828V72.7124H168.541V71Z" fill="#246AFF"/>
<path d="M166.828 81.2773H165.115V82.9898H166.828V81.2773Z" fill="#246AFF"/>
<path d="M166.828 79.5645H165.115V81.2769H166.828V79.5645Z" fill="#246AFF"/>
<path d="M166.828 77.8506H165.115V79.563H166.828V77.8506Z" fill="#246AFF"/>
<path d="M166.828 76.1377H165.115V77.8501H166.828V76.1377Z" fill="#246AFF"/>
<path d="M166.828 74.4258H165.115V76.1382H166.828V74.4258Z" fill="#246AFF"/>
<path d="M166.828 72.7129H165.115V74.4253H166.828V72.7129Z" fill="#246AFF"/>
<path d="M166.828 71H165.115V72.7124H166.828V71Z" fill="#246AFF"/>
<path d="M165.115 96.6914H163.402V98.4038H165.115V96.6914Z" fill="#246AFF"/>
<path d="M165.115 94.9775H163.402V96.69H165.115V94.9775Z" fill="#246AFF"/>
<path d="M165.115 91.5527H163.402V93.2652H165.115V91.5527Z" fill="#246AFF"/>
<path d="M165.115 86.415H163.402V88.1275H165.115V86.415Z" fill="#246AFF"/>
<path d="M165.115 84.7021H163.402V86.4146H165.115V84.7021Z" fill="#246AFF"/>
<path d="M163.402 84.7021H161.689V86.4146H163.402V84.7021Z" fill="#246AFF"/>
<path d="M163.402 72.7131H161.689V74.4256H163.402V72.7131Z" fill="#246AFF"/>
<path d="M163.402 81.2773H161.689V82.9898H163.402V81.2773Z" fill="#246AFF"/>
<path d="M163.402 77.8506H161.689V79.563H163.402V77.8506Z" fill="#246AFF"/>
<path d="M161.689 108.679H159.977V110.391H161.689V108.679Z" fill="#246AFF"/>
<path d="M163.402 110.391H161.689V112.104H163.402V110.391Z" fill="#246AFF"/>
<path d="M161.689 101.829H159.977V103.542H161.689V101.829Z" fill="#246AFF"/>
<path d="M161.689 100.116H159.977V101.829H161.689V100.116Z" fill="#246AFF"/>
<path d="M161.689 98.4033H159.977V100.116H161.689V98.4033Z" fill="#246AFF"/>
<path d="M161.689 84.7021H159.977V86.4146H161.689V84.7021Z" fill="#246AFF"/>
<path d="M161.689 79.5645H159.977V81.2769H161.689V79.5645Z" fill="#246AFF"/>
<path d="M161.689 74.4258H159.977V76.1382H161.689V74.4258Z" fill="#246AFF"/>
<path d="M161.689 72.7129H159.977V74.4253H161.689V72.7129Z" fill="#246AFF"/>
<path d="M161.689 71H159.977V72.7124H161.689V71Z" fill="#246AFF"/>
<path d="M165.115 89.8398H163.402V91.5523H165.115V89.8398Z" fill="#246AFF"/>
<path d="M163.402 88.1272H161.689V89.8396H163.402V88.1272Z" fill="#246AFF"/>
<path d="M159.978 108.679H158.266V110.391H159.978V108.679Z" fill="#246AFF"/>
<path d="M159.978 106.967H158.266V108.679H159.978V106.967Z" fill="#246AFF"/>
<path d="M159.978 101.829H158.266V103.542H159.978V101.829Z" fill="#246AFF"/>
<path d="M159.978 100.116H158.266V101.829H159.978V100.116Z" fill="#246AFF"/>
<path d="M159.978 98.4033H158.266V100.116H159.978V98.4033Z" fill="#246AFF"/>
<path d="M159.978 96.6914H158.266V98.4038H159.978V96.6914Z" fill="#246AFF"/>
<path d="M159.978 94.9775H158.266V96.69H159.978V94.9775Z" fill="#246AFF"/>
<path d="M159.978 93.2646H158.266V94.9771H159.978V93.2646Z" fill="#246AFF"/>
<path d="M159.978 91.5527H158.266V93.2652H159.978V91.5527Z" fill="#246AFF"/>
<path d="M159.978 89.8398H158.266V91.5523H159.978V89.8398Z" fill="#246AFF"/>
<path d="M159.978 88.127H158.266V89.8394H159.978V88.127Z" fill="#246AFF"/>
<path d="M159.978 82.9893H158.266V84.7017H159.978V82.9893Z" fill="#246AFF"/>
<path d="M159.978 81.2773H158.266V82.9898H159.978V81.2773Z" fill="#246AFF"/>
<path d="M159.978 79.5645H158.266V81.2769H159.978V79.5645Z" fill="#246AFF"/>
<path d="M159.978 74.4258H158.266V76.1382H159.978V74.4258Z" fill="#246AFF"/>
<path d="M159.978 72.7129H158.266V74.4253H159.978V72.7129Z" fill="#246AFF"/>
<path d="M158.265 108.679H156.553V110.391H158.265V108.679Z" fill="#246AFF"/>
<path d="M158.265 106.967H156.553V108.679H158.265V106.967Z" fill="#246AFF"/>
<path d="M158.265 100.116H156.553V101.829H158.265V100.116Z" fill="#246AFF"/>
<path d="M158.265 98.4033H156.553V100.116H158.265V98.4033Z" fill="#246AFF"/>
<path d="M158.265 93.2646H156.553V94.9771H158.265V93.2646Z" fill="#246AFF"/>
<path d="M158.265 91.5527H156.553V93.2652H158.265V91.5527Z" fill="#246AFF"/>
<path d="M158.265 86.415H156.553V88.1275H158.265V86.415Z" fill="#246AFF"/>
<path d="M158.265 84.7021H156.553V86.4146H158.265V84.7021Z" fill="#246AFF"/>
<path d="M158.265 82.9893H156.553V84.7017H158.265V82.9893Z" fill="#246AFF"/>
<path d="M158.265 81.2773H156.553V82.9898H158.265V81.2773Z" fill="#246AFF"/>
<path d="M158.265 79.5645H156.553V81.2769H158.265V79.5645Z" fill="#246AFF"/>
<path d="M158.265 76.1377H156.553V77.8501H158.265V76.1377Z" fill="#246AFF"/>
<path d="M158.265 72.7129H156.553V74.4253H158.265V72.7129Z" fill="#246AFF"/>
<path d="M156.552 110.391H154.84V112.104H156.552V110.391Z" fill="#246AFF"/>
<path d="M156.552 106.967H154.84V108.679H156.552V106.967Z" fill="#246AFF"/>
<path d="M156.552 105.254H154.84V106.966H156.552V105.254Z" fill="#246AFF"/>
<path d="M156.552 101.829H154.84V103.541H156.552V101.829Z" fill="#246AFF"/>
<path d="M156.552 100.116H154.84V101.829H156.552V100.116Z" fill="#246AFF"/>
<path d="M156.552 98.4036H154.84V100.116H156.552V98.4036Z" fill="#246AFF"/>
<path d="M156.552 96.6914H154.84V98.4038H156.552V96.6914Z" fill="#246AFF"/>
<path d="M156.552 86.4148H154.84V88.1272H156.552V86.4148Z" fill="#246AFF"/>
<path d="M156.552 84.7021H154.84V86.4146H156.552V84.7021Z" fill="#246AFF"/>
<path d="M153.127 77.8506H151.414V79.563H153.127V77.8506Z" fill="#246AFF"/>
<path d="M156.552 81.2773H154.84V82.9898H156.552V81.2773Z" fill="#246AFF"/>
<path d="M156.552 79.5645H154.84V81.2769H156.552V79.5645Z" fill="#246AFF"/>
<path d="M156.552 76.1377H154.84V77.8501H156.552V76.1377Z" fill="#246AFF"/>
<path d="M154.839 110.392H153.127V112.104H154.839V110.392Z" fill="#246AFF"/>
<path d="M154.839 108.679H153.127V110.391H154.839V108.679Z" fill="#246AFF"/>
<path d="M154.839 106.967H153.127V108.679H154.839V106.967Z" fill="#246AFF"/>
<path d="M154.839 101.829H153.127V103.542H154.839V101.829Z" fill="#246AFF"/>
<path d="M154.839 96.6914H153.127V98.4038H154.839V96.6914Z" fill="#246AFF"/>
<path d="M154.839 88.127H153.127V89.8394H154.839V88.127Z" fill="#246AFF"/>
<path d="M154.839 86.415H153.127V88.1275H154.839V86.415Z" fill="#246AFF"/>
<path d="M154.839 84.7021H153.127V86.4146H154.839V84.7021Z" fill="#246AFF"/>
<path d="M154.839 81.2773H153.127V82.9898H154.839V81.2773Z" fill="#246AFF"/>
<path d="M154.839 79.5645H153.127V81.2769H154.839V79.5645Z" fill="#246AFF"/>
<path d="M154.839 71H153.127V72.7124H154.839V71Z" fill="#246AFF"/>
<path d="M153.127 110.391H151.414V112.104H153.127V110.391Z" fill="#246AFF"/>
<path d="M153.127 108.679H151.414V110.391H153.127V108.679Z" fill="#246AFF"/>
<path d="M153.127 106.967H151.414V108.679H153.127V106.967Z" fill="#246AFF"/>
<path d="M153.127 105.254H151.414V106.966H153.127V105.254Z" fill="#246AFF"/>
<path d="M153.127 103.541H151.414V105.253H153.127V103.541Z" fill="#246AFF"/>
<path d="M153.127 101.829H151.414V103.541H153.127V101.829Z" fill="#246AFF"/>
<path d="M153.127 96.6914H151.414V98.4038H153.127V96.6914Z" fill="#246AFF"/>
<path d="M153.127 93.2646H151.414V94.9771H153.127V93.2646Z" fill="#246AFF"/>
<path d="M153.127 91.5527H151.414V93.2652H153.127V91.5527Z" fill="#246AFF"/>
<path d="M153.127 86.4148H151.414V88.1272H153.127V86.4148Z" fill="#246AFF"/>
<path d="M153.127 72.7131H151.414V74.4256H153.127V72.7131Z" fill="#246AFF"/>
<path d="M153.127 71H151.414V72.7124H153.127V71Z" fill="#246AFF"/>
<path d="M151.414 110.392H149.701V112.104H151.414V110.392Z" fill="#246AFF"/>
<path d="M151.414 105.254H149.701V106.966H151.414V105.254Z" fill="#246AFF"/>
<path d="M151.414 103.541H149.701V105.253H151.414V103.541Z" fill="#246AFF"/>
<path d="M151.414 101.829H149.701V103.542H151.414V101.829Z" fill="#246AFF"/>
<path d="M151.414 100.116H149.701V101.829H151.414V100.116Z" fill="#246AFF"/>
<path d="M151.414 98.4033H149.701V100.116H151.414V98.4033Z" fill="#246AFF"/>
<path d="M151.414 96.6914H149.701V98.4038H151.414V96.6914Z" fill="#246AFF"/>
<path d="M151.414 93.2646H149.701V94.9771H151.414V93.2646Z" fill="#246AFF"/>
<path d="M151.414 91.5527H149.701V93.2652H151.414V91.5527Z" fill="#246AFF"/>
<path d="M151.414 89.8398H149.701V91.5523H151.414V89.8398Z" fill="#246AFF"/>
<path d="M151.414 88.127H149.701V89.8394H151.414V88.127Z" fill="#246AFF"/>
<path d="M151.414 86.415H149.701V88.1275H151.414V86.415Z" fill="#246AFF"/>
<path d="M151.414 84.7021H149.701V86.4146H151.414V84.7021Z" fill="#246AFF"/>
<path d="M151.414 76.1377H149.701V77.8501H151.414V76.1377Z" fill="#246AFF"/>
<path d="M151.414 74.4258H149.701V76.1382H151.414V74.4258Z" fill="#246AFF"/>
<path d="M151.414 72.7129H149.701V74.4253H151.414V72.7129Z" fill="#246AFF"/>
<path d="M151.414 71H149.701V72.7124H151.414V71Z" fill="#246AFF"/>
<path d="M163.402 103.541H161.689V105.253H163.402V103.541Z" fill="#246AFF"/>
<path d="M163.402 94.9773H161.689V96.6897H163.402V94.9773Z" fill="#246AFF"/>
<path d="M149.701 110.392H147.988V112.104H149.701V110.392Z" fill="#246AFF"/>
<path d="M149.701 108.679H147.988V110.391H149.701V108.679Z" fill="#246AFF"/>
<path d="M149.701 106.967H147.988V108.679H149.701V106.967Z" fill="#246AFF"/>
<path d="M149.701 105.254H147.988V106.966H149.701V105.254Z" fill="#246AFF"/>
<path d="M149.701 103.541H147.988V105.253H149.701V103.541Z" fill="#246AFF"/>
<path d="M149.701 101.829H147.988V103.542H149.701V101.829Z" fill="#246AFF"/>
<path d="M149.701 100.116H147.988V101.829H149.701V100.116Z" fill="#246AFF"/>
<path d="M149.701 98.4033H147.988V100.116H149.701V98.4033Z" fill="#246AFF"/>
<path d="M149.701 96.6914H147.988V98.4038H149.701V96.6914Z" fill="#246AFF"/>
<path d="M149.701 94.9775H147.988V96.69H149.701V94.9775Z" fill="#246AFF"/>
<path d="M149.701 93.2646H147.988V94.9771H149.701V93.2646Z" fill="#246AFF"/>
<path d="M149.701 89.8398H147.988V91.5523H149.701V89.8398Z" fill="#246AFF"/>
<path d="M149.701 88.127H147.988V89.8394H149.701V88.127Z" fill="#246AFF"/>
<path d="M149.701 86.415H147.988V88.1275H149.701V86.415Z" fill="#246AFF"/>
<path d="M147.988 105.254H146.275V106.966H147.988V105.254Z" fill="#246AFF"/>
<path d="M147.988 100.116H146.275V101.829H147.988V100.116Z" fill="#246AFF"/>
<path d="M147.988 98.4036H146.275V100.116H147.988V98.4036Z" fill="#246AFF"/>
<path d="M147.988 96.6914H146.275V98.4038H147.988V96.6914Z" fill="#246AFF"/>
<path d="M147.988 94.9773H146.275V96.6897H147.988V94.9773Z" fill="#246AFF"/>
<path d="M147.988 93.2646H146.275V94.9771H147.988V93.2646Z" fill="#246AFF"/>
<path d="M147.988 91.5527H146.275V93.2652H147.988V91.5527Z" fill="#246AFF"/>
<path d="M147.988 88.1272H146.275V89.8396H147.988V88.1272Z" fill="#246AFF"/>
<path d="M147.988 84.7021H146.275V86.4146H147.988V84.7021Z" fill="#246AFF"/>
<path d="M146.275 100.116H144.562V101.829H146.275V100.116Z" fill="#246AFF"/>
<path d="M146.275 96.6914H144.562V98.4038H146.275V96.6914Z" fill="#246AFF"/>
<path d="M146.275 93.2646H144.562V94.9771H146.275V93.2646Z" fill="#246AFF"/>
<path d="M146.275 91.5527H144.562V93.2652H146.275V91.5527Z" fill="#246AFF"/>
<path d="M146.275 88.127H144.562V89.8394H146.275V88.127Z" fill="#246AFF"/>
<path d="M146.275 86.415H144.562V88.1275H146.275V86.415Z" fill="#246AFF"/>
<path d="M146.275 84.7021H144.562V86.4146H146.275V84.7021Z" fill="#246AFF"/>
<path d="M144.564 108.679H142.852V110.391H144.564V108.679Z" fill="#246AFF"/>
<path d="M144.564 100.116H142.852V101.829H144.564V100.116Z" fill="#246AFF"/>
<path d="M144.564 96.6914H142.852V98.4038H144.564V96.6914Z" fill="#246AFF"/>
<path d="M144.564 93.2646H142.852V94.9771H144.564V93.2646Z" fill="#246AFF"/>
<path d="M144.564 89.8398H142.852V91.5523H144.564V89.8398Z" fill="#246AFF"/>
<path d="M144.564 88.127H142.852V89.8394H144.564V88.127Z" fill="#246AFF"/>
<path d="M144.564 86.415H142.852V88.1275H144.564V86.415Z" fill="#246AFF"/>
<path d="M142.851 110.392H141.139V112.104H142.851V110.392Z" fill="#246AFF"/>
<path d="M142.851 108.679H141.139V110.391H142.851V108.679Z" fill="#246AFF"/>
<path d="M142.851 103.541H141.139V105.253H142.851V103.541Z" fill="#246AFF"/>
<path d="M142.851 101.829H141.139V103.542H142.851V101.829Z" fill="#246AFF"/>
<path d="M146.275 103.541H144.562V105.253H146.275V103.541Z" fill="#246AFF"/>
<path d="M142.851 100.116H141.139V101.829H142.851V100.116Z" fill="#246AFF"/>
<path d="M142.851 96.6914H141.139V98.4038H142.851V96.6914Z" fill="#246AFF"/>
<path d="M142.851 106.967H141.139V108.679H142.851V106.967Z" fill="#246AFF"/>
<path d="M142.851 105.254H141.139V106.966H142.851V105.254Z" fill="#246AFF"/>
<path d="M141.138 105.254H139.426V106.966H141.138V105.254Z" fill="#246AFF"/>
<path d="M139.425 106.967H137.713V108.679H139.425V106.967Z" fill="#246AFF"/>
<path d="M139.425 105.254H137.713V106.966H139.425V105.254Z" fill="#246AFF"/>
<path d="M142.851 88.127H141.139V89.8394H142.851V88.127Z" fill="#246AFF"/>
<path d="M142.851 86.415H141.139V88.1275H142.851V86.415Z" fill="#246AFF"/>
<path d="M142.851 84.7021H141.139V86.4146H142.851V84.7021Z" fill="#246AFF"/>
<path d="M141.138 110.391H139.426V112.104H141.138V110.391Z" fill="#246AFF"/>
<path d="M141.138 101.829H139.426V103.541H141.138V101.829Z" fill="#246AFF"/>
<path d="M141.138 100.116H139.426V101.829H141.138V100.116Z" fill="#246AFF"/>
<path d="M141.138 98.4036H139.426V100.116H141.138V98.4036Z" fill="#246AFF"/>
<path d="M141.138 89.8398H139.426V91.5523H141.138V89.8398Z" fill="#246AFF"/>
<path d="M141.138 84.7021H139.426V86.4146H141.138V84.7021Z" fill="#246AFF"/>
<path d="M139.425 101.829H137.713V103.542H139.425V101.829Z" fill="#246AFF"/>
<path d="M139.425 100.116H137.713V101.829H139.425V100.116Z" fill="#246AFF"/>
<path d="M139.425 93.2646H137.713V94.9771H139.425V93.2646Z" fill="#246AFF"/>
<path d="M139.425 91.5527H137.713V93.2652H139.425V91.5527Z" fill="#246AFF"/>
<path d="M139.425 89.8398H137.713V91.5523H139.425V89.8398Z" fill="#246AFF"/>
<path d="M139.425 84.7021H137.713V86.4146H139.425V84.7021Z" fill="#246AFF"/>
<path d="M137.712 110.391H136V112.104H137.712V110.391Z" fill="#246AFF"/>
<path d="M137.712 103.541H136V105.253H137.712V103.541Z" fill="#246AFF"/>
<path d="M137.712 101.829H136V103.541H137.712V101.829Z" fill="#246AFF"/>
<path d="M137.712 100.116H136V101.829H137.712V100.116Z" fill="#246AFF"/>
<path d="M137.712 96.6914H136V98.4038H137.712V96.6914Z" fill="#246AFF"/>
<path d="M137.712 93.2646H136V94.9771H137.712V93.2646Z" fill="#246AFF"/>
<path d="M137.712 91.5527H136V93.2652H137.712V91.5527Z" fill="#246AFF"/>
<path d="M137.712 89.8398H136V91.5523H137.712V89.8398Z" fill="#246AFF"/>
<path d="M137.712 86.4148H136V88.1272H137.712V86.4148Z" fill="#246AFF"/>
<path d="M137.712 84.7021H136V86.4146H137.712V84.7021Z" fill="#246AFF"/>
<path d="M147.988 81.2773H146.275V82.9898H147.988V81.2773Z" fill="#246AFF"/>
<path d="M147.988 79.5645H146.275V81.2769H147.988V79.5645Z" fill="#246AFF"/>
<path d="M147.988 77.8506H146.275V79.563H147.988V77.8506Z" fill="#246AFF"/>
<path d="M147.988 76.1377H146.275V77.8501H147.988V76.1377Z" fill="#246AFF"/>
<path d="M147.988 74.4258H146.275V76.1382H147.988V74.4258Z" fill="#246AFF"/>
<path d="M147.988 72.7131H146.275V74.4256H147.988V72.7131Z" fill="#246AFF"/>
<path d="M147.988 71H146.275V72.7124H147.988V71Z" fill="#246AFF"/>
<path d="M146.275 71H144.562V72.7124H146.275V71Z" fill="#246AFF"/>
<path d="M144.564 81.2773H142.852V82.9898H144.564V81.2773Z" fill="#246AFF"/>
<path d="M146.275 81.2773H144.562V82.9898H146.275V81.2773Z" fill="#246AFF"/>
<path d="M144.564 77.8506H142.852V79.563H144.564V77.8506Z" fill="#246AFF"/>
<path d="M144.564 76.1377H142.852V77.8501H144.564V76.1377Z" fill="#246AFF"/>
<path d="M144.564 74.4258H142.852V76.1382H144.564V74.4258Z" fill="#246AFF"/>
<path d="M144.564 71H142.852V72.7124H144.564V71Z" fill="#246AFF"/>
<path d="M142.851 81.2773H141.139V82.9898H142.851V81.2773Z" fill="#246AFF"/>
<path d="M142.851 77.8506H141.139V79.563H142.851V77.8506Z" fill="#246AFF"/>
<path d="M142.851 76.1377H141.139V77.8501H142.851V76.1377Z" fill="#246AFF"/>
<path d="M142.851 74.4258H141.139V76.1382H142.851V74.4258Z" fill="#246AFF"/>
<path d="M142.851 71H141.139V72.7124H142.851V71Z" fill="#246AFF"/>
<path d="M141.138 81.2773H139.426V82.9898H141.138V81.2773Z" fill="#246AFF"/>
<path d="M141.138 77.8506H139.426V79.563H141.138V77.8506Z" fill="#246AFF"/>
<path d="M141.138 76.1377H139.426V77.8501H141.138V76.1377Z" fill="#246AFF"/>
<path d="M141.138 74.4258H139.426V76.1382H141.138V74.4258Z" fill="#246AFF"/>
<path d="M141.138 71H139.426V72.7124H141.138V71Z" fill="#246AFF"/>
<path d="M139.425 81.2773H137.713V82.9898H139.425V81.2773Z" fill="#246AFF"/>
<path d="M139.425 71H137.713V72.7124H139.425V71Z" fill="#246AFF"/>
<path d="M137.712 81.2773H136V82.9898H137.712V81.2773Z" fill="#246AFF"/>
<path d="M137.712 79.5645H136V81.2769H137.712V79.5645Z" fill="#246AFF"/>
<path d="M137.712 77.8506H136V79.563H137.712V77.8506Z" fill="#246AFF"/>
<path d="M137.712 76.1377H136V77.8501H137.712V76.1377Z" fill="#246AFF"/>
<path d="M137.712 74.4258H136V76.1382H137.712V74.4258Z" fill="#246AFF"/>
<path d="M137.712 72.7131H136V74.4256H137.712V72.7131Z" fill="#246AFF"/>
<path d="M137.712 71H136V72.7124H137.712V71Z" fill="#246AFF"/>
<path d="M177.103 110.393H175.391V112.105H177.103V110.393Z" fill="#246AFF"/>
<path d="M177.103 108.68H175.391V110.392H177.103V108.68Z" fill="#246AFF"/>
<path d="M177.103 106.967H175.391V108.679H177.103V106.967Z" fill="#246AFF"/>
<path d="M177.103 105.254H175.391V106.966H177.103V105.254Z" fill="#246AFF"/>
<path d="M177.103 103.541H175.391V105.253H177.103V103.541Z" fill="#246AFF"/>
<path d="M177.103 101.829H175.391V103.542H177.103V101.829Z" fill="#246AFF"/>
<path d="M177.103 100.116H175.391V101.829H177.103V100.116Z" fill="#246AFF"/>
<path d="M175.392 100.116H173.68V101.829H175.392V100.116Z" fill="#246AFF"/>
<path d="M173.679 110.393H171.967V112.105H173.679V110.393Z" fill="#246AFF"/>
<path d="M175.392 110.393H173.68V112.105H175.392V110.393Z" fill="#246AFF"/>
<path d="M173.679 106.967H171.967V108.679H173.679V106.967Z" fill="#246AFF"/>
<path d="M173.679 105.254H171.967V106.966H173.679V105.254Z" fill="#246AFF"/>
<path d="M173.679 103.541H171.967V105.253H173.679V103.541Z" fill="#246AFF"/>
<path d="M173.679 100.116H171.967V101.829H173.679V100.116Z" fill="#246AFF"/>
<path d="M171.966 110.393H170.254V112.105H171.966V110.393Z" fill="#246AFF"/>
<path d="M171.966 106.967H170.254V108.679H171.966V106.967Z" fill="#246AFF"/>
<path d="M171.966 105.254H170.254V106.966H171.966V105.254Z" fill="#246AFF"/>
<path d="M171.966 103.541H170.254V105.253H171.966V103.541Z" fill="#246AFF"/>
<path d="M171.966 100.116H170.254V101.829H171.966V100.116Z" fill="#246AFF"/>
<path d="M170.253 110.393H168.541V112.105H170.253V110.393Z" fill="#246AFF"/>
<path d="M170.253 106.967H168.541V108.679H170.253V106.967Z" fill="#246AFF"/>
<path d="M170.253 105.254H168.541V106.966H170.253V105.254Z" fill="#246AFF"/>
<path d="M170.253 103.541H168.541V105.253H170.253V103.541Z" fill="#246AFF"/>
<path d="M170.253 100.116H168.541V101.829H170.253V100.116Z" fill="#246AFF"/>
<path d="M168.541 110.393H166.828V112.105H168.541V110.393Z" fill="#246AFF"/>
<path d="M168.541 100.116H166.828V101.829H168.541V100.116Z" fill="#246AFF"/>
<path d="M166.828 110.393H165.115V112.105H166.828V110.393Z" fill="#246AFF"/>
<path d="M166.828 108.68H165.115V110.392H166.828V108.68Z" fill="#246AFF"/>
<path d="M166.828 106.967H165.115V108.679H166.828V106.967Z" fill="#246AFF"/>
<path d="M166.828 105.254H165.115V106.966H166.828V105.254Z" fill="#246AFF"/>
<path d="M166.828 103.541H165.115V105.253H166.828V103.541Z" fill="#246AFF"/>
<path d="M166.828 101.829H165.115V103.542H166.828V101.829Z" fill="#246AFF"/>
<path d="M166.828 100.116H165.115V101.829H166.828V100.116Z" fill="#246AFF"/>
<path d="M172.443 45.5043H139.975C138.435 45.5043 137.176 44.2712 137.176 42.7639V41.9943C137.176 40.487 138.435 39.2539 139.975 39.2539H172.443C173.982 39.2539 175.242 40.487 175.242 41.9943V42.7639C175.242 44.2709 173.982 45.5043 172.443 45.5043Z" fill="#8692C2"/>
<path d="M165.346 42.7378H143.909C143.53 42.7378 143.221 42.4346 143.221 42.0641V41.8749C143.221 41.5044 143.53 41.2012 143.909 41.2012H165.346C165.725 41.2012 166.035 41.5044 166.035 41.8749V42.0641C166.035 42.4346 165.725 42.7378 165.346 42.7378Z" fill="#5A669A"/>
<path d="M171.593 41.9178C171.593 42.427 171.171 42.84 170.651 42.84C170.131 42.84 169.709 42.427 169.709 41.9178C169.709 41.4086 170.131 40.9956 170.651 40.9956C171.171 40.9956 171.593 41.4086 171.593 41.9178Z" fill="#5A669A"/>
<path d="M224.849 118.55H211.188V157.9H224.849V118.55Z" fill="#5082EB"/>
<path d="M211.186 118.55H175.094V157.9H211.186V118.55Z" fill="#6E99F4"/>
<path d="M211.188 140.555V137.801H175.096V140.555H211.188Z" fill="white"/>
<path d="M224.848 140.555V137.801H211.186V140.555H224.848Z" fill="#C0D6FE"/>
<path d="M201.419 117.947C201.419 117.947 212.484 112.925 220.197 114.833L218.657 115.864L219.433 117.683C219.433 117.683 210.852 115.446 201.197 118.244L201.419 117.947Z" fill="#CB5F4C"/>
<path d="M199.528 117.753C199.528 117.753 198.089 117.579 195.945 117.284C190.252 116.501 179.59 114.863 177.676 113.347C174.669 110.965 181.795 100.851 184.879 99.4474C187.964 98.0448 199.528 117.753 199.528 117.753Z" fill="#EB6E58"/>
<path d="M222.089 105.158C222.603 107.663 199.318 118.488 199.318 118.488C199.318 118.488 199.742 117.343 200.431 115.549C200.431 115.549 200.432 115.547 200.433 115.546C202.951 108.995 209.015 93.7918 211.008 94.0022C211.208 94.0229 211.442 94.0945 211.704 94.2091C214.765 95.5559 221.616 102.85 222.089 105.158Z" fill="#EB6E58"/>
<path d="M211.502 96.4372C210.08 98.9074 200.577 115.29 200.428 115.546C202.945 108.995 209.01 93.7918 211.003 94.0022C211.003 94.0022 211.397 93.9909 211.699 94.2091C212.062 94.4739 212.287 95.0731 211.502 96.4372Z" fill="#CB5F4C"/>
<path d="M195.947 117.284H195.943C190.251 116.501 179.588 114.863 177.674 113.347C176.81 110.913 179.052 110.715 180.684 110.543C182.315 110.372 195.947 117.284 195.947 117.284Z" fill="#CB5F4C"/>
<path d="M195.182 118.526C195.182 118.526 196.487 115.557 199.056 115.392C201.739 115.22 203.263 118.526 203.263 118.526H195.182Z" fill="#CB5F4C"/>
<path d="M211.765 118.55H174V123.962H211.765V118.55Z" fill="#88B3FF"/>
<path d="M226 118.55H211.766V123.962H226V118.55Z" fill="#246AFF"/>
<path d="M196.505 118.099C196.505 118.099 189.108 115.756 184.117 117.305C178.364 119.09 178.705 126.189 178.705 126.189L180.058 125.633L181.885 126.49C181.885 126.49 182.193 118.973 186.883 117.921C190.939 117.011 196.505 118.099 196.505 118.099Z" fill="#CB5F4C"/>
<path d="M192.711 118.55H189.957V158.24H192.711V118.55Z" fill="white"/>
</svg>
