<svg width="80" height="80" viewBox="0 0 80 80" fill="none" xmlns="http://www.w3.org/2000/svg">
<path d="M58.3324 27.1108H53.8633V48.2208H58.3324V27.1108Z" fill="#E6EEFF"/>
<path d="M58.621 27.1108H57.8125V48.2208H58.621V27.1108Z" fill="#ADC7FF"/>
<path d="M62.8031 35.5229H58.334V48.221H62.8031V35.5229Z" fill="#E6EEFF"/>
<path d="M63.0898 35.5229H62.2812V48.221H63.0898V35.5229Z" fill="#ADC7FF"/>
<path d="M57.3255 28.1936H54.5742V26.8336C54.5742 26.0739 55.1901 25.458 55.9498 25.458C56.7095 25.458 57.3255 26.0739 57.3255 26.8336V28.1936Z" fill="#E6EEFF"/>
<path d="M56.3268 26.1586H55.5742L55.942 20.5928L56.3268 26.1586Z" fill="#E6EEFF"/>
<path d="M66.5448 30.5454H62.8027V48.2213H66.5448V30.5454Z" fill="#E6EEFF"/>
<path d="M66.7864 30.5454H66.1094V48.2213H66.7864V30.5454Z" fill="#ADC7FF"/>
<path d="M70.5292 29.3076H66.7871V48.2206H70.5292V29.3076Z" fill="#E6EEFF"/>
<path d="M70.7708 29.3076H70.0938V48.2206H70.7708V29.3076Z" fill="#ADC7FF"/>
<path d="M74.8453 33.9077H70.7559V48.221H74.8453V33.9077Z" fill="#E6EEFF"/>
<path d="M75.1088 33.9077H74.3691V48.221H75.1088V33.9077Z" fill="#ADC7FF"/>
<path d="M19.418 19.2241C19.3154 19.3242 19.2076 19.4261 19.0957 19.5298C18.8776 19.7318 18.6421 19.9486 18.418 20.1772C18.2396 19.9889 18.0541 19.8073 17.876 19.6343C17.7504 19.5123 17.6297 19.3922 17.5127 19.2749C17.786 19.4043 18.0907 19.479 18.4131 19.479C18.7769 19.479 19.1192 19.3864 19.418 19.2241Z" fill="#A574CC" stroke="#246AFF"/>
<path d="M49.3652 30.7983C49.2629 30.8981 49.1565 31.0006 49.0449 31.104C48.8269 31.306 48.5903 31.5219 48.3662 31.7505C48.1882 31.5625 48.003 31.3812 47.8252 31.2085C47.6996 31.0865 47.5789 30.9665 47.4619 30.8491C47.7352 30.9785 48.0399 31.0532 48.3623 31.0532C48.7256 31.0532 49.0668 30.9601 49.3652 30.7983Z" fill="#A574CC" stroke="#246AFF"/>
<path d="M22.416 18.7121C22.416 18.7121 27.0014 18.4367 32.1258 24.1043C37.2502 29.7719 44.2398 29.8302 44.2398 29.8302" stroke="#246AFF" stroke-miterlimit="10" stroke-dasharray="3.98 3.98"/>
<path d="M1.25197 62.1814C1.23022 63.2755 18.841 64.5137 40.5866 64.9471C62.3323 65.3805 79.9784 64.8451 80.0002 63.751C80.0219 62.657 62.4112 61.4188 40.6655 60.9853C18.9199 60.5519 1.27372 61.0874 1.25197 62.1814Z" fill="#F2F5F7"/>
<path d="M4.95108 57.0465L22.5126 58.4801C22.5126 58.4801 24.674 48.8663 13.4589 49.166C2.24374 49.4654 4.95108 57.0465 4.95108 57.0465Z" fill="#37425C"/>
<path d="M56.4157 59.7293L74.0577 59.9703C74.0577 59.9703 75.2684 48.4306 64.1211 49.7127C52.9738 50.9946 56.4157 59.7293 56.4157 59.7293Z" fill="#37425C"/>
<path d="M78.4136 49.686C74.1878 44.7468 60.5711 42.7711 60.5711 42.7711C60.5711 42.7711 47.2353 35.3622 38.1252 33.5194C29.0152 31.6763 21.8933 31.9426 13.777 33.9172C11.5146 34.4677 8.10608 35.6917 8.10608 35.6917L2.37563 41.5786C2.18047 41.7791 2.07528 42.049 2.08418 42.3286C2.11206 43.2049 2.16604 45.2093 2.12432 46.5215C2.06935 48.2412 1.57542 48.1494 0.58775 48.4788C-0.400115 48.8081 -0.0159266 53.9669 0.807228 55.5585C1.63038 57.15 6.51474 57.4792 6.51474 57.4792L6.7097 57.4966C6.67075 57.1126 6.66146 56.7198 6.68459 56.3203C6.8932 52.6993 10.156 49.5448 13.782 49.4515C17.9031 49.3453 21.2772 52.6544 21.2772 56.7516C21.2772 57.4508 21.1769 58.1262 20.9934 58.7665L21.3323 58.7965L57.3882 60.2783H57.914C57.598 59.3278 57.4687 58.2923 57.5798 57.2123C57.9426 53.6869 60.8572 50.8955 64.3948 50.6844C68.631 50.4315 72.1455 53.7919 72.1455 57.9736C72.1455 58.7793 72.013 59.5537 71.772 60.2785H71.9859L76.8912 59.6035C77.7547 59.5195 78.4134 58.7936 78.4134 57.9259V55.8881L77.7921 53.2258C77.6954 52.8118 77.7017 52.3803 77.8103 51.9694L78.4136 49.686Z" fill="#BFD3FF"/>
<path d="M4.34053 49.7004C5.07649 49.7002 5.67482 49.9416 6.12071 50.3379C5.91052 49.3174 5.40987 48.5725 4.66363 48.5731C3.53201 48.5737 2.53861 48.2913 1.76034 47.9619C1.50625 48.2439 1.1189 48.3012 0.586804 48.4786C0.375627 48.549 0.227723 48.841 0.132812 49.2707C1.33363 49.5153 2.75671 49.7008 4.34053 49.7004Z" fill="#87A5C9"/>
<path d="M69.756 45.3115C49.5273 40.9841 45.3925 44.0128 26.9497 40.8113C19.2691 39.478 12.8074 37.7065 7.67115 36.1367L3.89844 40.0125C7.75459 40.4975 13.0522 40.9367 22.1935 42.3481C31.1416 43.7295 29.125 43.5224 49.048 45.0555C62.2681 46.0728 63.2475 45.4308 71.2194 46.6652C73.8047 47.0656 74.0772 47.3349 76.2497 47.7962C75.6007 47.3838 74.8746 46.9986 74.097 46.6395C74.097 46.6395 72.0336 45.7987 69.756 45.3115Z" fill="#93AADB"/>
<path d="M20.3948 57.979C21.2218 54.5274 19.0941 51.059 15.6426 50.232C12.1911 49.4051 8.7227 51.5327 7.89576 54.9843C7.06881 58.4358 9.19645 61.9043 12.648 62.7312C16.0995 63.5582 19.5679 61.4305 20.3948 57.979Z" fill="#516085"/>
<path d="M14.1414 61.2364C16.7673 61.2364 18.896 59.1077 18.896 56.4817C18.896 53.8558 16.7673 51.7271 14.1414 51.7271C11.5154 51.7271 9.38672 53.8558 9.38672 56.4817C9.38672 59.1077 11.5154 61.2364 14.1414 61.2364Z" fill="#37425C"/>
<path d="M18.268 58.8416C18.3093 58.7694 18.3489 58.6962 18.3864 58.6217C18.3864 58.6217 18.3865 58.6215 18.3866 58.6215C18.7115 57.9783 18.8956 57.2518 18.8956 56.482C18.8956 55.6229 18.6666 54.8177 18.268 54.1223C18.2672 54.1209 18.2664 54.1195 18.2656 54.1183C18.2241 54.0462 18.181 53.9752 18.1359 53.9056C17.3337 52.6644 15.97 51.8203 14.4034 51.7351C14.3166 51.7303 14.2292 51.7275 14.1412 51.7275C14.0532 51.7275 13.9658 51.7303 13.879 51.7351C12.2244 51.825 10.7959 52.7615 10.0165 54.1185C10.0157 54.1197 10.0151 54.1211 10.0143 54.1223C9.61569 54.8179 9.38672 55.6231 9.38672 56.4822C9.38672 57.3414 9.61569 58.1465 10.0143 58.8422C10.0151 58.8434 10.0157 58.8445 10.0165 58.8459C10.058 58.9181 10.1013 58.9891 10.1464 59.0589C10.9486 60.3 12.3123 61.144 13.879 61.2294C13.9658 61.2341 14.0532 61.2369 14.1412 61.2369C14.2292 61.2369 14.3166 61.2341 14.4034 61.2294C15.97 61.1442 17.3337 60.3002 18.1359 59.0589C18.181 58.9893 18.2241 58.9183 18.2654 58.8461C18.2664 58.8445 18.2672 58.843 18.268 58.8416ZM18.3471 56.4818C18.3471 56.9166 18.2793 57.335 18.1555 57.7291C18.0766 57.9804 17.764 58.0663 17.5674 57.8911L16.2897 56.7521C16.1282 56.6082 16.1282 56.3555 16.2897 56.2113L17.5674 55.0724C17.764 54.8972 18.0768 54.9832 18.1555 55.2343C18.2793 55.6286 18.3471 56.047 18.3471 56.4818ZM17.1309 54.267L15.4586 54.8691C15.2506 54.9441 15.0246 54.8167 14.9809 54.5998L14.6189 52.8036C14.5669 52.545 14.7994 52.3209 15.0571 52.3781C15.9304 52.5721 16.7014 53.0371 17.277 53.6811C17.449 53.8739 17.3739 54.1796 17.1309 54.267ZM13.6632 52.8038L13.3012 54.6C13.2575 54.8167 13.0315 54.9441 12.8235 54.8693L11.1513 54.2672C10.9083 54.1798 10.8331 53.8741 11.0053 53.6815C11.5809 53.0375 12.3519 52.5723 13.2253 52.3785C13.4825 52.3211 13.7152 52.5452 13.6632 52.8038ZM9.93483 56.4818C9.93483 56.047 10.0027 55.6286 10.1264 55.2345C10.2053 54.9832 10.5179 54.8974 10.7147 55.0726L11.9924 56.2115C12.154 56.3557 12.154 56.6082 11.9924 56.7523L10.7147 57.8913C10.5181 58.0665 10.2053 57.9804 10.1264 57.7293C10.0027 57.3352 9.93483 56.9168 9.93483 56.4818ZM11.1513 58.6968L12.8235 58.0947C13.0315 58.0198 13.2575 58.1471 13.3012 58.364L13.6632 60.1601C13.7154 60.4187 13.4827 60.6427 13.2253 60.5856C12.3517 60.3916 11.5809 59.9265 11.0053 59.2825C10.8331 59.0899 10.9083 58.7842 11.1513 58.6968ZM14.6189 60.1601L14.9809 58.364C15.0246 58.1473 15.2506 58.02 15.4586 58.0947L17.1309 58.6968C17.3739 58.7844 17.449 59.0899 17.2768 59.2825C16.7012 59.9265 15.9302 60.3918 15.0569 60.5856C14.7994 60.6427 14.5667 60.4185 14.6189 60.1601Z" fill="#93AADB"/>
<path d="M34.642 42.5299L33.336 34.443C33.3263 34.3827 33.2755 34.3374 33.2144 34.3353C30.7206 34.2518 28.0584 34.3709 25.0097 34.6481C23.0041 34.8304 21.2677 35.0313 19.7831 35.2316C19.742 35.2371 19.707 35.2622 19.6878 35.2992L17.4714 39.5665C17.4394 39.6284 17.4625 39.7049 17.5236 39.7381C18.6685 40.3604 19.8853 40.8798 21.0035 41.0691C22.2939 41.2874 27.8879 41.9369 34.5012 42.6768C34.5851 42.6861 34.6555 42.6132 34.642 42.5299Z" fill="#516085"/>
<path d="M18.2755 35.4473C16.2841 35.7489 14.8707 36.0332 13.9881 36.2325C13.5133 36.3397 13.3779 36.9505 13.7628 37.2483C14.3997 37.741 15.3231 38.4167 16.3707 39.0672C16.4328 39.1058 16.5155 39.0844 16.5507 39.0202L18.4079 35.6346C18.4588 35.542 18.3799 35.4315 18.2755 35.4473Z" fill="#516085"/>
<path d="M51.734 39.6399C51.7289 39.599 51.7044 39.563 51.6682 39.5434C49.8617 38.5623 47.9487 37.643 46.0807 36.9533C42.0189 35.4535 38.4902 34.6666 34.6449 34.4075C34.5599 34.4018 34.4925 34.4799 34.5109 34.5629L36.3175 42.7928C36.3292 42.8462 36.3733 42.8861 36.4275 42.892C41.7872 43.4884 47.5854 44.1206 52.2054 44.6208C52.2873 44.6297 52.3547 44.5597 52.3444 44.4781L51.734 39.6399Z" fill="#516085"/>
<path d="M59.888 44.7416C58.5112 43.7503 55.996 42.0123 53.0671 40.3254C52.9733 40.2714 52.8582 40.3515 52.877 40.4581L53.6239 44.6821C53.6337 44.7378 53.6802 44.7805 53.7366 44.7867C56.28 45.0617 58.3544 45.2847 59.627 45.4214C60.0114 45.4625 60.2018 44.9674 59.888 44.7416Z" fill="#516085"/>
<path d="M6.47557 43.2347C6.47557 42.342 6.03107 41.6183 5.48276 41.6183L2.37779 41.5781C2.17867 41.7577 2.08099 42.0659 2.08613 42.3281C2.09681 42.8762 2.11381 43.8659 2.11876 44.8514H5.48276C6.03107 44.8512 6.47557 44.1275 6.47557 43.2347Z" fill="#F7BA50"/>
<path d="M76.7541 50.4852C76.4884 51.1258 74.6111 50.9556 72.561 50.1053C70.511 49.2549 69.0646 48.0461 69.3303 47.4057C69.5961 46.765 71.4733 46.9353 73.5234 47.7857C75.5735 48.636 77.0199 49.8447 76.7541 50.4852Z" fill="#87A5C9"/>
<path d="M76.7708 50.0072C76.5887 50.5016 74.7716 50.287 72.7124 49.5283C70.653 48.7694 69.1315 47.7535 69.3136 47.2592C69.4957 46.7648 71.3129 46.9794 73.372 47.7381C75.4312 48.4968 76.953 49.5129 76.7708 50.0072Z" fill="#F7BA50"/>
<path d="M8.10624 35.6909L3.20508 40.7258C4.27144 40.6562 6.55425 40.4705 6.97205 40.1362C7.32362 39.8548 8.59167 38.6816 9.45754 37.8747C9.88622 37.4753 9.82097 36.7792 9.32624 36.4652L8.10624 35.6909Z" fill="#516085"/>
<path d="M16.5545 39.02L15.0797 42.8026C14.984 43.0787 15.0112 43.3812 15.1554 43.6353C16.3914 45.8119 22.3957 56.1308 25.3405 56.482C28.6333 56.8747 55.4146 58.0686 55.4146 58.0686C55.4146 58.0686 58.1769 50.3843 56.4614 45.0803" stroke="#87A5C9" stroke-miterlimit="10"/>
<path d="M34.502 42.6772C34.502 42.6772 35.5525 47.2777 34.6443 57.0704" stroke="#87A5C9" stroke-miterlimit="10"/>
<path d="M22.4458 44.01C22.4244 44.2101 21.3001 44.2544 19.9344 44.1091C18.5686 43.9635 17.479 43.6835 17.5003 43.4834C17.5217 43.2833 18.646 43.239 20.0117 43.3844C21.3774 43.5297 22.4671 43.8099 22.4458 44.01Z" fill="#87A5C9"/>
<path d="M41.9692 46.2981C41.9478 46.4982 40.8235 46.5425 39.4578 46.3972C38.0921 46.2516 37.0024 45.9716 37.0237 45.7715C37.0451 45.5714 38.1694 45.5271 39.5351 45.6725C40.9007 45.8178 41.9904 46.098 41.9692 46.2981Z" fill="#87A5C9"/>
<path d="M78.4121 49.6855V55.887C78.4121 55.887 74.7691 56.9983 78.4121 49.6855Z" fill="#516085"/>
<path d="M18.3473 56.4821C18.3473 56.917 18.2795 57.3354 18.1559 57.7294C18.077 57.9808 17.7642 58.0666 17.5676 57.8914L16.2901 56.7524C16.1286 56.6085 16.1286 56.3558 16.2901 56.2116L16.9665 55.6086C15.6837 55.2965 14.4051 55.1923 13.3593 54.3126L13.3014 54.5999C13.2577 54.8166 13.0317 54.944 12.8237 54.869L11.1515 54.2669C10.9085 54.1795 10.8333 53.8738 11.0055 53.6813C11.3623 53.282 11.7945 52.952 12.2791 52.7122C12.2273 52.5445 12.1787 52.3709 12.115 52.1807C11.2331 52.5971 10.4997 53.2765 10.0165 54.1181C10.0157 54.1192 10.0151 54.1206 10.0143 54.1218C9.61569 54.8174 9.38672 55.6226 9.38672 56.4817C9.38672 56.6726 9.39977 56.8602 9.42172 57.0453C9.60442 57.0407 9.78831 57.0352 9.97378 57.0285C9.95005 56.8493 9.93522 56.6674 9.93522 56.4817C9.93522 56.0469 10.003 55.6285 10.1268 55.2344C10.2057 54.9831 10.5183 54.8973 10.7151 55.0725L11.9928 56.2114C12.1544 56.3554 12.1544 56.6081 11.9928 56.7522L11.7395 56.9781C13.7451 56.9612 15.7256 57.1869 17.1315 58.6968C17.2574 58.742 17.3369 58.8462 17.3616 58.9627C17.5143 59.1523 17.6491 59.3493 17.7691 59.5514C17.9014 59.3951 18.0248 59.231 18.1365 59.0586V59.0584C18.1816 58.9888 18.2247 58.918 18.266 58.8458C18.2668 58.8445 18.2678 58.8429 18.2686 58.8415C18.3099 58.7693 18.3495 58.6962 18.387 58.6216L18.3872 58.6214C18.7121 57.9782 18.8962 57.2517 18.8962 56.4819C18.8962 56.4345 18.8928 56.3876 18.8915 56.3406C18.7014 56.2385 18.512 56.1462 18.3238 56.0624C18.3374 56.2008 18.3473 56.3402 18.3473 56.4821Z" fill="#ADC7FF"/>
<path d="M15.3567 56.7079C15.2586 56.8059 15.0995 56.8059 15.0013 56.7079C14.9032 56.6098 14.9032 56.4507 15.0013 56.3524C15.0993 56.2542 15.2585 56.2544 15.3567 56.3524C15.4549 56.4505 15.4547 56.6098 15.3567 56.7079Z" fill="#516085"/>
<path d="M14.0931 55.6973C14.2318 55.6973 14.3443 55.5848 14.3443 55.4461C14.3443 55.3073 14.2318 55.1948 14.0931 55.1948C13.9543 55.1948 13.8418 55.3073 13.8418 55.4461C13.8418 55.5848 13.9543 55.6973 14.0931 55.6973Z" fill="#516085"/>
<path d="M14.3685 57.6961C14.2704 57.7942 14.1113 57.7942 14.0131 57.6961C13.9148 57.5981 13.915 57.4389 14.0131 57.3407C14.1111 57.2425 14.2702 57.2427 14.3685 57.3407C14.4665 57.4389 14.4665 57.5981 14.3685 57.6961Z" fill="#516085"/>
<path d="M13.1048 56.6856C13.2435 56.6856 13.356 56.5731 13.356 56.4344C13.356 56.2956 13.2435 56.1831 13.1048 56.1831C12.966 56.1831 12.8535 56.2956 12.8535 56.4344C12.8535 56.5731 12.966 56.6856 13.1048 56.6856Z" fill="#516085"/>
<path d="M64.8417 64.7075C68.5082 64.7075 71.4804 61.7353 71.4804 58.0689C71.4804 54.4024 68.5082 51.4302 64.8417 51.4302C61.1753 51.4302 58.2031 54.4024 58.2031 58.0689C58.2031 61.7353 61.1753 64.7075 64.8417 64.7075Z" fill="#516085"/>
<path d="M65.3837 62.9467C68.0795 62.6456 70.0208 60.216 69.7197 57.52C69.4186 54.8241 66.9891 52.8827 64.2933 53.1838C61.5975 53.4849 59.6562 55.9145 59.9573 58.6104C60.2584 61.3064 62.6879 63.2478 65.3837 62.9467Z" fill="#37425C"/>
<path d="M69.1048 60.5066C69.1475 60.432 69.1883 60.3563 69.2272 60.2794V60.2792C69.5628 59.6146 69.753 58.8642 69.753 58.0689C69.753 57.1815 69.5163 56.3496 69.1046 55.6311C69.1038 55.6297 69.103 55.6283 69.1022 55.6269C69.0595 55.5524 69.0148 55.479 68.9682 55.407C68.1395 54.1247 66.7307 53.2529 65.1122 53.1649C65.0225 53.16 64.9323 53.1572 64.8413 53.1572C64.7504 53.1572 64.6602 53.1602 64.5704 53.1649C62.861 53.2579 61.3854 54.2254 60.5802 55.6271C60.5794 55.6283 60.5788 55.6297 60.578 55.6309C60.1662 56.3494 59.9297 57.1813 59.9297 58.0689C59.9297 58.9565 60.1664 59.7882 60.578 60.5068C60.5788 60.5079 60.5794 60.5093 60.5802 60.5105C60.6231 60.5851 60.6678 60.6584 60.7143 60.7306C61.543 62.0129 62.952 62.8847 64.5702 62.9727C64.66 62.9776 64.7502 62.9804 64.8411 62.9804C64.9321 62.9804 65.0223 62.9774 65.112 62.9727C66.7305 62.8847 68.1393 62.0127 68.968 60.7306L68.9682 60.7304C69.0146 60.6584 69.0591 60.5853 69.102 60.5109C69.103 60.5097 69.1038 60.5081 69.1048 60.5066ZM69.1863 58.0691C69.1863 58.5184 69.1163 58.9506 68.9885 59.3575C68.9071 59.6172 68.584 59.7059 68.3809 59.5248L67.0611 58.3483C66.8942 58.1994 66.8942 57.9384 67.0611 57.7897L68.3809 56.6132C68.584 56.4323 68.9071 56.5211 68.9885 56.7805C69.1163 57.1874 69.1863 57.6199 69.1863 58.0691ZM67.9299 55.7809L66.2023 56.403C65.9874 56.4803 65.7539 56.3488 65.7088 56.1248L65.3349 54.2693C65.2811 54.0021 65.5215 53.7706 65.7875 53.8297C66.6897 54.03 67.4862 54.5105 68.0808 55.1759C68.2585 55.3748 68.181 55.6906 67.9299 55.7809ZM64.3476 54.2693L63.9737 56.1248C63.9286 56.3488 63.6951 56.4803 63.4801 56.403L61.7526 55.7809C61.5015 55.6906 61.4239 55.3748 61.6017 55.1759C62.1965 54.5105 62.9927 54.03 63.895 53.8297C64.1611 53.7706 64.4014 54.0021 64.3476 54.2693ZM60.4962 58.0691C60.4962 57.6199 60.5662 57.1876 60.6939 56.7807C60.7754 56.5211 61.0985 56.4323 61.3015 56.6134L62.6214 57.7899C62.7883 57.9388 62.7883 58.1998 62.6214 58.3485L61.3015 59.525C61.0985 59.7059 60.7754 59.6172 60.6939 59.3577C60.5662 58.9506 60.4962 58.5184 60.4962 58.0691ZM61.7526 60.3571L63.4801 59.735C63.6951 59.6577 63.9286 59.7892 63.9737 60.0132L64.3476 61.8687C64.4014 62.1359 64.1609 62.3674 63.895 62.3083C62.9927 62.108 62.1963 61.6275 61.6017 60.9621C61.4239 60.7632 61.5015 60.4474 61.7526 60.3571ZM65.3349 61.8687L65.7088 60.0132C65.7539 59.7894 65.9874 59.6577 66.2023 59.735L67.9299 60.3571C68.1808 60.4474 68.2585 60.7632 68.0808 60.9621C67.4862 61.6275 66.6897 62.108 65.7875 62.3083C65.5213 62.3674 65.2809 62.1359 65.3349 61.8687Z" fill="#93AADB"/>
<path d="M69.1865 58.0691C69.1865 58.5184 69.1165 58.9506 68.9887 59.3576C68.9073 59.6172 68.5842 59.706 68.3811 59.5248L67.0612 58.3483C66.8944 58.1994 66.8944 57.9384 67.0612 57.7897L67.7602 57.1667C66.435 56.8444 65.114 56.7366 64.0338 55.8278L63.9739 56.1246C63.9288 56.3487 63.6953 56.4802 63.4803 56.4028L61.7528 55.7808C61.5016 55.6904 61.4241 55.3746 61.6019 55.1757C61.9705 54.7632 62.4169 54.4224 62.9176 54.1746C62.864 54.0016 62.8138 53.822 62.7481 53.6255C61.8372 54.0558 61.0795 54.7575 60.5802 55.6269C60.5794 55.6281 60.5788 55.6295 60.578 55.6307C60.1662 56.3493 59.9297 57.1811 59.9297 58.0687C59.9297 58.2659 59.9431 58.4599 59.9659 58.6509C60.1545 58.6461 60.3445 58.6404 60.5361 58.6337C60.5116 58.4486 60.4962 58.2607 60.4962 58.0689C60.4962 57.6197 60.5662 57.1874 60.6939 56.7805C60.7754 56.5209 61.0985 56.4321 61.3015 56.6132L62.6214 57.7897C62.7883 57.9386 62.7883 58.1996 62.6214 58.3483L62.3598 58.5817C64.4318 58.5643 66.4777 58.7974 67.9299 60.3571C68.06 60.404 68.1422 60.5115 68.1678 60.6318C68.3255 60.8277 68.4648 61.0312 68.5887 61.24C68.7254 61.0786 68.8529 60.9092 68.9682 60.7308L68.9684 60.7306C69.0148 60.6586 69.0593 60.5855 69.1022 60.5111C69.103 60.5096 69.104 60.5082 69.1048 60.5066C69.1475 60.432 69.1883 60.3563 69.2272 60.2794V60.2792C69.5628 59.6146 69.753 58.8642 69.753 58.0689C69.753 58.0199 69.7496 57.9717 69.748 57.9228C69.5519 57.8174 69.3559 57.7219 69.1617 57.6353C69.1764 57.7783 69.1865 57.9224 69.1865 58.0691Z" fill="#ADC7FF"/>
<path d="M66.0935 58.3011C65.9921 58.4025 65.8279 58.4025 65.7264 58.3011C65.625 58.1996 65.625 58.0354 65.7264 57.934C65.8279 57.8326 65.9921 57.8326 66.0935 57.934C66.1949 58.0354 66.1949 58.1996 66.0935 58.3011Z" fill="#516085"/>
<path d="M64.9763 57.1814C64.8749 57.2828 64.7107 57.2828 64.6093 57.1814C64.5079 57.08 64.5079 56.9157 64.6093 56.8143C64.7107 56.7129 64.8749 56.7129 64.9763 56.8143C65.0778 56.9157 65.0778 57.08 64.9763 57.1814Z" fill="#516085"/>
<path d="M65.074 59.3221C64.9726 59.4235 64.8083 59.4235 64.7069 59.3221C64.6055 59.2206 64.6055 59.0564 64.7069 58.955C64.8083 58.8536 64.9726 58.8536 65.074 58.955C65.1754 59.0564 65.1754 59.2206 65.074 59.3221Z" fill="#516085"/>
<path d="M63.7713 58.2784C63.9146 58.2784 64.0308 58.1622 64.0308 58.0188C64.0308 57.8755 63.9146 57.7593 63.7713 57.7593C63.6279 57.7593 63.5117 57.8755 63.5117 58.0188C63.5117 58.1622 63.6279 58.2784 63.7713 58.2784Z" fill="#516085"/>
<path d="M73.3711 47.7375C72.2875 47.3383 71.2738 47.0915 70.5273 47.0176C70.9276 47.6553 72.4892 48.587 74.4717 49.3174C75.2921 49.6197 76.0794 49.8487 76.7723 49.9978C76.9336 49.5003 75.4184 48.4921 73.3711 47.7375Z" fill="#FFD269"/>
<path d="M5.48275 41.6183L2.37777 41.5781C2.18538 41.7644 2.08098 42.0659 2.08612 42.3281C2.09166 42.6077 2.09877 43.003 2.1049 43.4534C2.12883 43.2889 2.17569 43.1345 2.24549 43.0056H5.48275C5.87841 43.0056 6.2189 43.3832 6.37847 43.9286C6.43996 43.7182 6.47555 43.4837 6.47555 43.2349C6.47555 42.3422 6.03106 41.6183 5.48275 41.6183Z" fill="#FFD269"/>
<path d="M54.4711 42.4731H52.701C52.4064 42.4731 52.1677 42.7951 52.1677 43.1923V43.3529C52.1677 43.46 52.1325 43.5617 52.0714 43.6305L51.3932 44.3937C51.2848 44.5155 51.2599 44.7459 51.3495 44.8928C51.3898 44.959 51.4446 44.9998 51.5026 45.0138C51.5749 45.0314 51.6524 45.0071 51.7133 44.9387L51.9063 44.7216C52.021 44.5926 52.1954 44.6033 52.2905 44.7583C52.3882 44.9177 52.5357 45.0193 52.701 45.0193H53.6497C54.3979 45.0193 55.0044 44.2015 55.0044 43.1925C55.0044 42.7952 54.7655 42.4731 54.4711 42.4731Z" fill="#87A5C9"/>
</svg>
