<svg width="80" height="80" viewBox="0 0 80 80" fill="none" xmlns="http://www.w3.org/2000/svg">
<path d="M43.369 43.6841L43.3777 24.4991C43.3778 23.835 42.8351 23.2914 42.1708 23.2912L7.21664 23.2754C6.55231 23.275 6.00889 23.8181 6.00865 24.4823L6 43.6671C5.99964 44.3312 6.54259 44.8749 7.20692 44.875L42.1614 44.8908C42.8253 44.8912 43.3687 44.3481 43.369 43.6841Z" fill="#B1CEFA"/>
<path d="M43.3751 26.4956H6.00586V30.7699H43.3751V26.4956Z" fill="#365DA4"/>
<path d="M31.6809 31.9609H8.81641V35.3214H31.6809V31.9609Z" fill="#69A1F8"/>
<path d="M13.4792 41.3592L13.4801 38.9096C13.4804 38.4059 13.072 37.9973 12.5683 37.9968L9.72868 37.9956C9.22486 37.9954 8.81576 38.4038 8.81576 38.9076L8.81445 41.3571C8.81457 41.8609 9.22272 42.2694 9.72642 42.2699L12.5664 42.2712C13.0701 42.2715 13.4787 41.863 13.4792 41.3592Z" fill="#69A1F8"/>
<path opacity="0.2" d="M17.7456 38.4303L40.2061 38.4402C40.4016 38.4405 40.5597 38.2823 40.5596 38.087L40.56 37.7419C40.5601 37.5469 40.4019 37.3886 40.2068 37.3885L17.7463 37.3784C17.551 37.3783 17.3927 37.5366 17.3926 37.7316V38.0767C17.3921 38.2717 17.5506 38.4302 17.7456 38.4303Z" fill="#69A1F8"/>
<path opacity="0.2" d="M17.7399 40.4038L40.2083 40.414C40.4014 40.4142 40.5576 40.258 40.5579 40.0649L40.5581 39.7358C40.5581 39.5427 40.4019 39.3862 40.2088 39.3862L17.7402 39.376C17.5473 39.3761 17.3909 39.5322 17.3906 39.725L17.3909 40.0545C17.3905 40.2474 17.547 40.4039 17.7399 40.4038Z" fill="#69A1F8"/>
<path opacity="0.2" d="M40.5582 41.9652L40.5584 41.5923C40.5584 41.3931 40.3969 41.2318 40.198 41.2318L17.7515 41.2217C17.5523 41.2212 17.391 41.3827 17.3907 41.5818L17.3906 41.9548C17.3906 42.1541 17.552 42.3154 17.7509 42.3156L40.1975 42.3259C40.3964 42.3255 40.558 42.1646 40.5582 41.9652Z" fill="#69A1F8"/>
<path d="M74.0004 15.5483C74.0004 16.38 73.5854 17.0541 73.1292 17.0541H29.477C29.0206 17.0541 28.502 16.38 28.502 15.5483V15.4444C28.502 14.6128 29.0206 14.1538 29.477 14.1538H73.1292C73.5856 14.1538 74.0004 14.6128 74.0004 15.4444V15.5483Z" fill="#4D4D4D"/>
<path d="M73.1299 14.1538H60.4596L55.4004 17.0541H73.1299C73.5863 17.0541 74.0011 16.38 74.0011 15.5483V15.4444C74.0011 14.6128 73.5862 14.1538 73.1299 14.1538Z" fill="#333333"/>
<path d="M72.368 15.6037C72.368 15.8347 72.2484 15.9663 72.1006 15.9663H30.2185C30.0708 15.9663 29.9512 15.8347 29.9512 15.6037C29.9512 15.3728 30.0708 15.2412 30.2185 15.2412H72.1006C72.2484 15.2412 72.368 15.3728 72.368 15.6037Z" fill="black"/>
<path d="M72.2852 15.9785V65.2537H71.8222L70.6556 65.8458L69.4265 65.2537H68.5313L67.3647 65.8458L66.1353 65.2537H65.2405L64.0739 65.8458L62.8445 65.2537H61.8439L60.6771 65.8458L59.448 65.2537H58.5178L57.351 65.8458L56.1217 65.2537H55.1915L54.0249 65.8458L52.7955 65.2537H51.8654L50.6988 65.8458L49.4694 65.2537H48.5393L47.3725 65.8458L46.1433 65.2537H45.213L44.0464 65.8458L42.817 65.2537H41.8164L40.6498 65.8458L39.4205 65.2537H38.5256L37.3588 65.8458L36.1295 65.2537H35.2346L34.0679 65.8458L32.8387 65.2537H32.2094V64.9795L32.1484 64.95L32.2094 64.9498V15.9785H72.2852Z" fill="#E5E5E5"/>
<path d="M71.0697 15.3696V64.6448H70.6137L69.4648 65.2369L68.2542 64.6448H67.3726L66.2237 65.2369L65.0129 64.6448H64.1316L62.9827 65.2369L61.772 64.6448H60.7865L59.6375 65.2369L58.4269 64.6448H57.5108L56.3617 65.2369L55.151 64.6448H54.2349L53.086 65.2369L51.8753 64.6448H50.9592L49.8103 65.2369L48.5996 64.6448H47.6835L46.5344 65.2369L45.3239 64.6448H44.4076L43.2587 65.2369L42.048 64.6448H41.0625L39.9136 65.2369L38.7029 64.6448H37.8216L36.6725 65.2369L35.4617 64.6448H34.5805L33.4314 65.2369L32.2208 64.6448H31.601V64.3706L31.541 64.3411L31.601 64.341V15.3696H71.0697Z" fill="#F7F7F7"/>
<path opacity="0.3" d="M71.3013 51.2607H31.6035V62.6807H71.3013V51.2607Z" fill="#ADC7FF"/>
<path d="M61.7559 26.4811V25.9976H65.1319V26.4811H63.7164V30.4989H63.1713V26.4811H61.7559Z" fill="#808080"/>
<path d="M58.0742 30.4989V25.9976H59.5952C59.9483 25.9976 60.237 26.0613 60.4612 26.1888C60.6868 26.3148 60.8539 26.4855 60.9623 26.7009C61.0707 26.9163 61.1249 27.1566 61.1249 27.4218C61.1249 27.687 61.0707 27.9281 60.9623 28.1449C60.8553 28.3618 60.6897 28.5347 60.4656 28.6636C60.2414 28.7911 59.9542 28.8549 59.604 28.8549H58.5138V28.3713H59.5864C59.8282 28.3713 60.0223 28.3296 60.1688 28.246C60.3154 28.1625 60.4216 28.0497 60.4875 27.9076C60.5549 27.764 60.5886 27.602 60.5886 27.4218C60.5886 27.2416 60.5549 27.0804 60.4875 26.9383C60.4216 26.7961 60.3146 26.6848 60.1666 26.6042C60.0186 26.5221 59.8223 26.4811 59.5776 26.4811H58.6193V30.4989H58.0742Z" fill="#808080"/>
<path d="M56.9806 25.9976V30.4989H56.4355V25.9976H56.9806Z" fill="#808080"/>
<path d="M52.7363 30.4989V25.9976H55.453V26.4811H53.2814V28.0021H55.3123V28.4856H53.2814V30.0154H55.4881V30.4989H52.7363Z" fill="#808080"/>
<path d="M51.8546 27.4043H51.3096C51.2773 27.2475 51.2209 27.1097 51.1403 26.991C51.0612 26.8724 50.9645 26.7727 50.8502 26.6921C50.7374 26.6101 50.6121 26.5485 50.4744 26.5075C50.3366 26.4665 50.193 26.446 50.0436 26.446C49.771 26.446 49.5241 26.5148 49.3029 26.6526C49.0831 26.7903 48.908 26.9932 48.7776 27.2614C48.6486 27.5295 48.5841 27.8585 48.5841 28.2483C48.5841 28.638 48.6486 28.967 48.7776 29.2351C48.908 29.5033 49.0831 29.7062 49.3029 29.844C49.5241 29.9817 49.771 30.0506 50.0436 30.0506C50.193 30.0506 50.3366 30.03 50.4744 29.989C50.6121 29.948 50.7374 29.8872 50.8502 29.8066C50.9645 29.7245 51.0612 29.6242 51.1403 29.5055C51.2209 29.3853 51.2773 29.2476 51.3096 29.0923H51.8546C51.8136 29.3223 51.7389 29.5282 51.6305 29.7099C51.522 29.8916 51.3872 30.0462 51.226 30.1736C51.0649 30.2997 50.8839 30.3956 50.6832 30.4616C50.4839 30.5275 50.2707 30.5605 50.0436 30.5605C49.6597 30.5605 49.3182 30.4667 49.0193 30.2791C48.7204 30.0916 48.4852 29.8249 48.3138 29.4791C48.1424 29.1333 48.0566 28.723 48.0566 28.2483C48.0566 27.7735 48.1424 27.3632 48.3138 27.0174C48.4852 26.6716 48.7204 26.4049 49.0193 26.2174C49.3182 26.0298 49.6597 25.936 50.0436 25.936C50.2707 25.936 50.4839 25.969 50.6832 26.0349C50.8839 26.1009 51.0649 26.1976 51.226 26.3251C51.3872 26.4511 51.522 26.6049 51.6305 26.7866C51.7389 26.9669 51.8136 27.1727 51.8546 27.4043Z" fill="#808080"/>
<path d="M44.5332 30.4989V25.9976H47.2498V26.4811H45.0783V28.0021H47.1092V28.4856H45.0783V30.0154H47.285V30.4989H44.5332Z" fill="#808080"/>
<path d="M40.5742 30.4989V25.9976H42.0952C42.4468 25.9976 42.7355 26.0576 42.9612 26.1778C43.1868 26.2965 43.3539 26.4599 43.4623 26.6679C43.5707 26.876 43.6249 27.1126 43.6249 27.3779C43.6249 27.6431 43.5707 27.8783 43.4623 28.0834C43.3539 28.2885 43.1875 28.4497 42.9634 28.5669C42.7392 28.6827 42.4527 28.7406 42.104 28.7406H40.8731V28.2482H42.0864C42.3267 28.2482 42.5201 28.2131 42.6666 28.1427C42.8146 28.0724 42.9216 27.9728 42.9875 27.8438C43.0549 27.7134 43.0886 27.5581 43.0886 27.3779C43.0886 27.1976 43.0549 27.0401 42.9875 26.9053C42.9201 26.7705 42.8124 26.6665 42.6644 26.5932C42.5164 26.5185 42.3208 26.4811 42.0776 26.4811H41.1193V30.4989H40.5742ZM42.693 28.4768L43.8008 30.4989H43.1678L42.0776 28.4768H42.693Z" fill="#808080"/>
<path d="M64.7429 58.0607L64.4853 58.6193H60.9199L61.1233 58.0607H64.7429ZM64.2576 59.1616L63.9946 59.7255H60.9199L61.1233 59.1616H64.2576ZM65.4045 56.5885L65.0845 57.2745C64.9833 57.1877 64.873 57.1091 64.7537 57.0386C64.6344 56.9681 64.5061 56.912 64.3687 56.8705C64.2314 56.8271 64.084 56.8054 63.9268 56.8054C63.6376 56.8054 63.38 56.8831 63.1541 57.0386C62.9281 57.194 62.7501 57.4272 62.6199 57.7381C62.4916 58.0472 62.4274 58.4322 62.4274 58.8931C62.4274 59.3541 62.4916 59.7391 62.6199 60.0482C62.7501 60.3573 62.9281 60.5895 63.1541 60.745C63.38 60.8986 63.6376 60.9754 63.9268 60.9754C64.0859 60.9754 64.2341 60.9547 64.3714 60.9131C64.5106 60.8715 64.6372 60.8173 64.751 60.7504C64.8667 60.6817 64.9706 60.6094 65.0628 60.5335L65.3909 61.2167C65.1993 61.3903 64.977 61.5213 64.7239 61.6099C64.4709 61.6985 64.2052 61.7427 63.9268 61.7427C63.4731 61.7427 63.0709 61.628 62.7202 61.3984C62.3714 61.1688 62.0975 60.8417 61.8987 60.4169C61.6999 59.9903 61.6005 59.4824 61.6005 58.8931C61.6005 58.3021 61.6999 57.7932 61.8987 57.3666C62.0975 56.9401 62.3714 56.612 62.7202 56.3824C63.0709 56.1529 63.4731 56.0381 63.9268 56.0381C64.216 56.0381 64.4853 56.086 64.7348 56.1818C64.9842 56.2758 65.2074 56.4113 65.4045 56.5885Z" fill="#0F429F"/>
<path d="M56.1824 61.7427C55.7739 61.7427 55.426 61.6316 55.1386 61.4093C54.8512 61.1851 54.6315 60.8607 54.4797 60.4359C54.3279 60.0093 54.252 59.4941 54.252 58.8904C54.252 58.2903 54.3279 57.7779 54.4797 57.3531C54.6333 56.9265 54.8539 56.6011 55.1413 56.377C55.4305 56.1511 55.7775 56.0381 56.1824 56.0381C56.5873 56.0381 56.9335 56.1511 57.2209 56.377C57.5101 56.6011 57.7306 56.9265 57.8824 57.3531C58.0361 57.7779 58.1129 58.2903 58.1129 58.8904C58.1129 59.4941 58.037 60.0093 57.8851 60.4359C57.7333 60.8607 57.5137 61.1851 57.2263 61.4093C56.9389 61.6316 56.5909 61.7427 56.1824 61.7427ZM56.1824 61.1463C56.5873 61.1463 56.9018 60.951 57.126 60.5606C57.3501 60.1702 57.4622 59.6134 57.4622 58.8904C57.4622 58.4096 57.4107 58.0002 57.3076 57.6622C57.2064 57.3242 57.06 57.0666 56.8684 56.8894C56.6786 56.7123 56.4499 56.6237 56.1824 56.6237C55.7811 56.6237 55.4675 56.8217 55.2416 57.2175C55.0156 57.6116 54.9027 58.1692 54.9027 58.8904C54.9027 59.3712 54.9533 59.7797 55.0545 60.1159C55.1557 60.4521 55.3012 60.7079 55.491 60.8833C55.6826 61.0586 55.9131 61.1463 56.1824 61.1463Z" fill="#0F429F"/>
<path d="M49.3438 60.5278V59.9747L51.7839 56.1138H52.1852V56.9706H51.9141L50.0704 59.888V59.9313H53.3565V60.5278H49.3438ZM51.9575 61.6666V60.3597V60.1022V56.1138H52.5973V61.6666H51.9575Z" fill="#0F429F"/>
<path d="M61.3906 54.4596V51.9746H61.6915V54.1927H62.8467V54.4596H61.3906Z" fill="#B3B3B3"/>
<path d="M59.1866 54.4596H58.8711L59.7836 51.9746H60.0942L61.0067 54.4596H60.6912L59.9486 52.3678H59.9292L59.1866 54.4596ZM59.3031 53.4889H60.5747V53.7559H59.3031V53.4889Z" fill="#B3B3B3"/>
<path d="M57.0449 52.2416V51.9746H58.9087V52.2416H58.1273V54.4596H57.8263V52.2416H57.0449Z" fill="#B3B3B3"/>
<path d="M56.7817 53.2169C56.7817 53.479 56.7344 53.7055 56.6397 53.8964C56.5451 54.0873 56.4153 54.2346 56.2502 54.3381C56.0852 54.4416 55.8967 54.4934 55.6848 54.4934C55.4729 54.4934 55.2844 54.4416 55.1194 54.3381C54.9543 54.2346 54.8245 54.0873 54.7299 53.8964C54.6352 53.7055 54.5879 53.479 54.5879 53.2169C54.5879 52.9548 54.6352 52.7283 54.7299 52.5374C54.8245 52.3465 54.9543 52.1993 55.1194 52.0957C55.2844 51.9922 55.4729 51.9404 55.6848 51.9404C55.8967 51.9404 56.0852 51.9922 56.2502 52.0957C56.4153 52.1993 56.5451 52.3465 56.6397 52.5374C56.7344 52.7283 56.7817 52.9548 56.7817 53.2169ZM56.4905 53.2169C56.4905 53.0017 56.4545 52.8201 56.3825 52.6721C56.3113 52.5241 56.2146 52.412 56.0925 52.336C55.9712 52.26 55.8353 52.2219 55.6848 52.2219C55.5343 52.2219 55.398 52.26 55.2759 52.336C55.1545 52.412 55.0579 52.5241 54.9859 52.6721C54.9147 52.8201 54.8791 53.0017 54.8791 53.2169C54.8791 53.4321 54.9147 53.6137 54.9859 53.7617C55.0579 53.9098 55.1545 54.0218 55.2759 54.0979C55.398 54.1739 55.5343 54.2119 55.6848 54.2119C55.8353 54.2119 55.9712 54.1739 56.0925 54.0979C56.2146 54.0218 56.3113 53.9098 56.3825 53.7617C56.4545 53.6137 56.4905 53.4321 56.4905 53.2169Z" fill="#B3B3B3"/>
<path d="M52.457 52.2416V51.9746H54.3208V52.2416H53.5394V54.4596H53.2385V52.2416H52.457Z" fill="#B3B3B3"/>
<path d="M60.4019 20.7695H42.0938V21.4946H60.4019V20.7695Z" fill="#B3B3B3"/>
<path d="M61.4876 22.3101H41.1855V23.0351H61.4876V22.3101Z" fill="#B3B3B3"/>
<path d="M62.575 19.2285H40.0977V19.9536H62.575V19.2285Z" fill="#B3B3B3"/>
<path d="M66.653 35.7337C66.6212 35.7337 66.594 35.7223 66.5712 35.6996C66.5485 35.6768 66.5371 35.6496 66.5371 35.6178C66.5371 35.5861 66.5485 35.5588 66.5712 35.5361C66.594 35.5133 66.6212 35.502 66.653 35.502C66.6847 35.502 66.712 35.5133 66.7347 35.5361C66.7575 35.5588 66.7688 35.5861 66.7688 35.6178C66.7688 35.6388 66.7635 35.6582 66.7528 35.6758C66.7425 35.6934 66.7285 35.7075 66.7109 35.7182C66.6937 35.7285 66.6744 35.7337 66.653 35.7337Z" fill="#808080"/>
<path d="M66.153 35.7337C66.1212 35.7337 66.094 35.7223 66.0712 35.6996C66.0485 35.6768 66.0371 35.6496 66.0371 35.6178C66.0371 35.5861 66.0485 35.5588 66.0712 35.5361C66.094 35.5133 66.1212 35.502 66.153 35.502C66.1847 35.502 66.212 35.5133 66.2347 35.5361C66.2575 35.5588 66.2688 35.5861 66.2688 35.6178C66.2688 35.6388 66.2635 35.6582 66.2528 35.6758C66.2425 35.6934 66.2285 35.7075 66.2109 35.7182C66.1937 35.7285 66.1744 35.7337 66.153 35.7337Z" fill="#808080"/>
<path d="M65.6549 35.7337C65.6232 35.7337 65.5959 35.7223 65.5732 35.6996C65.5504 35.6768 65.5391 35.6496 65.5391 35.6178C65.5391 35.5861 65.5504 35.5588 65.5732 35.5361C65.5959 35.5133 65.6232 35.502 65.6549 35.502C65.6867 35.502 65.7139 35.5133 65.7367 35.5361C65.7594 35.5588 65.7708 35.5861 65.7708 35.6178C65.7708 35.6388 65.7654 35.6582 65.7547 35.6758C65.7444 35.6934 65.7305 35.7075 65.7129 35.7182C65.6957 35.7285 65.6764 35.7337 65.6549 35.7337Z" fill="#808080"/>
<path d="M65.1569 35.7337C65.1251 35.7337 65.0979 35.7223 65.0751 35.6996C65.0524 35.6768 65.041 35.6496 65.041 35.6178C65.041 35.5861 65.0524 35.5588 65.0751 35.5361C65.0979 35.5133 65.1251 35.502 65.1569 35.502C65.1886 35.502 65.2159 35.5133 65.2386 35.5361C65.2614 35.5588 65.2728 35.5861 65.2728 35.6178C65.2728 35.6388 65.2674 35.6582 65.2567 35.6758C65.2464 35.6934 65.2324 35.7075 65.2148 35.7182C65.1977 35.7285 65.1783 35.7337 65.1569 35.7337Z" fill="#808080"/>
<path d="M64.6549 35.7337C64.6232 35.7337 64.5959 35.7223 64.5732 35.6996C64.5504 35.6768 64.5391 35.6496 64.5391 35.6178C64.5391 35.5861 64.5504 35.5588 64.5732 35.5361C64.5959 35.5133 64.6232 35.502 64.6549 35.502C64.6867 35.502 64.7139 35.5133 64.7367 35.5361C64.7594 35.5588 64.7708 35.5861 64.7708 35.6178C64.7708 35.6388 64.7654 35.6582 64.7547 35.6758C64.7444 35.6934 64.7305 35.7075 64.7129 35.7182C64.6957 35.7285 64.6764 35.7337 64.6549 35.7337Z" fill="#808080"/>
<path d="M64.1588 35.7337C64.1271 35.7337 64.0998 35.7223 64.0771 35.6996C64.0543 35.6768 64.043 35.6496 64.043 35.6178C64.043 35.5861 64.0543 35.5588 64.0771 35.5361C64.0998 35.5133 64.1271 35.502 64.1588 35.502C64.1906 35.502 64.2178 35.5133 64.2406 35.5361C64.2633 35.5588 64.2747 35.5861 64.2747 35.6178C64.2747 35.6388 64.2693 35.6582 64.2586 35.6758C64.2483 35.6934 64.2344 35.7075 64.2168 35.7182C64.1996 35.7285 64.1803 35.7337 64.1588 35.7337Z" fill="#808080"/>
<path d="M63.6588 35.7337C63.6271 35.7337 63.5998 35.7223 63.5771 35.6996C63.5543 35.6768 63.543 35.6496 63.543 35.6178C63.543 35.5861 63.5543 35.5588 63.5771 35.5361C63.5998 35.5133 63.6271 35.502 63.6588 35.502C63.6906 35.502 63.7178 35.5133 63.7406 35.5361C63.7633 35.5588 63.7747 35.5861 63.7747 35.6178C63.7747 35.6388 63.7693 35.6582 63.7586 35.6758C63.7483 35.6934 63.7344 35.7075 63.7168 35.7182C63.6996 35.7285 63.6803 35.7337 63.6588 35.7337Z" fill="#808080"/>
<path d="M63.1608 35.7337C63.129 35.7337 63.1018 35.7223 63.079 35.6996C63.0563 35.6768 63.0449 35.6496 63.0449 35.6178C63.0449 35.5861 63.0563 35.5588 63.079 35.5361C63.1018 35.5133 63.129 35.502 63.1608 35.502C63.1925 35.502 63.2198 35.5133 63.2425 35.5361C63.2653 35.5588 63.2767 35.5861 63.2767 35.6178C63.2767 35.6388 63.2713 35.6582 63.2606 35.6758C63.2503 35.6934 63.2363 35.7075 63.2187 35.7182C63.2016 35.7285 63.1822 35.7337 63.1608 35.7337Z" fill="#808080"/>
<path d="M62.6608 35.7337C62.629 35.7337 62.6018 35.7223 62.579 35.6996C62.5563 35.6768 62.5449 35.6496 62.5449 35.6178C62.5449 35.5861 62.5563 35.5588 62.579 35.5361C62.6018 35.5133 62.629 35.502 62.6608 35.502C62.6925 35.502 62.7198 35.5133 62.7425 35.5361C62.7653 35.5588 62.7767 35.5861 62.7767 35.6178C62.7767 35.6388 62.7713 35.6582 62.7606 35.6758C62.7503 35.6934 62.7363 35.7075 62.7187 35.7182C62.7016 35.7285 62.6822 35.7337 62.6608 35.7337Z" fill="#808080"/>
<path d="M62.1608 35.7337C62.129 35.7337 62.1018 35.7223 62.079 35.6996C62.0563 35.6768 62.0449 35.6496 62.0449 35.6178C62.0449 35.5861 62.0563 35.5588 62.079 35.5361C62.1018 35.5133 62.129 35.502 62.1608 35.502C62.1925 35.502 62.2198 35.5133 62.2425 35.5361C62.2653 35.5588 62.2767 35.5861 62.2767 35.6178C62.2767 35.6388 62.2713 35.6582 62.2606 35.6758C62.2503 35.6934 62.2363 35.7075 62.2187 35.7182C62.2016 35.7285 62.1822 35.7337 62.1608 35.7337Z" fill="#808080"/>
<path d="M61.6627 35.7337C61.631 35.7337 61.6037 35.7223 61.581 35.6996C61.5582 35.6768 61.5469 35.6496 61.5469 35.6178C61.5469 35.5861 61.5582 35.5588 61.581 35.5361C61.6037 35.5133 61.631 35.502 61.6627 35.502C61.6945 35.502 61.7217 35.5133 61.7445 35.5361C61.7672 35.5588 61.7786 35.5861 61.7786 35.6178C61.7786 35.6388 61.7732 35.6582 61.7625 35.6758C61.7522 35.6934 61.7383 35.7075 61.7207 35.7182C61.7035 35.7285 61.6842 35.7337 61.6627 35.7337Z" fill="#808080"/>
<path d="M61.1608 35.7337C61.129 35.7337 61.1018 35.7223 61.079 35.6996C61.0563 35.6768 61.0449 35.6496 61.0449 35.6178C61.0449 35.5861 61.0563 35.5588 61.079 35.5361C61.1018 35.5133 61.129 35.502 61.1608 35.502C61.1925 35.502 61.2198 35.5133 61.2425 35.5361C61.2653 35.5588 61.2767 35.5861 61.2767 35.6178C61.2767 35.6388 61.2713 35.6582 61.2606 35.6758C61.2503 35.6934 61.2363 35.7075 61.2187 35.7182C61.2016 35.7285 61.1822 35.7337 61.1608 35.7337Z" fill="#808080"/>
<path d="M60.6627 35.7337C60.631 35.7337 60.6037 35.7223 60.581 35.6996C60.5582 35.6768 60.5469 35.6496 60.5469 35.6178C60.5469 35.5861 60.5582 35.5588 60.581 35.5361C60.6037 35.5133 60.631 35.502 60.6627 35.502C60.6945 35.502 60.7217 35.5133 60.7445 35.5361C60.7672 35.5588 60.7786 35.5861 60.7786 35.6178C60.7786 35.6388 60.7732 35.6582 60.7625 35.6758C60.7522 35.6934 60.7383 35.7075 60.7207 35.7182C60.7035 35.7285 60.6842 35.7337 60.6627 35.7337Z" fill="#808080"/>
<path d="M60.1647 35.7337C60.1329 35.7337 60.1057 35.7223 60.0829 35.6996C60.0602 35.6768 60.0488 35.6496 60.0488 35.6178C60.0488 35.5861 60.0602 35.5588 60.0829 35.5361C60.1057 35.5133 60.1329 35.502 60.1647 35.502C60.1965 35.502 60.2237 35.5133 60.2464 35.5361C60.2692 35.5588 60.2806 35.5861 60.2806 35.6178C60.2806 35.6388 60.2752 35.6582 60.2645 35.6758C60.2542 35.6934 60.2402 35.7075 60.2226 35.7182C60.2055 35.7285 60.1862 35.7337 60.1647 35.7337Z" fill="#808080"/>
<path d="M59.6647 35.7337C59.6329 35.7337 59.6057 35.7223 59.5829 35.6996C59.5602 35.6768 59.5488 35.6496 59.5488 35.6178C59.5488 35.5861 59.5602 35.5588 59.5829 35.5361C59.6057 35.5133 59.6329 35.502 59.6647 35.502C59.6965 35.502 59.7237 35.5133 59.7464 35.5361C59.7692 35.5588 59.7806 35.5861 59.7806 35.6178C59.7806 35.6388 59.7752 35.6582 59.7645 35.6758C59.7542 35.6934 59.7402 35.7075 59.7226 35.7182C59.7055 35.7285 59.6862 35.7337 59.6647 35.7337Z" fill="#808080"/>
<path d="M59.1666 35.7337C59.1349 35.7337 59.1076 35.7223 59.0849 35.6996C59.0622 35.6768 59.0508 35.6496 59.0508 35.6178C59.0508 35.5861 59.0622 35.5588 59.0849 35.5361C59.1076 35.5133 59.1349 35.502 59.1666 35.502C59.1984 35.502 59.2257 35.5133 59.2484 35.5361C59.2711 35.5588 59.2825 35.5861 59.2825 35.6178C59.2825 35.6388 59.2772 35.6582 59.2664 35.6758C59.2561 35.6934 59.2422 35.7075 59.2246 35.7182C59.2074 35.7285 59.1881 35.7337 59.1666 35.7337Z" fill="#808080"/>
<path d="M58.6647 35.7337C58.6329 35.7337 58.6057 35.7223 58.5829 35.6996C58.5602 35.6768 58.5488 35.6496 58.5488 35.6178C58.5488 35.5861 58.5602 35.5588 58.5829 35.5361C58.6057 35.5133 58.6329 35.502 58.6647 35.502C58.6965 35.502 58.7237 35.5133 58.7464 35.5361C58.7692 35.5588 58.7806 35.5861 58.7806 35.6178C58.7806 35.6388 58.7752 35.6582 58.7645 35.6758C58.7542 35.6934 58.7402 35.7075 58.7226 35.7182C58.7055 35.7285 58.6862 35.7337 58.6647 35.7337Z" fill="#808080"/>
<path d="M58.1666 35.7337C58.1349 35.7337 58.1076 35.7223 58.0849 35.6996C58.0622 35.6768 58.0508 35.6496 58.0508 35.6178C58.0508 35.5861 58.0622 35.5588 58.0849 35.5361C58.1076 35.5133 58.1349 35.502 58.1666 35.502C58.1984 35.502 58.2257 35.5133 58.2484 35.5361C58.2711 35.5588 58.2825 35.5861 58.2825 35.6178C58.2825 35.6388 58.2772 35.6582 58.2664 35.6758C58.2561 35.6934 58.2422 35.7075 58.2246 35.7182C58.2074 35.7285 58.1881 35.7337 58.1666 35.7337Z" fill="#808080"/>
<path d="M57.6686 35.7337C57.6368 35.7337 57.6096 35.7223 57.5869 35.6996C57.5641 35.6768 57.5527 35.6496 57.5527 35.6178C57.5527 35.5861 57.5641 35.5588 57.5869 35.5361C57.6096 35.5133 57.6368 35.502 57.6686 35.502C57.7004 35.502 57.7276 35.5133 57.7504 35.5361C57.7731 35.5588 57.7845 35.5861 57.7845 35.6178C57.7845 35.6388 57.7791 35.6582 57.7684 35.6758C57.7581 35.6934 57.7441 35.7075 57.7265 35.7182C57.7094 35.7285 57.6901 35.7337 57.6686 35.7337Z" fill="#808080"/>
<path d="M57.1686 35.7337C57.1368 35.7337 57.1096 35.7223 57.0869 35.6996C57.0641 35.6768 57.0527 35.6496 57.0527 35.6178C57.0527 35.5861 57.0641 35.5588 57.0869 35.5361C57.1096 35.5133 57.1368 35.502 57.1686 35.502C57.2004 35.502 57.2276 35.5133 57.2504 35.5361C57.2731 35.5588 57.2845 35.5861 57.2845 35.6178C57.2845 35.6388 57.2791 35.6582 57.2684 35.6758C57.2581 35.6934 57.2441 35.7075 57.2265 35.7182C57.2094 35.7285 57.1901 35.7337 57.1686 35.7337Z" fill="#808080"/>
<path d="M56.6706 35.7337C56.6388 35.7337 56.6115 35.7223 56.5888 35.6996C56.5661 35.6768 56.5547 35.6496 56.5547 35.6178C56.5547 35.5861 56.5661 35.5588 56.5888 35.5361C56.6115 35.5133 56.6388 35.502 56.6706 35.502C56.7023 35.502 56.7296 35.5133 56.7523 35.5361C56.7751 35.5588 56.7864 35.5861 56.7864 35.6178C56.7864 35.6388 56.7811 35.6582 56.7703 35.6758C56.76 35.6934 56.7461 35.7075 56.7285 35.7182C56.7113 35.7285 56.692 35.7337 56.6706 35.7337Z" fill="#808080"/>
<path d="M56.1686 35.7337C56.1368 35.7337 56.1096 35.7223 56.0869 35.6996C56.0641 35.6768 56.0527 35.6496 56.0527 35.6178C56.0527 35.5861 56.0641 35.5588 56.0869 35.5361C56.1096 35.5133 56.1368 35.502 56.1686 35.502C56.2004 35.502 56.2276 35.5133 56.2504 35.5361C56.2731 35.5588 56.2845 35.5861 56.2845 35.6178C56.2845 35.6388 56.2791 35.6582 56.2684 35.6758C56.2581 35.6934 56.2441 35.7075 56.2265 35.7182C56.2094 35.7285 56.1901 35.7337 56.1686 35.7337Z" fill="#808080"/>
<path d="M55.6706 35.7337C55.6388 35.7337 55.6115 35.7223 55.5888 35.6996C55.5661 35.6768 55.5547 35.6496 55.5547 35.6178C55.5547 35.5861 55.5661 35.5588 55.5888 35.5361C55.6115 35.5133 55.6388 35.502 55.6706 35.502C55.7023 35.502 55.7296 35.5133 55.7523 35.5361C55.7751 35.5588 55.7864 35.5861 55.7864 35.6178C55.7864 35.6388 55.7811 35.6582 55.7703 35.6758C55.76 35.6934 55.7461 35.7075 55.7285 35.7182C55.7113 35.7285 55.692 35.7337 55.6706 35.7337Z" fill="#808080"/>
<path d="M55.1706 35.7337C55.1388 35.7337 55.1115 35.7223 55.0888 35.6996C55.0661 35.6768 55.0547 35.6496 55.0547 35.6178C55.0547 35.5861 55.0661 35.5588 55.0888 35.5361C55.1115 35.5133 55.1388 35.502 55.1706 35.502C55.2023 35.502 55.2296 35.5133 55.2523 35.5361C55.2751 35.5588 55.2864 35.5861 55.2864 35.6178C55.2864 35.6388 55.2811 35.6582 55.2703 35.6758C55.26 35.6934 55.2461 35.7075 55.2285 35.7182C55.2113 35.7285 55.192 35.7337 55.1706 35.7337Z" fill="#808080"/>
<path d="M54.6725 35.7337C54.6408 35.7337 54.6135 35.7223 54.5908 35.6996C54.568 35.6768 54.5566 35.6496 54.5566 35.6178C54.5566 35.5861 54.568 35.5588 54.5908 35.5361C54.6135 35.5133 54.6408 35.502 54.6725 35.502C54.7043 35.502 54.7315 35.5133 54.7543 35.5361C54.777 35.5588 54.7884 35.5861 54.7884 35.6178C54.7884 35.6388 54.783 35.6582 54.7723 35.6758C54.762 35.6934 54.748 35.7075 54.7304 35.7182C54.7133 35.7285 54.694 35.7337 54.6725 35.7337Z" fill="#808080"/>
<path d="M54.1725 35.7337C54.1408 35.7337 54.1135 35.7223 54.0908 35.6996C54.068 35.6768 54.0566 35.6496 54.0566 35.6178C54.0566 35.5861 54.068 35.5588 54.0908 35.5361C54.1135 35.5133 54.1408 35.502 54.1725 35.502C54.2043 35.502 54.2315 35.5133 54.2543 35.5361C54.277 35.5588 54.2884 35.5861 54.2884 35.6178C54.2884 35.6388 54.283 35.6582 54.2723 35.6758C54.262 35.6934 54.248 35.7075 54.2304 35.7182C54.2133 35.7285 54.194 35.7337 54.1725 35.7337Z" fill="#808080"/>
<path d="M53.6725 35.7337C53.6408 35.7337 53.6135 35.7223 53.5908 35.6996C53.568 35.6768 53.5566 35.6496 53.5566 35.6178C53.5566 35.5861 53.568 35.5588 53.5908 35.5361C53.6135 35.5133 53.6408 35.502 53.6725 35.502C53.7043 35.502 53.7315 35.5133 53.7543 35.5361C53.777 35.5588 53.7884 35.5861 53.7884 35.6178C53.7884 35.6388 53.783 35.6582 53.7723 35.6758C53.762 35.6934 53.748 35.7075 53.7304 35.7182C53.7133 35.7285 53.694 35.7337 53.6725 35.7337Z" fill="#808080"/>
<path d="M53.1725 35.7337C53.1408 35.7337 53.1135 35.7223 53.0908 35.6996C53.068 35.6768 53.0566 35.6496 53.0566 35.6178C53.0566 35.5861 53.068 35.5588 53.0908 35.5361C53.1135 35.5133 53.1408 35.502 53.1725 35.502C53.2043 35.502 53.2315 35.5133 53.2543 35.5361C53.277 35.5588 53.2884 35.5861 53.2884 35.6178C53.2884 35.6388 53.283 35.6582 53.2723 35.6758C53.262 35.6934 53.248 35.7075 53.2304 35.7182C53.2133 35.7285 53.194 35.7337 53.1725 35.7337Z" fill="#808080"/>
<path d="M52.6745 35.7337C52.6427 35.7337 52.6155 35.7223 52.5927 35.6996C52.57 35.6768 52.5586 35.6496 52.5586 35.6178C52.5586 35.5861 52.57 35.5588 52.5927 35.5361C52.6155 35.5133 52.6427 35.502 52.6745 35.502C52.7062 35.502 52.7335 35.5133 52.7562 35.5361C52.779 35.5588 52.7903 35.5861 52.7903 35.6178C52.7903 35.6388 52.785 35.6582 52.7742 35.6758C52.7639 35.6934 52.75 35.7075 52.7324 35.7182C52.7152 35.7285 52.6959 35.7337 52.6745 35.7337Z" fill="#808080"/>
<path d="M52.1764 35.7337C52.1447 35.7337 52.1174 35.7223 52.0947 35.6996C52.0719 35.6768 52.0605 35.6496 52.0605 35.6178C52.0605 35.5861 52.0719 35.5588 52.0947 35.5361C52.1174 35.5133 52.1447 35.502 52.1764 35.502C52.2082 35.502 52.2354 35.5133 52.2582 35.5361C52.2809 35.5588 52.2923 35.5861 52.2923 35.6178C52.2923 35.6388 52.2869 35.6582 52.2762 35.6758C52.2659 35.6934 52.2519 35.7075 52.2343 35.7182C52.2172 35.7285 52.1979 35.7337 52.1764 35.7337Z" fill="#808080"/>
<path d="M51.6784 35.7337C51.6466 35.7337 51.6194 35.7223 51.5966 35.6996C51.5739 35.6768 51.5625 35.6496 51.5625 35.6178C51.5625 35.5861 51.5739 35.5588 51.5966 35.5361C51.6194 35.5133 51.6466 35.502 51.6784 35.502C51.7101 35.502 51.7374 35.5133 51.7601 35.5361C51.7829 35.5588 51.7942 35.5861 51.7942 35.6178C51.7942 35.6388 51.7889 35.6582 51.7781 35.6758C51.7678 35.6934 51.7539 35.7075 51.7363 35.7182C51.7191 35.7285 51.6998 35.7337 51.6784 35.7337Z" fill="#808080"/>
<path d="M51.1764 35.7337C51.1447 35.7337 51.1174 35.7223 51.0947 35.6996C51.0719 35.6768 51.0605 35.6496 51.0605 35.6178C51.0605 35.5861 51.0719 35.5588 51.0947 35.5361C51.1174 35.5133 51.1447 35.502 51.1764 35.502C51.2082 35.502 51.2354 35.5133 51.2582 35.5361C51.2809 35.5588 51.2923 35.5861 51.2923 35.6178C51.2923 35.6388 51.2869 35.6582 51.2762 35.6758C51.2659 35.6934 51.2519 35.7075 51.2343 35.7182C51.2172 35.7285 51.1979 35.7337 51.1764 35.7337Z" fill="#808080"/>
<path d="M50.6784 35.7337C50.6466 35.7337 50.6194 35.7223 50.5966 35.6996C50.5739 35.6768 50.5625 35.6496 50.5625 35.6178C50.5625 35.5861 50.5739 35.5588 50.5966 35.5361C50.6194 35.5133 50.6466 35.502 50.6784 35.502C50.7101 35.502 50.7374 35.5133 50.7601 35.5361C50.7829 35.5588 50.7942 35.5861 50.7942 35.6178C50.7942 35.6388 50.7889 35.6582 50.7781 35.6758C50.7678 35.6934 50.7539 35.7075 50.7363 35.7182C50.7191 35.7285 50.6998 35.7337 50.6784 35.7337Z" fill="#808080"/>
<path d="M66.567 39.1785C66.5353 39.1785 66.508 39.1671 66.4853 39.1444C66.4625 39.1217 66.4512 39.0944 66.4512 39.0626C66.4512 39.0309 66.4625 39.0036 66.4853 38.9809C66.508 38.9581 66.5353 38.9468 66.567 38.9468C66.5988 38.9468 66.626 38.9581 66.6488 38.9809C66.6715 39.0036 66.6829 39.0309 66.6829 39.0626C66.6829 39.0837 66.6775 39.103 66.6668 39.1206C66.6565 39.1382 66.6426 39.1523 66.625 39.1631C66.6078 39.1734 66.5885 39.1785 66.567 39.1785Z" fill="#808080"/>
<path d="M66.069 39.1785C66.0372 39.1785 66.01 39.1671 65.9872 39.1444C65.9645 39.1217 65.9531 39.0944 65.9531 39.0626C65.9531 39.0309 65.9645 39.0036 65.9872 38.9809C66.01 38.9581 66.0372 38.9468 66.069 38.9468C66.1007 38.9468 66.128 38.9581 66.1507 38.9809C66.1735 39.0036 66.1849 39.0309 66.1849 39.0626C66.1849 39.0837 66.1795 39.103 66.1688 39.1206C66.1585 39.1382 66.1445 39.1523 66.1269 39.1631C66.1098 39.1734 66.0904 39.1785 66.069 39.1785Z" fill="#808080"/>
<path d="M65.569 39.1785C65.5372 39.1785 65.51 39.1671 65.4872 39.1444C65.4645 39.1217 65.4531 39.0944 65.4531 39.0626C65.4531 39.0309 65.4645 39.0036 65.4872 38.9809C65.51 38.9581 65.5372 38.9468 65.569 38.9468C65.6007 38.9468 65.628 38.9581 65.6507 38.9809C65.6735 39.0036 65.6849 39.0309 65.6849 39.0626C65.6849 39.0837 65.6795 39.103 65.6688 39.1206C65.6585 39.1382 65.6445 39.1523 65.6269 39.1631C65.6098 39.1734 65.5904 39.1785 65.569 39.1785Z" fill="#808080"/>
<path d="M65.069 39.1785C65.0372 39.1785 65.01 39.1671 64.9872 39.1444C64.9645 39.1217 64.9531 39.0944 64.9531 39.0626C64.9531 39.0309 64.9645 39.0036 64.9872 38.9809C65.01 38.9581 65.0372 38.9468 65.069 38.9468C65.1007 38.9468 65.128 38.9581 65.1507 38.9809C65.1735 39.0036 65.1849 39.0309 65.1849 39.0626C65.1849 39.0837 65.1795 39.103 65.1688 39.1206C65.1585 39.1382 65.1445 39.1523 65.1269 39.1631C65.1098 39.1734 65.0904 39.1785 65.069 39.1785Z" fill="#808080"/>
<path d="M64.5709 39.1785C64.5392 39.1785 64.5119 39.1671 64.4892 39.1444C64.4665 39.1217 64.4551 39.0944 64.4551 39.0626C64.4551 39.0309 64.4665 39.0036 64.4892 38.9809C64.5119 38.9581 64.5392 38.9468 64.5709 38.9468C64.6027 38.9468 64.63 38.9581 64.6527 38.9809C64.6754 39.0036 64.6868 39.0309 64.6868 39.0626C64.6868 39.0837 64.6814 39.103 64.6707 39.1206C64.6604 39.1382 64.6465 39.1523 64.6289 39.1631C64.6117 39.1734 64.5924 39.1785 64.5709 39.1785Z" fill="#808080"/>
<path d="M64.0709 39.1785C64.0392 39.1785 64.0119 39.1671 63.9892 39.1444C63.9665 39.1217 63.9551 39.0944 63.9551 39.0626C63.9551 39.0309 63.9665 39.0036 63.9892 38.9809C64.0119 38.9581 64.0392 38.9468 64.0709 38.9468C64.1027 38.9468 64.13 38.9581 64.1527 38.9809C64.1754 39.0036 64.1868 39.0309 64.1868 39.0626C64.1868 39.0837 64.1814 39.103 64.1707 39.1206C64.1604 39.1382 64.1465 39.1523 64.1289 39.1631C64.1117 39.1734 64.0924 39.1785 64.0709 39.1785Z" fill="#808080"/>
<path d="M63.5729 39.1785C63.5411 39.1785 63.5139 39.1671 63.4911 39.1444C63.4684 39.1217 63.457 39.0944 63.457 39.0626C63.457 39.0309 63.4684 39.0036 63.4911 38.9809C63.5139 38.9581 63.5411 38.9468 63.5729 38.9468C63.6047 38.9468 63.6319 38.9581 63.6546 38.9809C63.6774 39.0036 63.6888 39.0309 63.6888 39.0626C63.6888 39.0837 63.6834 39.103 63.6727 39.1206C63.6624 39.1382 63.6484 39.1523 63.6308 39.1631C63.6137 39.1734 63.5944 39.1785 63.5729 39.1785Z" fill="#808080"/>
<path d="M63.0749 39.1785C63.0431 39.1785 63.0158 39.1671 62.9931 39.1444C62.9704 39.1217 62.959 39.0944 62.959 39.0626C62.959 39.0309 62.9704 39.0036 62.9931 38.9809C63.0158 38.9581 63.0431 38.9468 63.0749 38.9468C63.1066 38.9468 63.1339 38.9581 63.1566 38.9809C63.1793 39.0036 63.1907 39.0309 63.1907 39.0626C63.1907 39.0837 63.1854 39.103 63.1746 39.1206C63.1643 39.1382 63.1504 39.1523 63.1328 39.1631C63.1156 39.1734 63.0963 39.1785 63.0749 39.1785Z" fill="#808080"/>
<path d="M62.5749 39.1785C62.5431 39.1785 62.5158 39.1671 62.4931 39.1444C62.4704 39.1217 62.459 39.0944 62.459 39.0626C62.459 39.0309 62.4704 39.0036 62.4931 38.9809C62.5158 38.9581 62.5431 38.9468 62.5749 38.9468C62.6066 38.9468 62.6339 38.9581 62.6566 38.9809C62.6793 39.0036 62.6907 39.0309 62.6907 39.0626C62.6907 39.0837 62.6854 39.103 62.6746 39.1206C62.6643 39.1382 62.6504 39.1523 62.6328 39.1631C62.6156 39.1734 62.5963 39.1785 62.5749 39.1785Z" fill="#808080"/>
<path d="M62.0749 39.1785C62.0431 39.1785 62.0158 39.1671 61.9931 39.1444C61.9704 39.1217 61.959 39.0944 61.959 39.0626C61.959 39.0309 61.9704 39.0036 61.9931 38.9809C62.0158 38.9581 62.0431 38.9468 62.0749 38.9468C62.1066 38.9468 62.1339 38.9581 62.1566 38.9809C62.1793 39.0036 62.1907 39.0309 62.1907 39.0626C62.1907 39.0837 62.1854 39.103 62.1746 39.1206C62.1643 39.1382 62.1504 39.1523 62.1328 39.1631C62.1156 39.1734 62.0963 39.1785 62.0749 39.1785Z" fill="#808080"/>
<path d="M61.5749 39.1785C61.5431 39.1785 61.5158 39.1671 61.4931 39.1444C61.4704 39.1217 61.459 39.0944 61.459 39.0626C61.459 39.0309 61.4704 39.0036 61.4931 38.9809C61.5158 38.9581 61.5431 38.9468 61.5749 38.9468C61.6066 38.9468 61.6339 38.9581 61.6566 38.9809C61.6793 39.0036 61.6907 39.0309 61.6907 39.0626C61.6907 39.0837 61.6854 39.103 61.6746 39.1206C61.6643 39.1382 61.6504 39.1523 61.6328 39.1631C61.6156 39.1734 61.5963 39.1785 61.5749 39.1785Z" fill="#808080"/>
<path d="M61.0768 39.1785C61.045 39.1785 61.0178 39.1671 60.9951 39.1444C60.9723 39.1217 60.9609 39.0944 60.9609 39.0626C60.9609 39.0309 60.9723 39.0036 60.9951 38.9809C61.0178 38.9581 61.045 38.9468 61.0768 38.9468C61.1086 38.9468 61.1358 38.9581 61.1586 38.9809C61.1813 39.0036 61.1927 39.0309 61.1927 39.0626C61.1927 39.0837 61.1873 39.103 61.1766 39.1206C61.1663 39.1382 61.1523 39.1523 61.1347 39.1631C61.1176 39.1734 61.0983 39.1785 61.0768 39.1785Z" fill="#808080"/>
<path d="M60.5768 39.1785C60.545 39.1785 60.5178 39.1671 60.4951 39.1444C60.4723 39.1217 60.4609 39.0944 60.4609 39.0626C60.4609 39.0309 60.4723 39.0036 60.4951 38.9809C60.5178 38.9581 60.545 38.9468 60.5768 38.9468C60.6086 38.9468 60.6358 38.9581 60.6586 38.9809C60.6813 39.0036 60.6927 39.0309 60.6927 39.0626C60.6927 39.0837 60.6873 39.103 60.6766 39.1206C60.6663 39.1382 60.6523 39.1523 60.6347 39.1631C60.6176 39.1734 60.5983 39.1785 60.5768 39.1785Z" fill="#808080"/>
<path d="M60.0788 39.1785C60.047 39.1785 60.0198 39.1671 59.997 39.1444C59.9743 39.1217 59.9629 39.0944 59.9629 39.0626C59.9629 39.0309 59.9743 39.0036 59.997 38.9809C60.0198 38.9581 60.047 38.9468 60.0788 38.9468C60.1105 38.9468 60.1378 38.9581 60.1605 38.9809C60.1833 39.0036 60.1946 39.0309 60.1946 39.0626C60.1946 39.0837 60.1893 39.103 60.1785 39.1206C60.1682 39.1382 60.1543 39.1523 60.1367 39.1631C60.1195 39.1734 60.1002 39.1785 60.0788 39.1785Z" fill="#808080"/>
<path d="M59.5788 39.1785C59.547 39.1785 59.5198 39.1671 59.497 39.1444C59.4743 39.1217 59.4629 39.0944 59.4629 39.0626C59.4629 39.0309 59.4743 39.0036 59.497 38.9809C59.5198 38.9581 59.547 38.9468 59.5788 38.9468C59.6105 38.9468 59.6378 38.9581 59.6605 38.9809C59.6833 39.0036 59.6946 39.0309 59.6946 39.0626C59.6946 39.0837 59.6893 39.103 59.6785 39.1206C59.6682 39.1382 59.6543 39.1523 59.6367 39.1631C59.6195 39.1734 59.6002 39.1785 59.5788 39.1785Z" fill="#808080"/>
<path d="M59.0807 39.1785C59.049 39.1785 59.0217 39.1671 58.999 39.1444C58.9762 39.1217 58.9648 39.0944 58.9648 39.0626C58.9648 39.0309 58.9762 39.0036 58.999 38.9809C59.0217 38.9581 59.049 38.9468 59.0807 38.9468C59.1125 38.9468 59.1397 38.9581 59.1625 38.9809C59.1852 39.0036 59.1966 39.0309 59.1966 39.0626C59.1966 39.0837 59.1912 39.103 59.1805 39.1206C59.1702 39.1382 59.1562 39.1523 59.1386 39.1631C59.1215 39.1734 59.1022 39.1785 59.0807 39.1785Z" fill="#808080"/>
<path d="M58.5827 39.1785C58.5509 39.1785 58.5237 39.1671 58.5009 39.1444C58.4782 39.1217 58.4668 39.0944 58.4668 39.0626C58.4668 39.0309 58.4782 39.0036 58.5009 38.9809C58.5237 38.9581 58.5509 38.9468 58.5827 38.9468C58.6144 38.9468 58.6417 38.9581 58.6644 38.9809C58.6872 39.0036 58.6985 39.0309 58.6985 39.0626C58.6985 39.0837 58.6932 39.103 58.6824 39.1206C58.6721 39.1382 58.6582 39.1523 58.6406 39.1631C58.6234 39.1734 58.6041 39.1785 58.5827 39.1785Z" fill="#808080"/>
<path d="M58.0827 39.1785C58.0509 39.1785 58.0237 39.1671 58.0009 39.1444C57.9782 39.1217 57.9668 39.0944 57.9668 39.0626C57.9668 39.0309 57.9782 39.0036 58.0009 38.9809C58.0237 38.9581 58.0509 38.9468 58.0827 38.9468C58.1144 38.9468 58.1417 38.9581 58.1644 38.9809C58.1872 39.0036 58.1985 39.0309 58.1985 39.0626C58.1985 39.0837 58.1932 39.103 58.1824 39.1206C58.1721 39.1382 58.1582 39.1523 58.1406 39.1631C58.1234 39.1734 58.1041 39.1785 58.0827 39.1785Z" fill="#808080"/>
<path d="M57.5827 39.1785C57.5509 39.1785 57.5237 39.1671 57.5009 39.1444C57.4782 39.1217 57.4668 39.0944 57.4668 39.0626C57.4668 39.0309 57.4782 39.0036 57.5009 38.9809C57.5237 38.9581 57.5509 38.9468 57.5827 38.9468C57.6144 38.9468 57.6417 38.9581 57.6644 38.9809C57.6872 39.0036 57.6985 39.0309 57.6985 39.0626C57.6985 39.0837 57.6932 39.103 57.6824 39.1206C57.6721 39.1382 57.6582 39.1523 57.6406 39.1631C57.6234 39.1734 57.6041 39.1785 57.5827 39.1785Z" fill="#808080"/>
<path d="M57.0807 39.1785C57.049 39.1785 57.0217 39.1671 56.999 39.1444C56.9762 39.1217 56.9648 39.0944 56.9648 39.0626C56.9648 39.0309 56.9762 39.0036 56.999 38.9809C57.0217 38.9581 57.049 38.9468 57.0807 38.9468C57.1125 38.9468 57.1397 38.9581 57.1625 38.9809C57.1852 39.0036 57.1966 39.0309 57.1966 39.0626C57.1966 39.0837 57.1912 39.103 57.1805 39.1206C57.1702 39.1382 57.1562 39.1523 57.1386 39.1631C57.1215 39.1734 57.1022 39.1785 57.0807 39.1785Z" fill="#808080"/>
<path d="M56.5846 39.1785C56.5529 39.1785 56.5256 39.1671 56.5029 39.1444C56.4801 39.1217 56.4688 39.0944 56.4688 39.0626C56.4688 39.0309 56.4801 39.0036 56.5029 38.9809C56.5256 38.9581 56.5529 38.9468 56.5846 38.9468C56.6164 38.9468 56.6436 38.9581 56.6664 38.9809C56.6891 39.0036 56.7005 39.0309 56.7005 39.0626C56.7005 39.0837 56.6951 39.103 56.6844 39.1206C56.6741 39.1382 56.6601 39.1523 56.6426 39.1631C56.6254 39.1734 56.6061 39.1785 56.5846 39.1785Z" fill="#808080"/>
<path d="M56.0846 39.1785C56.0529 39.1785 56.0256 39.1671 56.0029 39.1444C55.9801 39.1217 55.9688 39.0944 55.9688 39.0626C55.9688 39.0309 55.9801 39.0036 56.0029 38.9809C56.0256 38.9581 56.0529 38.9468 56.0846 38.9468C56.1164 38.9468 56.1436 38.9581 56.1664 38.9809C56.1891 39.0036 56.2005 39.0309 56.2005 39.0626C56.2005 39.0837 56.1951 39.103 56.1844 39.1206C56.1741 39.1382 56.1601 39.1523 56.1426 39.1631C56.1254 39.1734 56.1061 39.1785 56.0846 39.1785Z" fill="#808080"/>
<path d="M55.5827 39.1785C55.5509 39.1785 55.5237 39.1671 55.5009 39.1444C55.4782 39.1217 55.4668 39.0944 55.4668 39.0626C55.4668 39.0309 55.4782 39.0036 55.5009 38.9809C55.5237 38.9581 55.5509 38.9468 55.5827 38.9468C55.6144 38.9468 55.6417 38.9581 55.6644 38.9809C55.6872 39.0036 55.6985 39.0309 55.6985 39.0626C55.6985 39.0837 55.6932 39.103 55.6824 39.1206C55.6721 39.1382 55.6582 39.1523 55.6406 39.1631C55.6234 39.1734 55.6041 39.1785 55.5827 39.1785Z" fill="#808080"/>
<path d="M55.0846 39.1785C55.0529 39.1785 55.0256 39.1671 55.0029 39.1444C54.9801 39.1217 54.9688 39.0944 54.9688 39.0626C54.9688 39.0309 54.9801 39.0036 55.0029 38.9809C55.0256 38.9581 55.0529 38.9468 55.0846 38.9468C55.1164 38.9468 55.1436 38.9581 55.1664 38.9809C55.1891 39.0036 55.2005 39.0309 55.2005 39.0626C55.2005 39.0837 55.1951 39.103 55.1844 39.1206C55.1741 39.1382 55.1601 39.1523 55.1426 39.1631C55.1254 39.1734 55.1061 39.1785 55.0846 39.1785Z" fill="#808080"/>
<path d="M54.5866 39.1785C54.5548 39.1785 54.5276 39.1671 54.5048 39.1444C54.4821 39.1217 54.4707 39.0944 54.4707 39.0626C54.4707 39.0309 54.4821 39.0036 54.5048 38.9809C54.5276 38.9581 54.5548 38.9468 54.5866 38.9468C54.6183 38.9468 54.6456 38.9581 54.6683 38.9809C54.6911 39.0036 54.7024 39.0309 54.7024 39.0626C54.7024 39.0837 54.6971 39.103 54.6863 39.1206C54.676 39.1382 54.6621 39.1523 54.6445 39.1631C54.6273 39.1734 54.608 39.1785 54.5866 39.1785Z" fill="#808080"/>
<path d="M54.0885 39.1785C54.0568 39.1785 54.0295 39.1671 54.0068 39.1444C53.984 39.1217 53.9727 39.0944 53.9727 39.0626C53.9727 39.0309 53.984 39.0036 54.0068 38.9809C54.0295 38.9581 54.0568 38.9468 54.0885 38.9468C54.1203 38.9468 54.1475 38.9581 54.1703 38.9809C54.193 39.0036 54.2044 39.0309 54.2044 39.0626C54.2044 39.0837 54.199 39.103 54.1883 39.1206C54.178 39.1382 54.1641 39.1523 54.1465 39.1631C54.1293 39.1734 54.11 39.1785 54.0885 39.1785Z" fill="#808080"/>
<path d="M53.5905 39.1785C53.5587 39.1785 53.5315 39.1671 53.5087 39.1444C53.486 39.1217 53.4746 39.0944 53.4746 39.0626C53.4746 39.0309 53.486 39.0036 53.5087 38.9809C53.5315 38.9581 53.5587 38.9468 53.5905 38.9468C53.6222 38.9468 53.6495 38.9581 53.6722 38.9809C53.695 39.0036 53.7063 39.0309 53.7063 39.0626C53.7063 39.0837 53.701 39.103 53.6903 39.1206C53.68 39.1382 53.666 39.1523 53.6484 39.1631C53.6312 39.1734 53.6119 39.1785 53.5905 39.1785Z" fill="#808080"/>
<path d="M53.0885 39.1785C53.0568 39.1785 53.0295 39.1671 53.0068 39.1444C52.984 39.1217 52.9727 39.0944 52.9727 39.0626C52.9727 39.0309 52.984 39.0036 53.0068 38.9809C53.0295 38.9581 53.0568 38.9468 53.0885 38.9468C53.1203 38.9468 53.1475 38.9581 53.1703 38.9809C53.193 39.0036 53.2044 39.0309 53.2044 39.0626C53.2044 39.0837 53.199 39.103 53.1883 39.1206C53.178 39.1382 53.1641 39.1523 53.1465 39.1631C53.1293 39.1734 53.11 39.1785 53.0885 39.1785Z" fill="#808080"/>
<path d="M52.5885 39.1785C52.5568 39.1785 52.5295 39.1671 52.5068 39.1444C52.484 39.1217 52.4727 39.0944 52.4727 39.0626C52.4727 39.0309 52.484 39.0036 52.5068 38.9809C52.5295 38.9581 52.5568 38.9468 52.5885 38.9468C52.6203 38.9468 52.6475 38.9581 52.6703 38.9809C52.693 39.0036 52.7044 39.0309 52.7044 39.0626C52.7044 39.0837 52.699 39.103 52.6883 39.1206C52.678 39.1382 52.6641 39.1523 52.6465 39.1631C52.6293 39.1734 52.61 39.1785 52.5885 39.1785Z" fill="#808080"/>
<path d="M52.0885 39.1785C52.0568 39.1785 52.0295 39.1671 52.0068 39.1444C51.984 39.1217 51.9727 39.0944 51.9727 39.0626C51.9727 39.0309 51.984 39.0036 52.0068 38.9809C52.0295 38.9581 52.0568 38.9468 52.0885 38.9468C52.1203 38.9468 52.1475 38.9581 52.1703 38.9809C52.193 39.0036 52.2044 39.0309 52.2044 39.0626C52.2044 39.0837 52.199 39.103 52.1883 39.1206C52.178 39.1382 52.1641 39.1523 52.1465 39.1631C52.1293 39.1734 52.11 39.1785 52.0885 39.1785Z" fill="#808080"/>
<path d="M51.5905 39.1785C51.5587 39.1785 51.5315 39.1671 51.5087 39.1444C51.486 39.1217 51.4746 39.0944 51.4746 39.0626C51.4746 39.0309 51.486 39.0036 51.5087 38.9809C51.5315 38.9581 51.5587 38.9468 51.5905 38.9468C51.6222 38.9468 51.6495 38.9581 51.6722 38.9809C51.695 39.0036 51.7063 39.0309 51.7063 39.0626C51.7063 39.0837 51.701 39.103 51.6903 39.1206C51.68 39.1382 51.666 39.1523 51.6484 39.1631C51.6312 39.1734 51.6119 39.1785 51.5905 39.1785Z" fill="#808080"/>
<path d="M51.0924 39.1785C51.0607 39.1785 51.0334 39.1671 51.0107 39.1444C50.9879 39.1217 50.9766 39.0944 50.9766 39.0626C50.9766 39.0309 50.9879 39.0036 51.0107 38.9809C51.0334 38.9581 51.0607 38.9468 51.0924 38.9468C51.1242 38.9468 51.1514 38.9581 51.1742 38.9809C51.1969 39.0036 51.2083 39.0309 51.2083 39.0626C51.2083 39.0837 51.2029 39.103 51.1922 39.1206C51.1819 39.1382 51.168 39.1523 51.1504 39.1631C51.1332 39.1734 51.1139 39.1785 51.0924 39.1785Z" fill="#808080"/>
<path d="M50.5944 39.1785C50.5626 39.1785 50.5354 39.1671 50.5126 39.1444C50.4899 39.1217 50.4785 39.0944 50.4785 39.0626C50.4785 39.0309 50.4899 39.0036 50.5126 38.9809C50.5354 38.9581 50.5626 38.9468 50.5944 38.9468C50.6261 38.9468 50.6534 38.9581 50.6761 38.9809C50.6989 39.0036 50.7103 39.0309 50.7103 39.0626C50.7103 39.0837 50.7049 39.103 50.6942 39.1206C50.6839 39.1382 50.6699 39.1523 50.6523 39.1631C50.6352 39.1734 50.6158 39.1785 50.5944 39.1785Z" fill="#808080"/>
<path d="M50.0944 39.1785C50.0626 39.1785 50.0354 39.1671 50.0126 39.1444C49.9899 39.1217 49.9785 39.0944 49.9785 39.0626C49.9785 39.0309 49.9899 39.0036 50.0126 38.9809C50.0354 38.9581 50.0626 38.9468 50.0944 38.9468C50.1261 38.9468 50.1534 38.9581 50.1761 38.9809C50.1989 39.0036 50.2103 39.0309 50.2103 39.0626C50.2103 39.0837 50.2049 39.103 50.1942 39.1206C50.1839 39.1382 50.1699 39.1523 50.1523 39.1631C50.1352 39.1734 50.1158 39.1785 50.0944 39.1785Z" fill="#808080"/>
<path d="M49.5944 39.1785C49.5626 39.1785 49.5354 39.1671 49.5126 39.1444C49.4899 39.1217 49.4785 39.0944 49.4785 39.0626C49.4785 39.0309 49.4899 39.0036 49.5126 38.9809C49.5354 38.9581 49.5626 38.9468 49.5944 38.9468C49.6261 38.9468 49.6534 38.9581 49.6761 38.9809C49.6989 39.0036 49.7103 39.0309 49.7103 39.0626C49.7103 39.0837 49.7049 39.103 49.6942 39.1206C49.6839 39.1382 49.6699 39.1523 49.6523 39.1631C49.6352 39.1734 49.6158 39.1785 49.5944 39.1785Z" fill="#808080"/>
<path d="M49.0963 39.1785C49.0646 39.1785 49.0373 39.1671 49.0146 39.1444C48.9918 39.1217 48.9805 39.0944 48.9805 39.0626C48.9805 39.0309 48.9918 39.0036 49.0146 38.9809C49.0373 38.9581 49.0646 38.9468 49.0963 38.9468C49.1281 38.9468 49.1553 38.9581 49.1781 38.9809C49.2008 39.0036 49.2122 39.0309 49.2122 39.0626C49.2122 39.0837 49.2068 39.103 49.1961 39.1206C49.1858 39.1382 49.1719 39.1523 49.1543 39.1631C49.1371 39.1734 49.1178 39.1785 49.0963 39.1785Z" fill="#808080"/>
<path d="M48.5983 39.1785C48.5665 39.1785 48.5393 39.1671 48.5165 39.1444C48.4938 39.1217 48.4824 39.0944 48.4824 39.0626C48.4824 39.0309 48.4938 39.0036 48.5165 38.9809C48.5393 38.9581 48.5665 38.9468 48.5983 38.9468C48.63 38.9468 48.6573 38.9581 48.68 38.9809C48.7028 39.0036 48.7142 39.0309 48.7142 39.0626C48.7142 39.0837 48.7088 39.103 48.6981 39.1206C48.6878 39.1382 48.6738 39.1523 48.6562 39.1631C48.6391 39.1734 48.6197 39.1785 48.5983 39.1785Z" fill="#808080"/>
<path d="M48.0983 39.1785C48.0665 39.1785 48.0393 39.1671 48.0165 39.1444C47.9938 39.1217 47.9824 39.0944 47.9824 39.0626C47.9824 39.0309 47.9938 39.0036 48.0165 38.9809C48.0393 38.9581 48.0665 38.9468 48.0983 38.9468C48.13 38.9468 48.1573 38.9581 48.18 38.9809C48.2028 39.0036 48.2142 39.0309 48.2142 39.0626C48.2142 39.0837 48.2088 39.103 48.1981 39.1206C48.1878 39.1382 48.1738 39.1523 48.1562 39.1631C48.1391 39.1734 48.1197 39.1785 48.0983 39.1785Z" fill="#808080"/>
<path d="M47.5963 39.1785C47.5646 39.1785 47.5373 39.1671 47.5146 39.1444C47.4918 39.1217 47.4805 39.0944 47.4805 39.0626C47.4805 39.0309 47.4918 39.0036 47.5146 38.9809C47.5373 38.9581 47.5646 38.9468 47.5963 38.9468C47.6281 38.9468 47.6553 38.9581 47.6781 38.9809C47.7008 39.0036 47.7122 39.0309 47.7122 39.0626C47.7122 39.0837 47.7068 39.103 47.6961 39.1206C47.6858 39.1382 47.6719 39.1523 47.6543 39.1631C47.6371 39.1734 47.6178 39.1785 47.5963 39.1785Z" fill="#808080"/>
<path d="M47.0963 39.1785C47.0646 39.1785 47.0373 39.1671 47.0146 39.1444C46.9918 39.1217 46.9805 39.0944 46.9805 39.0626C46.9805 39.0309 46.9918 39.0036 47.0146 38.9809C47.0373 38.9581 47.0646 38.9468 47.0963 38.9468C47.1281 38.9468 47.1553 38.9581 47.1781 38.9809C47.2008 39.0036 47.2122 39.0309 47.2122 39.0626C47.2122 39.0837 47.2068 39.103 47.1961 39.1206C47.1858 39.1382 47.1719 39.1523 47.1543 39.1631C47.1371 39.1734 47.1178 39.1785 47.0963 39.1785Z" fill="#808080"/>
<path d="M46.5983 39.1785C46.5665 39.1785 46.5393 39.1671 46.5165 39.1444C46.4938 39.1217 46.4824 39.0944 46.4824 39.0626C46.4824 39.0309 46.4938 39.0036 46.5165 38.9809C46.5393 38.9581 46.5665 38.9468 46.5983 38.9468C46.63 38.9468 46.6573 38.9581 46.68 38.9809C46.7028 39.0036 46.7142 39.0309 46.7142 39.0626C46.7142 39.0837 46.7088 39.103 46.6981 39.1206C46.6878 39.1382 46.6738 39.1523 46.6562 39.1631C46.6391 39.1734 46.6197 39.1785 46.5983 39.1785Z" fill="#808080"/>
<path d="M66.2858 42.6228C66.254 42.6228 66.2268 42.6115 66.204 42.5887C66.1813 42.566 66.1699 42.5387 66.1699 42.507C66.1699 42.4752 66.1813 42.448 66.204 42.4252C66.2268 42.4025 66.254 42.3911 66.2858 42.3911C66.3175 42.3911 66.3448 42.4025 66.3675 42.4252C66.3903 42.448 66.4017 42.4752 66.4017 42.507C66.4017 42.528 66.3963 42.5473 66.3856 42.5649C66.3753 42.5825 66.3613 42.5967 66.3437 42.6074C66.3266 42.6177 66.3072 42.6228 66.2858 42.6228Z" fill="#808080"/>
<path d="M65.7877 42.6228C65.756 42.6228 65.7287 42.6115 65.706 42.5887C65.6832 42.566 65.6719 42.5387 65.6719 42.507C65.6719 42.4752 65.6832 42.448 65.706 42.4252C65.7287 42.4025 65.756 42.3911 65.7877 42.3911C65.8195 42.3911 65.8467 42.4025 65.8695 42.4252C65.8922 42.448 65.9036 42.4752 65.9036 42.507C65.9036 42.528 65.8982 42.5473 65.8875 42.5649C65.8772 42.5825 65.8633 42.5967 65.8457 42.6074C65.8285 42.6177 65.8092 42.6228 65.7877 42.6228Z" fill="#808080"/>
<path d="M65.2877 42.6228C65.256 42.6228 65.2287 42.6115 65.206 42.5887C65.1832 42.566 65.1719 42.5387 65.1719 42.507C65.1719 42.4752 65.1832 42.448 65.206 42.4252C65.2287 42.4025 65.256 42.3911 65.2877 42.3911C65.3195 42.3911 65.3467 42.4025 65.3695 42.4252C65.3922 42.448 65.4036 42.4752 65.4036 42.507C65.4036 42.528 65.3982 42.5473 65.3875 42.5649C65.3772 42.5825 65.3633 42.5967 65.3457 42.6074C65.3285 42.6177 65.3092 42.6228 65.2877 42.6228Z" fill="#808080"/>
<path d="M64.7897 42.6228C64.7579 42.6228 64.7307 42.6115 64.7079 42.5887C64.6852 42.566 64.6738 42.5387 64.6738 42.507C64.6738 42.4752 64.6852 42.448 64.7079 42.4252C64.7307 42.4025 64.7579 42.3911 64.7897 42.3911C64.8215 42.3911 64.8487 42.4025 64.8714 42.4252C64.8942 42.448 64.9056 42.4752 64.9056 42.507C64.9056 42.528 64.9002 42.5473 64.8895 42.5649C64.8792 42.5825 64.8652 42.5967 64.8476 42.6074C64.8305 42.6177 64.8112 42.6228 64.7897 42.6228Z" fill="#808080"/>
<path d="M64.2877 42.6228C64.256 42.6228 64.2287 42.6115 64.206 42.5887C64.1832 42.566 64.1719 42.5387 64.1719 42.507C64.1719 42.4752 64.1832 42.448 64.206 42.4252C64.2287 42.4025 64.256 42.3911 64.2877 42.3911C64.3195 42.3911 64.3467 42.4025 64.3695 42.4252C64.3922 42.448 64.4036 42.4752 64.4036 42.507C64.4036 42.528 64.3982 42.5473 64.3875 42.5649C64.3772 42.5825 64.3633 42.5967 64.3457 42.6074C64.3285 42.6177 64.3092 42.6228 64.2877 42.6228Z" fill="#808080"/>
<path d="M63.7877 42.6228C63.756 42.6228 63.7287 42.6115 63.706 42.5887C63.6832 42.566 63.6719 42.5387 63.6719 42.507C63.6719 42.4752 63.6832 42.448 63.706 42.4252C63.7287 42.4025 63.756 42.3911 63.7877 42.3911C63.8195 42.3911 63.8467 42.4025 63.8695 42.4252C63.8922 42.448 63.9036 42.4752 63.9036 42.507C63.9036 42.528 63.8982 42.5473 63.8875 42.5649C63.8772 42.5825 63.8633 42.5967 63.8457 42.6074C63.8285 42.6177 63.8092 42.6228 63.7877 42.6228Z" fill="#808080"/>
<path d="M63.2897 42.6228C63.2579 42.6228 63.2307 42.6115 63.2079 42.5887C63.1852 42.566 63.1738 42.5387 63.1738 42.507C63.1738 42.4752 63.1852 42.448 63.2079 42.4252C63.2307 42.4025 63.2579 42.3911 63.2897 42.3911C63.3215 42.3911 63.3487 42.4025 63.3714 42.4252C63.3942 42.448 63.4056 42.4752 63.4056 42.507C63.4056 42.528 63.4002 42.5473 63.3895 42.5649C63.3792 42.5825 63.3652 42.5967 63.3476 42.6074C63.3305 42.6177 63.3112 42.6228 63.2897 42.6228Z" fill="#808080"/>
<path d="M62.7897 42.6228C62.7579 42.6228 62.7307 42.6115 62.7079 42.5887C62.6852 42.566 62.6738 42.5387 62.6738 42.507C62.6738 42.4752 62.6852 42.448 62.7079 42.4252C62.7307 42.4025 62.7579 42.3911 62.7897 42.3911C62.8215 42.3911 62.8487 42.4025 62.8714 42.4252C62.8942 42.448 62.9056 42.4752 62.9056 42.507C62.9056 42.528 62.9002 42.5473 62.8895 42.5649C62.8792 42.5825 62.8652 42.5967 62.8476 42.6074C62.8305 42.6177 62.8112 42.6228 62.7897 42.6228Z" fill="#808080"/>
<path d="M62.2897 42.6228C62.2579 42.6228 62.2307 42.6115 62.2079 42.5887C62.1852 42.566 62.1738 42.5387 62.1738 42.507C62.1738 42.4752 62.1852 42.448 62.2079 42.4252C62.2307 42.4025 62.2579 42.3911 62.2897 42.3911C62.3215 42.3911 62.3487 42.4025 62.3714 42.4252C62.3942 42.448 62.4056 42.4752 62.4056 42.507C62.4056 42.528 62.4002 42.5473 62.3895 42.5649C62.3792 42.5825 62.3652 42.5967 62.3476 42.6074C62.3305 42.6177 62.3112 42.6228 62.2897 42.6228Z" fill="#808080"/>
<path d="M61.7916 42.6228C61.7599 42.6228 61.7326 42.6115 61.7099 42.5887C61.6872 42.566 61.6758 42.5387 61.6758 42.507C61.6758 42.4752 61.6872 42.448 61.7099 42.4252C61.7326 42.4025 61.7599 42.3911 61.7916 42.3911C61.8234 42.3911 61.8507 42.4025 61.8734 42.4252C61.8961 42.448 61.9075 42.4752 61.9075 42.507C61.9075 42.528 61.9022 42.5473 61.8914 42.5649C61.8811 42.5825 61.8672 42.5967 61.8496 42.6074C61.8324 42.6177 61.8131 42.6228 61.7916 42.6228Z" fill="#808080"/>
<path d="M61.2936 42.6228C61.2618 42.6228 61.2346 42.6115 61.2119 42.5887C61.1891 42.566 61.1777 42.5387 61.1777 42.507C61.1777 42.4752 61.1891 42.448 61.2119 42.4252C61.2346 42.4025 61.2618 42.3911 61.2936 42.3911C61.3254 42.3911 61.3526 42.4025 61.3754 42.4252C61.3981 42.448 61.4095 42.4752 61.4095 42.507C61.4095 42.528 61.4041 42.5473 61.3934 42.5649C61.3831 42.5825 61.3691 42.5967 61.3515 42.6074C61.3344 42.6177 61.3151 42.6228 61.2936 42.6228Z" fill="#808080"/>
<path d="M60.7936 42.6228C60.7618 42.6228 60.7346 42.6115 60.7119 42.5887C60.6891 42.566 60.6777 42.5387 60.6777 42.507C60.6777 42.4752 60.6891 42.448 60.7119 42.4252C60.7346 42.4025 60.7618 42.3911 60.7936 42.3911C60.8254 42.3911 60.8526 42.4025 60.8754 42.4252C60.8981 42.448 60.9095 42.4752 60.9095 42.507C60.9095 42.528 60.9041 42.5473 60.8934 42.5649C60.8831 42.5825 60.8691 42.5967 60.8515 42.6074C60.8344 42.6177 60.8151 42.6228 60.7936 42.6228Z" fill="#808080"/>
<path d="M60.2956 42.6228C60.2638 42.6228 60.2365 42.6115 60.2138 42.5887C60.1911 42.566 60.1797 42.5387 60.1797 42.507C60.1797 42.4752 60.1911 42.448 60.2138 42.4252C60.2365 42.4025 60.2638 42.3911 60.2956 42.3911C60.3273 42.3911 60.3546 42.4025 60.3773 42.4252C60.4001 42.448 60.4114 42.4752 60.4114 42.507C60.4114 42.528 60.4061 42.5473 60.3953 42.5649C60.385 42.5825 60.3711 42.5967 60.3535 42.6074C60.3363 42.6177 60.317 42.6228 60.2956 42.6228Z" fill="#808080"/>
<path d="M59.7956 42.6228C59.7638 42.6228 59.7365 42.6115 59.7138 42.5887C59.6911 42.566 59.6797 42.5387 59.6797 42.507C59.6797 42.4752 59.6911 42.448 59.7138 42.4252C59.7365 42.4025 59.7638 42.3911 59.7956 42.3911C59.8273 42.3911 59.8546 42.4025 59.8773 42.4252C59.9001 42.448 59.9114 42.4752 59.9114 42.507C59.9114 42.528 59.9061 42.5473 59.8953 42.5649C59.885 42.5825 59.8711 42.5967 59.8535 42.6074C59.8363 42.6177 59.817 42.6228 59.7956 42.6228Z" fill="#808080"/>
<path d="M59.2936 42.6228C59.2618 42.6228 59.2346 42.6115 59.2119 42.5887C59.1891 42.566 59.1777 42.5387 59.1777 42.507C59.1777 42.4752 59.1891 42.448 59.2119 42.4252C59.2346 42.4025 59.2618 42.3911 59.2936 42.3911C59.3254 42.3911 59.3526 42.4025 59.3754 42.4252C59.3981 42.448 59.4095 42.4752 59.4095 42.507C59.4095 42.528 59.4041 42.5473 59.3934 42.5649C59.3831 42.5825 59.3691 42.5967 59.3515 42.6074C59.3344 42.6177 59.3151 42.6228 59.2936 42.6228Z" fill="#808080"/>
<path d="M58.7956 42.6228C58.7638 42.6228 58.7365 42.6115 58.7138 42.5887C58.6911 42.566 58.6797 42.5387 58.6797 42.507C58.6797 42.4752 58.6911 42.448 58.7138 42.4252C58.7365 42.4025 58.7638 42.3911 58.7956 42.3911C58.8273 42.3911 58.8546 42.4025 58.8773 42.4252C58.9001 42.448 58.9114 42.4752 58.9114 42.507C58.9114 42.528 58.9061 42.5473 58.8953 42.5649C58.885 42.5825 58.8711 42.5967 58.8535 42.6074C58.8363 42.6177 58.817 42.6228 58.7956 42.6228Z" fill="#808080"/>
<path d="M58.2956 42.6228C58.2638 42.6228 58.2365 42.6115 58.2138 42.5887C58.1911 42.566 58.1797 42.5387 58.1797 42.507C58.1797 42.4752 58.1911 42.448 58.2138 42.4252C58.2365 42.4025 58.2638 42.3911 58.2956 42.3911C58.3273 42.3911 58.3546 42.4025 58.3773 42.4252C58.4001 42.448 58.4114 42.4752 58.4114 42.507C58.4114 42.528 58.4061 42.5473 58.3953 42.5649C58.385 42.5825 58.3711 42.5967 58.3535 42.6074C58.3363 42.6177 58.317 42.6228 58.2956 42.6228Z" fill="#808080"/>
<path d="M57.7975 42.6228C57.7658 42.6228 57.7385 42.6115 57.7158 42.5887C57.693 42.566 57.6816 42.5387 57.6816 42.507C57.6816 42.4752 57.693 42.448 57.7158 42.4252C57.7385 42.4025 57.7658 42.3911 57.7975 42.3911C57.8293 42.3911 57.8565 42.4025 57.8793 42.4252C57.902 42.448 57.9134 42.4752 57.9134 42.507C57.9134 42.528 57.908 42.5473 57.8973 42.5649C57.887 42.5825 57.873 42.5967 57.8554 42.6074C57.8383 42.6177 57.819 42.6228 57.7975 42.6228Z" fill="#808080"/>
<path d="M57.2995 42.6228C57.2677 42.6228 57.2405 42.6115 57.2177 42.5887C57.195 42.566 57.1836 42.5387 57.1836 42.507C57.1836 42.4752 57.195 42.448 57.2177 42.4252C57.2405 42.4025 57.2677 42.3911 57.2995 42.3911C57.3312 42.3911 57.3585 42.4025 57.3812 42.4252C57.404 42.448 57.4153 42.4752 57.4153 42.507C57.4153 42.528 57.41 42.5473 57.3992 42.5649C57.3889 42.5825 57.375 42.5967 57.3574 42.6074C57.3402 42.6177 57.3209 42.6228 57.2995 42.6228Z" fill="#808080"/>
<path d="M56.7995 42.6228C56.7677 42.6228 56.7405 42.6115 56.7177 42.5887C56.695 42.566 56.6836 42.5387 56.6836 42.507C56.6836 42.4752 56.695 42.448 56.7177 42.4252C56.7405 42.4025 56.7677 42.3911 56.7995 42.3911C56.8312 42.3911 56.8585 42.4025 56.8812 42.4252C56.904 42.448 56.9153 42.4752 56.9153 42.507C56.9153 42.528 56.91 42.5473 56.8992 42.5649C56.8889 42.5825 56.875 42.5967 56.8574 42.6074C56.8402 42.6177 56.8209 42.6228 56.7995 42.6228Z" fill="#808080"/>
<path d="M56.3014 42.6228C56.2697 42.6228 56.2424 42.6115 56.2197 42.5887C56.1969 42.566 56.1855 42.5387 56.1855 42.507C56.1855 42.4752 56.1969 42.448 56.2197 42.4252C56.2424 42.4025 56.2697 42.3911 56.3014 42.3911C56.3332 42.3911 56.3604 42.4025 56.3832 42.4252C56.4059 42.448 56.4173 42.4752 56.4173 42.507C56.4173 42.528 56.4119 42.5473 56.4012 42.5649C56.3909 42.5825 56.3769 42.5967 56.3593 42.6074C56.3422 42.6177 56.3229 42.6228 56.3014 42.6228Z" fill="#808080"/>
<path d="M55.8014 42.6228C55.7697 42.6228 55.7424 42.6115 55.7197 42.5887C55.6969 42.566 55.6855 42.5387 55.6855 42.507C55.6855 42.4752 55.6969 42.448 55.7197 42.4252C55.7424 42.4025 55.7697 42.3911 55.8014 42.3911C55.8332 42.3911 55.8604 42.4025 55.8832 42.4252C55.9059 42.448 55.9173 42.4752 55.9173 42.507C55.9173 42.528 55.9119 42.5473 55.9012 42.5649C55.8909 42.5825 55.8769 42.5967 55.8593 42.6074C55.8422 42.6177 55.8229 42.6228 55.8014 42.6228Z" fill="#808080"/>
<path d="M55.3053 42.6228C55.2736 42.6228 55.2463 42.6115 55.2236 42.5887C55.2008 42.566 55.1895 42.5387 55.1895 42.507C55.1895 42.4752 55.2008 42.448 55.2236 42.4252C55.2463 42.4025 55.2736 42.3911 55.3053 42.3911C55.3371 42.3911 55.3643 42.4025 55.3871 42.4252C55.4098 42.448 55.4212 42.4752 55.4212 42.507C55.4212 42.528 55.4158 42.5473 55.4051 42.5649C55.3948 42.5825 55.3808 42.5967 55.3633 42.6074C55.3461 42.6177 55.3268 42.6228 55.3053 42.6228Z" fill="#808080"/>
<path d="M54.8034 42.6228C54.7716 42.6228 54.7444 42.6115 54.7216 42.5887C54.6989 42.566 54.6875 42.5387 54.6875 42.507C54.6875 42.4752 54.6989 42.448 54.7216 42.4252C54.7444 42.4025 54.7716 42.3911 54.8034 42.3911C54.8351 42.3911 54.8624 42.4025 54.8851 42.4252C54.9079 42.448 54.9192 42.4752 54.9192 42.507C54.9192 42.528 54.9139 42.5473 54.9031 42.5649C54.8928 42.5825 54.8789 42.5967 54.8613 42.6074C54.8441 42.6177 54.8248 42.6228 54.8034 42.6228Z" fill="#808080"/>
<path d="M54.3014 42.6228C54.2697 42.6228 54.2424 42.6115 54.2197 42.5887C54.1969 42.566 54.1855 42.5387 54.1855 42.507C54.1855 42.4752 54.1969 42.448 54.2197 42.4252C54.2424 42.4025 54.2697 42.3911 54.3014 42.3911C54.3332 42.3911 54.3604 42.4025 54.3832 42.4252C54.4059 42.448 54.4173 42.4752 54.4173 42.507C54.4173 42.528 54.4119 42.5473 54.4012 42.5649C54.3909 42.5825 54.3769 42.5967 54.3593 42.6074C54.3422 42.6177 54.3229 42.6228 54.3014 42.6228Z" fill="#808080"/>
<path d="M53.8034 42.6228C53.7716 42.6228 53.7444 42.6115 53.7216 42.5887C53.6989 42.566 53.6875 42.5387 53.6875 42.507C53.6875 42.4752 53.6989 42.448 53.7216 42.4252C53.7444 42.4025 53.7716 42.3911 53.8034 42.3911C53.8351 42.3911 53.8624 42.4025 53.8851 42.4252C53.9079 42.448 53.9192 42.4752 53.9192 42.507C53.9192 42.528 53.9139 42.5473 53.9031 42.5649C53.8928 42.5825 53.8789 42.5967 53.8613 42.6074C53.8441 42.6177 53.8248 42.6228 53.8034 42.6228Z" fill="#808080"/>
<path d="M53.3053 42.6228C53.2736 42.6228 53.2463 42.6115 53.2236 42.5887C53.2008 42.566 53.1895 42.5387 53.1895 42.507C53.1895 42.4752 53.2008 42.448 53.2236 42.4252C53.2463 42.4025 53.2736 42.3911 53.3053 42.3911C53.3371 42.3911 53.3643 42.4025 53.3871 42.4252C53.4098 42.448 53.4212 42.4752 53.4212 42.507C53.4212 42.528 53.4158 42.5473 53.4051 42.5649C53.3948 42.5825 53.3808 42.5967 53.3633 42.6074C53.3461 42.6177 53.3268 42.6228 53.3053 42.6228Z" fill="#808080"/>
<path d="M66.5592 46.0667C66.5275 46.0667 66.5002 46.0553 66.4775 46.0326C66.4547 46.0098 66.4434 45.9826 66.4434 45.9508C66.4434 45.9191 66.4547 45.8918 66.4775 45.8691C66.5002 45.8463 66.5275 45.835 66.5592 45.835C66.591 45.835 66.6182 45.8463 66.641 45.8691C66.6637 45.8918 66.6751 45.9191 66.6751 45.9508C66.6751 45.9719 66.6697 45.9912 66.659 46.0088C66.6487 46.0264 66.6348 46.0405 66.6172 46.0512C66.6 46.0615 66.5807 46.0667 66.5592 46.0667Z" fill="#808080"/>
<path d="M66.0612 46.0667C66.0294 46.0667 66.0022 46.0553 65.9794 46.0326C65.9567 46.0098 65.9453 45.9826 65.9453 45.9508C65.9453 45.9191 65.9567 45.8918 65.9794 45.8691C66.0022 45.8463 66.0294 45.835 66.0612 45.835C66.0929 45.835 66.1202 45.8463 66.1429 45.8691C66.1657 45.8918 66.177 45.9191 66.177 45.9508C66.177 45.9719 66.1717 45.9912 66.161 46.0088C66.1507 46.0264 66.1367 46.0405 66.1191 46.0512C66.1019 46.0615 66.0826 46.0667 66.0612 46.0667Z" fill="#808080"/>
<path d="M65.5612 46.0667C65.5294 46.0667 65.5022 46.0553 65.4794 46.0326C65.4567 46.0098 65.4453 45.9826 65.4453 45.9508C65.4453 45.9191 65.4567 45.8918 65.4794 45.8691C65.5022 45.8463 65.5294 45.835 65.5612 45.835C65.5929 45.835 65.6202 45.8463 65.6429 45.8691C65.6657 45.8918 65.677 45.9191 65.677 45.9508C65.677 45.9719 65.6717 45.9912 65.661 46.0088C65.6507 46.0264 65.6367 46.0405 65.6191 46.0512C65.6019 46.0615 65.5826 46.0667 65.5612 46.0667Z" fill="#808080"/>
<path d="M65.0612 46.0667C65.0294 46.0667 65.0022 46.0553 64.9794 46.0326C64.9567 46.0098 64.9453 45.9826 64.9453 45.9508C64.9453 45.9191 64.9567 45.8918 64.9794 45.8691C65.0022 45.8463 65.0294 45.835 65.0612 45.835C65.0929 45.835 65.1202 45.8463 65.1429 45.8691C65.1657 45.8918 65.177 45.9191 65.177 45.9508C65.177 45.9719 65.1717 45.9912 65.161 46.0088C65.1507 46.0264 65.1367 46.0405 65.1191 46.0512C65.1019 46.0615 65.0826 46.0667 65.0612 46.0667Z" fill="#808080"/>
<path d="M64.5631 46.0667C64.5314 46.0667 64.5041 46.0553 64.4814 46.0326C64.4586 46.0098 64.4473 45.9826 64.4473 45.9508C64.4473 45.9191 64.4586 45.8918 64.4814 45.8691C64.5041 45.8463 64.5314 45.835 64.5631 45.835C64.5949 45.835 64.6221 45.8463 64.6449 45.8691C64.6676 45.8918 64.679 45.9191 64.679 45.9508C64.679 45.9719 64.6736 45.9912 64.6629 46.0088C64.6526 46.0264 64.6387 46.0405 64.6211 46.0512C64.6039 46.0615 64.5846 46.0667 64.5631 46.0667Z" fill="#808080"/>
<path d="M64.0631 46.0667C64.0314 46.0667 64.0041 46.0553 63.9814 46.0326C63.9586 46.0098 63.9473 45.9826 63.9473 45.9508C63.9473 45.9191 63.9586 45.8918 63.9814 45.8691C64.0041 45.8463 64.0314 45.835 64.0631 45.835C64.0949 45.835 64.1221 45.8463 64.1449 45.8691C64.1676 45.8918 64.179 45.9191 64.179 45.9508C64.179 45.9719 64.1736 45.9912 64.1629 46.0088C64.1526 46.0264 64.1387 46.0405 64.1211 46.0512C64.1039 46.0615 64.0846 46.0667 64.0631 46.0667Z" fill="#808080"/>
<path d="M63.5651 46.0667C63.5333 46.0667 63.5061 46.0553 63.4833 46.0326C63.4606 46.0098 63.4492 45.9826 63.4492 45.9508C63.4492 45.9191 63.4606 45.8918 63.4833 45.8691C63.5061 45.8463 63.5333 45.835 63.5651 45.835C63.5968 45.835 63.6241 45.8463 63.6468 45.8691C63.6696 45.8918 63.681 45.9191 63.681 45.9508C63.681 45.9719 63.6756 45.9912 63.6649 46.0088C63.6546 46.0264 63.6406 46.0405 63.623 46.0512C63.6059 46.0615 63.5865 46.0667 63.5651 46.0667Z" fill="#808080"/>
<path d="M63.067 46.0667C63.0353 46.0667 63.008 46.0553 62.9853 46.0326C62.9625 46.0098 62.9512 45.9826 62.9512 45.9508C62.9512 45.9191 62.9625 45.8918 62.9853 45.8691C63.008 45.8463 63.0353 45.835 63.067 45.835C63.0988 45.835 63.126 45.8463 63.1488 45.8691C63.1715 45.8918 63.1829 45.9191 63.1829 45.9508C63.1829 45.9719 63.1775 45.9912 63.1668 46.0088C63.1565 46.0264 63.1426 46.0405 63.125 46.0512C63.1078 46.0615 63.0885 46.0667 63.067 46.0667Z" fill="#808080"/>
<path d="M62.5651 46.0667C62.5333 46.0667 62.5061 46.0553 62.4833 46.0326C62.4606 46.0098 62.4492 45.9826 62.4492 45.9508C62.4492 45.9191 62.4606 45.8918 62.4833 45.8691C62.5061 45.8463 62.5333 45.835 62.5651 45.835C62.5968 45.835 62.6241 45.8463 62.6468 45.8691C62.6696 45.8918 62.681 45.9191 62.681 45.9508C62.681 45.9719 62.6756 45.9912 62.6649 46.0088C62.6546 46.0264 62.6406 46.0405 62.623 46.0512C62.6059 46.0615 62.5865 46.0667 62.5651 46.0667Z" fill="#808080"/>
<path d="M62.0651 46.0667C62.0333 46.0667 62.0061 46.0553 61.9833 46.0326C61.9606 46.0098 61.9492 45.9826 61.9492 45.9508C61.9492 45.9191 61.9606 45.8918 61.9833 45.8691C62.0061 45.8463 62.0333 45.835 62.0651 45.835C62.0968 45.835 62.1241 45.8463 62.1468 45.8691C62.1696 45.8918 62.181 45.9191 62.181 45.9508C62.181 45.9719 62.1756 45.9912 62.1649 46.0088C62.1546 46.0264 62.1406 46.0405 62.123 46.0512C62.1059 46.0615 62.0865 46.0667 62.0651 46.0667Z" fill="#808080"/>
<path d="M61.567 46.0667C61.5353 46.0667 61.508 46.0553 61.4853 46.0326C61.4625 46.0098 61.4512 45.9826 61.4512 45.9508C61.4512 45.9191 61.4625 45.8918 61.4853 45.8691C61.508 45.8463 61.5353 45.835 61.567 45.835C61.5988 45.835 61.626 45.8463 61.6488 45.8691C61.6715 45.8918 61.6829 45.9191 61.6829 45.9508C61.6829 45.9719 61.6775 45.9912 61.6668 46.0088C61.6565 46.0264 61.6426 46.0405 61.625 46.0512C61.6078 46.0615 61.5885 46.0667 61.567 46.0667Z" fill="#808080"/>
<path d="M61.069 46.0667C61.0372 46.0667 61.01 46.0553 60.9872 46.0326C60.9645 46.0098 60.9531 45.9826 60.9531 45.9508C60.9531 45.9191 60.9645 45.8918 60.9872 45.8691C61.01 45.8463 61.0372 45.835 61.069 45.835C61.1007 45.835 61.128 45.8463 61.1507 45.8691C61.1735 45.8918 61.1849 45.9191 61.1849 45.9508C61.1849 45.9719 61.1795 45.9912 61.1688 46.0088C61.1585 46.0264 61.1445 46.0405 61.1269 46.0512C61.1098 46.0615 61.0904 46.0667 61.069 46.0667Z" fill="#808080"/>
<path d="M60.569 46.0667C60.5372 46.0667 60.51 46.0553 60.4872 46.0326C60.4645 46.0098 60.4531 45.9826 60.4531 45.9508C60.4531 45.9191 60.4645 45.8918 60.4872 45.8691C60.51 45.8463 60.5372 45.835 60.569 45.835C60.6007 45.835 60.628 45.8463 60.6507 45.8691C60.6735 45.8918 60.6849 45.9191 60.6849 45.9508C60.6849 45.9719 60.6795 45.9912 60.6688 46.0088C60.6585 46.0264 60.6445 46.0405 60.6269 46.0512C60.6098 46.0615 60.5904 46.0667 60.569 46.0667Z" fill="#808080"/>
<path d="M60.069 46.0667C60.0372 46.0667 60.01 46.0553 59.9872 46.0326C59.9645 46.0098 59.9531 45.9826 59.9531 45.9508C59.9531 45.9191 59.9645 45.8918 59.9872 45.8691C60.01 45.8463 60.0372 45.835 60.069 45.835C60.1007 45.835 60.128 45.8463 60.1507 45.8691C60.1735 45.8918 60.1849 45.9191 60.1849 45.9508C60.1849 45.9719 60.1795 45.9912 60.1688 46.0088C60.1585 46.0264 60.1445 46.0405 60.1269 46.0512C60.1098 46.0615 60.0904 46.0667 60.069 46.0667Z" fill="#808080"/>
<path d="M59.569 46.0667C59.5372 46.0667 59.51 46.0553 59.4872 46.0326C59.4645 46.0098 59.4531 45.9826 59.4531 45.9508C59.4531 45.9191 59.4645 45.8918 59.4872 45.8691C59.51 45.8463 59.5372 45.835 59.569 45.835C59.6007 45.835 59.628 45.8463 59.6507 45.8691C59.6735 45.8918 59.6849 45.9191 59.6849 45.9508C59.6849 45.9719 59.6795 45.9912 59.6688 46.0088C59.6585 46.0264 59.6445 46.0405 59.6269 46.0512C59.6098 46.0615 59.5904 46.0667 59.569 46.0667Z" fill="#808080"/>
<path d="M59.069 46.0667C59.0372 46.0667 59.01 46.0553 58.9872 46.0326C58.9645 46.0098 58.9531 45.9826 58.9531 45.9508C58.9531 45.9191 58.9645 45.8918 58.9872 45.8691C59.01 45.8463 59.0372 45.835 59.069 45.835C59.1007 45.835 59.128 45.8463 59.1507 45.8691C59.1735 45.8918 59.1849 45.9191 59.1849 45.9508C59.1849 45.9719 59.1795 45.9912 59.1688 46.0088C59.1585 46.0264 59.1445 46.0405 59.1269 46.0512C59.1098 46.0615 59.0904 46.0667 59.069 46.0667Z" fill="#808080"/>
<path d="M58.5729 46.0667C58.5411 46.0667 58.5139 46.0553 58.4911 46.0326C58.4684 46.0098 58.457 45.9826 58.457 45.9508C58.457 45.9191 58.4684 45.8918 58.4911 45.8691C58.5139 45.8463 58.5411 45.835 58.5729 45.835C58.6047 45.835 58.6319 45.8463 58.6546 45.8691C58.6774 45.8918 58.6888 45.9191 58.6888 45.9508C58.6888 45.9719 58.6834 45.9912 58.6727 46.0088C58.6624 46.0264 58.6484 46.0405 58.6308 46.0512C58.6137 46.0615 58.5944 46.0667 58.5729 46.0667Z" fill="#808080"/>
<path d="M58.0729 46.0667C58.0411 46.0667 58.0139 46.0553 57.9911 46.0326C57.9684 46.0098 57.957 45.9826 57.957 45.9508C57.957 45.9191 57.9684 45.8918 57.9911 45.8691C58.0139 45.8463 58.0411 45.835 58.0729 45.835C58.1047 45.835 58.1319 45.8463 58.1546 45.8691C58.1774 45.8918 58.1888 45.9191 58.1888 45.9508C58.1888 45.9719 58.1834 45.9912 58.1727 46.0088C58.1624 46.0264 58.1484 46.0405 58.1308 46.0512C58.1137 46.0615 58.0944 46.0667 58.0729 46.0667Z" fill="#808080"/>
<path d="M57.5729 46.0667C57.5411 46.0667 57.5139 46.0553 57.4911 46.0326C57.4684 46.0098 57.457 45.9826 57.457 45.9508C57.457 45.9191 57.4684 45.8918 57.4911 45.8691C57.5139 45.8463 57.5411 45.835 57.5729 45.835C57.6047 45.835 57.6319 45.8463 57.6546 45.8691C57.6774 45.8918 57.6888 45.9191 57.6888 45.9508C57.6888 45.9719 57.6834 45.9912 57.6727 46.0088C57.6624 46.0264 57.6484 46.0405 57.6308 46.0512C57.6137 46.0615 57.5944 46.0667 57.5729 46.0667Z" fill="#808080"/>
<path d="M57.0729 46.0667C57.0411 46.0667 57.0139 46.0553 56.9911 46.0326C56.9684 46.0098 56.957 45.9826 56.957 45.9508C56.957 45.9191 56.9684 45.8918 56.9911 45.8691C57.0139 45.8463 57.0411 45.835 57.0729 45.835C57.1047 45.835 57.1319 45.8463 57.1546 45.8691C57.1774 45.8918 57.1888 45.9191 57.1888 45.9508C57.1888 45.9719 57.1834 45.9912 57.1727 46.0088C57.1624 46.0264 57.1484 46.0405 57.1308 46.0512C57.1137 46.0615 57.0944 46.0667 57.0729 46.0667Z" fill="#808080"/>
<path d="M56.5729 46.0667C56.5411 46.0667 56.5139 46.0553 56.4911 46.0326C56.4684 46.0098 56.457 45.9826 56.457 45.9508C56.457 45.9191 56.4684 45.8918 56.4911 45.8691C56.5139 45.8463 56.5411 45.835 56.5729 45.835C56.6047 45.835 56.6319 45.8463 56.6546 45.8691C56.6774 45.8918 56.6888 45.9191 56.6888 45.9508C56.6888 45.9719 56.6834 45.9912 56.6727 46.0088C56.6624 46.0264 56.6484 46.0405 56.6308 46.0512C56.6137 46.0615 56.5944 46.0667 56.5729 46.0667Z" fill="#808080"/>
<path d="M56.0749 46.0667C56.0431 46.0667 56.0158 46.0553 55.9931 46.0326C55.9704 46.0098 55.959 45.9826 55.959 45.9508C55.959 45.9191 55.9704 45.8918 55.9931 45.8691C56.0158 45.8463 56.0431 45.835 56.0749 45.835C56.1066 45.835 56.1339 45.8463 56.1566 45.8691C56.1793 45.8918 56.1907 45.9191 56.1907 45.9508C56.1907 45.9719 56.1854 45.9912 56.1746 46.0088C56.1643 46.0264 56.1504 46.0405 56.1328 46.0512C56.1156 46.0615 56.0963 46.0667 56.0749 46.0667Z" fill="#808080"/>
<path d="M55.5768 46.0667C55.545 46.0667 55.5178 46.0553 55.4951 46.0326C55.4723 46.0098 55.4609 45.9826 55.4609 45.9508C55.4609 45.9191 55.4723 45.8918 55.4951 45.8691C55.5178 45.8463 55.545 45.835 55.5768 45.835C55.6086 45.835 55.6358 45.8463 55.6586 45.8691C55.6813 45.8918 55.6927 45.9191 55.6927 45.9508C55.6927 45.9719 55.6873 45.9912 55.6766 46.0088C55.6663 46.0264 55.6523 46.0405 55.6347 46.0512C55.6176 46.0615 55.5983 46.0667 55.5768 46.0667Z" fill="#808080"/>
<path d="M55.0788 46.0667C55.047 46.0667 55.0198 46.0553 54.997 46.0326C54.9743 46.0098 54.9629 45.9826 54.9629 45.9508C54.9629 45.9191 54.9743 45.8918 54.997 45.8691C55.0198 45.8463 55.047 45.835 55.0788 45.835C55.1105 45.835 55.1378 45.8463 55.1605 45.8691C55.1833 45.8918 55.1946 45.9191 55.1946 45.9508C55.1946 45.9719 55.1893 45.9912 55.1785 46.0088C55.1682 46.0264 55.1543 46.0405 55.1367 46.0512C55.1195 46.0615 55.1002 46.0667 55.0788 46.0667Z" fill="#808080"/>
<path d="M54.5768 46.0667C54.545 46.0667 54.5178 46.0553 54.4951 46.0326C54.4723 46.0098 54.4609 45.9826 54.4609 45.9508C54.4609 45.9191 54.4723 45.8918 54.4951 45.8691C54.5178 45.8463 54.545 45.835 54.5768 45.835C54.6086 45.835 54.6358 45.8463 54.6586 45.8691C54.6813 45.8918 54.6927 45.9191 54.6927 45.9508C54.6927 45.9719 54.6873 45.9912 54.6766 46.0088C54.6663 46.0264 54.6523 46.0405 54.6347 46.0512C54.6176 46.0615 54.5983 46.0667 54.5768 46.0667Z" fill="#808080"/>
<path d="M54.0788 46.0667C54.047 46.0667 54.0198 46.0553 53.997 46.0326C53.9743 46.0098 53.9629 45.9826 53.9629 45.9508C53.9629 45.9191 53.9743 45.8918 53.997 45.8691C54.0198 45.8463 54.047 45.835 54.0788 45.835C54.1105 45.835 54.1378 45.8463 54.1605 45.8691C54.1833 45.8918 54.1946 45.9191 54.1946 45.9508C54.1946 45.9719 54.1893 45.9912 54.1785 46.0088C54.1682 46.0264 54.1543 46.0405 54.1367 46.0512C54.1195 46.0615 54.1002 46.0667 54.0788 46.0667Z" fill="#808080"/>
<path d="M53.5827 46.0667C53.5509 46.0667 53.5237 46.0553 53.5009 46.0326C53.4782 46.0098 53.4668 45.9826 53.4668 45.9508C53.4668 45.9191 53.4782 45.8918 53.5009 45.8691C53.5237 45.8463 53.5509 45.835 53.5827 45.835C53.6144 45.835 53.6417 45.8463 53.6644 45.8691C53.6872 45.8918 53.6985 45.9191 53.6985 45.9508C53.6985 45.9719 53.6932 45.9912 53.6824 46.0088C53.6721 46.0264 53.6582 46.0405 53.6406 46.0512C53.6234 46.0615 53.6041 46.0667 53.5827 46.0667Z" fill="#808080"/>
<path d="M53.0807 46.0667C53.049 46.0667 53.0217 46.0553 52.999 46.0326C52.9762 46.0098 52.9648 45.9826 52.9648 45.9508C52.9648 45.9191 52.9762 45.8918 52.999 45.8691C53.0217 45.8463 53.049 45.835 53.0807 45.835C53.1125 45.835 53.1397 45.8463 53.1625 45.8691C53.1852 45.8918 53.1966 45.9191 53.1966 45.9508C53.1966 45.9719 53.1912 45.9912 53.1805 46.0088C53.1702 46.0264 53.1562 46.0405 53.1386 46.0512C53.1215 46.0615 53.1022 46.0667 53.0807 46.0667Z" fill="#808080"/>
<path d="M52.5827 46.0667C52.5509 46.0667 52.5237 46.0553 52.5009 46.0326C52.4782 46.0098 52.4668 45.9826 52.4668 45.9508C52.4668 45.9191 52.4782 45.8918 52.5009 45.8691C52.5237 45.8463 52.5509 45.835 52.5827 45.835C52.6144 45.835 52.6417 45.8463 52.6644 45.8691C52.6872 45.8918 52.6985 45.9191 52.6985 45.9508C52.6985 45.9719 52.6932 45.9912 52.6824 46.0088C52.6721 46.0264 52.6582 46.0405 52.6406 46.0512C52.6234 46.0615 52.6041 46.0667 52.5827 46.0667Z" fill="#808080"/>
<path d="M52.0807 46.0667C52.049 46.0667 52.0217 46.0553 51.999 46.0326C51.9762 46.0098 51.9648 45.9826 51.9648 45.9508C51.9648 45.9191 51.9762 45.8918 51.999 45.8691C52.0217 45.8463 52.049 45.835 52.0807 45.835C52.1125 45.835 52.1397 45.8463 52.1625 45.8691C52.1852 45.8918 52.1966 45.9191 52.1966 45.9508C52.1966 45.9719 52.1912 45.9912 52.1805 46.0088C52.1702 46.0264 52.1562 46.0405 52.1386 46.0512C52.1215 46.0615 52.1022 46.0667 52.0807 46.0667Z" fill="#808080"/>
<path d="M51.5827 46.0667C51.5509 46.0667 51.5237 46.0553 51.5009 46.0326C51.4782 46.0098 51.4668 45.9826 51.4668 45.9508C51.4668 45.9191 51.4782 45.8918 51.5009 45.8691C51.5237 45.8463 51.5509 45.835 51.5827 45.835C51.6144 45.835 51.6417 45.8463 51.6644 45.8691C51.6872 45.8918 51.6985 45.9191 51.6985 45.9508C51.6985 45.9719 51.6932 45.9912 51.6824 46.0088C51.6721 46.0264 51.6582 46.0405 51.6406 46.0512C51.6234 46.0615 51.6041 46.0667 51.5827 46.0667Z" fill="#808080"/>
<path d="M66.3815 49.6922C66.3497 49.6922 66.3225 49.6808 66.2997 49.6581C66.277 49.6353 66.2656 49.6081 66.2656 49.5763C66.2656 49.5446 66.277 49.5173 66.2997 49.4946C66.3225 49.4718 66.3497 49.4604 66.3815 49.4604C66.4132 49.4604 66.4405 49.4718 66.4632 49.4946C66.486 49.5173 66.4974 49.5446 66.4974 49.5763C66.4974 49.5973 66.492 49.6167 66.4813 49.6343C66.471 49.6518 66.457 49.666 66.4394 49.6767C66.4223 49.687 66.4029 49.6922 66.3815 49.6922Z" fill="#808080"/>
<path d="M65.8834 49.6922C65.8517 49.6922 65.8244 49.6808 65.8017 49.6581C65.779 49.6353 65.7676 49.6081 65.7676 49.5763C65.7676 49.5446 65.779 49.5173 65.8017 49.4946C65.8244 49.4718 65.8517 49.4604 65.8834 49.4604C65.9152 49.4604 65.9425 49.4718 65.9652 49.4946C65.9879 49.5173 65.9993 49.5446 65.9993 49.5763C65.9993 49.5973 65.9939 49.6167 65.9832 49.6343C65.9729 49.6518 65.959 49.666 65.9414 49.6767C65.9242 49.687 65.9049 49.6922 65.8834 49.6922Z" fill="#808080"/>
<path d="M65.3854 49.6922C65.3536 49.6922 65.3264 49.6808 65.3036 49.6581C65.2809 49.6353 65.2695 49.6081 65.2695 49.5763C65.2695 49.5446 65.2809 49.5173 65.3036 49.4946C65.3264 49.4718 65.3536 49.4604 65.3854 49.4604C65.4172 49.4604 65.4444 49.4718 65.4671 49.4946C65.4899 49.5173 65.5013 49.5446 65.5013 49.5763C65.5013 49.5973 65.4959 49.6167 65.4852 49.6343C65.4749 49.6518 65.4609 49.666 65.4433 49.6767C65.4262 49.687 65.4069 49.6922 65.3854 49.6922Z" fill="#808080"/>
<path d="M64.8854 49.6922C64.8536 49.6922 64.8264 49.6808 64.8036 49.6581C64.7809 49.6353 64.7695 49.6081 64.7695 49.5763C64.7695 49.5446 64.7809 49.5173 64.8036 49.4946C64.8264 49.4718 64.8536 49.4604 64.8854 49.4604C64.9172 49.4604 64.9444 49.4718 64.9671 49.4946C64.9899 49.5173 65.0013 49.5446 65.0013 49.5763C65.0013 49.5973 64.9959 49.6167 64.9852 49.6343C64.9749 49.6518 64.9609 49.666 64.9433 49.6767C64.9262 49.687 64.9069 49.6922 64.8854 49.6922Z" fill="#808080"/>
<path d="M64.3854 49.6922C64.3536 49.6922 64.3264 49.6808 64.3036 49.6581C64.2809 49.6353 64.2695 49.6081 64.2695 49.5763C64.2695 49.5446 64.2809 49.5173 64.3036 49.4946C64.3264 49.4718 64.3536 49.4604 64.3854 49.4604C64.4172 49.4604 64.4444 49.4718 64.4671 49.4946C64.4899 49.5173 64.5013 49.5446 64.5013 49.5763C64.5013 49.5973 64.4959 49.6167 64.4852 49.6343C64.4749 49.6518 64.4609 49.666 64.4433 49.6767C64.4262 49.687 64.4069 49.6922 64.3854 49.6922Z" fill="#808080"/>
<path d="M63.8874 49.6922C63.8556 49.6922 63.8283 49.6808 63.8056 49.6581C63.7829 49.6353 63.7715 49.6081 63.7715 49.5763C63.7715 49.5446 63.7829 49.5173 63.8056 49.4946C63.8283 49.4718 63.8556 49.4604 63.8874 49.4604C63.9191 49.4604 63.9464 49.4718 63.9691 49.4946C63.9918 49.5173 64.0032 49.5446 64.0032 49.5763C64.0032 49.5973 63.9979 49.6167 63.9871 49.6343C63.9768 49.6518 63.9629 49.666 63.9453 49.6767C63.9281 49.687 63.9088 49.6922 63.8874 49.6922Z" fill="#808080"/>
<path d="M63.3854 49.6922C63.3536 49.6922 63.3264 49.6808 63.3036 49.6581C63.2809 49.6353 63.2695 49.6081 63.2695 49.5763C63.2695 49.5446 63.2809 49.5173 63.3036 49.4946C63.3264 49.4718 63.3536 49.4604 63.3854 49.4604C63.4172 49.4604 63.4444 49.4718 63.4671 49.4946C63.4899 49.5173 63.5013 49.5446 63.5013 49.5763C63.5013 49.5973 63.4959 49.6167 63.4852 49.6343C63.4749 49.6518 63.4609 49.666 63.4433 49.6767C63.4262 49.687 63.4069 49.6922 63.3854 49.6922Z" fill="#808080"/>
<path d="M62.8874 49.6922C62.8556 49.6922 62.8283 49.6808 62.8056 49.6581C62.7829 49.6353 62.7715 49.6081 62.7715 49.5763C62.7715 49.5446 62.7829 49.5173 62.8056 49.4946C62.8283 49.4718 62.8556 49.4604 62.8874 49.4604C62.9191 49.4604 62.9464 49.4718 62.9691 49.4946C62.9918 49.5173 63.0032 49.5446 63.0032 49.5763C63.0032 49.5973 62.9979 49.6167 62.9871 49.6343C62.9768 49.6518 62.9629 49.666 62.9453 49.6767C62.9281 49.687 62.9088 49.6922 62.8874 49.6922Z" fill="#808080"/>
<path d="M62.3893 49.6922C62.3575 49.6922 62.3303 49.6808 62.3076 49.6581C62.2848 49.6353 62.2734 49.6081 62.2734 49.5763C62.2734 49.5446 62.2848 49.5173 62.3076 49.4946C62.3303 49.4718 62.3575 49.4604 62.3893 49.4604C62.4211 49.4604 62.4483 49.4718 62.4711 49.4946C62.4938 49.5173 62.5052 49.5446 62.5052 49.5763C62.5052 49.5973 62.4998 49.6167 62.4891 49.6343C62.4788 49.6518 62.4648 49.666 62.4472 49.6767C62.4301 49.687 62.4108 49.6922 62.3893 49.6922Z" fill="#808080"/>
<path d="M61.8893 49.6922C61.8575 49.6922 61.8303 49.6808 61.8076 49.6581C61.7848 49.6353 61.7734 49.6081 61.7734 49.5763C61.7734 49.5446 61.7848 49.5173 61.8076 49.4946C61.8303 49.4718 61.8575 49.4604 61.8893 49.4604C61.9211 49.4604 61.9483 49.4718 61.9711 49.4946C61.9938 49.5173 62.0052 49.5446 62.0052 49.5763C62.0052 49.5973 61.9998 49.6167 61.9891 49.6343C61.9788 49.6518 61.9648 49.666 61.9472 49.6767C61.9301 49.687 61.9108 49.6922 61.8893 49.6922Z" fill="#808080"/>
<path d="M61.3893 49.6922C61.3575 49.6922 61.3303 49.6808 61.3076 49.6581C61.2848 49.6353 61.2734 49.6081 61.2734 49.5763C61.2734 49.5446 61.2848 49.5173 61.3076 49.4946C61.3303 49.4718 61.3575 49.4604 61.3893 49.4604C61.4211 49.4604 61.4483 49.4718 61.4711 49.4946C61.4938 49.5173 61.5052 49.5446 61.5052 49.5763C61.5052 49.5973 61.4998 49.6167 61.4891 49.6343C61.4788 49.6518 61.4648 49.666 61.4472 49.6767C61.4301 49.687 61.4108 49.6922 61.3893 49.6922Z" fill="#808080"/>
<path d="M60.8893 49.6922C60.8575 49.6922 60.8303 49.6808 60.8076 49.6581C60.7848 49.6353 60.7734 49.6081 60.7734 49.5763C60.7734 49.5446 60.7848 49.5173 60.8076 49.4946C60.8303 49.4718 60.8575 49.4604 60.8893 49.4604C60.9211 49.4604 60.9483 49.4718 60.9711 49.4946C60.9938 49.5173 61.0052 49.5446 61.0052 49.5763C61.0052 49.5973 60.9998 49.6167 60.9891 49.6343C60.9788 49.6518 60.9648 49.666 60.9472 49.6767C60.9301 49.687 60.9108 49.6922 60.8893 49.6922Z" fill="#808080"/>
<path d="M60.3913 49.6922C60.3595 49.6922 60.3323 49.6808 60.3095 49.6581C60.2868 49.6353 60.2754 49.6081 60.2754 49.5763C60.2754 49.5446 60.2868 49.5173 60.3095 49.4946C60.3323 49.4718 60.3595 49.4604 60.3913 49.4604C60.423 49.4604 60.4503 49.4718 60.473 49.4946C60.4958 49.5173 60.5071 49.5446 60.5071 49.5763C60.5071 49.5973 60.5018 49.6167 60.491 49.6343C60.4807 49.6518 60.4668 49.666 60.4492 49.6767C60.432 49.687 60.4127 49.6922 60.3913 49.6922Z" fill="#808080"/>
<path d="M59.8913 49.6922C59.8595 49.6922 59.8323 49.6808 59.8095 49.6581C59.7868 49.6353 59.7754 49.6081 59.7754 49.5763C59.7754 49.5446 59.7868 49.5173 59.8095 49.4946C59.8323 49.4718 59.8595 49.4604 59.8913 49.4604C59.923 49.4604 59.9503 49.4718 59.973 49.4946C59.9958 49.5173 60.0071 49.5446 60.0071 49.5763C60.0071 49.5973 60.0018 49.6167 59.991 49.6343C59.9807 49.6518 59.9668 49.666 59.9492 49.6767C59.932 49.687 59.9127 49.6922 59.8913 49.6922Z" fill="#808080"/>
<path d="M59.3952 49.6922C59.3634 49.6922 59.3362 49.6808 59.3134 49.6581C59.2907 49.6353 59.2793 49.6081 59.2793 49.5763C59.2793 49.5446 59.2907 49.5173 59.3134 49.4946C59.3362 49.4718 59.3634 49.4604 59.3952 49.4604C59.4269 49.4604 59.4542 49.4718 59.4769 49.4946C59.4997 49.5173 59.511 49.5446 59.511 49.5763C59.511 49.5973 59.5057 49.6167 59.4949 49.6343C59.4846 49.6518 59.4707 49.666 59.4531 49.6767C59.4359 49.687 59.4166 49.6922 59.3952 49.6922Z" fill="#808080"/>
<path d="M58.8932 49.6922C58.8615 49.6922 58.8342 49.6808 58.8115 49.6581C58.7887 49.6353 58.7773 49.6081 58.7773 49.5763C58.7773 49.5446 58.7887 49.5173 58.8115 49.4946C58.8342 49.4718 58.8615 49.4604 58.8932 49.4604C58.925 49.4604 58.9522 49.4718 58.975 49.4946C58.9977 49.5173 59.0091 49.5446 59.0091 49.5763C59.0091 49.5973 59.0037 49.6167 58.993 49.6343C58.9827 49.6518 58.9687 49.666 58.9511 49.6767C58.934 49.687 58.9147 49.6922 58.8932 49.6922Z" fill="#808080"/>
<path d="M58.3952 49.6922C58.3634 49.6922 58.3362 49.6808 58.3134 49.6581C58.2907 49.6353 58.2793 49.6081 58.2793 49.5763C58.2793 49.5446 58.2907 49.5173 58.3134 49.4946C58.3362 49.4718 58.3634 49.4604 58.3952 49.4604C58.4269 49.4604 58.4542 49.4718 58.4769 49.4946C58.4997 49.5173 58.511 49.5446 58.511 49.5763C58.511 49.5973 58.5057 49.6167 58.4949 49.6343C58.4846 49.6518 58.4707 49.666 58.4531 49.6767C58.4359 49.687 58.4166 49.6922 58.3952 49.6922Z" fill="#808080"/>
<path d="M57.8952 49.6922C57.8634 49.6922 57.8362 49.6808 57.8134 49.6581C57.7907 49.6353 57.7793 49.6081 57.7793 49.5763C57.7793 49.5446 57.7907 49.5173 57.8134 49.4946C57.8362 49.4718 57.8634 49.4604 57.8952 49.4604C57.9269 49.4604 57.9542 49.4718 57.9769 49.4946C57.9997 49.5173 58.011 49.5446 58.011 49.5763C58.011 49.5973 58.0057 49.6167 57.9949 49.6343C57.9846 49.6518 57.9707 49.666 57.9531 49.6767C57.9359 49.687 57.9166 49.6922 57.8952 49.6922Z" fill="#808080"/>
<path d="M57.3971 49.6922C57.3654 49.6922 57.3381 49.6808 57.3154 49.6581C57.2926 49.6353 57.2812 49.6081 57.2812 49.5763C57.2812 49.5446 57.2926 49.5173 57.3154 49.4946C57.3381 49.4718 57.3654 49.4604 57.3971 49.4604C57.4289 49.4604 57.4561 49.4718 57.4789 49.4946C57.5016 49.5173 57.513 49.5446 57.513 49.5763C57.513 49.5973 57.5076 49.6167 57.4969 49.6343C57.4866 49.6518 57.4726 49.666 57.4551 49.6767C57.4379 49.687 57.4186 49.6922 57.3971 49.6922Z" fill="#808080"/>
<path d="M56.8991 49.6922C56.8673 49.6922 56.8401 49.6808 56.8173 49.6581C56.7946 49.6353 56.7832 49.6081 56.7832 49.5763C56.7832 49.5446 56.7946 49.5173 56.8173 49.4946C56.8401 49.4718 56.8673 49.4604 56.8991 49.4604C56.9308 49.4604 56.9581 49.4718 56.9808 49.4946C57.0036 49.5173 57.0149 49.5446 57.0149 49.5763C57.0149 49.5973 57.0096 49.6167 56.9988 49.6343C56.9885 49.6518 56.9746 49.666 56.957 49.6767C56.9398 49.687 56.9205 49.6922 56.8991 49.6922Z" fill="#808080"/>
<path d="M56.3991 49.6922C56.3673 49.6922 56.3401 49.6808 56.3173 49.6581C56.2946 49.6353 56.2832 49.6081 56.2832 49.5763C56.2832 49.5446 56.2946 49.5173 56.3173 49.4946C56.3401 49.4718 56.3673 49.4604 56.3991 49.4604C56.4308 49.4604 56.4581 49.4718 56.4808 49.4946C56.5036 49.5173 56.5149 49.5446 56.5149 49.5763C56.5149 49.5973 56.5096 49.6167 56.4988 49.6343C56.4885 49.6518 56.4746 49.666 56.457 49.6767C56.4398 49.687 56.4205 49.6922 56.3991 49.6922Z" fill="#808080"/>
<path d="M55.8991 49.6922C55.8673 49.6922 55.8401 49.6808 55.8173 49.6581C55.7946 49.6353 55.7832 49.6081 55.7832 49.5763C55.7832 49.5446 55.7946 49.5173 55.8173 49.4946C55.8401 49.4718 55.8673 49.4604 55.8991 49.4604C55.9308 49.4604 55.9581 49.4718 55.9808 49.4946C56.0036 49.5173 56.0149 49.5446 56.0149 49.5763C56.0149 49.5973 56.0096 49.6167 55.9988 49.6343C55.9885 49.6518 55.9746 49.666 55.957 49.6767C55.9398 49.687 55.9205 49.6922 55.8991 49.6922Z" fill="#808080"/>
<path d="M55.3971 49.6922C55.3654 49.6922 55.3381 49.6808 55.3154 49.6581C55.2926 49.6353 55.2812 49.6081 55.2812 49.5763C55.2812 49.5446 55.2926 49.5173 55.3154 49.4946C55.3381 49.4718 55.3654 49.4604 55.3971 49.4604C55.4289 49.4604 55.4561 49.4718 55.4789 49.4946C55.5016 49.5173 55.513 49.5446 55.513 49.5763C55.513 49.5973 55.5076 49.6167 55.4969 49.6343C55.4866 49.6518 55.4726 49.666 55.4551 49.6767C55.4379 49.687 55.4186 49.6922 55.3971 49.6922Z" fill="#808080"/>
<path d="M54.8991 49.6922C54.8673 49.6922 54.8401 49.6808 54.8173 49.6581C54.7946 49.6353 54.7832 49.6081 54.7832 49.5763C54.7832 49.5446 54.7946 49.5173 54.8173 49.4946C54.8401 49.4718 54.8673 49.4604 54.8991 49.4604C54.9308 49.4604 54.9581 49.4718 54.9808 49.4946C55.0036 49.5173 55.0149 49.5446 55.0149 49.5763C55.0149 49.5973 55.0096 49.6167 54.9988 49.6343C54.9885 49.6518 54.9746 49.666 54.957 49.6767C54.9398 49.687 54.9205 49.6922 54.8991 49.6922Z" fill="#808080"/>
<path d="M54.403 49.6922C54.3712 49.6922 54.344 49.6808 54.3212 49.6581C54.2985 49.6353 54.2871 49.6081 54.2871 49.5763C54.2871 49.5446 54.2985 49.5173 54.3212 49.4946C54.344 49.4718 54.3712 49.4604 54.403 49.4604C54.4347 49.4604 54.462 49.4718 54.4847 49.4946C54.5075 49.5173 54.5188 49.5446 54.5188 49.5763C54.5188 49.5973 54.5135 49.6167 54.5028 49.6343C54.4925 49.6518 54.4785 49.666 54.4609 49.6767C54.4437 49.687 54.4244 49.6922 54.403 49.6922Z" fill="#808080"/>
<path d="M53.901 49.6922C53.8693 49.6922 53.842 49.6808 53.8193 49.6581C53.7965 49.6353 53.7852 49.6081 53.7852 49.5763C53.7852 49.5446 53.7965 49.5173 53.8193 49.4946C53.842 49.4718 53.8693 49.4604 53.901 49.4604C53.9328 49.4604 53.96 49.4718 53.9828 49.4946C54.0055 49.5173 54.0169 49.5446 54.0169 49.5763C54.0169 49.5973 54.0115 49.6167 54.0008 49.6343C53.9905 49.6518 53.9766 49.666 53.959 49.6767C53.9418 49.687 53.9225 49.6922 53.901 49.6922Z" fill="#808080"/>
<path d="M53.403 49.6922C53.3712 49.6922 53.344 49.6808 53.3212 49.6581C53.2985 49.6353 53.2871 49.6081 53.2871 49.5763C53.2871 49.5446 53.2985 49.5173 53.3212 49.4946C53.344 49.4718 53.3712 49.4604 53.403 49.4604C53.4347 49.4604 53.462 49.4718 53.4847 49.4946C53.5075 49.5173 53.5188 49.5446 53.5188 49.5763C53.5188 49.5973 53.5135 49.6167 53.5028 49.6343C53.4925 49.6518 53.4785 49.666 53.4609 49.6767C53.4437 49.687 53.4244 49.6922 53.403 49.6922Z" fill="#808080"/>
<path d="M52.901 49.6922C52.8693 49.6922 52.842 49.6808 52.8193 49.6581C52.7965 49.6353 52.7852 49.6081 52.7852 49.5763C52.7852 49.5446 52.7965 49.5173 52.8193 49.4946C52.842 49.4718 52.8693 49.4604 52.901 49.4604C52.9328 49.4604 52.96 49.4718 52.9828 49.4946C53.0055 49.5173 53.0169 49.5446 53.0169 49.5763C53.0169 49.5973 53.0115 49.6167 53.0008 49.6343C52.9905 49.6518 52.9766 49.666 52.959 49.6767C52.9418 49.687 52.9225 49.6922 52.901 49.6922Z" fill="#808080"/>
<path d="M52.403 49.6922C52.3712 49.6922 52.344 49.6808 52.3212 49.6581C52.2985 49.6353 52.2871 49.6081 52.2871 49.5763C52.2871 49.5446 52.2985 49.5173 52.3212 49.4946C52.344 49.4718 52.3712 49.4604 52.403 49.4604C52.4347 49.4604 52.462 49.4718 52.4847 49.4946C52.5075 49.5173 52.5188 49.5446 52.5188 49.5763C52.5188 49.5973 52.5135 49.6167 52.5028 49.6343C52.4925 49.6518 52.4785 49.666 52.4609 49.6767C52.4437 49.687 52.4244 49.6922 52.403 49.6922Z" fill="#808080"/>
<path d="M49.705 34.4551H35.3848V35.724H49.705V34.4551Z" fill="#808080"/>
<path d="M45.7171 37.8994H35.3848V39.1683H45.7171V37.8994Z" fill="#808080"/>
<path d="M52.2427 41.3438H35.3848V42.6126H52.2427V41.3438Z" fill="#808080"/>
<path d="M50.6113 44.7856H35.3848V46.0545H50.6113V44.7856Z" fill="#808080"/>
<path d="M51.518 48.4116H35.5664V49.6805H51.518V48.4116Z" fill="#808080"/>
<path d="M30.8477 65.2034C35.4514 64.9947 39.0143 61.0933 38.8055 56.4896C38.5967 51.8858 34.6954 48.3229 30.0917 48.5317C25.4879 48.7404 21.9251 52.6418 22.1339 57.2456C22.3426 61.8493 26.2439 65.4122 30.8477 65.2034Z" fill="#A8D29F"/>
<path d="M25.6035 57.4366L28.3285 60.1618C28.4776 60.3109 28.6798 60.3947 28.8905 60.3947H29.2877C29.4985 60.3947 29.7007 60.3109 29.8496 60.1618L35.3262 54.6852C35.8269 54.1845 35.4723 53.3286 34.7643 53.3286H34.5066C34.2989 53.3286 34.0995 53.4099 33.9511 53.555L29.4654 57.9397C29.1541 58.244 28.6558 58.2412 28.3479 57.9334L26.7274 56.3127C26.5762 56.1615 26.3706 56.0777 26.1569 56.08C25.4529 56.0877 25.1057 56.9389 25.6035 57.4366Z" fill="white"/>
</svg>
