<svg width="80" height="80" viewBox="0 0 80 80" fill="none" xmlns="http://www.w3.org/2000/svg">
<path d="M55.6529 7.2289C55.6502 7.22793 55.6474 7.22708 55.6447 7.2261C55.5678 7.19837 55.4895 7.17364 55.4103 7.15078C55.3833 7.14299 55.3565 7.13488 55.3293 7.12767C55.3006 7.12009 55.2717 7.11336 55.2428 7.10642C55.2134 7.09937 55.1841 7.09235 55.1545 7.08599C55.1266 7.07999 55.0985 7.07452 55.0704 7.06917C55.0389 7.06312 55.0072 7.05741 54.9754 7.05218C54.9484 7.04772 54.9214 7.04346 54.8942 7.03957C54.8599 7.03462 54.8254 7.03037 54.7908 7.02635C54.7656 7.02343 54.7405 7.02043 54.7152 7.018C54.6756 7.01423 54.6358 7.01147 54.5959 7.00888C54.5749 7.00754 54.5541 7.00572 54.533 7.0047C54.4718 7.00178 54.4102 7 54.3481 7H25.9159C25.8498 7 25.784 7.0017 25.7187 7.00503C25.5879 7.01168 25.459 7.02489 25.3321 7.04435C25.2686 7.05408 25.2057 7.06535 25.1433 7.07821C23.521 7.4113 22.272 8.7725 22.1018 10.4537C22.0887 10.583 22.082 10.7142 22.082 10.847V58.3219V69.153C22.082 70.8179 23.1362 72.2355 24.6112 72.7711C24.6177 72.7735 24.6244 72.7755 24.6309 72.7778C24.7041 72.804 24.7784 72.8275 24.8535 72.8492C24.8806 72.857 24.9075 72.8651 24.9349 72.8723C24.9635 72.88 24.9924 72.8867 25.0213 72.8936C25.0507 72.9006 25.08 72.9076 25.1096 72.914C25.1375 72.92 25.1656 72.9255 25.1937 72.9309C25.2252 72.9369 25.2569 72.9426 25.2887 72.9479C25.3157 72.9523 25.3427 72.9566 25.3698 72.9605C25.4042 72.9654 25.4387 72.9697 25.4733 72.9737C25.4985 72.9766 25.5236 72.9796 25.5489 72.982C25.5885 72.9858 25.6283 72.9886 25.6682 72.9912C25.6892 72.9925 25.71 72.9943 25.7311 72.9953C25.7924 72.9983 25.8539 73 25.9159 73H54.3481C54.4805 73 54.6113 72.9933 54.7401 72.9802C56.5445 72.7963 57.979 71.3569 58.1623 69.5463C58.1754 69.4171 58.182 69.2858 58.182 69.153V21.6782V10.847C58.1821 9.18213 57.1279 7.76454 55.6529 7.2289Z" fill="#596D91"/>
<path d="M56.4365 12.2432H23.9434V67.7568H56.4365V12.2432Z" fill="#EFF4FF"/>
<path d="M16.9004 41.6539C16.9004 41.6539 25.5673 41.143 35.253 51.6549C44.9388 62.1667 58.15 62.2749 58.15 62.2749" stroke="#246AFF" stroke-miterlimit="10" stroke-dasharray="2 2"/>
<rect x="37.7559" y="35.875" width="10.7249" height="2.475" fill="#C6D8FF"/>
<rect x="37.7559" y="31.75" width="16.4998" height="2.475" fill="#C6D8FF"/>
<rect x="26.207" y="31.75" width="9.89989" height="9.075" fill="#C6D8FF"/>
<rect x="37.7559" y="49.8999" width="10.7249" height="2.475" fill="#C6D8FF"/>
<rect x="37.7559" y="45.7749" width="16.4998" height="2.475" fill="#C6D8FF"/>
<rect x="26.207" y="45.7749" width="9.89989" height="9.075" fill="#C6D8FF"/>
<rect x="37.7559" y="21.8501" width="10.7249" height="2.475" fill="#C6D8FF"/>
<rect x="37.7559" y="17.7251" width="16.4998" height="2.475" fill="#C6D8FF"/>
<rect x="26.207" y="17.7251" width="9.89989" height="9.075" fill="#C6D8FF"/>
<path d="M47.0542 10.4984H33.2676C33.2482 10.4984 33.2324 10.4826 33.2324 10.4632V9.83792C33.2324 9.81851 33.2482 9.80273 33.2676 9.80273H47.0542C47.0736 9.80273 47.0894 9.81851 47.0894 9.83792V10.4632C47.0894 10.4826 47.0736 10.4984 47.0542 10.4984Z" fill="white"/>
<path opacity="0.3" d="M41.7062 70.4313C41.7062 71.3126 40.9942 72.0271 40.1158 72.0271C39.2374 72.0271 38.5254 71.3126 38.5254 70.4313C38.5254 69.5499 39.2375 68.8354 40.1158 68.8354C40.9942 68.8354 41.7062 69.5499 41.7062 70.4313Z" fill="#DAEEF7"/>
<path opacity="0.2" d="M56.3263 65.4277H23.9434V67.7569H56.3263V65.4277Z" fill="#246AFF"/>
<path opacity="0.2" d="M56.4365 12.2432H23.9434V15.1892H56.4365V12.2432Z" fill="#246AFF"/>
<path d="M64.6252 58.1526C64.724 58.1566 64.8227 58.1647 64.9211 58.176C65.1168 58.1985 65.3112 58.2356 65.5021 58.2874C67.2164 58.7524 68.4831 60.3633 68.798 62.1585C68.8563 62.4907 68.8813 62.8294 68.8713 63.1682L68.8625 63.345C68.8604 63.3752 68.8544 63.4049 68.8517 63.4348C68.8468 63.4894 68.8411 63.5433 68.8342 63.5969C68.8271 63.6518 68.8188 63.7061 68.8097 63.76C68.8011 63.8111 68.7937 63.8621 68.7834 63.9124C68.7719 63.9684 68.7579 64.0234 68.7443 64.0784C68.7306 64.1338 68.7171 64.189 68.7013 64.2434C68.6912 64.2785 68.6801 64.3132 68.6691 64.3479C68.649 64.4116 68.6285 64.475 68.6056 64.5374C68.5882 64.5851 68.5689 64.632 68.55 64.679C68.5285 64.7321 68.5068 64.785 68.4836 64.8372C68.4737 64.8594 68.4635 64.8815 68.4533 64.9036C68.4191 64.9773 68.3835 65.0503 68.3459 65.1223C68.3285 65.1557 68.3093 65.188 68.2912 65.221C68.2598 65.2782 68.2289 65.3357 68.1955 65.3919C68.1424 65.481 68.0882 65.5697 68.0304 65.6565C67.4075 66.593 66.5276 67.3974 65.6994 68.2073C65.3683 68.5311 65.0451 68.8554 64.7502 69.1897C64.6026 69.3569 64.4623 69.5273 64.3312 69.7005C64.2734 69.6236 64.2136 69.5469 64.1525 69.471C64.0766 69.3764 63.9974 69.2832 63.9172 69.1897C61.9953 66.9507 58.9529 64.9744 60.0197 61.5159C60.6494 59.4749 62.3188 58.218 64.3312 58.1516C64.4292 58.1484 64.5273 58.1487 64.6252 58.1526ZM64.3312 59.7942C63.9255 59.7942 63.5392 59.8814 63.1877 60.0374C63.0999 60.0763 63.014 60.1189 62.9308 60.1663C62.8474 60.2138 62.7669 60.2661 62.6886 60.3215C62.6105 60.3769 62.5346 60.4355 62.4621 60.4983C62.3167 60.6241 62.1836 60.7647 62.0636 60.9173C62.0038 60.9934 61.9475 61.0726 61.8947 61.1546C61.8419 61.2365 61.7925 61.3211 61.7472 61.4085C61.6568 61.5832 61.5818 61.7681 61.5246 61.9612C61.4959 62.0579 61.4719 62.1566 61.4523 62.2571C61.423 62.4077 61.4043 62.5623 61.3967 62.72C61.3941 62.7724 61.3927 62.8251 61.3927 62.8782L61.3957 63.0374C61.3991 63.1084 61.4073 63.1786 61.4152 63.2483C61.5733 64.6351 62.6066 65.7379 63.9201 65.9309C64.0056 65.9435 64.0921 65.9536 64.1799 65.9583L64.3312 65.9622C64.4118 65.9622 64.4916 65.9571 64.5705 65.9505C66.0818 65.8226 67.271 64.4968 67.2707 62.8782C67.2706 62.6255 67.2375 62.3808 67.1828 62.1458C66.9007 60.9326 65.9385 59.9999 64.7414 59.8245C64.6563 59.812 64.5698 59.8028 64.4826 59.7981L64.3312 59.7942Z" fill="#EB6E58"/>
<path d="M14.6352 34.2271L14.8501 34.2437C14.9922 34.2601 15.1333 34.2872 15.2719 34.3247C16.2877 34.6002 17.0878 35.4285 17.4731 36.4322C17.5432 36.6148 17.5986 36.8036 17.6401 36.9956C17.7022 37.283 17.7309 37.5781 17.7221 37.8736L17.7163 38.0025C17.7146 38.0261 17.7106 38.0494 17.7085 38.0728C17.7053 38.1076 17.7011 38.142 17.6967 38.1763C17.6909 38.223 17.6841 38.2692 17.6762 38.315C17.6703 38.3495 17.6637 38.3836 17.6567 38.4175C17.6484 38.4576 17.6401 38.4973 17.6303 38.5367C17.6209 38.5748 17.6108 38.6125 17.6001 38.6499C17.5922 38.6774 17.5842 38.7048 17.5757 38.732C17.561 38.7784 17.5454 38.8242 17.5288 38.8697C17.5129 38.9131 17.4956 38.9559 17.478 38.9986C17.4672 39.0246 17.4571 39.0509 17.4458 39.0767C17.4256 39.1223 17.4033 39.1668 17.3813 39.2115C17.369 39.2366 17.3571 39.2618 17.3442 39.2867C17.327 39.3197 17.3096 39.3527 17.2915 39.3853C17.2716 39.4209 17.2518 39.4566 17.2309 39.4917C17.2202 39.5098 17.2088 39.5275 17.1977 39.5454C17.1693 39.5916 17.1409 39.6379 17.1108 39.6831C16.7484 40.228 16.2664 40.712 15.7798 41.1851C15.5366 41.4215 15.2922 41.6554 15.061 41.8931C14.8297 42.1309 14.611 42.3728 14.4204 42.6245C13.0728 40.8347 10.4514 39.377 11.2856 36.6724C11.3715 36.3942 11.4839 36.1361 11.6196 35.8999C11.6649 35.8211 11.7119 35.7443 11.7622 35.6704C11.8627 35.5229 11.973 35.3852 12.0923 35.2583C12.2115 35.1315 12.3401 35.0157 12.476 34.9107C12.5441 34.8581 12.6141 34.8082 12.686 34.7613C12.7574 34.7147 12.8308 34.6712 12.9057 34.6304C13.3577 34.3843 13.8715 34.2443 14.4204 34.2261H14.4214C14.4926 34.2238 14.564 34.2242 14.6352 34.2271ZM14.4204 35.4204C13.904 35.4205 13.4304 35.6132 13.061 35.9331C12.9556 36.0245 12.8589 36.1262 12.7719 36.2369C12.4669 36.6245 12.2837 37.1216 12.2837 37.6636C12.2837 38.1524 12.4339 38.6038 12.687 38.9722C12.7544 39.0704 12.8283 39.1632 12.9096 39.2486C13.2961 39.6542 13.8296 39.9044 14.4194 39.9048H14.4204C14.4938 39.9048 14.5666 39.9017 14.6382 39.8941C14.7506 39.8822 14.8596 39.8581 14.9663 39.8286C15.882 39.5753 16.5582 38.7039 16.5581 37.6636C16.5581 36.425 15.6008 35.4204 14.4204 35.4204Z" fill="#EB6E58"/>
</svg>
