<svg width="80" height="80" viewBox="0 0 80 80" fill="none" xmlns="http://www.w3.org/2000/svg">
<path d="M78.7622 75.2593H76.3438V75.3288H78.7622V75.2593Z" fill="#EBEBEB"/>
<path d="M13.2503 72.3892H1.23828V72.4587H13.2503V72.3892Z" fill="#EBEBEB"/>
<path d="M17.4884 72.3892H15.7266V72.4587H17.4884V72.3892Z" fill="#EBEBEB"/>
<path d="M49.2623 73.5635H23.2109V73.633H49.2623V73.5635Z" fill="#EBEBEB"/>
<path d="M51.8181 44.5323L64.4283 42.0714C65.1247 41.9354 65.7994 42.3898 65.9354 43.0865L67.4163 50.6749C67.5522 51.3713 67.0978 52.0462 66.4012 52.182L53.7913 54.6428C53.0949 54.7788 52.42 54.3244 52.2842 53.6281L50.8034 46.0393C50.6674 45.343 51.1218 44.6683 51.8181 44.5323Z" fill="#EBEBEB"/>
<path d="M51.2953 48.5457L66.4277 45.5933L66.0587 43.7017L50.9263 46.6541L51.2953 48.5457Z" fill="#E0E0E0"/>
<path d="M55.213 48.566L52.6484 49.0664L52.7796 49.7387L55.3442 49.2383L55.213 48.566Z" fill="#FAFAFA"/>
<path d="M57.1786 48.1837L55.6699 48.478L55.8011 49.1503L57.3097 48.8559L57.1786 48.1837Z" fill="#FAFAFA"/>
<path d="M59.704 47.686L58.1953 47.9805L58.3265 48.6527L59.8352 48.3582L59.704 47.686Z" fill="#FAFAFA"/>
<path d="M61.0279 72.1297C58.9816 73.2658 56.4019 72.5277 55.2659 70.4814C54.1299 68.4352 54.8677 65.8556 56.9142 64.7195C58.9605 63.5835 61.5401 64.3213 62.6762 66.3675C63.8119 68.4141 63.0741 70.9937 61.0279 72.1297Z" fill="#F0F0F0"/>
<path d="M59.3609 67.3644C59.132 67.4915 59.1411 67.7544 59.2135 68.076L60.0617 67.605C59.8213 67.2957 59.5707 67.2478 59.3609 67.3644Z" fill="#E0E0E0"/>
<path d="M58.7556 68.8413L57.9121 69.3095C58.1578 69.6283 58.4017 69.6862 58.6068 69.5724C58.8402 69.4428 58.8332 69.1721 58.7556 68.8413Z" fill="#E0E0E0"/>
<path d="M62.1339 66.6689C61.1641 64.9222 58.9624 64.2923 57.2157 65.262C55.4689 66.2317 54.8393 68.4337 55.8088 70.1802C56.7785 71.9269 58.9802 72.5565 60.727 71.5871C62.4737 70.6176 63.1036 68.4156 62.1339 66.6689ZM57.3914 69.5978L56.8578 69.8943L56.6408 69.5036L57.1698 69.2099C56.9392 68.7268 56.8405 68.1895 56.9173 67.823L57.5174 67.7702C57.4565 68.1095 57.5169 68.5436 57.6843 68.9243L58.637 68.3953C58.4721 67.7949 58.3289 67.1328 58.9913 66.7651C59.4772 66.4954 60.0971 66.6125 60.5812 67.3163L61.1197 67.0174L61.3366 67.4081L60.8076 67.7018C60.9842 68.065 61.0779 68.4804 61.054 68.8306L60.4642 68.9023C60.4717 68.5678 60.4047 68.256 60.2929 67.9876L59.3303 68.5219C59.4953 69.1223 59.6488 69.7911 58.9863 70.159C58.5005 70.4282 57.8828 70.3037 57.3914 69.5978Z" fill="#E0E0E0"/>
<path d="M60.4252 18.7227C61.3115 22.2601 59.1626 25.8459 55.6252 26.7322C52.088 27.6185 48.5019 25.4696 47.6156 21.9322C46.7293 18.3951 48.8782 14.809 52.4156 13.9227C55.953 13.0364 59.5391 15.1855 60.4252 18.7227Z" fill="#F0F0F0"/>
<path d="M52.5815 19.3131C52.6805 19.7087 53.08 19.8011 53.5933 19.8214L53.2258 18.355C52.6636 18.5923 52.4905 18.9506 52.5815 19.3131Z" fill="#E0E0E0"/>
<path d="M54.5605 20.8218L54.9258 22.2801C55.5045 22.0386 55.6898 21.6948 55.601 21.3403C55.4998 20.9364 55.0897 20.8376 54.5605 20.8218Z" fill="#E0E0E0"/>
<path d="M52.6502 14.8598C49.6309 15.6162 47.7965 18.6772 48.5532 21.6963C49.3097 24.7156 52.3707 26.5496 55.3898 25.7932C58.4091 25.0368 60.2435 21.976 59.4867 18.9567C58.7303 15.9374 55.6695 14.1033 52.6502 14.8598ZM55.15 23.1769L55.3811 24.0996L54.7059 24.2689L54.4768 23.3548C53.6569 23.5075 52.8084 23.4399 52.2873 23.1769L52.4494 22.2522C52.9355 22.4805 53.6133 22.5645 54.2537 22.4655L53.841 20.8183C52.871 20.825 51.8165 20.7741 51.5297 19.6292C51.3192 18.789 51.745 17.9036 52.9992 17.458L52.7662 16.5275L53.4414 16.3584L53.6706 17.2726C54.2882 17.153 54.9515 17.1794 55.4685 17.356L55.3392 18.2726C54.8386 18.1266 54.3424 18.1021 53.8933 18.1622L54.3102 19.8258C55.2802 19.8191 56.3489 19.8575 56.6357 21.0027C56.8462 21.8417 56.4101 22.7213 55.15 23.1769Z" fill="#E0E0E0"/>
<g opacity="0.3">
<path d="M28.8056 46.7579L29.5676 46.1308L30.0265 46.6884L29.2715 47.3096C29.7793 48.0099 30.0932 48.8353 30.0785 49.4407L29.1396 49.7002C29.1374 49.1431 28.9147 48.4704 28.5367 47.9142L27.1765 49.0339C27.6143 49.9399 28.0356 50.9511 27.09 51.7292C26.3965 52.3001 25.3769 52.2951 24.4014 51.3179L23.6327 51.9506L23.1738 51.393L23.9286 50.7717C23.5418 50.2458 23.2714 49.6126 23.2069 49.0494L24.1235 48.763C24.2095 49.2972 24.4072 49.773 24.6631 50.1671L26.0369 49.0364C25.5991 48.1303 25.1597 47.1116 26.1056 46.3332C26.7997 45.7623 27.8181 45.7796 28.8056 46.7579ZM26.3536 49.7116L25.1431 50.708C25.6156 51.1293 26.028 51.1318 26.3272 50.8854C26.654 50.6168 26.5628 50.2013 26.3536 49.7116ZM26.8837 47.1536C26.5505 47.4278 26.6403 47.8558 26.8606 48.3589L28.0645 47.3681C27.5809 46.9334 27.1763 46.9128 26.8837 47.1536Z" fill="white"/>
</g>
<g opacity="0.3">
<path d="M29.1483 40.9185L30.0023 40.4241L30.3641 41.0492L29.5179 41.5392C29.9044 42.3129 30.0799 43.1786 29.9664 43.7735L28.9978 43.8764C29.0862 43.3263 28.9764 42.6263 28.6944 42.0159L27.1699 42.8986C27.4538 43.8639 27.7046 44.9301 26.6448 45.5438C25.8672 45.9938 24.8622 45.8228 24.0593 44.6995L23.1977 45.1982L22.8359 44.573L23.6822 44.083C23.3863 43.5012 23.2228 42.8321 23.2511 42.2662L24.2022 42.133C24.1997 42.6739 24.3174 43.1758 24.5057 43.6063L26.0455 42.7148C25.7616 41.7495 25.4943 40.6727 26.5541 40.0592C27.3314 39.609 28.3334 39.7922 29.1483 40.9185ZM26.2471 43.4325L24.8903 44.2182C25.2877 44.7109 25.6943 44.7807 26.0296 44.5866C26.3959 44.3744 26.3737 43.9498 26.2471 43.4325ZM27.1874 40.995C26.8139 41.2114 26.8328 41.6483 26.968 42.1805L28.3173 41.3993C27.911 40.8915 27.5153 40.8053 27.1874 40.995Z" fill="white"/>
</g>
<path opacity="0.1" d="M50.9381 59.0928L26.757 68.8412L21.3766 59.5486L8.49219 22.4837L13.6051 19.523L26.9189 17.6069L50.9381 59.0928Z" fill="black"/>
<path d="M7.93758 16.9116L25.3438 67.4409L49.7492 59.034L32.343 8.50469L7.93758 16.9116Z" fill="#246AFF"/>
<path d="M7.93758 16.9116L25.3438 67.4409L49.7492 59.034L32.343 8.50469L7.93758 16.9116Z" fill="#6395FF"/>
<g opacity="0.3">
<path d="M31.6888 36.5517L32.6218 36.2302L32.8571 36.9129L31.9326 37.2313C32.1638 38.0648 32.1699 38.948 31.9443 39.5101L30.974 39.4253C31.1665 38.9024 31.1929 38.1944 31.0333 37.5412L29.3677 38.1149C29.4612 39.1169 29.5029 40.2115 28.3449 40.6102C27.4956 40.9028 26.5419 40.5418 25.9693 39.2854L25.0282 39.6096L24.793 38.9266L25.7174 38.6082C25.5386 37.9803 25.5066 37.2925 25.6431 36.7425L26.602 36.7945C26.4958 37.3251 26.5147 37.8398 26.617 38.2987L28.2993 37.7191C28.2055 36.7171 28.1499 35.6092 29.3079 35.2104C30.1573 34.9181 31.1053 35.2899 31.6888 36.5517ZM28.3593 38.4625L26.8771 38.9731C27.1727 39.5329 27.5581 39.6794 27.9247 39.5532C28.3246 39.4155 28.3844 38.9945 28.3593 38.4625ZM29.7498 36.2508C29.3419 36.3915 29.2765 36.8239 29.3071 37.3721L30.7813 36.8643C30.4799 36.288 30.108 36.1276 29.7498 36.2508Z" fill="white"/>
</g>
<path d="M46.8383 55.0903L32.48 13.4078C30.9276 13.9426 29.2357 13.1175 28.7012 11.5654L12.6887 17.081C13.2232 18.633 12.3981 20.325 10.8457 20.8597L25.204 62.5422C26.7564 62.0074 28.4486 62.8325 28.9834 64.3852L44.9959 58.8694C44.4611 57.317 45.2857 55.6251 46.8383 55.0903ZM15.4769 25.8004C15.1209 25.9231 14.7333 25.734 14.6106 25.378L13.6414 22.5645C13.5188 22.2085 13.7079 21.8209 14.0639 21.6982C14.4199 21.5756 14.8075 21.7647 14.9302 22.1206L15.8994 24.9342C16.022 25.2899 15.8329 25.6778 15.4769 25.8004ZM30.7007 43.3704C27.7211 44.3969 24.4735 42.8131 23.447 39.8333C22.4208 36.8537 24.004 33.6067 26.9836 32.5802C29.9635 31.5537 33.2106 33.1369 34.237 36.1165C35.2635 39.0966 33.6806 42.3439 30.7007 43.3704ZM43.6204 54.2527C43.2645 54.3753 42.8765 54.1862 42.7541 53.8302L41.785 51.0167C41.6623 50.6608 41.8514 50.2731 42.2074 50.1504C42.5634 50.0278 42.951 50.2169 43.0737 50.5729L44.0429 53.3864C44.1652 53.7421 43.9761 54.13 43.6204 54.2527Z" fill="#ADC7FF"/>
<path opacity="0.1" d="M47.9916 66.1172L37.4635 74.7844C36.2232 73.544 35.457 71.8318 35.457 69.9393C35.457 66.1569 38.5236 63.0903 42.3061 63.0903C44.673 63.0901 46.7618 64.2909 47.9916 66.1172Z" fill="black"/>
<path d="M69.9579 79.985H30.8244C29.3529 79.985 28.1602 78.7923 28.1602 77.3209V2.67932C28.1602 1.2079 29.3529 0.0151367 30.8244 0.0151367H69.9579C71.4293 0.0151367 72.6221 1.2079 72.6221 2.67932V77.3209C72.6221 78.7923 71.4293 79.985 69.9579 79.985Z" fill="#263238"/>
<path opacity="0.3" d="M69.9579 79.985H30.8244C29.3529 79.985 28.1602 78.7923 28.1602 77.3209V2.67932C28.1602 1.2079 29.3529 0.0151367 30.8244 0.0151367H69.9579C71.4293 0.0151367 72.6221 1.2079 72.6221 2.67932V77.3209C72.6221 78.7923 71.4293 79.985 69.9579 79.985Z" fill="white"/>
<path d="M71.1225 2.69333V77.1627C71.1225 77.7748 70.6283 78.2512 70.0162 78.2512H30.6488C30.0854 78.2512 29.6602 77.8157 29.6602 77.2523V2.60628C29.6602 2.11711 30.0189 1.69189 30.5053 1.69189H40.3476C40.6268 1.69189 40.8779 1.87127 40.9827 2.13491L41.3899 3.13634C41.4922 3.39747 41.7459 3.57434 42.0226 3.57434H58.7801C59.0568 3.57434 59.3101 3.40275 59.4128 3.14412L59.8199 2.13519C59.925 1.87405 60.1759 1.69217 60.4551 1.69217H70.1566C70.6922 1.69217 71.1225 2.15826 71.1225 2.69333Z" fill="#263238"/>
<path opacity="0.6" d="M50.3865 1.78991C50.3865 2.10428 50.1316 2.35911 49.8173 2.35911C49.5029 2.35911 49.248 2.10428 49.248 1.78991C49.248 1.47554 49.5029 1.2207 49.8173 1.2207C50.1316 1.2207 50.3865 1.47554 50.3865 1.78991Z" fill="white"/>
<path opacity="0.6" d="M51.538 1.79051C51.538 1.99193 51.3747 2.15523 51.1733 2.15523C50.9719 2.15523 50.8086 1.99193 50.8086 1.79051C50.8086 1.58909 50.9719 1.42578 51.1733 1.42578C51.3747 1.42578 51.538 1.58909 51.538 1.79051Z" fill="white"/>
<path d="M70.5248 6.45703H30.2598V74.7771H70.5248V6.45703Z" fill="#246AFF"/>
<path opacity="0.9" d="M70.5248 6.45703H30.2598V74.7771H70.5248V6.45703Z" fill="white"/>
<path d="M68.339 46.3451H32.4498C31.8444 46.3451 31.3535 45.8543 31.3535 45.2488V18.213C31.3535 17.6075 31.8444 17.1167 32.4498 17.1167H68.339C68.9444 17.1167 69.4352 17.6075 69.4352 18.213V45.2488C69.4352 45.8543 68.9444 46.3451 68.339 46.3451Z" fill="white"/>
<path d="M68.339 16.0755H32.4498C31.8444 16.0755 31.3535 15.5846 31.3535 14.9792V8.85603C31.3535 8.25061 31.8444 7.75977 32.4498 7.75977H68.339C68.9444 7.75977 69.4352 8.25061 69.4352 8.85603V14.9792C69.4352 15.5846 68.9444 16.0755 68.339 16.0755Z" fill="#246AFF"/>
<path d="M37.45 10.625L36.6989 12.8528H36.4505L35.7981 10.9529L35.1426 12.8528H34.8976L34.1465 10.625H34.3884L35.0314 12.5408L35.6966 10.625H35.916L36.5718 12.5503L37.2242 10.625H37.45Z" fill="black"/>
<path d="M36.7931 12.9855H36.3548L35.7967 11.3601L35.236 12.9855H34.8011L33.9609 10.4927H34.4824L35.0325 12.131L35.6009 10.4927H36.0097L36.5704 12.1385L37.1279 10.4927H37.6333L36.7931 12.9855Z" fill="white"/>
<path d="M38.9663 11.816V12.854H38.7499V12.5931C38.6481 12.765 38.4505 12.8701 38.1737 12.8701C37.7948 12.8701 37.5625 12.6726 37.5625 12.383C37.5625 12.1251 37.728 11.9087 38.2088 11.9087H38.7404V11.8069C38.7404 11.5203 38.5782 11.3642 38.2661 11.3642C38.0496 11.3642 37.8457 11.4407 37.7088 11.5618L37.607 11.3932C37.7756 11.2499 38.0243 11.167 38.2883 11.167C38.7209 11.1667 38.9663 11.3832 38.9663 11.816ZM38.7401 12.351V12.0773H38.2149C37.8902 12.0773 37.7851 12.2047 37.7851 12.3766C37.7851 12.5708 37.9411 12.6918 38.2085 12.6918C38.463 12.6918 38.6511 12.5708 38.7401 12.351Z" fill="black"/>
<path d="M38.1736 13.0023C37.7288 13.0023 37.4297 12.7533 37.4297 12.3827C37.4297 12.2002 37.5056 11.7757 38.2087 11.7757H38.6071C38.6009 11.6396 38.5475 11.4963 38.266 11.4963C38.0885 11.4963 37.9129 11.5578 37.7964 11.6605L37.6773 11.7656L37.435 11.3645L37.5209 11.2913C37.7137 11.1277 37.9933 11.0337 38.2882 11.0337C38.8035 11.0337 39.0989 11.3186 39.0989 11.8157V12.9864H38.6171V12.8985C38.4947 12.9664 38.3444 13.0023 38.1736 13.0023ZM38.2151 12.2094C37.9179 12.2094 37.9179 12.3179 37.9179 12.376C37.9179 12.5349 38.1002 12.5588 38.2087 12.5588C38.3425 12.5588 38.5177 12.5173 38.6079 12.3232V12.2094H38.2151Z" fill="white"/>
<path d="M39.5801 10.4912H39.8063V12.8537H39.5801V10.4912Z" fill="black"/>
<path d="M39.9386 10.3589H39.4473V12.9865H39.9386V10.3589Z" fill="white"/>
<path d="M40.4355 10.4912H40.6617V12.8537H40.4355V10.4912Z" fill="black"/>
<path d="M40.794 10.3589H40.3027V12.9865H40.794V10.3589Z" fill="white"/>
<path d="M42.7522 12.0863H41.3512C41.3768 12.4366 41.6441 12.6689 42.0103 12.6689C42.2139 12.6689 42.3956 12.5957 42.5227 12.4491L42.6501 12.5957C42.5005 12.774 42.2681 12.8695 42.0039 12.8695C41.4817 12.8695 41.125 12.5128 41.125 12.0162C41.125 11.5196 41.4719 11.166 41.9432 11.166C42.4142 11.166 42.755 11.5132 42.755 12.0162C42.7553 12.0354 42.7522 12.0607 42.7522 12.0863ZM41.3512 11.9174H42.5386C42.5099 11.5894 42.2712 11.3605 41.9432 11.3605C41.6188 11.3605 41.3798 11.5897 41.3512 11.9174Z" fill="black"/>
<path d="M42.0015 13.002C41.4156 13.002 40.9902 12.5875 40.9902 12.0163C40.9902 11.4468 41.3903 11.0337 41.9411 11.0337C42.4884 11.0337 42.8856 11.4468 42.8856 12.0163L42.8826 12.2191H41.5105C41.58 12.4158 41.7631 12.5365 42.0082 12.5365C42.179 12.5365 42.3217 12.4765 42.4205 12.3624L42.5206 12.2472L42.8225 12.5944L42.7496 12.6812C42.5755 12.8879 42.31 13.002 42.0015 13.002ZM41.5127 11.7848H42.3721C42.305 11.6057 42.1448 11.493 41.9409 11.493C41.7386 11.4927 41.5798 11.6057 41.5127 11.7848Z" fill="white"/>
<path d="M44.094 12.7508C44.005 12.8304 43.8712 12.8685 43.7407 12.8685C43.4255 12.8685 43.2505 12.6902 43.2505 12.3814V11.369H42.9512V11.1781H43.2505V10.812H43.4767V11.1781H43.9861V11.369H43.4767V12.3686C43.4767 12.5661 43.5785 12.6743 43.7663 12.6743C43.8587 12.6743 43.951 12.6459 44.0148 12.5883L44.094 12.7508Z" fill="black"/>
<path d="M43.7406 13.0021C43.3564 13.0021 43.1177 12.7645 43.1177 12.3825V11.5025H42.8184V11.0463H43.1177V10.6802H43.609V11.0463H44.1184V11.5025H43.609V12.3697C43.609 12.5133 43.6719 12.5427 43.7662 12.5427C43.8302 12.5427 43.89 12.5233 43.9259 12.4907L44.0564 12.3733L44.2572 12.7837L44.1821 12.8507C44.0745 12.947 43.9134 13.0021 43.7406 13.0021Z" fill="white"/>
<path d="M66.7576 10.8557H64.0111C63.8648 10.8557 63.7461 10.737 63.7461 10.5907C63.7461 10.4444 63.8648 10.3257 64.0111 10.3257H66.7576C66.9039 10.3257 67.0227 10.4444 67.0227 10.5907C67.0227 10.7373 66.9039 10.8557 66.7576 10.8557Z" fill="white"/>
<path d="M66.7576 13.5081H64.0111C63.8648 13.5081 63.7461 13.3893 63.7461 13.2431C63.7461 13.0968 63.8648 12.978 64.0111 12.978H66.7576C66.9039 12.978 67.0227 13.0968 67.0227 13.2431C67.0227 13.3893 66.9039 13.5081 66.7576 13.5081Z" fill="white"/>
<path d="M66.7576 12.1819H64.0111C63.8648 12.1819 63.7461 12.0632 63.7461 11.9169C63.7461 11.7706 63.8648 11.6519 64.0111 11.6519H66.7576C66.9039 11.6519 67.0227 11.7706 67.0227 11.9169C67.0227 12.0632 66.9039 12.1819 66.7576 12.1819Z" fill="white"/>
<g opacity="0.3">
<path d="M46.4346 34.5622H34.7252C34.3592 34.5622 34.0625 34.2655 34.0625 33.8995C34.0625 33.5335 34.3592 33.2368 34.7252 33.2368H46.4346C46.8006 33.2368 47.0974 33.5335 47.0974 33.8995C47.0974 34.2655 46.8006 34.5622 46.4346 34.5622Z" fill="black"/>
<path d="M51.4738 38.2746H34.7252C34.3592 38.2746 34.0625 37.9779 34.0625 37.6119C34.0625 37.2459 34.3592 36.9492 34.7252 36.9492H51.4738C51.8398 36.9492 52.1365 37.2459 52.1365 37.6119C52.1365 37.9779 51.8398 38.2746 51.4738 38.2746Z" fill="black"/>
<path d="M66.0629 38.2746H61.5143C61.1483 38.2746 60.8516 37.9779 60.8516 37.6119C60.8516 37.2459 61.1483 36.9492 61.5143 36.9492H66.0629C66.4289 36.9492 66.7256 37.2459 66.7256 37.6119C66.7256 37.9779 66.4289 38.2746 66.0629 38.2746Z" fill="black"/>
<path d="M42.4564 40.928H34.7252C34.3592 40.928 34.0625 40.6312 34.0625 40.2652C34.0625 39.8993 34.3592 39.6025 34.7252 39.6025H42.4564C42.8224 39.6025 43.1191 39.8993 43.1191 40.2652C43.1191 40.6312 42.8224 40.928 42.4564 40.928Z" fill="black"/>
<path d="M66.0598 40.928H59.6549C59.2889 40.928 58.9922 40.6312 58.9922 40.2652C58.9922 39.8993 59.2889 39.6025 59.6549 39.6025H66.0598C66.4258 39.6025 66.7226 39.8993 66.7226 40.2652C66.7226 40.6312 66.4258 40.928 66.0598 40.928Z" fill="black"/>
<path d="M49.8825 43.5788H34.7252C34.3592 43.5788 34.0625 43.2821 34.0625 42.9161C34.0625 42.5501 34.3592 42.2534 34.7252 42.2534H49.8825C50.2485 42.2534 50.5452 42.5501 50.5452 42.9161C50.5452 43.2821 50.2485 43.5788 49.8825 43.5788Z" fill="black"/>
<path d="M66.0622 43.5788H62.3092C61.9432 43.5788 61.6465 43.2821 61.6465 42.9161C61.6465 42.5501 61.9432 42.2534 62.3092 42.2534H66.0622C66.4281 42.2534 66.7249 42.5501 66.7249 42.9161C66.7249 43.2821 66.4281 43.5788 66.0622 43.5788Z" fill="black"/>
</g>
<path d="M55.2128 29.9124C58.1108 27.0143 58.1108 22.3157 55.2128 19.4177C52.3147 16.5197 47.6161 16.5197 44.7181 19.4177C41.82 22.3157 41.82 27.0143 44.7181 29.9124C47.6161 32.8104 52.3147 32.8104 55.2128 29.9124Z" fill="#A8D29F"/>
<path d="M51.3467 26.5193C50.2146 26.5193 49.316 25.4988 49.523 24.3292C49.6827 23.4266 50.538 22.8118 51.4544 22.8118H53.5038C53.5278 22.8118 53.5474 22.7921 53.5474 22.7681V21.6705C53.5474 21.4148 53.3401 21.207 53.0839 21.207H46.4244C46.1687 21.207 45.9609 21.4144 45.9609 21.6705V27.6609C45.9609 27.9167 46.1683 28.1244 46.4244 28.1244H53.0839C53.3397 28.1244 53.5474 27.9171 53.5474 27.6609V26.5633C53.5474 26.5393 53.5278 26.5197 53.5038 26.5197L51.3467 26.5193Z" fill="white"/>
<path d="M53.5161 23.4072H51.3456C50.6511 23.4072 50.0879 23.9704 50.0879 24.6649C50.0879 25.3594 50.6511 25.9226 51.3456 25.9226H53.5161C53.7718 25.9226 53.9788 25.7152 53.9788 25.4598V23.8703C53.9788 23.6142 53.7715 23.4072 53.5161 23.4072ZM51.4242 25.1364C51.1637 25.1364 50.9527 24.9254 50.9527 24.6649C50.9527 24.4044 51.1637 24.1934 51.4242 24.1934C51.6846 24.1934 51.8957 24.4044 51.8957 24.6649C51.8957 24.9254 51.6846 25.1364 51.4242 25.1364Z" fill="white"/>
<path opacity="0.6" d="M34.2339 4.69189H34.7461V4.00891H34.2339V4.69189Z" fill="white"/>
<path opacity="0.6" d="M33.3997 4.69189H33.9121V3.78106H33.3997V4.69189Z" fill="white"/>
<path opacity="0.6" d="M32.5637 4.69189H33.0762V3.55321H32.5637V4.69189Z" fill="white"/>
<path opacity="0.6" d="M31.7297 4.69189H32.2422V3.32536H31.7297V4.69189Z" fill="white"/>
<path opacity="0.6" d="M66.4324 3.75977H66.1289V4.44275H66.4324V3.75977Z" fill="white"/>
<path opacity="0.6" d="M66.6393 4.69189H69.0586V3.51037H66.6393V4.69189Z" fill="white"/>
</svg>
