<svg width="80" height="80" viewBox="0 0 80 80" fill="none" xmlns="http://www.w3.org/2000/svg">
<path d="M61.5205 66.5536C52.7796 66.8763 42.9335 59.93 39.5521 51.0338C38.9281 49.3838 38.5647 47.784 38.4509 46.2602C38.1982 42.9967 39.0757 40.1251 40.8787 38.0039L43.3979 35.0381C41.5949 37.1597 40.7173 40.0309 40.9712 43.3001C41.0895 44.8174 41.4472 46.4184 42.0725 48.0737C45.4539 56.9698 55.2988 63.9109 64.0449 63.587C67.7305 63.4458 70.6419 62.056 72.535 59.8298L70.0159 62.7956C68.1232 65.0218 65.2113 66.4111 61.5205 66.5536Z" fill="white" stroke="#ADC7FF" stroke-width="2.5" stroke-miterlimit="10" stroke-linecap="round" stroke-linejoin="round"/>
<path d="M40.9715 43.3008L38.4512 46.2609" stroke="#ADC7FF" stroke-width="2.5" stroke-miterlimit="10" stroke-linecap="round" stroke-linejoin="round"/>
<path d="M49.7974 58.3491L47.2598 61.3" stroke="#ADC7FF" stroke-width="2.5" stroke-miterlimit="10" stroke-linecap="round" stroke-linejoin="round"/>
<path d="M43.9489 51.834L41.3613 54.6859" stroke="#ADC7FF" stroke-width="2.5" stroke-miterlimit="10" stroke-linecap="round" stroke-linejoin="round"/>
<path d="M57.9794 63.0923L55.5781 65.739" stroke="#ADC7FF" stroke-width="2.5" stroke-miterlimit="10" stroke-linecap="round" stroke-linejoin="round"/>
<path d="M65.017 63.5195L62.291 66.505" stroke="#ADC7FF" stroke-width="2.5" stroke-miterlimit="10" stroke-linecap="round" stroke-linejoin="round"/>
<path d="M64.0408 63.5845C55.2964 63.9109 45.4547 56.9674 42.0713 48.0708C41.4448 46.42 41.0855 44.8182 40.966 43.2997C40.4522 36.6181 44.6673 31.5798 51.8216 31.2913C60.6224 30.9441 70.4677 37.8847 73.8576 46.8215C74.4808 48.4688 74.8409 50.0649 74.9576 51.5802C75.4738 58.271 71.2426 63.3178 64.0408 63.5845Z" fill="white" stroke="#ADC7FF" stroke-width="2.5" stroke-miterlimit="10" stroke-linecap="round" stroke-linejoin="round"/>
<path d="M63.0523 60.9603C55.7342 61.2314 47.4883 55.4166 44.6597 47.9669C44.135 46.5836 43.8325 45.2405 43.7347 43.9695C43.3034 38.3735 46.834 34.1584 52.8215 33.9202C60.1891 33.6285 68.4387 39.4409 71.2733 46.9208C71.7968 48.2997 72.0985 49.6383 72.1963 50.9069C72.6276 56.5066 69.082 60.7341 63.0523 60.9603Z" stroke="#ADC7FF" stroke-width="2.5" stroke-miterlimit="10" stroke-linecap="round" stroke-linejoin="round"/>
<path d="M56.626 40.4282C57.2342 40.4418 57.8517 40.53 58.4785 40.6948C59.1006 40.8582 59.7149 41.1009 60.3223 41.4253H60.3232C60.8046 41.682 61.2455 41.9887 61.6494 42.3433L60.5537 44.186C60.369 44.0357 60.1803 43.9016 59.9863 43.7876L59.7217 43.6431C59.4563 43.5074 59.1885 43.3993 58.918 43.3218H58.917C58.5633 43.2207 58.2171 43.167 57.8809 43.1655C57.5623 43.1638 57.2595 43.195 56.9775 43.2661C56.4504 43.3987 56.0067 43.6513 55.7021 44.0532C55.4182 44.428 55.2599 44.8727 55.2139 45.3677L55.1484 46.0718L55.834 45.8989L57.1982 45.5552L58.3242 46.6724L56.0625 47.2417L55.4727 47.3901L55.7324 47.9409C55.7911 48.0652 55.8593 48.198 55.9365 48.3403V48.3413C56.0141 48.485 56.1212 48.6726 56.2549 48.8999L56.4453 49.2222L56.8076 49.1304L59.4766 48.4585L60.6016 49.5767L58.2881 50.1597L57.3271 50.4019L58.0918 51.0308C58.6302 51.4735 59.2128 51.8128 59.8379 52.0464V52.0474C60.5008 52.294 61.1776 52.3348 61.8545 52.1646C62.1321 52.0947 62.3986 51.9896 62.6533 51.8511L62.6553 51.8501C62.9357 51.6959 63.1741 51.4882 63.3682 51.2319C63.5748 50.9598 63.705 50.6397 63.7686 50.2876C63.7888 50.1769 63.7976 50.0625 63.8008 49.9458L66.6875 51.104C66.745 51.8552 66.6188 52.5121 66.3164 53.0903L66.1582 53.3618C65.7101 54.0526 64.9614 54.5589 63.8398 54.8413C63.1849 55.006 62.5247 55.0576 61.8564 54.9966L61.5693 54.9634C60.8855 54.8686 60.2087 54.6867 59.5391 54.4155L59.2529 54.2935L58.9658 54.1616C58.2999 53.8427 57.6572 53.451 57.0381 52.9868C56.3247 52.4524 55.6771 51.8686 55.0947 51.2339L54.8936 51.0142L54.6045 51.0864L54.1016 51.2114L52.9766 50.0942L53.3184 50.0083L53.9658 49.8452L53.627 49.27C53.5203 49.0892 53.43 48.9319 53.3574 48.7974L53.3564 48.7964L53.1426 48.3823L52.9639 48.022L52.5723 48.1196L52.3174 48.1831L51.1934 47.0669L52.0449 46.853L52.5215 46.7329L52.4092 46.2544C52.2505 45.5754 52.1877 44.921 52.2168 44.2905V44.2896C52.2416 43.7395 52.3373 43.2401 52.502 42.7886L52.5771 42.5972C52.7829 42.1058 53.0849 41.688 53.4863 41.3394C53.8786 40.999 54.3755 40.7454 54.9922 40.5903C55.4695 40.4701 56.0126 40.4146 56.626 40.4282Z" fill="#9ABAE3" stroke="#ADC7FF"/>
<path d="M54.1048 49.1332C59.2892 36.2325 53.034 21.5716 40.1333 16.3871C27.2326 11.2027 12.5718 17.4579 7.38729 30.3586C2.20283 43.2592 8.45806 57.9201 21.3587 63.1046C34.2594 68.289 48.9203 62.0338 54.1048 49.1332Z" fill="white" stroke="#ADC7FF" stroke-width="2.5" stroke-miterlimit="10" stroke-linecap="round" stroke-linejoin="round"/>
<path d="M50.3214 47.6711C54.6902 36.8518 49.461 24.5393 38.6416 20.1705C27.8222 15.8016 15.5098 21.0308 11.1409 31.8502C6.7721 42.6696 12.0013 54.9821 22.8207 59.3509C33.6401 63.7197 45.9526 58.4905 50.3214 47.6711Z" stroke="#ADC7FF" stroke-width="2.5" stroke-miterlimit="10" stroke-linecap="round" stroke-linejoin="round"/>
<path d="M31.7803 28.2607C33.8585 28.2608 35.6531 28.6633 37.1787 29.4502L37.4805 29.6123C38.9392 30.4346 40.0447 31.4906 40.8145 32.7773L36.7139 35.6953C36.5491 35.3809 36.3591 35.0947 36.1387 34.8408L35.9844 34.6738C35.5817 34.2584 35.1313 33.9239 34.6338 33.6758H34.6328C34.1488 33.4337 33.6445 33.2626 33.1211 33.165H33.1191C32.6151 33.0724 32.1237 33.0244 31.6465 33.0244C30.483 33.0245 29.4709 33.2869 28.6387 33.8408H28.6377C27.8448 34.3701 27.2124 35.0372 26.75 35.8389L26.3174 36.5879H32.4404L31.5088 38.9199H25.7842V39.4199C25.7842 39.7783 25.7899 40.0711 25.8018 40.2949C25.8129 40.5175 25.8314 40.7236 25.8555 40.9141L25.9102 41.3516H31.5078L30.5762 43.6816H26.7441L27.4336 44.5029C27.9435 45.1108 28.5536 45.5924 29.2588 45.9453C29.983 46.3071 30.8061 46.4814 31.7148 46.4814C32.1955 46.4814 32.6858 46.4263 33.1836 46.3193C33.569 46.237 33.9436 46.1135 34.3066 45.9492L34.666 45.7715C35.1466 45.5122 35.5783 45.1801 35.959 44.7754V44.7744C36.2258 44.4898 36.4501 44.1635 36.6367 43.8008L41.0645 46.4473C40.7443 47.0907 40.3082 47.6813 39.7461 48.2168H39.7451C39.0605 48.8707 38.2796 49.4197 37.4004 49.8652C36.5165 50.3128 35.5661 50.6544 34.5488 50.8896C33.5267 51.1258 32.5387 51.2432 31.5801 51.2432C30.3434 51.2431 29.1822 51.056 28.0938 50.6865C26.9971 50.3142 26.0057 49.7994 25.1162 49.1426H25.1152C24.2199 48.483 23.4318 47.7092 22.75 46.8242L22.5 46.4893C21.9321 45.7017 21.4724 44.8705 21.1191 43.9951L20.9932 43.6816H18.1631L19.0947 41.3516H20.3086L20.2529 40.8008C20.2314 40.5873 20.2152 40.374 20.2051 40.1611V40.1582L20.1934 39.8164C20.1908 39.6934 20.1895 39.5609 20.1895 39.4189V38.9189H18.1621L19.0947 36.5879H20.5869L20.6982 36.2402C21.0386 35.1768 21.5339 34.1593 22.1865 33.1855V33.1846C22.8329 32.2196 23.6234 31.3697 24.5605 30.6357H24.5615C25.3756 29.9971 26.2948 29.4733 27.3203 29.0664L27.7666 28.8994C28.9601 28.4767 30.2963 28.2607 31.7803 28.2607Z" fill="#9ABAE3" stroke="#ADC7FF"/>
</svg>
