<svg width="64" height="64" viewBox="0 0 64 64" fill="none" xmlns="http://www.w3.org/2000/svg">
<rect width="64" height="64" rx="32" fill="#FFA500"/>
<path fill-rule="evenodd" clip-rule="evenodd" d="M33.4736 49.4942C33.3981 49.5546 33.3587 49.603 33.3398 49.6309C33.3519 49.6492 33.3742 49.6785 33.415 49.7169C33.5304 49.8251 33.7371 49.9578 34.0547 50.0841C34.6868 50.3353 35.6124 50.5059 36.6709 50.5059C37.7292 50.5059 38.6532 50.335 39.2852 50.0841C39.6032 49.9577 39.8105 49.8251 39.9258 49.7169C39.9652 49.6798 39.9867 49.6512 39.999 49.6329C39.9911 49.6209 39.9811 49.602 39.9619 49.5811L41.0518 48.5636C41.3011 48.8332 41.4989 49.1957 41.499 49.6319C41.4987 50.1302 41.2414 50.5276 40.9424 50.8087C40.6445 51.0884 40.2535 51.3056 39.833 51.4727C38.9869 51.8088 37.8683 52 36.6709 52.0001C35.4731 52.0001 34.354 51.809 33.5078 51.4727C33.0871 51.3055 32.6963 51.0875 32.3984 50.8077C32.1369 50.5619 31.907 50.2273 31.8535 49.8136L31.8418 49.6319L31.8457 49.5245C31.8847 48.999 32.2074 48.5973 32.5479 48.3253L33.4736 49.4942ZM43.9746 49.4942C43.8991 49.5546 43.8606 49.603 43.8418 49.6309C43.8539 49.6493 43.8755 49.6788 43.916 49.7169C44.0314 49.8251 44.2389 49.9577 44.5566 50.0841C45.1887 50.3352 46.1136 50.5059 47.1719 50.5059C48.2302 50.5059 49.1542 50.335 49.7861 50.0841C50.1042 49.9577 50.3115 49.8251 50.4268 49.7169C50.4662 49.6798 50.4877 49.6513 50.5 49.6329C50.4921 49.6209 50.4821 49.602 50.4629 49.5811L51.5527 48.5636C51.8021 48.8332 51.9999 49.1957 52 49.6319C51.9997 50.13 51.7433 50.5277 51.4443 50.8087C51.1464 51.0885 50.7547 51.3056 50.334 51.4727C49.4878 51.8088 48.3693 52 47.1719 52.0001C45.9741 52.0001 44.855 51.809 44.0088 51.4727C43.5881 51.3055 43.1973 51.0874 42.8994 50.8077C42.6379 50.5619 42.4079 50.2273 42.3545 49.8136L42.3428 49.6319L42.3467 49.5245C42.3857 48.9991 42.7084 48.5973 43.0488 48.3253L43.9746 49.4942ZM29.7715 13.003C30.1808 12.9694 30.5405 13.2756 30.5742 13.6866C30.6074 14.0977 30.302 14.4577 29.8926 14.4913L29.8936 14.4923H29.9014C29.8982 14.4926 29.8898 14.4933 29.8779 14.4952C29.8525 14.4993 29.8098 14.5071 29.7559 14.5216C29.6454 14.5512 29.497 14.605 29.3477 14.6973C29.0746 14.8663 28.7435 15.1928 28.667 15.9161C28.6337 16.2317 28.7101 16.3154 28.7422 16.3507C28.8252 16.4417 28.9659 16.5194 29.2969 16.6739C29.5741 16.8033 30.0075 16.9981 30.3535 17.3477C30.7351 17.7335 30.9666 18.2543 30.9902 18.9464C31.0223 19.8891 30.7876 20.6394 30.4795 21.2081C36.291 21.2939 41.3111 24.6293 43.6299 29.4376C46.4291 29.7418 48.5008 32.3825 48.501 35.4298C48.5009 36.9322 48.0055 38.3167 47.1748 39.38C46.9213 39.7044 46.4541 39.7612 46.1309 39.5069C45.8079 39.2522 45.7515 38.7826 46.0049 38.4581C46.6268 37.6619 47.0127 36.6028 47.0127 35.4298C47.0126 33.3684 45.8448 31.7179 44.3135 31.1329C44.7578 32.4877 44.999 33.9311 44.999 35.4307C44.999 36.6021 44.8516 37.7417 44.5742 38.8321C44.4725 39.2317 44.0678 39.473 43.6699 39.3712C43.272 39.2691 43.0315 38.8626 43.1328 38.463C43.3798 37.4922 43.5107 36.4761 43.5107 35.4307C43.5107 33.7487 43.1688 32.1405 42.5488 30.6671C42.4352 30.546 42.3597 30.3881 42.3467 30.212C40.2749 25.7934 35.6535 22.6993 30.25 22.6993C22.8961 22.6993 16.9894 28.4291 16.9893 35.4307C16.9893 42.4325 22.8961 48.1622 30.25 48.1622C30.6608 48.1623 30.9941 48.4977 30.9941 48.9102C30.9938 49.3226 30.6607 49.6572 30.25 49.6573C24.34 49.6573 19.2167 46.2943 16.8682 41.421C14.0704 41.1151 12.0001 38.4752 12 35.4298C12.0002 32.384 14.0709 29.7429 16.8691 29.4376C18.9793 25.0617 23.3273 21.9049 28.4727 21.3077C28.476 21.3054 28.4808 21.3031 28.4854 21.2999C28.5094 21.2828 28.5496 21.2536 28.5996 21.211C28.7006 21.1249 28.8403 20.9882 28.9795 20.7999C29.2527 20.4298 29.5329 19.8463 29.5039 18.9962C29.4918 18.6443 29.3898 18.4945 29.2979 18.4014C29.1702 18.2724 28.9891 18.1784 28.6699 18.0294C28.4047 17.9055 27.9657 17.7129 27.6445 17.3604C27.2721 16.9515 27.119 16.4156 27.1885 15.7579C27.3183 14.5319 27.9399 13.8131 28.5674 13.4249C28.8682 13.2388 29.1587 13.1356 29.373 13.0782C29.4805 13.0494 29.5715 13.0307 29.6396 13.0196C29.6737 13.0141 29.7035 13.0105 29.7256 13.0079C29.7364 13.0066 29.7462 13.0048 29.7539 13.004C29.7574 13.0036 29.7609 13.0033 29.7637 13.003H29.7715ZM43.9746 45.9796C43.8994 46.0397 43.8606 46.0873 43.8418 46.1153C43.8538 46.1336 43.8752 46.1639 43.916 46.2022C44.0314 46.3104 44.2391 46.4422 44.5566 46.5684C45.1887 46.8196 46.1135 46.9913 47.1719 46.9913C48.2303 46.9912 49.1542 46.8194 49.7861 46.5684C50.104 46.4422 50.3115 46.3105 50.4268 46.2022C50.4664 46.1649 50.4877 46.1356 50.5 46.1173C50.492 46.1052 50.4822 46.0864 50.4629 46.0655L51.5527 45.0479C51.8022 45.3176 51.9999 45.6799 52 46.1163C51.9998 46.6145 51.7433 47.012 51.4443 47.293C51.1464 47.5729 50.7547 47.7909 50.334 47.9581C49.4878 48.2942 48.3693 48.4854 47.1719 48.4854C45.9741 48.4854 44.855 48.2944 44.0088 47.9581C43.588 47.7908 43.1973 47.5719 42.8994 47.2921C42.6379 47.0463 42.4079 46.7116 42.3545 46.2979L42.3428 46.1163L42.3467 46.0089C42.3859 45.4835 42.7084 45.0816 43.0488 44.8096L43.9746 45.9796ZM36.085 37.6134C36.4958 37.6134 36.8291 37.9478 36.8291 38.3604C36.8291 40.705 35.612 42.7619 33.7793 43.9346C34.5893 43.6397 35.5993 43.4737 36.6709 43.4737C37.8746 43.4738 39.0006 43.6822 39.8525 44.0489C40.2767 44.2315 40.6672 44.469 40.9629 44.7696C41.2618 45.0738 41.4989 45.4843 41.499 45.9796C41.4989 46.4747 41.2618 46.8844 40.9629 47.1886C40.6672 47.4892 40.2768 47.7266 39.8525 47.9093C39.0006 48.276 37.8747 48.4844 36.6709 48.4845C35.4669 48.4845 34.3404 48.276 33.4883 47.9093C33.0639 47.7265 32.6727 47.4894 32.377 47.1886C32.0781 46.8844 31.8419 46.4746 31.8418 45.9796C31.8419 45.4844 32.078 45.0738 32.377 44.7696C32.4751 44.6697 32.5842 44.5774 32.7012 44.4913C31.9436 44.797 31.1173 44.9678 30.251 44.9678C26.6178 44.9678 23.671 42.0092 23.6709 38.3604C23.6709 37.9478 24.0042 37.6134 24.415 37.6134C24.8258 37.6134 25.1591 37.9479 25.1592 38.3604C25.1593 41.1839 27.4395 43.4727 30.251 43.4727C33.0622 43.4723 35.3407 41.1843 35.3408 38.3604C35.3409 37.948 35.6744 37.6137 36.085 37.6134ZM36.6709 44.9678C35.6193 44.9678 34.7015 45.1535 34.0752 45.4229C33.7614 45.558 33.5541 45.7 33.4365 45.8194C33.38 45.8769 33.3521 45.9216 33.3398 45.9473C33.3302 45.9677 33.3292 45.9776 33.3291 45.9796C33.3292 45.9816 33.3306 45.9911 33.3398 46.0108C33.3521 46.0365 33.3799 46.0811 33.4365 46.1387C33.554 46.2582 33.7613 46.4001 34.0752 46.5352C34.7015 46.8047 35.6192 46.9903 36.6709 46.9903C37.7225 46.9902 38.6395 46.8047 39.2656 46.5352C39.5797 46.4 39.7868 46.2582 39.9043 46.1387C39.9609 46.0811 39.9878 46.0365 40 46.0108C40.0094 45.991 40.0107 45.9817 40.0107 45.9796C40.0107 45.9777 40.0098 45.9679 40 45.9473C39.9877 45.9216 39.9608 45.8769 39.9043 45.8194C39.7867 45.6999 39.5796 45.5581 39.2656 45.4229C38.6395 45.1535 37.7225 44.9679 36.6709 44.9678ZM47.1719 39.9591C48.3757 39.9591 49.5015 40.1666 50.3535 40.5333C50.7779 40.716 51.1681 40.9542 51.4639 41.255C51.7628 41.5592 51.9999 41.9687 52 42.4639C52 42.9593 51.7628 43.3687 51.4639 43.6729C51.1681 43.9738 50.7779 44.2119 50.3535 44.3946C49.5015 44.7613 48.3757 44.9688 47.1719 44.9688C45.9679 44.9688 44.8414 44.7614 43.9893 44.3946C43.5648 44.2119 43.1737 43.9738 42.8779 43.6729C42.5792 43.3687 42.3428 42.9591 42.3428 42.4639C42.3429 41.9689 42.5792 41.5591 42.8779 41.255C43.1737 40.9541 43.5648 40.716 43.9893 40.5333C44.8414 40.1666 45.9679 39.9591 47.1719 39.9591ZM47.1719 41.4532C46.1202 41.4532 45.2024 41.6379 44.5762 41.9073C44.2621 42.0425 44.055 42.1853 43.9375 42.3048C43.8812 42.3621 43.8541 42.4059 43.8418 42.4317C43.832 42.4523 43.8311 42.462 43.8311 42.4639C43.8311 42.464 43.8309 42.4732 43.8418 42.4962C43.8541 42.5219 43.8811 42.5657 43.9375 42.6231C44.055 42.7427 44.262 42.8853 44.5762 43.0206C45.2024 43.29 46.1201 43.4747 47.1719 43.4747C48.2234 43.4746 49.1404 43.29 49.7666 43.0206C50.0807 42.8853 50.2878 42.7426 50.4053 42.6231C50.4616 42.5657 50.4887 42.5219 50.501 42.4962C50.5119 42.4731 50.5117 42.464 50.5117 42.4639C50.5117 42.4621 50.5108 42.4524 50.501 42.4317C50.4886 42.4059 50.4615 42.362 50.4053 42.3048C50.2877 42.1853 50.0806 42.0425 49.7666 41.9073C49.1404 41.6379 48.2233 41.4533 47.1719 41.4532ZM16.1855 31.1329C14.6551 31.7186 13.4884 33.3697 13.4883 35.4298C13.4883 37.4894 14.6547 39.1395 16.1846 39.7257C15.741 38.3719 15.501 36.9291 15.501 35.4307C15.501 33.9312 15.7413 32.4876 16.1855 31.1329ZM24.415 30.5811C26.1149 30.5814 27.493 31.9647 27.4932 33.672C27.4931 34.0845 27.1599 34.419 26.749 34.419C26.3383 34.4189 26.005 34.0845 26.0049 33.672C26.0047 32.7901 25.2932 32.0755 24.415 32.0753C23.537 32.0755 22.8254 32.7906 22.8252 33.672C22.8251 34.0845 22.4918 34.4189 22.0811 34.419C21.6702 34.419 21.337 34.0845 21.3369 33.672C21.3371 31.9656 22.715 30.5814 24.415 30.5811ZM34.9199 30.5811C36.6198 30.5814 37.9978 31.9647 37.998 33.672C37.998 34.0845 37.6647 34.419 37.2539 34.419C36.8432 34.4189 36.5098 34.0845 36.5098 33.672C36.5096 32.7901 35.7981 32.0755 34.9199 32.0753C34.0419 32.0755 33.3303 32.7906 33.3301 33.672C33.33 34.0845 32.9967 34.4189 32.5859 34.419C32.1751 34.419 31.8419 34.0845 31.8418 33.672C31.842 31.9656 33.2199 30.5814 34.9199 30.5811Z" fill="white"/>
</svg>
