<svg width="80" height="80" viewBox="0 0 80 80" fill="none" xmlns="http://www.w3.org/2000/svg">
<path d="M45.3163 14.589C45.0853 13.0537 45.0049 11.2371 43.6843 10.2664C41.6378 8.76255 38.6003 9.86327 36.3622 10.2471C34.3617 10.5901 34.143 12.8618 33.9184 14.5208C33.7668 15.641 33.8193 16.9545 33.4775 18.033C33.13 19.1304 32.3625 19.9958 32.0904 21.1543C31.533 23.5281 32.1164 26.1806 33.6191 28.1004C35.3096 30.2601 37.9332 31.5052 40.6147 31.8689C42.0743 32.0667 43.3233 32.1269 44.7823 32.4311C46.3623 32.7606 48.009 32.8201 49.5895 32.4605C51.9361 31.9268 54.1157 30.3902 55.0802 28.1852C56.0445 25.9804 55.5866 23.1349 53.7454 21.5855C52.3189 20.385 50.3647 20.0882 48.6475 19.362C46.6464 18.5156 45.8018 17.1372 45.4053 15.1128C45.3721 14.9432 45.3433 14.7682 45.3163 14.589Z" fill="#0F429F"/>
<path d="M53.7256 51.5637C54.6473 51.0299 54.6446 49.4402 54.6446 49.4402C54.2367 47.2015 53.823 44.9341 53.1821 42.7488C52.6946 41.0861 52.0337 39.6509 51.6496 37.9148C51.1194 35.5176 50.5889 33.1204 50.0587 30.7233C49.7161 29.1746 49.7562 28.1506 48.3655 27.2676C46.8155 26.2835 44.6827 25.9803 42.9004 26.2567C45.2507 28.6601 45.3618 32.5267 46.0694 35.636C46.533 37.6739 47.0668 39.6986 47.7053 41.689C48.3206 43.6071 49.2854 45.3582 49.9648 47.2295L51.2278 50.7099C51.2278 50.7099 51.3058 50.9165 51.4431 51.1647C51.6581 51.6193 52.8036 52.0975 53.7256 51.5637Z" fill="#3D74E7"/>
<path d="M48.5551 6.06408L48.457 6C48.519 6.05081 48.5551 6.06408 48.5551 6.06408Z" fill="#E2B4BD"/>
<path d="M39.6246 62.8258C39.1744 62.7732 38.7228 62.7176 38.272 62.678C38.6459 62.7107 38.936 60.4703 38.9183 60.1966C38.8713 59.4654 38.5229 58.7033 38.3769 57.9674C37.9927 56.0293 37.6801 54.0782 37.3262 52.1345L44.5036 50.5825L45.8728 52.2485C48.7519 53.2317 51.6217 54.2436 54.4835 55.2753C56.765 56.0977 59.0423 56.933 61.3024 57.8127C62.1055 58.1252 63.4764 58.3956 63.9718 59.1554C64.5037 59.9714 64.4262 61.6857 64.3675 62.5911C64.2976 63.6684 63.9521 64.7633 63.206 65.5434C61.8444 66.967 60.4312 66.5056 58.8217 66.1074C56.9612 65.6473 54.9503 65.5169 53.0554 65.218C50.8911 64.8765 48.7276 64.5304 46.5654 64.1752C46.5654 64.1752 43.4674 63.1997 43.4593 63.197C42.6257 62.9345 41.7765 63.0083 40.9203 62.9525C40.4906 62.9243 40.058 62.8764 39.6246 62.8258Z" fill="#1C52C4"/>
<path d="M38.7378 62.63C38.9875 62.5808 39.2392 62.5358 39.4963 62.4979C39.5758 61.5933 39.6915 60.729 39.858 59.8373C40.0249 58.9433 40.3874 57.9048 40.3874 56.9978C40.6825 55.4162 40.9778 53.8344 41.2729 52.2528L34.1021 50.6699L32.7258 52.3299C29.8654 53.2929 27.0143 54.2844 24.1705 55.2955C20.256 56.6872 13.918 57.5816 14.3168 63.0339C14.3937 64.0865 14.8342 65.5209 15.6732 66.2332C16.4029 66.8526 17.0011 66.5517 17.8758 66.3989C19.9715 66.0327 22.0949 65.7855 24.1984 65.4655C26.7943 65.0707 29.3893 64.6682 31.982 64.2537C31.982 64.2537 35.073 63.295 35.0923 63.289C35.8537 63.0528 36.6384 63.0905 37.404 62.9197C37.8515 62.8197 38.2909 62.7181 38.7378 62.63Z" fill="#1C52C4"/>
<path d="M41.4191 27.2123L40.9857 27.7598C40.0857 28.9045 38.5616 28.8153 37.7529 27.5752L37.166 26.6711C37.2697 25.3004 37.3941 23.9566 37.4791 23.0753C37.5393 22.4491 37.5808 22.0571 37.5808 22.0571L39.2915 22.2583L40.797 22.0571C40.797 22.0571 41.0168 23.4548 41.2097 25.0992C41.2906 25.7877 41.3673 26.5218 41.4191 27.2123Z" fill="#FFB27D"/>
<path d="M41.2091 25.0992C40.2697 25.1179 39.3199 24.8276 38.5651 24.2677C38.1296 23.9463 37.7626 23.5357 37.4785 23.0753C37.5387 22.4491 37.5801 22.0571 37.5801 22.0571L39.2909 22.2583L40.7964 22.0571C40.7964 22.0571 41.0162 23.4548 41.2091 25.0992Z" fill="#EE9558"/>
<path d="M35.2167 26.3838L36.8978 26.3574L43.5174 26.3838C43.5174 26.3838 46.4328 27.9861 45.7236 30.1927C45.0146 32.3993 37.7065 34.5664 37.7065 34.5664L34.2186 32.8719C34.2186 32.8719 33.5094 31.9263 33.3912 31.1777C33.273 30.4291 33.0366 29.9957 33.273 29.4833C33.5094 28.9711 33.9476 26.9673 33.9476 26.9673L35.2167 26.3838Z" fill="#3D74E7"/>
<path d="M33.48 12.5566C33.48 12.5566 32.8098 14.1758 33.6407 15.0069C34.4719 15.8381 34.8043 17.8325 34.8043 17.8325C34.8043 17.8325 36.6326 13.0124 36.6326 12.8461C36.6326 12.68 33.48 12.5566 33.48 12.5566Z" fill="#0F429F"/>
<path d="M44.0611 17.0264C43.727 16.9604 43.4195 17.0513 43.182 17.2304V12.5922L37.5611 11.0771L34.3223 11.7492L34.9276 15.5227C35.3174 17.9228 34.8019 20.9241 37.1926 22.4234C38.256 23.0903 40.193 23.3986 41.2869 22.5905C42.2298 21.8942 42.7067 20.382 43.1818 19.3448C43.1818 19.3448 43.2639 19.2284 43.5134 19.2284C44.1915 19.2284 44.7292 18.6886 44.5996 17.9871C44.5191 17.5508 44.4959 17.112 44.0611 17.0264Z" fill="#FFB27D"/>
<path d="M43.6466 17.5576C43.6466 17.5576 43.1811 18.3334 43.4915 18.7989C43.8019 19.2645 43.957 18.4885 43.8019 18.3334C43.6468 18.1783 43.6468 18.3334 43.957 18.1783C44.2675 18.023 43.6466 17.5576 43.6466 17.5576Z" fill="#D891A4"/>
<path d="M43.2245 16.492C43.7713 16.5594 44.2885 16.5234 44.6709 16.3131C45.7277 15.7322 45.6084 13.8361 45.3361 12.8044C45.0151 11.589 44.1251 10.3819 42.9523 9.8558C36.8073 7.01981 32.3954 12.6829 33.3406 14.1011C34.2696 15.495 37.444 12.0529 38.0349 11.3482C39.0925 12.7816 38.8852 14.4167 40.6231 15.5547C41.1952 15.9294 42.2563 16.3726 43.2245 16.492Z" fill="#0F429F"/>
<path d="M42.996 15.0908C43.8184 15.6909 44.5635 16.1906 44.8389 16.4845C44.9874 15.0302 45.7059 12.7639 44.6703 11.4802C44.2508 10.9604 43.734 10.6499 43.1414 10.3764C41.7885 9.75202 40.1543 8.99305 38.6179 9.09881C35.6932 9.30058 34.6609 12.2896 34.5137 14.7426C36.8383 14.8396 39.1568 13.437 40.1503 11.333C39.6147 12.4679 41.4433 13.9579 42.996 15.0908Z" fill="#0F429F"/>
<path d="M51.4684 51.304C51.5845 51.432 51.7193 51.5618 51.8655 51.6634C52.3018 51.9672 65.9132 58.4514 65.9132 58.4514L66.6672 56.8984C66.6672 56.8984 55.7653 49.6542 55.1676 49.2718C54.6884 48.9651 54.4099 48.8989 54.2789 48.888L54.1864 48.8902C54.1864 48.8902 52.9243 48.2741 52.0911 49.0756C51.2581 49.8771 51.1534 50.8171 51.3834 51.2074C51.4016 51.2387 51.4323 51.271 51.4684 51.304Z" fill="#FFB27D"/>
<path d="M63.6588 54.6464C63.6588 54.6464 62.2141 55.4736 61.7695 57.2551C61.7695 57.2551 51.972 52.7585 51.2547 50.6902C50.5375 48.6221 52.1002 47.0332 52.1002 47.0332H54.2255L63.6588 54.6464Z" fill="#3D74E7"/>
<path d="M66.8339 58.1738C66.8339 58.1738 68.2185 57.4113 68.8672 57.1925C69.5158 56.9737 73.0241 55.7413 73.5107 55.6264C73.9974 55.5116 74.2119 54.9303 74.2119 54.9303C74.2119 54.9303 75.7897 54.5458 75.7196 54.1921C75.6495 53.8383 75.1033 53.8252 74.774 53.92C74.4447 54.0146 73.9485 54.1983 73.9485 54.1983C73.9485 54.1983 73.4807 54.077 73.3135 54.1168C73.101 54.1676 71.4727 54.4388 71.4242 54.5906C71.535 54.2445 71.3587 53.8721 71.1399 53.582C70.9881 53.3808 70.7822 53.1826 70.5303 53.1845C70.2194 53.1867 70.0027 53.4827 69.8391 53.7471C69.927 53.9822 70.0152 54.2174 70.1031 54.4523C70.1199 54.4973 70.1369 54.5425 70.1479 54.5896C70.2039 54.8291 70.0817 55.0989 69.8644 55.2146C69.6954 55.3048 67.4648 55.103 67.4778 55.6009C67.6854 54.9683 68.233 54.4587 68.8792 54.297C69.1392 54.2319 69.4202 54.2165 69.6467 54.0732C69.7777 53.9903 70.1941 53.1152 70.0089 53.1484C69.617 53.2189 69.2251 53.2894 68.8332 53.3599C67.6093 53.5801 66.6299 53.9528 65.962 55.0386C65.4794 55.8228 65.2076 56.4945 65.435 57.4015C65.4674 57.5303 65.7231 58.5487 66.0379 58.4425C66.0439 58.4402 66.8339 58.1738 66.8339 58.1738Z" fill="#FFB27D"/>
<path d="M70.2711 55.8738L70.2246 55.7398L71.7821 55.198C72.3646 55.0615 73.4809 54.7975 73.5891 54.7612C73.726 54.7148 73.9576 54.5085 73.9626 54.4446C73.9655 54.3737 73.9104 54.2692 73.889 54.2347L74.0091 54.1597C74.0192 54.1758 74.1094 54.3231 74.104 54.4502C74.0978 54.6059 73.7853 54.8444 73.6344 54.8952C73.4927 54.9429 71.8898 55.3178 71.8215 55.3338L70.2711 55.8738Z" fill="#E4A183"/>
<path d="M74.1815 54.8639L71.1758 56.0278L71.2269 56.1599L74.2327 54.996L74.1815 54.8639Z" fill="#E4A183"/>
<path d="M25.8995 51.564C24.9776 51.0303 24.9805 49.4406 24.9805 49.4406C25.3886 47.2018 25.8023 44.9344 26.443 42.7492C26.9305 41.0865 27.5914 39.6513 27.9755 37.9152C28.5057 35.518 29.0362 33.1208 29.5664 30.7236C29.909 29.175 29.8689 28.1508 31.26 27.2678C32.8005 26.2898 34.1702 26.2189 35.9357 26.3158C35.1062 27.6661 34.447 29.7301 34.3655 31.3397C34.3118 32.4128 32.4245 42.232 29.6605 47.23L28.3973 50.7105C28.3973 50.7105 28.3193 50.917 28.1822 51.1653C27.967 51.6196 26.8215 52.0978 25.8995 51.564Z" fill="#3D74E7"/>
<path d="M28.3595 50.9078C28.2498 51.0413 28.1216 51.1775 27.9806 51.2864C27.5599 51.6116 14.2869 58.7627 14.2869 58.7627L13.457 57.2491C13.457 57.2491 23.9863 49.4734 24.5642 49.0618C25.0277 48.7316 25.3027 48.6516 25.4329 48.6344L25.5254 48.6321C25.5254 48.6321 26.7553 47.9542 27.6271 48.7134C28.4988 49.4726 28.6498 50.4063 28.4395 50.8074C28.4229 50.8391 28.3937 50.8729 28.3595 50.9078Z" fill="#FFB27D"/>
<path d="M13.3507 58.5307C13.3507 58.5307 11.9298 57.8378 11.2713 57.6514C10.6127 57.4652 7.0476 56.408 6.55572 56.3174C6.06405 56.2268 5.82102 55.6569 5.82102 55.6569C5.82102 55.6569 4.22595 55.3513 4.27862 54.9942C4.33108 54.6371 4.87584 54.5973 5.20949 54.6755C5.54315 54.7536 6.04788 54.9125 6.04788 54.9125C6.04788 54.9125 6.50906 54.7682 6.67807 54.7997C6.8929 54.8399 8.53255 55.0301 8.58854 55.1792C8.4608 54.8389 8.6184 54.4581 8.82245 54.1577C8.96408 53.9492 9.16005 53.741 9.41158 53.7303C9.72222 53.717 9.95322 54.0019 10.1299 54.2578C10.0536 54.4969 9.97728 54.7362 9.90118 54.9753C9.88666 55.0211 9.87194 55.0672 9.86323 55.1147C9.81906 55.3567 9.95468 55.62 10.1772 55.725C10.3505 55.8067 12.5683 55.4946 12.5799 55.9925C12.3411 55.3708 11.7689 54.889 11.1157 54.7597C10.8528 54.7076 10.5714 54.7061 10.3381 54.5743C10.2031 54.4979 9.74378 53.6444 9.93041 53.6685C10.3254 53.7195 10.7203 53.7705 11.1151 53.8213C12.3485 53.9804 13.3451 54.3043 14.0661 55.3554C14.5871 56.1148 14.8919 56.7722 14.7096 57.6894C14.6837 57.8194 14.4788 58.8494 14.159 58.759C14.153 58.7575 13.3507 58.5307 13.3507 58.5307Z" fill="#FFB27D"/>
<path d="M9.8045 56.4046L8.22188 55.9407C8.16008 55.9299 6.54034 55.6348 6.39642 55.5942C6.24318 55.5506 5.91927 55.3281 5.90538 55.1726C5.89397 55.0463 5.9765 54.8947 5.98604 54.8779L6.10963 54.9468C6.08993 54.982 6.04016 55.0897 6.04659 55.1597C6.05447 55.2234 6.29585 55.4181 6.43541 55.4575C6.5451 55.4888 7.67339 55.697 8.25464 55.8026L9.84432 56.2683L9.8045 56.4046Z" fill="#E4A183"/>
<path d="M5.8413 55.5862L5.79688 55.7207L8.85742 56.7319L8.90184 56.5974L5.8413 55.5862Z" fill="#E4A183"/>
<path d="M29.7098 52.31C29.6623 52.6285 29.6492 52.9491 29.6917 53.2707C29.8313 54.3291 30.5281 54.8509 31.4853 55.0423C32.4124 55.2279 33.3543 55.5698 34.3225 55.5895C36.5508 55.6349 40.6768 56.0119 42.9012 55.8742C44.3993 55.7815 48.3753 55.5205 48.3708 53.3516C48.3679 52.03 47.5892 50.4177 47.3814 49.0763C47.1734 47.7331 47.0583 46.3755 47.0378 45.0166C46.9934 42.0918 47.7982 39.3639 47.9813 36.474C48.0811 34.8982 47.8836 33.3048 47.4092 31.799C47.0502 30.6604 46.802 29.3712 46.1706 28.3522C45.8218 27.7893 44.6195 26.9638 44.477 28.2018C44.3565 29.2486 45.1719 30.0393 44.2271 31.0332C42.7036 32.6356 39.3675 32.8459 39.3675 32.8459C39.3675 32.8459 36.0316 32.6356 34.5078 31.0332C33.5316 30.0065 35.0348 26.8931 34.4154 26.6347C33.4959 26.2523 32.6639 28.8291 32.4644 29.3888C31.7934 31.2711 31.1877 32.8332 31.353 34.8903C31.462 36.2473 31.7762 37.5708 32.0485 38.901C32.2936 40.0982 32.0626 41.286 31.9317 42.5037C31.636 45.2524 31.0488 47.9697 30.1815 50.5946C29.9962 51.1553 29.796 51.7293 29.7098 52.31Z" fill="#3D74E7"/>
<path d="M40.1712 63.3933C39.1599 63.6227 38.4186 63.7175 37.1914 63.4614C35.8879 63.182 34.3608 64.1092 33.2918 64.7359C32.6204 65.1294 31.9609 65.5981 31.2366 65.8762C30.4644 66.1729 29.6432 66.3788 28.8542 66.6277C28.6628 66.688 28.4676 66.7502 28.3061 66.8693C28.1446 66.9883 28.0197 67.1762 28.0299 67.3765C28.045 67.6793 28.3652 67.8933 28.6679 67.9022C28.9709 67.9113 29.256 67.7713 29.5267 67.6349C29.3487 67.6886 29.1662 67.7446 29.0211 67.8605C28.8759 67.9764 28.7752 68.1678 28.8204 68.348C28.8817 68.5929 29.187 68.7076 29.4329 68.6506C29.6789 68.5935 29.8763 68.4158 30.0617 68.2448C29.4651 68.1587 29.6334 68.707 29.856 68.9266C30.1991 69.2652 31.0475 69.2011 31.4798 69.181C33.8436 69.0711 35.7365 68.3426 37.9003 67.5463C38.9606 67.1561 39.8612 66.6806 40.9891 66.648C42.7743 66.5966 44.5633 66.6032 46.3491 66.5808C49.8482 66.5369 53.3471 66.4931 56.8463 66.4491C58.5158 66.4282 60.2732 66.3836 61.7078 65.5297C63.1423 64.6757 64.0612 62.7132 63.2039 61.2805C62.7083 60.4522 61.743 59.9952 60.785 59.8776C59.8269 59.7602 58.8598 59.9346 57.9102 60.1086C54.119 60.8031 50.3277 61.4974 46.5362 62.1918C44.6493 62.5375 42.7136 62.7882 40.8483 63.2335C40.6061 63.2915 40.3827 63.3452 40.1712 63.3933Z" fill="#DD96A9"/>
<path d="M36.5842 68.1219C36.3383 68.2177 33.3596 68.8423 33.9917 66.5067C34.6237 64.1711 37.0742 63.1967 36.8478 63.2463C36.6213 63.2956 35.8516 62.8948 33.9915 63.7282C31.6008 64.7997 28.6897 65.2339 27.6732 67.9855C27.509 68.4301 27.5345 68.9777 27.8607 69.3218C28.2723 69.756 28.9632 69.7141 29.5569 69.6401C32.0296 69.3313 34.3177 69.1949 36.5842 68.1219Z" fill="#002657"/>
<path d="M39.5786 62.7243C39.3596 62.7517 39.1409 62.7791 38.9219 62.8064C39.0896 64.3783 39.2572 65.9504 39.4249 67.5222C40.2511 67.5098 41.077 67.4973 41.903 67.4849C42.3306 67.4785 43.0665 67.9921 43.5339 68.0915C44.1749 68.2275 44.8393 68.2588 45.4904 68.1877C46.6548 68.0606 47.504 67.499 48.6594 67.5878C50.2263 67.708 51.7845 68.0245 53.3528 68.1642C56.9518 68.4848 61.9311 68.912 64.9614 66.4966C69.2072 63.1123 65.1574 57.9874 62.495 57.7595C60.1109 57.5554 57.3558 58.2918 55.171 59.1196C52.2583 60.2232 48.4535 59.9839 45.3538 60.2608C44.4814 60.3387 43.5937 60.4202 42.7828 60.7516C41.972 61.083 41.2346 61.7082 40.9877 62.5485C40.518 62.6069 40.0483 62.6656 39.5786 62.7243Z" fill="#3D74E7"/>
<path d="M36.4879 63.7138C36.8945 63.2148 37.549 62.7785 38.1483 63.0129C38.7416 63.2447 38.9299 63.9933 38.9222 64.6301C38.9085 65.7746 38.0979 69.0289 36.3734 68.4034C34.6305 67.7716 35.6993 64.6816 36.4879 63.7138Z" fill="#002657"/>
<path d="M38.5662 63.6957C39.5775 63.925 40.3189 64.0198 41.5461 63.7637C42.8496 63.4844 44.3766 64.4115 45.4458 65.0382C46.6815 65.7625 48.3533 66.3942 49.1633 67.6516C49.4895 68.1578 49.584 68.8637 49.227 69.3488C48.8898 69.8068 48.2668 69.9414 47.6987 69.9669C46.4306 70.0242 45.48 69.5964 44.3358 69.1908C43.1581 68.7731 42.0095 68.2804 40.8375 67.8491C39.7772 67.4588 38.8766 66.9831 37.7488 66.9507C35.9635 66.8993 34.1746 66.906 32.3887 66.8836C28.8896 66.8396 25.3907 66.7958 21.8916 66.7519C20.2221 66.7309 18.4646 66.6863 17.0301 65.8324C15.5955 64.9785 14.6767 63.0159 15.5339 61.5832C16.0295 60.755 16.9948 60.2977 17.9529 60.1803C18.9109 60.063 19.8781 60.2374 20.8276 60.4113C24.6189 61.1058 28.4102 61.8001 32.2017 62.4946C34.0885 62.8403 36.0243 63.091 37.8896 63.5362C38.1314 63.5936 38.3547 63.6476 38.5662 63.6957Z" fill="#FFB27D"/>
<path d="M36.9944 62.6266C37.44 62.8792 37.9128 63.1258 38.0378 63.075C37.0788 63.4642 36.3057 64.287 35.977 65.2685C35.6484 66.25 35.7699 67.3725 36.3011 68.2609C34.472 68.2314 32.6496 68.1047 30.8403 68.1808C28.1506 68.294 25.4579 68.2812 22.7667 68.3368C19.7118 68.3998 16.5052 68.5298 13.9548 66.497C9.7092 63.1127 13.7591 57.9878 16.4215 57.7599C18.8995 57.548 21.6575 58.4116 24.0536 58.9263C25.9284 59.3288 27.6369 59.8788 29.5692 60.1658C31.1112 60.3949 32.4431 60.6543 33.9129 61.2134C34.6725 61.5023 35.4227 61.816 36.162 62.1538C36.2854 62.21 36.6309 62.4203 36.9944 62.6266Z" fill="#3D74E7"/>
<path d="M38.9157 39.0506L42.7993 26.573L35.9336 26.3154L38.9157 39.0506Z" fill="white"/>
<path d="M38.9428 46.9312L38.1934 52.3545H39.8687L38.9428 46.9312Z" fill="white"/>
<path d="M15.9551 54.8641C15.9551 54.8641 17.4 55.6913 17.8444 57.4728C17.8444 57.4728 27.6419 52.9762 28.3592 50.9079C29.0764 48.8398 27.5137 47.251 27.5137 47.251H25.3884L15.9551 54.8641Z" fill="#3D74E7"/>
<path d="M35.9336 26.3153C35.9336 26.3153 36.0082 29.3568 39.2896 29.3568C42.571 29.3568 42.8978 26.2568 42.8978 26.2568L35.9336 26.3153Z" fill="#FFB27D"/>
<path d="M35.9365 26.3154L33.1719 28.863L38.9186 39.0506L35.9365 26.3154Z" fill="#002657"/>
<path d="M42.9626 26.3154L45.8869 28.5905L38.9395 38.9793L42.9626 26.3154Z" fill="#002657"/>
<path d="M38.9183 41.3439C39.2367 41.3439 39.4948 41.0858 39.4948 40.7674C39.4948 40.449 39.2367 40.1909 38.9183 40.1909C38.5999 40.1909 38.3418 40.449 38.3418 40.7674C38.3418 41.0858 38.5999 41.3439 38.9183 41.3439Z" fill="#002657"/>
<path d="M38.9183 45.88C39.2367 45.88 39.4948 45.6219 39.4948 45.3035C39.4948 44.9852 39.2367 44.7271 38.9183 44.7271C38.5999 44.7271 38.3418 44.9852 38.3418 45.3035C38.3418 45.6219 38.5999 45.88 38.9183 45.88Z" fill="#002657"/>
<path d="M42.9009 68.6494C43.6783 68.9513 45.2319 68.9963 45.6083 68.0578C46.1756 66.6429 44.9965 64.9624 43.7449 64.4184C42.6299 63.9338 41.4628 64.0186 40.2852 63.9429C40.9798 63.0859 42.7534 62.9486 43.715 63.2439C45.1087 63.6717 46.2084 64.7647 47.4335 65.5061C48.2074 65.9745 48.9863 66.4463 49.6635 67.046C50.2641 67.5777 53.2238 71.6258 50.8443 71.0057C49.4406 70.6399 48.0612 70.2582 46.6385 70.027C45.2414 69.7999 44.1951 69.1531 42.9009 68.6494Z" fill="#002657"/>
<path d="M38.0273 52.3618L37.3594 56.5009H40.7036L39.9807 52.3618H38.0273Z" fill="#002657"/>
<path d="M47.2916 48.936L42.8359 50.5319L43.333 51.7438L47.5488 50.5319L47.2916 48.936Z" fill="#002657"/>
<path d="M30.6309 48.5982C30.6419 48.5544 35.1789 49.9428 35.1789 49.9428L34.6617 51.4953L30.1562 50.3399L30.6309 48.5982Z" fill="#002657"/>
<path d="M20.9891 25.1519L21.9279 26.8683L23.6442 27.8068L21.9279 28.7456L20.9891 30.462L20.0504 28.7456L18.334 27.8068L20.0504 26.8683L20.9891 25.1519Z" fill="#F77D48"/>
<path d="M61.2549 40.6831L62.0618 42.1585L63.5372 42.9654L62.0618 43.7723L61.2549 45.2477L60.4481 43.7723L58.9727 42.9654L60.4481 42.1585L61.2549 40.6831Z" fill="#F77D48"/>
<path d="M52.8652 15.3115L53.4396 16.3619L54.4899 16.9363L53.4396 17.5109L52.8652 18.5612L52.2908 17.5109L51.2402 16.9363L52.2908 16.3619L52.8652 15.3115Z" fill="#F77D48"/>
<path d="M11.1443 69.4453L11.7189 70.4956L12.7692 71.0701L11.7189 71.6447L11.1443 72.695L10.5698 71.6447L9.51953 71.0701L10.5698 70.4956L11.1443 69.4453Z" fill="#F77D48"/>
<path d="M64.4099 70.751L64.9843 71.8013L66.0346 72.3757L64.9843 72.9501L64.4099 74.0005L63.8355 72.9501L62.7852 72.3757L63.8355 71.8013L64.4099 70.751Z" fill="#F77D48"/>
</svg>
