<svg width="80" height="80" viewBox="0 0 80 80" fill="none" xmlns="http://www.w3.org/2000/svg">
<path d="M69.9255 7.83446C69.9255 8.92851 69.3797 9.81534 68.7795 9.81534H11.3549C10.7545 9.81534 10.0723 8.92851 10.0723 7.83446V7.69782C10.0723 6.60378 10.7545 6 11.3549 6H68.7795C69.3799 6 69.9255 6.60378 69.9255 7.69782V7.83446Z" fill="#4D4D4D"/>
<path d="M68.7802 6H52.1124L45.457 9.81534H68.7802C69.3807 9.81534 69.9263 8.92851 69.9263 7.83446V7.69782C69.9263 6.60378 69.3804 6 68.7802 6Z" fill="#333333"/>
<path d="M67.7799 7.90758C67.7799 8.21138 67.6225 8.3845 67.4282 8.3845H12.3322C12.1379 8.3845 11.9805 8.21138 11.9805 7.90758C11.9805 7.60378 12.1379 7.43066 12.3322 7.43066H67.4282C67.6225 7.43066 67.7799 7.60378 67.7799 7.90758Z" fill="black"/>
<path d="M67.6711 8.40039V73.2215H67.062L65.5274 74.0004L63.9104 73.2215H62.7328L61.1981 74.0004L59.5809 73.2215H58.4037L56.8691 74.0004L55.2518 73.2215H53.9355L52.4006 74.0004L50.7837 73.2215H49.56L48.0251 74.0004L46.4079 73.2215H45.1843L43.6496 74.0004L42.0324 73.2215H40.8088L39.2741 74.0004L37.6569 73.2215H36.4333L34.8984 74.0004L33.2814 73.2215H32.0575L30.5229 74.0004L28.9056 73.2215H27.5893L26.0547 74.0004L24.4375 73.2215H23.2603L21.7254 74.0004L20.1082 73.2215H18.931L17.3961 74.0004L15.7791 73.2215H14.9513V72.8608L14.8711 72.822L14.9513 72.8218V8.40039H67.6711Z" fill="#E5E5E5"/>
<path d="M66.0723 7.6001V72.4212H65.4724L63.961 73.2001L62.3686 72.4212H61.2088L59.6974 73.2001L58.1046 72.4212H56.9453L55.4339 73.2001L53.8412 72.4212H52.5448L51.0332 73.2001L49.4407 72.4212H48.2356L46.724 73.2001L45.1312 72.4212H43.9262L42.4148 73.2001L40.822 72.4212H39.6169L38.1055 73.2001L36.5128 72.4212H35.3077L33.7961 73.2001L32.2036 72.4212H30.9983L29.4869 73.2001L27.8942 72.4212H26.5978L25.0864 73.2001L23.4937 72.4212H22.3344L20.8227 73.2001L19.23 72.4212H18.0707L16.559 73.2001L14.9665 72.4212H14.1512V72.0605L14.0723 72.0217L14.1512 72.0215V7.6001H66.0723Z" fill="#F7F7F7"/>
<path opacity="0.3" d="M66.0723 54.7998H14.0723V61.9998H66.0723V54.7998Z" fill="#ADC7FF"/>
<path d="M52.0375 14.7031H27.9531V15.657H52.0375V14.7031Z" fill="#B3B3B3"/>
<path d="M53.4672 16.7295H26.7598V17.6833H53.4672V16.7295Z" fill="#B3B3B3"/>
<path d="M54.8971 12.6758H25.3281V13.6296H54.8971V12.6758Z" fill="#B3B3B3"/>
<path d="M60.2618 30.3883C60.22 30.3883 60.1842 30.3734 60.1543 30.3435C60.1243 30.3135 60.1094 30.2777 60.1094 30.2359C60.1094 30.1941 60.1243 30.1583 60.1543 30.1284C60.1842 30.0985 60.22 30.0835 60.2618 30.0835C60.3036 30.0835 60.3394 30.0985 60.3693 30.1284C60.3993 30.1583 60.4142 30.1941 60.4142 30.2359C60.4142 30.2636 60.4072 30.289 60.3931 30.3121C60.3795 30.3353 60.3612 30.3539 60.338 30.368C60.3154 30.3816 60.29 30.3883 60.2618 30.3883Z" fill="#808080"/>
<path d="M59.6036 30.3883C59.5618 30.3883 59.526 30.3734 59.4961 30.3435C59.4661 30.3135 59.4512 30.2777 59.4512 30.2359C59.4512 30.1941 59.4661 30.1583 59.4961 30.1284C59.526 30.0985 59.5618 30.0835 59.6036 30.0835C59.6454 30.0835 59.6812 30.0985 59.7111 30.1284C59.7411 30.1583 59.756 30.1941 59.756 30.2359C59.756 30.2636 59.749 30.289 59.7348 30.3121C59.7213 30.3353 59.703 30.3539 59.6798 30.368C59.6572 30.3816 59.6318 30.3883 59.6036 30.3883Z" fill="#808080"/>
<path d="M58.9473 30.3883C58.9056 30.3883 58.8697 30.3734 58.8398 30.3435C58.8099 30.3135 58.7949 30.2777 58.7949 30.2359C58.7949 30.1941 58.8099 30.1583 58.8398 30.1284C58.8697 30.0985 58.9056 30.0835 58.9473 30.0835C58.9891 30.0835 59.025 30.0985 59.0549 30.1284C59.0848 30.1583 59.0998 30.1941 59.0998 30.2359C59.0998 30.2636 59.0927 30.289 59.0786 30.3121C59.0651 30.3353 59.0467 30.3539 59.0236 30.368C59.001 30.3816 58.9756 30.3883 58.9473 30.3883Z" fill="#808080"/>
<path d="M58.2911 30.3883C58.2493 30.3883 58.2135 30.3734 58.1836 30.3435C58.1536 30.3135 58.1387 30.2777 58.1387 30.2359C58.1387 30.1941 58.1536 30.1583 58.1836 30.1284C58.2135 30.0985 58.2493 30.0835 58.2911 30.0835C58.3329 30.0835 58.3687 30.0985 58.3986 30.1284C58.4286 30.1583 58.4435 30.1941 58.4435 30.2359C58.4435 30.2636 58.4365 30.289 58.4223 30.3121C58.4088 30.3353 58.3905 30.3539 58.3673 30.368C58.3447 30.3816 58.3193 30.3883 58.2911 30.3883Z" fill="#808080"/>
<path d="M57.6329 30.3883C57.5911 30.3883 57.5553 30.3734 57.5253 30.3435C57.4954 30.3135 57.4805 30.2777 57.4805 30.2359C57.4805 30.1941 57.4954 30.1583 57.5253 30.1284C57.5553 30.0985 57.5911 30.0835 57.6329 30.0835C57.6747 30.0835 57.7105 30.0985 57.7404 30.1284C57.7704 30.1583 57.7853 30.1941 57.7853 30.2359C57.7853 30.2636 57.7783 30.289 57.7641 30.3121C57.7506 30.3353 57.7322 30.3539 57.7091 30.368C57.6865 30.3816 57.6611 30.3883 57.6329 30.3883Z" fill="#808080"/>
<path d="M56.9805 30.3883C56.9388 30.3883 56.9029 30.3734 56.873 30.3435C56.8431 30.3135 56.8281 30.2777 56.8281 30.2359C56.8281 30.1941 56.8431 30.1583 56.873 30.1284C56.9029 30.0985 56.9388 30.0835 56.9805 30.0835C57.0223 30.0835 57.0582 30.0985 57.0881 30.1284C57.118 30.1583 57.133 30.1941 57.133 30.2359C57.133 30.2636 57.1259 30.289 57.1118 30.3121C57.0983 30.3353 57.0799 30.3539 57.0568 30.368C57.0342 30.3816 57.0088 30.3883 56.9805 30.3883Z" fill="#808080"/>
<path d="M56.3223 30.3883C56.2806 30.3883 56.2447 30.3734 56.2148 30.3435C56.1849 30.3135 56.1699 30.2777 56.1699 30.2359C56.1699 30.1941 56.1849 30.1583 56.2148 30.1284C56.2447 30.0985 56.2806 30.0835 56.3223 30.0835C56.3641 30.0835 56.4 30.0985 56.4299 30.1284C56.4598 30.1583 56.4748 30.1941 56.4748 30.2359C56.4748 30.2636 56.4677 30.289 56.4536 30.3121C56.4401 30.3353 56.4217 30.3539 56.3986 30.368C56.376 30.3816 56.3506 30.3883 56.3223 30.3883Z" fill="#808080"/>
<path d="M55.6641 30.3883C55.6224 30.3883 55.5865 30.3734 55.5566 30.3435C55.5267 30.3135 55.5117 30.2777 55.5117 30.2359C55.5117 30.1941 55.5267 30.1583 55.5566 30.1284C55.5865 30.0985 55.6224 30.0835 55.6641 30.0835C55.7059 30.0835 55.7418 30.0985 55.7717 30.1284C55.8016 30.1583 55.8166 30.1941 55.8166 30.2359C55.8166 30.2636 55.8095 30.289 55.7954 30.3121C55.7818 30.3353 55.7635 30.3539 55.7404 30.368C55.7178 30.3816 55.6924 30.3883 55.6641 30.3883Z" fill="#808080"/>
<path d="M55.0098 30.3883C54.9681 30.3883 54.9322 30.3734 54.9023 30.3435C54.8724 30.3135 54.8574 30.2777 54.8574 30.2359C54.8574 30.1941 54.8724 30.1583 54.9023 30.1284C54.9322 30.0985 54.9681 30.0835 55.0098 30.0835C55.0516 30.0835 55.0875 30.0985 55.1174 30.1284C55.1473 30.1583 55.1623 30.1941 55.1623 30.2359C55.1623 30.2636 55.1552 30.289 55.1411 30.3121C55.1276 30.3353 55.1092 30.3539 55.0861 30.368C55.0635 30.3816 55.0381 30.3883 55.0098 30.3883Z" fill="#808080"/>
<path d="M54.3536 30.3883C54.3118 30.3883 54.276 30.3734 54.2461 30.3435C54.2161 30.3135 54.2012 30.2777 54.2012 30.2359C54.2012 30.1941 54.2161 30.1583 54.2461 30.1284C54.276 30.0985 54.3118 30.0835 54.3536 30.0835C54.3954 30.0835 54.4312 30.0985 54.4611 30.1284C54.4911 30.1583 54.506 30.1941 54.506 30.2359C54.506 30.2636 54.499 30.289 54.4848 30.3121C54.4713 30.3353 54.453 30.3539 54.4298 30.368C54.4072 30.3816 54.3818 30.3883 54.3536 30.3883Z" fill="#808080"/>
<path d="M53.6954 30.3883C53.6536 30.3883 53.6178 30.3734 53.5878 30.3435C53.5579 30.3135 53.543 30.2777 53.543 30.2359C53.543 30.1941 53.5579 30.1583 53.5878 30.1284C53.6178 30.0985 53.6536 30.0835 53.6954 30.0835C53.7372 30.0835 53.773 30.0985 53.8029 30.1284C53.8329 30.1583 53.8478 30.1941 53.8478 30.2359C53.8478 30.2636 53.8408 30.289 53.8266 30.3121C53.8131 30.3353 53.7948 30.3539 53.7716 30.368C53.749 30.3816 53.7236 30.3883 53.6954 30.3883Z" fill="#808080"/>
<path d="M53.0372 30.3883C52.9954 30.3883 52.9596 30.3734 52.9296 30.3435C52.8997 30.3135 52.8848 30.2777 52.8848 30.2359C52.8848 30.1941 52.8997 30.1583 52.9296 30.1284C52.9596 30.0985 52.9954 30.0835 53.0372 30.0835C53.079 30.0835 53.1148 30.0985 53.1447 30.1284C53.1747 30.1583 53.1896 30.1941 53.1896 30.2359C53.1896 30.2636 53.1826 30.289 53.1684 30.3121C53.1549 30.3353 53.1365 30.3539 53.1134 30.368C53.0908 30.3816 53.0654 30.3883 53.0372 30.3883Z" fill="#808080"/>
<path d="M52.3809 30.3883C52.3392 30.3883 52.3033 30.3734 52.2734 30.3435C52.2435 30.3135 52.2285 30.2777 52.2285 30.2359C52.2285 30.1941 52.2435 30.1583 52.2734 30.1284C52.3033 30.0985 52.3392 30.0835 52.3809 30.0835C52.4227 30.0835 52.4586 30.0985 52.4885 30.1284C52.5184 30.1583 52.5334 30.1941 52.5334 30.2359C52.5334 30.2636 52.5263 30.289 52.5122 30.3121C52.4986 30.3353 52.4803 30.3539 52.4572 30.368C52.4346 30.3816 52.4092 30.3883 52.3809 30.3883Z" fill="#808080"/>
<path d="M51.7247 30.3883C51.6829 30.3883 51.6471 30.3734 51.6171 30.3435C51.5872 30.3135 51.5723 30.2777 51.5723 30.2359C51.5723 30.1941 51.5872 30.1583 51.6171 30.1284C51.6471 30.0985 51.6829 30.0835 51.7247 30.0835C51.7665 30.0835 51.8023 30.0985 51.8322 30.1284C51.8622 30.1583 51.8771 30.1941 51.8771 30.2359C51.8771 30.2636 51.8701 30.289 51.8559 30.3121C51.8424 30.3353 51.824 30.3539 51.8009 30.368C51.7783 30.3816 51.7529 30.3883 51.7247 30.3883Z" fill="#808080"/>
<path d="M51.0665 30.3883C51.0247 30.3883 50.9889 30.3734 50.9589 30.3435C50.929 30.3135 50.9141 30.2777 50.9141 30.2359C50.9141 30.1941 50.929 30.1583 50.9589 30.1284C50.9889 30.0985 51.0247 30.0835 51.0665 30.0835C51.1083 30.0835 51.1441 30.0985 51.174 30.1284C51.204 30.1583 51.2189 30.1941 51.2189 30.2359C51.2189 30.2636 51.2119 30.289 51.1977 30.3121C51.1842 30.3353 51.1658 30.3539 51.1427 30.368C51.1201 30.3816 51.0947 30.3883 51.0665 30.3883Z" fill="#808080"/>
<path d="M50.4122 30.3883C50.3704 30.3883 50.3346 30.3734 50.3046 30.3435C50.2747 30.3135 50.2598 30.2777 50.2598 30.2359C50.2598 30.1941 50.2747 30.1583 50.3046 30.1284C50.3346 30.0985 50.3704 30.0835 50.4122 30.0835C50.454 30.0835 50.4898 30.0985 50.5197 30.1284C50.5497 30.1583 50.5646 30.1941 50.5646 30.2359C50.5646 30.2636 50.5576 30.289 50.5434 30.3121C50.5299 30.3353 50.5115 30.3539 50.4884 30.368C50.4658 30.3816 50.4404 30.3883 50.4122 30.3883Z" fill="#808080"/>
<path d="M49.754 30.3883C49.7122 30.3883 49.6764 30.3734 49.6464 30.3435C49.6165 30.3135 49.6016 30.2777 49.6016 30.2359C49.6016 30.1941 49.6165 30.1583 49.6464 30.1284C49.6764 30.0985 49.7122 30.0835 49.754 30.0835C49.7958 30.0835 49.8316 30.0985 49.8615 30.1284C49.8915 30.1583 49.9064 30.1941 49.9064 30.2359C49.9064 30.2636 49.8994 30.289 49.8852 30.3121C49.8717 30.3353 49.8533 30.3539 49.8302 30.368C49.8076 30.3816 49.7822 30.3883 49.754 30.3883Z" fill="#808080"/>
<path d="M49.0977 30.3883C49.056 30.3883 49.0201 30.3734 48.9902 30.3435C48.9603 30.3135 48.9453 30.2777 48.9453 30.2359C48.9453 30.1941 48.9603 30.1583 48.9902 30.1284C49.0201 30.0985 49.056 30.0835 49.0977 30.0835C49.1395 30.0835 49.1754 30.0985 49.2053 30.1284C49.2352 30.1583 49.2502 30.1941 49.2502 30.2359C49.2502 30.2636 49.2431 30.289 49.229 30.3121C49.2154 30.3353 49.1971 30.3539 49.1739 30.368C49.1514 30.3816 49.126 30.3883 49.0977 30.3883Z" fill="#808080"/>
<path d="M48.4415 30.3883C48.3997 30.3883 48.3639 30.3734 48.3339 30.3435C48.304 30.3135 48.2891 30.2777 48.2891 30.2359C48.2891 30.1941 48.304 30.1583 48.3339 30.1284C48.3639 30.0985 48.3997 30.0835 48.4415 30.0835C48.4833 30.0835 48.5191 30.0985 48.549 30.1284C48.579 30.1583 48.5939 30.1941 48.5939 30.2359C48.5939 30.2636 48.5869 30.289 48.5727 30.3121C48.5592 30.3353 48.5408 30.3539 48.5177 30.368C48.4951 30.3816 48.4697 30.3883 48.4415 30.3883Z" fill="#808080"/>
<path d="M47.7833 30.3883C47.7415 30.3883 47.7057 30.3734 47.6757 30.3435C47.6458 30.3135 47.6309 30.2777 47.6309 30.2359C47.6309 30.1941 47.6458 30.1583 47.6757 30.1284C47.7057 30.0985 47.7415 30.0835 47.7833 30.0835C47.8251 30.0835 47.8609 30.0985 47.8908 30.1284C47.9207 30.1583 47.9357 30.1941 47.9357 30.2359C47.9357 30.2636 47.9287 30.289 47.9145 30.3121C47.901 30.3353 47.8826 30.3539 47.8595 30.368C47.8369 30.3816 47.8115 30.3883 47.7833 30.3883Z" fill="#808080"/>
<path d="M47.129 30.3883C47.0872 30.3883 47.0514 30.3734 47.0214 30.3435C46.9915 30.3135 46.9766 30.2777 46.9766 30.2359C46.9766 30.1941 46.9915 30.1583 47.0214 30.1284C47.0514 30.0985 47.0872 30.0835 47.129 30.0835C47.1708 30.0835 47.2066 30.0985 47.2365 30.1284C47.2665 30.1583 47.2814 30.1941 47.2814 30.2359C47.2814 30.2636 47.2744 30.289 47.2602 30.3121C47.2467 30.3353 47.2283 30.3539 47.2052 30.368C47.1826 30.3816 47.1572 30.3883 47.129 30.3883Z" fill="#808080"/>
<path d="M46.4688 30.3883C46.4271 30.3883 46.3912 30.3734 46.3613 30.3435C46.3314 30.3135 46.3164 30.2777 46.3164 30.2359C46.3164 30.1941 46.3314 30.1583 46.3613 30.1284C46.3912 30.0985 46.4271 30.0835 46.4688 30.0835C46.5106 30.0835 46.5465 30.0985 46.5764 30.1284C46.6063 30.1583 46.6213 30.1941 46.6213 30.2359C46.6213 30.2636 46.6142 30.289 46.6001 30.3121C46.5865 30.3353 46.5682 30.3539 46.545 30.368C46.5225 30.3816 46.4971 30.3883 46.4688 30.3883Z" fill="#808080"/>
<path d="M45.8126 30.3883C45.7708 30.3883 45.735 30.3734 45.705 30.3435C45.6751 30.3135 45.6602 30.2777 45.6602 30.2359C45.6602 30.1941 45.6751 30.1583 45.705 30.1284C45.735 30.0985 45.7708 30.0835 45.8126 30.0835C45.8544 30.0835 45.8902 30.0985 45.9201 30.1284C45.95 30.1583 45.965 30.1941 45.965 30.2359C45.965 30.2636 45.9579 30.289 45.9438 30.3121C45.9303 30.3353 45.9119 30.3539 45.8888 30.368C45.8662 30.3816 45.8408 30.3883 45.8126 30.3883Z" fill="#808080"/>
<path d="M45.1563 30.3883C45.1146 30.3883 45.0787 30.3734 45.0488 30.3435C45.0189 30.3135 45.0039 30.2777 45.0039 30.2359C45.0039 30.1941 45.0189 30.1583 45.0488 30.1284C45.0787 30.0985 45.1146 30.0835 45.1563 30.0835C45.1981 30.0835 45.234 30.0985 45.2639 30.1284C45.2938 30.1583 45.3088 30.1941 45.3088 30.2359C45.3088 30.2636 45.3017 30.289 45.2876 30.3121C45.274 30.3353 45.2557 30.3539 45.2325 30.368C45.21 30.3816 45.1846 30.3883 45.1563 30.3883Z" fill="#808080"/>
<path d="M44.5001 30.3883C44.4583 30.3883 44.4225 30.3734 44.3925 30.3435C44.3626 30.3135 44.3477 30.2777 44.3477 30.2359C44.3477 30.1941 44.3626 30.1583 44.3925 30.1284C44.4225 30.0985 44.4583 30.0835 44.5001 30.0835C44.5419 30.0835 44.5777 30.0985 44.6076 30.1284C44.6375 30.1583 44.6525 30.1941 44.6525 30.2359C44.6525 30.2636 44.6454 30.289 44.6313 30.3121C44.6178 30.3353 44.5994 30.3539 44.5763 30.368C44.5537 30.3816 44.5283 30.3883 44.5001 30.3883Z" fill="#808080"/>
<path d="M43.8419 30.3883C43.8001 30.3883 43.7643 30.3734 43.7343 30.3435C43.7044 30.3135 43.6895 30.2777 43.6895 30.2359C43.6895 30.1941 43.7044 30.1583 43.7343 30.1284C43.7643 30.0985 43.8001 30.0835 43.8419 30.0835C43.8837 30.0835 43.9195 30.0985 43.9494 30.1284C43.9793 30.1583 43.9943 30.1941 43.9943 30.2359C43.9943 30.2636 43.9872 30.289 43.9731 30.3121C43.9596 30.3353 43.9412 30.3539 43.9181 30.368C43.8955 30.3816 43.8701 30.3883 43.8419 30.3883Z" fill="#808080"/>
<path d="M43.1856 30.3883C43.1439 30.3883 43.108 30.3734 43.0781 30.3435C43.0482 30.3135 43.0332 30.2777 43.0332 30.2359C43.0332 30.1941 43.0482 30.1583 43.0781 30.1284C43.108 30.0985 43.1439 30.0835 43.1856 30.0835C43.2274 30.0835 43.2633 30.0985 43.2932 30.1284C43.3231 30.1583 43.3381 30.1941 43.3381 30.2359C43.3381 30.2636 43.331 30.289 43.3169 30.3121C43.3033 30.3353 43.285 30.3539 43.2618 30.368C43.2393 30.3816 43.2139 30.3883 43.1856 30.3883Z" fill="#808080"/>
<path d="M42.5294 30.3883C42.4876 30.3883 42.4518 30.3734 42.4218 30.3435C42.3919 30.3135 42.377 30.2777 42.377 30.2359C42.377 30.1941 42.3919 30.1583 42.4218 30.1284C42.4518 30.0985 42.4876 30.0835 42.5294 30.0835C42.5712 30.0835 42.607 30.0985 42.6369 30.1284C42.6668 30.1583 42.6818 30.1941 42.6818 30.2359C42.6818 30.2636 42.6747 30.289 42.6606 30.3121C42.6471 30.3353 42.6287 30.3539 42.6056 30.368C42.583 30.3816 42.5576 30.3883 42.5294 30.3883Z" fill="#808080"/>
<path d="M41.8731 30.3883C41.8314 30.3883 41.7955 30.3734 41.7656 30.3435C41.7357 30.3135 41.7207 30.2777 41.7207 30.2359C41.7207 30.1941 41.7357 30.1583 41.7656 30.1284C41.7955 30.0985 41.8314 30.0835 41.8731 30.0835C41.9149 30.0835 41.9508 30.0985 41.9807 30.1284C42.0106 30.1583 42.0256 30.1941 42.0256 30.2359C42.0256 30.2636 42.0185 30.289 42.0044 30.3121C41.9908 30.3353 41.9725 30.3539 41.9493 30.368C41.9268 30.3816 41.9014 30.3883 41.8731 30.3883Z" fill="#808080"/>
<path d="M41.2169 30.3883C41.1751 30.3883 41.1393 30.3734 41.1093 30.3435C41.0794 30.3135 41.0645 30.2777 41.0645 30.2359C41.0645 30.1941 41.0794 30.1583 41.1093 30.1284C41.1393 30.0985 41.1751 30.0835 41.2169 30.0835C41.2587 30.0835 41.2945 30.0985 41.3244 30.1284C41.3543 30.1583 41.3693 30.1941 41.3693 30.2359C41.3693 30.2636 41.3622 30.289 41.3481 30.3121C41.3346 30.3353 41.3162 30.3539 41.2931 30.368C41.2705 30.3816 41.2451 30.3883 41.2169 30.3883Z" fill="#808080"/>
<path d="M40.5645 30.3883C40.5228 30.3883 40.4869 30.3734 40.457 30.3435C40.4271 30.3135 40.4121 30.2777 40.4121 30.2359C40.4121 30.1941 40.4271 30.1583 40.457 30.1284C40.4869 30.0985 40.5228 30.0835 40.5645 30.0835C40.6063 30.0835 40.6422 30.0985 40.6721 30.1284C40.702 30.1583 40.717 30.1941 40.717 30.2359C40.717 30.2636 40.7099 30.289 40.6958 30.3121C40.6822 30.3353 40.6639 30.3539 40.6407 30.368C40.6182 30.3816 40.5928 30.3883 40.5645 30.3883Z" fill="#808080"/>
<path d="M39.9024 30.3883C39.8606 30.3883 39.8248 30.3734 39.7949 30.3435C39.765 30.3135 39.75 30.2777 39.75 30.2359C39.75 30.1941 39.765 30.1583 39.7949 30.1284C39.8248 30.0985 39.8606 30.0835 39.9024 30.0835C39.9442 30.0835 39.98 30.0985 40.01 30.1284C40.0399 30.1583 40.0548 30.1941 40.0548 30.2359C40.0548 30.2636 40.0478 30.289 40.0337 30.3121C40.0201 30.3353 40.0018 30.3539 39.9786 30.368C39.9561 30.3816 39.9307 30.3883 39.9024 30.3883Z" fill="#808080"/>
<path d="M39.2462 30.3883C39.2044 30.3883 39.1686 30.3734 39.1386 30.3435C39.1087 30.3135 39.0938 30.2777 39.0938 30.2359C39.0938 30.1941 39.1087 30.1583 39.1386 30.1284C39.1686 30.0985 39.2044 30.0835 39.2462 30.0835C39.2879 30.0835 39.3238 30.0985 39.3537 30.1284C39.3836 30.1583 39.3986 30.1941 39.3986 30.2359C39.3986 30.2636 39.3915 30.289 39.3774 30.3121C39.3639 30.3353 39.3455 30.3539 39.3224 30.368C39.2998 30.3816 39.2744 30.3883 39.2462 30.3883Z" fill="#808080"/>
<path d="M60.1485 34.9196C60.1067 34.9196 60.0709 34.9046 60.041 34.8747C60.0111 34.8448 59.9961 34.8089 59.9961 34.7672C59.9961 34.7254 60.0111 34.6895 60.041 34.6596C60.0709 34.6297 60.1067 34.6147 60.1485 34.6147C60.1903 34.6147 60.2261 34.6297 60.2561 34.6596C60.286 34.6895 60.3009 34.7254 60.3009 34.7672C60.3009 34.7948 60.2939 34.8202 60.2798 34.8434C60.2662 34.8665 60.2479 34.8852 60.2247 34.8993C60.2021 34.9128 60.1767 34.9196 60.1485 34.9196Z" fill="#808080"/>
<path d="M59.4923 34.9196C59.4505 34.9196 59.4146 34.9046 59.3847 34.8747C59.3548 34.8448 59.3398 34.8089 59.3398 34.7672C59.3398 34.7254 59.3548 34.6895 59.3847 34.6596C59.4146 34.6297 59.4505 34.6147 59.4923 34.6147C59.534 34.6147 59.5699 34.6297 59.5998 34.6596C59.6297 34.6895 59.6447 34.7254 59.6447 34.7672C59.6447 34.7948 59.6376 34.8202 59.6235 34.8434C59.61 34.8665 59.5916 34.8852 59.5685 34.8993C59.5459 34.9128 59.5205 34.9196 59.4923 34.9196Z" fill="#808080"/>
<path d="M58.836 34.9196C58.7942 34.9196 58.7584 34.9046 58.7285 34.8747C58.6986 34.8448 58.6836 34.8089 58.6836 34.7672C58.6836 34.7254 58.6986 34.6895 58.7285 34.6596C58.7584 34.6297 58.7942 34.6147 58.836 34.6147C58.8778 34.6147 58.9136 34.6297 58.9436 34.6596C58.9735 34.6895 58.9884 34.7254 58.9884 34.7672C58.9884 34.7948 58.9814 34.8202 58.9673 34.8434C58.9537 34.8665 58.9354 34.8852 58.9122 34.8993C58.8896 34.9128 58.8642 34.9196 58.836 34.9196Z" fill="#808080"/>
<path d="M58.1778 34.9196C58.136 34.9196 58.1002 34.9046 58.0703 34.8747C58.0404 34.8448 58.0254 34.8089 58.0254 34.7672C58.0254 34.7254 58.0404 34.6895 58.0703 34.6596C58.1002 34.6297 58.136 34.6147 58.1778 34.6147C58.2196 34.6147 58.2554 34.6297 58.2854 34.6596C58.3153 34.6895 58.3302 34.7254 58.3302 34.7672C58.3302 34.7948 58.3232 34.8202 58.3091 34.8434C58.2955 34.8665 58.2772 34.8852 58.254 34.8993C58.2314 34.9128 58.206 34.9196 58.1778 34.9196Z" fill="#808080"/>
<path d="M57.5216 34.9196C57.4798 34.9196 57.4439 34.9046 57.414 34.8747C57.3841 34.8448 57.3691 34.8089 57.3691 34.7672C57.3691 34.7254 57.3841 34.6895 57.414 34.6596C57.4439 34.6297 57.4798 34.6147 57.5216 34.6147C57.5633 34.6147 57.5992 34.6297 57.6291 34.6596C57.659 34.6895 57.674 34.7254 57.674 34.7672C57.674 34.7948 57.6669 34.8202 57.6528 34.8434C57.6393 34.8665 57.6209 34.8852 57.5978 34.8993C57.5752 34.9128 57.5498 34.9196 57.5216 34.9196Z" fill="#808080"/>
<path d="M56.8653 34.9196C56.8235 34.9196 56.7877 34.9046 56.7578 34.8747C56.7279 34.8448 56.7129 34.8089 56.7129 34.7672C56.7129 34.7254 56.7279 34.6895 56.7578 34.6596C56.7877 34.6297 56.8235 34.6147 56.8653 34.6147C56.9071 34.6147 56.9429 34.6297 56.9729 34.6596C57.0028 34.6895 57.0177 34.7254 57.0177 34.7672C57.0177 34.7948 57.0107 34.8202 56.9966 34.8434C56.983 34.8665 56.9647 34.8852 56.9415 34.8993C56.9189 34.9128 56.8935 34.9196 56.8653 34.9196Z" fill="#808080"/>
<path d="M56.2091 34.9196C56.1673 34.9196 56.1314 34.9046 56.1015 34.8747C56.0716 34.8448 56.0566 34.8089 56.0566 34.7672C56.0566 34.7254 56.0716 34.6895 56.1015 34.6596C56.1314 34.6297 56.1673 34.6147 56.2091 34.6147C56.2508 34.6147 56.2867 34.6297 56.3166 34.6596C56.3465 34.6895 56.3615 34.7254 56.3615 34.7672C56.3615 34.7948 56.3544 34.8202 56.3403 34.8434C56.3268 34.8665 56.3084 34.8852 56.2853 34.8993C56.2627 34.9128 56.2373 34.9196 56.2091 34.9196Z" fill="#808080"/>
<path d="M55.5528 34.9196C55.511 34.9196 55.4752 34.9046 55.4453 34.8747C55.4154 34.8448 55.4004 34.8089 55.4004 34.7672C55.4004 34.7254 55.4154 34.6895 55.4453 34.6596C55.4752 34.6297 55.511 34.6147 55.5528 34.6147C55.5946 34.6147 55.6304 34.6297 55.6604 34.6596C55.6903 34.6895 55.7052 34.7254 55.7052 34.7672C55.7052 34.7948 55.6982 34.8202 55.6841 34.8434C55.6705 34.8665 55.6522 34.8852 55.629 34.8993C55.6064 34.9128 55.581 34.9196 55.5528 34.9196Z" fill="#808080"/>
<path d="M54.8946 34.9196C54.8528 34.9196 54.817 34.9046 54.7871 34.8747C54.7571 34.8448 54.7422 34.8089 54.7422 34.7672C54.7422 34.7254 54.7571 34.6895 54.7871 34.6596C54.817 34.6297 54.8528 34.6147 54.8946 34.6147C54.9364 34.6147 54.9722 34.6297 55.0022 34.6596C55.0321 34.6895 55.047 34.7254 55.047 34.7672C55.047 34.7948 55.04 34.8202 55.0259 34.8434C55.0123 34.8665 54.994 34.8852 54.9708 34.8993C54.9482 34.9128 54.9228 34.9196 54.8946 34.9196Z" fill="#808080"/>
<path d="M54.2384 34.9196C54.1966 34.9196 54.1607 34.9046 54.1308 34.8747C54.1009 34.8448 54.0859 34.8089 54.0859 34.7672C54.0859 34.7254 54.1009 34.6895 54.1308 34.6596C54.1607 34.6297 54.1966 34.6147 54.2384 34.6147C54.2801 34.6147 54.316 34.6297 54.3459 34.6596C54.3758 34.6895 54.3908 34.7254 54.3908 34.7672C54.3908 34.7948 54.3837 34.8202 54.3696 34.8434C54.3561 34.8665 54.3377 34.8852 54.3146 34.8993C54.292 34.9128 54.2666 34.9196 54.2384 34.9196Z" fill="#808080"/>
<path d="M53.5821 34.9196C53.5403 34.9196 53.5045 34.9046 53.4746 34.8747C53.4446 34.8448 53.4297 34.8089 53.4297 34.7672C53.4297 34.7254 53.4446 34.6895 53.4746 34.6596C53.5045 34.6297 53.5403 34.6147 53.5821 34.6147C53.6239 34.6147 53.6597 34.6297 53.6897 34.6596C53.7196 34.6895 53.7345 34.7254 53.7345 34.7672C53.7345 34.7948 53.7275 34.8202 53.7134 34.8434C53.6998 34.8665 53.6815 34.8852 53.6583 34.8993C53.6357 34.9128 53.6103 34.9196 53.5821 34.9196Z" fill="#808080"/>
<path d="M52.9259 34.9196C52.8841 34.9196 52.8482 34.9046 52.8183 34.8747C52.7884 34.8448 52.7734 34.8089 52.7734 34.7672C52.7734 34.7254 52.7884 34.6895 52.8183 34.6596C52.8482 34.6297 52.8841 34.6147 52.9259 34.6147C52.9676 34.6147 53.0035 34.6297 53.0334 34.6596C53.0633 34.6895 53.0783 34.7254 53.0783 34.7672C53.0783 34.7948 53.0712 34.8202 53.0571 34.8434C53.0436 34.8665 53.0252 34.8852 53.0021 34.8993C52.9795 34.9128 52.9541 34.9196 52.9259 34.9196Z" fill="#808080"/>
<path d="M52.2677 34.9196C52.2259 34.9196 52.19 34.9046 52.1601 34.8747C52.1302 34.8448 52.1152 34.8089 52.1152 34.7672C52.1152 34.7254 52.1302 34.6895 52.1601 34.6596C52.19 34.6297 52.2259 34.6147 52.2677 34.6147C52.3094 34.6147 52.3453 34.6297 52.3752 34.6596C52.4051 34.6895 52.4201 34.7254 52.4201 34.7672C52.4201 34.7948 52.413 34.8202 52.3989 34.8434C52.3854 34.8665 52.367 34.8852 52.3439 34.8993C52.3213 34.9128 52.2959 34.9196 52.2677 34.9196Z" fill="#808080"/>
<path d="M51.6114 34.9196C51.5696 34.9196 51.5338 34.9046 51.5039 34.8747C51.4739 34.8448 51.459 34.8089 51.459 34.7672C51.459 34.7254 51.4739 34.6895 51.5039 34.6596C51.5338 34.6297 51.5696 34.6147 51.6114 34.6147C51.6532 34.6147 51.689 34.6297 51.719 34.6596C51.7489 34.6895 51.7638 34.7254 51.7638 34.7672C51.7638 34.7948 51.7568 34.8202 51.7427 34.8434C51.7291 34.8665 51.7108 34.8852 51.6876 34.8993C51.665 34.9128 51.6396 34.9196 51.6114 34.9196Z" fill="#808080"/>
<path d="M50.9571 34.9196C50.9153 34.9196 50.8795 34.9046 50.8496 34.8747C50.8196 34.8448 50.8047 34.8089 50.8047 34.7672C50.8047 34.7254 50.8196 34.6895 50.8496 34.6596C50.8795 34.6297 50.9153 34.6147 50.9571 34.6147C50.9989 34.6147 51.0347 34.6297 51.0647 34.6596C51.0946 34.6895 51.1095 34.7254 51.1095 34.7672C51.1095 34.7948 51.1025 34.8202 51.0884 34.8434C51.0748 34.8665 51.0565 34.8852 51.0333 34.8993C51.0107 34.9128 50.9853 34.9196 50.9571 34.9196Z" fill="#808080"/>
<path d="M50.2989 34.9196C50.2571 34.9196 50.2213 34.9046 50.1914 34.8747C50.1614 34.8448 50.1465 34.8089 50.1465 34.7672C50.1465 34.7254 50.1614 34.6895 50.1914 34.6596C50.2213 34.6297 50.2571 34.6147 50.2989 34.6147C50.3407 34.6147 50.3765 34.6297 50.4065 34.6596C50.4364 34.6895 50.4513 34.7254 50.4513 34.7672C50.4513 34.7948 50.4443 34.8202 50.4302 34.8434C50.4166 34.8665 50.3983 34.8852 50.3751 34.8993C50.3525 34.9128 50.3271 34.9196 50.2989 34.9196Z" fill="#808080"/>
<path d="M49.6427 34.9196C49.6009 34.9196 49.565 34.9046 49.5351 34.8747C49.5052 34.8448 49.4902 34.8089 49.4902 34.7672C49.4902 34.7254 49.5052 34.6895 49.5351 34.6596C49.565 34.6297 49.6009 34.6147 49.6427 34.6147C49.6844 34.6147 49.7203 34.6297 49.7502 34.6596C49.7801 34.6895 49.7951 34.7254 49.7951 34.7672C49.7951 34.7948 49.788 34.8202 49.7739 34.8434C49.7604 34.8665 49.742 34.8852 49.7189 34.8993C49.6963 34.9128 49.6709 34.9196 49.6427 34.9196Z" fill="#808080"/>
<path d="M48.9884 34.9196C48.9466 34.9196 48.9107 34.9046 48.8808 34.8747C48.8509 34.8448 48.8359 34.8089 48.8359 34.7672C48.8359 34.7254 48.8509 34.6895 48.8808 34.6596C48.9107 34.6297 48.9466 34.6147 48.9884 34.6147C49.0301 34.6147 49.066 34.6297 49.0959 34.6596C49.1258 34.6895 49.1408 34.7254 49.1408 34.7672C49.1408 34.7948 49.1337 34.8202 49.1196 34.8434C49.1061 34.8665 49.0877 34.8852 49.0646 34.8993C49.042 34.9128 49.0166 34.9196 48.9884 34.9196Z" fill="#808080"/>
<path d="M48.3282 34.9196C48.2864 34.9196 48.2506 34.9046 48.2207 34.8747C48.1907 34.8448 48.1758 34.8089 48.1758 34.7672C48.1758 34.7254 48.1907 34.6895 48.2207 34.6596C48.2506 34.6297 48.2864 34.6147 48.3282 34.6147C48.37 34.6147 48.4058 34.6297 48.4357 34.6596C48.4657 34.6895 48.4806 34.7254 48.4806 34.7672C48.4806 34.7948 48.4736 34.8202 48.4595 34.8434C48.4459 34.8665 48.4276 34.8852 48.4044 34.8993C48.3818 34.9128 48.3564 34.9196 48.3282 34.9196Z" fill="#808080"/>
<path d="M47.67 34.9196C47.6282 34.9196 47.5924 34.9046 47.5625 34.8747C47.5325 34.8448 47.5176 34.8089 47.5176 34.7672C47.5176 34.7254 47.5325 34.6895 47.5625 34.6596C47.5924 34.6297 47.6282 34.6147 47.67 34.6147C47.7118 34.6147 47.7476 34.6297 47.7775 34.6596C47.8075 34.6895 47.8224 34.7254 47.8224 34.7672C47.8224 34.7948 47.8154 34.8202 47.8013 34.8434C47.7877 34.8665 47.7694 34.8852 47.7462 34.8993C47.7236 34.9128 47.6982 34.9196 47.67 34.9196Z" fill="#808080"/>
<path d="M47.0157 34.9196C46.9739 34.9196 46.9381 34.9046 46.9082 34.8747C46.8782 34.8448 46.8633 34.8089 46.8633 34.7672C46.8633 34.7254 46.8782 34.6895 46.9082 34.6596C46.9381 34.6297 46.9739 34.6147 47.0157 34.6147C47.0575 34.6147 47.0933 34.6297 47.1232 34.6596C47.1532 34.6895 47.1681 34.7254 47.1681 34.7672C47.1681 34.7948 47.1611 34.8202 47.147 34.8434C47.1334 34.8665 47.1151 34.8852 47.0919 34.8993C47.0693 34.9128 47.0439 34.9196 47.0157 34.9196Z" fill="#808080"/>
<path d="M46.3595 34.9196C46.3177 34.9196 46.2818 34.9046 46.2519 34.8747C46.222 34.8448 46.207 34.8089 46.207 34.7672C46.207 34.7254 46.222 34.6895 46.2519 34.6596C46.2818 34.6297 46.3177 34.6147 46.3595 34.6147C46.4012 34.6147 46.4371 34.6297 46.467 34.6596C46.4969 34.6895 46.5119 34.7254 46.5119 34.7672C46.5119 34.7948 46.5048 34.8202 46.4907 34.8434C46.4772 34.8665 46.4588 34.8852 46.4357 34.8993C46.4131 34.9128 46.3877 34.9196 46.3595 34.9196Z" fill="#808080"/>
<path d="M45.7013 34.9196C45.6595 34.9196 45.6236 34.9046 45.5937 34.8747C45.5638 34.8448 45.5488 34.8089 45.5488 34.7672C45.5488 34.7254 45.5638 34.6895 45.5937 34.6596C45.6236 34.6297 45.6595 34.6147 45.7013 34.6147C45.743 34.6147 45.7789 34.6297 45.8088 34.6596C45.8387 34.6895 45.8537 34.7254 45.8537 34.7672C45.8537 34.7948 45.8466 34.8202 45.8325 34.8434C45.819 34.8665 45.8006 34.8852 45.7775 34.8993C45.7549 34.9128 45.7295 34.9196 45.7013 34.9196Z" fill="#808080"/>
<path d="M45.045 34.9196C45.0032 34.9196 44.9674 34.9046 44.9375 34.8747C44.9075 34.8448 44.8926 34.8089 44.8926 34.7672C44.8926 34.7254 44.9075 34.6895 44.9375 34.6596C44.9674 34.6297 45.0032 34.6147 45.045 34.6147C45.0868 34.6147 45.1226 34.6297 45.1525 34.6596C45.1825 34.6895 45.1974 34.7254 45.1974 34.7672C45.1974 34.7948 45.1904 34.8202 45.1763 34.8434C45.1627 34.8665 45.1444 34.8852 45.1212 34.8993C45.0986 34.9128 45.0732 34.9196 45.045 34.9196Z" fill="#808080"/>
<path d="M44.3868 34.9196C44.345 34.9196 44.3092 34.9046 44.2793 34.8747C44.2493 34.8448 44.2344 34.8089 44.2344 34.7672C44.2344 34.7254 44.2493 34.6895 44.2793 34.6596C44.3092 34.6297 44.345 34.6147 44.3868 34.6147C44.4286 34.6147 44.4644 34.6297 44.4943 34.6596C44.5243 34.6895 44.5392 34.7254 44.5392 34.7672C44.5392 34.7948 44.5322 34.8202 44.5181 34.8434C44.5045 34.8665 44.4862 34.8852 44.463 34.8993C44.4404 34.9128 44.415 34.9196 44.3868 34.9196Z" fill="#808080"/>
<path d="M43.7325 34.9196C43.6907 34.9196 43.6549 34.9046 43.625 34.8747C43.595 34.8448 43.5801 34.8089 43.5801 34.7672C43.5801 34.7254 43.595 34.6895 43.625 34.6596C43.6549 34.6297 43.6907 34.6147 43.7325 34.6147C43.7743 34.6147 43.8101 34.6297 43.84 34.6596C43.87 34.6895 43.8849 34.7254 43.8849 34.7672C43.8849 34.7948 43.8779 34.8202 43.8638 34.8434C43.8502 34.8665 43.8319 34.8852 43.8087 34.8993C43.7861 34.9128 43.7607 34.9196 43.7325 34.9196Z" fill="#808080"/>
<path d="M43.0763 34.9196C43.0345 34.9196 42.9986 34.9046 42.9687 34.8747C42.9388 34.8448 42.9238 34.8089 42.9238 34.7672C42.9238 34.7254 42.9388 34.6895 42.9687 34.6596C42.9986 34.6297 43.0345 34.6147 43.0763 34.6147C43.118 34.6147 43.1539 34.6297 43.1838 34.6596C43.2137 34.6895 43.2287 34.7254 43.2287 34.7672C43.2287 34.7948 43.2216 34.8202 43.2075 34.8434C43.194 34.8665 43.1756 34.8852 43.1525 34.8993C43.1299 34.9128 43.1045 34.9196 43.0763 34.9196Z" fill="#808080"/>
<path d="M42.418 34.9196C42.3763 34.9196 42.3404 34.9046 42.3105 34.8747C42.2806 34.8448 42.2656 34.8089 42.2656 34.7672C42.2656 34.7254 42.2806 34.6895 42.3105 34.6596C42.3404 34.6297 42.3763 34.6147 42.418 34.6147C42.4598 34.6147 42.4957 34.6297 42.5256 34.6596C42.5555 34.6895 42.5705 34.7254 42.5705 34.7672C42.5705 34.7948 42.5634 34.8202 42.5493 34.8434C42.5358 34.8665 42.5174 34.8852 42.4943 34.8993C42.4717 34.9128 42.4463 34.9196 42.418 34.9196Z" fill="#808080"/>
<path d="M41.7598 34.9196C41.7181 34.9196 41.6822 34.9046 41.6523 34.8747C41.6224 34.8448 41.6074 34.8089 41.6074 34.7672C41.6074 34.7254 41.6224 34.6895 41.6523 34.6596C41.6822 34.6297 41.7181 34.6147 41.7598 34.6147C41.8016 34.6147 41.8375 34.6297 41.8674 34.6596C41.8973 34.6895 41.9123 34.7254 41.9123 34.7672C41.9123 34.7948 41.9052 34.8202 41.8911 34.8434C41.8776 34.8665 41.8592 34.8852 41.8361 34.8993C41.8135 34.9128 41.7881 34.9196 41.7598 34.9196Z" fill="#808080"/>
<path d="M41.1036 34.9196C41.0618 34.9196 41.026 34.9046 40.9961 34.8747C40.9661 34.8448 40.9512 34.8089 40.9512 34.7672C40.9512 34.7254 40.9661 34.6895 40.9961 34.6596C41.026 34.6297 41.0618 34.6147 41.1036 34.6147C41.1454 34.6147 41.1812 34.6297 41.2111 34.6596C41.2411 34.6895 41.256 34.7254 41.256 34.7672C41.256 34.7948 41.249 34.8202 41.2349 34.8434C41.2213 34.8665 41.203 34.8852 41.1798 34.8993C41.1572 34.9128 41.1318 34.9196 41.1036 34.9196Z" fill="#808080"/>
<path d="M40.4454 34.9196C40.4036 34.9196 40.3678 34.9046 40.3378 34.8747C40.3079 34.8448 40.293 34.8089 40.293 34.7672C40.293 34.7254 40.3079 34.6895 40.3378 34.6596C40.3678 34.6297 40.4036 34.6147 40.4454 34.6147C40.4872 34.6147 40.523 34.6297 40.5529 34.6596C40.5829 34.6895 40.5978 34.7254 40.5978 34.7672C40.5978 34.7948 40.5908 34.8202 40.5766 34.8434C40.5631 34.8665 40.5448 34.8852 40.5216 34.8993C40.499 34.9128 40.4736 34.9196 40.4454 34.9196Z" fill="#808080"/>
<path d="M39.7911 34.9196C39.7493 34.9196 39.7135 34.9046 39.6836 34.8747C39.6536 34.8448 39.6387 34.8089 39.6387 34.7672C39.6387 34.7254 39.6536 34.6895 39.6836 34.6596C39.7135 34.6297 39.7493 34.6147 39.7911 34.6147C39.8329 34.6147 39.8687 34.6297 39.8986 34.6596C39.9286 34.6895 39.9435 34.7254 39.9435 34.7672C39.9435 34.7948 39.9365 34.8202 39.9224 34.8434C39.9088 34.8665 39.8905 34.8852 39.8673 34.8993C39.8447 34.9128 39.8193 34.9196 39.7911 34.9196Z" fill="#808080"/>
<path d="M39.1368 34.9196C39.095 34.9196 39.0592 34.9046 39.0293 34.8747C38.9993 34.8448 38.9844 34.8089 38.9844 34.7672C38.9844 34.7254 38.9993 34.6895 39.0293 34.6596C39.0592 34.6297 39.095 34.6147 39.1368 34.6147C39.1786 34.6147 39.2144 34.6297 39.2443 34.6596C39.2743 34.6895 39.2892 34.7254 39.2892 34.7672C39.2892 34.7948 39.2822 34.8202 39.2681 34.8434C39.2545 34.8665 39.2362 34.8852 39.213 34.8993C39.1904 34.9128 39.165 34.9196 39.1368 34.9196Z" fill="#808080"/>
<path d="M38.4786 34.9196C38.4368 34.9196 38.401 34.9046 38.3711 34.8747C38.3411 34.8448 38.3262 34.8089 38.3262 34.7672C38.3262 34.7254 38.3411 34.6895 38.3711 34.6596C38.401 34.6297 38.4368 34.6147 38.4786 34.6147C38.5204 34.6147 38.5562 34.6297 38.5861 34.6596C38.6161 34.6895 38.631 34.7254 38.631 34.7672C38.631 34.7948 38.624 34.8202 38.6099 34.8434C38.5963 34.8665 38.578 34.8852 38.5548 34.8993C38.5322 34.9128 38.5068 34.9196 38.4786 34.9196Z" fill="#808080"/>
<path d="M37.8204 34.9196C37.7786 34.9196 37.7428 34.9046 37.7128 34.8747C37.6829 34.8448 37.668 34.8089 37.668 34.7672C37.668 34.7254 37.6829 34.6895 37.7128 34.6596C37.7428 34.6297 37.7786 34.6147 37.8204 34.6147C37.8622 34.6147 37.898 34.6297 37.9279 34.6596C37.9579 34.6895 37.9728 34.7254 37.9728 34.7672C37.9728 34.7948 37.9658 34.8202 37.9516 34.8434C37.9381 34.8665 37.9198 34.8852 37.8966 34.8993C37.874 34.9128 37.8486 34.9196 37.8204 34.9196Z" fill="#808080"/>
<path d="M37.1641 34.9196C37.1224 34.9196 37.0865 34.9046 37.0566 34.8747C37.0267 34.8448 37.0117 34.8089 37.0117 34.7672C37.0117 34.7254 37.0267 34.6895 37.0566 34.6596C37.0865 34.6297 37.1224 34.6147 37.1641 34.6147C37.2059 34.6147 37.2418 34.6297 37.2717 34.6596C37.3016 34.6895 37.3166 34.7254 37.3166 34.7672C37.3166 34.7948 37.3095 34.8202 37.2954 34.8434C37.2818 34.8665 37.2635 34.8852 37.2404 34.8993C37.2178 34.9128 37.1924 34.9196 37.1641 34.9196Z" fill="#808080"/>
<path d="M36.5079 34.9196C36.4661 34.9196 36.4303 34.9046 36.4003 34.8747C36.3704 34.8448 36.3555 34.8089 36.3555 34.7672C36.3555 34.7254 36.3704 34.6895 36.4003 34.6596C36.4303 34.6297 36.4661 34.6147 36.5079 34.6147C36.5497 34.6147 36.5855 34.6297 36.6154 34.6596C36.6454 34.6895 36.6603 34.7254 36.6603 34.7672C36.6603 34.7948 36.6533 34.8202 36.6391 34.8434C36.6256 34.8665 36.6073 34.8852 36.5841 34.8993C36.5615 34.9128 36.5361 34.9196 36.5079 34.9196Z" fill="#808080"/>
<path d="M35.8516 34.9196C35.8099 34.9196 35.774 34.9046 35.7441 34.8747C35.7142 34.8448 35.6992 34.8089 35.6992 34.7672C35.6992 34.7254 35.7142 34.6895 35.7441 34.6596C35.774 34.6297 35.8099 34.6147 35.8516 34.6147C35.8934 34.6147 35.9293 34.6297 35.9592 34.6596C35.9891 34.6895 36.0041 34.7254 36.0041 34.7672C36.0041 34.7948 35.997 34.8202 35.9829 34.8434C35.9693 34.8665 35.951 34.8852 35.9279 34.8993C35.9053 34.9128 35.8799 34.9196 35.8516 34.9196Z" fill="#808080"/>
<path d="M35.1934 34.9196C35.1517 34.9196 35.1158 34.9046 35.0859 34.8747C35.056 34.8448 35.041 34.8089 35.041 34.7672C35.041 34.7254 35.056 34.6895 35.0859 34.6596C35.1158 34.6297 35.1517 34.6147 35.1934 34.6147C35.2352 34.6147 35.2711 34.6297 35.301 34.6596C35.3309 34.6895 35.3459 34.7254 35.3459 34.7672C35.3459 34.7948 35.3388 34.8202 35.3247 34.8434C35.3111 34.8665 35.2928 34.8852 35.2697 34.8993C35.2471 34.9128 35.2217 34.9196 35.1934 34.9196Z" fill="#808080"/>
<path d="M34.5352 34.9196C34.4935 34.9196 34.4576 34.9046 34.4277 34.8747C34.3978 34.8448 34.3828 34.8089 34.3828 34.7672C34.3828 34.7254 34.3978 34.6895 34.4277 34.6596C34.4576 34.6297 34.4935 34.6147 34.5352 34.6147C34.577 34.6147 34.6129 34.6297 34.6428 34.6596C34.6727 34.6895 34.6877 34.7254 34.6877 34.7672C34.6877 34.7948 34.6806 34.8202 34.6665 34.8434C34.6529 34.8665 34.6346 34.8852 34.6114 34.8993C34.5889 34.9128 34.5635 34.9196 34.5352 34.9196Z" fill="#808080"/>
<path d="M33.8809 34.9196C33.8392 34.9196 33.8033 34.9046 33.7734 34.8747C33.7435 34.8448 33.7285 34.8089 33.7285 34.7672C33.7285 34.7254 33.7435 34.6895 33.7734 34.6596C33.8033 34.6297 33.8392 34.6147 33.8809 34.6147C33.9227 34.6147 33.9586 34.6297 33.9885 34.6596C34.0184 34.6895 34.0334 34.7254 34.0334 34.7672C34.0334 34.7948 34.0263 34.8202 34.0122 34.8434C33.9986 34.8665 33.9803 34.8852 33.9572 34.8993C33.9346 34.9128 33.9092 34.9196 33.8809 34.9196Z" fill="#808080"/>
<path d="M59.7774 39.4513C59.7356 39.4513 59.6998 39.4364 59.6699 39.4065C59.64 39.3765 59.625 39.3407 59.625 39.2989C59.625 39.2571 59.64 39.2213 59.6699 39.1914C59.6998 39.1614 59.7356 39.1465 59.7774 39.1465C59.8192 39.1465 59.855 39.1614 59.885 39.1914C59.9149 39.2213 59.9298 39.2571 59.9298 39.2989C59.9298 39.3266 59.9228 39.352 59.9087 39.3751C59.8951 39.3983 59.8768 39.4169 59.8536 39.431C59.8311 39.4446 59.8056 39.4513 59.7774 39.4513Z" fill="#808080"/>
<path d="M59.1212 39.4513C59.0794 39.4513 59.0436 39.4364 59.0136 39.4065C58.9837 39.3765 58.9688 39.3407 58.9688 39.2989C58.9688 39.2571 58.9837 39.2213 59.0136 39.1914C59.0436 39.1614 59.0794 39.1465 59.1212 39.1465C59.1629 39.1465 59.1988 39.1614 59.2287 39.1914C59.2586 39.2213 59.2736 39.2571 59.2736 39.2989C59.2736 39.3266 59.2665 39.352 59.2524 39.3751C59.2389 39.3983 59.2205 39.4169 59.1974 39.431C59.1748 39.4446 59.1494 39.4513 59.1212 39.4513Z" fill="#808080"/>
<path d="M58.4649 39.4513C58.4231 39.4513 58.3873 39.4364 58.3574 39.4065C58.3275 39.3765 58.3125 39.3407 58.3125 39.2989C58.3125 39.2571 58.3275 39.2213 58.3574 39.1914C58.3873 39.1614 58.4231 39.1465 58.4649 39.1465C58.5067 39.1465 58.5425 39.1614 58.5725 39.1914C58.6024 39.2213 58.6173 39.2571 58.6173 39.2989C58.6173 39.3266 58.6103 39.352 58.5962 39.3751C58.5826 39.3983 58.5643 39.4169 58.5411 39.431C58.5186 39.4446 58.4931 39.4513 58.4649 39.4513Z" fill="#808080"/>
<path d="M57.8106 39.4513C57.7689 39.4513 57.733 39.4364 57.7031 39.4065C57.6732 39.3765 57.6582 39.3407 57.6582 39.2989C57.6582 39.2571 57.6732 39.2213 57.7031 39.1914C57.733 39.1614 57.7689 39.1465 57.8106 39.1465C57.8524 39.1465 57.8882 39.1614 57.9182 39.1914C57.9481 39.2213 57.9631 39.2571 57.9631 39.2989C57.9631 39.3266 57.956 39.352 57.9419 39.3751C57.9283 39.3983 57.91 39.4169 57.8868 39.431C57.8643 39.4446 57.8389 39.4513 57.8106 39.4513Z" fill="#808080"/>
<path d="M57.1485 39.4513C57.1067 39.4513 57.0709 39.4364 57.041 39.4065C57.0111 39.3765 56.9961 39.3407 56.9961 39.2989C56.9961 39.2571 57.0111 39.2213 57.041 39.1914C57.0709 39.1614 57.1067 39.1465 57.1485 39.1465C57.1903 39.1465 57.2261 39.1614 57.2561 39.1914C57.286 39.2213 57.3009 39.2571 57.3009 39.2989C57.3009 39.3266 57.2939 39.352 57.2798 39.3751C57.2662 39.3983 57.2479 39.4169 57.2247 39.431C57.2021 39.4446 57.1767 39.4513 57.1485 39.4513Z" fill="#808080"/>
<path d="M56.4923 39.4513C56.4505 39.4513 56.4146 39.4364 56.3847 39.4065C56.3548 39.3765 56.3398 39.3407 56.3398 39.2989C56.3398 39.2571 56.3548 39.2213 56.3847 39.1914C56.4146 39.1614 56.4505 39.1465 56.4923 39.1465C56.534 39.1465 56.5699 39.1614 56.5998 39.1914C56.6297 39.2213 56.6447 39.2571 56.6447 39.2989C56.6447 39.3266 56.6376 39.352 56.6235 39.3751C56.61 39.3983 56.5916 39.4169 56.5685 39.431C56.5459 39.4446 56.5205 39.4513 56.4923 39.4513Z" fill="#808080"/>
<path d="M55.838 39.4513C55.7962 39.4513 55.7603 39.4364 55.7304 39.4065C55.7005 39.3765 55.6855 39.3407 55.6855 39.2989C55.6855 39.2571 55.7005 39.2213 55.7304 39.1914C55.7603 39.1614 55.7962 39.1465 55.838 39.1465C55.8797 39.1465 55.9156 39.1614 55.9455 39.1914C55.9754 39.2213 55.9904 39.2571 55.9904 39.2989C55.9904 39.3266 55.9833 39.352 55.9692 39.3751C55.9557 39.3983 55.9373 39.4169 55.9142 39.431C55.8916 39.4446 55.8662 39.4513 55.838 39.4513Z" fill="#808080"/>
<path d="M55.1817 39.4513C55.1399 39.4513 55.1041 39.4364 55.0742 39.4065C55.0443 39.3765 55.0293 39.3407 55.0293 39.2989C55.0293 39.2571 55.0443 39.2213 55.0742 39.1914C55.1041 39.1614 55.1399 39.1465 55.1817 39.1465C55.2235 39.1465 55.2593 39.1614 55.2893 39.1914C55.3192 39.2213 55.3341 39.2571 55.3341 39.2989C55.3341 39.3266 55.3271 39.352 55.313 39.3751C55.2994 39.3983 55.2811 39.4169 55.2579 39.431C55.2354 39.4446 55.2099 39.4513 55.1817 39.4513Z" fill="#808080"/>
<path d="M54.5235 39.4513C54.4817 39.4513 54.4459 39.4364 54.416 39.4065C54.3861 39.3765 54.3711 39.3407 54.3711 39.2989C54.3711 39.2571 54.3861 39.2213 54.416 39.1914C54.4459 39.1614 54.4817 39.1465 54.5235 39.1465C54.5653 39.1465 54.6011 39.1614 54.6311 39.1914C54.661 39.2213 54.6759 39.2571 54.6759 39.2989C54.6759 39.3266 54.6689 39.352 54.6548 39.3751C54.6412 39.3983 54.6229 39.4169 54.5997 39.431C54.5771 39.4446 54.5517 39.4513 54.5235 39.4513Z" fill="#808080"/>
<path d="M53.8673 39.4513C53.8255 39.4513 53.7896 39.4364 53.7597 39.4065C53.7298 39.3765 53.7148 39.3407 53.7148 39.2989C53.7148 39.2571 53.7298 39.2213 53.7597 39.1914C53.7896 39.1614 53.8255 39.1465 53.8673 39.1465C53.909 39.1465 53.9449 39.1614 53.9748 39.1914C54.0047 39.2213 54.0197 39.2571 54.0197 39.2989C54.0197 39.3266 54.0126 39.352 53.9985 39.3751C53.985 39.3983 53.9666 39.4169 53.9435 39.431C53.9209 39.4446 53.8955 39.4513 53.8673 39.4513Z" fill="#808080"/>
<path d="M53.2091 39.4513C53.1673 39.4513 53.1314 39.4364 53.1015 39.4065C53.0716 39.3765 53.0566 39.3407 53.0566 39.2989C53.0566 39.2571 53.0716 39.2213 53.1015 39.1914C53.1314 39.1614 53.1673 39.1465 53.2091 39.1465C53.2508 39.1465 53.2867 39.1614 53.3166 39.1914C53.3465 39.2213 53.3615 39.2571 53.3615 39.2989C53.3615 39.3266 53.3544 39.352 53.3403 39.3751C53.3268 39.3983 53.3084 39.4169 53.2853 39.431C53.2627 39.4446 53.2373 39.4513 53.2091 39.4513Z" fill="#808080"/>
<path d="M52.5528 39.4513C52.511 39.4513 52.4752 39.4364 52.4453 39.4065C52.4154 39.3765 52.4004 39.3407 52.4004 39.2989C52.4004 39.2571 52.4154 39.2213 52.4453 39.1914C52.4752 39.1614 52.511 39.1465 52.5528 39.1465C52.5946 39.1465 52.6304 39.1614 52.6604 39.1914C52.6903 39.2213 52.7052 39.2571 52.7052 39.2989C52.7052 39.3266 52.6982 39.352 52.6841 39.3751C52.6705 39.3983 52.6522 39.4169 52.629 39.431C52.6064 39.4446 52.581 39.4513 52.5528 39.4513Z" fill="#808080"/>
<path d="M51.8985 39.4513C51.8567 39.4513 51.8209 39.4364 51.791 39.4065C51.7611 39.3765 51.7461 39.3407 51.7461 39.2989C51.7461 39.2571 51.7611 39.2213 51.791 39.1914C51.8209 39.1614 51.8567 39.1465 51.8985 39.1465C51.9403 39.1465 51.9761 39.1614 52.0061 39.1914C52.036 39.2213 52.0509 39.2571 52.0509 39.2989C52.0509 39.3266 52.0439 39.352 52.0298 39.3751C52.0162 39.3983 51.9979 39.4169 51.9747 39.431C51.9521 39.4446 51.9267 39.4513 51.8985 39.4513Z" fill="#808080"/>
<path d="M51.2403 39.4513C51.1985 39.4513 51.1627 39.4364 51.1328 39.4065C51.1029 39.3765 51.0879 39.3407 51.0879 39.2989C51.0879 39.2571 51.1029 39.2213 51.1328 39.1914C51.1627 39.1614 51.1985 39.1465 51.2403 39.1465C51.2821 39.1465 51.3179 39.1614 51.3479 39.1914C51.3778 39.2213 51.3927 39.2571 51.3927 39.2989C51.3927 39.3266 51.3857 39.352 51.3716 39.3751C51.358 39.3983 51.3397 39.4169 51.3165 39.431C51.2939 39.4446 51.2685 39.4513 51.2403 39.4513Z" fill="#808080"/>
<path d="M50.5821 39.4513C50.5403 39.4513 50.5045 39.4364 50.4746 39.4065C50.4446 39.3765 50.4297 39.3407 50.4297 39.2989C50.4297 39.2571 50.4446 39.2213 50.4746 39.1914C50.5045 39.1614 50.5403 39.1465 50.5821 39.1465C50.6239 39.1465 50.6597 39.1614 50.6897 39.1914C50.7196 39.2213 50.7345 39.2571 50.7345 39.2989C50.7345 39.3266 50.7275 39.352 50.7134 39.3751C50.6998 39.3983 50.6815 39.4169 50.6583 39.431C50.6357 39.4446 50.6103 39.4513 50.5821 39.4513Z" fill="#808080"/>
<path d="M49.9239 39.4513C49.8821 39.4513 49.8463 39.4364 49.8164 39.4065C49.7864 39.3765 49.7715 39.3407 49.7715 39.2989C49.7715 39.2571 49.7864 39.2213 49.8164 39.1914C49.8463 39.1614 49.8821 39.1465 49.9239 39.1465C49.9657 39.1465 50.0015 39.1614 50.0315 39.1914C50.0614 39.2213 50.0763 39.2571 50.0763 39.2989C50.0763 39.3266 50.0693 39.352 50.0552 39.3751C50.0416 39.3983 50.0233 39.4169 50.0001 39.431C49.9775 39.4446 49.9521 39.4513 49.9239 39.4513Z" fill="#808080"/>
<path d="M49.2677 39.4513C49.2259 39.4513 49.19 39.4364 49.1601 39.4065C49.1302 39.3765 49.1152 39.3407 49.1152 39.2989C49.1152 39.2571 49.1302 39.2213 49.1601 39.1914C49.19 39.1614 49.2259 39.1465 49.2677 39.1465C49.3094 39.1465 49.3453 39.1614 49.3752 39.1914C49.4051 39.2213 49.4201 39.2571 49.4201 39.2989C49.4201 39.3266 49.413 39.352 49.3989 39.3751C49.3854 39.3983 49.367 39.4169 49.3439 39.431C49.3213 39.4446 49.2959 39.4513 49.2677 39.4513Z" fill="#808080"/>
<path d="M48.6134 39.4513C48.5716 39.4513 48.5357 39.4364 48.5058 39.4065C48.4759 39.3765 48.4609 39.3407 48.4609 39.2989C48.4609 39.2571 48.4759 39.2213 48.5058 39.1914C48.5357 39.1614 48.5716 39.1465 48.6134 39.1465C48.6551 39.1465 48.691 39.1614 48.7209 39.1914C48.7508 39.2213 48.7658 39.2571 48.7658 39.2989C48.7658 39.3266 48.7587 39.352 48.7446 39.3751C48.7311 39.3983 48.7127 39.4169 48.6896 39.431C48.667 39.4446 48.6416 39.4513 48.6134 39.4513Z" fill="#808080"/>
<path d="M47.9571 39.4513C47.9153 39.4513 47.8795 39.4364 47.8496 39.4065C47.8196 39.3765 47.8047 39.3407 47.8047 39.2989C47.8047 39.2571 47.8196 39.2213 47.8496 39.1914C47.8795 39.1614 47.9153 39.1465 47.9571 39.1465C47.9989 39.1465 48.0347 39.1614 48.0647 39.1914C48.0946 39.2213 48.1095 39.2571 48.1095 39.2989C48.1095 39.3266 48.1025 39.352 48.0884 39.3751C48.0748 39.3983 48.0565 39.4169 48.0333 39.431C48.0107 39.4446 47.9853 39.4513 47.9571 39.4513Z" fill="#808080"/>
<path d="M47.2989 39.4513C47.2571 39.4513 47.2213 39.4364 47.1914 39.4065C47.1614 39.3765 47.1465 39.3407 47.1465 39.2989C47.1465 39.2571 47.1614 39.2213 47.1914 39.1914C47.2213 39.1614 47.2571 39.1465 47.2989 39.1465C47.3407 39.1465 47.3765 39.1614 47.4065 39.1914C47.4364 39.2213 47.4513 39.2571 47.4513 39.2989C47.4513 39.3266 47.4443 39.352 47.4302 39.3751C47.4166 39.3983 47.3983 39.4169 47.3751 39.431C47.3525 39.4446 47.3271 39.4513 47.2989 39.4513Z" fill="#808080"/>
<path d="M46.6427 39.4513C46.6009 39.4513 46.565 39.4364 46.5351 39.4065C46.5052 39.3765 46.4902 39.3407 46.4902 39.2989C46.4902 39.2571 46.5052 39.2213 46.5351 39.1914C46.565 39.1614 46.6009 39.1465 46.6427 39.1465C46.6844 39.1465 46.7203 39.1614 46.7502 39.1914C46.7801 39.2213 46.7951 39.2571 46.7951 39.2989C46.7951 39.3266 46.788 39.352 46.7739 39.3751C46.7604 39.3983 46.742 39.4169 46.7189 39.431C46.6963 39.4446 46.6709 39.4513 46.6427 39.4513Z" fill="#808080"/>
<path d="M45.9864 39.4513C45.9446 39.4513 45.9088 39.4364 45.8789 39.4065C45.8489 39.3765 45.834 39.3407 45.834 39.2989C45.834 39.2571 45.8489 39.2213 45.8789 39.1914C45.9088 39.1614 45.9446 39.1465 45.9864 39.1465C46.0282 39.1465 46.064 39.1614 46.094 39.1914C46.1239 39.2213 46.1388 39.2571 46.1388 39.2989C46.1388 39.3266 46.1318 39.352 46.1177 39.3751C46.1041 39.3983 46.0858 39.4169 46.0626 39.431C46.04 39.4446 46.0146 39.4513 45.9864 39.4513Z" fill="#808080"/>
<path d="M45.3302 39.4513C45.2884 39.4513 45.2525 39.4364 45.2226 39.4065C45.1927 39.3765 45.1777 39.3407 45.1777 39.2989C45.1777 39.2571 45.1927 39.2213 45.2226 39.1914C45.2525 39.1614 45.2884 39.1465 45.3302 39.1465C45.3719 39.1465 45.4078 39.1614 45.4377 39.1914C45.4676 39.2213 45.4826 39.2571 45.4826 39.2989C45.4826 39.3266 45.4755 39.352 45.4614 39.3751C45.4479 39.3983 45.4295 39.4169 45.4064 39.431C45.3838 39.4446 45.3584 39.4513 45.3302 39.4513Z" fill="#808080"/>
<path d="M44.672 39.4513C44.6302 39.4513 44.5943 39.4364 44.5644 39.4065C44.5345 39.3765 44.5195 39.3407 44.5195 39.2989C44.5195 39.2571 44.5345 39.2213 44.5644 39.1914C44.5943 39.1614 44.6302 39.1465 44.672 39.1465C44.7137 39.1465 44.7496 39.1614 44.7795 39.1914C44.8094 39.2213 44.8244 39.2571 44.8244 39.2989C44.8244 39.3266 44.8173 39.352 44.8032 39.3751C44.7897 39.3983 44.7713 39.4169 44.7482 39.431C44.7256 39.4446 44.7002 39.4513 44.672 39.4513Z" fill="#808080"/>
<path d="M44.0157 39.4513C43.9739 39.4513 43.9381 39.4364 43.9082 39.4065C43.8782 39.3765 43.8633 39.3407 43.8633 39.2989C43.8633 39.2571 43.8782 39.2213 43.9082 39.1914C43.9381 39.1614 43.9739 39.1465 44.0157 39.1465C44.0575 39.1465 44.0933 39.1614 44.1232 39.1914C44.1532 39.2213 44.1681 39.2571 44.1681 39.2989C44.1681 39.3266 44.1611 39.352 44.147 39.3751C44.1334 39.3983 44.1151 39.4169 44.0919 39.431C44.0693 39.4446 44.0439 39.4513 44.0157 39.4513Z" fill="#808080"/>
<path d="M43.3575 39.4513C43.3157 39.4513 43.2799 39.4364 43.25 39.4065C43.22 39.3765 43.2051 39.3407 43.2051 39.2989C43.2051 39.2571 43.22 39.2213 43.25 39.1914C43.2799 39.1614 43.3157 39.1465 43.3575 39.1465C43.3993 39.1465 43.4351 39.1614 43.465 39.1914C43.495 39.2213 43.5099 39.2571 43.5099 39.2989C43.5099 39.3266 43.5029 39.352 43.4888 39.3751C43.4752 39.3983 43.4569 39.4169 43.4337 39.431C43.4111 39.4446 43.3857 39.4513 43.3575 39.4513Z" fill="#808080"/>
<path d="M42.7032 39.4513C42.6614 39.4513 42.6256 39.4364 42.5957 39.4065C42.5657 39.3765 42.5508 39.3407 42.5508 39.2989C42.5508 39.2571 42.5657 39.2213 42.5957 39.1914C42.6256 39.1614 42.6614 39.1465 42.7032 39.1465C42.745 39.1465 42.7808 39.1614 42.8107 39.1914C42.8407 39.2213 42.8556 39.2571 42.8556 39.2989C42.8556 39.3266 42.8486 39.352 42.8345 39.3751C42.8209 39.3983 42.8026 39.4169 42.7794 39.431C42.7568 39.4446 42.7314 39.4513 42.7032 39.4513Z" fill="#808080"/>
<path d="M60.1368 43.9821C60.095 43.9821 60.0592 43.9671 60.0293 43.9372C59.9993 43.9073 59.9844 43.8714 59.9844 43.8297C59.9844 43.7879 59.9993 43.752 60.0293 43.7221C60.0592 43.6922 60.095 43.6772 60.1368 43.6772C60.1786 43.6772 60.2144 43.6922 60.2443 43.7221C60.2743 43.752 60.2892 43.7879 60.2892 43.8297C60.2892 43.8573 60.2822 43.8827 60.2681 43.9059C60.2545 43.929 60.2362 43.9477 60.213 43.9618C60.1904 43.9753 60.165 43.9821 60.1368 43.9821Z" fill="#808080"/>
<path d="M59.4825 43.9821C59.4407 43.9821 59.4049 43.9671 59.375 43.9372C59.345 43.9073 59.3301 43.8714 59.3301 43.8297C59.3301 43.7879 59.345 43.752 59.375 43.7221C59.4049 43.6922 59.4407 43.6772 59.4825 43.6772C59.5243 43.6772 59.5601 43.6922 59.59 43.7221C59.62 43.752 59.6349 43.7879 59.6349 43.8297C59.6349 43.8573 59.6279 43.8827 59.6138 43.9059C59.6002 43.929 59.5819 43.9477 59.5587 43.9618C59.5361 43.9753 59.5107 43.9821 59.4825 43.9821Z" fill="#808080"/>
<path d="M58.8243 43.9821C58.7825 43.9821 58.7467 43.9671 58.7168 43.9372C58.6868 43.9073 58.6719 43.8714 58.6719 43.8297C58.6719 43.7879 58.6868 43.752 58.7168 43.7221C58.7467 43.6922 58.7825 43.6772 58.8243 43.6772C58.8661 43.6772 58.9019 43.6922 58.9318 43.7221C58.9618 43.752 58.9767 43.7879 58.9767 43.8297C58.9767 43.8573 58.9697 43.8827 58.9556 43.9059C58.942 43.929 58.9237 43.9477 58.9005 43.9618C58.8779 43.9753 58.8525 43.9821 58.8243 43.9821Z" fill="#808080"/>
<path d="M58.168 43.9821C58.1263 43.9821 58.0904 43.9671 58.0605 43.9372C58.0306 43.9073 58.0156 43.8714 58.0156 43.8297C58.0156 43.7879 58.0306 43.752 58.0605 43.7221C58.0904 43.6922 58.1263 43.6772 58.168 43.6772C58.2098 43.6772 58.2457 43.6922 58.2756 43.7221C58.3055 43.752 58.3205 43.7879 58.3205 43.8297C58.3205 43.8573 58.3134 43.8827 58.2993 43.9059C58.2858 43.929 58.2674 43.9477 58.2443 43.9618C58.2217 43.9753 58.1963 43.9821 58.168 43.9821Z" fill="#808080"/>
<path d="M57.5118 43.9821C57.47 43.9821 57.4342 43.9671 57.4043 43.9372C57.3743 43.9073 57.3594 43.8714 57.3594 43.8297C57.3594 43.7879 57.3743 43.752 57.4043 43.7221C57.4342 43.6922 57.47 43.6772 57.5118 43.6772C57.5536 43.6772 57.5894 43.6922 57.6193 43.7221C57.6493 43.752 57.6642 43.7879 57.6642 43.8297C57.6642 43.8573 57.6572 43.8827 57.6431 43.9059C57.6295 43.929 57.6112 43.9477 57.588 43.9618C57.5654 43.9753 57.54 43.9821 57.5118 43.9821Z" fill="#808080"/>
<path d="M56.8555 43.9821C56.8138 43.9821 56.7779 43.9671 56.748 43.9372C56.7181 43.9073 56.7031 43.8714 56.7031 43.8297C56.7031 43.7879 56.7181 43.752 56.748 43.7221C56.7779 43.6922 56.8138 43.6772 56.8555 43.6772C56.8973 43.6772 56.9332 43.6922 56.9631 43.7221C56.993 43.752 57.008 43.7879 57.008 43.8297C57.008 43.8573 57.0009 43.8827 56.9868 43.9059C56.9733 43.929 56.9549 43.9477 56.9318 43.9618C56.9092 43.9753 56.8838 43.9821 56.8555 43.9821Z" fill="#808080"/>
<path d="M56.1993 43.9821C56.1575 43.9821 56.1217 43.9671 56.0918 43.9372C56.0618 43.9073 56.0469 43.8714 56.0469 43.8297C56.0469 43.7879 56.0618 43.752 56.0918 43.7221C56.1217 43.6922 56.1575 43.6772 56.1993 43.6772C56.2411 43.6772 56.2769 43.6922 56.3068 43.7221C56.3368 43.752 56.3517 43.7879 56.3517 43.8297C56.3517 43.8573 56.3447 43.8827 56.3306 43.9059C56.317 43.929 56.2987 43.9477 56.2755 43.9618C56.2529 43.9753 56.2275 43.9821 56.1993 43.9821Z" fill="#808080"/>
<path d="M55.543 43.9821C55.5013 43.9821 55.4654 43.9671 55.4355 43.9372C55.4056 43.9073 55.3906 43.8714 55.3906 43.8297C55.3906 43.7879 55.4056 43.752 55.4355 43.7221C55.4654 43.6922 55.5013 43.6772 55.543 43.6772C55.5848 43.6772 55.6207 43.6922 55.6506 43.7221C55.6805 43.752 55.6955 43.7879 55.6955 43.8297C55.6955 43.8573 55.6884 43.8827 55.6743 43.9059C55.6608 43.929 55.6424 43.9477 55.6193 43.9618C55.5967 43.9753 55.5713 43.9821 55.543 43.9821Z" fill="#808080"/>
<path d="M54.8848 43.9821C54.8431 43.9821 54.8072 43.9671 54.7773 43.9372C54.7474 43.9073 54.7324 43.8714 54.7324 43.8297C54.7324 43.7879 54.7474 43.752 54.7773 43.7221C54.8072 43.6922 54.8431 43.6772 54.8848 43.6772C54.9266 43.6772 54.9625 43.6922 54.9924 43.7221C55.0223 43.752 55.0373 43.7879 55.0373 43.8297C55.0373 43.8573 55.0302 43.8827 55.0161 43.9059C55.0026 43.929 54.9842 43.9477 54.9611 43.9618C54.9385 43.9753 54.9131 43.9821 54.8848 43.9821Z" fill="#808080"/>
<path d="M54.2247 43.9821C54.1829 43.9821 54.1471 43.9671 54.1171 43.9372C54.0872 43.9073 54.0723 43.8714 54.0723 43.8297C54.0723 43.7879 54.0872 43.752 54.1171 43.7221C54.1471 43.6922 54.1829 43.6772 54.2247 43.6772C54.2665 43.6772 54.3023 43.6922 54.3322 43.7221C54.3622 43.752 54.3771 43.7879 54.3771 43.8297C54.3771 43.8573 54.3701 43.8827 54.3559 43.9059C54.3424 43.929 54.324 43.9477 54.3009 43.9618C54.2783 43.9753 54.2529 43.9821 54.2247 43.9821Z" fill="#808080"/>
<path d="M53.5704 43.9821C53.5286 43.9821 53.4928 43.9671 53.4628 43.9372C53.4329 43.9073 53.418 43.8714 53.418 43.8297C53.418 43.7879 53.4329 43.752 53.4628 43.7221C53.4928 43.6922 53.5286 43.6772 53.5704 43.6772C53.6122 43.6772 53.648 43.6922 53.6779 43.7221C53.7079 43.752 53.7228 43.7879 53.7228 43.8297C53.7228 43.8573 53.7158 43.8827 53.7016 43.9059C53.6881 43.929 53.6698 43.9477 53.6466 43.9618C53.624 43.9753 53.5986 43.9821 53.5704 43.9821Z" fill="#808080"/>
<path d="M52.9161 43.9821C52.8743 43.9821 52.8385 43.9671 52.8086 43.9372C52.7786 43.9073 52.7637 43.8714 52.7637 43.8297C52.7637 43.7879 52.7786 43.752 52.8086 43.7221C52.8385 43.6922 52.8743 43.6772 52.9161 43.6772C52.9579 43.6772 52.9937 43.6922 53.0236 43.7221C53.0536 43.752 53.0685 43.7879 53.0685 43.8297C53.0685 43.8573 53.0615 43.8827 53.0474 43.9059C53.0338 43.929 53.0155 43.9477 52.9923 43.9618C52.9697 43.9753 52.9443 43.9821 52.9161 43.9821Z" fill="#808080"/>
<path d="M52.2579 43.9821C52.2161 43.9821 52.1803 43.9671 52.1503 43.9372C52.1204 43.9073 52.1055 43.8714 52.1055 43.8297C52.1055 43.7879 52.1204 43.752 52.1503 43.7221C52.1803 43.6922 52.2161 43.6772 52.2579 43.6772C52.2997 43.6772 52.3355 43.6922 52.3654 43.7221C52.3954 43.752 52.4103 43.7879 52.4103 43.8297C52.4103 43.8573 52.4033 43.8827 52.3891 43.9059C52.3756 43.929 52.3573 43.9477 52.3341 43.9618C52.3115 43.9753 52.2861 43.9821 52.2579 43.9821Z" fill="#808080"/>
<path d="M51.6016 43.9821C51.5599 43.9821 51.524 43.9671 51.4941 43.9372C51.4642 43.9073 51.4492 43.8714 51.4492 43.8297C51.4492 43.7879 51.4642 43.752 51.4941 43.7221C51.524 43.6922 51.5599 43.6772 51.6016 43.6772C51.6434 43.6772 51.6793 43.6922 51.7092 43.7221C51.7391 43.752 51.7541 43.7879 51.7541 43.8297C51.7541 43.8573 51.747 43.8827 51.7329 43.9059C51.7193 43.929 51.701 43.9477 51.6779 43.9618C51.6553 43.9753 51.6299 43.9821 51.6016 43.9821Z" fill="#808080"/>
<path d="M50.9434 43.9821C50.9017 43.9821 50.8658 43.9671 50.8359 43.9372C50.806 43.9073 50.791 43.8714 50.791 43.8297C50.791 43.7879 50.806 43.752 50.8359 43.7221C50.8658 43.6922 50.9017 43.6772 50.9434 43.6772C50.9852 43.6772 51.0211 43.6922 51.051 43.7221C51.0809 43.752 51.0959 43.7879 51.0959 43.8297C51.0959 43.8573 51.0888 43.8827 51.0747 43.9059C51.0611 43.929 51.0428 43.9477 51.0197 43.9618C50.9971 43.9753 50.9717 43.9821 50.9434 43.9821Z" fill="#808080"/>
<path d="M50.2872 43.9821C50.2454 43.9821 50.2096 43.9671 50.1796 43.9372C50.1497 43.9073 50.1348 43.8714 50.1348 43.8297C50.1348 43.7879 50.1497 43.752 50.1796 43.7221C50.2096 43.6922 50.2454 43.6772 50.2872 43.6772C50.329 43.6772 50.3648 43.6922 50.3947 43.7221C50.4247 43.752 50.4396 43.7879 50.4396 43.8297C50.4396 43.8573 50.4326 43.8827 50.4184 43.9059C50.4049 43.929 50.3865 43.9477 50.3634 43.9618C50.3408 43.9753 50.3154 43.9821 50.2872 43.9821Z" fill="#808080"/>
<path d="M49.6309 43.9821C49.5892 43.9821 49.5533 43.9671 49.5234 43.9372C49.4935 43.9073 49.4785 43.8714 49.4785 43.8297C49.4785 43.7879 49.4935 43.752 49.5234 43.7221C49.5533 43.6922 49.5892 43.6772 49.6309 43.6772C49.6727 43.6772 49.7086 43.6922 49.7385 43.7221C49.7684 43.752 49.7834 43.7879 49.7834 43.8297C49.7834 43.8573 49.7763 43.8827 49.7622 43.9059C49.7486 43.929 49.7303 43.9477 49.7072 43.9618C49.6846 43.9753 49.6592 43.9821 49.6309 43.9821Z" fill="#808080"/>
<path d="M48.9747 43.9821C48.9329 43.9821 48.8971 43.9671 48.8671 43.9372C48.8372 43.9073 48.8223 43.8714 48.8223 43.8297C48.8223 43.7879 48.8372 43.752 48.8671 43.7221C48.8971 43.6922 48.9329 43.6772 48.9747 43.6772C49.0165 43.6772 49.0523 43.6922 49.0822 43.7221C49.1122 43.752 49.1271 43.7879 49.1271 43.8297C49.1271 43.8573 49.1201 43.8827 49.1059 43.9059C49.0924 43.929 49.074 43.9477 49.0509 43.9618C49.0283 43.9753 49.0029 43.9821 48.9747 43.9821Z" fill="#808080"/>
<path d="M48.3145 43.9821C48.2728 43.9821 48.2369 43.9671 48.207 43.9372C48.1771 43.9073 48.1621 43.8714 48.1621 43.8297C48.1621 43.7879 48.1771 43.752 48.207 43.7221C48.2369 43.6922 48.2728 43.6772 48.3145 43.6772C48.3563 43.6772 48.3922 43.6922 48.4221 43.7221C48.452 43.752 48.467 43.7879 48.467 43.8297C48.467 43.8573 48.4599 43.8827 48.4458 43.9059C48.4322 43.929 48.4139 43.9477 48.3907 43.9618C48.3682 43.9753 48.3428 43.9821 48.3145 43.9821Z" fill="#808080"/>
<path d="M47.6602 43.9821C47.6185 43.9821 47.5826 43.9671 47.5527 43.9372C47.5228 43.9073 47.5078 43.8714 47.5078 43.8297C47.5078 43.7879 47.5228 43.752 47.5527 43.7221C47.5826 43.6922 47.6185 43.6772 47.6602 43.6772C47.702 43.6772 47.7379 43.6922 47.7678 43.7221C47.7977 43.752 47.8127 43.7879 47.8127 43.8297C47.8127 43.8573 47.8056 43.8827 47.7915 43.9059C47.7779 43.929 47.7596 43.9477 47.7364 43.9618C47.7139 43.9753 47.6885 43.9821 47.6602 43.9821Z" fill="#808080"/>
<path d="M47.002 43.9821C46.9603 43.9821 46.9244 43.9671 46.8945 43.9372C46.8646 43.9073 46.8496 43.8714 46.8496 43.8297C46.8496 43.7879 46.8646 43.752 46.8945 43.7221C46.9244 43.6922 46.9603 43.6772 47.002 43.6772C47.0438 43.6772 47.0797 43.6922 47.1096 43.7221C47.1395 43.752 47.1545 43.7879 47.1545 43.8297C47.1545 43.8573 47.1474 43.8827 47.1333 43.9059C47.1197 43.929 47.1014 43.9477 47.0782 43.9618C47.0557 43.9753 47.0303 43.9821 47.002 43.9821Z" fill="#808080"/>
<path d="M46.3458 43.9821C46.304 43.9821 46.2682 43.9671 46.2382 43.9372C46.2083 43.9073 46.1934 43.8714 46.1934 43.8297C46.1934 43.7879 46.2083 43.752 46.2382 43.7221C46.2682 43.6922 46.304 43.6772 46.3458 43.6772C46.3876 43.6772 46.4234 43.6922 46.4533 43.7221C46.4832 43.752 46.4982 43.7879 46.4982 43.8297C46.4982 43.8573 46.4912 43.8827 46.477 43.9059C46.4635 43.929 46.4451 43.9477 46.422 43.9618C46.3994 43.9753 46.374 43.9821 46.3458 43.9821Z" fill="#808080"/>
<path d="M45.6915 43.9821C45.6497 43.9821 45.6139 43.9671 45.5839 43.9372C45.554 43.9073 45.5391 43.8714 45.5391 43.8297C45.5391 43.7879 45.554 43.752 45.5839 43.7221C45.6139 43.6922 45.6497 43.6772 45.6915 43.6772C45.7333 43.6772 45.7691 43.6922 45.799 43.7221C45.829 43.752 45.8439 43.7879 45.8439 43.8297C45.8439 43.8573 45.8369 43.8827 45.8227 43.9059C45.8092 43.929 45.7908 43.9477 45.7677 43.9618C45.7451 43.9753 45.7197 43.9821 45.6915 43.9821Z" fill="#808080"/>
<path d="M45.0352 43.9821C44.9935 43.9821 44.9576 43.9671 44.9277 43.9372C44.8978 43.9073 44.8828 43.8714 44.8828 43.8297C44.8828 43.7879 44.8978 43.752 44.9277 43.7221C44.9576 43.6922 44.9935 43.6772 45.0352 43.6772C45.077 43.6772 45.1129 43.6922 45.1428 43.7221C45.1727 43.752 45.1877 43.7879 45.1877 43.8297C45.1877 43.8573 45.1806 43.8827 45.1665 43.9059C45.1529 43.929 45.1346 43.9477 45.1114 43.9618C45.0889 43.9753 45.0635 43.9821 45.0352 43.9821Z" fill="#808080"/>
<path d="M44.3751 43.9821C44.3333 43.9821 44.2975 43.9671 44.2675 43.9372C44.2376 43.9073 44.2227 43.8714 44.2227 43.8297C44.2227 43.7879 44.2376 43.752 44.2675 43.7221C44.2975 43.6922 44.3333 43.6772 44.3751 43.6772C44.4169 43.6772 44.4527 43.6922 44.4826 43.7221C44.5125 43.752 44.5275 43.7879 44.5275 43.8297C44.5275 43.8573 44.5204 43.8827 44.5063 43.9059C44.4928 43.929 44.4744 43.9477 44.4513 43.9618C44.4287 43.9753 44.4033 43.9821 44.3751 43.9821Z" fill="#808080"/>
<path d="M43.7208 43.9821C43.679 43.9821 43.6432 43.9671 43.6132 43.9372C43.5833 43.9073 43.5684 43.8714 43.5684 43.8297C43.5684 43.7879 43.5833 43.752 43.6132 43.7221C43.6432 43.6922 43.679 43.6772 43.7208 43.6772C43.7626 43.6772 43.7984 43.6922 43.8283 43.7221C43.8582 43.752 43.8732 43.7879 43.8732 43.8297C43.8732 43.8573 43.8662 43.8827 43.852 43.9059C43.8385 43.929 43.8201 43.9477 43.797 43.9618C43.7744 43.9753 43.749 43.9821 43.7208 43.9821Z" fill="#808080"/>
<path d="M43.0684 43.9821C43.0267 43.9821 42.9908 43.9671 42.9609 43.9372C42.931 43.9073 42.916 43.8714 42.916 43.8297C42.916 43.7879 42.931 43.752 42.9609 43.7221C42.9908 43.6922 43.0267 43.6772 43.0684 43.6772C43.1102 43.6772 43.1461 43.6922 43.176 43.7221C43.2059 43.752 43.2209 43.7879 43.2209 43.8297C43.2209 43.8573 43.2138 43.8827 43.1997 43.9059C43.1861 43.929 43.1678 43.9477 43.1447 43.9618C43.1221 43.9753 43.0967 43.9821 43.0684 43.9821Z" fill="#808080"/>
<path d="M42.4063 43.9821C42.3646 43.9821 42.3287 43.9671 42.2988 43.9372C42.2689 43.9073 42.2539 43.8714 42.2539 43.8297C42.2539 43.7879 42.2689 43.752 42.2988 43.7221C42.3287 43.6922 42.3646 43.6772 42.4063 43.6772C42.4481 43.6772 42.484 43.6922 42.5139 43.7221C42.5438 43.752 42.5588 43.7879 42.5588 43.8297C42.5588 43.8573 42.5517 43.8827 42.5376 43.9059C42.524 43.929 42.5057 43.9477 42.4825 43.9618C42.46 43.9753 42.4346 43.9821 42.4063 43.9821Z" fill="#808080"/>
<path d="M41.7501 43.9821C41.7083 43.9821 41.6725 43.9671 41.6425 43.9372C41.6126 43.9073 41.5977 43.8714 41.5977 43.8297C41.5977 43.7879 41.6126 43.752 41.6425 43.7221C41.6725 43.6922 41.7083 43.6772 41.7501 43.6772C41.7919 43.6772 41.8277 43.6922 41.8576 43.7221C41.8875 43.752 41.9025 43.7879 41.9025 43.8297C41.9025 43.8573 41.8954 43.8827 41.8813 43.9059C41.8678 43.929 41.8494 43.9477 41.8263 43.9618C41.8037 43.9753 41.7783 43.9821 41.7501 43.9821Z" fill="#808080"/>
<path d="M41.0919 43.9821C41.0501 43.9821 41.0143 43.9671 40.9843 43.9372C40.9544 43.9073 40.9395 43.8714 40.9395 43.8297C40.9395 43.7879 40.9544 43.752 40.9843 43.7221C41.0143 43.6922 41.0501 43.6772 41.0919 43.6772C41.1337 43.6772 41.1695 43.6922 41.1994 43.7221C41.2293 43.752 41.2443 43.7879 41.2443 43.8297C41.2443 43.8573 41.2372 43.8827 41.2231 43.9059C41.2096 43.929 41.1912 43.9477 41.1681 43.9618C41.1455 43.9753 41.1201 43.9821 41.0919 43.9821Z" fill="#808080"/>
<path d="M40.4376 43.9821C40.3958 43.9821 40.36 43.9671 40.33 43.9372C40.3001 43.9073 40.2852 43.8714 40.2852 43.8297C40.2852 43.7879 40.3001 43.752 40.33 43.7221C40.36 43.6922 40.3958 43.6772 40.4376 43.6772C40.4794 43.6772 40.5152 43.6922 40.5451 43.7221C40.575 43.752 40.59 43.7879 40.59 43.8297C40.59 43.8573 40.5829 43.8827 40.5688 43.9059C40.5553 43.929 40.5369 43.9477 40.5138 43.9618C40.4912 43.9753 40.4658 43.9821 40.4376 43.9821Z" fill="#808080"/>
<path d="M59.9044 48.7511C59.8626 48.7511 59.8268 48.7362 59.7968 48.7063C59.7669 48.6763 59.752 48.6405 59.752 48.5987C59.752 48.5569 59.7669 48.5211 59.7968 48.4912C59.8268 48.4612 59.8626 48.4463 59.9044 48.4463C59.9462 48.4463 59.982 48.4612 60.0119 48.4912C60.0418 48.5211 60.0568 48.5569 60.0568 48.5987C60.0568 48.6264 60.0497 48.6518 60.0356 48.6749C60.0221 48.6981 60.0037 48.7167 59.9806 48.7308C59.958 48.7444 59.9326 48.7511 59.9044 48.7511Z" fill="#808080"/>
<path d="M59.2481 48.7511C59.2064 48.7511 59.1705 48.7362 59.1406 48.7063C59.1107 48.6763 59.0957 48.6405 59.0957 48.5987C59.0957 48.5569 59.1107 48.5211 59.1406 48.4912C59.1705 48.4612 59.2064 48.4463 59.2481 48.4463C59.2899 48.4463 59.3257 48.4612 59.3557 48.4912C59.3856 48.5211 59.4006 48.5569 59.4006 48.5987C59.4006 48.6264 59.3935 48.6518 59.3794 48.6749C59.3658 48.6981 59.3475 48.7167 59.3243 48.7308C59.3018 48.7444 59.2764 48.7511 59.2481 48.7511Z" fill="#808080"/>
<path d="M58.5919 48.7511C58.5501 48.7511 58.5143 48.7362 58.4843 48.7063C58.4544 48.6763 58.4395 48.6405 58.4395 48.5987C58.4395 48.5569 58.4544 48.5211 58.4843 48.4912C58.5143 48.4612 58.5501 48.4463 58.5919 48.4463C58.6337 48.4463 58.6695 48.4612 58.6994 48.4912C58.7293 48.5211 58.7443 48.5569 58.7443 48.5987C58.7443 48.6264 58.7372 48.6518 58.7231 48.6749C58.7096 48.6981 58.6912 48.7167 58.6681 48.7308C58.6455 48.7444 58.6201 48.7511 58.5919 48.7511Z" fill="#808080"/>
<path d="M57.9356 48.7511C57.8939 48.7511 57.858 48.7362 57.8281 48.7063C57.7982 48.6763 57.7832 48.6405 57.7832 48.5987C57.7832 48.5569 57.7982 48.5211 57.8281 48.4912C57.858 48.4612 57.8939 48.4463 57.9356 48.4463C57.9774 48.4463 58.0132 48.4612 58.0432 48.4912C58.0731 48.5211 58.0881 48.5569 58.0881 48.5987C58.0881 48.6264 58.081 48.6518 58.0669 48.6749C58.0533 48.6981 58.035 48.7167 58.0118 48.7308C57.9893 48.7444 57.9639 48.7511 57.9356 48.7511Z" fill="#808080"/>
<path d="M57.2794 48.7511C57.2376 48.7511 57.2018 48.7362 57.1718 48.7063C57.1419 48.6763 57.127 48.6405 57.127 48.5987C57.127 48.5569 57.1419 48.5211 57.1718 48.4912C57.2018 48.4612 57.2376 48.4463 57.2794 48.4463C57.3212 48.4463 57.357 48.4612 57.3869 48.4912C57.4168 48.5211 57.4318 48.5569 57.4318 48.5987C57.4318 48.6264 57.4247 48.6518 57.4106 48.6749C57.3971 48.6981 57.3787 48.7167 57.3556 48.7308C57.333 48.7444 57.3076 48.7511 57.2794 48.7511Z" fill="#808080"/>
<path d="M56.6231 48.7511C56.5814 48.7511 56.5455 48.7362 56.5156 48.7063C56.4857 48.6763 56.4707 48.6405 56.4707 48.5987C56.4707 48.5569 56.4857 48.5211 56.5156 48.4912C56.5455 48.4612 56.5814 48.4463 56.6231 48.4463C56.6649 48.4463 56.7007 48.4612 56.7307 48.4912C56.7606 48.5211 56.7756 48.5569 56.7756 48.5987C56.7756 48.6264 56.7685 48.6518 56.7544 48.6749C56.7408 48.6981 56.7225 48.7167 56.6993 48.7308C56.6768 48.7444 56.6514 48.7511 56.6231 48.7511Z" fill="#808080"/>
<path d="M55.963 48.7511C55.9212 48.7511 55.8853 48.7362 55.8554 48.7063C55.8255 48.6763 55.8105 48.6405 55.8105 48.5987C55.8105 48.5569 55.8255 48.5211 55.8554 48.4912C55.8853 48.4612 55.9212 48.4463 55.963 48.4463C56.0047 48.4463 56.0406 48.4612 56.0705 48.4912C56.1004 48.5211 56.1154 48.5569 56.1154 48.5987C56.1154 48.6264 56.1083 48.6518 56.0942 48.6749C56.0807 48.6981 56.0623 48.7167 56.0392 48.7308C56.0166 48.7444 55.9912 48.7511 55.963 48.7511Z" fill="#808080"/>
<path d="M55.3067 48.7511C55.2649 48.7511 55.2291 48.7362 55.1992 48.7063C55.1693 48.6763 55.1543 48.6405 55.1543 48.5987C55.1543 48.5569 55.1693 48.5211 55.1992 48.4912C55.2291 48.4612 55.2649 48.4463 55.3067 48.4463C55.3485 48.4463 55.3843 48.4612 55.4143 48.4912C55.4442 48.5211 55.4591 48.5569 55.4591 48.5987C55.4591 48.6264 55.4521 48.6518 55.438 48.6749C55.4244 48.6981 55.4061 48.7167 55.3829 48.7308C55.3604 48.7444 55.3349 48.7511 55.3067 48.7511Z" fill="#808080"/>
<path d="M54.6505 48.7511C54.6087 48.7511 54.5728 48.7362 54.5429 48.7063C54.513 48.6763 54.498 48.6405 54.498 48.5987C54.498 48.5569 54.513 48.5211 54.5429 48.4912C54.5728 48.4612 54.6087 48.4463 54.6505 48.4463C54.6922 48.4463 54.7281 48.4612 54.758 48.4912C54.7879 48.5211 54.8029 48.5569 54.8029 48.5987C54.8029 48.6264 54.7958 48.6518 54.7817 48.6749C54.7682 48.6981 54.7498 48.7167 54.7267 48.7308C54.7041 48.7444 54.6787 48.7511 54.6505 48.7511Z" fill="#808080"/>
<path d="M53.9942 48.7511C53.9524 48.7511 53.9166 48.7362 53.8867 48.7063C53.8568 48.6763 53.8418 48.6405 53.8418 48.5987C53.8418 48.5569 53.8568 48.5211 53.8867 48.4912C53.9166 48.4612 53.9524 48.4463 53.9942 48.4463C54.036 48.4463 54.0718 48.4612 54.1018 48.4912C54.1317 48.5211 54.1466 48.5569 54.1466 48.5987C54.1466 48.6264 54.1396 48.6518 54.1255 48.6749C54.1119 48.6981 54.0936 48.7167 54.0704 48.7308C54.0479 48.7444 54.0224 48.7511 53.9942 48.7511Z" fill="#808080"/>
<path d="M53.338 48.7511C53.2962 48.7511 53.2603 48.7362 53.2304 48.7063C53.2005 48.6763 53.1855 48.6405 53.1855 48.5987C53.1855 48.5569 53.2005 48.5211 53.2304 48.4912C53.2603 48.4612 53.2962 48.4463 53.338 48.4463C53.3797 48.4463 53.4156 48.4612 53.4455 48.4912C53.4754 48.5211 53.4904 48.5569 53.4904 48.5987C53.4904 48.6264 53.4833 48.6518 53.4692 48.6749C53.4557 48.6981 53.4373 48.7167 53.4142 48.7308C53.3916 48.7444 53.3662 48.7511 53.338 48.7511Z" fill="#808080"/>
<path d="M52.6817 48.7511C52.6399 48.7511 52.6041 48.7362 52.5742 48.7063C52.5443 48.6763 52.5293 48.6405 52.5293 48.5987C52.5293 48.5569 52.5443 48.5211 52.5742 48.4912C52.6041 48.4612 52.6399 48.4463 52.6817 48.4463C52.7235 48.4463 52.7593 48.4612 52.7893 48.4912C52.8192 48.5211 52.8341 48.5569 52.8341 48.5987C52.8341 48.6264 52.8271 48.6518 52.813 48.6749C52.7994 48.6981 52.7811 48.7167 52.7579 48.7308C52.7354 48.7444 52.7099 48.7511 52.6817 48.7511Z" fill="#808080"/>
<path d="M52.0216 48.7511C51.9798 48.7511 51.9439 48.7362 51.914 48.7063C51.8841 48.6763 51.8691 48.6405 51.8691 48.5987C51.8691 48.5569 51.8841 48.5211 51.914 48.4912C51.9439 48.4612 51.9798 48.4463 52.0216 48.4463C52.0633 48.4463 52.0992 48.4612 52.1291 48.4912C52.159 48.5211 52.174 48.5569 52.174 48.5987C52.174 48.6264 52.1669 48.6518 52.1528 48.6749C52.1393 48.6981 52.1209 48.7167 52.0978 48.7308C52.0752 48.7444 52.0498 48.7511 52.0216 48.7511Z" fill="#808080"/>
<path d="M51.3673 48.7511C51.3255 48.7511 51.2896 48.7362 51.2597 48.7063C51.2298 48.6763 51.2148 48.6405 51.2148 48.5987C51.2148 48.5569 51.2298 48.5211 51.2597 48.4912C51.2896 48.4612 51.3255 48.4463 51.3673 48.4463C51.409 48.4463 51.4449 48.4612 51.4748 48.4912C51.5047 48.5211 51.5197 48.5569 51.5197 48.5987C51.5197 48.6264 51.5126 48.6518 51.4985 48.6749C51.485 48.6981 51.4666 48.7167 51.4435 48.7308C51.4209 48.7444 51.3955 48.7511 51.3673 48.7511Z" fill="#808080"/>
<path d="M50.713 48.7511C50.6712 48.7511 50.6353 48.7362 50.6054 48.7063C50.5755 48.6763 50.5605 48.6405 50.5605 48.5987C50.5605 48.5569 50.5755 48.5211 50.6054 48.4912C50.6353 48.4612 50.6712 48.4463 50.713 48.4463C50.7547 48.4463 50.7906 48.4612 50.8205 48.4912C50.8504 48.5211 50.8654 48.5569 50.8654 48.5987C50.8654 48.6264 50.8583 48.6518 50.8442 48.6749C50.8307 48.6981 50.8123 48.7167 50.7892 48.7308C50.7666 48.7444 50.7412 48.7511 50.713 48.7511Z" fill="#808080"/>
<path d="M50.0548 48.7511C50.013 48.7511 49.9771 48.7362 49.9472 48.7063C49.9173 48.6763 49.9023 48.6405 49.9023 48.5987C49.9023 48.5569 49.9173 48.5211 49.9472 48.4912C49.9771 48.4612 50.013 48.4463 50.0548 48.4463C50.0965 48.4463 50.1324 48.4612 50.1623 48.4912C50.1922 48.5211 50.2072 48.5569 50.2072 48.5987C50.2072 48.6264 50.2001 48.6518 50.186 48.6749C50.1725 48.6981 50.1541 48.7167 50.131 48.7308C50.1084 48.7444 50.083 48.7511 50.0548 48.7511Z" fill="#808080"/>
<path d="M49.3966 48.7511C49.3548 48.7511 49.3189 48.7362 49.289 48.7063C49.2591 48.6763 49.2441 48.6405 49.2441 48.5987C49.2441 48.5569 49.2591 48.5211 49.289 48.4912C49.3189 48.4612 49.3548 48.4463 49.3966 48.4463C49.4383 48.4463 49.4742 48.4612 49.5041 48.4912C49.534 48.5211 49.549 48.5569 49.549 48.5987C49.549 48.6264 49.5419 48.6518 49.5278 48.6749C49.5143 48.6981 49.4959 48.7167 49.4728 48.7308C49.4502 48.7444 49.4248 48.7511 49.3966 48.7511Z" fill="#808080"/>
<path d="M48.7403 48.7511C48.6985 48.7511 48.6627 48.7362 48.6328 48.7063C48.6029 48.6763 48.5879 48.6405 48.5879 48.5987C48.5879 48.5569 48.6029 48.5211 48.6328 48.4912C48.6627 48.4612 48.6985 48.4463 48.7403 48.4463C48.7821 48.4463 48.8179 48.4612 48.8479 48.4912C48.8778 48.5211 48.8927 48.5569 48.8927 48.5987C48.8927 48.6264 48.8857 48.6518 48.8716 48.6749C48.858 48.6981 48.8397 48.7167 48.8165 48.7308C48.7939 48.7444 48.7685 48.7511 48.7403 48.7511Z" fill="#808080"/>
<path d="M48.0841 48.7511C48.0423 48.7511 48.0064 48.7362 47.9765 48.7063C47.9466 48.6763 47.9316 48.6405 47.9316 48.5987C47.9316 48.5569 47.9466 48.5211 47.9765 48.4912C48.0064 48.4612 48.0423 48.4463 48.0841 48.4463C48.1258 48.4463 48.1617 48.4612 48.1916 48.4912C48.2215 48.5211 48.2365 48.5569 48.2365 48.5987C48.2365 48.6264 48.2294 48.6518 48.2153 48.6749C48.2018 48.6981 48.1834 48.7167 48.1603 48.7308C48.1377 48.7444 48.1123 48.7511 48.0841 48.7511Z" fill="#808080"/>
<path d="M47.4278 48.7511C47.386 48.7511 47.3502 48.7362 47.3203 48.7063C47.2904 48.6763 47.2754 48.6405 47.2754 48.5987C47.2754 48.5569 47.2904 48.5211 47.3203 48.4912C47.3502 48.4612 47.386 48.4463 47.4278 48.4463C47.4696 48.4463 47.5054 48.4612 47.5354 48.4912C47.5653 48.5211 47.5802 48.5569 47.5802 48.5987C47.5802 48.6264 47.5732 48.6518 47.5591 48.6749C47.5455 48.6981 47.5272 48.7167 47.504 48.7308C47.4814 48.7444 47.456 48.7511 47.4278 48.7511Z" fill="#808080"/>
<path d="M46.7716 48.7511C46.7298 48.7511 46.6939 48.7362 46.664 48.7063C46.6341 48.6763 46.6191 48.6405 46.6191 48.5987C46.6191 48.5569 46.6341 48.5211 46.664 48.4912C46.6939 48.4612 46.7298 48.4463 46.7716 48.4463C46.8133 48.4463 46.8492 48.4612 46.8791 48.4912C46.909 48.5211 46.924 48.5569 46.924 48.5987C46.924 48.6264 46.9169 48.6518 46.9028 48.6749C46.8893 48.6981 46.8709 48.7167 46.8478 48.7308C46.8252 48.7444 46.7998 48.7511 46.7716 48.7511Z" fill="#808080"/>
<path d="M46.1153 48.7511C46.0735 48.7511 46.0377 48.7362 46.0078 48.7063C45.9779 48.6763 45.9629 48.6405 45.9629 48.5987C45.9629 48.5569 45.9779 48.5211 46.0078 48.4912C46.0377 48.4612 46.0735 48.4463 46.1153 48.4463C46.1571 48.4463 46.1929 48.4612 46.2229 48.4912C46.2528 48.5211 46.2677 48.5569 46.2677 48.5987C46.2677 48.6264 46.2607 48.6518 46.2466 48.6749C46.233 48.6981 46.2147 48.7167 46.1915 48.7308C46.1689 48.7444 46.1435 48.7511 46.1153 48.7511Z" fill="#808080"/>
<path d="M45.4571 48.7511C45.4153 48.7511 45.3795 48.7362 45.3496 48.7063C45.3196 48.6763 45.3047 48.6405 45.3047 48.5987C45.3047 48.5569 45.3196 48.5211 45.3496 48.4912C45.3795 48.4612 45.4153 48.4463 45.4571 48.4463C45.4989 48.4463 45.5347 48.4612 45.5647 48.4912C45.5946 48.5211 45.6095 48.5569 45.6095 48.5987C45.6095 48.6264 45.6025 48.6518 45.5884 48.6749C45.5748 48.6981 45.5565 48.7167 45.5333 48.7308C45.5107 48.7444 45.4853 48.7511 45.4571 48.7511Z" fill="#808080"/>
<path d="M44.7989 48.7511C44.7571 48.7511 44.7213 48.7362 44.6914 48.7063C44.6614 48.6763 44.6465 48.6405 44.6465 48.5987C44.6465 48.5569 44.6614 48.5211 44.6914 48.4912C44.7213 48.4612 44.7571 48.4463 44.7989 48.4463C44.8407 48.4463 44.8765 48.4612 44.9065 48.4912C44.9364 48.5211 44.9513 48.5569 44.9513 48.5987C44.9513 48.6264 44.9443 48.6518 44.9302 48.6749C44.9166 48.6981 44.8983 48.7167 44.8751 48.7308C44.8525 48.7444 44.8271 48.7511 44.7989 48.7511Z" fill="#808080"/>
<path d="M44.1466 48.7511C44.1048 48.7511 44.0689 48.7362 44.039 48.7063C44.0091 48.6763 43.9941 48.6405 43.9941 48.5987C43.9941 48.5569 44.0091 48.5211 44.039 48.4912C44.0689 48.4612 44.1048 48.4463 44.1466 48.4463C44.1883 48.4463 44.2242 48.4612 44.2541 48.4912C44.284 48.5211 44.299 48.5569 44.299 48.5987C44.299 48.6264 44.2919 48.6518 44.2778 48.6749C44.2643 48.6981 44.2459 48.7167 44.2228 48.7308C44.2002 48.7444 44.1748 48.7511 44.1466 48.7511Z" fill="#808080"/>
<path d="M43.4884 48.7511C43.4466 48.7511 43.4107 48.7362 43.3808 48.7063C43.3509 48.6763 43.3359 48.6405 43.3359 48.5987C43.3359 48.5569 43.3509 48.5211 43.3808 48.4912C43.4107 48.4612 43.4466 48.4463 43.4884 48.4463C43.5301 48.4463 43.566 48.4612 43.5959 48.4912C43.6258 48.5211 43.6408 48.5569 43.6408 48.5987C43.6408 48.6264 43.6337 48.6518 43.6196 48.6749C43.6061 48.6981 43.5877 48.7167 43.5646 48.7308C43.542 48.7444 43.5166 48.7511 43.4884 48.7511Z" fill="#808080"/>
<path d="M42.8302 48.7511C42.7884 48.7511 42.7525 48.7362 42.7226 48.7063C42.6927 48.6763 42.6777 48.6405 42.6777 48.5987C42.6777 48.5569 42.6927 48.5211 42.7226 48.4912C42.7525 48.4612 42.7884 48.4463 42.8302 48.4463C42.8719 48.4463 42.9078 48.4612 42.9377 48.4912C42.9676 48.5211 42.9826 48.5569 42.9826 48.5987C42.9826 48.6264 42.9755 48.6518 42.9614 48.6749C42.9479 48.6981 42.9295 48.7167 42.9064 48.7308C42.8838 48.7444 42.8584 48.7511 42.8302 48.7511Z" fill="#808080"/>
<path d="M42.172 48.7511C42.1302 48.7511 42.0943 48.7362 42.0644 48.7063C42.0345 48.6763 42.0195 48.6405 42.0195 48.5987C42.0195 48.5569 42.0345 48.5211 42.0644 48.4912C42.0943 48.4612 42.1302 48.4463 42.172 48.4463C42.2137 48.4463 42.2496 48.4612 42.2795 48.4912C42.3094 48.5211 42.3244 48.5569 42.3244 48.5987C42.3244 48.6264 42.3173 48.6518 42.3032 48.6749C42.2897 48.6981 42.2713 48.7167 42.2482 48.7308C42.2256 48.7444 42.2002 48.7511 42.172 48.7511Z" fill="#808080"/>
<path d="M41.5177 48.7511C41.4759 48.7511 41.44 48.7362 41.4101 48.7063C41.3802 48.6763 41.3652 48.6405 41.3652 48.5987C41.3652 48.5569 41.3802 48.5211 41.4101 48.4912C41.44 48.4612 41.4759 48.4463 41.5177 48.4463C41.5594 48.4463 41.5953 48.4612 41.6252 48.4912C41.6551 48.5211 41.6701 48.5569 41.6701 48.5987C41.6701 48.6264 41.663 48.6518 41.6489 48.6749C41.6354 48.6981 41.617 48.7167 41.5939 48.7308C41.5713 48.7444 41.5459 48.7511 41.5177 48.7511Z" fill="#808080"/>
<path d="M37.9652 28.7065H19.127V30.3758H37.9652V28.7065Z" fill="#808080"/>
<path d="M32.7191 33.2373H19.127V34.9065H32.7191V33.2373Z" fill="#808080"/>
<path d="M41.3037 37.7681H19.127V39.4373H41.3037V37.7681Z" fill="#808080"/>
<path d="M39.1575 42.2969H19.127V43.9661H39.1575V42.2969Z" fill="#808080"/>
<path d="M40.3496 47.0664H19.3652V48.7356H40.3496V47.0664Z" fill="#808080"/>
</svg>
