<svg width="320" height="158" viewBox="0 0 320 158" fill="none" xmlns="http://www.w3.org/2000/svg">
<path opacity="0.6" d="M299.832 157.032C302.426 152.467 306.489 141.62 308.809 130.391C315.846 95.9335 301.428 68.1309 273.403 51.6566C259.584 43.5184 246.83 42.3968 235.774 43.4138C223.206 44.5696 212.832 48.4944 205.583 48.0222C195.293 47.3503 189.421 33.7789 174.355 21.249C165.531 13.9143 153.552 6.95718 135.685 3.2095C113.87 -1.36919 84.8712 -1.76845 64.3087 6.78994C56.2168 10.1557 49.5072 14.8907 45.1453 21.2491C33.9249 37.5949 41.8351 59.0994 51.9516 76.1991C66.2897 100.433 47.5271 104.656 30.5727 114.267C17.7016 121.566 5.87194 132.396 10.3736 157.033H299.832V157.032Z" fill="#D5E6FE"/>
<path d="M319.638 157.457H0.362535C0.163141 157.457 0 157.294 0 157.095V156.971C0 156.772 0.163141 156.608 0.362535 156.608H319.637C319.837 156.608 320 156.772 320 156.971V157.095C320 157.294 319.837 157.457 319.638 157.457Z" fill="#8692C2"/>
<path d="M58.125 37.7216C57.9007 37.951 57.9913 38.3392 58.2928 38.4483C61.7 39.681 65.6921 39.3972 68.816 37.5689C69.9261 36.9189 71.0734 36.3324 72.2504 35.8144C71.6863 36.831 71.1217 37.8475 70.5571 38.8645C69.6876 40.4306 70.5688 42.393 72.3168 42.7833L72.3682 42.795C73.2653 42.9955 74.202 42.7199 74.8481 42.0661C77.4972 39.3847 80.1462 36.7029 82.7952 34.0215C81.1998 36.6822 79.6045 39.3429 78.0095 42.0036C77.517 42.8252 78.0212 43.8784 78.9687 44.0195C79.391 44.082 79.8175 44.1424 80.2484 44.2002C80.687 44.2588 81.1274 44.0945 81.4224 43.765C83.4102 41.5477 85.3985 39.3308 87.3864 37.1135C86.5962 39.1966 85.8061 41.2798 85.0164 43.363C84.7684 44.0169 85.2217 44.7259 85.9191 44.7725C86.2223 44.7928 86.5268 44.8118 86.833 44.8286C87.1474 44.8463 87.4541 44.719 87.6654 44.4853C90.0807 41.8086 92.496 39.1315 94.9108 36.4549C94.2492 38.7697 93.5876 41.0844 92.926 43.3992C92.7051 44.1713 93.3021 44.9351 94.1047 44.9058C94.4653 44.8924 94.8271 44.8764 95.1898 44.8575C95.5909 44.8368 95.9515 44.6086 96.1516 44.2601C97.0104 42.7661 97.9493 41.3182 98.965 39.926C98.9814 40.9654 98.9426 42.0057 98.8498 43.0408C98.7778 43.8418 99.4506 44.5107 100.249 44.4111C102.637 44.113 105.051 43.6826 107.474 43.0926C107.474 43.0926 83.2576 11.9841 58.125 37.7216Z" fill="#80C172"/>
<path d="M144.641 15.1634C144.946 15.263 145.046 15.6486 144.829 15.8854C142.382 18.5569 138.713 20.157 135.098 19.9853C133.813 19.9241 132.525 19.9362 131.241 20.0228C132.213 20.662 133.184 21.3012 134.156 21.94C135.652 22.9246 135.781 25.0717 134.414 26.228L134.373 26.2621C133.672 26.8555 132.714 27.0457 131.838 26.7662C128.248 25.6186 124.658 24.4709 121.067 23.3232C123.714 24.941 126.361 26.5588 129.008 28.1766C129.825 28.6761 129.867 29.8432 129.093 30.4073C128.748 30.6587 128.397 30.9098 128.042 31.1608C127.681 31.4161 127.215 31.4748 126.8 31.3199C124.011 30.277 121.221 29.2346 118.432 28.1917C120.098 29.6711 121.764 31.1504 123.43 32.6298C123.952 33.0943 123.88 33.9323 123.283 34.2972C123.024 34.4559 122.762 34.6138 122.499 34.7708C122.229 34.9321 121.898 34.9618 121.603 34.8523C118.222 33.6002 114.841 32.3486 111.46 31.0965C113.12 32.8407 114.779 34.5849 116.438 36.3291C116.992 36.9109 116.817 37.8645 116.092 38.2104C115.767 38.3657 115.439 38.5192 115.109 38.671C114.743 38.8388 114.318 38.8034 113.98 38.5878C112.526 37.6622 111.023 36.8147 109.477 36.0517C109.944 36.9803 110.461 37.8839 111.023 38.7582C111.458 39.4344 111.173 40.3389 110.419 40.6205C108.165 41.4637 105.826 42.2021 103.406 42.802C103.406 42.802 110.44 4.01164 144.641 15.1634Z" fill="#80C172"/>
<path d="M107.439 41.1267C128.193 74.5401 133.059 117.289 121.434 154.818L110.356 151.185C114.47 139.313 117.001 126.698 117.922 114.116C119.696 89.5899 115.264 64.8108 105.332 42.2434L107.439 41.1267Z" fill="#475F8F"/>
<path d="M63.4238 65.8233C63.3643 66.1386 63.6546 66.4116 63.9664 66.3353C67.4854 65.4727 70.6515 63.0242 72.2378 59.7713C72.8015 58.615 73.4312 57.491 74.1243 56.4071C74.2179 57.566 74.3115 58.725 74.4051 59.8843C74.5496 61.6699 76.3701 62.8146 78.0418 62.1706L78.091 62.1516C78.9488 61.8213 79.5759 61.0725 79.751 60.1702C80.47 56.4701 81.1885 52.77 81.9075 49.0698C82.0542 52.1687 82.2012 55.2676 82.3479 58.3665C82.3932 59.3236 83.3968 59.921 84.2633 59.5125C84.6497 59.3305 85.0383 59.1442 85.4286 58.9535C85.8263 58.7595 86.1015 58.3786 86.1649 57.9408C86.5905 54.9938 87.0167 52.0463 87.4424 49.0992C87.9392 51.2712 88.4361 53.4428 88.9329 55.6148C89.0891 56.2967 89.8589 56.6353 90.4658 56.2877C90.7293 56.1367 90.9932 55.9832 91.2576 55.8279C91.5293 55.6683 91.7139 55.3923 91.7601 55.0809C92.2867 51.514 92.8138 47.9476 93.3404 44.3807C94.0727 46.6744 94.8046 48.9676 95.5369 51.2613C95.7811 52.0264 96.7015 52.3313 97.3532 51.8621C97.646 51.6512 97.9384 51.4373 98.2296 51.2207C98.5522 50.9809 98.7255 50.591 98.6992 50.1904C98.5858 48.4708 98.5651 46.7451 98.6388 45.0234C99.2284 45.8795 99.7727 46.7667 100.269 47.6798C100.653 48.3862 101.584 48.57 102.193 48.0451C104.015 46.4734 105.787 44.7767 107.476 42.9428C107.476 42.9428 70.0783 30.4708 63.4238 65.8233Z" fill="#A8D29F"/>
<path d="M85.1357 4.00694C84.8536 3.95389 84.6091 4.21353 84.6777 4.49216C85.4493 7.64109 87.6403 10.4739 90.5511 11.8937C91.5858 12.3983 92.5911 12.9616 93.5616 13.5814C92.5243 13.6651 91.4874 13.7492 90.4502 13.8329C88.8526 13.9618 87.8279 15.5913 88.4041 17.087L88.4209 17.131C88.7163 17.8983 89.3861 18.4599 90.1935 18.6164C93.5046 19.2595 96.8152 19.903 100.126 20.5461C97.3535 20.6776 94.5807 20.8087 91.8079 20.9403C90.9518 20.9808 90.4169 21.8788 90.7823 22.6543C90.9449 22.9997 91.1118 23.3474 91.2821 23.6967C91.4559 24.0525 91.7967 24.2988 92.1883 24.3553C94.8257 24.7366 97.4626 25.1174 100.1 25.4987C98.1562 25.9434 96.2132 26.388 94.2697 26.8327C93.6599 26.9725 93.3567 27.6612 93.6676 28.2043C93.8031 28.4402 93.9402 28.6765 94.0791 28.9129C94.2218 29.1557 94.4686 29.3213 94.7476 29.3623C97.9392 29.8337 101.13 30.3051 104.322 30.7765C102.27 31.4317 100.218 32.0868 98.1656 32.742C97.4812 32.9607 97.2082 33.784 97.6282 34.3671C97.8171 34.6289 98.0082 34.8907 98.2023 35.1517C98.4166 35.4402 98.7656 35.5955 99.1244 35.5717C100.663 35.4704 102.207 35.4514 103.748 35.5174C102.982 36.0453 102.187 36.5318 101.371 36.9765C100.738 37.3202 100.574 38.1527 101.044 38.6978C102.45 40.3286 103.968 41.914 105.609 43.4253C105.609 43.4253 116.768 9.96149 85.1357 4.00694Z" fill="#A8D29F"/>
<path d="M151.197 57.6561C151.296 57.9611 151.044 58.2695 150.725 58.2341C147.124 57.8343 143.668 55.8162 141.673 52.7958C140.965 51.7223 140.195 50.6893 139.368 49.7042C139.424 50.8657 139.482 52.0268 139.539 53.1883C139.627 54.9773 137.97 56.3484 136.229 55.9262L136.178 55.9137C135.284 55.6972 134.565 55.036 134.275 54.1639C133.083 50.588 131.891 47.012 130.7 43.4357C130.955 46.5277 131.211 49.6193 131.466 52.7108C131.545 53.6657 130.627 54.3877 129.715 54.0953C129.308 53.9651 128.899 53.8305 128.487 53.692C128.068 53.551 127.745 53.209 127.626 52.7829C126.822 49.9156 126.018 47.0483 125.214 44.181C125.003 46.3987 124.791 48.6169 124.58 50.8347C124.513 51.5308 123.793 51.9664 123.147 51.7003C122.866 51.5847 122.584 51.4665 122.302 51.3471C122.013 51.2237 121.793 50.9744 121.708 50.6712C120.724 47.2027 119.74 43.7342 118.756 40.2656C118.327 42.6348 117.898 45.0035 117.468 47.3726C117.325 48.1628 116.452 48.5846 115.745 48.2033C115.427 48.0321 115.11 47.8578 114.793 47.6806C114.442 47.4848 114.219 47.1207 114.194 46.7196C114.083 45 113.881 43.286 113.585 41.5884C113.111 42.5136 112.686 43.4637 112.312 44.4337C112.023 45.1838 111.124 45.487 110.452 45.0449C108.442 43.7225 106.465 42.269 104.553 40.6693C104.553 40.6702 140.022 23.4626 151.197 57.6561Z" fill="#A8D29F"/>
<path d="M115.732 130.879C119.204 131.789 122.716 132.519 126.262 133.065C126.34 132.503 126.415 131.94 126.486 131.377C122.967 130.833 119.483 130.098 116.039 129.188C115.939 129.752 115.839 130.316 115.732 130.879Z" fill="#383D84"/>
<path d="M125.375 138.633C121.78 137.871 118.186 137.11 114.59 136.349C114.463 136.905 114.335 137.461 114.201 138.016C117.821 138.782 121.441 139.549 125.06 140.316C125.169 139.755 125.274 139.194 125.375 138.633Z" fill="#383D84"/>
<path d="M118.245 99.4179C121.146 99.5559 124.046 99.6935 126.947 99.8315C126.892 99.257 126.834 98.6825 126.771 98.1084C123.911 97.9726 121.05 97.8363 118.189 97.7004C118.212 98.2732 118.229 98.8455 118.245 99.4179Z" fill="#383D84"/>
<path d="M127.391 105.72C127.359 105.148 127.324 104.577 127.286 104.005L118.298 103.975C118.297 104.547 118.292 105.118 118.283 105.69L127.391 105.72Z" fill="#383D84"/>
<path d="M115.02 55.2467C114.776 54.7166 114.529 54.1882 114.278 53.6616C112.903 53.9898 111.529 54.3176 110.154 54.6454C110.339 55.1884 110.52 55.7327 110.699 56.2775C112.139 55.9341 113.58 55.5904 115.02 55.2467Z" fill="#383D84"/>
<path d="M113.992 67.802C115.918 67.5118 117.85 67.2625 119.787 67.0559C119.594 66.5042 119.398 65.9543 119.199 65.4053C117.321 65.6123 115.448 65.8568 113.58 66.1398C113.721 66.6931 113.857 67.2474 113.992 67.802Z" fill="#383D84"/>
<path d="M108.4 49.7554C108.607 50.301 108.811 50.8475 109.012 51.3957C110.062 50.7341 111.112 50.0724 112.162 49.4108C111.897 48.9032 111.628 48.3973 111.357 47.8931C110.371 48.5137 109.385 49.1348 108.4 49.7554Z" fill="#383D84"/>
<path d="M117.336 86.5475C119.871 86.4082 122.403 86.2409 124.934 86.052C124.823 85.4882 124.709 84.925 124.591 84.3625C122.105 84.5459 119.618 84.7085 117.129 84.8439C117.2 85.4115 117.272 85.9791 117.336 86.5475Z" fill="#383D84"/>
<path d="M123.57 147.121C119.89 146.192 116.205 145.285 112.515 144.4C112.356 144.95 112.189 145.497 112.023 146.044C115.737 146.935 119.446 147.848 123.149 148.783C123.293 148.23 123.433 147.676 123.57 147.121Z" fill="#383D84"/>
<path d="M112.228 61.2034C113.933 60.9916 115.64 60.7889 117.348 60.6039C117.125 60.0574 116.899 59.5127 116.669 58.9692C115.025 59.1512 113.382 59.3471 111.74 59.5524C111.907 60.1018 112.068 60.6526 112.228 61.2034Z" fill="#383D84"/>
<path d="M115.326 73.8242C117.517 73.7819 119.708 73.7202 121.898 73.6392C121.732 73.0733 121.562 72.5083 121.388 71.9446C119.25 72.0209 117.111 72.0783 114.973 72.1171C115.094 72.6856 115.211 73.2549 115.326 73.8242Z" fill="#383D84"/>
<path d="M117.782 115.845C117.734 116.412 117.682 116.979 117.627 117.545C120.914 118.066 124.206 118.555 127.501 119.015C127.523 118.446 127.541 117.875 127.556 117.306C124.294 116.848 121.036 116.362 117.782 115.845Z" fill="#383D84"/>
<path d="M127.566 110.282C124.431 110.16 121.296 110.039 118.161 109.917C118.136 110.488 118.11 111.058 118.078 111.628C121.25 111.751 124.423 111.875 127.595 111.998C127.589 111.426 127.579 110.854 127.566 110.282Z" fill="#383D84"/>
<path d="M116.742 124.845C120.171 125.342 123.605 125.797 127.044 126.219C127.094 125.653 127.141 125.087 127.184 124.521C123.778 124.105 120.377 123.653 116.981 123.16C116.906 123.722 116.825 124.283 116.742 124.845Z" fill="#383D84"/>
<path d="M116.511 80.4533C118.869 80.2277 121.231 80.0591 123.595 79.9478C123.457 79.3815 123.317 78.8161 123.172 78.252C120.857 78.3675 118.546 78.5392 116.238 78.7648C116.332 79.3272 116.424 79.89 116.511 80.4533Z" fill="#383D84"/>
<path d="M117.74 90.5854C117.79 91.1539 117.835 91.7227 117.877 92.2921C120.569 92.1484 123.26 92.0048 125.951 91.8616C125.864 91.2945 125.773 90.7282 125.68 90.1619C123.033 90.3033 120.387 90.4444 117.74 90.5854Z" fill="#383D84"/>
<path d="M116.361 47.9098C116.352 50.4402 114.294 52.485 111.764 52.4764C109.233 52.4678 107.189 50.4096 107.197 47.8792C107.206 45.3487 109.264 43.3039 111.794 43.3125C114.325 43.3212 116.37 45.3793 116.361 47.9098Z" fill="#F78721"/>
<path d="M109.123 44.4723C109.114 47.0027 107.056 49.0475 104.526 49.0389C101.995 49.0303 99.9504 46.9721 99.959 44.4416C99.9676 41.9112 102.026 39.8664 104.556 39.875C107.087 39.8832 109.131 41.9414 109.123 44.4723Z" fill="#FFB552"/>
<path opacity="0.3" d="M85.3707 42.7378C81.3795 43.2062 77.6126 44.8313 74.5318 47.414C73.6752 48.1321 72.8847 48.9248 72.1644 49.7792C71.916 50.0742 71.8724 50.4986 72.161 50.7893C72.4146 51.0447 72.9213 51.0891 73.1711 50.7928C76.2268 47.1668 80.6433 44.7201 85.366 44.1663C85.749 44.1214 86.0811 43.8734 86.0828 43.4542C86.0841 43.1044 85.7568 42.6925 85.3707 42.7378Z" fill="white"/>
<path opacity="0.3" d="M92.0092 31.9194C88.4036 29.8604 84.2338 28.8132 80.0817 28.9297C78.8947 28.9629 77.7108 29.0957 76.5437 29.3109C76.1642 29.3808 75.9468 29.838 76.0417 30.1878C76.1495 30.5859 76.5381 30.7597 76.9186 30.6898C81.8069 29.7892 86.9708 30.6881 91.2838 33.1508C92.0838 33.6076 92.8088 32.3762 92.0092 31.9194Z" fill="white"/>
<path opacity="0.3" d="M101.896 14.7166C101.279 14.0317 100.268 15.0414 100.882 15.7233C103.809 18.9736 104.946 23.4225 105.24 27.6906C105.267 28.0758 105.546 28.4061 105.952 28.4074C106.317 28.4087 106.695 28.0827 106.669 27.6954C106.347 23.0304 105.09 18.2654 101.896 14.7166Z" fill="white"/>
<path opacity="0.3" d="M122.906 17.0905C122.693 16.7235 122.285 16.6791 121.929 16.8309C117.804 18.5902 114.288 21.6839 111.98 25.5255C111.505 26.3152 112.737 27.0389 113.211 26.2505C115.405 22.6008 118.733 19.7361 122.646 18.067C123.001 17.9156 123.082 17.395 122.906 17.0905Z" fill="white"/>
<path opacity="0.3" d="M138.989 41.7251C135.184 39.1558 130.725 37.6445 126.148 37.3215C125.763 37.2943 125.433 37.6661 125.432 38.0336C125.43 38.4416 125.757 38.7232 126.144 38.7504C130.474 39.0557 134.67 40.5295 138.264 42.9564C139.028 43.4718 139.749 42.2374 138.989 41.7251Z" fill="white"/>
<path opacity="0.3" d="M142.487 44.6773C142.145 44.303 141.765 43.9747 141.362 43.6677C141.28 43.615 141.192 43.5866 141.097 43.5818C141.002 43.5603 140.907 43.5641 140.812 43.5935C140.718 43.6155 140.637 43.6577 140.568 43.7207C140.49 43.7707 140.429 43.8376 140.384 43.9204C140.296 44.086 140.251 44.2866 140.31 44.4707C140.334 44.5277 140.357 44.5846 140.382 44.6415C140.427 44.7192 140.488 44.7817 140.557 44.8365C140.885 45.0931 141.192 45.3765 141.474 45.6844C141.538 45.7543 141.615 45.8039 141.703 45.8328C141.788 45.8776 141.879 45.8988 141.978 45.8953C142.077 45.8992 142.168 45.8789 142.253 45.8345C142.342 45.806 142.419 45.7569 142.484 45.6874C142.609 45.5516 142.702 45.3734 142.695 45.1832C142.686 44.9892 142.619 44.8218 142.487 44.6773Z" fill="white"/>
<path opacity="0.3" d="M74.1583 30.2642C74.0393 29.8919 73.6688 29.6616 73.2815 29.7625C72.6855 29.9174 72.1049 30.1499 71.5632 30.4423C71.4084 30.526 71.2803 30.7002 71.2337 30.868C71.1858 31.0388 71.2065 31.2665 71.304 31.4187C71.5179 31.7526 71.9285 31.8682 72.2805 31.6784C72.4569 31.5831 72.6389 31.4981 72.8226 31.4183C73.0952 31.3096 73.3729 31.2152 73.6567 31.1414C73.8293 31.0966 73.9944 30.9676 74.0846 30.8145C74.1747 30.6614 74.2135 30.4358 74.1583 30.2642Z" fill="white"/>
<path opacity="0.3" d="M99.3109 11.7234C98.8468 11.2679 98.3509 10.8509 97.8346 10.4558C97.6974 10.351 97.4421 10.3389 97.2843 10.382C97.1182 10.4269 96.9384 10.5546 96.8564 10.709C96.7684 10.8746 96.7236 11.0751 96.7827 11.2593C96.8064 11.3162 96.8301 11.3732 96.8543 11.4301C96.9112 11.5267 96.9884 11.6035 97.0807 11.6647C97.5059 11.9968 97.9122 12.3526 98.2978 12.7305C98.4298 12.8599 98.6165 12.9409 98.802 12.9414C98.9771 12.9418 99.1867 12.865 99.3079 12.7339C99.4334 12.5981 99.5266 12.4199 99.5188 12.2297C99.5106 12.0412 99.4485 11.8584 99.3109 11.7234Z" fill="white"/>
<path d="M143.833 78.2004C142.433 78.2004 141.298 77.0655 141.298 75.6657V70.4649C141.298 67.8499 139.17 65.7223 136.555 65.7223H122.021C119.406 65.7223 117.278 67.8499 117.278 70.4649V75.6657C117.278 77.0655 116.143 78.2004 114.744 78.2004C113.344 78.2004 112.209 77.0655 112.209 75.6657V70.4649C112.209 65.0547 116.611 60.6523 122.021 60.6523H136.556C141.967 60.6523 146.368 65.0547 146.368 70.4649V75.6657C146.368 77.0655 145.233 78.2004 143.833 78.2004Z" fill="#0F429F"/>
<path d="M177.943 156.522H80.6319C76.9689 156.522 74 153.553 74 149.89V81.5597C74 77.8966 76.9694 74.9277 80.6319 74.9277H177.943C181.606 74.9277 184.575 77.8972 184.575 81.5597V149.89C184.575 153.553 181.606 156.522 177.943 156.522Z" fill="#94B7FF"/>
<path d="M178.942 84.8336C178.942 81.8334 176.511 79.4007 173.511 79.4002H85.0728C82.0729 79.4002 79.6395 81.833 79.6395 84.8336V146.616C79.6395 149.616 82.0724 152.05 85.0728 152.05H173.511C176.511 152.049 178.942 149.617 178.942 146.616V84.8336ZM181.341 146.616L181.332 147.019C181.122 151.157 177.701 154.449 173.511 154.449H85.0728C80.7472 154.449 77.2402 150.941 77.2402 146.616V84.8336C77.2402 80.5081 80.7477 77.001 85.0728 77.001H173.511C177.836 77.0014 181.341 80.5083 181.341 84.8336V146.616Z" fill="#4D52A8"/>
<path d="M184.577 92.6062V82.6709C184.577 78.3939 181.11 74.9268 176.834 74.9268H166.898C166.898 84.6905 174.813 92.6062 184.577 92.6062Z" fill="#3D74E7"/>
<path d="M91.6787 74.9268H81.7435C77.4666 74.9268 74 78.3939 74 82.6709V92.6062C83.7637 92.6062 91.6787 84.6905 91.6787 74.9268Z" fill="#3D74E7"/>
<path d="M74 138.843V148.778C74 153.055 77.4671 156.522 81.7435 156.522H91.6787C91.6792 146.758 83.7642 138.843 74 138.843Z" fill="#3D74E7"/>
<path d="M184.574 148.779V138.843C174.81 138.843 166.895 146.758 166.895 156.523H176.83C181.107 156.522 184.574 153.055 184.574 148.779Z" fill="#3D74E7"/>
<path d="M107.852 74.9268H102.455V156.522H107.852V74.9268Z" fill="#0F429F"/>
<path d="M154.172 106.844L140.236 109.573C139.552 109.707 138.89 109.262 138.756 108.578L136.883 99.0159C136.749 98.3326 137.195 97.6704 137.878 97.5363L151.814 94.8068C152.498 94.6727 153.16 95.1183 153.294 95.8017L155.167 105.365C155.301 106.047 154.856 106.71 154.172 106.844Z" fill="white"/>
<path d="M155.119 105.157L154.066 99.7825C152.116 100.394 150.735 102.681 148.667 102.644C147.02 102.615 145.74 101.081 144.108 100.856C142.758 100.669 141.448 101.421 140.435 102.335C139.592 103.097 138.856 103.98 137.99 104.708L138.708 108.372C138.864 109.17 139.638 109.69 140.435 109.533L153.957 106.885C154.755 106.728 155.275 105.955 155.119 105.157Z" fill="#CADBFF"/>
<path d="M157.079 74.9268H151.682V156.522H157.079V74.9268Z" fill="#0F429F"/>
<mask id="mask0_7644_82148" style="mask-type:alpha" maskUnits="userSpaceOnUse" x="101" y="4" width="162" height="153">
<rect x="101" y="4" width="162" height="153" fill="#D9D9D9"/>
</mask>
<g mask="url(#mask0_7644_82148)">
<path opacity="0.18" d="M133.126 74.2476L133.168 74.2363L130 62.5196L131.299 62.1661C131.302 62.18 131.302 62.1936 131.305 62.2075C131.62 63.369 132.812 64.0554 133.97 63.7402C135.128 63.4252 135.812 62.228 135.498 61.0662C135.494 61.0523 135.487 61.0408 135.483 61.0272L136.924 60.6347C136.927 60.6486 136.927 60.6622 136.931 60.6761C137.245 61.8378 138.438 62.524 139.596 62.2087C140.753 61.8935 141.437 60.6965 141.123 59.5348C141.119 59.5209 141.112 59.5093 141.108 59.4954L142.549 59.103C142.553 59.1169 142.552 59.1305 142.556 59.1444C142.87 60.3058 144.063 60.992 145.221 60.677C146.378 60.362 147.062 59.1648 146.748 58.003C146.744 57.9891 146.737 57.9776 146.733 57.964L148.174 57.5715C148.178 57.5854 148.178 57.599 148.181 57.6129C148.495 58.7744 149.688 59.4608 150.846 59.1456C152.004 58.8303 152.687 57.6333 152.373 56.4716C152.37 56.4577 152.362 56.4462 152.358 56.4326L153.8 56.0401C153.803 56.054 153.803 56.0676 153.806 56.0815C154.121 57.2429 155.313 57.9291 156.471 57.6141C157.629 57.2991 158.312 56.1019 157.998 54.9402C157.994 54.9263 157.987 54.9147 157.983 54.9008L159.424 54.5084C159.428 54.522 159.428 54.5359 159.431 54.5498C159.745 55.7112 160.938 56.3977 162.096 56.0824C163.253 55.7674 163.937 54.5702 163.623 53.4084C163.62 53.3945 163.613 53.3827 163.609 53.3691L165.05 52.9766C165.053 52.9905 165.053 53.0041 165.057 53.018C165.371 54.1798 166.564 54.8659 167.721 54.5507C168.879 54.2357 169.563 53.0384 169.249 51.8767C169.245 51.8628 169.238 51.8513 169.234 51.8377L170.675 51.4452C170.679 51.4591 170.678 51.4727 170.682 51.4866C170.996 52.648 172.189 53.3345 173.347 53.0192C174.504 52.7042 175.188 51.507 174.874 50.3453C174.87 50.3314 174.863 50.3195 174.859 50.3059L176.293 49.9155L192.313 109.331L195.481 121.047L194.182 121.401C194.179 121.387 194.179 121.373 194.175 121.36C193.861 120.198 192.668 119.512 191.511 119.827C190.353 120.142 189.669 121.339 189.983 122.501C189.987 122.515 189.995 122.526 189.998 122.54L188.557 122.932C188.554 122.918 188.554 122.905 188.55 122.891C188.236 121.729 187.043 121.043 185.885 121.358C184.727 121.674 184.044 122.871 184.358 124.032C184.362 124.046 184.369 124.058 184.373 124.071L182.932 124.464C182.928 124.45 182.928 124.436 182.925 124.422C182.611 123.261 181.418 122.575 180.26 122.89C179.102 123.205 178.419 124.402 178.733 125.564C178.737 125.578 178.744 125.589 178.748 125.603L177.306 125.995C177.303 125.982 177.303 125.968 177.3 125.954C176.985 124.792 175.793 124.106 174.635 124.421C173.477 124.736 172.794 125.933 173.108 127.095C173.111 127.109 173.118 127.121 173.123 127.134L171.681 127.527C171.678 127.513 171.678 127.499 171.675 127.485C171.36 126.324 170.167 125.637 169.01 125.953C167.852 126.268 167.168 127.465 167.482 128.627C167.486 128.641 167.493 128.652 167.497 128.666L166.056 129.058C166.053 129.044 166.053 129.031 166.049 129.017C165.735 127.855 164.542 127.169 163.384 127.484C162.227 127.799 161.543 128.996 161.857 130.158C161.861 130.172 161.868 130.183 161.872 130.197L160.431 130.59C160.427 130.576 160.428 130.562 160.424 130.548C160.11 129.387 158.917 128.701 157.759 129.016C156.602 129.331 155.918 130.528 156.232 131.69C156.236 131.704 156.243 131.715 156.247 131.729L154.805 132.122C154.802 132.108 154.802 132.094 154.798 132.08C154.485 130.918 153.291 130.232 152.134 130.548C150.976 130.863 150.292 132.06 150.607 133.222C150.61 133.235 150.618 133.247 150.621 133.261L149.187 133.651L133.126 74.2476Z" fill="#D6D6D6"/>
<path d="M190.279 87.2356L210.177 96.1796C212.103 97.0453 213.708 98.4984 214.763 100.332L227.084 130.311L207.813 144.628L196.633 104.913L194.076 100.741L190.279 87.2356Z" fill="#E2A27D"/>
<path d="M227.084 130.311L235.902 140.217L215.776 154.933L207.812 144.628L227.084 130.311Z" fill="#E2A27D"/>
<path d="M193.767 99.0463L191.998 91.9868L201.939 99.0022C204.207 100.4 205.888 102.58 206.669 105.134L210.588 113.88L193.767 99.0463Z" fill="#D99676"/>
<path d="M183.963 110.34L185.809 115.714C186.693 118.285 188.731 120.289 191.311 121.123L196.573 122.823L188.615 107.382L183.963 110.34Z" fill="#D99676"/>
<path d="M186.471 116.242L188.317 121.615C189.201 124.187 191.239 126.191 193.819 127.024L199.081 128.724L191.123 113.284L186.471 116.242Z" fill="#D99676"/>
<path d="M191.625 123.352L193.471 128.725C194.355 131.297 196.393 133.301 198.973 134.134L204.235 135.834L196.277 120.394L191.625 123.352Z" fill="#D99676"/>
<path d="M118.794 47.4113L118.847 47.3971L114.783 32.5138L116.449 32.0649C116.453 32.0825 116.453 32.0998 116.458 32.1175C116.861 33.5928 118.391 34.4648 119.876 34.0643C121.361 33.6638 122.239 32.1434 121.836 30.6677C121.831 30.65 121.822 30.6354 121.816 30.6181L123.666 30.1196C123.67 30.1372 123.669 30.1545 123.674 30.1722C124.077 31.6475 125.607 32.5191 127.093 32.119C128.578 31.7185 129.455 30.1981 129.052 28.7224C129.047 28.7047 129.038 28.6901 129.033 28.6728L130.882 28.1742C130.886 28.1919 130.886 28.2092 130.89 28.2268C131.293 29.7022 132.824 30.5738 134.309 30.1737C135.794 29.7735 136.671 28.2528 136.268 26.7771C136.263 26.7594 136.254 26.7448 136.249 26.7275L138.098 26.2289C138.102 26.2466 138.102 26.2639 138.106 26.2815C138.509 27.7569 140.04 28.6288 141.525 28.2283C143.01 27.8279 143.887 26.3075 143.484 24.8318C143.48 24.8141 143.47 24.7994 143.465 24.7822L145.314 24.2836C145.318 24.3013 145.318 24.3186 145.322 24.3362C145.725 25.8115 147.256 26.6835 148.741 26.283C150.226 25.8826 151.103 24.3621 150.7 22.8864C150.695 22.8688 150.686 22.8541 150.681 22.8369L152.53 22.3383C152.534 22.356 152.534 22.3733 152.538 22.3909C152.942 23.8662 154.472 24.7382 155.957 24.3377C157.442 23.9376 158.319 22.4168 157.916 20.9411C157.911 20.9235 157.902 20.9084 157.897 20.8915L159.746 20.393C159.75 20.4103 159.75 20.4279 159.755 20.4456C160.157 21.9209 161.688 22.7929 163.173 22.3924C164.658 21.9923 165.535 20.4715 165.132 18.9958C165.127 18.9782 165.118 18.9635 165.113 18.9462L166.961 18.4477C166.966 18.4654 166.965 18.4826 166.97 18.5003C167.373 19.9756 168.903 20.8476 170.389 20.4471C171.873 20.047 172.751 18.5262 172.348 17.0505C172.343 17.0329 172.334 17.0178 172.329 17.0005L174.169 16.5046L194.719 91.9769L198.783 106.86L197.117 107.309C197.112 107.292 197.113 107.275 197.108 107.257C196.705 105.782 195.175 104.91 193.69 105.31C192.205 105.711 191.328 107.231 191.73 108.707C191.735 108.724 191.744 108.739 191.75 108.756L189.9 109.255C189.896 109.237 189.897 109.22 189.892 109.202C189.489 107.727 187.959 106.855 186.473 107.255C184.988 107.656 184.111 109.176 184.514 110.652C184.519 110.67 184.528 110.684 184.533 110.702L182.684 111.2C182.68 111.182 182.68 111.165 182.676 111.147C182.273 109.672 180.743 108.8 179.257 109.201C177.773 109.601 176.895 111.122 177.298 112.597C177.303 112.615 177.312 112.63 177.317 112.647L175.468 113.145C175.464 113.128 175.464 113.11 175.46 113.093C175.057 111.617 173.526 110.745 172.041 111.146C170.556 111.546 169.679 113.067 170.082 114.543C170.087 114.56 170.096 114.575 170.101 114.592L168.252 115.091C168.248 115.073 168.248 115.056 168.244 115.038C167.841 113.563 166.31 112.691 164.825 113.091C163.34 113.492 162.463 115.012 162.866 116.488C162.871 116.506 162.88 116.521 162.885 116.537L161.036 117.036C161.032 117.018 161.032 117.001 161.027 116.983C160.624 115.508 159.094 114.636 157.609 115.037C156.124 115.437 155.247 116.957 155.649 118.433C155.654 118.451 155.663 118.465 155.669 118.483L153.82 118.981C153.815 118.964 153.816 118.946 153.811 118.929C153.408 117.453 151.878 116.581 150.393 116.982C148.908 117.382 148.031 118.903 148.433 120.379C148.438 120.396 148.447 120.411 148.452 120.428L146.603 120.927C146.599 120.909 146.6 120.892 146.595 120.874C146.192 119.399 144.661 118.527 143.176 118.928C141.691 119.328 140.814 120.848 141.217 122.324C141.222 122.342 141.231 122.356 141.236 122.374L139.396 122.87L118.794 47.4113Z" fill="#FDFFFB"/>
<path d="M207.813 144.628L198.306 132.703C196.051 129.874 194.254 126.706 192.984 123.314L188.83 112.227L179.973 98.3926C178.403 95.941 179.119 92.6764 181.57 91.1131L181.755 90.9948C184.073 89.5157 187.136 90.0841 188.774 92.2973L195.438 101.304L207.314 111.063L207.813 144.628Z" fill="#E2A27D"/>
<path d="M183.662 99.0946L188.275 96.1222C188.64 95.8876 188.745 95.4017 188.511 95.0365L187.677 93.7322C186.719 92.2356 184.734 91.8015 183.242 92.7624L182.712 93.1043C181.221 94.0652 180.788 96.0571 181.745 97.5537L182.58 98.8579C182.814 99.2232 183.298 99.3291 183.662 99.0946Z" fill="#E9C3AE"/>
<path d="M232.633 133.111L208.398 149.615L212.677 155.247L236.998 138.351L232.633 133.111Z" fill="#FDFFFB"/>
<path d="M240.29 135.223L209.568 157.905L227.997 181.624L258.559 157.665L240.29 135.223Z" fill="#54749B"/>
<path d="M159.918 36.7703L158.95 37.0328L157.934 33.2598L156.694 33.5959L156.477 32.7874L159.924 31.8527L160.142 32.6612L158.902 32.9973L159.918 36.7703Z" fill="#707070"/>
<path d="M154.365 33.3598C154.954 33.2001 155.418 33.211 155.757 33.3925C156.096 33.5719 156.325 33.8841 156.445 34.3291C156.499 34.5296 156.521 34.73 156.51 34.9302C156.498 35.1283 156.443 35.3171 156.344 35.4964C156.247 35.6751 156.096 35.837 155.892 35.9821C155.687 36.1251 155.418 36.2418 155.084 36.3321L154.669 36.4446L155.108 38.0742L154.14 38.3366L152.906 33.7551L154.365 33.3598ZM154.529 34.1693L154.089 34.2887L154.455 35.6487L154.773 35.5623C154.954 35.5132 155.105 35.4466 155.226 35.3624C155.346 35.2783 155.429 35.1751 155.474 35.053C155.519 34.9309 155.52 34.7894 155.477 34.6285C155.416 34.4029 155.309 34.2527 155.155 34.1779C155 34.1011 154.791 34.0982 154.529 34.1693Z" fill="#707070"/>
<path d="M152.022 38.9103L150.789 34.3289L151.757 34.0664L152.991 38.6479L152.022 38.9103Z" fill="#707070"/>
<path d="M151.068 39.1695L148.439 39.8823L147.205 35.3008L149.835 34.588L150.049 35.3839L148.387 35.8343L148.658 36.8402L150.204 36.4212L150.418 37.2171L148.873 37.6362L149.191 38.8176L150.852 38.3672L151.068 39.1695Z" fill="#707070"/>
<path d="M145.264 36.6233C145.079 36.6735 144.924 36.7546 144.8 36.8667C144.678 36.9761 144.586 37.112 144.525 37.2743C144.466 37.436 144.437 37.6198 144.439 37.8255C144.44 38.0313 144.474 38.2543 144.538 38.4945C144.625 38.8184 144.74 39.0844 144.881 39.2928C145.023 39.4985 145.195 39.6391 145.396 39.7145C145.597 39.7879 145.83 39.7885 146.097 39.7162C146.282 39.666 146.462 39.5949 146.636 39.5029C146.812 39.4103 146.999 39.2957 147.197 39.1592L147.416 39.9739C147.237 40.1122 147.054 40.2257 146.868 40.3143C146.682 40.4049 146.468 40.4833 146.224 40.5493C145.754 40.6768 145.34 40.6847 144.984 40.5728C144.629 40.4582 144.332 40.2452 144.091 39.9338C143.851 39.6202 143.667 39.2284 143.54 38.7583C143.447 38.4115 143.408 38.0813 143.424 37.7676C143.441 37.4539 143.511 37.167 143.635 36.9069C143.759 36.6468 143.939 36.4232 144.175 36.236C144.41 36.0489 144.701 35.9085 145.047 35.8148C145.274 35.7532 145.508 35.721 145.751 35.718C145.995 35.7123 146.235 35.7314 146.47 35.7752L146.37 36.6496C146.178 36.6144 145.987 36.5899 145.798 36.5762C145.609 36.5624 145.431 36.5781 145.264 36.6233Z" fill="#707070"/>
<path d="M143.404 41.2469L140.774 41.9597L139.541 37.3782L142.171 36.6654L142.385 37.4613L140.723 37.9117L140.994 38.9176L142.54 38.4986L142.754 39.2945L141.209 39.7136L141.527 40.895L143.188 40.4446L143.404 41.2469Z" fill="#707070"/>
<path d="M136.649 38.1621C137.063 38.0498 137.418 38.0073 137.714 38.0348C138.011 38.0617 138.253 38.1587 138.439 38.3258C138.624 38.4929 138.759 38.731 138.842 39.0402C138.898 39.2492 138.908 39.4427 138.871 39.6208C138.834 39.7989 138.766 39.9598 138.666 40.1034C138.566 40.2471 138.45 40.3737 138.319 40.4833L140.199 42.1154L139.125 42.4066L137.562 40.9441L137.047 41.0837L137.52 42.8418L136.552 43.1042L135.318 38.5227L136.649 38.1621ZM136.794 38.9767L136.501 39.0562L136.834 40.2941L137.146 40.2094C137.467 40.1225 137.682 40.0071 137.79 39.8633C137.901 39.7169 137.928 39.5392 137.871 39.3303C137.813 39.113 137.696 38.9787 137.522 38.9274C137.349 38.8756 137.107 38.892 136.794 38.9767Z" fill="#707070"/>
<path d="M170.996 35.6975L127.65 47.4475L128.125 49.2121L171.471 37.4621L170.996 35.6975Z" fill="#707070"/>
<path d="M180.752 71.9397L137.406 83.6897L137.881 85.4543L181.227 73.7043L180.752 71.9397Z" fill="#707070"/>
<path d="M169.972 80.1362L149.74 85.6206L150.215 87.3852L170.447 81.9008L169.972 80.1362Z" fill="#707070"/>
<path d="M154.644 50.942L130.361 57.5244L130.836 59.289L155.119 52.7066L154.644 50.942Z" fill="#DADADA"/>
<path d="M140.105 59.7773L131.592 62.085L132.067 63.8495L140.58 61.5419L140.105 59.7773Z" fill="#DADADA"/>
<path d="M150.013 61.9845L132.818 66.6458L133.293 68.4103L150.488 63.7491L150.013 61.9845Z" fill="#DADADA"/>
<path d="M158.327 64.6242L134.045 71.2065L134.52 72.9711L158.802 66.3887L158.327 64.6242Z" fill="#DADADA"/>
<path d="M145.541 72.9847L135.275 75.7673L135.75 77.5319L146.016 74.7492L145.541 72.9847Z" fill="#DADADA"/>
<path d="M173.431 45.8502L163.33 48.5884L163.805 50.3529L173.906 47.6148L173.431 45.8502Z" fill="#DADADA"/>
<path d="M174.656 50.411L164.555 53.1492L165.03 54.9137L175.131 52.1756L174.656 50.411Z" fill="#DADADA"/>
<path d="M175.884 54.9716L165.783 57.7097L166.258 59.4743L176.359 56.7361L175.884 54.9716Z" fill="#DADADA"/>
<path d="M177.115 59.5326L167.014 62.2708L167.489 64.0353L177.59 61.2972L177.115 59.5326Z" fill="#DADADA"/>
<path d="M178.341 64.0929L168.24 66.8311L168.715 68.5956L178.816 65.8575L178.341 64.0929Z" fill="#DADADA"/>
<path d="M141.994 98.5227L141.254 98.7234L144.367 110.286L145.107 110.085L141.994 98.5227Z" fill="#707070"/>
<path d="M143.603 98.0867L142.863 98.2874L145.976 109.85L146.716 109.649L143.603 98.0867Z" fill="#707070"/>
<path d="M147.278 97.0906L146.908 97.1909L150.021 108.753L150.391 108.653L147.278 97.0906Z" fill="#707070"/>
<path d="M148.505 96.7579L148.135 96.8582L151.248 108.421L151.617 108.32L148.505 96.7579Z" fill="#707070"/>
<path d="M146.329 97.3464L144.523 97.8357L147.636 109.398L149.441 108.909L146.329 97.3464Z" fill="#707070"/>
<path d="M151.168 96.0356L149.363 96.5249L152.476 108.087L154.281 107.598L151.168 96.0356Z" fill="#707070"/>
<path d="M152.271 95.7364L151.531 95.937L154.644 107.499L155.384 107.299L152.271 95.7364Z" fill="#707070"/>
<path d="M153.88 95.3002L153.141 95.5007L156.253 107.063L156.993 106.863L153.88 95.3002Z" fill="#707070"/>
<path d="M162.916 92.8515L162.176 93.052L165.289 104.614L166.028 104.414L162.916 92.8515Z" fill="#707070"/>
<path d="M164.521 92.4171L163.781 92.6177L166.894 104.18L167.634 103.98L164.521 92.4171Z" fill="#707070"/>
<path d="M157.557 94.3043L157.188 94.4045L160.3 105.967L160.67 105.867L157.557 94.3043Z" fill="#707070"/>
<path d="M158.784 93.9717L158.414 94.072L161.527 105.634L161.897 105.534L158.784 93.9717Z" fill="#707070"/>
<path d="M156.598 94.5685L154.793 95.0576L157.905 106.62L159.71 106.131L156.598 94.5685Z" fill="#707070"/>
<path d="M161.446 93.2494L159.641 93.7388L162.753 105.301L164.559 104.812L161.446 93.2494Z" fill="#707070"/>
</g>
</svg>
