<svg width="320" height="158" viewBox="0 0 320 158" fill="none" xmlns="http://www.w3.org/2000/svg">
<path opacity="0.6" d="M299.832 157.032C302.426 152.467 306.489 141.62 308.809 130.391C315.846 95.9335 301.428 68.1309 273.403 51.6566C259.584 43.5184 246.83 42.3968 235.774 43.4138C223.206 44.5696 212.832 48.4944 205.583 48.0222C195.293 47.3503 189.421 33.7789 174.355 21.249C165.531 13.9143 153.552 6.95718 135.685 3.2095C113.87 -1.36919 84.8712 -1.76845 64.3087 6.78994C56.2168 10.1557 49.5072 14.8907 45.1453 21.2491C33.9249 37.5949 41.8351 59.0994 51.9516 76.1991C66.2897 100.433 47.5271 104.656 30.5727 114.267C17.7016 121.566 5.87194 132.396 10.3736 157.033H299.832V157.032Z" fill="#D5E6FE"/>
<path d="M319.638 157.457H0.362535C0.163141 157.457 0 157.294 0 157.095V156.971C0 156.772 0.163141 156.608 0.362535 156.608H319.637C319.837 156.608 320 156.772 320 156.971V157.095C320 157.294 319.837 157.457 319.638 157.457Z" fill="#8692C2"/>
<path opacity="0.9" d="M191 114.738C191 114.738 193.374 111.951 199.05 112.261C199.05 112.261 207.291 107.616 216.08 111.641C216.08 111.641 225.421 110.644 232.34 112.505C236.952 113.746 238.476 115.047 238.476 115.047L191 114.738Z" fill="#F8FCFF"/>
<path opacity="0.9" d="M122 60.6609C122 60.6609 125.719 53.8022 134.613 54.5643C134.613 54.5643 147.525 43.1328 161.293 53.0401C161.293 53.0401 175.93 50.5853 186.769 55.1656C193.996 58.2194 196.383 61.4229 196.383 61.4229L122 60.6609Z" fill="#F8FCFF"/>
<path opacity="0.9" d="M114 38.3029C114 38.3029 115.462 35.1839 118.958 35.5304C118.958 35.5304 124.033 30.3318 129.445 34.8373C129.445 34.8373 135.199 33.721 139.459 35.8039C142.3 37.1927 143.238 38.6495 143.238 38.6495L114 38.3029Z" fill="#F8FCFF"/>
<path opacity="0.9" d="M207.686 45.4039C207.686 43.365 209.338 41.7124 211.377 41.7124C213.416 41.7124 215.069 43.3651 215.069 45.4039C215.069 47.4426 213.416 49.0953 211.377 49.0953C209.338 49.0954 207.686 47.4426 207.686 45.4039Z" fill="#F8FCFF"/>
<path d="M69.0929 106.576C68.9201 105.222 68.3926 104.076 67.2539 103.498C67.2539 103.498 64.7719 102.186 62.7565 102.962C62.7565 102.962 63.0084 103.335 63.4241 103.912C60.8175 102.243 57.5942 100.983 53.8198 101C53.8198 101 54.7384 102.111 56.1017 103.59C54.1691 103.196 52.0945 103.023 49.9208 103.196C49.3169 104.55 48.763 105.936 48.2619 107.356C48.8676 107.643 49.507 107.941 50.1755 108.245C51.1432 107.546 52.3865 106.838 53.5042 106.671C53.5042 106.671 52.5984 107.691 52.0199 109.068C52.7594 109.387 53.5133 109.703 54.2782 110.011C51.6843 110.578 49.0286 111.631 46.5002 113.409C46.3174 114.195 46.1501 114.991 46 115.795C46.1965 115.815 46.4038 115.837 46.623 115.858C47.7781 115.969 49.2196 116.1 50.8121 116.206C51.2796 116.24 51.7571 116.264 52.2446 116.29C52.6538 116.317 53.0649 116.335 53.4788 116.357C53.5315 116.28 53.5852 116.192 53.6397 116.106C54.1381 115.348 54.873 114.356 55.617 113.862C55.617 113.862 55.3841 115.342 55.2577 116.378C55.2504 116.392 55.2541 116.407 55.2477 116.421C55.3014 116.422 55.355 116.422 55.4087 116.423C55.4142 116.421 55.4142 116.421 55.4142 116.421C57.1013 116.469 58.7957 116.461 60.3827 116.385C60.4755 115.704 60.6119 114.372 60.3918 113.929C60.3918 113.929 61.5451 114.623 61.6387 116.302C61.988 116.272 62.3236 116.241 62.6464 116.203C62.7128 116.197 62.7792 116.189 62.8447 116.18C63.7851 116.064 64.6219 115.904 65.3658 115.71C66.1434 115.509 66.8183 115.274 67.404 115.02C67.5168 114.972 67.6241 114.923 67.7296 114.873C67.8724 114.283 69.5104 109.832 69.0929 106.576ZM67.7296 114.873C67.706 114.965 67.7205 114.963 67.7851 114.847C67.7669 114.856 67.7487 114.864 67.7296 114.873ZM89.3492 124.36C89.2728 124.154 89.1945 123.951 89.1118 123.751C88.5524 122.366 87.8776 121.108 87.1191 119.967C86.818 119.513 86.5033 119.076 86.1768 118.659C86.1186 118.582 86.0586 118.507 85.9977 118.432C85.984 118.414 85.9695 118.396 85.9549 118.378C85.9095 118.321 85.864 118.266 85.8176 118.211C84.9072 117.105 83.9177 116.128 82.889 115.267C84.8945 115.412 86.3351 115.439 86.3351 115.439C83.9986 112.474 81.0064 110.737 78.0769 109.739C78.7872 109.703 79.2356 109.669 79.2356 109.669C79.0519 109.086 78.7135 108.577 78.3234 108.148C77.3357 107.062 76.0151 106.484 76.0151 106.484C75.3821 106.195 74.7909 105.985 74.2397 105.84C71.7259 105.177 70.0561 105.87 69.0929 106.576C68.8028 106.789 68.5772 107.002 68.4117 107.18C67.1985 104.644 54.9321 112.029 57.9307 111.936C58.9803 111.903 62.048 111.455 62.8756 111.378C62.8274 112.096 63.2549 112.496 64.0543 112.682C64.2681 112.73 64.4827 112.757 64.6955 112.764C64.4036 113.189 63.6614 114.351 62.6464 116.203C60.5792 119.975 57.3796 126.613 54.541 135.743C52.2455 143.124 50.8903 151.746 50.432 155.066C50.3201 155.876 50.261 156.371 50.2555 156.453C50.2555 156.453 50.8558 157.003 52.4956 157.139C54.0335 157.265 55.2741 156.848 55.2741 156.848C55.295 156.574 55.3578 155.956 55.4615 155.066C55.918 151.124 57.1622 141.829 59.0167 133.196C60.892 124.464 63.6714 118.781 65.3658 115.71C66.1434 115.509 66.8183 115.274 67.404 115.02C67.7442 115.872 68.2116 116.81 68.8392 117.831C68.941 118 69.0484 118.171 69.1611 118.345C69.2676 118.511 69.3794 118.679 69.494 118.851C70.8655 117.88 72.1279 118.348 72.1279 118.348C71.645 118.452 70.6864 119.389 70.2116 119.885C71.142 121.175 72.1897 122.506 73.2784 123.795C73.2784 123.795 73.2784 123.795 73.2784 123.802C73.3139 123.843 73.3475 123.884 73.3821 123.925C73.3885 123.912 73.4021 123.905 73.4103 123.891C73.5713 123.727 73.7468 123.545 73.9205 123.361C74.5381 122.713 75.1538 122.043 75.1538 122.043C75.2293 122.933 74.9128 124.125 74.6299 124.987C74.5963 125.084 74.5608 125.181 74.5326 125.27C74.8091 125.58 75.0774 125.89 75.3539 126.193C75.6767 126.56 75.9951 126.918 76.3116 127.263C76.6735 127.659 77.0264 128.04 77.3666 128.403C77.5749 128.627 77.7786 128.844 77.9769 129.053C78.4152 129.516 78.8245 129.942 79.1938 130.323C79.5312 130.67 79.8349 130.979 80.096 131.244C80.4561 131.61 80.7363 131.891 80.9172 132.067C81.0546 132.205 81.131 132.281 81.131 132.281C81.1373 132.212 81.1446 132.143 81.1446 132.081C81.161 131.891 81.1755 131.704 81.1865 131.517C81.2046 131.237 81.2165 130.959 81.221 130.681C81.2892 127.547 80.6899 124.745 79.7058 122.277C79.6694 122.186 79.6321 122.096 79.5948 122.005C79.4093 121.557 79.2101 121.119 79.0009 120.693C79.3347 120.883 79.6694 121.069 80.0032 121.252C80.0587 121.283 80.1133 121.314 80.1687 121.343C80.4952 121.522 80.8208 121.698 81.1446 121.871C81.573 121.089 81.8286 120.294 81.9659 119.781C81.9759 119.742 81.9859 119.705 81.9941 119.669C82.0659 119.389 82.0959 119.217 82.0959 119.217C82.1551 119.321 82.2115 119.428 82.2633 119.541C82.2724 119.561 82.2824 119.582 82.2915 119.602V119.603C82.7135 120.546 82.889 121.758 82.9372 122.803C83.131 122.902 83.3228 122.999 83.5129 123.094C83.8485 123.264 84.1769 123.427 84.4979 123.585C84.9054 123.787 85.301 123.978 85.6803 124.16C85.7003 124.127 85.7194 124.093 85.7385 124.06C86.3651 122.96 86.2951 121.83 86.2951 121.83C86.8726 122.788 87.2528 124.132 87.4656 125.008C87.6939 125.111 87.9067 125.207 88.1068 125.305C88.3305 125.406 88.537 125.5 88.7234 125.584C89.4719 125.921 89.9139 126.111 89.9139 126.111C89.7421 125.504 89.5556 124.925 89.3492 124.36Z" fill="#CCE3FF"/>
<path d="M90.1877 58.596C90.1877 58.596 89.6966 58.3368 88.9062 58.0376C87.2855 57.4255 84.4061 56.6497 81.9122 57.6101C81.9122 57.6101 82.3761 58.295 83.14 59.3573C78.3434 56.2841 72.4126 53.9676 65.4659 54.0003C65.4659 54.0003 67.1566 56.0431 69.665 58.7652C63.4877 57.5046 56.5219 57.471 49.1687 59.8866C48.1173 60.2367 47.0705 60.6324 46 61.0798C46 61.0798 47.2169 61.7319 49.2314 62.756C49.5989 62.9325 49.9827 63.1298 50.3929 63.339C51.8981 62.6433 54.2682 61.6483 56.3118 61.3836C56.3118 61.3836 54.4974 62.6496 53.6597 64.9379C55.2177 65.6928 56.9312 66.5013 58.7602 67.3317C60.5401 66.0448 62.8283 64.7424 64.8856 64.434C64.8856 64.434 63.2185 66.3131 62.1544 68.846C63.5141 69.4344 64.902 70.0156 66.309 70.5822C60.6337 71.8246 54.7966 74.3302 49.3824 78.835C48.7248 79.3743 48.0918 79.9436 47.4543 80.5475C47.3642 80.6194 47.2733 80.7076 47.1823 80.7967C47.1823 80.7967 47.3779 80.8195 47.7344 80.8595C48.5266 80.9586 50.1054 81.1287 52.2209 81.3424C53.6061 81.4761 55.2159 81.6235 56.9803 81.7653C57.9235 81.8408 58.9103 81.9145 59.9307 81.9827C60.7911 82.0446 61.6706 82.09 62.5682 82.1382C63.3204 82.1873 64.0753 82.2192 64.8383 82.2601C64.9356 82.1182 65.0348 81.9582 65.1348 81.7981C66.0516 80.4029 67.4049 78.5794 68.7728 77.6699C68.7728 77.6699 68.3462 80.3929 68.1116 82.2983C68.0998 82.3238 68.1052 82.352 68.0934 82.3774C68.1925 82.3792 68.2917 82.382 68.3908 82.3838C68.4008 82.3765 68.4008 82.3765 68.4008 82.3765C71.5049 82.4675 74.6217 82.4511 77.5448 82.3138C77.714 81.0596 77.9659 78.6058 77.5612 77.7918C77.5612 77.7918 79.6822 79.0714 79.855 82.161C80.4971 82.1055 81.1155 82.0491 81.7103 81.9791C81.8331 81.9645 81.9541 81.95 82.075 81.9345C84.8845 81.5916 91.8221 71.9446 92.7261 64.9652C93.0908 62.1421 92.4687 59.7547 90.1877 58.596ZM131.382 98.5364C131.23 98.0662 131.071 97.6023 130.905 97.144C130.887 97.0921 130.868 97.0403 130.849 96.9884C130.656 96.4664 130.454 95.9534 130.243 95.4505C129.941 94.7274 129.622 94.0244 129.288 93.3395C128.945 92.6383 128.586 91.9571 128.214 91.295C125.671 86.7894 122.437 83.165 118.962 80.2547C122.654 80.5212 125.305 80.5721 125.305 80.5721C121.005 75.1169 115.498 71.9192 110.107 70.0802C111.413 70.0165 112.238 69.9528 112.238 69.9528C111.045 66.1594 106.313 64.0921 106.313 64.0921C98.8524 60.6833 94.5596 63.2435 92.7261 64.9652C92.5742 65.108 92.4387 65.2453 92.3196 65.3726C90.0868 60.7042 67.5122 74.2948 73.0319 74.1238C74.9628 74.0638 80.6098 73.2388 82.1323 73.0997C82.0432 74.4185 82.8299 75.1542 84.3015 75.4971C84.6944 75.5862 85.0882 75.6363 85.4811 75.649C84.9454 76.4312 83.5793 78.5685 81.7103 81.9791C80.0287 85.0468 77.9405 89.145 75.6822 94.2136C74.0478 97.8816 72.3244 102.057 70.6036 106.719C69.3194 110.192 68.037 113.935 66.7928 117.939C64.1171 126.541 62.1362 136.063 60.8284 143.44C60.1617 147.202 59.6697 150.406 59.3504 152.646C59.0658 154.641 58.9184 155.871 58.9057 156.049C58.9057 156.049 59.7715 156.843 62.0598 157.198C62.3581 157.244 62.681 157.282 63.0293 157.312C65.8597 157.544 68.1416 156.779 68.1416 156.779C68.1862 156.189 68.3362 154.744 68.5854 152.646C68.8619 150.324 69.2603 147.202 69.7732 143.552C69.7778 143.515 69.7832 143.477 69.7887 143.44C70.9692 135.038 72.7491 123.872 75.0292 113.252C75.1392 112.741 75.2502 112.235 75.363 111.735C76.6799 105.911 78.2097 100.853 79.7658 96.5221C84.1241 84.394 88.688 77.9639 89.3637 76.335C89.9094 78.707 91.0254 81.5874 93.1063 84.9743C93.4746 85.5837 93.8803 86.2048 94.3114 86.8524C96.8361 85.0634 99.158 85.9256 99.158 85.9256C98.2695 86.1166 96.5059 87.8419 95.631 88.7551C95.8948 89.1207 96.164 89.4881 96.4377 89.8565C97.6847 91.5363 99.0271 93.2425 100.419 94.9214C100.702 95.2652 100.988 95.6072 101.276 95.9482C101.276 95.9482 101.276 95.9482 101.276 95.961C101.34 96.0374 101.404 96.1138 101.467 96.1893C101.479 96.1647 101.505 96.152 101.517 96.1265C102.862 94.7559 104.727 92.7259 104.727 92.7259C104.867 94.363 104.283 96.5576 103.763 98.1438C103.7 98.3211 103.636 98.4985 103.586 98.664C104.093 99.2342 104.588 99.8054 105.095 100.364C105.692 101.036 106.275 101.696 106.859 102.33C108.838 104.499 110.678 106.428 112.162 107.963C113.646 109.485 114.762 110.615 115.333 111.173C115.587 111.427 115.727 111.566 115.727 111.566C115.74 111.44 115.753 111.312 115.753 111.199C115.828 110.323 115.879 109.472 115.892 108.623C115.918 107.398 115.889 106.2 115.81 105.03C115.74 103.995 115.63 102.98 115.484 101.987C114.85 97.659 113.529 93.7427 111.806 90.2394C113.126 90.9879 114.446 91.7109 115.753 92.4094C117.071 89.9983 117.503 87.5245 117.503 87.5245C118.544 89.3262 118.95 91.9274 119.051 94.122C120.84 95.0351 122.539 95.8728 124.1 96.6213C124.29 96.3102 124.448 95.9964 124.579 95.6872C125.124 94.413 125.221 93.2243 125.233 92.6659C125.237 92.454 125.23 92.333 125.23 92.333C125.263 92.3894 125.297 92.4467 125.332 92.504C125.894 93.4817 126.351 94.6531 126.711 95.7682C126.823 96.1165 126.927 96.4603 127.02 96.7904C127.163 97.2934 127.285 97.7663 127.386 98.182C127.804 98.372 128.198 98.5494 128.566 98.7267C128.678 98.7786 128.788 98.8286 128.897 98.8777C129.081 98.9614 129.259 99.0423 129.429 99.1187C130.97 99.8163 131.89 100.211 131.89 100.211C131.728 99.6405 131.559 99.0839 131.382 98.5364Z" fill="#ABCEF4"/>
<path d="M255.628 83.9001C255.313 83.7604 255.166 83.4111 255.302 83.1236L257.332 78.8269C257.468 78.5393 257.837 78.4184 258.152 78.5581C258.468 78.6978 258.614 79.0471 258.479 79.3346L256.448 83.6313C256.312 83.9187 255.943 84.0396 255.628 83.9001Z" fill="#E2A476"/>
<path d="M251.672 91.4251C251.672 91.4251 225.394 75.5395 198.999 85.2812C198.999 85.2812 215.017 91.4447 220.815 99.8096C220.815 99.8096 237.034 90.2657 251.672 91.4251Z" fill="#E06D20"/>
<path d="M220.815 99.8096C220.815 99.8096 240.957 106.451 242.241 111.596L251.672 91.4251C251.672 91.4251 231.672 89.9368 220.815 99.8096Z" fill="#E57428"/>
<path d="M251.758 91.4626C251.758 91.4626 281.356 100.324 290.998 126.026C290.998 126.026 275.708 118.324 265.378 119.546C265.378 119.546 262.234 101.426 251.758 91.4626Z" fill="#E06D20"/>
<path d="M265.377 119.546C265.377 119.546 247.017 109.135 242.156 111.558L251.757 91.4626C251.757 91.4626 265.996 105.139 265.377 119.546Z" fill="#E57428"/>
<path d="M221.354 156.741L221.1 156.628C220.586 156.401 220.347 155.831 220.568 155.363L250.539 91.9523C250.76 91.4839 251.362 91.2868 251.875 91.5143L252.13 91.6271C252.644 91.8547 252.883 92.424 252.662 92.8924L222.691 156.303C222.469 156.771 221.868 156.968 221.354 156.741Z" fill="#E2A476"/>
<path d="M199.001 85.2813C199.103 85.2487 212.246 81.1076 223.304 86.1382L223.306 86.1361C223.361 86.0792 224.538 84.8763 226.754 83.4659C229.726 81.5729 234.57 79.3062 241.083 78.9358C244.96 78.7155 249.426 79.1666 254.441 80.7693C246.427 77.7345 239.119 76.3735 232.626 76.0694C232.625 76.0688 232.623 76.0678 232.622 76.0681C227.186 75.8127 222.321 76.2976 218.096 77.1582C218.096 77.1582 218.095 77.1576 218.094 77.1586C205.968 79.6273 199.09 85.1974 199.001 85.2813Z" fill="#EF7E29"/>
<path d="M259.204 82.9524C263.034 85.1723 265.924 87.6208 268.098 90.1009C271.822 94.3405 273.455 98.6691 274.136 102.091C274.908 105.97 274.456 108.683 274.439 108.782L274.439 108.785C285.6 113.595 290.957 125.93 290.999 126.026C290.998 126.02 290.998 126.014 290.999 126.008C291.001 125.916 291.005 125.483 290.959 124.763C290.959 124.76 290.959 124.757 290.959 124.755C290.822 122.647 290.261 118.102 288.017 112.489C286.547 108.81 284.356 104.674 281.086 100.464C276.379 94.3968 269.438 88.1767 259.204 82.9524Z" fill="#EF7E29"/>
<path d="M223.304 86.1382C223.304 86.1382 252.475 86.1965 274.439 108.786C274.439 108.786 275.548 104.709 274.012 99.3472C272.412 93.7593 267.937 86.7746 256.338 81.5534C256.338 81.5534 242.659 75.0467 231.612 80.0654C231.612 80.0654 231.154 80.2577 230.446 80.6067C228.526 81.5509 224.767 83.6394 223.304 86.1382Z" fill="#F8FBFF"/>
<path d="M230.446 80.6065C238.372 81.3873 257.542 84.7626 274.012 99.347C273.303 96.8745 272.033 94.1279 269.83 91.3831C267.056 87.923 262.804 84.4642 256.338 81.5532C256.338 81.5532 247.53 77.3635 238.341 78.3008C236.079 78.5319 233.794 79.0739 231.612 80.0652C231.612 80.0652 231.154 80.2575 230.446 80.6065Z" fill="#F99746"/>
<path d="M238.341 78.3008C246.402 79.773 258.35 83.2367 269.83 91.3831C267.056 87.923 262.804 84.4642 256.338 81.5532C256.338 81.5532 247.53 77.3635 238.341 78.3008Z" fill="#F8FBFF"/>
<path d="M274.014 99.3472L274.138 102.091L274.441 108.782L274.44 108.785C285.601 113.595 290.958 125.93 291 126.026C291 126.02 290.999 126.014 291 126.008C290.993 125.587 290.98 125.172 290.96 124.763C290.961 124.76 290.96 124.757 290.96 124.755C290.725 119.817 289.594 115.777 288.018 112.489C283.144 102.315 274.014 99.3472 274.014 99.3472Z" fill="#C5DDFF"/>
<path d="M259.203 82.9524C263.034 85.1723 265.924 87.6208 268.098 90.1009L269.83 91.3831C269.83 91.3831 275.095 93.0654 281.086 100.463C276.379 94.3968 269.437 88.1767 259.203 82.9524Z" fill="#C5DDFF"/>
<path d="M199.001 85.2813C199.103 85.2487 212.246 81.1076 223.304 86.1382L223.306 86.1361L226.754 83.4659L230.445 80.6067C230.445 80.6067 223.498 77.0693 218.096 77.1581C218.096 77.1581 218.095 77.1576 218.094 77.1585C205.969 79.6273 199.09 85.1974 199.001 85.2813Z" fill="#C5DDFF"/>
<path d="M232.626 76.0693C236.551 76.6499 238.341 78.3009 238.341 78.3009C238.341 78.3009 249.426 79.1666 254.441 80.7692C246.427 77.7345 239.118 76.3734 232.626 76.0693Z" fill="#C5DDFF"/>
<path d="M176.11 149.727C176.11 149.727 177.548 151.04 177.267 151.972C176.987 152.905 175.689 153.526 175.514 154.666C175.338 155.805 174.637 156.427 174.005 156.427C173.374 156.427 170.996 156.427 170.996 156.427C170.996 156.427 170.531 155.625 171.653 155.383C172.776 155.141 173.199 153.802 173.129 152.559C173.059 151.316 173.234 149.658 173.234 149.658L175.619 149.106L176.11 149.727Z" fill="#FFB27D"/>
<path d="M158.47 153.122C158.47 153.122 158.728 156.108 158.097 156.419L150.018 156.402C150.018 156.402 150.018 155.47 151.315 155.263C152.613 155.056 154.893 154.296 155.279 152.604C155.664 150.912 158.47 153.122 158.47 153.122Z" fill="#ED985F"/>
<path d="M151.664 110.93C151.664 110.93 152.087 116.166 152.583 122.459C153.258 131.007 154.46 138.251 154.732 140.223C155.654 146.922 155.228 152.739 155.228 152.739C155.228 152.739 155.789 153.673 158.455 153.122C158.455 153.122 159.881 148.892 161.432 137.876C161.671 136.178 161.211 133.488 161.222 133.35C161.859 124.856 163.571 110.213 163.571 110.213L151.664 110.93Z" fill="#ED985F"/>
<path d="M153.594 111.556C153.594 111.556 161.597 129.446 166.922 138.194C172.409 147.209 173.234 149.658 173.234 149.658C173.234 149.658 175.356 149.883 175.619 149.106C175.619 149.106 174.547 132.422 170.164 128.68C167.849 126.704 166.641 118.031 166.535 115.545C166.43 113.058 165.852 108.137 165.852 108.137L153.594 111.556Z" fill="#FFB27D"/>
<path d="M164.069 82.9385C164.069 82.9385 158.462 84.8738 155.631 83.5224C155.631 83.5224 156.335 82.7821 157.398 82.2547C157.745 82.0824 157.965 81.7276 157.961 81.3402C157.958 81.0035 157.96 80.6981 157.971 80.4244C157.993 79.3956 158.076 78.823 158.076 78.823L160.287 77.5506L162.385 76.3306C161.627 80.5084 164.069 82.9385 164.069 82.9385Z" fill="#FFB27D"/>
<path d="M165.971 110.209C165.982 110.528 151.75 111.113 151.658 111.033C151.577 110.976 151.875 90.648 152.382 88.6287C152.992 86.2458 154.376 84.6689 155.632 83.5223L156.951 82.8172C157.988 83.0212 158.8 82.7624 159.895 82.2292C161.093 81.651 162.384 81.0266 162.591 81.1855C164.158 82.3313 165.218 84.9067 165.784 88.1977C165.786 88.2141 165.789 88.2297 165.792 88.2463C166.108 90.1282 166.267 92.2331 166.256 94.4375C166.256 95.255 165.959 109.847 165.971 110.209Z" fill="#FFB27D"/>
<path d="M162.186 77.9411C162.186 77.9411 160.542 80.1215 157.971 80.4244C157.992 79.3955 158.075 78.8229 158.075 78.8229L160.286 77.5505L162.186 77.9411Z" fill="#ED985F"/>
<path d="M157.181 78.6231C157.181 78.6231 161.971 80.1386 162.87 77.1893C163.768 74.24 164.992 72.4494 161.972 71.3572C158.952 70.2649 158.012 71.2114 157.469 72.1227C156.925 73.0341 155.958 78.1528 157.181 78.6231Z" fill="#FFB27D"/>
<path d="M165.516 71.5035C165.568 71.4589 165.677 71.4325 165.907 71.4534C165.907 71.4534 165.741 71.3126 165.498 71.2711C165.496 70.9463 165.409 70.359 164.881 70.1428C164.881 70.1428 165.152 70.3422 165.142 70.6858C164.603 69.9429 163.314 69.2718 159.511 69.0223C154.498 68.6935 155.67 72.1034 156.257 72.575C156.844 73.0464 158.609 72.244 159.791 72.5127C160.972 72.7812 160.948 74.5413 161.32 74.8372C161.691 75.1331 161.592 74.6909 162.177 74.5227C162.761 74.3544 162.681 75.2711 162.437 75.8392C162.193 76.4073 162.833 77.2964 162.833 77.2964C162.833 77.2964 162.833 77.2964 163.714 76.5867C164.595 75.8769 165.818 72.5064 165.579 71.7153C165.558 71.6453 165.537 71.5745 165.516 71.5035Z" fill="#0F429F"/>
<path d="M160.953 89.5002C160.953 89.5002 158.902 91.5622 159.6 92.7042C160.298 93.8461 162.645 92.0064 162.645 92.0064L160.953 89.5002Z" fill="#ED985F"/>
<path d="M151.689 106.161L150.926 126.329C150.926 126.329 155.789 127.986 159.798 126.65C163.806 125.313 151.689 106.161 151.689 106.161Z" fill="#ED7D2B"/>
<path d="M151.688 106.161H166.038L170.216 126.685C170.216 126.685 166.21 128.894 159.868 127.683L151.688 106.161Z" fill="#F99746"/>
<path d="M203.894 97.8248C203.602 99.6949 182.936 113.19 159.053 116.716C135.171 120.241 115.016 117.721 114.037 111.087C113.058 104.454 131.626 96.2188 155.508 92.6939C179.391 89.1689 204.281 95.3516 203.894 97.8248Z" fill="#A8D29F"/>
<path d="M203.894 97.8247C203.602 99.6949 182.936 113.19 159.053 116.716C135.171 120.24 115.016 117.721 114.037 111.087L203.894 97.8247Z" fill="#80C172"/>
<path d="M162.587 81.1602C162.587 81.1602 165.724 82.6455 167.228 84.929C169.561 88.4711 172.265 101.38 172.315 102.576C172.365 103.771 170.215 110.729 170.215 110.729C170.215 110.729 169.019 111.894 168.49 110.858C168.49 110.858 168.169 102.368 167.91 101.811C167.65 101.253 159.353 90.1789 160.286 87.8159C161.219 85.4526 162.587 81.1602 162.587 81.1602Z" fill="#FFB27D"/>
<path d="M170.788 108.83C170.788 108.83 170.227 112.256 170.006 113.255C169.83 114.047 169.627 114.864 168.565 115.359C167.891 115.674 166.303 115.719 166.582 115.222C167.317 113.915 167.646 114.01 167.372 113.026C167.191 112.377 167.046 114.234 166.714 114.277C166.381 114.32 166.499 112.325 166.487 111.718C166.476 111.111 168.195 110.684 168.393 108.495L170.788 108.83Z" fill="#FFB27D"/>
<path d="M157.014 76.6576C157.014 76.6576 157.032 77.0995 157.352 77.2356C157.671 77.3718 158.592 77.2356 158.592 77.2356C158.592 77.2356 157.855 76.5777 157.014 76.6576Z" fill="white"/>
</svg>
