<svg width="320" height="158" viewBox="0 0 320 158" fill="none" xmlns="http://www.w3.org/2000/svg">
<path opacity="0.6" d="M299.832 157.032C302.426 152.467 306.489 141.62 308.809 130.391C315.846 95.9335 301.428 68.1309 273.403 51.6566C259.584 43.5184 246.83 42.3968 235.774 43.4138C223.206 44.5696 212.832 48.4944 205.583 48.0222C195.293 47.3503 189.421 33.7789 174.355 21.249C165.531 13.9143 153.552 6.95718 135.685 3.2095C113.87 -1.36919 84.8712 -1.76845 64.3087 6.78994C56.2168 10.1557 49.5072 14.8907 45.1453 21.2491C33.9249 37.5949 41.8351 59.0994 51.9516 76.1991C66.2897 100.433 47.5271 104.656 30.5727 114.267C17.7016 121.566 5.87194 132.396 10.3736 157.033H299.832V157.032Z" fill="#D5E6FE"/>
<path d="M319.638 157.457H0.362535C0.163141 157.457 0 157.294 0 157.095V156.971C0 156.772 0.163141 156.608 0.362535 156.608H319.637C319.837 156.608 320 156.772 320 156.971V157.095C320 157.294 319.837 157.457 319.638 157.457Z" fill="#8692C2"/>
<mask id="mask0_7747_23357" style="mask-type:alpha" maskUnits="userSpaceOnUse" x="43" y="37" width="203" height="120">
<rect x="43" y="37" width="203" height="120" fill="#D9D9D9"/>
</mask>
<g mask="url(#mask0_7747_23357)">
<path d="M84.502 136.714C84.5204 136.687 84.525 136.658 84.5158 136.627C84.496 136.561 84.4121 136.5 84.3398 136.459C84.4449 136.475 84.588 136.484 84.6472 136.431C84.6707 136.41 84.68 136.381 84.6748 136.346C84.6451 136.145 84.1633 136.185 84.1426 136.187L84.1456 136.221C84.2767 136.209 84.6207 136.21 84.6416 136.351C84.6451 136.374 84.6396 136.392 84.6247 136.406C84.5555 136.468 84.3128 136.424 84.2251 136.402L84.2146 136.434C84.217 136.435 84.4526 136.533 84.4837 136.637C84.4899 136.658 84.4869 136.677 84.4743 136.695L84.502 136.714Z" fill="#444092"/>
<path d="M78.7468 132.278L78.7671 132.251C78.6998 132.191 78.528 132.014 78.5412 131.922C78.5442 131.902 78.556 131.887 78.5776 131.877C78.7065 131.815 78.8989 132.101 78.962 132.216L78.9914 132.2C78.9815 132.182 78.7469 131.76 78.5632 131.847C78.5311 131.862 78.5126 131.886 78.5081 131.917C78.4968 131.996 78.5842 132.109 78.6561 132.188C78.5813 132.151 78.4843 132.115 78.4181 132.136C78.3875 132.145 78.3657 132.165 78.3535 132.195L78.3846 132.208C78.393 132.187 78.4072 132.174 78.428 132.167C78.531 132.135 78.7446 132.276 78.7468 132.278Z" fill="#444092"/>
<path d="M94.7584 133.439C94.7584 133.439 97.1161 144.49 93.166 147.515C91.0934 149.103 89.3454 149.182 88.3864 149.623C82.1802 152.474 80.5465 159.615 79.15 161.011C77.2499 162.91 61.6949 162.361 61.6949 162.361L52.5469 150.992C52.5469 150.992 58.5045 145.724 61.3121 141.597C62.3384 140.089 65.9079 139.146 66.0439 136.238C66.4601 127.339 69.5628 123.399 73.0339 119.17C74.5705 117.298 76.2244 114.672 78.6101 110.155C79.7583 107.982 81.8736 101.134 84.7088 101.543C88.5216 102.092 85.8722 111.619 84.6873 114.074C76.7384 130.541 94.7584 133.439 94.7584 133.439Z" fill="#E2A27D"/>
<path d="M43 156.754C48.1362 165.724 58.2581 171.842 69.9062 171.745C72.3463 171.724 75.2166 171.679 78.4236 171.616C82.7794 162.334 85.9778 154.776 85.0515 154.152C84.6727 153.895 84.1864 153.667 83.6147 153.446C80.4196 152.203 74.587 151.16 70.2275 146.646C67.1841 143.494 64.42 141.431 62.4115 140.573H62.4105C61.0289 139.985 60.006 139.965 59.4926 140.554C59.2946 140.782 51.4975 147.98 43 156.754Z" fill="#54749B"/>
<path d="M83.586 115.06C83.6476 115.687 84.4674 117.399 85.7917 115.075C88.9748 109.491 98.1997 98.245 100.337 99.4911C103.525 101.35 99.1741 107.498 94.6867 113.84C93.7832 115.117 93.2148 116.582 94.1718 115.999C96.365 114.663 105.283 98.9826 108.802 101.042C113.048 103.526 98.3895 119.153 98.9216 119.954C99.6889 121.109 109.623 106.943 112.309 109.134C115.559 111.786 101.726 124.569 103.089 125.362C104.452 126.156 112.179 115.581 113.997 120.362C114.662 122.111 106.127 129.251 101.726 137.026C100.24 139.651 98.4195 142.505 96.5783 144.544C90.0747 151.744 82.7715 149.755 82.7715 149.755C82.7715 149.755 75.9749 129.281 76.9371 122.935C77.8993 116.589 83.2027 111.159 83.586 115.06Z" fill="#E2A27D"/>
<path d="M83.9478 149.62C83.9697 149.628 83.9926 149.635 84.0164 149.639C87.4741 150.273 89.8418 149.565 91.2191 148.859C92.7367 148.081 93.4211 147.142 93.4495 147.102C93.5771 146.924 93.5362 146.677 93.3583 146.549C93.1809 146.422 92.9337 146.462 92.8059 146.639C92.7998 146.647 92.1788 147.487 90.814 148.175C89.551 148.813 87.3713 149.448 84.1595 148.859C83.9442 148.82 83.7375 148.962 83.698 149.178C83.6628 149.369 83.7717 149.554 83.9478 149.62Z" fill="#CE7549"/>
<path d="M79.4632 136.354C79.546 136.354 79.6287 136.321 79.6889 136.254C83.4142 132.158 82.9655 129.532 82.3976 126.207C82.3161 125.73 82.2319 125.237 82.1581 124.725C81.603 120.872 83.0128 118.716 83.0271 118.695C83.1209 118.555 83.0836 118.365 82.9437 118.271C82.8038 118.178 82.6144 118.215 82.5204 118.355C82.4567 118.45 80.9662 120.729 81.5543 124.812C81.6292 125.332 81.7141 125.829 81.7963 126.31C82.3573 129.595 82.7628 131.968 79.2376 135.844C79.1242 135.968 79.1334 136.161 79.2579 136.275C79.3165 136.328 79.39 136.354 79.4632 136.354Z" fill="#CE7549"/>
<path d="M90.9531 134.357C91.0224 134.357 91.0921 134.333 91.1493 134.285C91.2781 134.177 91.2946 133.984 91.1861 133.856C86.9442 128.817 86.3494 119.737 86.3438 119.646C86.3336 119.478 86.1897 119.35 86.021 119.36C85.8529 119.37 85.7248 119.515 85.7349 119.683C85.7364 119.706 85.8831 122.045 86.5645 124.986C87.708 129.921 89.4552 132.747 90.7196 134.248C90.7799 134.32 90.8662 134.357 90.9531 134.357Z" fill="#F59A6D"/>
<path d="M232.362 61.4174V126.408C232.362 132.16 227.699 136.823 221.946 136.823H93.7815C88.0278 136.823 83.3652 132.16 83.3652 126.408V61.4174C83.3652 55.6638 88.0278 51 93.7815 51H221.946C227.699 51 232.362 55.6638 232.362 61.4174Z" fill="#246AFF"/>
<path d="M203.27 121.894C203.27 121.104 203.91 120.463 204.701 120.463C205.491 120.463 206.1 120.947 206.271 121.718C206.521 122.842 205.605 123.451 204.57 123.451C203.78 123.451 203.27 122.684 203.27 121.894Z" fill="#DEEBE9"/>
<path d="M208.797 121.894C208.797 121.104 209.438 120.463 210.228 120.463C211.019 120.463 211.918 121.104 211.918 121.894C211.918 123.045 211.019 123.451 210.228 123.451C209.438 123.451 208.797 122.684 208.797 121.894Z" fill="#DEEBE9"/>
<path d="M214.2 121.955C214.245 121.166 214.852 120.522 215.64 120.461C216.67 120.383 217.261 121.06 217.38 121.842C217.515 122.736 217.151 123.449 215.743 123.449C214.953 123.449 214.144 122.934 214.2 121.955Z" fill="#DEEBE9"/>
<path d="M203.27 127.453C203.27 126.663 203.81 126.089 204.596 126.011C205.709 125.9 206.236 126.653 206.271 127.442C206.312 128.387 205.491 128.884 204.701 128.884C203.91 128.884 203.27 128.243 203.27 127.453Z" fill="#DEEBE9"/>
<path d="M208.644 127.523C208.707 126.736 208.883 125.921 210.231 126.022C211.019 126.081 211.662 126.663 211.662 127.453C211.662 128.244 211.021 128.884 210.231 128.884C209.44 128.884 208.561 128.564 208.644 127.523Z" fill="#DEEBE9"/>
<path d="M214.207 127.42C214.264 126.631 214.813 125.955 215.604 125.955C216.837 125.955 217.289 126.725 217.289 127.516C217.289 128.306 216.55 128.884 215.759 128.884C214.969 128.884 214.137 128.389 214.207 127.42Z" fill="#DEEBE9"/>
<path d="M219.829 121.955C219.874 121.166 220.481 120.522 221.269 120.461C222.299 120.383 222.89 121.06 223.008 121.842C223.144 122.736 222.78 123.449 221.372 123.449C220.581 123.449 219.773 122.934 219.829 121.955Z" fill="#DEEBE9"/>
<path d="M219.834 127.42C219.891 126.631 220.44 125.955 221.231 125.955C222.464 125.955 222.916 126.725 222.916 127.516C222.916 128.306 222.177 128.884 221.386 128.884C220.596 128.884 219.764 128.389 219.834 127.42Z" fill="#DEEBE9"/>
<path d="M198.288 136.822H93.7815C88.0278 136.822 83.3652 132.16 83.3652 126.408V61.4174C83.3652 55.6638 88.0278 51 93.7815 51H134.362C134.801 51.2487 135.044 51.387 135.044 51.387C135.044 51.387 148.648 54.0801 149.694 63.2763C150.74 72.4725 151.796 81.1494 166.081 84.1307C180.365 87.1108 196.573 92.1649 191.868 108.198C187.162 124.23 202.988 122.318 198.288 136.822Z" fill="#ADC7FF"/>
<path d="M220.585 67.7671V74H218.82V66.0752H220.483L220.585 67.7671ZM220.271 69.7446L219.699 69.7373C219.704 69.1758 219.782 68.6606 219.934 68.1919C220.09 67.7231 220.305 67.3203 220.578 66.9834C220.856 66.6465 221.188 66.3877 221.574 66.207C221.96 66.0215 222.39 65.9287 222.863 65.9287C223.244 65.9287 223.588 65.9824 223.896 66.0898C224.208 66.1924 224.475 66.3608 224.694 66.5952C224.919 66.8296 225.09 67.1348 225.207 67.5107C225.324 67.8818 225.383 68.3384 225.383 68.8804V74H223.61V68.873C223.61 68.4922 223.554 68.1919 223.442 67.9722C223.334 67.7476 223.176 67.5889 222.966 67.4961C222.761 67.3984 222.504 67.3496 222.197 67.3496C221.894 67.3496 221.623 67.4131 221.384 67.54C221.145 67.667 220.942 67.8403 220.776 68.0601C220.615 68.2798 220.49 68.5337 220.402 68.8218C220.314 69.1099 220.271 69.4175 220.271 69.7446Z" fill="white"/>
<path d="M216.45 66.0752V74H214.678V66.0752H216.45ZM214.561 63.9951C214.561 63.7266 214.648 63.5044 214.824 63.3286C215.005 63.1479 215.254 63.0576 215.571 63.0576C215.884 63.0576 216.13 63.1479 216.311 63.3286C216.492 63.5044 216.582 63.7266 216.582 63.9951C216.582 64.2588 216.492 64.4785 216.311 64.6543C216.13 64.8301 215.884 64.918 215.571 64.918C215.254 64.918 215.005 64.8301 214.824 64.6543C214.648 64.4785 214.561 64.2588 214.561 63.9951Z" fill="white"/>
<path d="M209.562 74.1465C208.977 74.1465 208.447 74.0513 207.973 73.8608C207.504 73.6655 207.104 73.3945 206.772 73.0479C206.445 72.7012 206.193 72.2935 206.018 71.8247C205.842 71.356 205.754 70.8506 205.754 70.3086V70.0156C205.754 69.3955 205.844 68.834 206.025 68.3311C206.206 67.8281 206.457 67.3984 206.779 67.042C207.102 66.6807 207.482 66.4048 207.922 66.2144C208.361 66.0239 208.837 65.9287 209.35 65.9287C209.917 65.9287 210.412 66.0239 210.837 66.2144C211.262 66.4048 211.613 66.6733 211.892 67.02C212.175 67.3618 212.385 67.7695 212.521 68.2432C212.663 68.7168 212.734 69.2393 212.734 69.8105V70.5649H206.611V69.2979H210.991V69.1587C210.981 68.8413 210.917 68.5435 210.8 68.2651C210.688 67.9868 210.515 67.7622 210.28 67.5913C210.046 67.4204 209.733 67.335 209.343 67.335C209.05 67.335 208.789 67.3984 208.559 67.5254C208.334 67.6475 208.146 67.8257 207.995 68.0601C207.844 68.2944 207.727 68.5776 207.644 68.9097C207.565 69.2368 207.526 69.6055 207.526 70.0156V70.3086C207.526 70.6553 207.573 70.9775 207.666 71.2754C207.763 71.5684 207.905 71.8247 208.09 72.0444C208.276 72.2642 208.5 72.4375 208.764 72.5645C209.028 72.6865 209.328 72.7476 209.665 72.7476C210.09 72.7476 210.468 72.6621 210.8 72.4912C211.132 72.3203 211.42 72.0786 211.665 71.7661L212.595 72.667C212.424 72.916 212.202 73.1553 211.928 73.3848C211.655 73.6094 211.32 73.7925 210.925 73.9341C210.534 74.0757 210.08 74.1465 209.562 74.1465Z" fill="white"/>
<path d="M199.027 62.75V74H197.27V62.75H199.027ZM198.72 69.7446L198.148 69.7373C198.153 69.1904 198.229 68.6851 198.375 68.2212C198.527 67.7573 198.737 67.3545 199.005 67.0127C199.279 66.666 199.606 66.3999 199.987 66.2144C200.368 66.0239 200.79 65.9287 201.254 65.9287C201.645 65.9287 201.996 65.9824 202.309 66.0898C202.626 66.1973 202.899 66.3706 203.129 66.6099C203.358 66.8442 203.532 67.1519 203.649 67.5327C203.771 67.9087 203.832 68.3677 203.832 68.9097V74H202.06V68.895C202.06 68.5142 202.003 68.2114 201.891 67.9868C201.784 67.7622 201.625 67.6011 201.415 67.5034C201.205 67.4009 200.949 67.3496 200.646 67.3496C200.329 67.3496 200.048 67.4131 199.804 67.54C199.564 67.667 199.364 67.8403 199.203 68.0601C199.042 68.2798 198.92 68.5337 198.837 68.8218C198.759 69.1099 198.72 69.4175 198.72 69.7446Z" fill="white"/>
<path d="M192.234 72.7402C192.522 72.7402 192.781 72.6841 193.011 72.5718C193.245 72.4546 193.433 72.2935 193.575 72.0884C193.721 71.8833 193.802 71.6465 193.816 71.3779H195.479C195.469 71.8906 195.318 72.3569 195.025 72.7769C194.732 73.1968 194.344 73.5312 193.86 73.7803C193.377 74.0244 192.842 74.1465 192.256 74.1465C191.651 74.1465 191.124 74.0439 190.674 73.8389C190.225 73.6289 189.852 73.3408 189.554 72.9746C189.256 72.6084 189.031 72.186 188.88 71.7075C188.733 71.229 188.66 70.7163 188.66 70.1694V69.9131C188.66 69.3662 188.733 68.8535 188.88 68.375C189.031 67.8916 189.256 67.4668 189.554 67.1006C189.852 66.7344 190.225 66.4487 190.674 66.2437C191.124 66.0337 191.648 65.9287 192.249 65.9287C192.884 65.9287 193.44 66.0557 193.919 66.3096C194.397 66.5586 194.773 66.9077 195.047 67.3569C195.325 67.8013 195.469 68.3188 195.479 68.9097H193.816C193.802 68.6167 193.729 68.353 193.597 68.1187C193.47 67.8794 193.289 67.689 193.055 67.5474C192.825 67.4058 192.549 67.335 192.227 67.335C191.871 67.335 191.575 67.4082 191.341 67.5547C191.106 67.6963 190.923 67.8916 190.792 68.1406C190.66 68.3848 190.564 68.6606 190.506 68.9683C190.452 69.271 190.425 69.5859 190.425 69.9131V70.1694C190.425 70.4966 190.452 70.814 190.506 71.1216C190.56 71.4292 190.652 71.7051 190.784 71.9492C190.921 72.1885 191.106 72.3813 191.341 72.5278C191.575 72.6694 191.873 72.7402 192.234 72.7402Z" fill="white"/>
<path d="M185.272 71.854C185.272 71.6782 185.229 71.5195 185.141 71.3779C185.053 71.2314 184.884 71.0996 184.635 70.9824C184.391 70.8652 184.03 70.7578 183.551 70.6602C183.131 70.5674 182.746 70.4575 182.394 70.3306C182.047 70.1987 181.75 70.04 181.5 69.8545C181.251 69.6689 181.059 69.4492 180.922 69.1953C180.785 68.9414 180.717 68.6484 180.717 68.3164C180.717 67.9941 180.788 67.689 180.929 67.4009C181.071 67.1128 181.273 66.8589 181.537 66.6392C181.801 66.4194 182.121 66.2461 182.497 66.1191C182.877 65.9922 183.302 65.9287 183.771 65.9287C184.435 65.9287 185.004 66.041 185.478 66.2656C185.956 66.4854 186.322 66.7856 186.576 67.1665C186.83 67.5425 186.957 67.9673 186.957 68.4409H185.192C185.192 68.231 185.138 68.0356 185.031 67.855C184.928 67.6694 184.772 67.5205 184.562 67.4082C184.352 67.291 184.088 67.2324 183.771 67.2324C183.468 67.2324 183.217 67.2812 183.017 67.3789C182.821 67.4717 182.675 67.5938 182.577 67.7451C182.484 67.8965 182.438 68.0625 182.438 68.2432C182.438 68.375 182.462 68.4946 182.511 68.6021C182.565 68.7046 182.653 68.7998 182.775 68.8877C182.897 68.9707 183.063 69.0488 183.273 69.1221C183.488 69.1953 183.756 69.2661 184.079 69.3345C184.684 69.4614 185.204 69.625 185.639 69.8252C186.078 70.0205 186.415 70.2744 186.649 70.5869C186.884 70.8945 187.001 71.2852 187.001 71.7588C187.001 72.1104 186.925 72.4326 186.774 72.7256C186.627 73.0137 186.413 73.2651 186.129 73.48C185.846 73.6899 185.507 73.8535 185.111 73.9707C184.721 74.0879 184.281 74.1465 183.793 74.1465C183.075 74.1465 182.467 74.0195 181.969 73.7656C181.471 73.5068 181.093 73.1772 180.834 72.7769C180.58 72.3716 180.453 71.9517 180.453 71.5171H182.16C182.179 71.8442 182.27 72.1055 182.431 72.3008C182.597 72.4912 182.802 72.6304 183.046 72.7183C183.295 72.8013 183.551 72.8428 183.815 72.8428C184.132 72.8428 184.398 72.8013 184.613 72.7183C184.828 72.6304 184.992 72.5132 185.104 72.3667C185.216 72.2153 185.272 72.0444 185.272 71.854Z" fill="white"/>
<path d="M179.015 66.0752V67.3643H174.547V66.0752H179.015ZM175.836 64.1343H177.601V71.8101C177.601 72.0542 177.635 72.2422 177.704 72.374C177.777 72.501 177.877 72.5864 178.004 72.6304C178.131 72.6743 178.28 72.6963 178.451 72.6963C178.573 72.6963 178.69 72.689 178.802 72.6743C178.915 72.6597 179.005 72.645 179.073 72.6304L179.081 73.978C178.934 74.022 178.763 74.061 178.568 74.0952C178.377 74.1294 178.158 74.1465 177.909 74.1465C177.503 74.1465 177.145 74.0757 176.832 73.9341C176.52 73.7876 176.275 73.5508 176.1 73.2236C175.924 72.8965 175.836 72.4619 175.836 71.9199V64.1343Z" fill="white"/>
<path d="M171.352 72.1323V66.0752H173.124V74H171.454L171.352 72.1323ZM171.601 70.4844L172.194 70.4697C172.194 71.002 172.135 71.4927 172.018 71.9419C171.901 72.3862 171.72 72.7744 171.476 73.1064C171.232 73.4336 170.919 73.6899 170.539 73.8755C170.158 74.0562 169.701 74.1465 169.169 74.1465C168.783 74.1465 168.429 74.0903 168.107 73.978C167.785 73.8657 167.506 73.6924 167.272 73.458C167.042 73.2236 166.864 72.9185 166.737 72.5425C166.61 72.1665 166.547 71.7173 166.547 71.1948V66.0752H168.312V71.2095C168.312 71.4976 168.346 71.7393 168.415 71.9346C168.483 72.125 168.576 72.2788 168.693 72.396C168.81 72.5132 168.947 72.5962 169.103 72.645C169.259 72.6938 169.425 72.7183 169.601 72.7183C170.104 72.7183 170.5 72.6206 170.788 72.4253C171.081 72.2251 171.288 71.9565 171.41 71.6196C171.537 71.2827 171.601 70.9043 171.601 70.4844Z" fill="white"/>
<path d="M164.272 68.5508V72.623C164.121 72.8232 163.884 73.043 163.562 73.2822C163.244 73.5166 162.822 73.7192 162.294 73.8901C161.767 74.061 161.11 74.1465 160.324 74.1465C159.655 74.1465 159.042 74.0342 158.486 73.8096C157.929 73.5801 157.448 73.2456 157.043 72.8062C156.643 72.3667 156.333 71.832 156.113 71.2021C155.893 70.5674 155.783 69.8447 155.783 69.0342V68.2944C155.783 67.4888 155.883 66.771 156.083 66.1411C156.289 65.5063 156.582 64.9692 156.962 64.5298C157.343 64.0903 157.802 63.7583 158.339 63.5337C158.881 63.3042 159.494 63.1895 160.178 63.1895C161.052 63.1895 161.774 63.3359 162.346 63.6289C162.922 63.917 163.366 64.3174 163.679 64.8301C163.991 65.3428 164.189 65.9287 164.272 66.5879H162.47C162.412 66.2168 162.297 65.8848 162.126 65.5918C161.96 65.2988 161.721 65.0693 161.408 64.9033C161.101 64.7324 160.7 64.647 160.207 64.647C159.782 64.647 159.409 64.7275 159.086 64.8887C158.764 65.0498 158.496 65.2866 158.281 65.5991C158.071 65.9116 157.912 66.2925 157.805 66.7417C157.697 67.1909 157.644 67.7036 157.644 68.2798V69.0342C157.644 69.6201 157.705 70.1401 157.827 70.5942C157.954 71.0483 158.134 71.4316 158.369 71.7441C158.608 72.0566 158.898 72.2935 159.24 72.4546C159.582 72.6108 159.968 72.689 160.397 72.689C160.817 72.689 161.162 72.6548 161.43 72.5864C161.699 72.5132 161.911 72.4277 162.067 72.3301C162.229 72.2275 162.353 72.1299 162.441 72.0371V69.9204H160.222V68.5508H164.272Z" fill="white"/>
<path d="M174.281 125.965C174.281 127.602 154.966 128.93 131.14 128.93C107.315 128.93 88 127.602 88 125.965C88 124.327 107.315 123 131.14 123C154.966 123 174.281 124.327 174.281 125.965Z" fill="#869BC9"/>
<path d="M152.849 85.3096H139.188V124.66H152.849V85.3096Z" fill="#5082EB"/>
<path d="M139.186 85.3096H103.094V124.66H139.186V85.3096Z" fill="#6E99F4"/>
<path d="M139.188 107.315V104.561H103.096V107.315H139.188Z" fill="white"/>
<path d="M152.848 107.315V104.561H139.186V107.315H152.848Z" fill="#C0D6FE"/>
<path d="M129.419 84.7063C129.419 84.7063 140.484 79.6839 148.197 81.5924L146.657 82.6228L147.433 84.4423C147.433 84.4423 138.852 82.2057 129.197 85.0032L129.419 84.7063Z" fill="#CB5F4C"/>
<path d="M127.528 84.5129C127.528 84.5129 126.089 84.339 123.945 84.0441C118.252 83.261 107.59 81.6229 105.676 80.1069C102.669 77.7256 109.795 67.6115 112.879 66.2077C115.964 64.8051 127.528 84.5129 127.528 84.5129Z" fill="#EB6E58"/>
<path d="M150.089 71.9174C150.603 74.423 127.318 85.2477 127.318 85.2477C127.318 85.2477 127.742 84.1023 128.431 82.3085C128.431 82.3085 128.432 82.3069 128.433 82.3053C130.951 75.7543 137.015 60.5515 139.008 60.7619C139.208 60.7826 139.442 60.8543 139.704 60.9688C142.765 62.3157 149.616 69.6098 150.089 71.9174Z" fill="#EB6E58"/>
<path d="M139.502 63.197C138.08 65.6672 128.577 82.0501 128.428 82.3053C130.945 75.7543 137.01 60.5515 139.003 60.7619C139.003 60.7619 139.397 60.7506 139.699 60.9688C140.062 61.2336 140.287 61.8329 139.502 63.197Z" fill="#CB5F4C"/>
<path d="M123.947 84.044H123.943C118.251 83.2608 107.588 81.6227 105.674 80.1067C104.81 77.6726 107.052 77.4743 108.684 77.3029C110.315 77.1317 123.947 84.044 123.947 84.044Z" fill="#CB5F4C"/>
<path d="M123.182 85.2864C123.182 85.2864 124.487 82.3169 127.056 82.1525C129.739 81.9807 131.263 85.2864 131.263 85.2864H123.182Z" fill="#CB5F4C"/>
<path d="M139.765 85.3096H102V90.7218H139.765V85.3096Z" fill="#88B3FF"/>
<path d="M154 85.3096H139.766V90.7218H154V85.3096Z" fill="#246AFF"/>
<path d="M124.505 84.8586C124.505 84.8586 117.108 82.5156 112.117 84.0646C106.364 85.8502 106.705 92.9492 106.705 92.9492L108.058 92.3929L109.885 93.2499C109.885 93.2499 110.193 85.7329 114.883 84.6805C118.939 83.7705 124.505 84.8586 124.505 84.8586Z" fill="#CB5F4C"/>
<path d="M120.711 85.3096H117.957V124.999H120.711V85.3096Z" fill="white"/>
</g>
</svg>
