<svg width="80" height="80" viewBox="0 0 80 80" fill="none" xmlns="http://www.w3.org/2000/svg">
<path d="M45.8223 69.4323C45.763 69.4323 45.7099 69.3907 45.6977 69.3303C45.6838 69.2615 45.7283 69.1943 45.7971 69.1804C46.5187 69.0342 47.147 68.5555 47.5661 67.8325C48.0931 66.9234 48.2208 65.7569 47.8994 64.7883C47.2584 62.8567 45.4031 61.671 43.9596 61.0165C43.1804 60.6632 42.3555 60.3738 41.5579 60.094C40.5832 59.7521 39.5753 59.3984 38.6349 58.9235C36.4459 57.8181 34.7707 56.1114 33.9178 54.118C32.8878 51.7108 33.007 48.7275 34.2447 45.933C35.2326 43.7028 36.8509 41.6146 39.3378 39.3612C39.5734 39.1477 39.8124 38.9363 40.0515 38.7247C41.1658 37.739 42.3181 36.7197 43.1266 35.4633C43.9921 34.1181 44.5881 32.0805 43.6647 30.396C43.6309 30.3344 43.6535 30.2571 43.7151 30.2233C43.7766 30.1894 43.854 30.212 43.8878 30.2737C44.5284 31.4424 44.721 33.4555 43.3406 35.601C42.5131 36.887 41.3474 37.9182 40.2201 38.9153C39.9817 39.1262 39.7434 39.3369 39.5086 39.5498C37.0489 41.7784 35.4503 43.8395 34.4774 46.0361C33.2682 48.7662 33.1495 51.6754 34.1517 54.0179C34.9811 55.9564 36.6139 57.6179 38.7495 58.6964C39.6752 59.1639 40.6752 59.5147 41.6422 59.854C42.445 60.1356 43.2753 60.4268 44.0647 60.7848C45.5544 61.4602 47.4709 62.6892 48.1409 64.7081C48.4845 65.7438 48.3486 66.9898 47.7862 67.9601C47.3301 68.747 46.6416 69.2689 45.8476 69.4296C45.8391 69.4315 45.8307 69.4323 45.8223 69.4323Z" fill="#CCCCCC"/>
<path d="M49.3338 12.4535C50.8068 20.6907 48.7266 28.9046 42.7792 29.9681C36.8318 31.0316 29.2695 24.5421 27.7964 16.3049C26.3234 8.06775 31.4974 1.20226 37.4447 0.138742C43.3922 -0.924775 47.8607 4.21639 49.3338 12.4535Z" fill="#ADC7FF"/>
<path opacity="0.36" d="M32.7506 5.79175C33.9357 4.6371 33.9763 5.33485 33.4546 8.3995C32.933 11.4642 32.6669 16.6225 31.2558 16.0429C29.8447 15.4631 29.6127 8.84877 32.7506 5.79175Z" fill="white"/>
<path opacity="0.36" d="M33.6132 18.5924C33.7155 19.1649 33.3344 19.7119 32.762 19.8143C32.1895 19.9167 31.6424 19.5356 31.5401 18.9631C31.4377 18.3907 31.8188 17.8436 32.3913 17.7412C32.9637 17.6389 33.5108 18.02 33.6132 18.5924Z" fill="white"/>
<path d="M45.0348 66.6849C44.9881 66.6849 44.9431 66.6591 44.9208 66.6145C44.8895 66.5516 44.915 66.4752 44.9779 66.4438C46.1243 65.8721 46.5392 64.4117 46.3564 63.2645C46.15 61.9682 45.3553 60.8564 44.6051 59.9397C44.4306 59.7265 44.252 59.5156 44.0733 59.3046C43.4218 58.535 42.748 57.7394 42.2773 56.8251C41.1906 54.7143 41.2284 51.9321 42.3785 49.3828C43.5467 46.7929 45.645 44.7664 47.1216 43.4674C47.2787 43.3292 47.4373 43.1918 47.596 43.0543C48.5021 42.2691 49.4391 41.4573 50.1159 40.4623C51.005 39.1549 51.2654 37.6819 50.8127 36.5221C50.7872 36.4567 50.8195 36.383 50.8849 36.3573C50.9507 36.3319 51.0242 36.3641 51.0497 36.4296C51.533 37.6675 51.2625 39.2285 50.3263 40.6054C49.6308 41.6279 48.6811 42.4508 47.7627 43.2465C47.6044 43.3836 47.4464 43.5206 47.2897 43.6585C45.8308 44.9419 43.7584 46.9424 42.6104 49.4874C41.492 51.9666 41.452 54.6662 42.5036 56.7087C42.961 57.5971 43.6251 58.3816 44.2675 59.1402C44.4471 59.3523 44.6266 59.5643 44.802 59.7787C45.5737 60.7216 46.3917 61.8685 46.6076 63.2245C46.805 64.4633 46.3475 66.0452 45.0914 66.6716C45.0732 66.6807 45.0539 66.6849 45.0348 66.6849Z" fill="#CCCCCC"/>
<path d="M61.9159 26.351C59.7998 33.4788 54.8715 39.1707 49.7252 37.6427C44.5788 36.1148 41.1632 27.9458 43.2794 20.818C45.3955 13.6903 52.2422 10.3031 57.3886 11.831C62.5349 13.3588 64.0321 19.2233 61.9159 26.351Z" fill="#7DA7FF"/>
<path opacity="0.36" d="M51.4077 14.4473C52.8093 14.0033 52.5632 14.5734 50.9265 16.7986C49.2899 19.0238 47.021 23.0133 46.1318 21.9902C45.2427 20.9671 47.6969 15.6229 51.4077 14.4473Z" fill="white"/>
<path opacity="0.36" d="M46.9852 24.9551C46.8381 25.4505 46.3173 25.7328 45.8219 25.5857C45.3266 25.4387 45.0442 24.9179 45.1913 24.4225C45.3384 23.9271 45.8591 23.6448 46.3545 23.7919C46.8499 23.9389 47.1322 24.4597 46.9852 24.9551Z" fill="white"/>
<path d="M42.8945 59.7748C42.8945 59.7748 43.5343 58.8277 44.2327 57.9509C44.5056 57.6082 44.9843 57.5361 45.2829 57.7897C46.2974 58.6512 48.4593 60.5028 49.1708 61.2362C49.2778 61.3464 49.2312 61.5433 49.0808 61.6214C48.9547 61.6868 48.8138 61.7033 48.6873 61.6676L43.6036 60.2307L42.8945 59.7748Z" fill="#0F429F"/>
<path d="M42.3477 60.1702L43.3859 59.292C43.3859 59.292 44.352 59.6067 44.4826 60.3889L43.1772 61.2292L42.3477 60.1702Z" fill="#F99956"/>
<path d="M24.566 76.7754C24.566 76.7754 24.7655 77.9043 24.8632 79.0219C24.9014 79.4587 24.5647 79.8379 24.1267 79.8562C22.6384 79.9181 19.455 80.0387 18.3126 79.9877C18.1409 79.98 18.0287 79.8042 18.0922 79.6445C18.1454 79.5107 18.2482 79.4025 18.379 79.3423L23.6375 76.9255L24.566 76.7754Z" fill="#0F429F"/>
<path d="M24.73 76.1119L24.5698 77.4622C24.5698 77.4622 23.6487 77.891 23.0195 77.4082L23.401 75.9033L24.73 76.1119Z" fill="#F99956"/>
<path d="M24.6102 50.7252C24.6794 51.0778 24.9816 68.3229 23.1382 76.0509C23.1082 76.177 23.1721 76.3069 23.2921 76.356C23.5749 76.4715 24.1291 76.6388 24.7933 76.6611C24.9991 76.6681 25.1835 76.5343 25.2415 76.3369C25.7685 74.5438 29.3888 64.1687 29.7181 55.587C30.0861 45.9977 28.407 50.7245 28.407 50.7245L24.6102 50.7252Z" fill="#0F429F"/>
<path d="M32.5757 51.0337C34.1217 54.9322 34.6271 55.5415 35.3169 59.9922C36.1441 65.3291 40.1822 61.6438 42.3383 59.911C42.6108 59.692 43.4206 60.4764 43.4996 61.5792C43.6024 63.017 34.8911 69.8429 32.5346 65.0172C31.0295 61.935 30.6124 58.4661 29.6131 56.5471C29.4883 56.3075 29.2848 56.1192 29.0365 56.0128L25.9614 54.6957L25.0938 51.6778L32.5757 51.0337Z" fill="#0F429F"/>
<path d="M19.3382 36.7181C17.7183 33.0831 16.1891 27.6509 17.9706 22.2216L19.0027 21.1895C19.0027 21.1895 19.0031 29.6932 21.1189 33.9161C20.5275 34.8514 19.9361 35.787 19.3382 36.7181Z" fill="#F99956"/>
<path d="M19.2496 19.5645L19.6391 20.1488C19.7463 20.3096 19.7743 20.5097 19.7136 20.6932C19.5554 21.1722 19.198 22.1142 18.6944 22.6178C18.0005 23.3117 17.3065 21.6463 17.1678 21.0912C17.029 20.5361 18.0005 19.1483 18.2781 18.8707C18.5556 18.5931 19.6659 18.7318 19.2496 19.5645Z" fill="#F99956"/>
<path d="M34.2573 37.1874C35.8772 33.5524 37.4063 28.1201 35.6249 22.6908L34.5928 21.6587C34.5928 21.6587 34.5923 30.1624 32.4766 34.3853C33.068 35.3206 33.6594 36.2562 34.2573 37.1874Z" fill="#F99956"/>
<path d="M24.6063 35.8861H29.6937C30.2047 35.8861 30.6952 35.6901 31.0655 35.3379C31.5397 34.8867 32.1496 34.1219 32.5816 32.9182C32.6471 32.7357 32.8432 32.6352 33.0291 32.6904C33.6837 32.8845 35.116 33.4399 35.8674 34.7332C35.9377 34.8542 35.9366 35.0043 35.8607 35.1219L32.6874 40.0325L33.0001 52.1464C33.0001 52.1464 25.0262 53.3972 23.9317 52.1464L22.8372 41.0456C22.8372 41.0456 18.9284 38.7003 17.834 34.948L21.1174 33.0718C21.1174 33.0718 21.4998 33.0875 21.8261 33.9668C22.2559 35.1247 23.3711 35.8861 24.6063 35.8861Z" fill="url(#paint0_linear_7757_31668)"/>
<path d="M28.9619 32.1851L29.0792 36.1113C29.0866 36.3628 28.9296 36.5897 28.6908 36.6687C28.202 36.8305 27.317 37.031 26.3273 36.8174C26.0321 36.7536 25.8436 36.462 25.8952 36.1645L26.4331 33.0717L28.9619 32.1851Z" fill="#F99956"/>
<path d="M34.3452 20.0333L33.9556 20.6176C33.8484 20.7784 33.8205 20.9785 33.8811 21.162C34.0393 21.6409 34.3967 22.583 34.9003 23.0866C35.5943 23.7806 36.2882 22.1151 36.4269 21.56C36.5657 21.0049 35.5942 19.617 35.3167 19.3394C35.0391 19.0618 33.9288 19.2006 34.3452 20.0333Z" fill="#F99956"/>
<path d="M26.9043 27.9132L30.8796 24.8213C30.971 24.7502 31.1029 24.8246 31.0894 24.9396L30.5004 29.9457L26.9043 27.9132Z" fill="url(#paint1_linear_7757_31668)"/>
<path d="M26.2721 28.5906C26.2367 28.635 25.0497 31.8647 24.5276 33.288C24.3954 33.6483 24.5919 34.045 24.9582 34.1594L26.1061 34.3689C26.8671 34.5078 27.6231 34.1021 27.9281 33.3913L29.3106 31.7807C30.062 30.9051 29.8038 29.5512 28.776 29.0271C27.7636 28.5109 26.6534 28.1125 26.2721 28.5906Z" fill="#FFB27D"/>
<path d="M28.5554 32.1421L28.2268 31.9778C28.2268 31.9778 29.5412 29.8421 28.0626 29.6777C26.5839 29.5134 25.2695 29.1848 25.2695 28.3634C25.2695 27.5419 25.2695 26.0633 27.0768 26.7204C28.884 27.3775 28.7197 28.5276 29.7055 28.6919C30.6912 28.8562 31.5127 29.0205 31.1841 30.0062C30.8555 30.992 30.1983 31.6491 30.527 31.9777C30.8556 32.3064 29.3769 33.9493 28.5554 32.1421Z" fill="#0F429F"/>
<path d="M28.2051 32.7817C28.2051 32.7817 28.4782 31.3373 29.0879 31.3015C29.6975 31.2657 30.2576 31.7978 29.6078 32.5794C28.7995 33.5516 28.2051 32.7817 28.2051 32.7817Z" fill="#FFB27D"/>
<defs>
<linearGradient id="paint0_linear_7757_31668" x1="24.4359" y1="36.4084" x2="41.3854" y2="58.1389" gradientUnits="userSpaceOnUse">
<stop stop-color="#FE7062"/>
<stop offset="1" stop-color="#FF928E"/>
</linearGradient>
<linearGradient id="paint1_linear_7757_31668" x1="28.4313" y1="30.7819" x2="29.8946" y2="20.7824" gradientUnits="userSpaceOnUse">
<stop stop-color="#FE7062"/>
<stop offset="1" stop-color="#FF928E"/>
</linearGradient>
</defs>
</svg>
