<svg width="80" height="80" viewBox="0 0 80 80" fill="none" xmlns="http://www.w3.org/2000/svg">
<path d="M65.5301 32.2227H51.4941V72.6515H65.5301V32.2227Z" fill="#7DA7FF"/>
<path d="M51.4911 32.2227H14.4102V72.6515H51.4911V32.2227Z" fill="#ADC7FF"/>
<path d="M51.4941 54.8301V52.0005L14.4132 52.0005V54.8301L51.4941 54.8301Z" fill="white"/>
<path d="M65.5273 54.8301V52.0005H51.4914V54.8301H65.5273Z" fill="#C0D6FE"/>
<path d="M41.4585 31.6018C41.4585 31.6018 52.8268 26.4418 60.7509 28.4026L59.1688 29.4612L59.9662 31.3306C59.9662 31.3306 51.1502 29.0327 41.2305 31.9069L41.4585 31.6018Z" fill="#246AFF"/>
<path d="M39.5158 31.4041C39.5158 31.4041 38.0378 31.2255 35.8347 30.9225C29.9861 30.1179 19.0313 28.435 17.065 26.8774C13.9754 24.4308 21.2966 14.0396 24.4657 12.5974C27.6348 11.1563 39.5158 31.4041 39.5158 31.4041Z" fill="#72A9F7"/>
<path d="M62.6958 18.4634C63.2239 21.0376 39.3008 32.1589 39.3008 32.1589C39.3008 32.1589 39.7361 30.9822 40.4441 29.1392C40.4441 29.1392 40.4452 29.1375 40.4461 29.136C43.0325 22.4055 49.2634 6.78607 51.3108 7.00222C51.5165 7.0235 51.7572 7.0971 52.0258 7.21481C55.1706 8.59853 62.2096 16.0925 62.6958 18.4634Z" fill="#72A9F7"/>
<path d="M51.8175 9.50403C50.3566 12.0419 40.5923 28.8737 40.4395 29.136C43.0259 22.4055 49.2568 6.78607 51.3042 7.00222C51.3042 7.00222 51.7098 6.99062 52.0191 7.21481C52.3924 7.48684 52.6241 8.1025 51.8175 9.50403Z" fill="#246AFF"/>
<path d="M35.8359 30.9216H35.8319C29.9833 30.117 19.0285 28.4341 17.0623 26.8765C16.1744 24.3757 18.4782 24.1719 20.1546 23.9959C21.8298 23.82 35.8359 30.9216 35.8359 30.9216Z" fill="#246AFF"/>
<path d="M35.0508 32.1991C35.0508 32.1991 36.3919 29.1482 39.0314 28.9793C41.7881 28.8028 43.3539 32.1991 43.3539 32.1991H35.0508Z" fill="#246AFF"/>
<path d="M52.0871 32.2227H13.2871V37.7832H52.0871V32.2227Z" fill="#88B3FF"/>
<path d="M66.712 32.2227H52.0879V37.7832H66.712V32.2227Z" fill="#246AFF"/>
<path d="M36.4091 31.7586C36.4091 31.7586 28.8097 29.3514 23.6816 30.9429C17.7708 32.7774 18.1211 40.0709 18.1211 40.0709L19.5112 39.4994L21.388 40.3798C21.388 40.3798 21.7046 32.6569 26.5237 31.5756C30.6907 30.6407 36.4091 31.7586 36.4091 31.7586Z" fill="#246AFF"/>
<path d="M32.5113 32.2227H29.6816V73.0001H32.5113V32.2227Z" fill="white"/>
</svg>
