<svg width="80" height="80" viewBox="0 0 80 80" fill="none" xmlns="http://www.w3.org/2000/svg">
<path d="M75.6391 24.3165L75.6926 55.4155C75.6974 58.1681 73.4701 60.4031 70.7169 60.4078L9.38787 60.5133C6.63471 60.5181 4.3997 58.2907 4.39495 55.5381L4.34144 24.4391C4.33667 21.686 6.56399 19.4504 9.31715 19.4457L70.6462 19.3402C73.3995 19.3355 75.6345 21.5633 75.6391 24.3165Z" fill="#ADC7FF"/>
<path d="M61.7652 53.2792C61.7646 52.901 62.0707 52.5939 62.4489 52.5932C62.8272 52.5926 63.1186 52.8237 63.2013 53.1928C63.3217 53.7302 62.8841 54.0222 62.3889 54.023C62.0107 54.0236 61.766 53.6575 61.7652 53.2792Z" fill="white"/>
<path d="M64.41 53.2749C64.4093 52.8966 64.7154 52.5895 65.0936 52.5888C65.4719 52.5882 65.903 52.8941 65.9037 53.2723C65.9046 53.8229 65.4743 54.0178 65.096 54.0184C64.7179 54.0191 64.4106 53.653 64.41 53.2749Z" fill="white"/>
<path d="M66.994 53.3005C67.0148 52.9228 67.3046 52.6139 67.6817 52.5845C68.1744 52.546 68.4582 52.8697 68.5154 53.2436C68.5809 53.6716 68.4072 54.0129 67.7336 54.0141C67.3553 54.0146 66.9682 53.7689 66.994 53.3005Z" fill="white"/>
<path d="M61.7717 55.9391C61.7711 55.5608 62.029 55.2862 62.4053 55.2479C62.9376 55.194 63.1907 55.5536 63.2079 55.9315C63.2286 56.3835 62.8359 56.6222 62.4577 56.6228C62.0796 56.6235 61.7724 56.3174 61.7717 55.9391Z" fill="white"/>
<path d="M64.3423 55.9688C64.3718 55.5917 64.4555 55.202 65.1002 55.2489C65.4775 55.2764 65.7856 55.5544 65.7863 55.9325C65.7869 56.3107 65.4808 56.6179 65.1025 56.6185C64.7243 56.6192 64.3033 56.4666 64.3423 55.9688Z" fill="white"/>
<path d="M67.0027 55.9142C67.0293 55.5369 67.2916 55.213 67.6698 55.2123C68.2597 55.2113 68.4768 55.5794 68.4774 55.9576C68.4781 56.3358 68.1247 56.6131 67.7465 56.6138C67.3684 56.6144 66.9699 56.3784 67.0027 55.9142Z" fill="white"/>
<path d="M45.3096 60.4513L8.1126 60.5153C6.06477 60.5188 4.40136 58.2905 4.39661 55.5379L4.34311 24.4389C4.33834 21.6858 5.99405 19.4513 8.04197 19.4477L22.4858 19.4229C22.6423 19.5416 22.7289 19.6077 22.7289 19.6077C22.7289 19.6077 27.5734 20.8881 27.9531 25.288C28.3328 29.688 28.7159 33.8393 33.8029 35.2572C38.8895 36.6745 44.6625 39.0831 43.0009 46.7579C41.3391 54.4325 46.9704 53.5076 45.3096 60.4513Z" fill="#246AFF"/>
<path d="M27.535 35.9042C27.974 34.5619 28.6116 33.2802 29.4488 32.0576C30.2844 30.8364 31.3064 29.762 32.5148 28.8358C33.721 27.9096 35.1004 27.1779 36.6501 26.6415C38.1999 26.1043 39.9214 25.835 41.8148 25.835C44.6398 25.835 47.0886 26.4064 49.1603 27.547C51.2305 28.6891 52.7737 30.1995 53.7891 32.0783L47.6586 36.3473C47.3841 35.6491 47.0209 35.072 46.5667 34.616C46.1146 34.1594 45.6138 33.7967 45.0649 33.5288C44.5168 33.2602 43.9476 33.0721 43.358 32.9646C42.7676 32.8584 42.1984 32.8043 41.6503 32.8043C40.3058 32.8043 39.1811 33.0999 38.2756 33.6898C37.3715 34.2805 36.6574 35.0193 36.1355 35.9049L43.5428 35.9049L41.897 39.9331L35.0254 39.9331C35.0254 40.3628 35.0319 40.7047 35.0458 40.9598C35.0589 41.2156 35.08 41.45 35.1077 41.6644L42.3913 41.6644L40.7454 45.692L36.918 45.692C37.4938 46.3638 38.1802 46.8939 38.9758 47.2836C39.7715 47.6726 40.6908 47.8678 41.734 47.8678C42.2814 47.8678 42.8441 47.8073 43.4198 47.6861C43.9956 47.5657 44.5518 47.3641 45.0875 47.082C45.6218 46.7998 46.1015 46.4379 46.5273 45.9948C46.9517 45.5516 47.2888 45.008 47.5355 44.3632L54.0781 48.1898C53.6385 49.2372 52.9739 50.1769 52.0821 51.0083C51.1904 51.8419 50.175 52.5387 49.0372 53.103C47.8988 53.6672 46.678 54.0969 45.375 54.3918C44.0706 54.6868 42.8033 54.835 41.568 54.835C39.9768 54.835 38.4743 54.5999 37.0614 54.1303C35.6485 53.6608 34.3666 53.0096 33.2143 52.1768C32.0613 51.3453 31.0466 50.3707 30.1694 49.2564C29.2901 48.1428 28.5913 46.9544 28.0708 45.692L24.0789 45.692L25.7247 41.6644L26.9593 41.6644C26.9316 41.3965 26.9105 41.1279 26.8974 40.8586C26.8828 40.5907 26.877 40.2815 26.877 39.9324L24.0781 39.9324L25.724 35.9042L27.535 35.9042Z" fill="white"/>
<path d="M41.8135 24.835C44.5895 24.835 47.0669 25.3618 49.2158 26.4463L49.6416 26.6709L49.6426 26.6719C51.8617 27.8962 53.5518 29.5375 54.668 31.6025L55.0928 32.3887L47.1904 37.8916L46.7266 36.7129C46.4937 36.1206 46.1996 35.6659 45.8574 35.3223L45.8545 35.3193C45.4774 34.9385 45.0675 34.6437 44.625 34.4277L44.624 34.4268C44.1576 34.1982 43.6766 34.0391 43.1797 33.9482C42.6412 33.8514 42.1316 33.8047 41.6494 33.8047C40.4522 33.8047 39.5282 34.0654 38.8203 34.5264L38.8213 34.5273C38.6388 34.6466 38.4669 34.7733 38.3037 34.9053L45.0303 34.9053L42.8213 40.3115L42.6777 40.6641L43.8789 40.6641L41.416 46.6924L40.2588 46.6924C40.7002 46.8061 41.19 46.8682 41.7334 46.8682L41.7334 47.8682L41.3477 47.8584C40.462 47.8157 39.6708 47.6236 38.9746 47.2832C38.1792 46.8935 37.4927 46.364 36.917 45.6924L40.7441 45.6924L42.3906 41.6641L35.1064 41.6641C35.0926 41.5568 35.0807 41.4445 35.0703 41.3271L35.0449 40.96C35.0311 40.705 35.0244 40.363 35.0244 39.9336L41.8965 39.9336L43.542 35.9053L36.1348 35.9053C36.6567 35.0197 37.3703 34.2801 38.2744 33.6895C39.1799 33.0996 40.305 32.8047 41.6494 32.8047L42.0645 32.8145C42.4834 32.8347 42.9147 32.8852 43.3574 32.9648C43.9468 33.0724 44.5156 33.2608 45.0635 33.5293C45.6123 33.7972 46.1134 34.1595 46.5654 34.6162C47.0197 35.0722 47.3828 35.6494 47.6572 36.3477L53.7881 32.0781C52.7726 30.1994 51.2294 28.6889 49.1592 27.5469C47.0875 26.4063 44.6385 25.835 41.8135 25.835C39.9203 25.835 38.199 26.1045 36.6494 26.6416L36.0762 26.8516C34.7573 27.3637 33.5691 28.0255 32.5137 28.8359L32.0693 29.1904C31.0529 30.0332 30.1794 30.9893 29.4482 32.0576L29.1436 32.5186C28.5531 33.4466 28.0745 34.4079 27.708 35.4033L27.5342 35.9043L25.7227 35.9043L24.0771 39.9326L26.876 39.9326L26.8809 40.4258C26.8841 40.5802 26.8892 40.7245 26.8965 40.8584C26.9096 41.1276 26.9304 41.3963 26.958 41.6641L25.7236 41.6641L24.0781 45.6924L28.0693 45.6924C28.5898 46.9548 29.2887 48.1433 30.168 49.2568C31.045 50.371 32.06 51.3454 33.2129 52.1768C34.3652 53.0096 35.6477 53.6604 37.0605 54.1299C38.2969 54.5407 39.6016 54.7728 40.9746 54.8242L41.5674 54.835C42.8026 54.8349 44.0697 54.6865 45.374 54.3916C46.677 54.0966 47.8977 53.6668 49.0361 53.1025C50.1737 52.5383 51.1894 51.8422 52.0811 51.0088C52.8614 50.2812 53.4674 49.4701 53.9014 48.5771L54.0771 48.1895L47.5342 44.3633C47.2874 45.008 46.9507 45.552 46.5264 45.9951L46.3643 46.1572C45.9799 46.5272 45.5543 46.8352 45.0869 47.082L44.8848 47.1836C44.4115 47.4129 43.9228 47.5812 43.4189 47.6865C42.8433 47.8076 42.2807 47.8681 41.7334 47.8682L41.7334 46.8682C42.2066 46.8681 42.7001 46.8159 43.2129 46.708L43.2139 46.707C43.6953 46.6064 44.1634 46.4371 44.6191 46.1973C45.0573 45.9659 45.4511 45.6694 45.8037 45.3027C46.1261 44.9661 46.3961 44.5403 46.6006 44.0059L47.0215 42.9053L55.3379 47.7686L54.999 48.5771C54.501 49.7634 53.7504 50.8173 52.7627 51.7383L52.7637 51.7393C51.9182 52.5295 50.9729 53.2032 49.9326 53.7646L49.4805 53.999C48.4191 54.5251 47.294 54.9391 46.1074 55.2432L45.5947 55.3672C44.2245 55.677 42.8831 55.8349 41.5674 55.835C39.8762 55.835 38.2664 55.5846 36.7451 55.0791C35.2405 54.5791 33.8671 53.883 32.6289 52.9883L32.1748 52.6484C31.1314 51.8395 30.2005 50.9138 29.3828 49.875C28.593 48.8746 27.9391 47.8123 27.4189 46.6924L22.5889 46.6924L24.9424 40.9326L22.5879 40.9326L25.0518 34.9043L26.8291 34.9043C27.2802 33.7181 27.8782 32.5801 28.623 31.4922C29.52 30.1817 30.6155 29.0306 31.9053 28.042C33.2028 27.0458 34.6788 26.266 36.3213 25.6973C37.9909 25.1185 39.8254 24.835 41.8135 24.835Z" fill="#246AFF"/>
</svg>
