<svg width="80" height="80" viewBox="0 0 80 80" fill="none" xmlns="http://www.w3.org/2000/svg">
<path d="M19.6778 35.9377C19.6779 33.5646 29.344 37.8504 33.6271 37.6161C37.9102 37.3819 37.2156 34.6639 41.5567 34.2588C45.8978 33.8537 45.1455 39.0051 48.3867 39.642C51.0492 40.1651 52.3481 37.3358 54.9851 35.938C57.622 34.5402 62.8569 33.0698 62.8569 34.2591C62.8569 42.1856 56.2455 48.3241 48.3189 48.3241H32.0642C25.2234 48.3241 19.6774 42.7786 19.6778 35.9377Z" fill="#ADC7FF"/>
<path d="M52.626 23.9829C58.1316 23.9829 62.5962 28.4321 62.624 33.9312C61.5807 33.4389 57.2905 34.7161 54.9854 35.938C52.3484 37.3358 51.0492 40.1652 48.3867 39.6421C45.1457 39.005 45.8976 33.8542 41.5566 34.2593C37.216 34.6645 37.91 37.3814 33.627 37.6157C29.7357 37.8283 21.4032 34.3122 19.9102 35.4458V33.9829C19.9102 28.4601 24.3873 23.9829 29.9102 23.9829H52.626Z" fill="#246AFF"/>
<path d="M8.91416 60.2432C8.91438 57.8752 23.4004 62.1519 29.8194 61.9181C36.2383 61.6843 35.1974 58.9721 41.7032 58.5679C48.2089 58.1637 47.0815 63.3041 51.939 63.9395C55.9291 64.4615 57.8758 61.6383 61.8277 60.2435C65.7796 58.8487 73.6249 57.3815 73.6249 58.5682C73.6249 66.5574 66.8631 72.603 58.8738 72.603H21.274C14.4478 72.603 8.91353 67.0694 8.91416 60.2432Z" fill="#ADC7FF"/>
<path d="M63.2764 48.2935C68.7815 48.2936 73.2461 52.7422 73.2744 58.2407C71.7098 57.749 65.2813 59.0268 61.8271 60.2485C57.8753 61.6463 55.9285 64.4748 51.9385 63.9517C47.0809 63.3148 48.2079 58.1638 41.7021 58.5688C35.1968 58.974 36.2372 61.692 29.8184 61.9263C23.9859 62.139 11.4945 58.6212 9.25977 59.7563V58.2935C9.25977 52.7706 13.7369 48.2935 19.2598 48.2935H63.2764Z" fill="#246AFF"/>
<rect x="41.3262" y="7.19775" width="2.31524" height="16.7855" fill="#EB6E58"/>
<path d="M44.2209 6.16603C44.2209 7.11942 43.4435 7.89231 42.4845 7.89231C41.5255 7.89231 40.748 7.11942 40.748 6.16603C40.748 5.21263 42.2173 3.975 41.683 3.04544C41.2951 2.37068 44.2209 4.43962 44.2209 6.16603Z" fill="#F6CC53"/>
<rect x="33.5684" y="10.6704" width="1.85219" height="13.3126" fill="#EB6E58"/>
<rect x="33.5684" y="13.7959" width="1.85219" height="0.810333" fill="#CB5F4C"/>
<rect x="33.5684" y="11.5967" width="1.85219" height="0.810333" fill="#CB5F4C"/>
<rect x="33.5684" y="15.9956" width="1.85219" height="0.810333" fill="#CB5F4C"/>
<rect x="33.5684" y="18.1953" width="1.85219" height="0.810333" fill="#CB5F4C"/>
<rect x="33.5684" y="20.3945" width="1.85219" height="0.810333" fill="#CB5F4C"/>
<rect x="33.5684" y="22.5942" width="1.85219" height="0.810333" fill="#CB5F4C"/>
<rect x="49.082" y="10.6704" width="1.85219" height="13.3126" fill="#EB6E58"/>
<rect x="49.082" y="13.7959" width="1.85219" height="0.810333" fill="#CB5F4C"/>
<rect x="49.082" y="11.5967" width="1.85219" height="0.810333" fill="#CB5F4C"/>
<rect x="49.082" y="15.9956" width="1.85219" height="0.810333" fill="#CB5F4C"/>
<rect x="49.082" y="18.1953" width="1.85219" height="0.810333" fill="#CB5F4C"/>
<rect x="49.082" y="20.3945" width="1.85219" height="0.810333" fill="#CB5F4C"/>
<rect x="49.082" y="22.5942" width="1.85219" height="0.810333" fill="#CB5F4C"/>
<path d="M36.2346 9.29151C36.2346 10.2449 35.4571 11.0178 34.4981 11.0178C33.5391 11.0178 32.7617 10.2449 32.7617 9.29151C32.7617 8.33812 34.231 7.10049 33.6967 6.17093C33.3088 5.49617 36.2346 7.56511 36.2346 9.29151Z" fill="#F6CC53"/>
<path d="M51.7463 9.29151C51.7463 10.2449 50.9689 11.0178 50.0099 11.0178C49.0509 11.0178 48.2734 10.2449 48.2734 9.29151C48.2734 8.33812 49.7427 7.10049 49.2084 6.17093C48.8205 5.49617 51.7463 7.56511 51.7463 9.29151Z" fill="#F6CC53"/>
<path d="M76.1893 46.6647C76.1893 46.6647 75.1145 45.8532 74.8372 44.6409C74.6313 43.7411 75.1478 42.612 75.1899 42.5608L73.7502 42.2739C73.7502 42.2739 73.3235 44.1847 74.0457 45.4552C74.267 45.8445 74.9088 46.3805 75.3217 46.5808C75.7769 46.8017 76.1893 46.6647 76.1893 46.6647Z" fill="#6D89D0"/>
<path d="M78.6893 45.7883L79.9991 47.2872C79.9991 47.2872 76.2965 48.2705 74.1797 45.6509C74.1797 45.6509 77.297 46.7051 78.6893 45.7883Z" fill="#3A4ACE"/>
<path d="M21.2465 14.2994C21.2465 14.2994 22.5833 12.0814 24.9409 13.4386L26.2326 12.0332C26.2326 12.0332 24.8834 11.1397 22.0296 13.0828C20.1626 14.354 21.2465 14.2994 21.2465 14.2994Z" fill="#FB7369"/>
<path d="M19.9254 16.4748C19.9254 16.4748 19.4763 14.0568 23.457 12.2729C23.457 12.2729 22.0289 13.0828 21.7309 15.541L19.9254 16.4748Z" fill="#FB7369"/>
<path d="M19.8866 67.625C19.8866 67.625 17.3588 67.0618 17.8969 64.3952L16.154 63.6168C16.154 63.6168 15.7353 65.1799 18.4842 67.2688C20.2825 68.6354 19.8866 67.625 19.8866 67.625Z" fill="#FB7369"/>
<path d="M22.3681 68.1857C22.3681 68.1857 20.218 69.3794 17.2621 66.1714C17.2621 66.1714 18.4837 67.2684 20.9092 66.7702L22.3681 68.1857Z" fill="#FB7369"/>
<path d="M2.8579 64.2245C2.8579 64.2245 0.669426 63.3623 1.52896 61.0457L0.0749827 60.1011C0.0749827 60.1011 -0.521422 61.4445 1.64981 63.7068C3.07032 65.1871 2.8579 64.2245 2.8579 64.2245Z" fill="#5685D8"/>
<path d="M5.00376 65.0783C5.00376 65.0783 2.90593 65.8455 0.707031 62.5498C0.707031 62.5498 1.64804 63.7065 3.89475 63.6021L5.00376 65.0783Z" fill="#739AF0"/>
<path d="M9.25977 36.8967C9.25977 36.8967 10.4677 36.1337 10.5947 35.2119C10.5947 35.2119 11.7709 35.2755 12.0252 35.6569C12.0252 35.6569 11.4847 37.1828 10.8491 37.4688C10.8491 37.4688 9.41859 37.5642 9.25977 36.8967Z" fill="#3A4ACE"/>
<path d="M62.3434 19.0904C62.3434 19.0904 60.5435 17.9537 60.354 16.5801C60.354 16.5801 58.6015 16.6748 58.2227 17.2432C58.2227 17.2432 59.0279 19.5166 59.9752 19.9429C59.9752 19.9429 62.1066 20.085 62.3434 19.0904Z" fill="#3A4ACE"/>
<path d="M76.5651 58.7959H70.2695V76.9293H76.5651V58.7959Z" fill="#7DA7FF"/>
<path d="M70.2707 58.7959H53.6387V76.9293H70.2707V58.7959Z" fill="#ADC7FF"/>
<path d="M70.2695 68.9366V67.6675H53.6375V68.9366H70.2695Z" fill="white"/>
<path d="M76.5664 68.9366V67.6675H70.2708V68.9366H76.5664Z" fill="#C0D6FE"/>
<path d="M65.7702 58.5181C65.7702 58.5181 70.8693 56.2038 74.4235 57.0832L73.7139 57.558L74.0716 58.3965C74.0716 58.3965 70.1173 57.3658 65.668 58.655L65.7702 58.5181Z" fill="#CD604C"/>
<path d="M64.8961 58.4297C64.8961 58.4297 64.2332 58.3496 63.245 58.2137C60.6217 57.8528 55.7081 57.0979 54.8262 56.3993C53.4404 55.302 56.7242 50.6413 58.1456 49.9944C59.5671 49.348 64.8961 58.4297 64.8961 58.4297Z" fill="#EB6E58"/>
<path d="M75.2942 52.625C75.5311 53.7796 64.8008 58.7678 64.8008 58.7678C64.8008 58.7678 64.996 58.24 65.3136 57.4134C65.3136 57.4134 65.3141 57.4126 65.3145 57.4119C66.4746 54.3931 69.2694 47.3874 70.1877 47.4844C70.2799 47.4939 70.3879 47.5269 70.5084 47.5797C71.9189 48.2004 75.0761 51.5616 75.2942 52.625Z" fill="#EB6E58"/>
<path d="M70.4159 48.6065C69.7606 49.7448 65.3811 57.2943 65.3125 57.4119C66.4726 54.3931 69.2674 47.3874 70.1857 47.4844C70.1857 47.4844 70.3676 47.4792 70.5064 47.5797C70.6738 47.7018 70.7777 47.9779 70.4159 48.6065Z" fill="#CD604C"/>
<path d="M63.2472 58.2133H63.2455C60.6222 57.8524 55.7086 57.0975 54.8267 56.3989C54.4284 55.2773 55.4617 55.1859 56.2137 55.1069C56.9651 55.028 63.2472 58.2133 63.2472 58.2133Z" fill="#CD604C"/>
<path d="M62.8945 58.7855C62.8945 58.7855 63.4961 57.4171 64.68 57.3414C65.9164 57.2622 66.6187 58.7855 66.6187 58.7855H62.8945Z" fill="#CD604C"/>
<path d="M70.5378 58.7959H53.1348V61.29H70.5378V58.7959Z" fill="#88B3FF"/>
<path d="M77.0965 58.7959H70.5371V61.29H77.0965V58.7959Z" fill="#246AFF"/>
<path d="M63.5053 58.5879C63.5053 58.5879 60.0967 57.5082 57.7966 58.222C55.1454 59.0449 55.3025 62.3162 55.3025 62.3162L55.9261 62.0598L56.7678 62.4547C56.7678 62.4547 56.9099 58.9908 59.0714 58.5058C60.9404 58.0865 63.5053 58.5879 63.5053 58.5879Z" fill="#CD604C"/>
<path d="M61.7575 58.7959H60.4883V77.0856H61.7575V58.7959Z" fill="white"/>
</svg>
