<svg width="80" height="80" viewBox="0 0 80 80" fill="none" xmlns="http://www.w3.org/2000/svg">
<path d="M40.1166 13.3338C44.0436 11.1118 48.9292 12.1623 51.6284 15.6109C49.4785 17.1675 48.7956 20.1247 50.1335 22.4892C51.4546 24.8237 54.2849 25.7655 56.7061 24.7864C57.9488 28.749 56.3092 33.1762 52.5491 35.3043L36.5367 44.3656C32.2109 46.8135 26.7196 45.2909 24.2715 40.9652L20.7039 34.6605C18.2559 30.3345 19.7784 24.8431 24.1043 22.3951L40.1166 13.3338Z" fill="#E6EEFF"/>
<path d="M59.999 30.8228C64.9695 30.8229 68.999 34.8523 68.999 39.8228V42.5161C64.3494 42.5161 60.5803 46.2853 60.5801 50.9351C60.5801 55.4396 64.1171 59.1186 68.5654 59.3442L68.999 59.355V62.0483C68.999 67.0188 64.9695 71.0482 59.999 71.0483H20C15.0294 71.0483 11 67.0189 11 62.0483V39.8228C11 34.8522 15.0294 30.8228 20 30.8228H59.999Z" fill="#ADC7FF"/>
<path d="M53.0977 68.9951C53.6141 68.9953 54.0322 69.4142 54.0322 69.9307V71.0479H52.1621V69.9307C52.1622 69.4141 52.5811 68.9951 53.0977 68.9951ZM53.0977 62.291C53.6141 62.2912 54.0322 62.71 54.0322 63.2266V65.4609C54.0322 65.9775 53.6141 66.3963 53.0977 66.3965C52.581 66.3965 52.1621 65.9776 52.1621 65.4609V63.2266C52.1621 62.7099 52.581 62.291 53.0977 62.291ZM53.0977 55.5869C53.6141 55.5871 54.0322 56.0059 54.0322 56.5225V58.7568C54.0322 59.2734 53.6141 59.6922 53.0977 59.6924C52.581 59.6924 52.1621 59.2735 52.1621 58.7568V56.5225C52.1621 56.0058 52.581 55.5869 53.0977 55.5869ZM53.0977 48.8828C53.6141 48.883 54.0322 49.3018 54.0322 49.8184V52.0527C54.0322 52.5692 53.6141 52.9881 53.0977 52.9883C52.581 52.9883 52.1622 52.5693 52.1621 52.0527V49.8184C52.1621 49.3017 52.581 48.8828 53.0977 48.8828ZM53.0977 42.1777C53.614 42.178 54.0321 42.5969 54.0322 43.1133V45.3486C54.0321 45.865 53.614 46.284 53.0977 46.2842C52.5811 46.2842 52.1623 45.8652 52.1621 45.3486V43.1133C52.1623 42.5968 52.5811 42.1777 53.0977 42.1777ZM53.0977 35.4736C53.6141 35.4739 54.0322 35.8927 54.0322 36.4092V38.6445C54.032 39.1608 53.614 39.5789 53.0977 39.5791C52.5812 39.5791 52.1624 39.161 52.1621 38.6445V36.4092C52.1622 35.8926 52.581 35.4736 53.0977 35.4736ZM54.0322 30.8223V31.9395C54.0322 32.456 53.6141 32.8748 53.0977 32.875C52.581 32.875 52.1621 32.4561 52.1621 31.9395V30.8223H54.0322Z" fill="#246AFF"/>
<path d="M20.3535 44.3352V43.012C20.3535 42.0611 20.5605 41.1961 20.9743 40.4171C21.3882 39.638 21.9976 39.0137 22.8023 38.5439C23.6071 38.0742 24.5958 37.8394 25.7685 37.8394C26.9757 37.8394 27.9816 38.0742 28.7864 38.5439C29.6027 39.0137 30.212 39.638 30.6144 40.4171C31.0283 41.1961 31.2352 42.0611 31.2352 43.012V44.3352C31.2352 45.2632 31.0283 46.1167 30.6144 46.8958C30.212 47.6748 29.6084 48.2992 28.8037 48.769C27.9989 49.2387 26.9987 49.4735 25.803 49.4735C24.6188 49.4735 23.6186 49.2387 22.8023 48.769C21.9976 48.2992 21.3882 47.6748 20.9743 46.8958C20.5605 46.1167 20.3535 45.2632 20.3535 44.3352ZM23.6474 43.012V44.3352C23.6474 44.7362 23.7221 45.12 23.8715 45.4866C24.0325 45.8418 24.2739 46.1339 24.5958 46.3631C24.9292 46.5807 25.3316 46.6896 25.803 46.6896C26.2974 46.6896 26.6998 46.5807 27.0102 46.3631C27.3206 46.1339 27.5505 45.8418 27.7 45.4866C27.8494 45.12 27.9242 44.7362 27.9242 44.3352V43.012C27.9242 42.5881 27.8437 42.1986 27.6827 41.8434C27.5333 41.4768 27.2976 41.1847 26.9757 40.967C26.6653 40.7379 26.2629 40.6233 25.7685 40.6233C25.3086 40.6233 24.9177 40.7379 24.5958 40.967C24.2739 41.1847 24.0325 41.4768 23.8715 41.8434C23.7221 42.1986 23.6474 42.5881 23.6474 43.012ZM32.3562 58.4097V57.0864C32.3562 56.147 32.5631 55.2878 32.977 54.5087C33.4024 53.7297 34.0175 53.1053 34.8222 52.6356C35.6385 52.1658 36.6387 51.931 37.8229 51.931C39.0186 51.931 40.0188 52.1658 40.8236 52.6356C41.6284 53.1053 42.2377 53.7297 42.6516 54.5087C43.0655 55.2878 43.2724 56.147 43.2724 57.0864V58.4097C43.2724 59.3491 43.0655 60.2084 42.6516 60.9874C42.2492 61.7665 41.6456 62.3909 40.8408 62.8606C40.036 63.3303 39.0416 63.5652 37.8574 63.5652C36.6617 63.5652 35.6558 63.3303 34.8395 62.8606C34.0232 62.3909 33.4024 61.7665 32.977 60.9874C32.5631 60.2084 32.3562 59.3491 32.3562 58.4097ZM35.6673 57.0864V58.4097C35.6673 58.8221 35.7592 59.2116 35.9432 59.5783C36.1271 59.9449 36.3801 60.237 36.702 60.4547C37.0354 60.6724 37.4205 60.7812 37.8574 60.7812C38.4093 60.7812 38.8404 60.6724 39.1508 60.4547C39.4612 60.237 39.6739 59.9449 39.7889 59.5783C39.9153 59.2116 39.9786 58.8221 39.9786 58.4097V57.0864C39.9786 56.674 39.8981 56.2902 39.7371 55.9351C39.5762 55.5684 39.3347 55.2763 39.0128 55.0586C38.7024 54.8295 38.3058 54.7149 37.8229 54.7149C37.34 54.7149 36.9377 54.8295 36.6157 55.0586C36.3053 55.2763 36.0697 55.5684 35.9087 55.9351C35.7477 56.2902 35.6673 56.674 35.6673 57.0864ZM39.0473 41.7747L26.786 61.3311L24.3716 60.0594L36.633 40.503L39.0473 41.7747Z" fill="white"/>
</svg>
