<svg width="320" height="158" viewBox="0 0 320 158" fill="none" xmlns="http://www.w3.org/2000/svg">
<path opacity="0.6" d="M287 157.033C289.594 152.468 304.181 136.228 306.5 125C313.537 90.5421 301.428 68.1309 273.403 51.6566C259.584 43.5184 246.83 42.3968 235.774 43.4138C223.206 44.5696 212.832 48.4944 205.583 48.0222C195.293 47.3503 189.421 33.7789 174.355 21.249C165.531 13.9143 153.552 6.95718 135.685 3.2095C113.87 -1.36919 84.8712 -1.76845 64.3087 6.78994C56.2168 10.1557 49.5072 14.8907 45.1453 21.2491C33.9249 37.5949 41.8351 59.0994 51.9516 76.1991C66.2897 100.433 47.5271 104.656 30.5727 114.267C17.7016 121.566 16.9981 132.396 21.4997 157.033H287Z" fill="#D5E6FE"/>
<path d="M319.638 157.457H0.362535C0.163141 157.457 0 157.294 0 157.095V156.971C0 156.772 0.163141 156.608 0.362535 156.608H319.637C319.837 156.608 320 156.772 320 156.971V157.095C320 157.294 319.837 157.457 319.638 157.457Z" fill="#8692C2"/>
<path d="M308 98.3219V110.553C307.981 110.767 307.964 110.98 307.944 111.196C307.922 111.456 307.897 111.718 307.871 111.98C307.763 113.088 307.635 114.221 307.486 115.374C307.456 115.607 307.424 115.839 307.392 116.072C307.242 117.187 307.072 118.323 306.88 119.467C306.842 119.7 306.801 119.938 306.76 120.173C306.566 121.298 306.355 122.43 306.122 123.566C306.074 123.805 306.023 124.043 305.973 124.281C305.786 125.177 305.583 126.074 305.373 126.969C305.26 127.441 305.144 127.911 305.028 128.38C304.742 129.519 304.435 130.652 304.111 131.774C304.043 132.008 303.974 132.24 303.904 132.475C303.562 133.619 303.202 134.751 302.819 135.865C302.739 136.101 302.657 136.337 302.573 136.573C302.236 137.524 301.884 138.461 301.518 139.378C301.317 139.881 301.111 140.378 300.902 140.87C300.402 142.036 299.874 143.17 299.321 144.26C299.201 144.498 299.079 144.734 298.957 144.967C298.328 146.156 297.668 147.289 296.974 148.355C296.827 148.581 296.679 148.804 296.526 149.025C295.685 150.259 294.794 151.395 293.853 152.409C293.551 152.736 293.244 153.052 292.931 153.352C291.423 154.808 289.797 155.959 288.05 156.729C287.922 156.785 287.794 156.84 287.665 156.892C287.632 156.906 287.6 156.919 287.568 156.932L187.276 157L168.667 156.887L131.846 156.667L20.6285 156C20.6285 156 0 143.791 0 122.6C0 122.308 0.00370643 122.017 0.011229 121.722C0.31573 110.396 3.35028 88.8091 29.4442 77.6031V87.8013H35.4339V75.3567C37.3302 74.7393 39.3272 74.1718 41.4323 73.658C44.1079 73.0053 46.9536 72.4404 49.9832 71.9751C50.2802 71.9279 50.5797 71.8834 50.8804 71.8401C52.3281 71.6291 53.715 71.3801 55.0446 71.0931V86.2416H61.6644V82.703L69.4722 82.7344V77.0003H71.0442V75.8653H71.2516V77.0003H77.2798V77.0016H78.4865V75.8653H78.6941V77.0016H80.148V88.4056H89.4433V92.6024H94.6091V90.1646H99.4009V80.4894H101.789V75.9755H102.151V80.4894H107.879V72.0305H108.44V80.4894H112.229V80.3727H112.223V79.2993H112.229V78.2822H112.223V76.5928H112.229V75.5115H112.223V73.8221H112.229V72.7421H112.223V71.0513H112.229V69.8848H112.223V68.1941H112.229V66.709H112.223V65.0182H112.229V63.8976H113.357V62.6328H113.539V63.8976H121.902V62.6328H122.082V63.8976H123.608V72.7419L124.683 72.7484V72.7419H124.675V71.0511H124.683V69.8846H124.675V68.1939H124.683V67.0312H124.675V65.3407H124.683V65.3355H134.825V65.3407H136.568C136.659 65.3865 136.749 65.4298 136.839 65.4757V75.1273H144.253V87.8013H150.242V64.3629H151.545V62.7233H151.779V64.3629H156.509V62.7233H156.743V64.3629H163.44V62.7233H163.675V64.3629H167.889V62.7233H168.123V64.3629H169.855V86.2416H176.474V82.703L184.281 82.7344V77.0003H185.853V75.8653H186.061V77.0003H192.089V77.0016H193.293V75.8653H193.502V77.0016H194.956V88.4056H204.252V92.6024H209.418V90.1646H214.21V80.4894H216.599V75.9755H216.96V80.4894H222.688V72.0305H223.249V80.4894H227.038V80.3727H227.032V79.2993H227.038V78.2822H227.032V76.5928H227.038V75.5115H227.032V73.8221H227.038V72.7421H227.032V71.0513H227.038V69.8848H227.032V68.1941H227.038V66.709H227.032V65.0182H227.038V63.8976H228.168V62.6328H228.348V63.8976H236.71V62.6328H236.891V63.8976H238.417V72.7419L239.477 72.7484H239.492V72.7419H239.484V71.0511H239.492V69.8846H239.484V68.1939H239.492V67.0312H239.484V65.3407H239.492V65.3355H249.634V65.3407H251.376C251.467 65.3865 251.556 65.4298 251.647 65.4757V75.1273H264.091V87.8026H270.081V64.3629H271.383V62.7233H271.618V64.3629H276.348V62.7233H276.581V64.3629H283.279V62.7233H283.513V64.3629H289.693V86.2429H296.313V82.7029L304.121 82.7342V81.2899C304.225 81.6255 304.328 81.9637 304.429 82.3018C304.5 82.5377 304.57 82.7788 304.641 83.0174C304.701 83.2244 304.759 83.4314 304.819 83.6373C305.054 84.4683 305.28 85.3032 305.496 86.1407C305.52 86.231 305.544 86.3228 305.567 86.4158C305.627 86.6518 305.686 86.8877 305.746 87.1236C306.025 88.2521 306.29 89.3845 306.538 90.5209C306.589 90.7542 306.638 90.9888 306.689 91.2221C306.929 92.3532 307.155 93.4869 307.366 94.6206C307.411 94.8565 307.455 95.0924 307.498 95.3284C307.626 96.0257 307.748 96.7216 307.866 97.4163C307.914 97.7046 307.959 98.0075 308 98.3219Z" fill="#D5E5FB"/>
<path d="M169.858 64.3628H154.895V68.0715H169.858V64.3628Z" fill="#E2EEFD"/>
<path d="M169.858 70.0708H154.895V73.7795H169.858V70.0708Z" fill="#E2EEFD"/>
<path d="M169.858 75.8989H154.895V79.6077H169.858V75.8989Z" fill="#E2EEFD"/>
<path d="M169.858 81.8188H154.895V85.5276H169.858V81.8188Z" fill="#E2EEFD"/>
<path d="M169.858 87.5312H154.895V91.24H169.858V87.5312Z" fill="#E2EEFD"/>
<path d="M234.042 63.8984H227.061V66.1507H234.042V63.8984Z" fill="#E2EEFD"/>
<path d="M234.042 67.3643H227.061V69.6166H234.042V67.3643Z" fill="#E2EEFD"/>
<path d="M234.042 70.9043H227.061V73.1566H234.042V70.9043Z" fill="#E2EEFD"/>
<path d="M234.042 74.4995H227.061V76.7518H234.042V74.4995Z" fill="#E2EEFD"/>
<path d="M234.042 77.9688H227.061V80.2211H234.042V77.9688Z" fill="#E2EEFD"/>
<path d="M234.042 81.7871H227.061V84.0394H234.042V81.7871Z" fill="#E2EEFD"/>
<path d="M234.042 85.2539H227.061V87.5062H234.042V85.2539Z" fill="#E2EEFD"/>
<path d="M234.042 88.7925H227.061V91.0449H234.042V88.7925Z" fill="#E2EEFD"/>
<path d="M234.042 92.3882H227.061V94.6405H234.042V92.3882Z" fill="#E2EEFD"/>
<path d="M234.042 95.8574H227.061V98.1097H234.042V95.8574Z" fill="#E2EEFD"/>
<path d="M246.96 65.375H239.479V67.6273H246.96V65.375Z" fill="#E2EEFD"/>
<path d="M246.96 68.8423H239.479V71.0946H246.96V68.8423Z" fill="#E2EEFD"/>
<path d="M246.96 72.3809H239.479V74.6332H246.96V72.3809Z" fill="#E2EEFD"/>
<path d="M246.96 75.9761H239.479V78.2284H246.96V75.9761Z" fill="#E2EEFD"/>
<path d="M246.96 79.4453H239.479V81.6976H246.96V79.4453Z" fill="#E2EEFD"/>
<path d="M246.96 83.063H239.479V85.3153H246.96V83.063Z" fill="#E2EEFD"/>
<path d="M246.96 86.5293H239.479V88.7816H246.96V86.5293Z" fill="#E2EEFD"/>
<path d="M246.96 90.0684H239.479V92.3207H246.96V90.0684Z" fill="#E2EEFD"/>
<path d="M246.96 93.6641H239.479V95.9165H246.96V93.6641Z" fill="#E2EEFD"/>
<path d="M246.96 97.1328H239.479V99.3851H246.96V97.1328Z" fill="#E2EEFD"/>
<path d="M246.96 101.112H239.479V103.365H246.96V101.112Z" fill="#E2EEFD"/>
<path d="M246.96 104.579H239.479V106.831H246.96V104.579Z" fill="#E2EEFD"/>
<path d="M246.96 108.118H239.479V110.37H246.96V108.118Z" fill="#E2EEFD"/>
<path d="M246.96 111.714H239.479V113.966H246.96V111.714Z" fill="#E2EEFD"/>
<path d="M246.96 115.183H239.479V117.435H246.96V115.183Z" fill="#E2EEFD"/>
<path d="M289.693 64.3628H276.07V68.0715H289.693V64.3628Z" fill="#E2EEFD"/>
<path d="M289.693 70.0708H276.07V73.7795H289.693V70.0708Z" fill="#E2EEFD"/>
<path d="M289.693 75.8989H276.07V79.6077H289.693V75.8989Z" fill="#E2EEFD"/>
<path d="M289.693 81.8188H276.07V85.5276H289.693V81.8188Z" fill="#E2EEFD"/>
<path d="M289.693 87.5312H276.07V91.24H289.693V87.5312Z" fill="#E2EEFD"/>
<path d="M119.642 63.8984H112.16V66.1507H119.642V63.8984Z" fill="#E2EEFD"/>
<path d="M119.642 67.3643H112.16V69.6166H119.642V67.3643Z" fill="#E2EEFD"/>
<path d="M119.642 70.9043H112.16V73.1566H119.642V70.9043Z" fill="#E2EEFD"/>
<path d="M119.642 74.4995H112.16V76.7518H119.642V74.4995Z" fill="#E2EEFD"/>
<path d="M119.642 77.9688H112.16V80.2211H119.642V77.9688Z" fill="#E2EEFD"/>
<path d="M119.642 81.7871H112.16V84.0394H119.642V81.7871Z" fill="#E2EEFD"/>
<path d="M119.642 85.2539H112.16V87.5062H119.642V85.2539Z" fill="#E2EEFD"/>
<path d="M119.642 88.7925H112.16V91.0449H119.642V88.7925Z" fill="#E2EEFD"/>
<path d="M119.642 92.3882H112.16V94.6405H119.642V92.3882Z" fill="#E2EEFD"/>
<path d="M119.642 95.8574H112.16V98.1097H119.642V95.8574Z" fill="#E2EEFD"/>
<path d="M133.333 65.375H124.83V67.6273H133.333V65.375Z" fill="#E2EEFD"/>
<path d="M133.333 68.8423H124.83V71.0946H133.333V68.8423Z" fill="#E2EEFD"/>
<path d="M133.333 72.3809H124.83V74.6332H133.333V72.3809Z" fill="#E2EEFD"/>
<path d="M133.333 75.9761H124.83V78.2284H133.333V75.9761Z" fill="#E2EEFD"/>
<path d="M133.333 79.4453H124.83V81.6976H133.333V79.4453Z" fill="#E2EEFD"/>
<path d="M133.333 83.063H124.83V85.3153H133.333V83.063Z" fill="#E2EEFD"/>
<path d="M133.333 86.5293H124.83V88.7816H133.333V86.5293Z" fill="#E2EEFD"/>
<path d="M133.333 90.0684H124.83V92.3207H133.333V90.0684Z" fill="#E2EEFD"/>
<path d="M133.333 93.6641H124.83V95.9165H133.333V93.6641Z" fill="#E2EEFD"/>
<path d="M133.333 97.1328H124.83V99.3851H133.333V97.1328Z" fill="#E2EEFD"/>
<path d="M133.333 101.112H124.83V103.365H133.333V101.112Z" fill="#E2EEFD"/>
<path d="M133.333 104.579H124.83V106.831H133.333V104.579Z" fill="#E2EEFD"/>
<path d="M133.333 108.118H124.83V110.37H133.333V108.118Z" fill="#E2EEFD"/>
<path d="M133.333 111.714H124.83V113.966H133.333V111.714Z" fill="#E2EEFD"/>
<path d="M133.333 115.183H124.83V117.435H133.333V115.183Z" fill="#E2EEFD"/>
<path d="M91.0207 53.8789H88.8125V154.41H91.0207V53.8789Z" fill="#AEC3FF"/>
<path d="M93.0482 156.048C93.0482 156.048 92.2219 156.779 89.9176 156.779C87.7527 156.779 86.7871 156.048 86.7871 156.048V132.431C86.7871 130.799 88.1105 129.476 89.7429 129.476H89.9455C91.659 129.476 93.0481 130.865 93.0481 132.578V156.048H93.0482Z" fill="#9DB0F4"/>
<path d="M93.7156 75.5508H86.1203C85.2805 75.5508 84.5996 74.8699 84.5996 74.0301V45.8815C84.5996 45.0416 85.2805 44.3608 86.1203 44.3608H93.7156C94.5554 44.3608 95.2362 45.0417 95.2362 45.8815V74.0301C95.2361 74.8699 94.5554 75.5508 93.7156 75.5508Z" fill="#AEC3FF"/>
<path d="M90.9298 63.647C93.1208 63.1158 94.4663 60.909 93.9351 58.718C93.4039 56.527 91.1972 55.1814 89.0062 55.7125C86.8152 56.2437 85.4697 58.4505 86.0009 60.6416C86.5321 62.8326 88.7388 64.1782 90.9298 63.647Z" fill="#9DB0F4"/>
<path d="M93.999 69.6204C94.3884 67.3997 92.9037 65.2838 90.683 64.8944C88.4622 64.505 86.3463 65.9897 85.957 68.2104C85.5676 70.4312 87.0522 72.5471 89.273 72.9365C91.4937 73.3258 93.6096 71.8412 93.999 69.6204Z" fill="#9DB0F4"/>
<path d="M93.9967 50.9979C94.363 48.7732 92.8567 46.6728 90.6321 46.3064C88.4075 45.9401 86.3071 47.4465 85.9407 49.6711C85.5744 51.8958 87.0807 53.9962 89.3053 54.3626C91.5299 54.729 93.6303 53.2225 93.9967 50.9979Z" fill="#EB6E58"/>
<path d="M59.6055 150.083H146.035L175.224 147.454C175.224 147.454 170.001 134.44 168.577 134.244C167.153 134.049 62.343 134.244 62.343 134.244L59.6055 150.083Z" fill="#1D2949"/>
<path d="M187.693 148.801C185.541 149.682 172.54 149.877 172.54 149.877C172.54 149.877 172.834 133.943 159.44 135.8C146.048 137.657 148.389 150.883 148.389 150.883L84.0024 152.032C84.0024 152.032 85.0481 135.233 70.832 137.001C59.0212 138.468 62.0558 151.969 62.0558 151.969C55.9619 152.283 52.6953 151.364 50.9631 150.405C50.9619 150.405 50.9619 150.404 50.9619 150.404C49.6641 148.575 50.4206 147.505 50.496 147.317C50.5703 147.129 50.308 144.015 50.2708 143.565C50.2494 143.312 50.798 142.667 51.2822 142.151C51.6819 141.725 51.7081 141.071 51.3404 140.617L50.6967 139.823C49.9621 138.916 49.7941 137.676 50.2611 136.606L51.5405 133.677C51.5405 133.677 51.5405 133.677 51.5417 133.676C55.7143 126.508 88.4293 124.552 88.4293 124.552C93.3976 121.696 97.5173 119.573 100.74 118.031C105.88 115.572 111.741 113.173 117.413 112.613C132.769 111.094 145.396 112.814 148.492 113.316C152.108 113.903 170.292 121.821 171.661 122.506C173.028 123.19 184.191 124.117 185.625 124.292C187.059 124.465 187.016 125.899 187.016 125.899L187.213 127.171L187.962 132.016L188.145 133.199C189.188 133.72 189.189 135.213 189.189 135.213C189.189 135.213 189.842 147.921 187.693 148.801Z" fill="#246AFF"/>
<path d="M79.7451 154.464C83.6171 150.592 83.6171 144.315 79.7451 140.443C75.8732 136.571 69.5956 136.571 65.7236 140.443C61.8517 144.315 61.8517 150.592 65.7236 154.464C69.5956 158.336 75.8732 158.336 79.7451 154.464Z" fill="#2C3A64"/>
<path d="M72.7362 155.207C68.4608 155.207 64.9824 151.729 64.9824 147.453C64.9824 143.178 68.4608 139.7 72.7362 139.7C77.0117 139.7 80.4901 143.178 80.4901 147.453C80.4901 151.729 77.0118 155.207 72.7362 155.207ZM72.7362 140.417C68.8561 140.417 65.6993 143.573 65.6993 147.453C65.6993 151.334 68.8561 154.49 72.7362 154.49C76.6165 154.49 79.7731 151.334 79.7731 147.453C79.7731 143.573 76.6165 140.417 72.7362 140.417Z" fill="#AFCDFB"/>
<path d="M74.0599 154.857H71.2817L72.1735 147.243L71.1543 140.011L74.3294 140.207L73.2709 147.243L74.0599 154.857Z" fill="#AFCDFB"/>
<path d="M66.9728 152.286L65.584 149.88L72.6241 146.846L78.3779 142.348L79.7953 145.196L73.1727 147.797L66.9728 152.286Z" fill="#AFCDFB"/>
<path d="M65.8594 144.584L67.3857 142.263L73.2577 147.191L79.8601 150.313L77.952 152.858L72.6546 148.108L65.8594 144.584Z" fill="#AFCDFB"/>
<path d="M70.1348 147.439C70.1348 146.011 71.293 144.853 72.7218 144.853C74.1505 144.853 75.3087 146.011 75.3087 147.439C75.3087 148.868 74.1505 150.026 72.7218 150.026C71.293 150.027 70.1348 148.868 70.1348 147.439Z" fill="#AFCDFB"/>
<path d="M170.307 149.753C171.565 144.424 168.265 139.084 162.936 137.826C157.607 136.568 152.267 139.868 151.009 145.197C149.751 150.526 153.05 155.866 158.379 157.124C163.708 158.382 169.049 155.082 170.307 149.753Z" fill="#2C3A64"/>
<path d="M160.65 155.207C156.375 155.207 152.896 151.729 152.896 147.453C152.896 143.178 156.375 139.7 160.65 139.7C164.926 139.7 168.404 143.178 168.404 147.453C168.404 151.729 164.926 155.207 160.65 155.207ZM160.65 140.417C156.77 140.417 153.613 143.573 153.613 147.453C153.613 151.334 156.77 154.49 160.65 154.49C164.531 154.49 167.687 151.334 167.687 147.453C167.687 143.573 164.53 140.417 160.65 140.417Z" fill="#AFCDFB"/>
<path d="M161.976 154.857H159.198L160.09 147.243L159.07 140.011L162.245 140.207L161.187 147.243L161.976 154.857Z" fill="#AFCDFB"/>
<path d="M154.887 152.286L153.498 149.88L160.538 146.846L166.292 142.348L167.709 145.196L161.087 147.797L154.887 152.286Z" fill="#AFCDFB"/>
<path d="M153.773 144.584L155.3 142.263L161.172 147.191L167.774 150.313L165.866 152.858L160.569 148.108L153.773 144.584Z" fill="#AFCDFB"/>
<path d="M158.049 147.439C158.049 146.011 159.207 144.853 160.636 144.853C162.065 144.853 163.223 146.011 163.223 147.439C163.223 148.868 162.065 150.026 160.636 150.026C159.207 150.027 158.049 148.868 158.049 147.439Z" fill="#AFCDFB"/>
<path d="M63.1581 134.594L60.6133 137.352C60.2475 137.748 59.7331 137.974 59.195 137.974H51.3891C50.9287 137.974 50.6383 137.478 50.8623 137.077L51.0852 136.678C51.361 136.185 51.7009 135.741 52.0926 135.354C52.0938 135.353 52.0949 135.353 52.0949 135.353C53.1878 134.274 54.6769 133.645 56.2573 133.645H62.743C63.2358 133.645 63.4925 134.231 63.1581 134.594Z" fill="#AFCDFB"/>
<path d="M54.8663 147.454H52.6526C51.92 147.454 51.2448 147.85 50.8875 148.489L50.8116 148.625C50.7349 148.762 50.8341 148.931 50.9913 148.931H53.6553C53.8392 148.931 54.0147 148.854 54.1394 148.719L55.0082 147.777C55.1221 147.654 55.0345 147.454 54.8663 147.454Z" fill="#1D2949"/>
<path d="M162.074 123.613L128.978 124.399C128.329 124.415 127.795 123.893 127.795 123.244V115.619C127.795 115.019 128.286 114.535 128.886 114.544C142.999 114.74 147.836 115.133 150.737 116.134C153.295 117.016 159.278 120.646 162.37 122.488C162.892 122.798 162.682 123.599 162.074 123.613Z" fill="#AFCDFB"/>
<path d="M124.915 114.494C125.452 114.5 125.977 114.506 126.492 114.513V124.458L94.5622 125.216C94.1463 125.226 93.9743 124.687 94.319 124.454C98.0498 121.94 110.546 114.331 124.915 114.494Z" fill="#AFCDFB"/>
<path d="M161.963 123.616L161.945 123.616V122.234C162.058 122.302 162.168 122.367 162.274 122.43C162.825 122.757 162.603 123.601 161.963 123.616Z" fill="#AFCDFB"/>
<path d="M127.795 124.86L123.885 124.55L124.146 113.914H127.795V124.86Z" fill="#246AFF"/>
<path d="M152.561 124.86H150.736V115.309L152.561 116.404V124.86Z" fill="#246AFF"/>
<path d="M98.5463 121.874L99.5197 125.098L94.1937 125.225C93.883 125.232 93.7489 124.834 94.0012 124.653C95.2036 123.788 97.4321 122.247 98.5463 121.874Z" fill="#2C3A64"/>
<path d="M93.9625 125.491C93.7448 125.491 93.5544 125.354 93.4863 125.146C93.4169 124.934 93.493 124.707 93.6758 124.579L93.7867 124.503C93.9018 124.423 94.031 124.335 94.1729 124.239C94.2898 124.16 94.4149 124.077 94.5484 123.989L94.75 123.856C94.9029 123.756 95.0647 123.652 95.2365 123.542C95.3587 123.464 95.4854 123.384 95.6167 123.301L95.6381 123.288C95.6569 123.276 95.6756 123.264 95.6946 123.253C95.805 123.184 95.9216 123.111 96.0416 123.038L96.0681 123.021C96.1076 122.997 96.1477 122.972 96.1882 122.948C96.2473 122.911 96.3101 122.873 96.3733 122.835C96.4611 122.782 96.5501 122.728 96.6411 122.674C96.8966 122.52 97.1719 122.358 97.4582 122.192C97.5468 122.141 97.6367 122.089 97.7284 122.037C97.9088 121.933 98.0946 121.828 98.2853 121.721L98.4194 121.646C98.8042 121.432 99.194 121.22 99.578 121.016L99.7043 120.949C99.7626 120.919 99.8215 120.888 99.8804 120.856C100.613 120.473 101.365 120.097 102.117 119.738L102.351 119.627C102.586 119.516 102.824 119.405 103.066 119.295C103.146 119.258 103.228 119.221 103.311 119.184C103.472 119.11 103.636 119.037 103.803 118.963L104.052 118.854C104.301 118.744 104.566 118.63 104.862 118.505C105.015 118.441 105.17 118.377 105.324 118.313C106.368 117.883 107.432 117.479 108.486 117.111L108.717 117.031C108.804 117.001 108.891 116.972 108.979 116.942L109.308 116.832C109.396 116.802 109.485 116.773 109.574 116.744L109.585 116.741C109.677 116.71 109.771 116.68 109.865 116.65C110.034 116.596 110.204 116.542 110.376 116.489C110.492 116.452 110.61 116.416 110.729 116.38C110.91 116.326 111.091 116.271 111.274 116.218L111.577 116.131C111.767 116.076 111.959 116.022 112.151 115.97C112.532 115.865 112.921 115.764 113.305 115.668L113.328 115.662C113.362 115.653 113.396 115.645 113.43 115.636C113.594 115.596 113.761 115.555 113.929 115.516C114.028 115.492 114.129 115.468 114.231 115.445L114.307 115.427C114.382 115.41 114.457 115.393 114.533 115.376C114.633 115.353 114.734 115.331 114.835 115.309C114.937 115.287 115.039 115.265 115.14 115.243C115.243 115.222 115.345 115.201 115.447 115.18C115.548 115.158 115.651 115.138 115.755 115.117L115.771 115.114C115.868 115.095 115.966 115.076 116.063 115.057C116.16 115.038 116.257 115.02 116.355 115.002C116.464 114.981 116.574 114.962 116.684 114.942C116.754 114.929 116.825 114.917 116.896 114.904L116.996 114.887C117.204 114.851 117.412 114.817 117.62 114.784C117.724 114.767 117.829 114.751 117.934 114.735L117.95 114.732C118.135 114.705 118.32 114.678 118.505 114.652C118.849 114.605 119.196 114.56 119.535 114.521L119.557 114.519C119.652 114.508 119.747 114.497 119.842 114.487C119.909 114.479 119.979 114.472 120.048 114.465C120.116 114.457 120.19 114.45 120.264 114.443C120.342 114.435 120.423 114.427 120.505 114.419C120.612 114.409 120.72 114.399 120.829 114.39C120.933 114.381 121.037 114.372 121.142 114.364C121.225 114.358 121.304 114.351 121.384 114.345L121.848 114.314C121.939 114.308 122.03 114.303 122.122 114.298L122.163 114.295C122.263 114.29 122.366 114.284 122.468 114.28C122.548 114.276 122.631 114.272 122.713 114.269L122.721 114.268C122.794 114.265 122.867 114.262 122.941 114.26L123.122 114.253C123.194 114.251 123.267 114.249 123.339 114.247C123.624 114.238 123.889 114.343 124.092 114.541C124.295 114.738 124.406 115.002 124.406 115.285V123.527C124.406 124.212 123.849 124.782 123.164 124.799L93.9756 125.491C93.971 125.491 93.9668 125.491 93.9625 125.491ZM98.7829 122.041L98.6023 122.141C98.3918 122.259 98.187 122.374 97.9879 122.489C97.8965 122.541 97.8077 122.592 97.7197 122.643C97.4353 122.808 97.1629 122.968 96.9091 123.121C96.818 123.175 96.7299 123.229 96.6429 123.281C96.5809 123.319 96.5198 123.356 96.4592 123.393C96.418 123.418 96.3798 123.442 96.342 123.465L96.3144 123.482C96.195 123.555 96.0796 123.627 95.9675 123.697L95.8934 123.743C95.7642 123.824 95.6382 123.904 95.5165 123.982C95.3469 124.09 95.1868 124.193 95.0364 124.292L94.8358 124.423C94.7039 124.511 94.5799 124.593 94.4644 124.671C94.3251 124.765 94.1975 124.852 94.0831 124.931L94.03 124.968L99.5134 124.838L123.151 124.277C123.555 124.267 123.884 123.93 123.884 123.526V115.284C123.884 115.143 123.829 115.012 123.728 114.914C123.627 114.815 123.494 114.764 123.352 114.767C123.281 114.769 123.21 114.771 123.139 114.774L122.957 114.78C122.886 114.782 122.815 114.786 122.743 114.789L122.734 114.789C122.653 114.792 122.572 114.796 122.492 114.8C122.391 114.805 122.29 114.81 122.191 114.816L122.15 114.818C122.061 114.823 121.971 114.828 121.881 114.834L121.422 114.865C121.343 114.871 121.265 114.877 121.187 114.883C121.078 114.891 120.976 114.9 120.874 114.909C120.766 114.918 120.659 114.928 120.553 114.938C120.472 114.945 120.393 114.953 120.315 114.961C120.242 114.968 120.172 114.975 120.104 114.983C120.032 114.99 119.965 114.997 119.899 115.005C119.802 115.015 119.71 115.025 119.616 115.036L119.594 115.039C119.259 115.077 118.917 115.121 118.576 115.168C118.393 115.193 118.21 115.22 118.029 115.247L118.014 115.25C117.909 115.266 117.805 115.282 117.702 115.298C117.494 115.331 117.289 115.365 117.084 115.4L116.985 115.418C116.915 115.43 116.846 115.442 116.776 115.455C116.666 115.474 116.558 115.494 116.45 115.514C116.354 115.532 116.258 115.55 116.161 115.569C116.064 115.587 115.968 115.606 115.872 115.625L115.855 115.628C115.754 115.648 115.653 115.668 115.553 115.69C115.45 115.711 115.349 115.731 115.248 115.753C115.148 115.774 115.047 115.796 114.947 115.818C114.846 115.84 114.746 115.862 114.646 115.884C114.571 115.901 114.497 115.918 114.423 115.935L114.346 115.953C114.247 115.975 114.148 115.998 114.049 116.022C113.882 116.062 113.717 116.102 113.553 116.142C113.519 116.151 113.488 116.159 113.456 116.167L113.432 116.173C113.05 116.268 112.666 116.369 112.288 116.473C112.097 116.525 111.908 116.578 111.719 116.632L111.418 116.718C111.239 116.771 111.059 116.825 110.879 116.879C110.763 116.914 110.646 116.95 110.53 116.986C110.359 117.039 110.191 117.093 110.022 117.147C109.93 117.176 109.839 117.205 109.747 117.236L109.736 117.239C109.648 117.268 109.56 117.297 109.472 117.326L109.145 117.436C109.059 117.465 108.973 117.494 108.887 117.523L108.658 117.603C107.612 117.967 106.557 118.368 105.523 118.795C105.369 118.858 105.216 118.922 105.064 118.986C104.771 119.109 104.508 119.222 104.262 119.331L104.013 119.44C103.848 119.513 103.686 119.585 103.525 119.658C103.443 119.695 103.363 119.731 103.284 119.768C103.043 119.878 102.806 119.988 102.573 120.098L102.34 120.208C101.595 120.564 100.848 120.937 100.123 121.317C100.065 121.348 100.006 121.379 99.9467 121.41L99.8218 121.476C99.4782 121.66 99.1288 121.849 98.7829 122.041Z" fill="#1D2949"/>
<path d="M153.106 124.098C152.912 124.098 152.726 124.021 152.583 123.881C152.422 123.725 152.33 123.502 152.33 123.27V117.705C152.33 117.388 152.377 116.984 152.633 116.825C152.865 116.68 153.256 116.785 153.5 116.905C153.773 117.039 153.963 117.135 154.065 117.19C154.076 117.196 154.091 117.204 154.106 117.212L154.217 117.273C155.604 118.03 157.578 119.223 160.086 120.817C160.193 120.884 160.299 120.952 160.404 121.019C160.657 121.18 160.903 121.338 161.14 121.49L162.02 122.058C162.172 122.157 162.319 122.252 162.459 122.344C162.478 122.356 162.5 122.37 162.521 122.384L162.54 122.396C162.833 122.587 162.963 122.951 162.864 123.301C162.77 123.634 162.497 123.854 162.17 123.863L162.074 123.865L153.126 124.098C153.119 124.098 153.113 124.098 153.106 124.098ZM153.155 117.285C153.08 117.285 153.02 117.314 152.983 117.336C152.864 117.411 152.792 117.549 152.792 117.705V123.27C152.792 123.378 152.833 123.481 152.905 123.55C152.963 123.608 153.037 123.637 153.114 123.636L162.159 123.401C162.343 123.397 162.405 123.227 162.42 123.176C162.454 123.056 162.44 122.882 162.289 122.783L162.27 122.771C162.25 122.758 162.229 122.745 162.209 122.732C162.067 122.639 161.921 122.544 161.769 122.445L160.891 121.879C160.654 121.727 160.409 121.569 160.156 121.408C160.052 121.342 159.946 121.274 159.839 121.207C157.339 119.618 155.374 118.43 153.996 117.678L153.884 117.617C153.872 117.61 153.861 117.604 153.85 117.598C153.75 117.545 153.56 117.449 153.297 117.32C153.246 117.295 153.198 117.285 153.155 117.285Z" fill="#1D2949"/>
<path d="M98.5463 121.874L99.5197 125.098L94.1937 125.225C93.883 125.232 93.7489 124.834 94.0012 124.653C95.2036 123.788 97.4321 122.247 98.5463 121.874Z" fill="#2C3A64"/>
<path d="M128.947 124.66C128.576 124.66 128.227 124.518 127.96 124.257C127.685 123.989 127.533 123.629 127.533 123.244V115.619C127.533 115.258 127.674 114.921 127.931 114.668C128.188 114.414 128.528 114.28 128.889 114.283C143.456 114.486 147.967 114.816 150.828 115.89L150.997 115.953V124.137L128.983 124.659C128.971 124.659 128.959 124.66 128.947 124.66ZM128.87 114.804C128.654 114.804 128.451 114.887 128.297 115.039C128.141 115.193 128.055 115.399 128.055 115.619V123.244C128.055 123.487 128.15 123.714 128.324 123.884C128.498 124.054 128.729 124.145 128.97 124.138L150.475 123.628V116.316C147.692 115.328 142.917 114.999 128.881 114.804C128.877 114.804 128.873 114.804 128.87 114.804Z" fill="#1D2949"/>
<path d="M187.963 132.016H181.732C180.805 132.016 179.929 131.591 179.356 130.862L176.999 127.867C176.777 127.585 176.978 127.171 177.337 127.171H187.214L187.963 132.016Z" fill="#A9453D"/>
<path d="M126.212 114.417L125.828 147.808L126.089 147.811L126.473 114.42L126.212 114.417Z" fill="#1D2949"/>
<path d="M148.291 147.315L83.873 148.604L83.8783 148.864L148.297 147.575L148.291 147.315Z" fill="#1D2949"/>
<path d="M122.392 131.377C122.392 131.73 120.816 132.016 118.873 132.016C116.929 132.016 115.354 131.73 115.354 131.377C115.354 131.024 116.929 130.737 118.873 130.737C120.816 130.737 122.392 131.024 122.392 131.377Z" fill="#2C3A64"/>
<path d="M155.167 131.377C155.167 131.73 153.592 132.016 151.648 132.016C149.704 132.016 148.129 131.73 148.129 131.377C148.129 131.024 149.705 130.737 151.648 130.737C153.592 130.737 155.167 131.024 155.167 131.377Z" fill="#2C3A64"/>
<path d="M145.784 147.461L145.523 147.446C145.703 144.127 146.687 141.329 148.448 139.131C149.856 137.372 151.761 135.993 154.108 135.032C157.68 133.57 161.217 133.532 161.945 133.543V123.613H162.206V133.812L162.07 133.806C162.031 133.805 158.136 133.663 154.2 135.276C151.895 136.221 150.027 137.574 148.648 139.297C146.924 141.452 145.96 144.198 145.784 147.461Z" fill="#1D2949"/>
<path d="M91.7285 148.568C91.6275 139.956 92.1071 133.996 92.5271 130.514C92.9829 126.735 93.4704 124.969 93.4753 124.952L93.7263 125.022C93.707 125.091 91.7961 132.123 91.9891 148.565L91.7285 148.568Z" fill="#1D2949"/>
<path d="M128.886 114.413H123.787V114.674H128.886V114.413Z" fill="#1D2949"/>
<path d="M55.9354 137.973H51.3891C50.9287 137.973 50.6383 137.478 50.8623 137.076L51.0852 136.677C51.361 136.184 51.7009 135.74 52.0926 135.354C52.0938 135.353 52.0949 135.353 52.0949 135.353L54.847 135.808L53.7596 136.999L55.0597 137.262L55.9354 137.973Z" fill="#2C3A64"/>
<path d="M54.4747 130.621C54.3694 130.621 54.2655 130.572 54.1996 130.479C54.0912 130.328 54.1265 130.117 54.2782 130.009C54.3001 129.993 54.8333 129.614 56.5501 128.569C58.3506 127.473 60.0693 127.246 61.2056 127.17C61.9051 127.123 62.5947 126.111 63.0067 125.505C63.1578 125.284 63.2768 125.109 63.3811 124.996C63.5445 124.819 63.7133 124.636 76.1644 124.398C82.249 124.282 89.7616 124.214 88.4273 124.214C88.426 124.214 89.8165 124.214 89.8178 124.214C90.0026 124.214 90.0096 124.656 90.043 124.838C90.4542 127.084 88.0157 125.966 87.8293 125.969C78.5353 126.07 65.091 125.239 63.8299 125.51C63.7598 125.599 63.6647 125.739 63.565 125.885C63.0527 126.638 62.2785 127.775 61.2504 127.844C60.1852 127.915 58.5752 128.127 56.9013 129.146C55.2139 130.173 54.6759 130.555 54.6706 130.558C54.611 130.601 54.5425 130.621 54.4747 130.621Z" fill="#246AFF"/>
<path d="M103.3 126.475H99.1632C98.4203 126.475 97.8125 125.868 97.8125 125.125V123.999C97.8125 123.256 98.4203 122.648 99.1632 122.648H103.3C104.043 122.648 104.65 123.256 104.65 123.999V125.125C104.65 125.868 104.043 126.475 103.3 126.475Z" fill="#6390E0"/>
<path d="M260.313 97.911C260.313 97.911 261.929 98.1111 262.58 97.8344C263.23 97.5577 263.481 95.8107 263.493 95.4158C263.505 95.0209 262.535 94.2109 261.961 94.7517C261.386 95.2925 260.962 96.1938 260.962 96.1938C260.962 96.1938 259.755 94.5794 258.396 96.1705L256.713 97.3524L258.276 99.3229L260.313 97.911Z" fill="#FD997F"/>
<path d="M254.791 98.0488L256.527 97.1172L258.449 99.5405L256.54 101.427L254.791 98.0488Z" fill="#1F326B"/>
<path d="M254.79 98.0489C253.714 97.6306 251.127 98.9269 250.681 99.1287C249.558 97.7445 247.611 95.2092 245.286 91.6137C241.642 91.1637 240.035 97.0381 243.577 101.769C246.196 105.268 251.2 106.056 254.776 103.542C255.593 102.967 256.252 102.268 256.54 101.427L254.79 98.0489Z" fill="#E9C02F"/>
<path d="M256.328 99.2713C256.328 99.2713 251.533 103.581 248.438 101.426C245.342 99.2713 245.395 94.4894 242.447 92.9795" stroke="#1F326B" stroke-width="1.5624" stroke-miterlimit="10"/>
<path d="M224.045 105.846C224.045 104.73 223.14 103.826 222.024 103.826H207.657C206.541 103.826 205.637 104.73 205.637 105.846V109.182H224.045V105.846H224.045Z" fill="#1E4199"/>
<path d="M205.637 109.182V120.214C205.637 121.329 206.541 122.234 207.657 122.234H222.025C223.14 122.234 224.045 121.33 224.045 120.214V109.182H205.637Z" fill="#6C83DD"/>
<path d="M212.08 103.119H209.299V109.182H212.08V103.119Z" fill="#1F326B"/>
<path d="M220.382 103.119H217.602V109.182H220.382V103.119Z" fill="#1F326B"/>
<path d="M224.045 108.549H205.637V109.515H224.045V108.549Z" fill="#1F326B"/>
<path d="M204.883 114.616V122.609H205.777V115.51H208.735V122.547H209.628V115.51H212.586V122.547H213.48V115.51H216.438V122.547H217.332V115.51H220.29V122.547H221.183V115.51H223.859V122.547H224.753V114.616H204.883Z" fill="#1F326B"/>
<path d="M243.549 136.943L253.396 139.782C253.396 139.782 254.023 138.747 252.357 137.957C252.309 137.934 252.261 137.911 252.214 137.888C250.427 137.007 249.397 135.248 249.325 133.407L245.131 132.296L243.549 136.943Z" fill="#F6CC53"/>
<path d="M255.805 113.986C251.456 110.529 243.412 110.425 227.824 108.923C227.824 108.923 223.244 123.436 249.713 118.846L245.131 132.297L248.53 133.197C248.53 133.197 249.529 131.364 250.103 130.435C252.539 126.491 254.021 123.299 254.619 122.238L254.591 122.213C257.678 115.802 257.316 115.186 255.805 113.986Z" fill="#0C2974"/>
<path d="M247.857 76.7651C244.739 75.465 242.23 75.891 239.854 79.1735C237.877 81.9057 240.485 86.5055 243.712 85.7909C246.939 85.0764 249.547 81.4947 249.547 81.4947C249.547 81.4947 252.128 78.5458 247.857 76.7651Z" fill="#1F326B"/>
<path d="M254.403 140.093C254.349 140.29 254.143 140.407 253.946 140.353L244.443 137.726C244.246 137.671 244.129 137.465 244.183 137.268C244.238 137.071 244.444 136.954 244.641 137.009L254.144 139.635C254.341 139.69 254.458 139.896 254.403 140.093Z" fill="#1F326B"/>
<path d="M220.254 156.571C212.596 156.571 206.365 150.341 206.365 142.683C206.365 135.025 212.596 128.795 220.254 128.795C227.912 128.795 234.142 135.025 234.142 142.683C234.142 150.341 227.912 156.571 220.254 156.571ZM220.254 129.689C213.088 129.689 207.259 135.518 207.259 142.683C207.259 149.849 213.088 155.678 220.254 155.678C227.419 155.678 233.248 149.849 233.248 142.683C233.248 135.518 227.419 129.689 220.254 129.689Z" fill="#1F326B"/>
<path d="M234.869 143.503C234.375 143.503 233.975 143.102 233.975 142.609C233.975 135.042 227.819 128.886 220.253 128.886C212.686 128.886 206.53 135.042 206.53 142.609C206.53 143.102 206.129 143.503 205.636 143.503C205.142 143.503 204.742 143.102 204.742 142.609C204.742 134.057 211.7 127.099 220.253 127.099C228.805 127.099 235.763 134.057 235.763 142.609C235.763 143.102 235.362 143.503 234.869 143.503Z" fill="#1E4199"/>
<path d="M257.136 153.839C256.908 153.839 256.679 153.751 256.505 153.577C250.457 147.529 250.457 137.689 256.505 131.642C262.552 125.595 272.392 125.594 278.439 131.642C278.788 131.991 278.788 132.557 278.439 132.906C278.09 133.255 277.525 133.255 277.176 132.906C271.826 127.556 263.119 127.555 257.768 132.906C252.418 138.256 252.418 146.962 257.768 152.313C258.118 152.662 258.118 153.228 257.768 153.577C257.594 153.751 257.365 153.839 257.136 153.839Z" fill="#1E4199"/>
<path d="M220.252 144.152C221.063 144.152 221.721 143.495 221.721 142.683C221.721 141.872 221.063 141.214 220.252 141.214C219.441 141.214 218.783 141.872 218.783 142.683C218.783 143.495 219.441 144.152 220.252 144.152Z" fill="#1F326B"/>
<path d="M220.253 145.706C218.586 145.706 217.23 144.35 217.23 142.683C217.23 141.017 218.586 139.661 220.253 139.661C221.919 139.661 223.275 141.017 223.275 142.683C223.275 144.35 221.919 145.706 220.253 145.706ZM220.253 140.261C218.917 140.261 217.83 141.348 217.83 142.683C217.83 144.019 218.917 145.105 220.253 145.105C221.588 145.105 222.675 144.019 222.675 142.683C222.675 141.348 221.588 140.261 220.253 140.261Z" fill="#F6CC53"/>
<path d="M267.467 156.571C259.809 156.571 253.578 150.341 253.578 142.683C253.578 135.025 259.809 128.795 267.467 128.795C275.125 128.795 281.355 135.025 281.355 142.683C281.355 150.341 275.125 156.571 267.467 156.571ZM267.467 129.689C260.301 129.689 254.472 135.518 254.472 142.683C254.472 149.849 260.301 155.678 267.467 155.678C274.632 155.678 280.461 149.849 280.461 142.683C280.461 135.518 274.632 129.689 267.467 129.689Z" fill="#1F326B"/>
<path d="M267.467 144.152C268.278 144.152 268.936 143.495 268.936 142.683C268.936 141.872 268.278 141.214 267.467 141.214C266.656 141.214 265.998 141.872 265.998 142.683C265.998 143.495 266.656 144.152 267.467 144.152Z" fill="#1F326B"/>
<path d="M267.468 145.706C265.801 145.706 264.445 144.35 264.445 142.683C264.445 141.017 265.801 139.661 267.468 139.661C269.134 139.661 270.49 141.017 270.49 142.683C270.49 144.35 269.134 145.706 267.468 145.706ZM267.468 140.261C266.132 140.261 265.045 141.348 265.045 142.683C265.045 144.019 266.132 145.105 267.468 145.105C268.803 145.105 269.889 144.019 269.889 142.683C269.889 141.348 268.803 140.261 267.468 140.261Z" fill="#F6CC53"/>
<path d="M249.771 134.991L248.868 135.493C248.768 135.548 248.642 135.512 248.586 135.412C248.531 135.313 248.567 135.186 248.667 135.131L249.57 134.629C249.67 134.574 249.796 134.61 249.851 134.71C249.906 134.809 249.87 134.936 249.771 134.991Z" fill="#1E4199"/>
<path d="M250.259 135.871L249.356 136.373C249.256 136.428 249.13 136.392 249.075 136.292C249.02 136.193 249.056 136.067 249.155 136.011L250.058 135.51C250.158 135.455 250.284 135.491 250.339 135.59C250.395 135.69 250.359 135.816 250.259 135.871Z" fill="#1E4199"/>
<path d="M250.747 136.752L249.844 137.254C249.745 137.309 249.618 137.273 249.563 137.173C249.508 137.074 249.544 136.947 249.643 136.892L250.547 136.391C250.646 136.335 250.773 136.371 250.828 136.471C250.883 136.571 250.847 136.697 250.747 136.752Z" fill="#1E4199"/>
<path d="M259.58 111.427C258.839 111.085 256.967 111.259 256.967 111.259L254.791 113.084C256.304 114.967 257.656 113.264 257.656 113.264C257.656 113.264 258.114 114.319 258.758 114.963C259.403 115.607 260.55 114.706 260.55 114.25C260.55 113.794 260.322 111.769 259.58 111.427Z" fill="#FD997F"/>
<path d="M267.88 142.515L258.938 120.545V118.262C259.961 118.129 262.476 117.616 262.476 115.784C262.476 115.175 262.259 114.663 261.83 114.264C260.723 113.234 258.551 113.378 258.458 113.384C258.212 113.402 258.027 113.616 258.045 113.862C258.063 114.108 258.278 114.29 258.523 114.276C259.041 114.238 260.536 114.281 261.221 114.918C261.464 115.145 261.583 115.428 261.583 115.785C261.583 117.177 258.494 117.41 258.463 117.412C258.227 117.427 258.044 117.623 258.044 117.858V120.219L233.607 122.18V118.912C233.607 118.85 233.594 118.791 233.571 118.737H236.639C236.886 118.737 237.085 118.537 237.085 118.29C237.085 118.043 236.886 117.843 236.639 117.843H229.682C229.434 117.843 229.235 118.043 229.235 118.29C229.235 118.537 229.435 118.737 229.682 118.737H232.749C232.726 118.791 232.713 118.85 232.713 118.912V122.216L204.449 122.1C204.448 122.1 204.447 122.1 204.447 122.1C204.276 122.1 204.12 122.198 204.045 122.351C203.97 122.505 203.99 122.688 204.095 122.823L219.9 142.959C219.904 142.964 219.91 142.966 219.914 142.97C219.951 143.014 219.995 143.05 220.046 143.077C220.056 143.082 220.066 143.085 220.076 143.09C220.131 143.113 220.189 143.13 220.251 143.13L220.252 143.13H220.252H239.584C239.768 144.359 240.341 145.463 241.182 146.304L238.983 148.502C238.809 148.677 238.809 148.959 238.983 149.134C239.071 149.221 239.185 149.265 239.299 149.265C239.414 149.265 239.528 149.221 239.615 149.134L241.868 146.882C242.804 147.561 243.951 147.967 245.193 147.967C248.324 147.967 250.87 145.42 250.87 142.289C250.87 140.521 250.058 138.94 248.787 137.898L258.416 121.634L267.053 142.851C267.123 143.025 267.29 143.13 267.467 143.13C267.523 143.13 267.58 143.119 267.635 143.097C267.864 143.004 267.974 142.743 267.88 142.515ZM232.342 123.108L220.216 141.914L205.368 122.998L232.342 123.108ZM228.132 131.288L233.151 123.504L241.858 137.704C240.455 138.728 239.535 140.374 239.518 142.236H221.072L228.132 131.288ZM245.428 141.817L243.088 138C243.724 137.686 244.437 137.505 245.193 137.505C246.069 137.505 246.888 137.745 247.595 138.158L245.428 141.817ZM244.637 142.236H240.411C240.428 140.696 241.178 139.332 242.326 138.468L244.637 142.236ZM240.488 143.13H244.356L241.814 145.672C241.135 144.994 240.663 144.113 240.488 143.13ZM249.977 142.289C249.977 144.927 247.831 147.073 245.193 147.073C244.197 147.073 243.272 146.767 242.506 146.244L245.747 143.002L245.748 143.002L245.751 142.999C245.753 142.996 245.755 142.993 245.757 142.99C245.78 142.966 245.802 142.94 245.819 142.911L248.324 138.68C249.334 139.558 249.977 140.849 249.977 142.289ZM248.049 137.39C247.209 136.898 246.235 136.611 245.193 136.611C244.266 136.611 243.392 136.839 242.619 137.235L233.922 123.051L257.667 121.146L248.049 137.39Z" fill="#1F326B"/>
<path d="M243.795 92.1666L239.855 91.0559L242.359 86.1914L246.299 87.3021L243.795 92.1666Z" fill="#FD997F"/>
<path d="M247.244 80.1816C247.244 80.1816 246.906 81.1916 245.684 82.6144C244.141 84.0971 242.307 85.3853 241.275 85.3235C241.275 85.3235 241.845 86.9594 244.536 88.2323C245.759 88.8104 247.77 88.9876 248.427 86.6543L249.45 83.0284C249.595 82.5142 250.028 81.375 249.956 80.876L247.244 80.1816Z" fill="#FD997F"/>
<path d="M258.491 115.346C259.333 115.346 260.016 114.663 260.016 113.821C260.016 112.979 259.333 112.297 258.491 112.297C257.649 112.297 256.967 112.979 256.967 113.821C256.967 114.663 257.649 115.346 258.491 115.346Z" fill="#1E4199"/>
<path d="M249.326 83.4595L248.629 85.9313C250.179 86.368 249.326 83.4595 249.326 83.4595Z" fill="#FC8670"/>
<path d="M225.728 110.093C224.401 105.577 231.943 96.7662 237.09 92.1229C242.236 87.4796 245.712 90.4475 245.451 94.9321C245.26 98.2296 241.58 106.197 239.3 109.33C237.994 111.123 234.947 113.821 233.162 113.821C230.305 113.821 226.912 114.118 225.728 110.093Z" fill="#FD997F"/>
<path d="M245.015 83.6179C244.801 84.3777 244.104 84.8462 243.458 84.6641C242.812 84.482 242.462 83.7183 242.676 82.9585C242.891 82.1987 243.588 81.7302 244.234 81.9123C244.88 82.0944 245.229 82.8581 245.015 83.6179Z" fill="#FD997F"/>
<path d="M255.883 113.821C255.883 113.821 248.927 109.194 246.608 106.875C244.29 104.557 239.604 96.7636 239.604 92.8485C239.604 88.9335 244.246 88.1911 246.988 98.1607C249.891 106.343 257.657 111.842 257.657 111.842L255.883 113.821Z" fill="#FD997F"/>
<path d="M250.6 110.907L252.57 112.043L254.873 109.314L252.736 107.07L250.6 110.907Z" fill="#1F326B"/>
<path d="M228.257 103.56C228.257 103.56 216.14 115.042 244.652 124.546C244.652 124.546 244.825 124.614 245.112 124.717C244.924 125.165 244.693 125.723 244.428 126.379L237.977 141.417L241.37 143.449C241.37 143.449 243.118 140.119 244.255 138.514C246.952 134.703 248.332 132.187 249.096 131.047L249.068 131.019C250.721 128.17 251.947 125.667 252.109 124.507C252.83 119.153 238.547 110.637 228.257 103.56Z" fill="#1E4199"/>
<path d="M236.096 145.736L242.44 152.945C242.44 152.945 243.845 152.945 243.077 151.251C242.725 150.539 242.462 149.818 242.268 149.105C241.793 147.351 241.732 145.537 242.035 143.781L237.977 141.351L236.096 145.736Z" fill="#F6CC53"/>
<path d="M223.832 107.958L222.654 110.664C222.654 110.664 223.677 112.268 227.561 112.955C231.444 113.641 230.451 111.728 234.386 112.824C237.193 113.606 239.298 113.107 239.298 113.107L239.603 110.075L223.832 107.958Z" fill="#1F326B"/>
<path d="M241.073 88.6925C241.073 88.6925 245.144 88.4767 246.067 94.1923C246.989 99.908 253.61 105.767 253.176 107.553C251.169 110.339 250.601 110.907 250.601 110.907C250.601 110.907 246.856 113.505 242.944 104.86C242.694 107.136 242.119 108.029 241.354 109.426C240.373 111.216 238.27 112.097 236.324 111.483C234.827 111.01 232.879 110.704 231.021 111.34C229.198 111.963 226.9 111.084 225.017 110.012C223.122 108.934 222.731 106.369 224.228 104.783C226.16 102.735 228.725 99.7568 230.592 96.6219C234.446 90.1522 237.395 88.6914 241.073 88.6925Z" fill="#F6CC53"/>
<path d="M235.039 107.654L238.805 104.86L239.307 105.763L235.692 108.525L235.039 107.654Z" fill="#1F326B"/>
<path d="M227.383 112.078L227.055 112.008C227.413 110.333 228.692 109.015 230.048 107.62C231.404 106.223 232.807 104.779 233.589 102.771C235.193 98.6512 238.326 97.0661 238.459 97.0005L238.607 97.301C238.576 97.3167 235.457 98.8998 233.901 102.892C233.094 104.964 231.604 106.499 230.288 107.854C228.968 109.213 227.721 110.497 227.383 112.078Z" fill="#1F326B"/>
<path d="M252.07 110.047C251.923 109.993 248.45 108.674 246.853 103.936C246.319 102.348 245.366 100.845 244.357 99.2539C242.394 96.1576 240.365 92.9562 241.237 88.7773L241.566 88.8458C240.721 92.8915 242.713 96.0347 244.64 99.0743C245.66 100.683 246.623 102.203 247.171 103.829C248.716 108.416 252.151 109.72 252.185 109.732L252.07 110.047Z" fill="#1F326B"/>
<path d="M240.504 88.8514L241.2 87.6465C241.2 87.6465 244.609 88.2422 245.637 90.4765L245.286 91.6132C245.286 91.6132 243.329 89.1129 240.504 88.8514Z" fill="#1F326B"/>
<path d="M242.565 104.251C242.107 102.808 241.413 102.057 240.61 101.188C240.142 100.682 239.659 100.158 239.168 99.4458C237.823 97.4901 237.773 93.9155 237.771 93.7642L238.107 93.7612C238.107 93.7973 238.157 97.385 239.444 99.2559C239.921 99.9484 240.396 100.463 240.856 100.96C241.652 101.822 242.404 102.636 242.884 104.15L242.565 104.251Z" fill="#1F326B"/>
<path d="M240.416 79.3566C242.021 78.7373 243.46 77.7246 244.483 76.3414C245.287 75.2541 245.791 74.0028 244.593 73.3464C242.499 72.1999 241.736 74.2667 241.736 74.2667C238.991 72.0579 236.336 74.8062 238.602 77.1107C238.602 77.1107 236.143 76.8932 236.628 79.052C236.929 80.3916 238.84 79.9645 240.416 79.3566Z" fill="#1F326B"/>
<path d="M242.611 153.516C242.459 153.653 242.222 153.64 242.086 153.488L235.505 146.146C235.368 145.994 235.381 145.758 235.534 145.621C235.686 145.484 235.922 145.497 236.059 145.65L242.64 152.991C242.776 153.143 242.763 153.38 242.611 153.516Z" fill="#1F326B"/>
<path d="M248.234 83.4249C248.19 83.6816 248.246 83.9052 248.358 83.9245C248.471 83.9438 248.598 83.7511 248.642 83.4946C248.686 83.238 248.63 83.0143 248.517 82.995C248.404 82.9757 248.277 83.1681 248.234 83.4249Z" fill="#1F326B"/>
<path d="M247.242 86.1914C247.242 86.1914 247.242 86.8461 247.959 86.8461" stroke="#1F326B" stroke-width="1.0416" stroke-miterlimit="10"/>
<path d="M249.062 82.6211C249.062 82.6211 248.557 82.2056 248.102 82.7603" stroke="#1F326B" stroke-width="1.0416" stroke-miterlimit="10"/>
<path d="M246.9 83.8631C246.857 84.0137 247.084 84.2095 247.405 84.3001C247.727 84.3908 248.023 84.3423 248.065 84.1915C248.108 84.0409 247.881 83.8453 247.559 83.7546C247.237 83.664 246.942 83.7125 246.9 83.8631Z" fill="#FC8670"/>
<path d="M243.843 83.4588C244.06 83.4753 244.2 83.6714 244.2 83.6714L244.574 83.2659C244.604 82.8968 244.423 82.5604 244.111 82.4628C243.737 82.3461 243.321 82.6149 243.181 83.0632C243.046 83.4933 243.217 83.9292 243.561 84.0674C243.594 84.0317 243.623 83.9974 243.669 83.9579C243.452 83.8108 243.627 83.442 243.843 83.4588Z" fill="#FC8670"/>
<path d="M241.918 145.672H240.885C240.771 145.672 240.678 145.579 240.678 145.466C240.678 145.352 240.771 145.259 240.885 145.259H241.918C242.031 145.259 242.124 145.352 242.124 145.466C242.124 145.579 242.031 145.672 241.918 145.672Z" fill="#1E4199"/>
<path d="M241.918 146.68H240.885C240.771 146.68 240.678 146.587 240.678 146.473C240.678 146.359 240.771 146.266 240.885 146.266H241.918C242.031 146.266 242.124 146.359 242.124 146.473C242.124 146.587 242.031 146.68 241.918 146.68Z" fill="#1E4199"/>
<path d="M241.918 147.687H240.885C240.771 147.687 240.678 147.594 240.678 147.48C240.678 147.367 240.771 147.273 240.885 147.273H241.918C242.031 147.273 242.124 147.367 242.124 147.48C242.124 147.594 242.031 147.687 241.918 147.687Z" fill="#1E4199"/>
<path d="M260.806 99.2176L258.445 97.5725C258.289 97.4633 258.25 97.2456 258.359 97.0887L261.621 92.4072C261.73 92.2504 261.948 92.2116 262.105 92.3208L264.465 93.9659C264.622 94.0751 264.661 94.2928 264.552 94.4496L261.29 99.1311C261.18 99.2879 260.963 99.3267 260.806 99.2176Z" fill="#1F326B"/>
<path d="M262.541 94.0728C261.901 93.6536 261.043 93.8326 260.623 94.4724C260.316 94.942 260.276 96.3629 260.277 97.0861C260.278 97.2954 260.491 97.4351 260.683 97.3516C261.346 97.0635 262.633 96.4601 262.941 95.9905C263.36 95.3507 263.181 94.492 262.541 94.0728ZM261.476 95.974C260.966 95.7629 260.831 95.1173 261.214 94.7202C261.427 94.4997 261.768 94.4285 262.051 94.5458C262.561 94.7569 262.696 95.4026 262.312 95.7996C262.1 96.0201 261.759 96.0911 261.476 95.974Z" fill="#1E4199"/>
<path d="M258.398 96.1702C258.398 96.1702 259.083 94.2571 261.033 94.9687C261.658 95.2136 261.222 95.9258 260.464 95.7302C259.991 95.6079 259.481 95.7525 259.123 96.0858C258.939 96.2572 258.832 96.4121 258.832 96.4121" fill="#FD997F"/>
</svg>
