<svg width="320" height="158" viewBox="0 0 320 158" fill="none" xmlns="http://www.w3.org/2000/svg">
<path opacity="0.6" d="M290.501 157.033C293.095 152.468 303.681 135.728 306.001 124.5C313.038 90.0421 301.428 68.1309 273.404 51.6566C259.585 43.5184 246.831 42.3968 235.775 43.4138C223.207 44.5696 212.833 48.4944 205.584 48.0222C195.294 47.3503 189.422 33.7789 174.356 21.249C165.532 13.9143 153.553 6.95718 135.686 3.2095C113.871 -1.36919 84.872 -1.76845 64.3095 6.78994C56.2177 10.1557 49.5081 14.8907 45.1462 21.2491C33.9257 37.5949 41.836 59.0994 51.9525 76.1991C66.2906 100.433 47.5279 104.656 30.5736 114.267C17.7024 121.566 16.4984 132.396 21 157.033H299.833H290.501Z" fill="#D5E6FE"/>
<path d="M319.638 157.457H0.362535C0.163141 157.457 0 157.294 0 157.095V156.971C0 156.772 0.163141 156.608 0.362535 156.608H319.637C319.837 156.608 320 156.772 320 156.971V157.095C320 157.294 319.837 157.457 319.638 157.457Z" fill="#8692C2"/>
<path d="M308 98.3219V110.553C307.981 110.767 307.964 110.98 307.944 111.196C307.922 111.456 307.897 111.718 307.871 111.98C307.763 113.088 307.635 114.221 307.486 115.374C307.456 115.607 307.424 115.839 307.392 116.072C307.242 117.187 307.072 118.323 306.88 119.467C306.842 119.7 306.801 119.938 306.76 120.173C306.566 121.298 306.355 122.43 306.122 123.566C306.074 123.805 306.023 124.043 305.973 124.281C305.786 125.177 305.583 126.074 305.373 126.969C305.26 127.441 305.144 127.911 305.028 128.38C304.742 129.519 304.435 130.652 304.111 131.774C304.043 132.008 303.974 132.24 303.904 132.475C303.562 133.619 303.202 134.751 302.819 135.865C302.739 136.101 302.657 136.337 302.573 136.573C302.236 137.524 301.884 138.461 301.518 139.378C301.317 139.881 301.111 140.378 300.902 140.87C300.402 142.036 299.874 143.17 299.321 144.26C299.201 144.498 299.079 144.734 298.957 144.967C298.328 146.156 297.668 147.289 296.974 148.355C296.827 148.581 296.679 148.804 296.526 149.025C295.685 150.259 294.794 151.395 293.853 152.409C293.551 152.736 293.244 153.052 292.931 153.352C291.423 154.808 289.797 155.959 288.05 156.729C287.922 156.785 287.794 156.84 287.665 156.892C287.632 156.906 287.6 156.919 287.568 156.932L187.276 157L168.667 156.887L131.846 156.667L20.6285 156C20.6285 156 0 143.791 0 122.6C0 122.308 0.00370643 122.017 0.011229 121.722C0.31573 110.396 3.35028 88.8091 29.4442 77.6031V87.8013H35.4339V75.3567C37.3302 74.7393 39.3272 74.1718 41.4323 73.658C44.1079 73.0053 46.9536 72.4404 49.9832 71.9751C50.2802 71.9279 50.5797 71.8834 50.8804 71.8401C52.3281 71.6291 53.715 71.3801 55.0446 71.0931V86.2416H61.6644V82.703L69.4722 82.7344V77.0003H71.0442V75.8653H71.2516V77.0003H77.2798V77.0016H78.4865V75.8653H78.6941V77.0016H80.148V88.4056H89.4433V92.6024H94.6091V90.1646H99.4009V80.4894H101.789V75.9755H102.151V80.4894H107.879V72.0305H108.44V80.4894H112.229V80.3727H112.223V79.2993H112.229V78.2822H112.223V76.5928H112.229V75.5115H112.223V73.8221H112.229V72.7421H112.223V71.0513H112.229V69.8848H112.223V68.1941H112.229V66.709H112.223V65.0182H112.229V63.8976H113.357V62.6328H113.539V63.8976H121.902V62.6328H122.082V63.8976H123.608V72.7419L124.683 72.7484V72.7419H124.675V71.0511H124.683V69.8846H124.675V68.1939H124.683V67.0312H124.675V65.3407H124.683V65.3355H134.825V65.3407H136.568C136.659 65.3865 136.749 65.4298 136.839 65.4757V75.1273H144.253V87.8013H150.242V64.3629H151.545V62.7233H151.779V64.3629H156.509V62.7233H156.743V64.3629H163.44V62.7233H163.675V64.3629H167.889V62.7233H168.123V64.3629H169.855V86.2416H176.474V82.703L184.281 82.7344V77.0003H185.853V75.8653H186.061V77.0003H192.089V77.0016H193.293V75.8653H193.502V77.0016H194.956V88.4056H204.252V92.6024H209.418V90.1646H214.21V80.4894H216.599V75.9755H216.96V80.4894H222.688V72.0305H223.249V80.4894H227.038V80.3727H227.032V79.2993H227.038V78.2822H227.032V76.5928H227.038V75.5115H227.032V73.8221H227.038V72.7421H227.032V71.0513H227.038V69.8848H227.032V68.1941H227.038V66.709H227.032V65.0182H227.038V63.8976H228.168V62.6328H228.348V63.8976H236.71V62.6328H236.891V63.8976H238.417V72.7419L239.477 72.7484H239.492V72.7419H239.484V71.0511H239.492V69.8846H239.484V68.1939H239.492V67.0312H239.484V65.3407H239.492V65.3355H249.634V65.3407H251.376C251.467 65.3865 251.556 65.4298 251.647 65.4757V75.1273H264.091V87.8026H270.081V64.3629H271.383V62.7233H271.618V64.3629H276.348V62.7233H276.581V64.3629H283.279V62.7233H283.513V64.3629H289.693V86.2429H296.313V82.7029L304.121 82.7342V81.2899C304.225 81.6255 304.328 81.9637 304.429 82.3018C304.5 82.5377 304.57 82.7788 304.641 83.0174C304.701 83.2244 304.759 83.4314 304.819 83.6373C305.054 84.4683 305.28 85.3032 305.496 86.1407C305.52 86.231 305.544 86.3228 305.567 86.4158C305.627 86.6518 305.686 86.8877 305.746 87.1236C306.025 88.2521 306.29 89.3845 306.538 90.5209C306.589 90.7542 306.638 90.9888 306.689 91.2221C306.929 92.3532 307.155 93.4869 307.366 94.6206C307.411 94.8565 307.455 95.0924 307.498 95.3284C307.626 96.0257 307.748 96.7216 307.866 97.4163C307.914 97.7046 307.959 98.0075 308 98.3219Z" fill="#C8DFFF"/>
<path d="M169.858 64.3628H154.895V68.0715H169.858V64.3628Z" fill="#E2EEFD"/>
<path d="M169.858 70.0708H154.895V73.7795H169.858V70.0708Z" fill="#E2EEFD"/>
<path d="M169.858 75.8989H154.895V79.6077H169.858V75.8989Z" fill="#E2EEFD"/>
<path d="M169.858 81.8188H154.895V85.5276H169.858V81.8188Z" fill="#E2EEFD"/>
<path d="M169.858 87.5312H154.895V91.24H169.858V87.5312Z" fill="#E2EEFD"/>
<path d="M234.042 63.8984H227.061V66.1507H234.042V63.8984Z" fill="#E2EEFD"/>
<path d="M234.042 67.3643H227.061V69.6166H234.042V67.3643Z" fill="#E2EEFD"/>
<path d="M234.042 70.9043H227.061V73.1566H234.042V70.9043Z" fill="#E2EEFD"/>
<path d="M234.042 74.4995H227.061V76.7518H234.042V74.4995Z" fill="#E2EEFD"/>
<path d="M234.042 77.9688H227.061V80.2211H234.042V77.9688Z" fill="#E2EEFD"/>
<path d="M234.042 81.7871H227.061V84.0394H234.042V81.7871Z" fill="#E2EEFD"/>
<path d="M234.042 85.2539H227.061V87.5062H234.042V85.2539Z" fill="#E2EEFD"/>
<path d="M234.042 88.7925H227.061V91.0449H234.042V88.7925Z" fill="#E2EEFD"/>
<path d="M234.042 92.3882H227.061V94.6405H234.042V92.3882Z" fill="#E2EEFD"/>
<path d="M234.042 95.8574H227.061V98.1097H234.042V95.8574Z" fill="#E2EEFD"/>
<path d="M246.96 65.375H239.479V67.6273H246.96V65.375Z" fill="#E2EEFD"/>
<path d="M246.96 68.8423H239.479V71.0946H246.96V68.8423Z" fill="#E2EEFD"/>
<path d="M246.96 72.3809H239.479V74.6332H246.96V72.3809Z" fill="#E2EEFD"/>
<path d="M246.96 75.9761H239.479V78.2284H246.96V75.9761Z" fill="#E2EEFD"/>
<path d="M246.96 79.4453H239.479V81.6976H246.96V79.4453Z" fill="#E2EEFD"/>
<path d="M246.96 83.063H239.479V85.3153H246.96V83.063Z" fill="#E2EEFD"/>
<path d="M246.96 86.5293H239.479V88.7816H246.96V86.5293Z" fill="#E2EEFD"/>
<path d="M246.96 90.0684H239.479V92.3207H246.96V90.0684Z" fill="#E2EEFD"/>
<path d="M246.96 93.6641H239.479V95.9165H246.96V93.6641Z" fill="#E2EEFD"/>
<path d="M246.96 97.1328H239.479V99.3851H246.96V97.1328Z" fill="#E2EEFD"/>
<path d="M246.96 101.112H239.479V103.365H246.96V101.112Z" fill="#E2EEFD"/>
<path d="M246.96 104.579H239.479V106.831H246.96V104.579Z" fill="#E2EEFD"/>
<path d="M246.96 108.118H239.479V110.37H246.96V108.118Z" fill="#E2EEFD"/>
<path d="M246.96 111.714H239.479V113.966H246.96V111.714Z" fill="#E2EEFD"/>
<path d="M246.96 115.183H239.479V117.435H246.96V115.183Z" fill="#E2EEFD"/>
<path d="M289.693 64.3628H276.07V68.0715H289.693V64.3628Z" fill="#E2EEFD"/>
<path d="M289.693 70.0708H276.07V73.7795H289.693V70.0708Z" fill="#E2EEFD"/>
<path d="M289.693 75.8989H276.07V79.6077H289.693V75.8989Z" fill="#E2EEFD"/>
<path d="M289.693 81.8188H276.07V85.5276H289.693V81.8188Z" fill="#E2EEFD"/>
<path d="M289.693 87.5312H276.07V91.24H289.693V87.5312Z" fill="#E2EEFD"/>
<path d="M119.642 63.8984H112.16V66.1507H119.642V63.8984Z" fill="#E2EEFD"/>
<path d="M119.642 67.3643H112.16V69.6166H119.642V67.3643Z" fill="#E2EEFD"/>
<path d="M119.642 70.9043H112.16V73.1566H119.642V70.9043Z" fill="#E2EEFD"/>
<path d="M119.642 74.4995H112.16V76.7518H119.642V74.4995Z" fill="#E2EEFD"/>
<path d="M119.642 77.9688H112.16V80.2211H119.642V77.9688Z" fill="#E2EEFD"/>
<path d="M119.642 81.7871H112.16V84.0394H119.642V81.7871Z" fill="#E2EEFD"/>
<path d="M119.642 85.2539H112.16V87.5062H119.642V85.2539Z" fill="#E2EEFD"/>
<path d="M119.642 88.7925H112.16V91.0449H119.642V88.7925Z" fill="#E2EEFD"/>
<path d="M119.642 92.3882H112.16V94.6405H119.642V92.3882Z" fill="#E2EEFD"/>
<path d="M119.642 95.8574H112.16V98.1097H119.642V95.8574Z" fill="#E2EEFD"/>
<path d="M133.333 65.375H124.83V67.6273H133.333V65.375Z" fill="#E2EEFD"/>
<path d="M133.333 68.8423H124.83V71.0946H133.333V68.8423Z" fill="#E2EEFD"/>
<path d="M133.333 72.3809H124.83V74.6332H133.333V72.3809Z" fill="#E2EEFD"/>
<path d="M133.333 75.9761H124.83V78.2284H133.333V75.9761Z" fill="#E2EEFD"/>
<path d="M133.333 79.4453H124.83V81.6976H133.333V79.4453Z" fill="#E2EEFD"/>
<path d="M133.333 83.063H124.83V85.3153H133.333V83.063Z" fill="#E2EEFD"/>
<path d="M133.333 86.5293H124.83V88.7816H133.333V86.5293Z" fill="#E2EEFD"/>
<path d="M133.333 90.0684H124.83V92.3207H133.333V90.0684Z" fill="#E2EEFD"/>
<path d="M133.333 93.6641H124.83V95.9165H133.333V93.6641Z" fill="#E2EEFD"/>
<path d="M133.333 97.1328H124.83V99.3851H133.333V97.1328Z" fill="#E2EEFD"/>
<path d="M133.333 101.112H124.83V103.365H133.333V101.112Z" fill="#E2EEFD"/>
<path d="M133.333 104.579H124.83V106.831H133.333V104.579Z" fill="#E2EEFD"/>
<path d="M133.333 108.118H124.83V110.37H133.333V108.118Z" fill="#E2EEFD"/>
<path d="M133.333 111.714H124.83V113.966H133.333V111.714Z" fill="#E2EEFD"/>
<path d="M133.333 115.183H124.83V117.435H133.333V115.183Z" fill="#E2EEFD"/>
<path d="M146.608 156.3C146.608 156.3 140.527 121.207 138.068 117.583C134.669 112.575 130.443 127.943 130.237 126.592C128.291 113.836 128.698 97.7467 119.595 95.3086C114.42 93.9226 119.937 107.325 119.294 110.778C118.651 114.231 110.043 101.903 104.741 95.3802C99.4394 88.8576 96.1929 92.4563 99.2662 100.369C102.238 108.021 113.004 116.986 110.594 117.754C108.184 118.521 94.6707 107.862 92.6341 111.79C90.137 116.607 110.954 125.109 108.865 126.068C106.776 127.027 96.8599 122.518 96.8599 126.355C96.8599 130.191 110.563 131.15 110.206 132.809C109.629 135.495 101.022 128.618 100.349 132.345C99.6618 136.157 112.034 136.446 111.602 139.428C111.354 141.141 108.238 139.348 107.674 141.703C106.389 147.075 125.885 154.602 125.885 154.602L146.608 156.3Z" fill="#5082EB"/>
<path d="M156.31 157.207C153.836 153.988 139.22 135.984 130.373 133.11C120.608 129.938 129.812 142.537 129.812 142.537C129.812 142.537 112.488 123.53 106.131 125.243C100.303 126.814 106.131 138.596 106.131 138.596C106.131 138.596 99.5671 132.071 91.6076 132.071C83.8611 132.071 97.233 155.969 97.9429 157.207H156.31Z" fill="#B7D1FF"/>
<path d="M95.7565 144.42C95.7095 144.718 95.4006 145.582 95.5912 146.435C95.7041 147.277 96.3166 148.108 96.3211 148.066C96.3737 148.064 95.3664 147.793 94.6853 146.927C93.9564 146.132 93.5537 144.742 93.715 144.142C93.8866 142.878 94.9343 142.263 95.3671 142.633C95.8112 142.993 95.8231 143.763 95.7565 144.42Z" fill="#95BAFF"/>
<path d="M102.124 146.707C102.077 147.005 101.768 147.869 101.958 148.722C102.071 149.564 102.684 150.395 102.688 150.353C102.741 150.351 101.734 150.08 101.052 149.214C100.324 148.419 99.9208 147.029 100.082 146.43C100.254 145.165 101.302 144.55 101.734 144.92C102.179 145.28 102.19 146.05 102.124 146.707Z" fill="#95BAFF"/>
<path d="M108.592 149.601C108.545 149.898 108.237 150.762 108.427 151.616C108.54 152.457 109.152 153.288 109.157 153.247C109.21 153.244 108.202 152.973 107.521 152.107C106.792 151.313 106.39 149.923 106.551 149.323C106.723 148.059 107.77 147.444 108.203 147.813C108.647 148.173 108.659 148.943 108.592 149.601Z" fill="#95BAFF"/>
<path d="M93.8559 150.389C93.9868 150.144 94.2397 149.334 94.8548 148.812C95.4061 148.255 96.3195 147.986 96.2998 148.019C96.3371 148.05 95.4442 147.686 94.4606 147.942C93.4814 148.12 92.4116 148.918 92.1969 149.451C91.62 150.479 92.0502 151.518 92.5747 151.488C93.1022 151.472 93.5392 150.911 93.8559 150.389Z" fill="#95BAFF"/>
<path d="M100.479 152.741C100.61 152.496 100.863 151.686 101.478 151.164C102.029 150.607 102.943 150.338 102.923 150.371C102.96 150.402 102.067 150.038 101.084 150.294C100.104 150.472 99.0346 151.271 98.8199 151.803C98.2431 152.831 98.6732 153.87 99.1977 153.84C99.7254 153.824 100.162 153.263 100.479 152.741Z" fill="#95BAFF"/>
<path d="M89.577 144.844C89.6032 145.02 89.5817 145.564 89.841 146.013C90.0543 146.469 90.5483 146.83 90.5434 146.806C90.5728 146.795 89.9548 146.821 89.4157 146.453C88.8622 146.134 88.3877 145.419 88.3725 145.051C88.2451 144.305 88.7288 143.77 89.0392 143.902C89.3545 144.026 89.4979 144.46 89.577 144.844Z" fill="#95BAFF"/>
<path d="M88.5395 147.83C88.6539 147.694 88.9193 147.219 89.3742 146.972C89.7938 146.696 90.4029 146.648 90.3862 146.666C90.4054 146.69 89.8927 146.343 89.2413 146.374C88.603 146.356 87.8261 146.715 87.6212 147.021C87.1237 147.59 87.2569 148.3 87.5901 148.351C87.9236 148.41 88.2719 148.116 88.5395 147.83Z" fill="#95BAFF"/>
<path d="M103.251 119.713C110.329 130.805 115.573 144.114 118.527 157.204H119.29C116.349 144.388 110.861 130.97 103.795 119.89C102.152 117.315 100.379 114.26 97.304 113.256C97.2447 113.236 97.2221 113.327 97.2788 113.348C100.087 114.41 101.714 117.305 103.251 119.713Z" fill="#95BAFF"/>
<path d="M117.091 157.204C109.182 146.412 99.2157 135.909 87.7818 127.234C87.6676 127.148 87.5136 127.347 87.6284 127.436C98.4727 135.8 108.255 146.043 116.328 157.204H117.091Z" fill="#95BAFF"/>
<path d="M102.603 112.834C102.42 113.103 101.723 113.804 101.518 114.725C101.243 115.599 101.46 116.693 101.483 116.655C101.536 116.677 100.676 115.948 100.408 114.788C100.06 113.675 100.303 112.132 100.736 111.621C101.483 110.465 102.788 110.348 103.041 110.908C103.31 111.465 102.969 112.222 102.603 112.834Z" fill="#95BAFF"/>
<path d="M100.91 122.735C101.174 122.547 101.859 121.833 102.773 121.61C103.638 121.316 104.733 121.513 104.695 121.537C104.718 121.589 103.974 120.741 102.813 120.495C101.698 120.168 100.165 120.442 99.664 120.886C98.5271 121.658 98.4361 122.97 98.9995 123.213C99.5596 123.472 100.307 123.114 100.91 122.735Z" fill="#95BAFF"/>
<path d="M103.464 127.074C103.729 126.886 104.414 126.173 105.328 125.949C106.193 125.656 107.288 125.852 107.25 125.876C107.273 125.928 106.529 125.08 105.368 124.834C104.253 124.507 102.72 124.782 102.219 125.226C101.082 125.998 100.991 127.309 101.554 127.552C102.114 127.811 102.862 127.454 103.464 127.074Z" fill="#95BAFF"/>
<path d="M94.3492 137.14C94.6135 136.951 95.2985 136.238 96.2125 136.014C97.078 135.721 98.1724 135.917 98.1347 135.942C98.1573 135.994 97.4137 135.146 96.2527 134.899C95.1373 134.573 93.6044 134.847 93.1034 135.291C91.9666 136.063 91.8755 137.374 92.439 137.618C92.9991 137.876 93.7471 137.519 94.3492 137.14Z" fill="#95BAFF"/>
<path d="M89.693 133.023C89.9573 132.835 90.6423 132.121 91.5563 131.898C92.4218 131.604 93.5163 131.801 93.4785 131.825C93.5011 131.877 92.7576 131.029 91.5965 130.783C90.481 130.456 88.9482 130.73 88.4472 131.174C87.3103 131.946 87.2193 133.258 87.7827 133.501C88.3428 133.76 89.0907 133.403 89.693 133.023Z" fill="#95BAFF"/>
<path d="M106.179 117.744C105.956 117.981 105.157 118.563 104.81 119.441C104.401 120.26 104.444 121.375 104.473 121.341C104.521 121.371 103.787 120.514 103.704 119.326C103.536 118.173 104.018 116.687 104.526 116.251C105.445 115.228 106.752 115.319 106.914 115.912C107.092 116.504 106.636 117.198 106.179 117.744Z" fill="#95BAFF"/>
<path d="M109.935 122.665C109.619 122.833 108.514 123.139 107.958 123.968C107.329 124.706 107.25 125.969 107.291 125.943C107.35 125.998 106.504 124.725 106.54 123.364C106.462 122.004 107.267 120.554 107.977 120.286C109.291 119.54 110.972 120.205 111.109 120.937C111.268 121.675 110.594 122.253 109.935 122.665Z" fill="#95BAFF"/>
<path d="M113.89 130.119C113.55 130.232 112.41 130.346 111.723 131.07C110.98 131.692 110.689 132.923 110.735 132.905C110.784 132.968 110.163 131.571 110.427 130.235C110.578 128.881 111.614 127.588 112.359 127.443C113.779 126.93 115.324 127.869 115.338 128.614C115.37 129.368 114.609 129.824 113.89 130.119Z" fill="#95BAFF"/>
<path d="M102.189 135.311C101.941 135.466 101.06 135.777 100.655 136.484C100.185 137.12 100.192 138.151 100.224 138.128C100.275 138.169 99.5144 137.183 99.4669 136.073C99.3261 134.971 99.8987 133.746 100.461 133.487C101.487 132.806 102.892 133.25 103.046 133.838C103.217 134.429 102.701 134.938 102.189 135.311Z" fill="#95BAFF"/>
<path d="M96.0959 114.579C96.244 114.456 96.6181 114.004 97.149 113.832C97.6482 113.62 98.3043 113.688 98.2829 113.704C98.2986 113.734 97.8217 113.265 97.1241 113.17C96.45 113.026 95.5553 113.256 95.2783 113.54C94.6394 114.047 94.6428 114.827 94.9866 114.946C95.3292 115.074 95.7561 114.83 96.0959 114.579Z" fill="#95BAFF"/>
<path d="M97.5143 111.411C97.5077 111.604 97.3792 112.177 97.5672 112.705C97.7049 113.231 98.1592 113.71 98.1588 113.684C98.192 113.678 97.5308 113.585 97.0299 113.089C96.5044 112.641 96.1395 111.79 96.195 111.396C96.2049 110.579 96.8225 110.106 97.1264 110.306C97.437 110.5 97.505 110.988 97.5143 111.411Z" fill="#95BAFF"/>
<path d="M86.3399 128.83C86.4881 128.707 86.8622 128.255 87.3931 128.082C87.8923 127.871 88.5483 127.939 88.527 127.955C88.5427 127.985 88.0659 127.516 87.3683 127.421C86.6942 127.277 85.7994 127.506 85.5224 127.791C84.8835 128.297 84.8869 129.077 85.2308 129.196C85.5734 129.325 86.0003 129.081 86.3399 128.83Z" fill="#95BAFF"/>
<path d="M88.0514 125.635C88.0291 125.827 87.8542 126.387 87.9986 126.928C88.0929 127.464 88.5065 127.979 88.5083 127.953C88.5419 127.95 87.8904 127.803 87.4318 127.267C86.9446 126.778 86.6504 125.899 86.738 125.511C86.8145 124.698 87.4687 124.277 87.7553 124.502C88.0489 124.72 88.0768 125.213 88.0514 125.635Z" fill="#95BAFF"/>
<path d="M89.2477 146.61C91.2878 146.794 93.3036 147.169 95.2845 147.69C98.8979 148.639 102.374 150.042 105.794 151.533C107.475 152.266 109.168 152.989 110.817 153.793C111.588 154.168 112.364 154.545 113.075 155.026C114.032 155.675 115.527 156.976 115.708 157.181L114.923 157.204C114.386 156.767 112.416 155.104 109.682 153.786C103.202 150.665 96.4703 147.464 89.2428 146.669C89.2052 146.664 89.2097 146.606 89.2477 146.61Z" fill="#95BAFF"/>
<path d="M190.126 27.4509C190.12 27.449 190.115 27.4473 190.109 27.4454C189.958 27.3907 189.804 27.342 189.648 27.297C189.595 27.2817 189.542 27.2657 189.488 27.2515C189.432 27.2365 189.375 27.2233 189.318 27.2096C189.26 27.1957 189.202 27.1819 189.144 27.1694C189.089 27.1576 189.034 27.1468 188.978 27.1362C188.916 27.1243 188.854 27.1131 188.791 27.1028C188.738 27.094 188.685 27.0856 188.631 27.0779C188.564 27.0682 188.496 27.0598 188.427 27.0519C188.378 27.0462 188.328 27.0402 188.279 27.0355C188.201 27.028 188.122 27.0226 188.044 27.0175C188.002 27.0149 187.961 27.0113 187.92 27.0093C187.799 27.0035 187.678 27 187.556 27H131.552C131.421 27 131.292 27.0034 131.163 27.0099C130.906 27.023 130.652 27.049 130.402 27.0874C130.277 27.1065 130.153 27.1287 130.03 27.154C126.834 27.8101 124.374 30.4913 124.039 33.8028C124.013 34.0575 124 34.3159 124 34.5775V128.089V149.424C124 152.703 126.076 155.495 128.982 156.55C128.995 156.555 129.008 156.559 129.021 156.563C129.165 156.615 129.311 156.661 129.459 156.704C129.512 156.719 129.565 156.735 129.619 156.75C129.676 156.765 129.733 156.778 129.79 156.791C129.847 156.805 129.905 156.819 129.963 156.832C130.019 156.843 130.074 156.854 130.129 156.865C130.191 156.877 130.254 156.888 130.316 156.898C130.369 156.907 130.423 156.915 130.476 156.923C130.544 156.933 130.612 156.941 130.68 156.949C130.73 156.955 130.779 156.961 130.829 156.966C130.907 156.973 130.985 156.978 131.064 156.984C131.105 156.986 131.146 156.99 131.188 156.992C131.308 156.998 131.43 157.001 131.552 157.001H187.556C187.816 157.001 188.074 156.988 188.328 156.962C191.882 156.6 194.707 153.765 195.068 150.198C195.094 149.944 195.107 149.685 195.107 149.424V55.9117V34.5775C195.107 31.2982 193.031 28.5059 190.126 27.4509Z" fill="#1C004F"/>
<path d="M191.663 37.3276H127.66V146.673H191.663V37.3276Z" fill="#EFF4FF"/>
<path d="M173.184 33.8912H146.028C145.99 33.8912 145.959 33.8601 145.959 33.8219V32.5903C145.959 32.5521 145.99 32.521 146.028 32.521H173.184C173.222 32.521 173.253 32.5521 173.253 32.5903V33.8219C173.253 33.8601 173.222 33.8912 173.184 33.8912Z" fill="white"/>
<path opacity="0.3" d="M162.65 151.942C162.65 153.678 161.248 155.085 159.517 155.085C157.787 155.085 156.385 153.678 156.385 151.942C156.385 150.206 157.787 148.798 159.517 148.798C161.248 148.798 162.65 150.206 162.65 151.942Z" fill="#DAEEF7"/>
<path opacity="0.2" d="M191.446 142.086H127.66V146.674H191.446V142.086Z" fill="#246AFF"/>
<path opacity="0.2" d="M191.663 37.3276H127.66V43.1305H191.663V37.3276Z" fill="#246AFF"/>
<path opacity="0.35" d="M211.345 48.4058H142.808C140.581 48.4058 138.775 50.2174 138.775 52.4518V53.0836V88.2422C138.775 90.4767 140.581 92.2878 142.808 92.2878H211.345C213.572 92.2878 215.377 90.4767 215.377 88.2422V81.8953V52.4518C215.377 50.2174 213.572 48.4058 211.345 48.4058Z" fill="#9FCCFB"/>
<path d="M209.569 90.8825H141.032C138.805 90.8825 137 89.0709 137 86.8365V51.0461C137 48.8116 138.805 47 141.032 47H209.569C211.796 47 213.602 48.8116 213.602 51.0461V86.8365C213.602 89.0715 211.796 90.8825 209.569 90.8825Z" fill="#9FCCFB"/>
<path d="M213.602 51.0466C213.602 48.8121 211.796 47.0005 209.569 47.0005H141.032C138.805 47.0005 137 48.8121 137 51.0466V51.6783C145.388 52.0604 161.647 54.8196 172.987 69.4289C186.04 86.2433 203.581 84.5993 213.601 80.4896V51.0466H213.602Z" fill="#8EC3F4"/>
<path d="M154.401 71.4672H144.834C143.986 71.4672 143.299 70.7775 143.299 69.927V64.9C143.299 64.0495 143.986 63.3599 144.834 63.3599H154.401C155.249 63.3599 155.936 64.0495 155.936 64.9V69.927C155.936 70.7775 155.249 71.4672 154.401 71.4672Z" fill="white"/>
<path d="M208.336 54.8367H194.482C194.132 54.8367 193.848 54.5517 193.848 54.1998V51.5241C193.848 51.1723 194.132 50.8872 194.482 50.8872H208.336C208.687 50.8872 208.971 51.1723 208.971 51.5241V54.1998C208.971 54.5511 208.687 54.8367 208.336 54.8367Z" fill="#246AFE"/>
<path d="M156.039 78.3174H144.184C143.443 78.3174 142.842 77.7144 142.842 76.9709C142.842 76.2275 143.443 75.6245 144.184 75.6245H156.039C156.78 75.6245 157.381 76.227 157.381 76.9709C157.381 77.7144 156.78 78.3174 156.039 78.3174Z" fill="white"/>
<path d="M172.824 78.3174H160.969C160.228 78.3174 159.627 77.7144 159.627 76.9709C159.627 76.2275 160.228 75.6245 160.969 75.6245H172.824C173.565 75.6245 174.166 76.227 174.166 76.9709C174.165 77.7144 173.565 78.3174 172.824 78.3174Z" fill="white"/>
<path d="M189.732 78.3174H177.877C177.136 78.3174 176.535 77.7144 176.535 76.9709C176.535 76.2275 177.136 75.6245 177.877 75.6245H189.732C190.473 75.6245 191.074 76.227 191.074 76.9709C191.073 77.7144 190.473 78.3174 189.732 78.3174Z" fill="white"/>
<path d="M206.517 78.3174H194.662C193.921 78.3174 193.32 77.7144 193.32 76.9709C193.32 76.2275 193.921 75.6245 194.662 75.6245H206.517C207.258 75.6245 207.859 76.227 207.859 76.9709C207.859 77.7144 207.259 78.3174 206.517 78.3174Z" fill="white"/>
<path d="M159.783 87.3974H144.362C143.912 87.3974 143.547 87.0309 143.547 86.5794C143.547 86.1272 143.912 85.7607 144.362 85.7607H159.783C160.234 85.7607 160.599 86.1272 160.599 86.5794C160.599 87.0309 160.234 87.3974 159.783 87.3974Z" fill="#246AFE"/>
<path d="M206.475 87.3974H198.866C198.415 87.3974 198.051 87.0309 198.051 86.5794C198.051 86.1272 198.416 85.7607 198.866 85.7607H206.475C206.926 85.7607 207.29 86.1272 207.29 86.5794C207.29 87.0309 206.926 87.3974 206.475 87.3974Z" fill="#246AFE"/>
<mask id="mask0_7617_65494" style="mask-type:luminance" maskUnits="userSpaceOnUse" x="143" y="63" width="13" height="9">
<path d="M154.401 71.4672H144.834C143.986 71.4672 143.299 70.7775 143.299 69.927V64.9C143.299 64.0495 143.986 63.3599 144.834 63.3599H154.401C155.249 63.3599 155.936 64.0495 155.936 64.9V69.927C155.936 70.7775 155.249 71.4672 154.401 71.4672Z" fill="white"/>
</mask>
<g mask="url(#mask0_7617_65494)">
<path d="M145.605 63.2202C146.725 64.6638 148.499 67.9398 145.455 71.6799" stroke="#8EC3F4" stroke-width="0.5" stroke-miterlimit="10" stroke-linecap="round"/>
</g>
<mask id="mask1_7617_65494" style="mask-type:luminance" maskUnits="userSpaceOnUse" x="143" y="63" width="13" height="9">
<path d="M154.401 71.4672H144.834C143.986 71.4672 143.299 70.7775 143.299 69.927V64.9C143.299 64.0495 143.986 63.3599 144.834 63.3599H154.401C155.249 63.3599 155.936 64.0495 155.936 64.9V69.927C155.936 70.7775 155.249 71.4672 154.401 71.4672Z" fill="white"/>
</mask>
<g mask="url(#mask1_7617_65494)">
<path d="M142.484 67.3398H147.121" stroke="#8EC3F4" stroke-width="0.5" stroke-miterlimit="10"/>
</g>
<mask id="mask2_7617_65494" style="mask-type:luminance" maskUnits="userSpaceOnUse" x="143" y="63" width="13" height="9">
<path d="M154.401 71.4672H144.834C143.986 71.4672 143.299 70.7775 143.299 69.927V64.9C143.299 64.0495 143.986 63.3599 144.834 63.3599H154.401C155.249 63.3599 155.936 64.0495 155.936 64.9V69.927C155.936 70.7775 155.249 71.4672 154.401 71.4672Z" fill="white"/>
</mask>
<g mask="url(#mask2_7617_65494)">
<path d="M153.282 63.2202C152.162 64.6638 150.388 67.9398 153.432 71.6799" stroke="#8EC3F4" stroke-width="0.5" stroke-miterlimit="10" stroke-linecap="round"/>
</g>
<mask id="mask3_7617_65494" style="mask-type:luminance" maskUnits="userSpaceOnUse" x="143" y="63" width="13" height="9">
<path d="M154.401 71.4672H144.834C143.986 71.4672 143.299 70.7775 143.299 69.927V64.9C143.299 64.0495 143.986 63.3599 144.834 63.3599H154.401C155.249 63.3599 155.936 64.0495 155.936 64.9V69.927C155.936 70.7775 155.249 71.4672 154.401 71.4672Z" fill="white"/>
</mask>
<g mask="url(#mask3_7617_65494)">
<path d="M156.402 67.3398H151.766" stroke="#8EC3F4" stroke-width="0.5" stroke-miterlimit="10"/>
</g>
<g opacity="0.35">
<path d="M175.902 124.288C175.951 132.816 169.102 139.769 160.604 139.819C152.105 139.868 145.176 132.995 145.127 124.466C145.078 115.938 151.927 108.986 160.426 108.936C168.924 108.888 175.854 115.761 175.902 124.288Z" fill="#9FCCFB"/>
</g>
<path d="M174.736 124.15C175.21 115.549 168.647 108.191 160.075 107.714C151.504 107.238 144.17 113.824 143.695 122.425C143.221 131.026 149.785 138.385 158.356 138.862C166.928 139.338 174.261 132.752 174.736 124.15Z" fill="#B4D8F9"/>
<path d="M170.781 122.98C170.818 129.529 165.559 134.868 159.033 134.905C152.506 134.943 147.186 129.666 147.149 123.117C147.111 116.568 152.37 111.229 158.897 111.192C165.423 111.153 170.743 116.431 170.781 122.98Z" fill="#71B7E2"/>
<path d="M171.118 123.472C171.155 129.932 165.966 135.2 159.527 135.237C153.089 135.274 147.84 130.067 147.803 123.606C147.766 117.146 152.955 111.879 159.393 111.842C165.832 111.804 171.08 117.011 171.118 123.472Z" fill="#FF725E"/>
<path d="M171.118 123.472C171.155 129.932 165.966 135.2 159.527 135.237C153.089 135.274 147.84 130.067 147.803 123.606C147.766 117.146 152.955 111.879 159.393 111.842C165.832 111.804 171.08 117.011 171.118 123.472Z" fill="#8CC2F2"/>
<path d="M159.448 117.786C160.507 117.786 161.397 118.008 162.138 118.431C162.75 118.782 163.224 119.22 163.573 119.741L161.962 120.906C161.934 120.864 161.907 120.821 161.876 120.78L161.71 120.586C161.547 120.415 161.368 120.269 161.174 120.147L160.975 120.035C160.714 119.903 160.442 119.809 160.158 119.755H160.157C159.894 119.706 159.636 119.68 159.383 119.68C158.845 119.68 158.354 119.788 157.93 120.024L157.752 120.134C157.329 120.421 156.989 120.784 156.741 121.221L156.317 121.968H159.405L159.141 122.64H156.232V123.14L156.241 123.593C156.247 123.71 156.257 123.819 156.27 123.921L156.323 124.358H158.945L158.681 125.031H156.429L157.104 125.85C157.377 126.181 157.706 126.445 158.086 126.638C158.485 126.84 158.933 126.935 159.416 126.935C159.673 126.935 159.935 126.905 160.197 126.848L160.196 126.847C160.475 126.786 160.743 126.686 160.997 126.547H160.998C161.26 126.403 161.494 126.219 161.7 125.996H161.701C161.789 125.901 161.865 125.796 161.937 125.687L163.702 126.758C163.571 126.979 163.407 127.186 163.207 127.379V127.38C162.967 127.613 162.701 127.817 162.409 127.995L162.108 128.164C161.691 128.379 161.241 128.543 160.758 128.656C160.27 128.771 159.802 128.827 159.35 128.827C158.765 128.827 158.219 128.738 157.71 128.562C157.192 128.384 156.725 128.138 156.308 127.824V127.823C155.884 127.506 155.512 127.135 155.188 126.709L155.188 126.708C154.863 126.281 154.606 125.827 154.415 125.347L154.29 125.031H153.088L153.353 124.358H154.059L154.004 123.81C153.994 123.706 153.985 123.603 153.98 123.501V123.498C153.975 123.399 153.973 123.28 153.973 123.14V122.64H153.088L153.353 121.967H154.103L154.213 121.617C154.374 121.106 154.609 120.616 154.919 120.146C155.224 119.683 155.597 119.276 156.039 118.924L156.04 118.923C156.477 118.575 156.98 118.297 157.552 118.092C158.11 117.891 158.74 117.786 159.448 117.786Z" fill="white" stroke="white"/>
<path d="M170.988 118.449C174.485 118.449 177.32 115.604 177.32 112.095C177.32 108.586 174.485 105.742 170.988 105.742C167.491 105.742 164.656 108.586 164.656 112.095C164.656 115.604 167.491 118.449 170.988 118.449Z" fill="#E4F1FF"/>
<path d="M168.85 111.96L169.699 113.872C169.785 114.066 170.041 114.108 170.184 113.952L173.359 110.489" stroke="#A8D29F" stroke-width="1.5236" stroke-miterlimit="10" stroke-linecap="round"/>
<path d="M170.971 117.344C173.87 117.344 176.22 114.986 176.22 112.078C176.22 109.169 173.87 106.811 170.971 106.811C168.073 106.811 165.723 109.169 165.723 112.078C165.723 114.986 168.073 117.344 170.971 117.344Z" stroke="white" stroke-width="0.5" stroke-miterlimit="10"/>
</svg>
