<svg width="80" height="80" viewBox="0 0 80 80" fill="none" xmlns="http://www.w3.org/2000/svg">
<path d="M61.5205 66.5546C52.7796 66.8772 42.9335 59.9309 39.5521 51.0348C38.9281 49.3847 38.5647 47.785 38.4509 46.2612C38.1982 42.9977 39.0757 40.1261 40.8787 38.0048L43.3979 35.0391C41.5949 37.1607 40.7173 40.0319 40.9712 43.3011C41.0895 44.8184 41.4472 46.4194 42.0725 48.0747C45.4539 56.9708 55.2988 63.9119 64.0449 63.588C67.7305 63.4467 70.6419 62.057 72.535 59.8307L70.0159 62.7965C68.1232 65.0228 65.2113 66.4121 61.5205 66.5546Z" fill="white" stroke="#ADC7FF" stroke-width="2.5" stroke-miterlimit="10" stroke-linecap="round" stroke-linejoin="round"/>
<path d="M40.9715 43.3018L38.4512 46.2619" stroke="#ADC7FF" stroke-width="2.5" stroke-miterlimit="10" stroke-linecap="round" stroke-linejoin="round"/>
<path d="M49.7974 58.3496L47.2598 61.3005" stroke="#ADC7FF" stroke-width="2.5" stroke-miterlimit="10" stroke-linecap="round" stroke-linejoin="round"/>
<path d="M43.9479 51.835L41.3604 54.6869" stroke="#ADC7FF" stroke-width="2.5" stroke-miterlimit="10" stroke-linecap="round" stroke-linejoin="round"/>
<path d="M57.9784 63.0938L55.5771 65.7405" stroke="#ADC7FF" stroke-width="2.5" stroke-miterlimit="10" stroke-linecap="round" stroke-linejoin="round"/>
<path d="M65.016 63.5205L62.29 66.506" stroke="#ADC7FF" stroke-width="2.5" stroke-miterlimit="10" stroke-linecap="round" stroke-linejoin="round"/>
<path d="M64.0408 63.585C55.2964 63.9113 45.4547 56.9679 42.0713 48.0713C41.4448 46.4204 41.0855 44.8187 40.966 43.3002C40.4522 36.6186 44.6673 31.5803 51.8216 31.2918C60.6224 30.9445 70.4677 37.8852 73.8576 46.822C74.4808 48.4692 74.8409 50.0654 74.9576 51.5807C75.4738 58.2715 71.2426 63.3183 64.0408 63.585Z" fill="white" stroke="#ADC7FF" stroke-width="2.5" stroke-miterlimit="10" stroke-linecap="round" stroke-linejoin="round"/>
<path d="M63.0533 60.9607C55.7352 61.2319 47.4893 55.4171 44.6607 47.9674C44.136 46.5841 43.8334 45.241 43.7357 43.97C43.3043 38.374 46.835 34.1589 52.8225 33.9207C60.1901 33.629 68.4397 39.4414 71.2743 46.9213C71.7977 48.3001 72.0995 49.6388 72.1973 50.9074C72.6286 56.507 69.083 60.7346 63.0533 60.9607Z" stroke="#ADC7FF" stroke-width="2.5" stroke-miterlimit="10" stroke-linecap="round" stroke-linejoin="round"/>
<path d="M56.627 40.4287C57.2352 40.4423 57.8527 40.5305 58.4795 40.6953C59.1016 40.8587 59.7159 41.1013 60.3232 41.4258H60.3242C60.8055 41.6825 61.2465 41.9892 61.6504 42.3438L60.5547 44.1865C60.37 44.0362 60.1812 43.9021 59.9873 43.7881L59.7227 43.6436C59.4573 43.5079 59.1895 43.3998 58.9189 43.3223H58.918C58.5643 43.2212 58.2181 43.1675 57.8818 43.166C57.5633 43.1643 57.2605 43.1955 56.9785 43.2666C56.4514 43.3992 56.0077 43.6518 55.7031 44.0537C55.4192 44.4285 55.2609 44.8732 55.2148 45.3682L55.1494 46.0723L55.835 45.8994L57.1992 45.5557L58.3252 46.6729L56.0635 47.2422L55.4736 47.3906L55.7334 47.9414C55.7921 48.0657 55.8602 48.1985 55.9375 48.3408V48.3418C56.0151 48.4855 56.1222 48.6731 56.2559 48.9004L56.4463 49.2227L56.8086 49.1309L59.4775 48.459L60.6025 49.5771L58.2891 50.1602L57.3281 50.4023L58.0928 51.0312C58.6312 51.474 59.2138 51.8133 59.8389 52.0469V52.0479C60.5018 52.2945 61.1786 52.3353 61.8555 52.165C62.1331 52.0951 62.3996 51.9901 62.6543 51.8516L62.6562 51.8506C62.9367 51.6964 63.1751 51.4887 63.3691 51.2324C63.5758 50.9603 63.706 50.6402 63.7695 50.2881C63.7897 50.1774 63.7986 50.063 63.8018 49.9463L66.6885 51.1045C66.746 51.8557 66.6198 52.5126 66.3174 53.0908L66.1592 53.3623C65.7111 54.0531 64.9623 54.5594 63.8408 54.8418C63.1859 55.0065 62.5257 55.0581 61.8574 54.9971L61.5703 54.9639C60.8864 54.8691 60.2097 54.6872 59.54 54.416L59.2539 54.2939L58.9668 54.1621C58.3009 53.8432 57.6582 53.4515 57.0391 52.9873C56.3257 52.4529 55.678 51.8691 55.0957 51.2344L54.8945 51.0146L54.6055 51.0869L54.1025 51.2119L52.9775 50.0947L53.3193 50.0088L53.9668 49.8457L53.6279 49.2705C53.5212 49.0896 53.431 48.9324 53.3584 48.7979L53.3574 48.7969L53.1436 48.3828L52.9648 48.0225L52.5732 48.1201L52.3184 48.1836L51.1943 47.0674L52.0459 46.8535L52.5225 46.7334L52.4102 46.2549C52.2515 45.5759 52.1887 44.9215 52.2178 44.291V44.29C52.2425 43.74 52.3383 43.2406 52.5029 42.7891L52.5781 42.5977C52.7839 42.1063 53.0859 41.6885 53.4873 41.3398C53.8796 40.9995 54.3764 40.7459 54.9932 40.5908C55.4705 40.4706 56.0136 40.4151 56.627 40.4287Z" fill="#9ABAE3" stroke="#ADC7FF"/>
<path d="M54.1048 49.1327C59.2892 36.232 53.034 21.5711 40.1333 16.3867C27.2326 11.2022 12.5718 17.4574 7.38729 30.3581C2.20283 43.2588 8.45806 57.9196 21.3587 63.1041C34.2594 68.2885 48.9203 62.0333 54.1048 49.1327Z" fill="white" stroke="#ADC7FF" stroke-width="2.5" stroke-miterlimit="10" stroke-linecap="round" stroke-linejoin="round"/>
<path d="M50.3204 47.6702C54.6893 36.8508 49.46 24.5383 38.6407 20.1695C27.8213 15.8007 15.5088 21.0299 11.14 31.8492C6.77112 42.6686 12.0003 54.9811 22.8197 59.3499C33.6391 63.7187 45.9516 58.4895 50.3204 47.6702Z" stroke="#ADC7FF" stroke-width="2.5" stroke-miterlimit="10" stroke-linecap="round" stroke-linejoin="round"/>
<path d="M31.7812 28.2607C33.8595 28.2608 35.6541 28.6633 37.1797 29.4502L37.4814 29.6123C38.9401 30.4346 40.0457 31.4906 40.8154 32.7773L36.7148 35.6953C36.5501 35.3809 36.3601 35.0947 36.1396 34.8408L35.9854 34.6738C35.5827 34.2584 35.1323 33.9239 34.6348 33.6758H34.6338C34.1498 33.4337 33.6455 33.2626 33.1221 33.165H33.1201C32.616 33.0724 32.1246 33.0244 31.6475 33.0244C30.4839 33.0245 29.4719 33.2869 28.6396 33.8408H28.6387C27.8458 34.3701 27.2134 35.0372 26.751 35.8389L26.3184 36.5879H32.4414L31.5098 38.9199H25.7852V39.4199C25.7852 39.7783 25.7909 40.0711 25.8027 40.2949C25.8139 40.5175 25.8324 40.7236 25.8564 40.9141L25.9111 41.3516H31.5088L30.5771 43.6816H26.7451L27.4346 44.5029C27.9445 45.1108 28.5545 45.5924 29.2598 45.9453C29.984 46.3071 30.807 46.4814 31.7158 46.4814C32.1965 46.4814 32.6868 46.4263 33.1846 46.3193C33.57 46.237 33.9446 46.1135 34.3076 45.9492L34.667 45.7715C35.1476 45.5122 35.5793 45.1801 35.96 44.7754V44.7744C36.2268 44.4898 36.451 44.1635 36.6377 43.8008L41.0654 46.4473C40.7453 47.0907 40.3092 47.6813 39.7471 48.2168H39.7461C39.0614 48.8707 38.2806 49.4197 37.4014 49.8652C36.5175 50.3128 35.5671 50.6544 34.5498 50.8896C33.5277 51.1258 32.5396 51.2432 31.5811 51.2432C30.3443 51.2431 29.1832 51.056 28.0947 50.6865C26.9981 50.3142 26.0067 49.7994 25.1172 49.1426H25.1162C24.2209 48.483 23.4328 47.7092 22.751 46.8242L22.501 46.4893C21.933 45.7017 21.4733 44.8705 21.1201 43.9951L20.9941 43.6816H18.1641L19.0957 41.3516H20.3096L20.2539 40.8008C20.2323 40.5873 20.2162 40.374 20.2061 40.1611V40.1582L20.1943 39.8164C20.1918 39.6934 20.1904 39.5609 20.1904 39.4189V38.9189H18.1631L19.0957 36.5879H20.5879L20.6992 36.2402C21.0396 35.1768 21.5349 34.1593 22.1875 33.1855V33.1846C22.8339 32.2196 23.6243 31.3697 24.5615 30.6357H24.5625C25.3766 29.9971 26.2957 29.4733 27.3213 29.0664L27.7676 28.8994C28.961 28.4767 30.2973 28.2607 31.7812 28.2607Z" fill="#9ABAE3" stroke="#ADC7FF"/>
</svg>
