<svg width="64" height="64" viewBox="0 0 64 64" fill="none" xmlns="http://www.w3.org/2000/svg">
  <rect width="64" height="64" rx="32" fill="#22C55E"/>
  <g fill="none" stroke="#FFFFFF" stroke-width="1.55" stroke-linecap="round" stroke-linejoin="round">
    <path d="M16.2 25.0C16.2 23.6 17.3 22.5 18.7 22.5H45.3C46.7 22.5 47.8 23.6 47.8 25.0V27.2C46.4 27.3 45.3 28.5 45.3 30.0C45.3 31.5 46.4 32.7 47.8 32.8V39.0C47.8 40.4 46.7 41.5 45.3 41.5H18.7C17.3 41.5 16.2 40.4 16.2 39.0V32.8C17.6 32.7 18.7 31.5 18.7 30.0C18.7 28.5 17.6 27.3 16.2 27.2V25.0Z"/>
    <path d="M27.3 23.2V40.8" stroke-dasharray="1.2 3"/>
    <path d="M31.1 34.2H42.2"/>
    <path d="M31.1 37.2H39.8"/>
  </g>
  <text x="22.0" y="34.0" text-anchor="middle" fill="#FFFFFF" font-family="Arial, Helvetica, sans-serif" font-size="11" font-weight="700">€</text>
  <text x="36.4" y="30.7" text-anchor="middle" fill="#FFFFFF" font-family="Arial, Helvetica, sans-serif" font-size="2.9" font-weight="700" letter-spacing="0.1">Gutschein</text>
</svg>