<svg width="80" height="80" viewBox="0 0 80 80" fill="none" xmlns="http://www.w3.org/2000/svg">
<path d="M75.6391 24.3175L75.6926 55.4165C75.6974 58.1691 73.4701 60.4041 70.7169 60.4088L9.38787 60.5143C6.63471 60.5191 4.3997 58.2917 4.39495 55.5391L4.34144 24.4401C4.33667 21.687 6.56399 19.4514 9.31715 19.4466L70.6462 19.3411C73.3995 19.3365 75.6345 21.5643 75.6391 24.3175Z" fill="#ADC7FF"/>
<path d="M61.7652 53.2807C61.7646 52.9024 62.0707 52.5953 62.4489 52.5947C62.8272 52.5941 63.1186 52.8251 63.2013 53.1943C63.3217 53.7317 62.8841 54.0236 62.3889 54.0245C62.0107 54.0251 61.766 53.659 61.7652 53.2807Z" fill="white"/>
<path d="M64.41 53.2753C64.4093 52.8971 64.7154 52.59 65.0936 52.5893C65.4719 52.5887 65.903 52.8946 65.9037 53.2728C65.9046 53.8234 65.4743 54.0183 65.096 54.0189C64.7179 54.0196 64.4106 53.6535 64.41 53.2753Z" fill="white"/>
<path d="M66.995 53.3019C67.0158 52.9243 67.3056 52.6153 67.6826 52.5859C68.1754 52.5475 68.4592 52.8712 68.5164 53.2451C68.5818 53.6731 68.4082 54.0144 67.7346 54.0156C67.3563 54.0161 66.9692 53.7704 66.995 53.3019Z" fill="white"/>
<path d="M61.7727 55.9406C61.7721 55.5623 62.03 55.2876 62.4063 55.2494C62.9385 55.1954 63.1917 55.555 63.2089 55.9329C63.2295 56.3849 62.8369 56.6237 62.4587 56.6243C62.0805 56.6249 61.7733 56.3188 61.7727 55.9406Z" fill="white"/>
<path d="M64.3433 55.9693C64.3728 55.5922 64.4564 55.2025 65.1012 55.2494C65.4784 55.2769 65.7866 55.5548 65.7872 55.933C65.7879 56.3112 65.4818 56.6184 65.1035 56.619C64.7252 56.6197 64.3043 56.4671 64.3433 55.9693Z" fill="white"/>
<path d="M67.0047 55.9152C67.0313 55.5379 67.2935 55.214 67.6717 55.2133C68.2616 55.2123 68.4788 55.5804 68.4794 55.9586C68.48 56.3368 68.1267 56.6141 67.7485 56.6148C67.3703 56.6154 66.9718 56.3794 67.0047 55.9152Z" fill="white"/>
<path d="M45.3096 60.4513L8.1126 60.5153C6.06477 60.5188 4.40136 58.2905 4.39661 55.5379L4.34311 24.4389C4.33834 21.6858 5.99405 19.4513 8.04197 19.4477L22.4858 19.4229C22.6423 19.5416 22.7289 19.6077 22.7289 19.6077C22.7289 19.6077 27.5734 20.8881 27.9531 25.288C28.3328 29.688 28.7159 33.8393 33.8029 35.2572C38.8895 36.6745 44.6625 39.0831 43.0009 46.7579C41.3391 54.4325 46.9704 53.5076 45.3096 60.4513Z" fill="#246AFF"/>
<path d="M27.535 35.9042C27.974 34.5619 28.6116 33.2802 29.4488 32.0576C30.2844 30.8364 31.3064 29.762 32.5148 28.8358C33.721 27.9096 35.1004 27.1779 36.6501 26.6415C38.1999 26.1043 39.9214 25.835 41.8148 25.835C44.6398 25.835 47.0886 26.4064 49.1603 27.547C51.2305 28.6891 52.7737 30.1995 53.7891 32.0783L47.6586 36.3473C47.3841 35.6491 47.0209 35.072 46.5667 34.616C46.1146 34.1594 45.6138 33.7967 45.0649 33.5288C44.5168 33.2602 43.9476 33.0721 43.358 32.9646C42.7676 32.8584 42.1984 32.8043 41.6503 32.8043C40.3058 32.8043 39.1811 33.0999 38.2756 33.6898C37.3715 34.2805 36.6574 35.0193 36.1355 35.9049L43.5428 35.9049L41.897 39.9331L35.0254 39.9331C35.0254 40.3628 35.0319 40.7047 35.0458 40.9598C35.0589 41.2156 35.08 41.45 35.1077 41.6644L42.3913 41.6644L40.7454 45.692L36.918 45.692C37.4938 46.3638 38.1802 46.8939 38.9758 47.2836C39.7715 47.6726 40.6908 47.8678 41.734 47.8678C42.2814 47.8678 42.8441 47.8073 43.4198 47.6861C43.9956 47.5657 44.5518 47.3641 45.0875 47.082C45.6218 46.7998 46.1015 46.4379 46.5273 45.9948C46.9517 45.5516 47.2888 45.008 47.5355 44.3632L54.0781 48.1898C53.6385 49.2372 52.9739 50.1769 52.0821 51.0083C51.1904 51.8419 50.175 52.5387 49.0372 53.103C47.8988 53.6672 46.678 54.0969 45.375 54.3918C44.0706 54.6868 42.8033 54.835 41.568 54.835C39.9768 54.835 38.4743 54.5999 37.0614 54.1303C35.6485 53.6608 34.3666 53.0096 33.2143 52.1768C32.0613 51.3453 31.0466 50.3707 30.1694 49.2564C29.2901 48.1428 28.5913 46.9544 28.0708 45.692L24.0789 45.692L25.7247 41.6644L26.9593 41.6644C26.9316 41.3965 26.9105 41.1279 26.8974 40.8586C26.8828 40.5907 26.877 40.2815 26.877 39.9324L24.0781 39.9324L25.724 35.9042L27.535 35.9042Z" fill="white"/>
<path d="M41.8145 24.835C44.5905 24.835 47.0679 25.3618 49.2168 26.4463L49.6426 26.6709L49.6436 26.6719C51.8627 27.8962 53.5528 29.5375 54.6689 31.6025L55.0937 32.3887L47.1914 37.8916L46.7275 36.7129C46.4947 36.1206 46.2006 35.6659 45.8584 35.3223L45.8555 35.3193C45.4784 34.9385 45.0684 34.6437 44.626 34.4277L44.625 34.4268C44.1586 34.1982 43.6776 34.0391 43.1807 33.9482C42.6422 33.8514 42.1326 33.8047 41.6504 33.8047C40.4532 33.8047 39.5291 34.0654 38.8213 34.5264L38.8223 34.5273C38.6398 34.6466 38.4679 34.7733 38.3047 34.9053L45.0312 34.9053L42.8223 40.3115L42.6787 40.6641L43.8799 40.6641L41.417 46.6924L40.2598 46.6924C40.7012 46.8061 41.191 46.8682 41.7344 46.8682L41.7344 47.8682L41.3486 47.8584C40.463 47.8157 39.6718 47.6236 38.9756 47.2832C38.1802 46.8935 37.4936 46.364 36.918 45.6924L40.7451 45.6924L42.3916 41.6641L35.1074 41.6641C35.0936 41.5568 35.0817 41.4445 35.0713 41.3271L35.0459 40.96C35.0321 40.705 35.0254 40.363 35.0254 39.9336L41.8975 39.9336L43.543 35.9053L36.1357 35.9053C36.6577 35.0197 37.3713 34.2801 38.2754 33.6895C39.1809 33.0996 40.3059 32.8047 41.6504 32.8047L42.0654 32.8145C42.4844 32.8347 42.9157 32.8852 43.3584 32.9648C43.9478 33.0724 44.5165 33.2608 45.0645 33.5293C45.6133 33.7972 46.1144 34.1595 46.5664 34.6162C47.0206 35.0722 47.3838 35.6494 47.6582 36.3477L53.7891 32.0781C52.7736 30.1994 51.2303 28.6889 49.1602 27.5469C47.0885 26.4063 44.6395 25.835 41.8145 25.835C39.9213 25.835 38.2 26.1045 36.6504 26.6416L36.0771 26.8516C34.7583 27.3637 33.5701 28.0255 32.5146 28.8359L32.0703 29.1904C31.0539 30.0332 30.1803 30.9893 29.4492 32.0576L29.1445 32.5186C28.554 33.4466 28.0755 34.4079 27.709 35.4033L27.5352 35.9043L25.7236 35.9043L24.0781 39.9326L26.877 39.9326L26.8818 40.4258C26.8851 40.5802 26.8902 40.7245 26.8975 40.8584C26.9106 41.1276 26.9313 41.3963 26.959 41.6641L25.7246 41.6641L24.0791 45.6924L28.0703 45.6924C28.5908 46.9548 29.2897 48.1433 30.1689 49.2568C31.046 50.371 32.061 51.3454 33.2139 52.1768C34.3662 53.0096 35.6486 53.6604 37.0615 54.1299C38.2979 54.5407 39.6026 54.7728 40.9756 54.8242L41.5684 54.835C42.8035 54.8349 44.0707 54.6865 45.375 54.3916C46.678 54.0966 47.8986 53.6668 49.0371 53.1025C50.1747 52.5383 51.1904 51.8422 52.082 51.0088C52.8623 50.2812 53.4684 49.4701 53.9023 48.5771L54.0781 48.1895L47.5352 44.3633C47.2884 45.008 46.9517 45.552 46.5273 45.9951L46.3652 46.1572C45.9809 46.5272 45.5553 46.8352 45.0879 47.082L44.8857 47.1836C44.4124 47.4129 43.9238 47.5812 43.4199 47.6865C42.8443 47.8076 42.2816 47.8681 41.7344 47.8682L41.7344 46.8682C42.2076 46.8681 42.7011 46.8159 43.2139 46.708L43.2148 46.707C43.6963 46.6064 44.1644 46.4371 44.6201 46.1973C45.0583 45.9659 45.4521 45.6694 45.8047 45.3027C46.1271 44.9661 46.397 44.5403 46.6016 44.0059L47.0225 42.9053L55.3389 47.7686L55 48.5771C54.5019 49.7634 53.7513 50.8173 52.7637 51.7383L52.7646 51.7393C51.9192 52.5295 50.9739 53.2032 49.9336 53.7646L49.4814 53.999C48.4201 54.5251 47.295 54.9391 46.1084 55.2432L45.5957 55.3672C44.2255 55.677 42.8841 55.8349 41.5684 55.835C39.8772 55.835 38.2674 55.5846 36.7461 55.0791C35.2415 54.5791 33.8681 53.883 32.6299 52.9883L32.1758 52.6484C31.1324 51.8395 30.2015 50.9138 29.3838 49.875C28.594 48.8746 27.94 47.8123 27.4199 46.6924L22.5898 46.6924L24.9434 40.9326L22.5889 40.9326L25.0527 34.9043L26.8301 34.9043C27.2812 33.7181 27.8791 32.5801 28.624 31.4922C29.5209 30.1817 30.6165 29.0306 31.9062 28.042C33.2038 27.0458 34.6797 26.266 36.3223 25.6973C37.9919 25.1185 39.8264 24.835 41.8145 24.835Z" fill="#246AFF"/>
</svg>
