<svg width="80" height="80" viewBox="0 0 80 80" fill="none" xmlns="http://www.w3.org/2000/svg">
<path d="M55.6119 7H24.3883C23.4093 7 22.6084 7.80096 22.6084 8.77989V71.2201C22.6084 72.199 23.4093 73 24.3883 73H55.6119C56.5908 73 57.3918 72.199 57.3918 71.2201V8.77994C57.3918 7.80101 56.5908 7 55.6119 7Z" fill="#699FF0"/>
<path d="M56.1477 12.2773H23.9258V65.758H56.1477V12.2773Z" fill="#EBF2F9"/>
<path d="M43.9446 9.49854H34.9026C34.709 9.49854 34.5508 9.65685 34.5508 9.85034C34.5508 10.0438 34.709 10.2022 34.9026 10.2022H43.9446C44.1381 10.2022 44.2964 10.0438 44.2964 9.85034C44.2964 9.65681 44.1381 9.49854 43.9446 9.49854Z" fill="#4A75CB"/>
<path d="M45.551 9.49854C45.3575 9.49854 45.1992 9.65685 45.1992 9.85034C45.1992 10.0438 45.3575 10.2022 45.551 10.2022C45.7445 10.2022 45.9028 10.0438 45.9028 9.85034C45.9028 9.65681 45.7445 9.49854 45.551 9.49854Z" fill="#4A75CB"/>
<path d="M39.8103 68.0195C38.8154 68.0195 38.0088 68.8261 38.0088 69.821C38.0088 70.816 38.8154 71.6225 39.8103 71.6225C40.8052 71.6225 41.6118 70.816 41.6118 69.821C41.6118 68.8261 40.8052 68.0195 39.8103 68.0195Z" fill="#4A75CB"/>
<path d="M56.4238 46.9214H24.0742V66.3433H56.4238V46.9214Z" fill="#DCEAFF"/>
<path d="M39.3126 62.8635C35.7629 62.8635 32.875 59.9756 32.875 56.4259C32.875 52.8762 35.7629 49.9883 39.3126 49.9883C42.8623 49.9883 45.7502 52.8762 45.7502 56.4259C45.7501 59.9756 42.8623 62.8635 39.3126 62.8635ZM39.3126 50.829C36.2265 50.829 33.7157 53.3398 33.7157 56.4259C33.7157 59.512 36.2265 62.0228 39.3126 62.0228C42.3987 62.0228 44.9095 59.512 44.9095 56.4259C44.9095 53.3397 42.3987 50.829 39.3126 50.829Z" fill="#699FF0"/>
<path d="M34.9697 55.4694C34.9697 55.4694 37.7907 58.7361 39.4675 60.2249C39.4675 60.2249 42.7117 53.5522 46.6049 48.8848C46.6049 48.8848 42.0981 52.2249 38.3166 56.4447C38.3166 56.4447 37.2647 56.2944 34.9697 55.4694Z" fill="#A8D29F"/>
<path d="M34.3369 22.1172H49.46L51.3954 36.6025H38.8009L34.3369 22.1172Z" fill="#D86713"/>
<path d="M44.2047 23.7026C44.2035 23.7026 44.2023 23.7026 44.2012 23.7026C44.0769 23.7007 43.9776 23.5984 43.9795 23.4741C44.0284 20.2964 43.5324 18.1801 42.5053 17.1841C41.992 16.6864 41.3568 16.4627 40.5632 16.4988C37.557 16.6375 37.3281 23.4155 37.3261 23.484C37.3226 23.6083 37.2188 23.7044 37.0947 23.7026C36.9704 23.6991 36.8725 23.5955 36.8761 23.4712C36.8845 23.1747 37.1214 16.207 40.5424 16.0491C41.4548 16.0071 42.2199 16.2802 42.8188 16.861C43.9544 17.9622 44.4814 20.1277 44.4297 23.4811C44.4279 23.6041 44.3274 23.7026 44.2047 23.7026Z" fill="#D86713"/>
<path d="M46.2932 22.1172H32.283L29.3262 36.6025H44.7225L46.2932 22.1172Z" fill="#EE9849"/>
<path d="M38.4793 27.3597C38.3369 27.7977 38.0772 28.1708 37.7002 28.4786C37.3231 28.7867 36.9148 28.9406 36.4754 28.9406C36.0422 28.9406 35.734 28.7867 35.5507 28.4786C35.3673 28.1708 35.3469 27.7977 35.4893 27.3597C35.6358 26.9089 35.9 26.5263 36.2825 26.212C36.6648 25.8976 37.0789 25.7404 37.5247 25.7404C37.9704 25.7404 38.2808 25.9024 38.4559 26.2261C38.6179 26.531 38.6257 26.9089 38.4793 27.3597ZM36.7299 28.1573C36.9462 28.1573 37.145 28.0751 37.3259 27.9104C37.4815 27.7647 37.5963 27.578 37.6704 27.3501C37.7424 27.1286 37.7489 26.9417 37.69 26.7898C37.6266 26.6125 37.4866 26.5238 37.2702 26.5238C37.0472 26.5238 36.8474 26.6093 36.671 26.7802C36.5153 26.9259 36.3996 27.1157 36.3234 27.3501C36.2555 27.5591 36.2553 27.7458 36.3229 27.9104C36.3903 28.0751 36.526 28.1573 36.7299 28.1573ZM41.218 26.0458C41.1869 26.1413 41.107 26.2687 40.9785 26.4278L38.3212 29.6834C38.1779 29.8679 37.9565 30.1444 37.6573 30.5132C37.2909 30.9599 36.7436 31.6331 36.0155 32.5327C35.8032 32.7936 35.5889 32.9242 35.3723 32.9242C35.2512 32.9242 35.1622 32.8843 35.1052 32.8048C35.0482 32.7253 35.0395 32.6249 35.0788 32.5039C35.1099 32.4083 35.2052 32.262 35.3649 32.0645L40.2343 26.0748C40.457 25.8011 40.667 25.6641 40.8645 25.6641C41.1828 25.664 41.3006 25.7913 41.218 26.0458ZM40.7714 31.2715C40.6266 31.7174 40.3644 32.0931 39.9849 32.3988C39.6052 32.7045 39.1958 32.8573 38.7564 32.8573C38.3297 32.8573 38.0252 32.7013 37.8434 32.3892C37.6613 32.0773 37.6407 31.7047 37.7814 31.2715C37.9304 30.813 38.1925 30.4278 38.5677 30.1157C38.9429 29.8037 39.3566 29.6475 39.8089 29.6475C40.2675 29.6475 40.5802 29.802 40.7473 30.1109C40.9144 30.4199 40.9224 30.8068 40.7714 31.2715ZM39.9592 31.2429C40.0317 31.0201 40.0385 30.8321 39.98 30.6793C39.9063 30.5138 39.7613 30.4309 39.5448 30.4309C39.3282 30.4309 39.1304 30.5202 38.9516 30.6984C38.7936 30.8513 38.6785 31.0391 38.606 31.262C38.5377 31.4721 38.5361 31.6536 38.6011 31.8065C38.6725 31.9785 38.8101 32.0644 39.0141 32.0644C39.2305 32.0644 39.4303 31.9785 39.6137 31.8065C39.7695 31.6601 39.8847 31.4722 39.9592 31.2429Z" fill="white"/>
<path d="M42.7467 23.7026C42.7455 23.7026 42.7443 23.7026 42.7432 23.7026C42.6189 23.7007 42.5196 23.5984 42.5215 23.4741C42.5704 20.2964 42.0744 18.1801 41.0473 17.1841C40.534 16.6864 39.8988 16.4627 39.1052 16.4988C36.099 16.6375 35.8701 23.4155 35.8681 23.484C35.8645 23.6083 35.7609 23.7044 35.6367 23.7026C35.5124 23.6991 35.4145 23.5955 35.4181 23.4712C35.4265 23.1747 35.6634 16.207 39.0844 16.0491C39.9967 16.0071 40.7619 16.2802 41.3607 16.861C42.4964 17.9622 43.0233 20.1277 42.9717 23.4811C42.9699 23.6041 42.8694 23.7026 42.7467 23.7026Z" fill="#D86713"/>
<path d="M47.9125 22.668L46.6572 36.5973H50.1396L47.9125 22.668Z" fill="#C95C12"/>
<path d="M28.771 40.7828L37.8181 40.7631C38.0086 40.7627 38.1642 40.6064 38.1638 40.416C38.1634 40.2254 38.0072 40.0699 37.8166 40.0703L28.7695 40.09C28.579 40.0904 28.4234 40.2467 28.4238 40.4371C28.4242 40.6277 28.5805 40.7832 28.771 40.7828Z" fill="#ADCBF9"/>
<path d="M27.5063 40.7851L27.5311 40.7851C27.7216 40.7847 27.8771 40.6284 27.8767 40.4379C27.8763 40.2474 27.7201 40.0919 27.5296 40.0923L27.5048 40.0923C27.3143 40.0927 27.1588 40.249 27.1592 40.4395C27.1596 40.63 27.3158 40.7856 27.5063 40.7851Z" fill="#ADCBF9"/>
<path d="M28.772 42.005L37.8191 41.9853C38.0096 41.9849 38.1652 41.8286 38.1648 41.6381C38.1644 41.4477 38.0082 41.2921 37.8176 41.2925L28.7705 41.3121C28.58 41.3126 28.4244 41.4688 28.4248 41.6593C28.4252 41.8499 28.5815 42.0054 28.772 42.005Z" fill="#ADCBF9"/>
<path d="M27.5093 42.0078L27.534 42.0078C27.7245 42.0073 27.8801 41.8511 27.8797 41.6606C27.8793 41.4701 27.723 41.3145 27.5325 41.3149L27.5078 41.315C27.3173 41.3154 27.1617 41.4716 27.1621 41.6621C27.1626 41.8527 27.3187 42.0082 27.5093 42.0078Z" fill="#ADCBF9"/>
<path d="M37.8206 42.5151L28.7734 42.5348C28.5829 42.5352 28.4274 42.6915 28.4277 42.882C28.4282 43.0725 28.5844 43.228 28.7749 43.2277L37.8221 43.208C38.0126 43.2075 38.1681 43.0513 38.1677 42.8608C38.1673 42.6703 38.0111 42.5147 37.8206 42.5151Z" fill="#ADCBF9"/>
<path d="M27.5355 42.5381L27.5107 42.5381C27.3202 42.5386 27.1647 42.6948 27.165 42.8853C27.1655 43.0758 27.3217 43.2314 27.5122 43.231L27.5369 43.2309C27.7275 43.2305 27.883 43.0743 27.8827 42.8837C27.8823 42.6932 27.726 42.5377 27.5355 42.5381Z" fill="#ADCBF9"/>
</svg>
