<svg width="80" height="80" viewBox="0 0 80 80" fill="none" xmlns="http://www.w3.org/2000/svg">
<path d="M56.4529 73H23.5476C22.5333 73 21.7109 72.1776 21.7109 71.1633V8.83667C21.7109 7.82237 22.5333 7 23.5476 7H56.4527C57.467 7 58.2893 7.82237 58.2893 8.83667V71.1636C58.2896 72.1779 57.4672 73 56.4529 73Z" fill="#5876B6"/>
<path d="M30.0522 7.45917H23.7772C22.7629 7.45917 21.9405 8.28154 21.9405 9.29584V71.6227C21.9405 71.8273 21.9754 72.0233 22.0372 72.2072C21.8319 71.9109 21.7109 71.5516 21.7109 71.1636V8.83667C21.7109 7.82237 22.5333 7 23.5476 7H30.0868C30.0719 7.15198 30.0604 7.30512 30.0522 7.45917ZM56.4529 7H50.0184C50.0335 7.15221 50.0466 7.30512 50.0549 7.45917H56.6825C57.309 7.45917 57.8614 7.77347 58.1929 8.25215C57.9486 7.5246 57.2626 7 56.4529 7Z" fill="#A87BFD"/>
<g opacity="0.5">
<path d="M56.6673 10.8257H23.793V69.6335H56.6673V10.8257Z" fill="black"/>
</g>
<path d="M56.4378 10.5952H23.5635V69.4031H56.4378V10.5952Z" fill="#EBF2F9"/>
<path d="M42.0421 9.05735H37.9574C37.8137 9.05735 37.6973 8.94095 37.6973 8.79723C37.6973 8.65351 37.8137 8.53711 37.9574 8.53711H42.0421C42.1859 8.53711 42.3023 8.65351 42.3023 8.79723C42.3023 8.94095 42.1856 9.05735 42.0421 9.05735Z" fill="#342A67"/>
<path d="M42.5568 21.988H37.4435C36.5153 21.988 35.7627 21.2355 35.7627 20.3072V15.194C35.7627 14.2658 36.5153 13.5132 37.4435 13.5132H42.5568C43.485 13.5132 44.2375 14.2658 44.2375 15.194V20.3072C44.2375 21.2355 43.485 21.988 42.5568 21.988Z" fill="#ADC7FF"/>
<path d="M32.7208 21.988H27.6075C26.6793 21.988 25.9268 21.2355 25.9268 20.3072V15.194C25.9268 14.2658 26.6793 13.5132 27.6075 13.5132H32.7208C33.649 13.5132 34.4016 14.2658 34.4016 15.194V20.3072C34.4016 21.2355 33.649 21.988 32.7208 21.988Z" fill="#ADC7FF"/>
<path d="M52.3937 21.988H47.2804C46.3522 21.988 45.5996 21.2355 45.5996 20.3072V15.194C45.5996 14.2658 46.352 13.5132 47.2804 13.5132H52.3937C53.3219 13.5132 54.0745 14.2658 54.0745 15.194V20.3072C54.0745 21.2355 53.3219 21.988 52.3937 21.988Z" fill="#ADC7FF"/>
<path d="M32.7208 31.3664H27.6075C26.6793 31.3664 25.9268 30.6139 25.9268 29.6857V24.5724C25.9268 23.6442 26.6793 22.8916 27.6075 22.8916H32.7208C33.649 22.8916 34.4016 23.6442 34.4016 24.5724V29.6857C34.4016 30.6139 33.649 31.3664 32.7208 31.3664Z" fill="#ADC7FF"/>
<path d="M52.3937 31.3664H47.2804C46.3522 31.3664 45.5996 30.6139 45.5996 29.6857V24.5724C45.5996 23.6442 46.352 22.8916 47.2804 22.8916H52.3937C53.3219 22.8916 54.0745 23.6442 54.0745 24.5724V29.6857C54.0745 30.6139 53.3219 31.3664 52.3937 31.3664Z" fill="#ADC7FF"/>
<path d="M32.7208 40.7258H27.6075C26.6793 40.7258 25.9268 39.9733 25.9268 39.045V33.9318C25.9268 33.0036 26.6793 32.251 27.6075 32.251H32.7208C33.649 32.251 34.4016 33.0036 34.4016 33.9318V39.045C34.4016 39.9733 33.649 40.7258 32.7208 40.7258Z" fill="#ADC7FF"/>
<path d="M52.3937 40.7258H47.2804C46.3522 40.7258 45.5996 39.9733 45.5996 39.045V33.9318C45.5996 33.0036 46.352 32.251 47.2804 32.251H52.3937C53.3219 32.251 54.0745 33.0036 54.0745 33.9318V39.045C54.0745 39.9733 53.3219 40.7258 52.3937 40.7258Z" fill="#ADC7FF"/>
<path d="M42.5265 31.3664H37.4132C36.485 31.3664 35.7324 30.6139 35.7324 29.6857V24.5724C35.7324 23.6442 36.485 22.8916 37.4132 22.8916H42.5265C43.4547 22.8916 44.2073 23.6442 44.2073 24.5724V29.6857C44.2073 30.6139 43.4547 31.3664 42.5265 31.3664Z" fill="#ADC7FF"/>
<path d="M42.5568 50.074H37.4435C36.5153 50.074 35.7627 49.3214 35.7627 48.3932V43.2799C35.7627 42.3517 36.5153 41.5991 37.4435 41.5991H42.5568C43.485 41.5991 44.2375 42.3517 44.2375 43.2799V48.3932C44.2375 49.3214 43.485 50.074 42.5568 50.074Z" fill="#ADC7FF"/>
<path d="M32.7208 50.074H27.6075C26.6793 50.074 25.9268 49.3214 25.9268 48.3932V43.2799C25.9268 42.3517 26.6793 41.5991 27.6075 41.5991H32.7208C33.649 41.5991 34.4016 42.3517 34.4016 43.2799V48.3932C34.4016 49.3214 33.649 50.074 32.7208 50.074Z" fill="#ADC7FF"/>
<path d="M52.3937 50.074H47.2804C46.3522 50.074 45.5996 49.3214 45.5996 48.3932V43.2799C45.5996 42.3517 46.352 41.5991 47.2804 41.5991H52.3937C53.3219 41.5991 54.0745 42.3517 54.0745 43.2799V48.3932C54.0745 49.3214 53.3219 50.074 52.3937 50.074Z" fill="#ADC7FF"/>
<path d="M46.0468 46.2621H34.7665C32.7188 46.2621 31.0586 44.6018 31.0586 42.5541V31.2739C31.0586 29.2262 32.7188 27.5659 34.7665 27.5659H46.0468C48.0945 27.5659 49.7547 29.2262 49.7547 31.2739V42.5541C49.7547 44.6018 48.0945 46.2621 46.0468 46.2621Z" fill="#FFD25E"/>
<path d="M40.9138 32.4821L41.7667 35.1077C41.8386 35.329 42.0447 35.4784 42.2772 35.4784H45.038C45.5582 35.4784 45.7744 36.1439 45.3536 36.4498L43.12 38.0726C42.9321 38.2093 42.8531 38.4514 42.925 38.6728L43.7779 41.2983C43.9385 41.7932 43.3727 42.2044 42.9518 41.8985L40.7183 40.2758C40.5299 40.139 40.2751 40.139 40.0872 40.2758L37.8536 41.8985C37.4328 42.2044 36.867 41.7932 37.0276 41.2983L37.8805 38.6728C37.9524 38.4514 37.8734 38.2093 37.6855 38.0726L35.4519 36.4498C35.031 36.1439 35.2473 35.4784 35.7674 35.4784H38.5283C38.7607 35.4784 38.9669 35.3285 39.0388 35.1077L39.8917 32.4821C40.0533 31.9877 40.7532 31.9877 40.9138 32.4821Z" stroke="#FFB63D" stroke-width="2" stroke-miterlimit="10" stroke-linecap="round" stroke-linejoin="round"/>
<path d="M40.9138 32.4821L41.7667 35.1077C41.8386 35.329 42.0447 35.4784 42.2772 35.4784H45.038C45.5582 35.4784 45.7744 36.1439 45.3536 36.4498L43.12 38.0726C42.9321 38.2093 42.8531 38.4514 42.925 38.6728L43.7779 41.2983C43.9385 41.7932 43.3727 42.2044 42.9518 41.8985L40.7183 40.2758C40.5299 40.139 40.2751 40.139 40.0872 40.2758L37.8536 41.8985C37.4328 42.2044 36.867 41.7932 37.0276 41.2983L37.8805 38.6728C37.9524 38.4514 37.8734 38.2093 37.6855 38.0726L35.4519 36.4498C35.031 36.1439 35.2473 35.4784 35.7674 35.4784H38.5283C38.7607 35.4784 38.9669 35.3285 39.0388 35.1077L39.8917 32.4821C40.0533 31.9877 40.7532 31.9877 40.9138 32.4821Z" fill="white"/>
</svg>
