<svg width="80" height="80" viewBox="0 0 80 80" fill="none" xmlns="http://www.w3.org/2000/svg">
<path d="M75.6391 24.3165L75.6926 55.4155C75.6974 58.1681 73.4701 60.4031 70.7169 60.4078L9.38787 60.5133C6.63471 60.5181 4.3997 58.2907 4.39495 55.5381L4.34144 24.4391C4.33667 21.686 6.56399 19.4504 9.31715 19.4457L70.6462 19.3402C73.3995 19.3355 75.6345 21.5633 75.6391 24.3165Z" fill="#ADC7FF"/>
<path d="M61.7643 53.2792C61.7636 52.901 62.0697 52.5939 62.4479 52.5932C62.8262 52.5926 63.1177 52.8237 63.2003 53.1928C63.3207 53.7302 62.8831 54.0222 62.3879 54.023C62.0097 54.0236 61.765 53.6575 61.7643 53.2792Z" fill="white"/>
<path d="M64.409 53.2749C64.4084 52.8966 64.7144 52.5895 65.0926 52.5888C65.4709 52.5882 65.9021 52.8941 65.9027 53.2723C65.9037 53.8229 65.4733 54.0178 65.0951 54.0184C64.7169 54.0191 64.4096 53.653 64.409 53.2749Z" fill="white"/>
<path d="M66.995 53.3005C67.0158 52.9228 67.3056 52.6139 67.6826 52.5845C68.1754 52.546 68.4592 52.8697 68.5164 53.2436C68.5818 53.6716 68.4082 54.0129 67.7346 54.0141C67.3563 54.0146 66.9692 53.7689 66.995 53.3005Z" fill="white"/>
<path d="M61.7727 55.9391C61.7721 55.5608 62.03 55.2862 62.4063 55.2479C62.9385 55.194 63.1917 55.5536 63.2089 55.9315C63.2295 56.3835 62.8369 56.6222 62.4587 56.6228C62.0805 56.6235 61.7733 56.3174 61.7727 55.9391Z" fill="white"/>
<path d="M64.3433 55.9688C64.3728 55.5917 64.4564 55.202 65.1012 55.2489C65.4784 55.2764 65.7866 55.5544 65.7872 55.9325C65.7879 56.3107 65.4818 56.6179 65.1035 56.6185C64.7252 56.6192 64.3043 56.4666 64.3433 55.9688Z" fill="white"/>
<path d="M67.0047 55.9142C67.0313 55.5369 67.2935 55.213 67.6717 55.2123C68.2616 55.2113 68.4788 55.5794 68.4794 55.9576C68.48 56.3358 68.1267 56.6131 67.7485 56.6138C67.3703 56.6144 66.9718 56.3784 67.0047 55.9142Z" fill="white"/>
<path d="M45.3096 60.4508L8.1126 60.5148C6.06477 60.5183 4.40136 58.2901 4.39661 55.5375L4.34311 24.4385C4.33834 21.6853 5.99405 19.4508 8.04197 19.4472L22.4858 19.4224C22.6423 19.5411 22.7289 19.6072 22.7289 19.6072C22.7289 19.6072 27.5734 20.8876 27.9531 25.2875C28.3328 29.6875 28.7159 33.8388 33.8029 35.2567C38.8895 36.6741 44.6625 39.0827 43.0009 46.7574C41.3391 54.432 46.9704 53.5071 45.3096 60.4508Z" fill="#246AFF"/>
<path d="M27.535 35.9037C27.974 34.5614 28.6116 33.2797 29.4488 32.0571C30.2844 30.8359 31.3064 29.7616 32.5148 28.8354C33.721 27.9092 35.1004 27.1775 36.6501 26.641C38.1999 26.1038 39.9214 25.8345 41.8148 25.8345C44.6398 25.8345 47.0886 26.4059 49.1603 27.5465C51.2305 28.6886 52.7737 30.199 53.7891 32.0778L47.6586 36.3468C47.3841 35.6486 47.0209 35.0715 46.5667 34.6156C46.1146 34.1589 45.6138 33.7962 45.0649 33.5283C44.5168 33.2597 43.9476 33.0716 43.358 32.9641C42.7676 32.8579 42.1984 32.8038 41.6503 32.8038C40.3058 32.8038 39.1811 33.0994 38.2756 33.6894C37.3715 34.28 36.6574 35.0188 36.1355 35.9044L43.5428 35.9044L41.897 39.9326L35.0254 39.9326C35.0254 40.3623 35.0319 40.7042 35.0458 40.9593C35.0589 41.2151 35.08 41.4495 35.1077 41.6639L42.3913 41.6639L40.7454 45.6915L36.918 45.6915C37.4938 46.3633 38.1802 46.8934 38.9758 47.2831C39.7715 47.6721 40.6908 47.8673 41.734 47.8673C42.2814 47.8673 42.8441 47.8068 43.4198 47.6856C43.9956 47.5652 44.5518 47.3636 45.0875 47.0815C45.6218 46.7993 46.1015 46.4374 46.5273 45.9943C46.9517 45.5511 47.2888 45.0075 47.5355 44.3627L54.0781 48.1894C53.6385 49.2367 52.9739 50.1764 52.0821 51.0078C51.1904 51.8414 50.175 52.5382 49.0372 53.1025C47.8988 53.6668 46.678 54.0964 45.375 54.3913C44.0706 54.6863 42.8033 54.8345 41.568 54.8345C39.9768 54.8345 38.4743 54.5994 37.0614 54.1299C35.6485 53.6603 34.3666 53.0091 33.2143 52.1763C32.0613 51.3448 31.0466 50.3702 30.1694 49.2559C29.2901 48.1423 28.5913 46.9539 28.0708 45.6915L24.0789 45.6915L25.7247 41.6639L26.9593 41.6639C26.9316 41.396 26.9105 41.1274 26.8974 40.8581C26.8828 40.5902 26.877 40.281 26.877 39.9319L24.0781 39.9319L25.724 35.9037L27.535 35.9037Z" fill="white"/>
<path d="M41.8145 24.8345C44.5905 24.8345 47.0679 25.3613 49.2168 26.4458L49.6426 26.6704L49.6436 26.6714C51.8627 27.8957 53.5528 29.537 54.6689 31.6021L55.0937 32.3882L47.1914 37.8911L46.7275 36.7124C46.4947 36.1201 46.2006 35.6654 45.8584 35.3218L45.8555 35.3188C45.4784 34.938 45.0684 34.6432 44.626 34.4272L44.625 34.4263C44.1586 34.1977 43.6776 34.0386 43.1807 33.9478C42.6422 33.851 42.1326 33.8042 41.6504 33.8042C40.4532 33.8042 39.5291 34.0649 38.8213 34.5259L38.8223 34.5269C38.6398 34.6461 38.4679 34.7728 38.3047 34.9048L45.0312 34.9048L42.8223 40.311L42.6787 40.6636L43.8799 40.6636L41.417 46.6919L40.2598 46.6919C40.7012 46.8056 41.191 46.8677 41.7344 46.8677L41.7344 47.8677L41.3486 47.8579C40.463 47.8152 39.6718 47.6231 38.9756 47.2827C38.1802 46.8931 37.4936 46.3635 36.918 45.6919L40.7451 45.6919L42.3916 41.6636L35.1074 41.6636C35.0936 41.5563 35.0817 41.4441 35.0713 41.3267L35.0459 40.9595C35.0321 40.7045 35.0254 40.3625 35.0254 39.9331L41.8975 39.9331L43.543 35.9048L36.1357 35.9048C36.6577 35.0192 37.3713 34.2796 38.2754 33.689C39.1809 33.0991 40.3059 32.8042 41.6504 32.8042L42.0654 32.814C42.4844 32.8342 42.9157 32.8847 43.3584 32.9644C43.9478 33.0719 44.5165 33.2603 45.0645 33.5288C45.6133 33.7967 46.1144 34.1591 46.5664 34.6157C47.0206 35.0717 47.3838 35.649 47.6582 36.3472L53.7891 32.0776C52.7736 30.1989 51.2303 28.6884 49.1602 27.5464C47.0885 26.4058 44.6395 25.8345 41.8145 25.8345C39.9213 25.8345 38.2 26.104 36.6504 26.6411L36.0771 26.8511C34.7583 27.3632 33.5701 28.025 32.5146 28.8354L32.0703 29.1899C31.0539 30.0327 30.1803 30.9888 29.4492 32.0571L29.1445 32.5181C28.554 33.4461 28.0755 34.4074 27.709 35.4028L27.5352 35.9038L25.7236 35.9038L24.0781 39.9321L26.877 39.9321L26.8818 40.4253C26.8851 40.5797 26.8902 40.724 26.8975 40.8579C26.9106 41.1271 26.9313 41.3958 26.959 41.6636L25.7246 41.6636L24.0791 45.6919L28.0703 45.6919C28.5908 46.9543 29.2897 48.1428 30.1689 49.2563C31.046 50.3705 32.061 51.3449 33.2139 52.1763C34.3662 53.0091 35.6486 53.6599 37.0615 54.1294C38.2979 54.5402 39.6026 54.7723 40.9756 54.8237L41.5684 54.8345C42.8035 54.8344 44.0707 54.686 45.375 54.3911C46.678 54.0962 47.8986 53.6663 49.0371 53.1021C50.1747 52.5378 51.1904 51.8417 52.082 51.0083C52.8623 50.2807 53.4684 49.4696 53.9023 48.5767L54.0781 48.189L47.5352 44.3628C47.2884 45.0075 46.9517 45.5515 46.5273 45.9946L46.3652 46.1567C45.9809 46.5267 45.5553 46.8347 45.0879 47.0815L44.8857 47.1831C44.4124 47.4124 43.9238 47.5807 43.4199 47.686C42.8443 47.8071 42.2816 47.8676 41.7344 47.8677L41.7344 46.8677C42.2076 46.8676 42.7011 46.8154 43.2139 46.7075L43.2148 46.7065C43.6963 46.6059 44.1644 46.4366 44.6201 46.1968C45.0583 45.9654 45.4521 45.6689 45.8047 45.3022C46.1271 44.9656 46.397 44.5398 46.6016 44.0054L47.0225 42.9048L55.3389 47.7681L55 48.5767C54.5019 49.7629 53.7513 50.8168 52.7637 51.7378L52.7646 51.7388C51.9192 52.529 50.9739 53.2027 49.9336 53.7642L49.4814 53.9985C48.4201 54.5246 47.295 54.9386 46.1084 55.2427L45.5957 55.3667C44.2255 55.6765 42.8841 55.8344 41.5684 55.8345C39.8772 55.8345 38.2674 55.5841 36.7461 55.0786C35.2415 54.5786 33.8681 53.8825 32.6299 52.9878L32.1758 52.6479C31.1324 51.839 30.2015 50.9133 29.3838 49.8745C28.594 48.8741 27.94 47.8118 27.4199 46.6919L22.5898 46.6919L24.9434 40.9321L22.5889 40.9321L25.0527 34.9038L26.8301 34.9038C27.2812 33.7176 27.8791 32.5796 28.624 31.4917C29.5209 30.1812 30.6165 29.0301 31.9062 28.0415C33.2038 27.0453 34.6797 26.2655 36.3223 25.6968C37.9919 25.118 39.8264 24.8345 41.8145 24.8345Z" fill="#246AFF"/>
</svg>
