<svg width="80" height="80" viewBox="0 0 80 80" fill="none" xmlns="http://www.w3.org/2000/svg">
<path d="M61.5205 66.5536C52.7796 66.8763 42.9335 59.93 39.5521 51.0338C38.9281 49.3838 38.5647 47.784 38.4509 46.2602C38.1982 42.9967 39.0757 40.1251 40.8787 38.0039L43.3979 35.0381C41.5949 37.1597 40.7173 40.0309 40.9712 43.3001C41.0895 44.8174 41.4472 46.4184 42.0725 48.0737C45.4539 56.9698 55.2988 63.9109 64.0449 63.587C67.7305 63.4458 70.6419 62.056 72.535 59.8298L70.0159 62.7956C68.1232 65.0218 65.2113 66.4111 61.5205 66.5536Z" fill="white" stroke="#ADC7FF" stroke-width="2.5" stroke-miterlimit="10" stroke-linecap="round" stroke-linejoin="round"/>
<path d="M40.9715 43.3008L38.4512 46.2609" stroke="#ADC7FF" stroke-width="2.5" stroke-miterlimit="10" stroke-linecap="round" stroke-linejoin="round"/>
<path d="M49.7974 58.3491L47.2598 61.3" stroke="#ADC7FF" stroke-width="2.5" stroke-miterlimit="10" stroke-linecap="round" stroke-linejoin="round"/>
<path d="M43.9479 51.834L41.3604 54.6859" stroke="#ADC7FF" stroke-width="2.5" stroke-miterlimit="10" stroke-linecap="round" stroke-linejoin="round"/>
<path d="M57.9784 63.0923L55.5771 65.739" stroke="#ADC7FF" stroke-width="2.5" stroke-miterlimit="10" stroke-linecap="round" stroke-linejoin="round"/>
<path d="M65.016 63.5195L62.29 66.505" stroke="#ADC7FF" stroke-width="2.5" stroke-miterlimit="10" stroke-linecap="round" stroke-linejoin="round"/>
<path d="M64.0408 63.5845C55.2964 63.9109 45.4547 56.9674 42.0713 48.0708C41.4448 46.42 41.0855 44.8182 40.966 43.2997C40.4522 36.6181 44.6673 31.5798 51.8216 31.2913C60.6224 30.9441 70.4677 37.8847 73.8576 46.8215C74.4808 48.4688 74.8409 50.0649 74.9576 51.5802C75.4738 58.271 71.2426 63.3178 64.0408 63.5845Z" fill="white" stroke="#ADC7FF" stroke-width="2.5" stroke-miterlimit="10" stroke-linecap="round" stroke-linejoin="round"/>
<path d="M63.0533 60.9603C55.7352 61.2314 47.4893 55.4166 44.6607 47.9669C44.136 46.5836 43.8334 45.2405 43.7357 43.9695C43.3043 38.3735 46.835 34.1584 52.8225 33.9202C60.1901 33.6285 68.4397 39.4409 71.2743 46.9208C71.7977 48.2997 72.0995 49.6383 72.1973 50.9069C72.6286 56.5066 69.083 60.7341 63.0533 60.9603Z" stroke="#ADC7FF" stroke-width="2.5" stroke-miterlimit="10" stroke-linecap="round" stroke-linejoin="round"/>
<path d="M56.627 40.4282C57.2352 40.4418 57.8527 40.53 58.4795 40.6948C59.1016 40.8582 59.7159 41.1009 60.3232 41.4253H60.3242C60.8055 41.682 61.2465 41.9887 61.6504 42.3433L60.5547 44.186C60.37 44.0357 60.1812 43.9016 59.9873 43.7876L59.7227 43.6431C59.4573 43.5074 59.1895 43.3993 58.9189 43.3218H58.918C58.5643 43.2207 58.2181 43.167 57.8818 43.1655C57.5633 43.1638 57.2605 43.195 56.9785 43.2661C56.4514 43.3987 56.0077 43.6513 55.7031 44.0532C55.4192 44.428 55.2609 44.8727 55.2148 45.3677L55.1494 46.0718L55.835 45.8989L57.1992 45.5552L58.3252 46.6724L56.0635 47.2417L55.4736 47.3901L55.7334 47.9409C55.7921 48.0652 55.8602 48.198 55.9375 48.3403V48.3413C56.0151 48.485 56.1222 48.6726 56.2559 48.8999L56.4463 49.2222L56.8086 49.1304L59.4775 48.4585L60.6025 49.5767L58.2891 50.1597L57.3281 50.4019L58.0928 51.0308C58.6312 51.4735 59.2138 51.8128 59.8389 52.0464V52.0474C60.5018 52.294 61.1786 52.3348 61.8555 52.1646C62.1331 52.0947 62.3996 51.9896 62.6543 51.8511L62.6562 51.8501C62.9367 51.6959 63.1751 51.4882 63.3691 51.2319C63.5758 50.9598 63.706 50.6397 63.7695 50.2876C63.7897 50.1769 63.7986 50.0625 63.8018 49.9458L66.6885 51.104C66.746 51.8552 66.6198 52.5121 66.3174 53.0903L66.1592 53.3618C65.7111 54.0526 64.9623 54.5589 63.8408 54.8413C63.1859 55.006 62.5257 55.0576 61.8574 54.9966L61.5703 54.9634C60.8864 54.8686 60.2097 54.6867 59.54 54.4155L59.2539 54.2935L58.9668 54.1616C58.3009 53.8427 57.6582 53.451 57.0391 52.9868C56.3257 52.4524 55.678 51.8686 55.0957 51.2339L54.8945 51.0142L54.6055 51.0864L54.1025 51.2114L52.9775 50.0942L53.3193 50.0083L53.9668 49.8452L53.6279 49.27C53.5212 49.0892 53.431 48.9319 53.3584 48.7974L53.3574 48.7964L53.1436 48.3823L52.9648 48.022L52.5732 48.1196L52.3184 48.1831L51.1943 47.0669L52.0459 46.853L52.5225 46.7329L52.4102 46.2544C52.2515 45.5754 52.1887 44.921 52.2178 44.2905V44.2896C52.2425 43.7395 52.3383 43.2401 52.5029 42.7886L52.5781 42.5972C52.7839 42.1058 53.0859 41.688 53.4873 41.3394C53.8796 40.999 54.3764 40.7454 54.9932 40.5903C55.4705 40.4701 56.0136 40.4146 56.627 40.4282Z" fill="#9ABAE3" stroke="#ADC7FF"/>
<path d="M54.1048 49.1332C59.2892 36.2325 53.034 21.5716 40.1333 16.3871C27.2326 11.2027 12.5718 17.4579 7.38729 30.3586C2.20283 43.2592 8.45806 57.9201 21.3587 63.1046C34.2594 68.289 48.9203 62.0338 54.1048 49.1332Z" fill="white" stroke="#ADC7FF" stroke-width="2.5" stroke-miterlimit="10" stroke-linecap="round" stroke-linejoin="round"/>
<path d="M50.3204 47.6711C54.6893 36.8518 49.46 24.5393 38.6407 20.1705C27.8213 15.8016 15.5088 21.0308 11.14 31.8502C6.77112 42.6696 12.0003 54.9821 22.8197 59.3509C33.6391 63.7197 45.9516 58.4905 50.3204 47.6711Z" stroke="#ADC7FF" stroke-width="2.5" stroke-miterlimit="10" stroke-linecap="round" stroke-linejoin="round"/>
<path d="M31.7812 28.2607C33.8595 28.2608 35.6541 28.6633 37.1797 29.4502L37.4814 29.6123C38.9401 30.4346 40.0457 31.4906 40.8154 32.7773L36.7148 35.6953C36.5501 35.3809 36.3601 35.0947 36.1396 34.8408L35.9854 34.6738C35.5827 34.2584 35.1323 33.9239 34.6348 33.6758H34.6338C34.1498 33.4337 33.6455 33.2626 33.1221 33.165H33.1201C32.616 33.0724 32.1246 33.0244 31.6475 33.0244C30.4839 33.0245 29.4719 33.2869 28.6396 33.8408H28.6387C27.8458 34.3701 27.2134 35.0372 26.751 35.8389L26.3184 36.5879H32.4414L31.5098 38.9199H25.7852V39.4199C25.7852 39.7783 25.7909 40.0711 25.8027 40.2949C25.8139 40.5175 25.8324 40.7236 25.8564 40.9141L25.9111 41.3516H31.5088L30.5771 43.6816H26.7451L27.4346 44.5029C27.9445 45.1108 28.5545 45.5924 29.2598 45.9453C29.984 46.3071 30.807 46.4814 31.7158 46.4814C32.1965 46.4814 32.6868 46.4263 33.1846 46.3193C33.57 46.237 33.9446 46.1135 34.3076 45.9492L34.667 45.7715C35.1476 45.5122 35.5793 45.1801 35.96 44.7754V44.7744C36.2268 44.4898 36.451 44.1635 36.6377 43.8008L41.0654 46.4473C40.7453 47.0907 40.3092 47.6813 39.7471 48.2168H39.7461C39.0614 48.8707 38.2806 49.4197 37.4014 49.8652C36.5175 50.3128 35.5671 50.6544 34.5498 50.8896C33.5277 51.1258 32.5396 51.2432 31.5811 51.2432C30.3443 51.2431 29.1832 51.056 28.0947 50.6865C26.9981 50.3142 26.0067 49.7994 25.1172 49.1426H25.1162C24.2209 48.483 23.4328 47.7092 22.751 46.8242L22.501 46.4893C21.933 45.7017 21.4733 44.8705 21.1201 43.9951L20.9941 43.6816H18.1641L19.0957 41.3516H20.3096L20.2539 40.8008C20.2323 40.5873 20.2162 40.374 20.2061 40.1611V40.1582L20.1943 39.8164C20.1918 39.6934 20.1904 39.5609 20.1904 39.4189V38.9189H18.1631L19.0957 36.5879H20.5879L20.6992 36.2402C21.0396 35.1768 21.5349 34.1593 22.1875 33.1855V33.1846C22.8339 32.2196 23.6243 31.3697 24.5615 30.6357H24.5625C25.3766 29.9971 26.2957 29.4733 27.3213 29.0664L27.7676 28.8994C28.961 28.4767 30.2973 28.2607 31.7812 28.2607Z" fill="#9ABAE3" stroke="#ADC7FF"/>
</svg>
