<svg width="80" height="80" viewBox="0 0 80 80" fill="none" xmlns="http://www.w3.org/2000/svg">
<path d="M67.1969 57.2566H61.3311V54.6713C61.3311 53.0514 62.6442 51.7383 64.2639 51.7383C65.8837 51.7383 67.1969 53.0514 67.1969 54.6713V57.2566Z" stroke="#79A96F" stroke-width="2" stroke-miterlimit="10"/>
<path d="M59.0424 56.1195L57.7041 71.3791L71.3284 71.3291L70.1202 56.0801L59.0424 56.1195Z" fill="#A8D29F"/>
<path d="M72.4473 69.835L71.7539 70.3691L71.252 64.041L72.4473 69.835Z" fill="#FF8C78" stroke="#79A96F"/>
<path d="M56.4308 72.0716H13.2094C11.184 72.0716 9.54199 70.4296 9.54199 68.4042V11.5961C9.54199 9.57071 11.184 7.92871 13.2094 7.92871H56.4308C58.4562 7.92871 60.0982 9.57071 60.0982 11.5961V68.404C60.0982 70.4296 58.4562 72.0716 56.4308 72.0716Z" fill="#DCEAFF"/>
<path d="M58.52 11.9985H11.1201V68.0007H58.52V11.9985Z" stroke="#ADC7FF" stroke-width="2" stroke-miterlimit="10"/>
<path d="M37.9584 10.5751H31.6833C31.5161 10.5751 31.3809 10.4398 31.3809 10.2727C31.3809 10.1056 31.5161 9.97021 31.6833 9.97021H37.9584C38.1255 9.97021 38.2609 10.1056 38.2609 10.2727C38.2607 10.4398 38.1255 10.5751 37.9584 10.5751Z" fill="#2E87BF"/>
<path d="M34.8185 71.367C35.5251 71.367 36.098 70.7942 36.098 70.0876C36.098 69.3809 35.5251 68.8081 34.8185 68.8081C34.1119 68.8081 33.5391 69.3809 33.5391 70.0876C33.5391 70.7942 34.1119 71.367 34.8185 71.367Z" fill="white"/>
<path d="M59.8484 10.2729C59.3171 8.90222 57.9893 7.92871 56.4309 7.92871H13.2097C11.6514 7.92871 10.3234 8.90222 9.79231 10.2729L7 15.6217H62.6501L59.8484 10.2729Z" fill="#EB6E58"/>
<path d="M12.3311 15.6219H18.468L21.2852 7.92871H15.7635L12.3311 15.6219Z" fill="#F4F2F9"/>
<path d="M32.1246 7.92871H26.4453L24.7559 15.6219H31.2046L32.1246 7.92871Z" fill="#F4F2F9"/>
<path d="M53.9358 7.92871H48.4141L51.2313 15.6219H57.3682L53.9358 7.92871Z" fill="#F4F2F9"/>
<path d="M43.2555 7.92871H37.5762L38.4962 15.6219H44.9449L43.2555 7.92871Z" fill="#F4F2F9"/>
<path d="M28.0294 19.2593H27.9318C26.1778 19.2593 24.7559 17.8374 24.7559 16.0834V15.6216H31.2055V16.0834C31.2053 17.8374 29.7834 19.2593 28.0294 19.2593Z" fill="#D4D3DD"/>
<path d="M21.6825 19.2593H21.5378C19.8407 19.2593 18.4648 17.8835 18.4648 16.1864V15.6216H24.7555V16.1864C24.7555 17.8835 23.3797 19.2593 21.6825 19.2593Z" fill="#CB4C36"/>
<path d="M15.3969 19.2593C13.7021 19.2593 12.3281 17.8854 12.3281 16.1906V15.6216H18.4658V16.1906C18.4658 17.8854 17.0918 19.2593 15.3969 19.2593Z" fill="#D4D3DD"/>
<path d="M9.66388 19.2593C8.19262 19.2593 7 18.0667 7 16.5955V15.6216H12.3278V16.5955C12.3278 18.0667 11.1351 19.2593 9.66388 19.2593Z" fill="#CB4C36"/>
<path d="M41.7164 19.2593H41.719C43.5002 19.2593 44.9442 17.8154 44.9442 16.0341V15.6216H38.4912V16.0341C38.4912 17.8154 39.9352 19.2593 41.7164 19.2593Z" fill="#D4D3DD"/>
<path d="M48.0851 19.2593H48.0877C49.8217 19.2593 51.2274 17.8537 51.2274 16.1197V15.6216H44.9453V16.1197C44.9455 17.8537 46.3512 19.2593 48.0851 19.2593Z" fill="#CB4C36"/>
<path d="M54.2665 19.2593H54.3287C56.0077 19.2593 57.3686 17.8982 57.3686 16.2194V15.6216H51.2266V16.2194C51.2266 17.8982 52.5875 19.2593 54.2665 19.2593Z" fill="#D4D3DD"/>
<path d="M60.0088 19.2593C61.4672 19.2593 62.6494 18.0772 62.6494 16.6187V15.6216H57.3682V16.6187C57.3682 18.077 58.5505 19.2593 60.0088 19.2593Z" fill="#CB4C36"/>
<path d="M34.847 19.2593C32.8351 19.2593 31.2041 17.6307 31.2041 15.6216H38.4901C38.4901 17.6305 36.8591 19.2593 34.847 19.2593Z" fill="#CB4C36"/>
<path d="M27.8037 42.1027C27.8036 40.8398 26.7799 39.8161 25.517 39.8159H11.9556V62.1864H25.517C26.7799 62.1862 27.8037 61.1626 27.8037 59.8996V42.1027ZM29.4751 59.8996C29.4751 62.0857 27.703 63.8576 25.517 63.8578H10.2842V38.1445H25.517C27.703 38.1447 29.475 39.9167 29.4751 42.1027V59.8996Z" fill="white"/>
<path d="M24.6009 44.9288C25.8577 44.9288 26.8766 43.9099 26.8766 42.6531C26.8766 41.3963 25.8577 40.3774 24.6009 40.3774C23.3441 40.3774 22.3252 41.3963 22.3252 42.6531C22.3252 43.9099 23.3441 44.9288 24.6009 44.9288Z" stroke="white" stroke-width="2" stroke-miterlimit="10"/>
<path d="M23.1367 42.0599L24.601 43.5103L26.8767 40.7334" stroke="#A8D29F" stroke-width="2" stroke-miterlimit="10" stroke-linecap="round" stroke-linejoin="round"/>
<path opacity="0.65" d="M24.7737 48.1934H11.1201V50.6477H24.7737V48.1934Z" fill="white"/>
<path opacity="0.65" d="M19.2006 44.0407H11.1201V41.5864H19.2006C19.8783 41.5864 20.4277 42.1358 20.4277 42.8135C20.4277 43.4915 19.8783 44.0407 19.2006 44.0407Z" fill="white"/>
<path opacity="0.65" d="M24.7737 52.9761H11.1201V58.0303H24.7737V52.9761Z" fill="white"/>
<path d="M59.3554 38.1445V63.8578H35.9386C33.7525 63.8577 31.9805 62.0858 31.9805 59.8996V42.1027C31.9806 39.9166 33.7526 38.1446 35.9386 38.1445H59.3554ZM33.6519 59.8996C33.6519 61.1627 34.6756 62.1863 35.9386 62.1864H57.684V39.8159H35.9386C34.6757 39.816 33.652 40.8397 33.6519 42.1027V59.8996Z" fill="white"/>
<path opacity="0.65" d="M58.5195 48.1934H48.46V50.6477H58.5195V48.1934Z" fill="white"/>
<path opacity="0.65" d="M53.2853 44.041H36.5659C35.8883 44.041 35.3389 43.4916 35.3389 42.814C35.3389 42.1363 35.8883 41.5869 36.5659 41.5869H53.2853C53.963 41.5869 54.5124 42.1363 54.5124 42.814C54.5124 43.4918 53.963 44.041 53.2853 44.041Z" fill="white"/>
<path opacity="0.65" d="M58.5195 52.9761H48.46V58.0303H58.5195V52.9761Z" fill="white"/>
<path opacity="0.65" d="M42.7727 58.0304H35.8875C35.5845 58.0304 35.3389 57.7847 35.3389 57.4817V47.3075C35.3389 47.0045 35.5845 46.7588 35.8875 46.7588H42.7727C43.0757 46.7588 43.3214 47.0045 43.3214 47.3075V57.4817C43.3214 57.7847 43.0757 58.0304 42.7727 58.0304Z" stroke="white" stroke-width="2" stroke-miterlimit="10"/>
<path d="M40.4958 51.8518L40.9271 50.1352L41.7892 50.667L42.4359 49.5118L41.2022 48.6361C41.0229 48.5088 40.8085 48.4404 40.5887 48.4404H39.9189C39.9195 48.4509 39.922 48.461 39.922 48.4716C39.922 48.7995 39.6562 49.0653 39.3283 49.0653C39.0004 49.0653 38.7345 48.7995 38.7345 48.4716C38.7345 48.461 38.7371 48.4509 38.7377 48.4404H38.0679C37.8481 48.4404 37.6337 48.5088 37.4544 48.6361L36.2207 49.5118L36.8674 50.667L37.7295 50.1352L38.1608 51.8518L36.7589 56.3487H39.0956H39.561H41.8976L40.4958 51.8518Z" fill="white"/>
<path d="M31.6439 34.3173H15.6476C15.0095 34.3173 14.4922 33.7999 14.4922 33.1618V24.0148C14.4922 23.3767 15.0095 22.8594 15.6476 22.8594H31.6439C32.282 22.8594 32.7994 23.3767 32.7994 24.0148V33.1618C32.7994 33.7999 32.282 34.3173 31.6439 34.3173Z" fill="white"/>
<path d="M30.9566 25.949H25.6862C25.2802 25.949 24.9512 25.62 24.9512 25.214C24.9512 24.808 25.2802 24.479 25.6862 24.479H30.9566C31.3625 24.479 31.6916 24.808 31.6916 25.214C31.6916 25.6198 31.3625 25.949 30.9566 25.949Z" fill="#B2D1FF"/>
<path d="M30.9566 28.199H25.6862C25.2802 28.199 24.9512 27.8698 24.9512 27.464C24.9512 27.058 25.2802 26.729 25.6862 26.729H30.9566C31.3625 26.729 31.6916 27.058 31.6916 27.464C31.6916 27.8698 31.3625 28.199 30.9566 28.199Z" fill="#B2D1FF"/>
<path d="M30.9566 30.448H25.6862C25.2802 30.448 24.9512 30.119 24.9512 29.713C24.9512 29.3071 25.2802 28.978 25.6862 28.978H30.9566C31.3625 28.978 31.6916 29.3071 31.6916 29.713C31.6916 30.1188 31.3625 30.448 30.9566 30.448Z" fill="#B2D1FF"/>
<path d="M23.012 32.6982H16.4123C15.9651 32.6982 15.6025 32.3356 15.6025 31.8884V25.2887C15.6025 24.8416 15.9651 24.479 16.4123 24.479H23.012C23.4592 24.479 23.8217 24.8416 23.8217 25.2887V31.8884C23.8217 32.3356 23.4592 32.6982 23.012 32.6982Z" fill="#B2D1FF"/>
<path d="M21.1009 25.4798C20.9804 25.423 20.8487 25.3936 20.7155 25.3936H20.4535C20.4537 25.3989 20.4552 25.404 20.4552 25.4093C20.4552 25.82 20.1221 26.1531 19.7114 26.1531C19.3006 26.1531 18.9678 25.82 18.9678 25.4093C18.9678 25.4038 18.9692 25.3989 18.9692 25.3936H18.7074C18.5741 25.3936 18.4425 25.423 18.3218 25.4798L16.3213 26.4222L16.9542 27.9255L17.777 27.609V31.562H21.6456V27.609L22.4685 27.9255L23.1014 26.4222L21.1009 25.4798Z" fill="#DCE9FF"/>
<path d="M53.9955 34.3173H37.9992C37.3611 34.3173 36.8438 33.7999 36.8438 33.1618V24.0148C36.8438 23.3767 37.3611 22.8594 37.9992 22.8594H53.9955C54.6336 22.8594 55.1509 23.3767 55.1509 24.0148V33.1618C55.1507 33.7999 54.6336 34.3173 53.9955 34.3173Z" fill="white"/>
<path d="M53.3072 25.949H48.0367C47.6308 25.949 47.3018 25.62 47.3018 25.214C47.3018 24.808 47.6308 24.479 48.0367 24.479H53.3072C53.7131 24.479 54.0422 24.808 54.0422 25.214C54.0422 25.6198 53.7131 25.949 53.3072 25.949Z" fill="#B2D1FF"/>
<path d="M53.3072 28.199H48.0367C47.6308 28.199 47.3018 27.8698 47.3018 27.464C47.3018 27.058 47.6308 26.729 48.0367 26.729H53.3072C53.7131 26.729 54.0422 27.058 54.0422 27.464C54.0422 27.8698 53.7131 28.199 53.3072 28.199Z" fill="#B2D1FF"/>
<path d="M53.3072 30.448H48.0367C47.6308 30.448 47.3018 30.119 47.3018 29.713C47.3018 29.3071 47.6308 28.978 48.0367 28.978H53.3072C53.7131 28.978 54.0422 29.3071 54.0422 29.713C54.0422 30.1188 53.7131 30.448 53.3072 30.448Z" fill="#B2D1FF"/>
<path d="M45.3616 32.6982H38.7619C38.3147 32.6982 37.9521 32.3356 37.9521 31.8884V25.2887C37.9521 24.8416 38.3147 24.479 38.7619 24.479H45.3616C45.8088 24.479 46.1713 24.8416 46.1713 25.2887V31.8884C46.1715 32.3356 45.8088 32.6982 45.3616 32.6982Z" fill="#B2D1FF"/>
<path d="M43.8294 26.3306H40.2933L38.8223 31.4557H41.634H42.4888H45.3005L43.8294 26.3306Z" fill="#DCE9FF"/>
<path d="M43.8289 25.8281H40.2969V26.3306H43.8289V25.8281Z" fill="#DCE9FF"/>
<path d="M40.71 26.3301H43.3663" stroke="#B2D1FF" stroke-miterlimit="10"/>
<path d="M42.0371 26.3691C41.8348 26.3752 41.6214 26.3957 41.4404 26.4846C41.3162 26.5457 41.1007 26.7352 41.3477 26.8117C41.5076 26.8614 41.7533 26.7746 41.874 26.6758C41.9407 26.6214 42.0308 26.4541 42.0371 26.3691Z" stroke="#B2D1FF" stroke-miterlimit="10"/>
<path d="M42.0389 26.4092C41.9959 26.9692 41.7187 27.4602 41.4404 27.7161" stroke="#B2D1FF" stroke-miterlimit="10"/>
<path d="M42.0381 26.4092C42.0571 26.8642 42.2403 27.3426 42.5987 27.637" stroke="#B2D1FF" stroke-miterlimit="10"/>
<path d="M42.0439 26.3898C42.2216 26.3687 42.4312 26.3929 42.6018 26.453C42.7 26.4876 42.8326 26.5944 42.8365 26.6996C42.8414 26.8386 42.6567 26.8573 42.543 26.8449C42.2969 26.8183 42.069 26.5532 42.0439 26.3898Z" stroke="#B2D1FF" stroke-miterlimit="10"/>
<path d="M32.8383 66.6277C33.0488 66.6277 33.2195 66.457 33.2195 66.2465C33.2195 66.0359 33.0488 65.8652 32.8383 65.8652C32.6277 65.8652 32.457 66.0359 32.457 66.2465C32.457 66.457 32.6277 66.6277 32.8383 66.6277Z" fill="#B2D1FF"/>
<path opacity="0.55" d="M34.8246 66.6277C35.0351 66.6277 35.2058 66.457 35.2058 66.2465C35.2058 66.0359 35.0351 65.8652 34.8246 65.8652C34.614 65.8652 34.4434 66.0359 34.4434 66.2465C34.4434 66.457 34.614 66.6277 34.8246 66.6277Z" fill="#B2D1FF"/>
<path opacity="0.35" d="M36.8109 66.6277C37.0215 66.6277 37.1922 66.457 37.1922 66.2465C37.1922 66.0359 37.0215 65.8652 36.8109 65.8652C36.6004 65.8652 36.4297 66.0359 36.4297 66.2465C36.4297 66.457 36.6004 66.6277 36.8109 66.6277Z" fill="#B2D1FF"/>
</svg>
