<svg width="80" height="80" viewBox="0 0 80 80" fill="none" xmlns="http://www.w3.org/2000/svg">
<path d="M35.2142 64.6895H11.6797V73.2066H35.2142V64.6895Z" fill="#64F9EE"/>
<path d="M35.2142 73.2056H11.6797L12.6017 43.3877H34.2919L35.2142 73.2056Z" fill="#DEA040"/>
<path d="M34.2921 43.3877L32.0654 44.5058L33.0598 45.9789L35.2144 73.2056V64.6935L34.2921 43.3877Z" fill="#DEA040"/>
<path d="M12.6017 43.3877L11.6797 64.6882V73.2056L13.834 45.9789L14.8284 44.5058L12.6017 43.3877Z" fill="#DEA040"/>
<path d="M29.0594 44.7757H27.8927V43.9121C27.8927 41.4603 25.8983 39.4665 23.4465 39.4665C20.9953 39.4665 19.0007 41.4603 19.0007 43.9121V44.7757H17.834V43.9121C17.834 40.8175 20.352 38.2998 23.4465 38.2998C26.5416 38.2998 29.0594 40.8178 29.0594 43.9121V44.7757Z" fill="#DEA040"/>
<path d="M29.0594 46.6263H27.8927V45.7627C27.8927 43.3108 25.8983 41.3168 23.4465 41.3168C20.9953 41.3168 19.0007 43.3106 19.0007 45.7627V46.6263H17.834V45.7627C17.834 42.6681 20.352 40.1504 23.4465 40.1504C26.5416 40.1504 29.0594 42.6684 29.0594 45.7627V46.6263Z" fill="#FFD05C"/>
<path d="M35.2142 73.2062H11.6797L13.834 45.9795H33.0595L35.2142 73.2062Z" fill="#FFD05C"/>
<path d="M34.0497 67.3555H18.75V72.8924H34.0497V67.3555Z" fill="#64F9EE"/>
<path d="M34.0497 72.8924H18.75L19.3494 53.5078H33.4502L34.0497 72.8924Z" fill="#CB4C36"/>
<path d="M33.4505 53.5078L32.0029 54.2347L32.6494 55.1924L34.0501 72.8924V67.3587L33.4505 53.5078Z" fill="#CB4C36"/>
<path d="M19.3494 53.5078L18.75 67.3553V72.8924L20.1505 55.1924L20.797 54.2347L19.3494 53.5078Z" fill="#CB4C36"/>
<path d="M30.0486 54.4102H29.2901V53.8487C29.2901 52.2548 27.9936 50.9587 26.3997 50.9587C24.8061 50.9587 23.5094 52.2548 23.5094 53.8487V54.4102H22.751V53.8487C22.751 51.837 24.3879 50.2002 26.3997 50.2002C28.4118 50.2002 30.0486 51.8372 30.0486 53.8487V54.4102Z" fill="#CB4C36"/>
<path d="M30.0486 55.6123H29.2901V55.0509C29.2901 53.4569 27.9936 52.1606 26.3997 52.1606C24.8061 52.1606 23.5094 53.4568 23.5094 55.0509V55.6123H22.751V55.0509C22.751 53.0391 24.3879 51.4023 26.3997 51.4023C28.4118 51.4023 30.0486 53.0393 30.0486 55.0509V55.6123Z" fill="#EB6E58"/>
<path d="M34.0497 72.8934H18.75L20.1505 55.1934H32.649L34.0497 72.8934Z" fill="#EB6E58"/>
<path d="M66.4285 74H32.5261C31.4811 74 30.6338 73.1527 30.6338 72.1077V7.89233C30.6338 6.84729 31.4811 6 32.5261 6H66.4283C67.4733 6 68.3206 6.84729 68.3206 7.89233V72.1079C68.3209 73.1529 67.4736 74 66.4285 74Z" fill="#699FF0"/>
<path d="M39.2278 6.47308H32.7627C31.7176 6.47308 30.8703 7.32037 30.8703 8.36541V72.581C30.8703 72.7917 30.9063 72.9938 30.9699 73.1832C30.7584 72.8778 30.6338 72.5077 30.6338 72.1079V7.89233C30.6338 6.84729 31.4811 6 32.5261 6H39.2635C39.2481 6.15659 39.2363 6.31436 39.2278 6.47308ZM66.4285 6H59.799C59.8146 6.15683 59.8281 6.31436 59.8366 6.47308H66.6651C67.3106 6.47308 67.8797 6.79691 68.2213 7.29009C67.9696 6.5405 67.2628 6 66.4285 6Z" fill="#2C3B5B"/>
<g opacity="0.5">
<path d="M66.6498 9.94238H32.7793V70.5323H66.6498V9.94238Z" fill="black"/>
</g>
<path d="M66.4135 9.70508H32.543V70.295H66.4135V9.70508Z" fill="#EBF2F9"/>
<path d="M62.8496 49.5887L35.3804 49.8111C34.8278 49.8154 34.376 49.3712 34.3717 48.8186L34.3037 40.3814C34.2994 39.8288 34.7436 39.3771 35.2962 39.3728L62.7654 39.1504C63.318 39.1461 63.7697 39.5902 63.774 40.1429L63.8426 48.5801C63.8463 49.1321 63.4022 49.5839 62.8496 49.5887Z" fill="white"/>
<path d="M42.9977 47.9032L36.2508 47.9577L36.1963 41.2107L42.9432 41.1562L42.9977 47.9032Z" fill="#C2DAFE"/>
<path d="M54.101 41.1875H43.5996V42.6052H54.101V41.1875Z" fill="#C2DAFE"/>
<path d="M54.101 43.1289H43.5996V44.5466H54.101V43.1289Z" fill="#C2DAFE"/>
<path d="M49.5856 45.0723H43.5996V46.49H49.5856V45.0723Z" fill="#C2DAFE"/>
<path d="M62.8496 62.3387L35.3804 62.5611C34.8278 62.5654 34.376 62.1212 34.3717 61.5686L34.3037 53.1314C34.2994 52.5788 34.7436 52.1271 35.2962 52.1228L62.7654 51.9004C63.318 51.8961 63.7697 52.3402 63.774 52.8929L63.8426 61.3301C63.8463 61.8821 63.4022 62.3339 62.8496 62.3387Z" fill="white"/>
<path d="M42.9977 60.6532L36.2508 60.7077L36.1963 53.9607L42.9432 53.9062L42.9977 60.6532Z" fill="#C2DAFE"/>
<path d="M54.101 53.9375H43.5996V55.3552H54.101V53.9375Z" fill="#C2DAFE"/>
<path d="M54.101 55.8789H43.5996V57.2966H54.101V55.8789Z" fill="#C2DAFE"/>
<path d="M49.5856 57.8223H43.5996V59.24H49.5856V57.8223Z" fill="#C2DAFE"/>
<path d="M62.8496 24.0887L35.3804 24.3111C34.8278 24.3154 34.376 23.8712 34.3717 23.3186L34.3037 14.8814C34.2994 14.3288 34.7436 13.8771 35.2962 13.8728L62.7654 13.6504C63.318 13.6461 63.7697 14.0902 63.774 14.6429L63.8426 23.0801C63.8463 23.6321 63.4022 24.0839 62.8496 24.0887Z" fill="white"/>
<path d="M42.9977 22.4032L36.2508 22.4577L36.1963 15.7107L42.9432 15.6562L42.9977 22.4032Z" fill="#C2DAFE"/>
<path d="M54.101 15.6875H43.5996V17.1052H54.101V15.6875Z" fill="#C2DAFE"/>
<path d="M54.101 17.6289H43.5996V19.0466H54.101V17.6289Z" fill="#C2DAFE"/>
<path d="M49.5856 19.5723H43.5996V20.99H49.5856V19.5723Z" fill="#C2DAFE"/>
<path d="M62.8496 36.8387L35.3804 37.0611C34.8278 37.0654 34.376 36.6212 34.3717 36.0686L34.3037 27.6314C34.2994 27.0788 34.7436 26.6271 35.2962 26.6228L62.7654 26.4004C63.318 26.3961 63.7697 26.8402 63.774 27.3929L63.8426 35.8301C63.8463 36.3821 63.4022 36.8339 62.8496 36.8387Z" fill="white"/>
<path d="M42.9977 35.1532L36.2508 35.2077L36.1963 28.4607L42.9432 28.4062L42.9977 35.1532Z" fill="#C2DAFE"/>
<path d="M54.101 28.4375H43.5996V29.8552H54.101V28.4375Z" fill="#C2DAFE"/>
<path d="M54.101 30.3789H43.5996V31.7966H54.101V30.3789Z" fill="#C2DAFE"/>
<path d="M49.5856 32.3223H43.5996V33.74H49.5856V32.3223Z" fill="#C2DAFE"/>
<path d="M51.581 8.11999H47.3725C47.2244 8.11999 47.1045 8.00006 47.1045 7.85198C47.1045 7.70391 47.2244 7.58398 47.3725 7.58398H51.581C51.7291 7.58398 51.849 7.70391 51.849 7.85198C51.849 8.00006 51.7289 8.11999 51.581 8.11999Z" fill="#342A67"/>
</svg>
