<svg width="80" height="80" viewBox="0 0 80 80" fill="none" xmlns="http://www.w3.org/2000/svg">
<g opacity="0.35">
<path d="M42.1309 40.3995H48.2265C51.1157 40.3995 53.4576 37.9973 53.4576 35.0342V28.7822L42.1309 40.3995Z" fill="#8EB9F9"/>
</g>
<g opacity="0.35">
<path d="M11.9948 6.00342C9.10561 6.00342 6.76367 8.40566 6.76367 11.3687V17.5696L18.0406 6.00342H11.9948Z" fill="#8EB9F9"/>
</g>
<g opacity="0.35">
<path d="M37.4937 6.0034L7.16797 37.1068C7.69468 38.3955 8.69741 39.4286 9.95098 39.9746L43.0728 6.00317L37.4937 6.0034Z" fill="#8EB9F9"/>
</g>
<g opacity="0.35">
<path d="M53.4581 11.3686C53.4581 9.28976 52.3046 7.48831 50.6187 6.59741L17.6621 40.3996H34.0052L53.4581 20.4478V11.3686Z" fill="#8EB9F9"/>
</g>
<g opacity="0.15">
<path d="M18.0406 6.0034L6.76367 17.5696V35.0342C6.76367 35.7691 6.90814 36.469 7.16868 37.1068L37.4944 6.00317L18.0406 6.0034Z" fill="#8EB9F9"/>
</g>
<g opacity="0.15">
<path d="M48.2257 6.00342H43.071L9.94922 39.9748C10.5769 40.2483 11.2672 40.3997 11.9923 40.3997H17.6609L50.6175 6.59774C49.9007 6.21863 49.088 6.00342 48.2257 6.00342Z" fill="#8EB9F9"/>
</g>
<g opacity="0.15">
<path d="M53.4568 20.4475L34.0039 40.3994H42.1298L53.4568 28.7818V20.4475Z" fill="#8EB9F9"/>
</g>
<path d="M48.228 7.08041C48.9 7.08041 49.5428 7.24014 50.1387 7.55498C51.539 8.29493 52.4088 9.75611 52.4088 11.3685V20.4476V28.782V35.034C52.4088 37.3985 50.5332 39.322 48.2277 39.322H42.1321H34.0062H17.6633H11.9948C11.4282 39.322 10.8789 39.2079 10.3621 38.9829C9.36637 38.5493 8.55545 37.7134 8.13714 36.69C7.92258 36.1651 7.81372 35.608 7.81372 35.0337V17.5692V11.3682C7.81372 9.00368 9.68935 7.08017 11.9948 7.08017H18.0406H37.4942H43.0733L48.228 7.08041ZM48.228 6.00342H43.0733H37.4942H18.0406H11.9948C9.10561 6.00342 6.76367 8.40566 6.76367 11.3687V17.5696V35.0342C6.76367 35.7691 6.90814 36.469 7.16868 37.1068C7.6954 38.3955 8.69812 39.4286 9.95169 39.9746C10.5794 40.2481 11.2699 40.3995 11.9948 40.3995H17.6633H34.0064H42.1323H48.228C51.1171 40.3995 53.4591 37.9973 53.4591 35.0342V28.7822V20.4478V11.3687C53.4591 9.28986 52.3056 7.48841 50.6197 6.59751C49.903 6.21863 49.0903 6.00342 48.228 6.00342Z" fill="#8EB9F9"/>
<path d="M52.8327 15.9456H7.16797V17.0228H52.8327V15.9456Z" fill="#8EB9F9"/>
<path d="M73.6436 4.41379H7.61531C7.41892 4.41379 7.25977 4.13194 7.25977 3.78416C7.25977 3.43639 7.41892 3.15454 7.61531 3.15454H73.6436C73.84 3.15454 73.9991 3.43639 73.9991 3.78416C73.9991 4.13194 73.8398 4.41379 73.6436 4.41379Z" fill="#8EB9F9"/>
<path d="M69.6639 3.94415H61.9001C61.6371 3.94415 61.4238 3.61288 61.4238 3.2045V2.10073C61.4238 1.69235 61.6371 1.36108 61.9001 1.36108H69.6637C69.9267 1.36108 70.14 1.69235 70.14 2.10073V3.2045C70.14 3.61288 69.9269 3.94415 69.6639 3.94415Z" fill="#8EB9F9"/>
<path d="M19.1949 3.94415H11.4314C11.1684 3.94415 10.9551 3.61288 10.9551 3.2045V2.10073C10.9551 1.69235 11.1684 1.36108 11.4314 1.36108H19.1949C19.4579 1.36108 19.6712 1.69235 19.6712 2.10073V3.2045C19.6712 3.61288 19.4579 3.94415 19.1949 3.94415Z" fill="#8EB9F9"/>
<path d="M26.4671 6.71003L26.7504 1.2472C26.7572 1.11821 26.8645 1.01904 26.9905 1.02598L27.4687 1.0521C27.5945 1.05903 27.6912 1.16907 27.6844 1.29829L27.4011 6.76112C27.3943 6.89011 27.2871 6.98928 27.1611 6.98234L26.6828 6.95622C26.5571 6.94929 26.4604 6.83902 26.4671 6.71003Z" fill="#ECB84C"/>
<path d="M23.9116 11.7415C23.7058 11.6958 23.5359 11.5554 23.448 11.3536C23.3484 11.1255 23.3754 10.8694 23.5203 10.6682L26.3721 6.71536C26.5107 6.52326 26.7318 6.42086 26.9639 6.44097C27.1965 6.46247 27.3971 6.6007 27.5017 6.81384L29.6789 11.2408C29.7877 11.4625 29.7708 11.7277 29.6347 11.9327C29.4986 12.1377 29.2644 12.251 29.0235 12.2284L23.9945 11.7542C23.9664 11.7519 23.9386 11.7478 23.9116 11.7415ZM24.0216 11.049C24.0175 11.0545 24.0069 11.0693 24.0171 11.0924C24.0272 11.1155 24.045 11.1172 24.0518 11.1179L29.0807 11.592C29.0875 11.5927 29.1055 11.5943 29.1195 11.5732C29.1334 11.552 29.1253 11.5356 29.1222 11.5293L26.945 7.10233C26.9423 7.09701 26.9335 7.08013 26.911 7.07875C26.8875 7.07667 26.8769 7.09123 26.8733 7.09609L24.0216 11.049Z" fill="#ECB84C"/>
<path d="M24.4463 11.7996L24.5038 11.1584C24.5155 11.0278 24.6282 10.9314 24.7558 10.9434L28.4619 11.2929C28.5895 11.3049 28.6832 11.4207 28.6715 11.5514L28.6141 12.1926C28.6023 12.3234 28.4894 12.4196 28.3621 12.4076L24.6559 12.0581C24.5283 12.046 24.4346 11.9305 24.4463 11.7996Z" fill="#0F429F"/>
<path opacity="0.35" d="M52.6563 61.969H8.45002C7.43014 61.969 6.60352 60.8486 6.60352 59.4667V46.1337C6.60352 44.7516 7.43031 43.6313 8.45002 43.6313H52.6563C53.6762 43.6313 54.5029 44.7518 54.5029 46.1337V59.4667C54.5029 60.8486 53.6762 61.969 52.6563 61.969Z" fill="#8EB9F9"/>
<path d="M54.4143 63.4578H6.69579C6.31148 63.4578 6 63.0357 6 62.5149V59.0706C6 58.5498 6.31148 58.1277 6.69579 58.1277H54.4143C54.7986 58.1277 55.1101 58.5498 55.1101 59.0706V62.5149C55.1101 63.0357 54.7986 63.4578 54.4143 63.4578Z" fill="#8EB9F9"/>
<path opacity="0.35" d="M49.0567 79.4044C62.4044 79.4044 73.2248 78.8927 73.2248 78.2615C73.2248 77.6303 62.4044 77.1187 49.0567 77.1187C35.7091 77.1187 24.8887 77.6303 24.8887 78.2615C24.8887 78.8927 35.7091 79.4044 49.0567 79.4044Z" fill="#8EB9F9"/>
<path d="M69.6939 76.5481L68.2294 76.9566L67.9082 77.4709L68.8009 77.7383L69.7615 77.5446L69.8785 77.1248L69.6939 76.5481Z" fill="#E9B6A5"/>
<path d="M60.4695 76.5481L59.0048 76.9566L58.6836 77.4709L59.5766 77.7383L60.5369 77.5446L60.6539 77.1248L60.4695 76.5481Z" fill="#C68069"/>
<path d="M70.114 76.762L70.1167 76.7617C70.1167 76.7617 70.0092 69.2184 69.8783 66.9526C69.7473 64.6867 69.1638 63.809 69.1638 63.809C69.1638 63.809 69.038 56.6302 68.7653 52.6582C68.6844 51.4809 68.1814 50.8371 67.5151 50.51L67.1099 47.1567L63.3131 45.8782L63.0156 45.7781L63.2424 47.0539L63.8725 50.5985C63.5958 50.6868 63.4265 50.7557 63.4265 50.7557C63.4265 50.7557 63.3312 55.9869 66.2918 64.2077C66.2918 64.2077 67.0085 70.1831 68.5688 76.8621L68.7038 76.8533L68.7299 76.9892L70.1363 77.0847L70.114 76.762Z" fill="#E9B6A5"/>
<path d="M60.8774 77.1674L60.8801 77.1677C60.8801 77.1677 62.1256 69.7325 62.4026 67.4806C62.6796 65.2286 62.2633 64.2558 62.2633 64.2558C62.2633 64.2558 63.4254 57.1756 63.8687 53.2197C64.0001 52.0472 63.6208 51.3195 63.0244 50.8727L63.2268 47.5002L59.7235 45.5282L59.449 45.3738L59.4433 46.6706L59.4278 50.2737C59.14 50.3084 58.961 50.3442 58.961 50.3442C58.961 50.3442 57.9306 55.4684 59.3685 64.1072C59.3685 64.1072 59.0029 70.1158 59.3406 76.9753L59.4747 76.9922L59.476 77.1307L60.8414 77.4894L60.8774 77.1674Z" fill="#E9B6A5"/>
<path d="M68.668 47.3991C67.9186 43.8463 66.3646 42.8207 66.3646 42.8207L66.3013 42.1401L60.2491 42.5107C60.2491 42.5107 59.0736 44.8186 58.7258 47.7139C58.378 50.6092 58.0098 55.2249 58.0098 55.2249C58.0098 55.2249 58.3408 55.2799 58.6221 55.3617C59.3165 55.564 60.8099 55.9357 62.8424 56.085C64.615 56.2154 66.5941 55.8874 67.8404 55.6199C68.6016 55.4565 69.09 55.3157 69.09 55.3157C69.09 55.3157 69.4174 50.9518 68.668 47.3991Z" fill="#0F429F"/>
<path d="M70.3481 78.5306H64.8418C64.8418 78.5306 64.856 78.0477 65.0478 77.7865C65.2396 77.5252 67.8139 77.038 68.2268 76.9568C68.2268 76.9568 68.3005 77.2354 68.7183 77.3107C69.1362 77.3861 70.0199 76.8137 70.0199 76.8137L70.1141 76.7617L70.3481 78.5306Z" fill="#3E62BF"/>
<path d="M61.1076 78.5306H55.416C55.416 78.5306 55.4302 78.0477 55.622 77.7865C55.8138 77.5252 58.5941 77.038 59.007 76.9568C59.007 76.9568 59.0807 77.2354 59.4986 77.3107C59.9164 77.3861 60.8001 76.8137 60.8001 76.8137L60.9381 76.7617L61.1076 78.5306Z" fill="#3E62BF"/>
<path d="M66.9011 22.3789C66.9011 22.3789 69.8515 23.5109 70.1477 27.8815C70.4436 32.2523 71.6311 33.5607 71.6311 33.5607C71.6311 33.5607 69.8727 33.6176 67.7965 32.7419C64.9714 31.5505 64.9101 26.7366 65.9495 22.4628L66.9011 22.3789Z" fill="#0F429F"/>
<path d="M66.0717 30.7526C65.813 30.5515 65.0872 30.3261 64.9892 30.3566C64.8986 30.3078 64.1447 30.3901 63.8537 30.5381C62.9905 30.9766 62.1393 31.2387 61.4746 31.5788C61.6173 32.0193 61.7034 32.5041 61.8129 32.8957C62.0045 33.5818 62.1354 34.2572 62.2479 34.9431L64.5477 35.156L69.0001 35.5869C69.8791 35.6719 70.0197 34.5182 70.0197 34.5182C70.1667 32.9031 67.6469 31.9757 66.0717 30.7526Z" fill="#E9B6A5"/>
<path d="M63.9003 29.3235C63.9003 29.3235 62.9525 26.3052 63.086 25.3634L62.9219 21.6246C63.0553 20.6828 63.6354 19.7677 64.4829 19.7476L66.5618 19.6983C67.409 19.6782 68.1996 20.6211 68.0662 21.5626L66.8915 27.0632C66.7579 28.0049 66.0777 29.2518 63.9003 29.3235Z" fill="#E8A690"/>
<path d="M63.8704 29.3263L63.8149 29.3326C62.5913 29.3615 61.6073 28.318 61.5791 27.063L61.2505 22.6971C61.2253 21.5782 62.0973 20.6416 63.1884 20.6159L65.9238 20.5512C66.2369 20.5438 66.8819 20.7939 66.8891 21.1148L66.5452 26.0702C66.5842 27.7986 65.5553 29.2866 63.8704 29.3263Z" fill="#E9B6A5"/>
<path d="M61.9557 24.6447C61.944 24.9714 62.0961 25.2421 62.2954 25.2497C62.4946 25.2573 62.6657 24.9986 62.6774 24.672C62.6891 24.3454 62.537 24.0745 62.3377 24.0671C62.1385 24.0594 61.9674 24.3181 61.9557 24.6447Z" fill="#29386B"/>
<path d="M64.7965 24.6986C64.7688 25.0241 64.9074 25.3024 65.1062 25.3202C65.305 25.338 65.4884 25.0886 65.5161 24.7629C65.5439 24.4374 65.4053 24.1588 65.2065 24.1413C65.0077 24.1237 64.8242 24.3731 64.7965 24.6986Z" fill="#29386B"/>
<path d="M62.7695 25.812C62.7695 25.812 62.8899 26.3409 63.2893 26.3289C63.6886 26.3171 63.8863 25.9167 63.8863 25.9167C63.8863 25.9167 63.5228 26.0707 63.28 26.0485C63.0375 26.0268 62.7695 25.812 62.7695 25.812Z" fill="#AE6051"/>
<path d="M64.3242 20.8876C64.3242 20.8876 65.0995 22.1692 66.1994 23.5758C67.2476 24.9163 67.0942 25.9295 67.1273 26.9661C67.1273 26.9661 71.0575 19.4766 65.3229 19.4082L64.3242 20.8876Z" fill="#0F429F"/>
<path d="M68.3009 25.8152C68.0311 26.4225 67.5069 26.7715 67.1301 26.5952C67.0929 26.5778 67.0586 26.5559 67.0271 26.53C66.7395 26.2937 66.693 25.7237 66.9362 25.1763C67.206 24.569 67.7303 24.22 68.1071 24.3963C68.4839 24.573 68.5707 25.2082 68.3009 25.8152Z" fill="#E8A690"/>
<path d="M64.8008 21.1065C64.8008 21.1065 61.6576 23.1941 60.8537 24.8962C60.8537 24.8962 59.4601 18.1324 65.3223 19.4079L64.8008 21.1065Z" fill="#0F429F"/>
<path d="M65.4548 21.2081C65.4548 21.2081 64.009 22.1936 62.9199 23.8455C62.9199 23.8455 63.0772 21.6961 63.5796 20.4571C64.082 19.2183 65.226 20.0347 65.226 20.0347L65.4548 21.2081Z" fill="#0F429F"/>
<path d="M65.8317 25.2895C65.8317 25.2895 65.6987 24.9915 65.1607 24.9421C64.6227 24.8926 64.1875 25.3401 64.1875 25.3401L64.9673 25.663L65.8317 25.2895Z" fill="#E9B6A5"/>
<path d="M63.1109 25.239C63.1109 25.239 62.978 24.941 62.44 24.8915C61.902 24.842 61.4668 25.2896 61.4668 25.2896L62.2466 25.6125L63.1109 25.239Z" fill="#E9B6A5"/>
<path d="M65.25 24.215L65.692 24.1699L65.4238 24.4584L65.25 24.215Z" fill="#29386B"/>
<path d="M62.2704 24.1108L61.8262 24.1132L62.1234 24.3714L62.2704 24.1108Z" fill="#29386B"/>
<path d="M65.2129 24.1944L65.4302 24.0215L65.4076 24.2802L65.6905 24.3927L65.4613 24.5682L65.2129 24.1944Z" fill="#29386B"/>
<path d="M62.2686 24.1302L62.0513 23.9573L62.0739 24.2159L61.791 24.3285L62.0588 24.4457L62.2686 24.1302Z" fill="#29386B"/>
<path d="M63.3671 27.7221C63.1174 27.7221 62.9206 27.6955 62.9082 27.6939L62.9361 27.4803C62.9404 27.481 63.3696 27.5388 63.7475 27.4805C64.1014 27.4262 64.3301 27.1749 64.3324 27.1726L64.4877 27.3178C64.4764 27.3305 64.2089 27.6275 63.7789 27.6936C63.6396 27.7151 63.4962 27.7221 63.3671 27.7221Z" fill="#AE6051"/>
<path d="M64.652 27.5294C64.2542 27.3595 64.19 26.9725 64.1875 26.9561L64.3949 26.9216C64.3969 26.9332 64.446 27.2078 64.7329 27.3306L64.652 27.5294Z" fill="#AE6051"/>
<path d="M70.2348 37.8306C70.1282 37.8102 70.0259 37.7691 69.928 37.7166C69.4527 37.8343 68.66 37.3072 68.207 37.3999C68.281 38.6332 68.4272 40.7273 68.5647 41.9825C68.5647 41.9825 68.3472 44.1515 68.4362 45.59C68.5253 47.0285 68.7815 49.5193 68.7815 49.5193L69.8012 52.1504C69.8012 52.1504 70.327 45.1342 70.553 41.8188C70.553 41.8188 70.6319 39.5874 70.7505 37.6135C70.624 37.6302 70.3671 37.8558 70.2348 37.8306Z" fill="#E9B6A5"/>
<path d="M59.6177 33.0241C59.6502 33.1218 59.6777 33.2145 59.7079 33.3105C60.5783 32.537 61.3996 31.7275 62.0491 30.7411C60.7209 29.7984 60.2127 26.8821 59.1865 24.8862C59.1865 24.8862 58.5435 22.5115 57.8717 21.0348C57.1998 19.5584 56.1466 16.643 56.1466 16.643L54.8398 16.1497C54.8398 16.1497 56.283 22.3099 57.3776 25.895C57.3776 25.895 58.7883 30.5245 59.6177 33.0241Z" fill="#E9B6A5"/>
<path d="M61.3853 32.6306C61.3853 32.6306 61.0664 33.5936 59.6875 34.4147C59.7806 34.896 59.8671 35.3949 59.9422 35.9064C59.9422 35.9064 60.3521 35.8378 60.8207 35.516L61.3682 33.169L61.3853 32.6306Z" fill="#BF2727"/>
<path d="M62.4896 30.8821C61.7943 30.5308 60.4576 27.5869 60.4576 27.5869C60.4576 27.5869 59.3922 27.7166 58.209 28.9864C58.209 28.9864 59.09 31.3274 59.6875 34.4145C61.0664 33.5934 61.3853 32.6304 61.3853 32.6304L61.3679 33.1688L60.8205 35.5158C61.285 35.1968 61.8072 34.6291 62.0459 33.6314C62.5255 31.6267 62.4896 30.8821 62.4896 30.8821Z" fill="#DD4B4B"/>
<path d="M56.165 16.6926C55.9281 16.0919 56.0449 15.8517 56.0449 15.8517C56.0449 15.8517 56.5448 15.6785 56.6692 15.5509C56.7936 15.4233 56.9078 14.9437 56.9078 14.9437L54.2812 14.8926C54.2812 14.8926 54.2812 15.2752 54.3509 15.612C54.4205 15.9488 54.8722 16.4011 54.8722 16.4011L55.8233 17.1631L56.165 16.6926Z" fill="#E9B6A5"/>
<path d="M64.6815 32.0617C64.0322 32.0404 63.5228 31.4833 63.5436 30.8173L63.6371 27.8154L65.9883 27.8924L65.8948 30.8945C65.874 31.5605 65.3308 32.0829 64.6815 32.0617Z" fill="#E9B6A5"/>
<path d="M59.8031 38.778C58.7531 37.3814 59.3763 36.0892 59.9578 35.2815C60.413 34.6488 60.7545 33.9389 60.9882 33.1902L61.7768 30.6631L63.4124 34.9666L67.6338 31.8325L68.6683 35.561L66.3649 42.8206C65.4751 42.9607 62.0646 43.4258 60.2354 42.6655C60.3754 41.1939 60.3725 39.5351 59.8031 38.778Z" fill="#DD4B4B"/>
<path d="M59.9707 38.9934C59.9707 38.9934 60.6099 39.6756 62.2175 39.388C62.2175 39.388 61.3311 40.1307 60.213 39.8073L59.9707 38.9934Z" fill="#BF2727"/>
<path d="M63.584 39.2589C63.584 39.2589 65.7195 40.0058 66.8993 39.0649L66.3188 40.0118C66.3188 40.0118 64.6471 40.2173 63.584 39.2589Z" fill="#BF2727"/>
<path d="M67.6454 31.7825L67.6513 31.7862L67.6357 31.8319C67.6357 31.8319 69.4192 33.3768 69.6711 35.1394C69.8118 36.1235 69.9064 37.6374 69.9625 38.7828C69.5738 38.9381 69.045 39.0412 68.285 39.0095C68.276 38.973 68.2668 38.9367 68.2578 38.9002C68.0267 37.9728 67.7935 36.9901 67.5613 35.9459L67.2012 33.4968L67.6454 31.7825Z" fill="#DD4B4B"/>
<path d="M67.6328 31.8321L67.6484 31.7864L69.0631 32.6992C69.7489 33.1918 70.5346 34.4302 70.5812 35.2876C70.6329 36.2372 70.7088 37.144 70.8014 38.0077C70.8087 38.0758 70.8168 38.1422 70.8244 38.2097C70.6245 38.396 70.3703 38.6186 69.9594 38.783C69.9033 37.6376 69.8089 36.1237 69.668 35.1396C69.4163 33.377 67.6328 31.8321 67.6328 31.8321Z" fill="#BF2727"/>
<path d="M68.018 37.6076L67.5073 35.5583C67.2175 37.2035 67.3081 38.8672 66.1951 39.947C66.1679 40.0332 66.1392 40.1187 66.1095 40.2031C65.8447 40.9562 65.7998 42.0635 65.6855 42.9153C65.9738 42.8793 66.2082 42.8446 66.3639 42.8201L68.018 37.6076Z" fill="#BF2727"/>
<path d="M67.6345 31.8323C67.6345 31.8323 65.2436 33.3776 63.885 33.1975C62.5264 33.0177 62.9222 30.9428 62.9222 30.9428C62.9222 30.9428 62.2557 30.8644 61.7775 30.6628C61.7775 30.6628 61.2668 35.7211 62.9222 35.7211C64.5776 35.7214 67.7582 33.6273 67.6345 31.8323Z" fill="#DD4B4B"/>
<path d="M68.4154 44.8889C68.4837 48.751 68.8677 51.0459 68.8677 51.0459C68.8677 51.0459 68.2159 52.3469 68.1992 52.7931C68.1992 52.7931 68.2957 52.8918 68.4149 52.8275C68.5339 52.763 68.764 52.2697 68.764 52.2697C68.764 52.2697 68.6175 53.8102 68.7011 54.012C68.7848 54.2136 69.4544 54.3423 69.6759 54.2996C69.8977 54.2566 70.0985 52.8834 70.1235 52.6604C70.1485 52.4373 69.9018 51.2829 69.9018 51.2829L69.3703 47.8929L68.4154 44.8889Z" fill="#E9B6A5"/>
<path d="M52.4972 14.8387C52.2905 14.7978 52.1174 14.6616 52.0248 14.4619C51.92 14.2363 51.9414 13.9795 52.0818 13.7751L54.8434 9.75543C54.9775 9.5601 55.1963 9.45237 55.4287 9.46717C55.6618 9.48312 55.8653 9.61673 55.9748 9.82709L58.2516 14.2011C58.3654 14.4201 58.3546 14.6857 58.223 14.8939C58.0916 15.1022 57.8599 15.221 57.6187 15.2042L52.5806 14.8498C52.5524 14.8477 52.5244 14.844 52.4972 14.8387ZM52.5916 14.1436C52.5878 14.1494 52.5774 14.1642 52.588 14.187C52.5986 14.2099 52.6164 14.2111 52.6234 14.2116L57.6616 14.5659C57.6683 14.5664 57.6864 14.5678 57.6999 14.5463C57.7134 14.5248 57.7048 14.5084 57.7017 14.5021L55.4249 10.1281C55.4222 10.1227 55.4127 10.1061 55.3904 10.1052C55.367 10.1036 55.3566 10.1186 55.3532 10.1234L52.5916 14.1436Z" fill="#ECB84C"/>
<path d="M54.9415 9.7472L55.102 1.31231C55.1058 1.18309 55.2108 1.0816 55.3368 1.0853L55.8155 1.1001C55.9415 1.10403 56.0405 1.21175 56.0369 1.34097L55.8764 9.77586C55.8726 9.90508 55.7675 10.0066 55.6415 10.0029L55.1628 9.98807C55.0366 9.98414 54.9377 9.87642 54.9415 9.7472Z" fill="#ECB84C"/>
<path d="M53.0376 14.8842L53.0807 14.2418C53.0895 14.1107 53.2001 14.012 53.3277 14.0208L57.0406 14.282C57.1684 14.291 57.2647 14.4045 57.2561 14.5354L57.213 15.1778C57.2043 15.3088 57.0936 15.4076 56.966 15.3988L53.2529 15.1376C53.1253 15.1285 53.0291 15.0153 53.0376 14.8842Z" fill="#0F429F"/>
<path d="M54.9652 13.8081C55.8633 13.9181 55.9949 13.864 56.0659 14.088C56.1367 14.312 55.9568 14.5794 55.7716 14.5857C55.5863 14.5919 54.6273 14.5732 54.4148 14.5173C54.2022 14.4613 54.1315 14.1874 54.1315 14.0817C54.1315 13.9759 54.015 13.6915 54.9652 13.8081Z" fill="#E9B6A5"/>
<path d="M67.5259 26.5413C67.5259 26.6992 67.4013 26.827 67.2473 26.827C67.0934 26.827 66.9688 26.6992 66.9688 26.5413C66.9688 26.3835 67.0934 26.2556 67.2473 26.2556C67.4013 26.2554 67.5259 26.3835 67.5259 26.5413Z" fill="#ECB84C"/>
</svg>
