<svg width="80" height="80" viewBox="0 0 80 80" fill="none" xmlns="http://www.w3.org/2000/svg">
<path d="M21.1508 18.1256L21.1876 18.1275L21.5974 7.74141L22.7497 7.80082C22.7488 7.813 22.745 7.824 22.7446 7.83634C22.7041 8.86593 23.5036 9.74369 24.5309 9.7965C25.5582 9.84931 26.4237 9.05761 26.4643 8.02778C26.4647 8.01544 26.4619 8.00416 26.462 7.99198L27.7411 8.05782C27.7402 8.07 27.7365 8.081 27.736 8.09334C27.6956 9.12293 28.4951 10.0004 29.5223 10.0535C30.5496 10.1063 31.4149 9.31454 31.4557 8.28478C31.4561 8.27244 31.4533 8.26116 31.4534 8.24898L32.7323 8.31474C32.7316 8.327 32.7279 8.338 32.7272 8.35027C32.6868 9.37986 33.4866 10.2574 34.5135 10.3104C35.5405 10.3634 36.4063 9.57154 36.4469 8.54171C36.4473 8.52936 36.4445 8.51808 36.4446 8.5059L37.7235 8.57166C37.7228 8.58393 37.7191 8.59492 37.7184 8.60719C37.6777 9.6367 38.4774 10.5145 39.5047 10.5673C40.5318 10.6201 41.3973 9.82838 41.4381 8.79863C41.4388 8.78637 41.4357 8.77501 41.4358 8.76283L42.7147 8.82859C42.714 8.84085 42.7103 8.85185 42.7096 8.86411C42.6689 9.89362 43.4686 10.7715 44.4959 10.8243C45.523 10.877 46.3885 10.0853 46.4293 9.05555C46.4297 9.04321 46.4269 9.03193 46.427 9.01975L47.7059 9.08551C47.7052 9.09777 47.7015 9.10877 47.7008 9.12103C47.6603 10.1506 48.4598 11.0284 49.4871 11.0812C50.5141 11.1342 51.3797 10.3422 51.4202 9.3124C51.4209 9.30013 51.4182 9.28861 51.4182 9.27667L52.6971 9.34243C52.6965 9.35446 52.6924 9.36562 52.692 9.37796C52.6513 10.4075 53.451 11.2853 54.4783 11.3381C55.5053 11.3911 56.3709 10.5991 56.4114 9.56932C56.4119 9.55698 56.409 9.5457 56.4091 9.53352L57.688 9.59928C57.6873 9.61154 57.6834 9.62246 57.6829 9.6348C57.6422 10.6643 58.442 11.5421 59.4692 11.595C60.4962 11.6479 61.3618 10.856 61.4024 9.82616C61.403 9.8139 61.4003 9.80238 61.4004 9.7902L62.6732 9.85583L60.5588 62.5116L60.149 72.8978L58.9964 72.8385C58.9971 72.8263 59.0011 72.8153 59.0015 72.803C59.042 71.7734 58.2425 70.8957 57.2152 70.8428C56.1882 70.7901 55.3226 71.5818 55.2818 72.6116C55.2814 72.6239 55.2842 72.6352 55.2841 72.6474L54.005 72.5815C54.0057 72.5693 54.0096 72.5583 54.0101 72.546C54.0508 71.5165 53.251 70.6389 52.2238 70.5858C51.1965 70.533 50.331 71.3247 50.2904 72.3546C50.29 72.3669 50.2928 72.3782 50.2927 72.3904L49.0138 72.3246C49.0145 72.3123 49.0182 72.3013 49.0189 72.2891C49.0597 71.2593 48.2599 70.3817 47.2326 70.3289C46.2055 70.2762 45.3398 71.0678 45.2992 72.0976C45.2988 72.11 45.3019 72.1213 45.3015 72.1334L44.0226 72.0677C44.0233 72.0554 44.027 72.0444 44.0277 72.0321C44.0682 71.0026 43.2687 70.1248 42.2414 70.072C41.2144 70.019 40.3488 70.811 40.308 71.8407C40.3076 71.8531 40.3104 71.8643 40.3103 71.8765L39.0314 71.8108C39.0321 71.7985 39.0358 71.7875 39.0365 71.7752C39.0772 70.7457 38.2774 69.8681 37.2502 69.8151C36.2229 69.7623 35.3576 70.554 35.3168 71.5838C35.3164 71.5961 35.3189 71.6076 35.3191 71.6196L34.0403 71.5538C34.0409 71.5416 34.0446 71.5306 34.0451 71.5182C34.0855 70.4886 33.2861 69.6109 32.2588 69.5581C31.2318 69.5051 30.3662 70.297 30.3254 71.3268C30.325 71.3391 30.3278 71.3504 30.3277 71.3626L29.0488 71.2968C29.0495 71.2846 29.0535 71.2736 29.0539 71.2613C29.0944 70.2317 28.2949 69.354 27.2676 69.3012C26.2406 69.2482 25.375 70.0401 25.3342 71.0699C25.3338 71.0822 25.3366 71.0935 25.3362 71.1058L24.0573 71.0401C24.058 71.0278 24.0619 71.0169 24.0624 71.0045C24.1031 69.975 23.3034 69.0972 22.2761 69.0444C21.2491 68.9914 20.3835 69.7834 20.3429 70.8132C20.3425 70.8255 20.3453 70.8368 20.3449 70.8491L19.0721 70.7835L21.1508 18.1256Z" fill="#94B7FF"/>
<path d="M17.3222 18.4487L17.3591 18.4489L17.2689 8.05325L18.4225 8.05629C18.4222 8.06851 18.419 8.07967 18.4192 8.09202C18.4283 9.12255 19.2689 9.96034 20.2975 9.9629C21.326 9.96546 22.1523 9.13227 22.1433 8.1015C22.1431 8.08915 22.1398 8.07802 22.1393 8.06585L23.4199 8.06911C23.4196 8.08133 23.4164 8.0925 23.4166 8.10485C23.4257 9.13537 24.2664 9.97292 25.2949 9.97572C26.3234 9.97828 27.1495 9.14502 27.1407 8.11432C27.1406 8.10197 27.1372 8.09084 27.1367 8.07867L28.4171 8.08187C28.4171 8.09415 28.4139 8.10532 28.4138 8.1176C28.4229 9.14813 29.2639 9.98575 30.2921 9.98848C31.3203 9.99121 32.1469 9.15785 32.1379 8.12708C32.1378 8.11473 32.1344 8.1036 32.1339 8.09142L33.4143 8.09462C33.4142 8.10691 33.4111 8.11807 33.411 8.13036C33.4198 9.16081 34.2608 9.99868 35.2893 10.0012C36.3175 10.0037 37.1439 9.17054 37.1351 8.13984C37.1352 8.12755 37.1316 8.11635 37.1311 8.10418L38.4115 8.10738C38.4114 8.11966 38.4082 8.13083 38.4082 8.14311C38.417 9.17357 39.2579 10.0114 40.2865 10.014C41.3147 10.0165 42.1411 9.18329 42.1323 8.15259C42.1321 8.14024 42.1288 8.12911 42.1283 8.11694L43.4087 8.12014C43.4086 8.13242 43.4054 8.14359 43.4053 8.15587C43.4144 9.18639 44.2551 10.0242 45.2836 10.0267C46.3119 10.0295 47.1383 9.19605 47.1292 8.16528C47.1293 8.153 47.126 8.14162 47.1255 8.12969L48.4059 8.13289C48.4059 8.14493 48.4024 8.15628 48.4025 8.16863C48.4114 9.19908 49.2523 10.0369 50.2808 10.0395C51.309 10.0422 52.1355 9.2088 52.1264 8.17803C52.1263 8.16568 52.1229 8.15455 52.1224 8.14238L53.4028 8.14558C53.4027 8.15786 53.3993 8.16896 53.3995 8.18131C53.4083 9.21177 54.2493 10.0496 55.2778 10.0522C56.306 10.0549 57.1324 9.22149 57.1234 8.19072C57.1234 8.17844 57.1201 8.16707 57.1197 8.15489L58.394 8.15826L58.8149 60.864L58.9051 71.2597L57.7512 71.2568C57.7512 71.2445 57.7547 71.2334 57.7545 71.2211C57.7454 70.1905 56.9047 69.3528 55.8762 69.3502C54.8479 69.3477 54.0216 70.1809 54.0304 71.2116C54.0305 71.2239 54.0339 71.2351 54.0344 71.2472L52.7537 71.244C52.7538 71.2317 52.7572 71.2206 52.7571 71.2082C52.7482 70.1778 51.9072 69.3402 50.8788 69.3374C49.8503 69.3348 49.0239 70.168 49.0329 71.1988C49.0331 71.2111 49.0365 71.2223 49.037 71.2344L47.7565 71.2312C47.7566 71.2189 47.7598 71.2078 47.7599 71.1955C47.7511 70.1648 46.9101 69.3272 45.8816 69.3246C44.8533 69.3221 44.0267 70.1552 44.0357 71.186C44.0359 71.1984 44.0395 71.2096 44.0398 71.2217L42.7594 71.2185C42.7594 71.2062 42.7626 71.195 42.7627 71.1827C42.7536 70.1522 41.9129 69.3144 40.8844 69.3119C39.8562 69.3091 39.0298 70.1426 39.0386 71.1733C39.0387 71.1856 39.0421 71.1967 39.0426 71.2089L37.7622 71.2057C37.7622 71.1934 37.7654 71.1823 37.7655 71.17C37.7567 70.1395 36.9157 69.3019 35.8872 69.2991C34.8587 69.2965 34.0326 70.1298 34.0414 71.1605C34.0415 71.1729 34.0446 71.1842 34.0454 71.1962L32.765 71.193C32.7651 71.1807 32.7682 71.1695 32.7681 71.1572C32.759 70.1266 31.9183 69.2888 30.8898 69.2863C29.8616 69.2835 29.0352 70.117 29.0439 71.1477C29.0441 71.16 29.0475 71.1712 29.048 71.1833L27.7676 71.1801C27.7676 71.1679 27.7711 71.1568 27.7709 71.1444C27.7618 70.1139 26.9211 69.2761 25.8926 69.2735C24.8644 69.2708 24.038 70.1042 24.0468 71.1349C24.0469 71.1473 24.0503 71.1584 24.0505 71.1708L22.7701 71.1676C22.7701 71.1553 22.7736 71.1442 22.7734 71.1318C22.7646 70.1014 21.9236 69.2635 20.8951 69.2609C19.8669 69.2582 19.0405 70.0916 19.0495 71.1224C19.0497 71.1348 19.053 71.1459 19.0532 71.1582L17.7789 71.1549L17.3222 18.4487Z" fill="#94B7FF"/>
<path d="M17.3242 16.8037L17.3611 16.8039L17.2708 6.40823L18.4245 6.41127C18.4241 6.42349 18.421 6.43466 18.4211 6.44701C18.4302 7.47753 19.2709 8.31533 20.2994 8.31788C21.3279 8.32044 22.1543 7.48725 22.1453 6.45648C22.1451 6.44413 22.1417 6.433 22.1412 6.42083L23.4219 6.42409C23.4216 6.43631 23.4184 6.44748 23.4186 6.45983C23.4276 7.49035 24.2684 8.3279 25.2969 8.3307C26.3254 8.33326 27.1515 7.50001 27.1427 6.4693C27.1425 6.45695 27.1392 6.44582 27.1387 6.43365L28.4191 6.43685C28.419 6.44913 28.4158 6.4603 28.4157 6.47258C28.4248 7.50311 29.2658 8.34073 30.294 8.34346C31.3223 8.34619 32.1489 7.51283 32.1399 6.48206C32.1397 6.46971 32.1363 6.45858 32.1359 6.44641L33.4163 6.4496C33.4162 6.46189 33.413 6.47305 33.4129 6.48534C33.4218 7.5158 34.2627 8.35366 35.2912 8.35622C36.3195 8.3587 37.1458 7.52552 37.1371 6.49482C37.1371 6.48253 37.1335 6.47133 37.133 6.45916L38.4135 6.46236C38.4134 6.47464 38.4102 6.48581 38.4101 6.4981C38.419 7.52855 39.2599 8.36642 40.2884 8.36897C41.3167 8.37146 42.143 7.53827 42.1342 6.50757C42.1341 6.49522 42.1307 6.48409 42.1302 6.47192L43.4106 6.47512C43.4106 6.4874 43.4074 6.49857 43.4073 6.51085C43.4164 7.54137 44.2571 8.37917 45.2856 8.38173C46.3138 8.38446 47.1402 7.55103 47.1312 6.52026C47.1313 6.50798 47.128 6.4966 47.1274 6.48467L48.4078 6.48787C48.4078 6.49991 48.4043 6.51126 48.4045 6.52361C48.4133 7.55406 49.2543 8.39193 50.2828 8.39448C51.311 8.39722 52.1374 7.56378 52.1284 6.53302C52.1282 6.52067 52.1248 6.50953 52.1244 6.49736L53.4048 6.50056C53.4047 6.51284 53.4013 6.52394 53.4014 6.53629C53.4103 7.56675 54.2512 8.40461 55.2797 8.40717C56.3079 8.4099 57.1343 7.57647 57.1253 6.5457C57.1254 6.53342 57.1221 6.52205 57.1216 6.50987L58.396 6.51324L58.8168 59.219L58.9071 69.6147L57.7531 69.6118C57.7532 69.5995 57.7566 69.5884 57.7565 69.5761C57.7474 68.5455 56.9067 67.7077 55.8782 67.7052C54.8499 67.7027 54.0235 68.5359 54.0323 69.5666C54.0325 69.5789 54.0359 69.5901 54.0363 69.6022L52.7557 69.599C52.7558 69.5867 52.7592 69.5756 52.759 69.5632C52.7502 68.5328 51.9092 67.6952 50.8807 67.6924C49.8522 67.6898 49.0259 68.523 49.0349 69.5538C49.0351 69.5661 49.0384 69.5772 49.0389 69.5894L47.7585 69.5862C47.7586 69.5739 47.7618 69.5628 47.7618 69.5505C47.7531 68.5198 46.9121 67.6822 45.8835 67.6796C44.8553 67.6771 44.0287 68.5102 44.0377 69.541C44.0379 69.5533 44.0415 69.5645 44.0417 69.5767L42.7613 69.5735C42.7614 69.5612 42.7646 69.55 42.7647 69.5377C42.7556 68.5072 41.9149 67.6694 40.8864 67.6668C39.8581 67.6641 39.0317 68.4975 39.0405 69.5282C39.0407 69.5406 39.0441 69.5517 39.0445 69.5639L37.7641 69.5607C37.7642 69.5484 37.7674 69.5372 37.7675 69.525C37.7586 68.4945 36.9176 67.6569 35.8892 67.6541C34.8606 67.6515 34.0345 68.4848 34.0433 69.5155C34.0435 69.5278 34.0466 69.5391 34.0473 69.5511L32.7669 69.5479C32.767 69.5357 32.7702 69.5245 32.77 69.5121C32.7609 68.4816 31.9203 67.6438 30.8917 67.6413C29.8635 67.6385 29.0371 68.472 29.0459 69.5027C29.0461 69.515 29.0494 69.5261 29.0499 69.5383L27.7695 69.5351C27.7696 69.5228 27.773 69.5117 27.7728 69.4994C27.7638 68.4689 26.9231 67.6311 25.8946 67.6285C24.8663 67.6258 24.0399 68.4592 24.0487 69.4899C24.0489 69.5023 24.0523 69.5134 24.0524 69.5257L22.772 69.5225C22.7721 69.5103 22.7755 69.4992 22.7754 69.4868C22.7665 68.4563 21.9256 67.6185 20.8971 67.6159C19.8688 67.6132 19.0424 68.4466 19.0515 69.4774C19.0516 69.4897 19.055 69.5009 19.0552 69.5132L17.7808 69.5099L17.3242 16.8037Z" fill="#E9F0FF"/>
<path d="M54.2341 19.0508L24.3008 18.9944L24.3079 20.2598L54.2412 20.3163L54.2341 19.0508Z" fill="#3D74E7"/>
<path d="M54.2634 44.3843L24.3301 44.3279L24.3372 45.5933L54.2705 45.6498L54.2634 44.3843Z" fill="#3D74E7"/>
<path d="M45.9061 47.8148L31.9375 47.7888L31.9446 49.0376L45.9132 49.0636L45.9061 47.8148Z" fill="#3D74E7"/>
<path d="M41.0729 26.1082L24.3066 26.0769L24.3138 27.3286L41.08 27.3599L41.0729 26.1082Z" fill="#8EB9F9"/>
<path d="M30.1887 29.308L24.3145 29.2971L24.3216 30.5371L30.1958 30.5479L30.1887 29.308Z" fill="#8EB9F9"/>
<path d="M36.1875 32.4893L24.3164 32.4673L24.3235 33.7138L36.1946 33.7358L36.1875 32.4893Z" fill="#8EB9F9"/>
<path d="M41.0846 35.6722L24.3184 35.6409L24.3255 36.8926L41.0917 36.9239L41.0846 35.6722Z" fill="#8EB9F9"/>
<path d="M31.4088 38.871L24.3242 38.8579L24.3313 40.0992L31.4159 40.1123L31.4088 38.871Z" fill="#8EB9F9"/>
<path d="M54.0493 26.052L47.0781 26.0391L47.0852 27.2802L54.0564 27.2931L54.0493 26.052Z" fill="#8EB9F9"/>
<path d="M54.0532 29.2395L47.082 29.2266L47.0891 30.4677L54.0603 30.4806L54.0532 29.2395Z" fill="#8EB9F9"/>
<path d="M54.0571 32.4275L47.0859 32.4146L47.093 33.6557L54.0642 33.6686L54.0571 32.4275Z" fill="#8EB9F9"/>
<path d="M54.061 35.6162L47.0898 35.6033L47.097 36.8444L54.0681 36.8573L54.061 35.6162Z" fill="#8EB9F9"/>
<path d="M54.0649 38.8039L47.0938 38.791L47.1009 40.0322L54.072 40.0451L54.0649 38.8039Z" fill="#8EB9F9"/>
<path d="M24.6904 54.8901L24.2129 54.8892L24.2561 62.9721L24.7336 62.973L24.6904 54.8901Z" fill="#8EB9F9"/>
<path d="M25.8017 54.8869L25.3242 54.886L25.3674 62.9689L25.8449 62.9698L25.8017 54.8869Z" fill="#8EB9F9"/>
<path d="M28.3416 54.8789L28.1172 54.8784L28.1578 62.9611L28.3821 62.9615L28.3416 54.8789Z" fill="#8EB9F9"/>
<path d="M29.1892 54.8764L28.9648 54.876L29.0054 62.9586L29.2298 62.9591L29.1892 54.8764Z" fill="#8EB9F9"/>
<path d="M27.682 54.8816L26.4707 54.8794L26.5156 62.9632L27.727 62.9654L27.682 54.8816Z" fill="#8EB9F9"/>
<path d="M31.0238 54.8726L29.8125 54.8704L29.8574 62.9542L31.0687 62.9564L31.0238 54.8726Z" fill="#8EB9F9"/>
<path d="M31.7881 54.8688L31.3105 54.8679L31.3537 62.9509L31.8312 62.9518L31.7881 54.8688Z" fill="#8EB9F9"/>
<path d="M32.9011 54.8654L32.4238 54.8645L32.467 62.9474L32.9443 62.9484L32.9011 54.8654Z" fill="#8EB9F9"/>
<path d="M39.1413 54.8473L38.6641 54.8464L38.7072 62.9294L39.1845 62.9303L39.1413 54.8473Z" fill="#8EB9F9"/>
<path d="M40.2488 54.8447L39.7715 54.8438L39.8147 62.9267L40.2919 62.9276L40.2488 54.8447Z" fill="#8EB9F9"/>
<path d="M35.4431 54.8581L35.2188 54.8577L35.2593 62.9403L35.4837 62.9408L35.4431 54.8581Z" fill="#8EB9F9"/>
<path d="M36.2888 54.8554L36.0645 54.855L36.105 62.9376L36.3294 62.9381L36.2888 54.8554Z" fill="#8EB9F9"/>
<path d="M34.7757 54.8647L33.5645 54.8623L33.6086 62.9456L34.8199 62.948L34.7757 54.8647Z" fill="#8EB9F9"/>
<path d="M38.1235 54.8513L36.9121 54.8491L36.957 62.9329L38.1684 62.9351L38.1235 54.8513Z" fill="#8EB9F9"/>
</svg>
