<svg width="320" height="158" viewBox="0 0 320 158" fill="none" xmlns="http://www.w3.org/2000/svg">
<path opacity="0.6" d="M299.832 157.574C302.426 152.993 306.489 142.108 308.809 130.841C315.846 96.2642 301.428 68.3658 273.403 51.8347C259.584 43.6685 246.83 42.543 235.774 43.5634C223.206 44.7232 212.832 48.6616 205.583 48.1877C195.293 47.5135 189.421 33.8953 174.355 21.3222C165.531 13.9623 153.552 6.98116 135.685 3.22057C113.87 -1.37391 84.8712 -1.77454 64.3087 6.81335C56.2168 10.1907 49.5072 14.9421 45.1453 21.3224C33.9249 37.7245 41.8351 59.3031 51.9516 76.4618C66.2897 100.779 47.5271 105.017 30.5727 114.661C17.7016 121.985 5.87194 132.852 10.3736 157.574H299.832V157.574Z" fill="#D5E6FE"/>
<path d="M319.638 158H0.362535C0.163141 158 0 157.837 0 157.636V157.512C0 157.312 0.163141 157.148 0.362535 157.148H319.637C319.837 157.148 320 157.312 320 157.512V157.636C320 157.837 319.837 158 319.638 158Z" fill="#8692C2"/>
<g opacity="0.4">
<path d="M136.105 135.168C135.406 133.522 132.964 129.342 128.72 125.302C125.604 122.336 121.996 119.854 117.995 117.927C112.993 115.517 107.36 113.97 101.251 113.328L101.262 113.229C107.383 113.871 113.029 115.422 118.042 117.837C122.053 119.77 125.67 122.259 128.793 125.232C133.048 129.284 135.497 133.478 136.198 135.129L136.105 135.168Z" fill="#5082EB"/>
<path d="M97.5768 110.442C95.3836 110.107 94.7903 110.596 94.5916 111.498C94.393 112.401 94.7497 113.333 96.1856 113.777C99.6592 114.85 103.992 114.203 104.126 113.597C104.223 113.155 100.63 110.907 97.5768 110.442Z" fill="#ADC7FF"/>
<path d="M102.076 116.599C100.192 117.77 100.058 118.527 100.494 119.342C100.929 120.157 101.806 120.634 103.186 120.038C106.524 118.597 109.397 115.29 109.105 114.742C108.892 114.344 104.7 114.97 102.076 116.599Z" fill="#ADC7FF"/>
<path d="M104.234 113.621C100.994 113.585 98.0373 111.845 94.785 111.923C94.7527 111.924 94.7526 111.975 94.785 111.974C98.0371 111.895 100.993 113.635 104.234 113.672C104.266 113.672 104.266 113.622 104.234 113.621Z" fill="#5082EB"/>
<path d="M99.3012 112.69C99.3616 111.993 99.1301 111.201 98.6872 110.657C98.6667 110.632 98.6313 110.668 98.6516 110.693C99.0859 111.226 99.31 112.007 99.2509 112.69C99.2481 112.722 99.2984 112.722 99.3012 112.69Z" fill="#5082EB"/>
<path d="M97.7753 112.286C97.2968 112.896 96.6103 113.342 95.8948 113.626C95.865 113.637 95.878 113.686 95.9081 113.674C96.6311 113.387 97.327 112.938 97.8108 112.322C97.8306 112.296 97.7953 112.261 97.7753 112.286Z" fill="#5082EB"/>
<path d="M98.1084 110.591C98.4836 111.2 98.7158 111.861 98.8025 112.571C98.8064 112.603 98.8568 112.603 98.8528 112.571C98.765 111.852 98.5319 111.183 98.1518 110.566C98.1349 110.538 98.0913 110.563 98.1084 110.591Z" fill="#5082EB"/>
<path d="M109.237 107.333C108.617 105.202 107.924 104.87 107.022 105.069C106.119 105.269 105.424 105.985 105.626 107.474C106.114 111.077 108.524 114.735 109.131 114.601C109.572 114.504 110.099 110.298 109.237 107.333Z" fill="#ADC7FF"/>
<path d="M109.152 114.708C107.822 111.754 108.157 108.339 106.716 105.422C106.702 105.393 106.658 105.418 106.673 105.447C108.113 108.364 107.778 111.779 109.109 114.733C109.122 114.762 109.166 114.737 109.152 114.708Z" fill="#5082EB"/>
<path d="M107.919 109.845C108.574 109.611 109.205 109.063 109.507 108.435C109.521 108.406 109.478 108.38 109.463 108.409C109.168 109.026 108.548 109.567 107.906 109.796C107.876 109.807 107.889 109.856 107.919 109.845Z" fill="#5082EB"/>
<path d="M107.645 108.287C106.889 108.107 106.199 107.673 105.639 107.144C105.616 107.122 105.58 107.157 105.603 107.179C106.171 107.715 106.867 108.154 107.632 108.335C107.663 108.343 107.677 108.294 107.645 108.287Z" fill="#5082EB"/>
<path d="M109.328 107.881C108.936 108.477 108.43 108.969 107.822 109.343C107.795 109.36 107.82 109.404 107.848 109.387C108.462 109.008 108.976 108.509 109.371 107.906C109.389 107.879 109.345 107.854 109.328 107.881Z" fill="#5082EB"/>
<path d="M118.077 109.206C117.354 106.718 116.545 106.33 115.491 106.563C114.437 106.796 113.625 107.632 113.86 109.372C114.43 113.579 117.245 117.852 117.954 117.695C118.469 117.581 119.084 112.67 118.077 109.206Z" fill="#ADC7FF"/>
<path d="M117.979 117.819C116.421 114.371 116.821 110.379 115.134 106.975C115.117 106.941 115.067 106.971 115.083 107.005C116.77 110.408 116.37 114.401 117.929 117.849C117.944 117.884 117.995 117.854 117.979 117.819Z" fill="#5082EB"/>
<path d="M116.542 112.141C117.306 111.868 118.043 111.228 118.396 110.494C118.412 110.46 118.361 110.43 118.345 110.464C117.999 111.184 117.276 111.816 116.526 112.084C116.491 112.097 116.506 112.153 116.542 112.141Z" fill="#5082EB"/>
<path d="M116.219 110.322C115.339 110.116 114.528 109.604 113.877 108.987C113.849 108.961 113.808 109.002 113.835 109.028C114.494 109.654 115.313 110.17 116.204 110.378C116.241 110.387 116.256 110.33 116.219 110.322Z" fill="#5082EB"/>
<path d="M118.18 109.846C117.723 110.543 117.132 111.118 116.422 111.554C116.39 111.574 116.419 111.625 116.452 111.605C117.169 111.164 117.769 110.581 118.231 109.876C118.251 109.844 118.201 109.815 118.18 109.846Z" fill="#5082EB"/>
<path d="M109.818 120.741C107.732 122.279 107.647 123.172 108.23 124.081C108.812 124.99 109.877 125.463 111.428 124.642C115.181 122.656 118.22 118.539 117.829 117.928C117.544 117.484 112.722 118.601 109.818 120.741Z" fill="#ADC7FF"/>
<path d="M117.938 117.86C115.241 120.514 111.352 121.512 108.741 124.272C108.715 124.3 108.756 124.341 108.782 124.314C111.394 121.554 115.282 120.556 117.979 117.902C118.006 117.875 117.965 117.834 117.938 117.86Z" fill="#5082EB"/>
<path d="M113.1 121.168C112.575 120.543 111.727 120.08 110.913 119.999C110.875 119.995 110.875 120.054 110.913 120.058C111.709 120.137 112.546 120.599 113.059 121.21C113.083 121.239 113.124 121.197 113.1 121.168Z" fill="#5082EB"/>
<path d="M111.507 122.096C111.617 122.994 111.419 123.931 111.063 124.756C111.048 124.79 111.099 124.82 111.114 124.785C111.473 123.952 111.677 123.004 111.565 122.096C111.561 122.059 111.502 122.059 111.507 122.096Z" fill="#5082EB"/>
<path d="M110.38 120.422C111.193 120.612 111.934 120.967 112.59 121.481C112.62 121.504 112.662 121.463 112.632 121.44C111.967 120.918 111.219 120.558 110.396 120.365C110.359 120.357 110.344 120.413 110.38 120.422Z" fill="#5082EB"/>
<path d="M115.118 125.202C112.772 126.932 112.676 127.937 113.331 128.96C113.986 129.982 115.184 130.515 116.93 129.591C121.152 127.356 124.572 122.724 124.131 122.037C123.811 121.538 118.385 122.794 115.118 125.202Z" fill="#ADC7FF"/>
<path d="M124.594 121.548C121.447 124.65 116.952 125.949 113.907 129.175C113.878 129.206 113.924 129.252 113.953 129.221C116.999 125.996 121.494 124.697 124.641 121.594C124.671 121.564 124.624 121.518 124.594 121.548Z" fill="#5082EB"/>
<path d="M118.81 125.684C118.224 124.982 117.261 124.456 116.349 124.368C116.307 124.364 116.307 124.43 116.349 124.434C117.243 124.52 118.19 125.043 118.763 125.73C118.791 125.763 118.837 125.716 118.81 125.684Z" fill="#5082EB"/>
<path d="M117.017 126.729C117.143 127.736 116.918 128.796 116.518 129.721C116.501 129.76 116.558 129.793 116.575 129.754C116.98 128.819 117.211 127.748 117.083 126.729C117.077 126.687 117.011 126.687 117.017 126.729Z" fill="#5082EB"/>
<path d="M115.751 124.844C116.664 125.057 117.501 125.457 118.238 126.036C118.271 126.062 118.318 126.016 118.285 125.989C117.538 125.403 116.694 124.996 115.769 124.78C115.727 124.771 115.71 124.834 115.751 124.844Z" fill="#5082EB"/>
<path d="M121.279 128.676C118.528 129.641 118.141 130.574 118.468 131.744C118.794 132.914 119.783 133.775 121.723 133.403C126.415 132.505 131.043 129.08 130.823 128.294C130.664 127.722 125.108 127.332 121.279 128.676Z" fill="#ADC7FF"/>
<path d="M131.406 127.962C127.487 130.004 122.81 129.93 118.952 132.119C118.915 132.14 118.948 132.197 118.985 132.176C122.843 129.987 127.52 130.062 131.439 128.019C131.477 128 131.444 127.942 131.406 127.962Z" fill="#5082EB"/>
<path d="M124.67 130.224C124.316 129.378 123.55 128.59 122.7 128.238C122.66 128.222 122.643 128.286 122.682 128.302C123.506 128.643 124.263 129.422 124.606 130.242C124.623 130.281 124.687 130.264 124.67 130.224Z" fill="#5082EB"/>
<path d="M122.645 130.692C122.47 131.693 121.944 132.638 121.29 133.406C121.262 133.438 121.309 133.485 121.336 133.453C121.998 132.676 122.531 131.723 122.709 130.71C122.716 130.668 122.652 130.65 122.645 130.692Z" fill="#5082EB"/>
<path d="M121.991 128.52C122.802 128.991 123.483 129.619 124.018 130.389C124.042 130.424 124.099 130.391 124.075 130.356C123.534 129.577 122.844 128.939 122.024 128.463C121.987 128.441 121.954 128.498 121.991 128.52Z" fill="#5082EB"/>
<path d="M123.58 111.457C124.068 108.582 124.923 108.044 126.131 108.169C127.339 108.294 128.354 109.123 128.315 111.098C128.22 115.875 125.624 121.013 124.812 120.929C124.222 120.868 122.901 115.458 123.58 111.457Z" fill="#ADC7FF"/>
<path d="M124.648 121.581C125.999 117.374 125.14 112.776 126.646 108.605C126.661 108.565 126.597 108.547 126.582 108.587C125.076 112.759 125.935 117.356 124.584 121.564C124.571 121.604 124.635 121.622 124.648 121.581Z" fill="#5082EB"/>
<path d="M125.691 114.474C124.818 114.271 123.927 113.66 123.447 112.9C123.424 112.864 123.367 112.897 123.39 112.934C123.879 113.708 124.783 114.331 125.673 114.538C125.715 114.547 125.732 114.483 125.691 114.474Z" fill="#5082EB"/>
<path d="M125.821 112.527C126.789 112.181 127.642 111.497 128.296 110.714C128.323 110.682 128.277 110.635 128.249 110.667C127.602 111.442 126.762 112.121 125.804 112.463C125.764 112.477 125.781 112.541 125.821 112.527Z" fill="#5082EB"/>
<path d="M123.498 112.228C124.106 112.954 124.846 113.524 125.703 113.926C125.741 113.944 125.775 113.887 125.737 113.869C124.885 113.47 124.148 112.902 123.545 112.181C123.518 112.148 123.471 112.195 123.498 112.228Z" fill="#5082EB"/>
<path d="M134.924 116.673C136.749 113.799 137.913 113.606 139.157 114.287C140.401 114.968 141.119 116.321 140.183 118.428C137.921 123.528 132.802 127.886 131.965 127.428C131.358 127.096 132.382 120.673 134.924 116.673Z" fill="#ADC7FF"/>
<path d="M131.49 128.059C134.853 124.145 135.998 118.798 139.511 114.993C139.545 114.956 139.49 114.901 139.457 114.938C135.943 118.744 134.798 124.091 131.436 128.005C131.403 128.042 131.458 128.097 131.49 128.059Z" fill="#5082EB"/>
<path d="M135.83 120.873C134.984 120.265 134.297 119.193 134.13 118.162C134.122 118.113 134.047 118.134 134.055 118.182C134.226 119.232 134.93 120.321 135.791 120.94C135.832 120.969 135.87 120.902 135.83 120.873Z" fill="#5082EB"/>
<path d="M136.859 118.839C138.056 118.908 139.288 118.552 140.343 118.004C140.388 117.981 140.349 117.914 140.304 117.937C139.263 118.479 138.041 118.83 136.859 118.762C136.81 118.759 136.81 118.836 136.859 118.839Z" fill="#5082EB"/>
<path d="M134.483 117.463C134.807 118.52 135.351 119.477 136.094 120.296C136.127 120.333 136.182 120.279 136.149 120.242C135.414 119.431 134.878 118.488 134.558 117.442C134.543 117.395 134.469 117.415 134.483 117.463Z" fill="#5082EB"/>
</g>
<path d="M133.112 128.409C133.112 128.371 133.028 124.581 130.828 119.709C129.536 116.848 127.778 114.179 125.601 111.776C122.881 108.773 119.496 106.18 115.542 104.068L115.576 104.004C119.539 106.12 122.931 108.719 125.657 111.729C127.839 114.138 129.601 116.814 130.897 119.682C133.102 124.567 133.185 128.37 133.186 128.408L133.112 128.409Z" fill="#5082EB"/>
<path d="M113.849 101.107C112.457 100.279 111.922 100.446 111.54 101.002C111.157 101.558 111.143 102.286 111.992 102.98C114.046 104.66 117.154 105.413 117.411 105.039C117.597 104.768 115.785 102.261 113.849 101.107Z" fill="#ADC7FF"/>
<path d="M115.2 106.506C113.604 106.78 113.306 107.255 113.377 107.926C113.447 108.597 113.909 109.16 115.006 109.136C117.659 109.079 120.51 107.632 120.463 107.181C120.428 106.853 117.422 106.125 115.2 106.506Z" fill="#ADC7FF"/>
<path d="M117.475 105.085C115.296 104.166 113.772 102.186 111.552 101.342C111.53 101.334 111.521 101.369 111.543 101.378C113.761 102.222 115.286 104.202 117.466 105.121C117.487 105.13 117.497 105.094 117.475 105.085Z" fill="#5082EB"/>
<path d="M114.396 103.103C114.628 102.647 114.691 102.05 114.541 101.56C114.534 101.537 114.499 101.547 114.506 101.569C114.652 102.051 114.592 102.638 114.364 103.085C114.354 103.106 114.386 103.124 114.396 103.103Z" fill="#5082EB"/>
<path d="M113.475 102.41C112.981 102.69 112.398 102.801 111.835 102.798C111.811 102.798 111.811 102.834 111.835 102.835C112.405 102.838 112.994 102.725 113.493 102.442C113.514 102.43 113.495 102.398 113.475 102.41Z" fill="#5082EB"/>
<path d="M114.169 101.356C114.255 101.872 114.229 102.379 114.093 102.885C114.087 102.908 114.123 102.918 114.129 102.895C114.266 102.384 114.291 101.869 114.205 101.346C114.201 101.323 114.165 101.333 114.169 101.356Z" fill="#5082EB"/>
<path d="M122.586 102.206C122.753 100.596 122.375 100.18 121.71 100.068C121.045 99.9547 120.379 100.248 120.106 101.31C119.446 103.881 120.072 107.016 120.519 107.092C120.844 107.147 122.355 104.448 122.586 102.206Z" fill="#ADC7FF"/>
<path d="M120.506 107.173C120.425 104.81 121.573 102.593 121.408 100.225C121.407 100.201 121.37 100.201 121.372 100.225C121.536 102.593 120.389 104.809 120.469 107.173C120.47 107.196 120.506 107.196 120.506 107.173Z" fill="#5082EB"/>
<path d="M121.008 103.544C121.518 103.563 122.087 103.367 122.468 103.025C122.486 103.009 122.46 102.983 122.442 102.999C122.069 103.335 121.508 103.526 121.008 103.507C120.984 103.506 120.984 103.543 121.008 103.544Z" fill="#5082EB"/>
<path d="M121.247 102.414C120.785 102.088 120.437 101.601 120.205 101.09C120.196 101.068 120.164 101.087 120.174 101.108C120.408 101.625 120.762 102.116 121.229 102.446C121.248 102.46 121.266 102.428 121.247 102.414Z" fill="#5082EB"/>
<path d="M122.498 102.599C122.065 102.895 121.59 103.088 121.074 103.176C121.051 103.18 121.06 103.216 121.084 103.212C121.603 103.122 122.081 102.929 122.516 102.631C122.535 102.617 122.517 102.586 122.498 102.599Z" fill="#5082EB"/>
<path d="M119.299 111.433C117.467 111.9 117.163 112.481 117.308 113.255C117.452 114.03 118.042 114.643 119.316 114.514C122.4 114.201 125.585 112.252 125.488 111.731C125.418 111.353 121.85 110.784 119.299 111.433Z" fill="#ADC7FF"/>
<path d="M125.585 111.714C123.027 112.76 120.13 112.385 117.6 113.526C117.575 113.537 117.597 113.574 117.622 113.563C120.147 112.424 123.042 112.8 125.597 111.755C125.622 111.745 125.611 111.703 125.585 111.714Z" fill="#5082EB"/>
<path d="M121.402 112.626C121.221 112.061 120.773 111.509 120.246 111.233C120.222 111.22 120.2 111.257 120.225 111.27C120.742 111.541 121.183 112.083 121.361 112.637C121.369 112.663 121.411 112.652 121.402 112.626Z" fill="#5082EB"/>
<path d="M120.066 112.817C119.893 113.455 119.502 114.031 119.035 114.493C119.015 114.512 119.045 114.543 119.065 114.523C119.538 114.056 119.932 113.474 120.108 112.828C120.115 112.802 120.073 112.79 120.066 112.817Z" fill="#5082EB"/>
<path d="M119.77 111.375C120.267 111.726 120.671 112.171 120.973 112.699C120.987 112.723 121.024 112.702 121.01 112.678C120.705 112.143 120.295 111.693 119.792 111.338C119.769 111.322 119.748 111.359 119.77 111.375Z" fill="#5082EB"/>
<path d="M128.713 106.276C129.107 104.427 128.721 103.898 127.963 103.683C127.205 103.469 126.394 103.726 125.944 104.926C124.857 107.828 125.192 111.548 125.701 111.692C126.072 111.796 128.164 108.851 128.713 106.276Z" fill="#ADC7FF"/>
<path d="M125.673 111.785C125.87 109.028 127.491 106.597 127.59 103.824C127.591 103.796 127.548 103.799 127.547 103.827C127.448 106.596 125.827 109.023 125.631 111.777C125.629 111.804 125.671 111.812 125.673 111.785Z" fill="#5082EB"/>
<path d="M126.71 107.633C127.297 107.721 127.99 107.564 128.471 107.214C128.493 107.198 128.47 107.162 128.448 107.178C127.976 107.521 127.294 107.677 126.718 107.59C126.691 107.586 126.683 107.628 126.71 107.633Z" fill="#5082EB"/>
<path d="M127.132 106.352C126.637 105.913 126.293 105.307 126.087 104.684C126.078 104.658 126.037 104.672 126.046 104.698C126.255 105.328 126.602 105.94 127.103 106.384C127.124 106.402 127.152 106.37 127.132 106.352Z" fill="#5082EB"/>
<path d="M128.556 106.725C128.021 107.014 127.443 107.179 126.836 107.215C126.808 107.217 126.811 107.26 126.839 107.258C127.453 107.222 128.038 107.054 128.58 106.76C128.604 106.747 128.58 106.711 128.556 106.725Z" fill="#5082EB"/>
<path d="M121.656 115.906C119.594 116.431 119.253 117.085 119.415 117.956C119.577 118.827 120.241 119.517 121.675 119.371C125.144 119.02 128.729 116.827 128.619 116.241C128.54 115.816 124.526 115.175 121.656 115.906Z" fill="#ADC7FF"/>
<path d="M129.069 116.036C126.084 117.264 122.693 116.923 119.742 118.261C119.714 118.273 119.738 118.315 119.766 118.302C122.713 116.967 126.101 117.309 129.082 116.083C129.11 116.071 129.098 116.024 129.069 116.036Z" fill="#5082EB"/>
<path d="M124.02 117.249C123.816 116.613 123.312 115.992 122.719 115.682C122.692 115.667 122.667 115.709 122.695 115.723C123.276 116.028 123.773 116.638 123.973 117.261C123.983 117.291 124.029 117.278 124.02 117.249Z" fill="#5082EB"/>
<path d="M122.518 117.462C122.323 118.18 121.883 118.829 121.358 119.348C121.336 119.37 121.37 119.404 121.392 119.382C121.923 118.857 122.367 118.202 122.565 117.475C122.573 117.445 122.526 117.432 122.518 117.462Z" fill="#5082EB"/>
<path d="M122.185 115.84C122.744 116.234 123.199 116.736 123.538 117.33C123.554 117.357 123.596 117.333 123.58 117.306C123.237 116.704 122.776 116.198 122.21 115.798C122.184 115.78 122.16 115.822 122.185 115.84Z" fill="#5082EB"/>
<path d="M124.87 119.947C122.744 119.845 122.227 120.369 122.126 121.25C122.026 122.131 122.458 122.985 123.872 123.266C127.291 123.947 131.361 122.902 131.429 122.31C131.478 121.88 127.828 120.09 124.87 119.947Z" fill="#ADC7FF"/>
<path d="M131.919 122.246C128.707 122.542 125.567 121.225 122.356 121.636C122.326 121.64 122.325 121.688 122.356 121.684C125.567 121.273 128.707 122.59 131.919 122.294C131.95 122.291 131.95 122.243 131.919 122.246Z" fill="#5082EB"/>
<path d="M126.739 121.923C126.728 121.252 126.43 120.518 125.954 120.043C125.932 120.021 125.898 120.055 125.92 120.077C126.387 120.543 126.68 121.264 126.691 121.923C126.691 121.954 126.74 121.954 126.739 121.923Z" fill="#5082EB"/>
<path d="M125.239 121.688C124.843 122.317 124.229 122.809 123.576 123.15C123.548 123.164 123.572 123.206 123.6 123.192C124.261 122.847 124.881 122.348 125.28 121.712C125.297 121.686 125.255 121.662 125.239 121.688Z" fill="#5082EB"/>
<path d="M125.391 120.034C125.81 120.578 126.098 121.189 126.25 121.86C126.257 121.89 126.304 121.877 126.297 121.847C126.143 121.172 125.855 120.558 125.432 120.009C125.414 119.985 125.372 120.009 125.391 120.034Z" fill="#5082EB"/>
<path d="M131.155 108.935C132.274 107.126 133 106.996 133.782 107.413C134.565 107.829 135.024 108.669 134.455 109.993C133.079 113.197 129.912 115.959 129.386 115.679C129.004 115.476 129.596 111.454 131.155 108.935Z" fill="#ADC7FF"/>
<path d="M129.091 116.077C131.157 113.6 131.846 110.262 134.006 107.851C134.027 107.828 133.993 107.794 133.972 107.817C131.811 110.228 131.123 113.567 129.057 116.043C129.037 116.067 129.071 116.101 129.091 116.077Z" fill="#5082EB"/>
<path d="M131.751 111.553C131.217 111.175 130.785 110.518 130.668 109.872C130.663 109.841 130.616 109.854 130.622 109.885C130.741 110.545 131.181 111.208 131.727 111.595C131.752 111.613 131.776 111.571 131.751 111.553Z" fill="#5082EB"/>
<path d="M132.38 110.275C133.134 110.302 133.888 110.077 134.551 109.727C134.578 109.713 134.554 109.671 134.527 109.686C133.872 110.03 133.124 110.254 132.38 110.227C132.349 110.225 132.349 110.274 132.38 110.275Z" fill="#5082EB"/>
<path d="M130.884 109.432C131.097 110.091 131.442 110.682 131.912 111.191C131.933 111.214 131.967 111.18 131.946 111.157C131.48 110.653 131.141 110.072 130.931 109.419C130.921 109.39 130.875 109.402 130.884 109.432Z" fill="#5082EB"/>
<path d="M137.391 115.578C139.414 114.136 140.254 114.325 140.908 115.127C141.563 115.929 141.676 117.041 140.465 118.209C137.535 121.036 132.876 122.577 132.436 122.038C132.117 121.646 134.574 117.585 137.391 115.578Z" fill="#ADC7FF"/>
<path d="M131.943 122.331C135.289 120.602 137.537 117.313 140.955 115.698C140.988 115.683 140.96 115.634 140.927 115.649C137.509 117.264 135.261 120.553 131.915 122.282C131.882 122.299 131.911 122.348 131.943 122.331Z" fill="#5082EB"/>
<path d="M136.849 118.668C136.445 118.017 136.276 117.119 136.441 116.369C136.449 116.334 136.395 116.319 136.387 116.354C136.218 117.12 136.388 118.032 136.801 118.697C136.82 118.727 136.869 118.699 136.849 118.668Z" fill="#5082EB"/>
<path d="M138.102 117.571C138.896 117.944 139.82 118.044 140.687 117.966C140.723 117.962 140.723 117.906 140.687 117.909C139.83 117.987 138.916 117.891 138.131 117.523C138.098 117.507 138.07 117.556 138.102 117.571Z" fill="#5082EB"/>
<path d="M136.876 115.994C136.808 116.8 136.911 117.585 137.186 118.346C137.198 118.38 137.252 118.365 137.24 118.331C136.967 117.574 136.864 116.795 136.932 115.994C136.935 115.958 136.879 115.958 136.876 115.994Z" fill="#5082EB"/>
<path d="M105.716 131.873C105.134 130.908 105.249 130.535 105.635 130.267C106.02 129.999 106.527 129.986 107.013 130.575C108.189 131.998 108.723 134.158 108.464 134.338C108.276 134.469 106.525 133.216 105.716 131.873Z" fill="#ADC7FF"/>
<path d="M108.578 134.571C107.907 133 106.51 131.864 105.893 130.265C105.887 130.25 105.864 130.262 105.87 130.277C106.487 131.876 107.884 133.012 108.555 134.583C108.562 134.598 108.584 134.586 108.578 134.571Z" fill="#5082EB"/>
<path d="M107.095 132.225C106.785 132.385 106.377 132.43 106.042 132.329C106.026 132.325 106.018 132.349 106.034 132.354C106.376 132.456 106.791 132.411 107.107 132.248C107.122 132.24 107.11 132.218 107.095 132.225Z" fill="#5082EB"/>
<path d="M106.64 131.621C106.836 131.274 106.913 130.862 106.909 130.466C106.908 130.45 106.883 130.448 106.883 130.465C106.888 130.856 106.813 131.264 106.619 131.607C106.611 131.622 106.632 131.635 106.64 131.621Z" fill="#5082EB"/>
<path d="M105.886 132.12C106.251 132.178 106.605 132.159 106.961 132.062C106.976 132.057 106.971 132.032 106.955 132.037C106.603 132.133 106.248 132.152 105.888 132.094C105.872 132.092 105.87 132.117 105.886 132.12Z" fill="#5082EB"/>
<g opacity="0.5">
<path d="M228.365 127.064C229.297 126.281 229.714 126.341 230.065 126.707C230.416 127.073 230.515 127.611 229.969 128.229C228.648 129.724 226.433 130.658 226.197 130.412C226.026 130.233 227.067 128.154 228.365 127.064Z" fill="#ADC7FF"/>
<path d="M225.968 130.575C227.531 129.594 228.508 127.912 230.11 126.984C230.125 126.975 230.109 126.953 230.094 126.962C228.491 127.89 227.514 129.572 225.951 130.552C225.936 130.562 225.953 130.584 225.968 130.575Z" fill="#5082EB"/>
<path d="M228.22 128.594C227.998 128.29 227.881 127.862 227.932 127.487C227.934 127.47 227.907 127.465 227.905 127.483C227.853 127.865 227.971 128.301 228.198 128.611C228.209 128.625 228.231 128.608 228.22 128.594Z" fill="#5082EB"/>
<path d="M228.788 128.01C229.191 128.16 229.644 128.173 230.065 128.101C230.082 128.098 230.08 128.071 230.062 128.074C229.645 128.145 229.198 128.133 228.799 127.984C228.782 127.978 228.771 128.003 228.788 128.01Z" fill="#5082EB"/>
<path d="M228.129 127.288C228.128 127.687 228.208 128.062 228.372 128.425C228.379 128.441 228.405 128.431 228.398 128.414C228.236 128.055 228.155 127.679 228.156 127.285C228.156 127.268 228.129 127.271 228.129 127.288Z" fill="#5082EB"/>
</g>
<g opacity="0.4">
<path d="M207.602 140.512L207.519 140.502C207.691 139.024 208.664 135.115 211.108 130.898C212.901 127.803 215.201 124.979 217.944 122.505C221.372 119.414 225.506 116.864 230.23 114.926L230.262 115.003C225.547 116.937 221.421 119.482 218 122.567C215.264 125.035 212.969 127.852 211.18 130.94C208.743 135.146 207.774 139.04 207.602 140.512Z" fill="#5082EB"/>
<path d="M232.516 111.848C234.184 111.071 234.771 111.321 235.139 111.994C235.507 112.666 235.441 113.491 234.401 114.179C231.885 115.843 228.285 116.338 228.037 115.886C227.857 115.557 230.194 112.93 232.516 111.848Z" fill="#ADC7FF"/>
<path d="M230.367 117.798C232.14 118.291 232.423 118.862 232.266 119.613C232.109 120.363 231.522 120.947 230.285 120.794C227.292 120.425 224.233 118.462 224.339 117.957C224.415 117.591 227.898 117.112 230.367 117.798Z" fill="#ADC7FF"/>
<path d="M227.971 115.971C230.544 115.191 232.49 113.108 235.098 112.417C235.124 112.41 235.111 112.371 235.085 112.378C232.476 113.068 230.53 115.151 227.958 115.931C227.933 115.939 227.946 115.979 227.971 115.971Z" fill="#5082EB"/>
<path d="M231.707 114.027C231.501 113.5 231.498 112.82 231.72 112.297C231.73 112.273 231.693 112.253 231.683 112.278C231.456 112.813 231.456 113.501 231.668 114.04C231.678 114.065 231.717 114.052 231.707 114.027Z" fill="#5082EB"/>
<path d="M232.763 113.396C233.291 113.774 233.95 113.972 234.592 114.031C234.618 114.034 234.627 113.993 234.601 113.991C233.966 113.931 233.313 113.739 232.791 113.365C232.769 113.349 232.741 113.38 232.763 113.396Z" fill="#5082EB"/>
<path d="M232.084 112.081C231.925 112.659 231.895 113.245 231.992 113.836C231.996 113.862 232.038 113.86 232.034 113.833C231.937 113.246 231.967 112.665 232.124 112.09C232.131 112.064 232.091 112.055 232.084 112.081Z" fill="#5082EB"/>
<path d="M222.509 112.089C222.506 110.248 222.98 109.822 223.745 109.771C224.51 109.72 225.23 110.127 225.417 111.36C225.868 114.342 224.801 117.817 224.287 117.851C223.913 117.876 222.513 114.651 222.509 112.089Z" fill="#ADC7FF"/>
<path d="M224.334 117.95C224.706 115.288 223.641 112.647 224.11 109.99C224.114 109.963 224.073 109.954 224.069 109.981C223.6 112.638 224.665 115.28 224.293 117.941C224.289 117.968 224.33 117.977 224.334 117.95Z" fill="#5082EB"/>
<path d="M224.143 113.741C223.578 113.706 222.962 113.42 222.581 113C222.562 112.98 222.535 113.011 222.553 113.031C222.943 113.462 223.567 113.747 224.146 113.783C224.172 113.784 224.17 113.743 224.143 113.741Z" fill="#5082EB"/>
<path d="M224.019 112.514C224.585 112.194 225.04 111.678 225.364 111.12C225.378 111.097 225.341 111.078 225.327 111.101C225.007 111.652 224.555 112.163 223.996 112.479C223.973 112.492 223.996 112.527 224.019 112.514Z" fill="#5082EB"/>
<path d="M222.536 112.576C222.994 112.964 223.517 113.24 224.094 113.4C224.12 113.407 224.129 113.366 224.103 113.359C223.531 113.201 223.017 112.929 222.564 112.545C222.544 112.528 222.516 112.559 222.536 112.576Z" fill="#5082EB"/>
<path d="M215.903 115.641C215.9 113.491 216.453 112.994 217.347 112.934C218.24 112.874 219.081 113.35 219.299 114.79C219.826 118.273 218.58 122.33 217.98 122.371C217.543 122.4 215.909 118.633 215.903 115.641Z" fill="#ADC7FF"/>
<path d="M218.036 122.486C218.475 119.378 217.224 116.292 217.775 113.189C217.78 113.158 217.732 113.148 217.727 113.179C217.176 116.282 218.427 119.368 217.989 122.476C217.984 122.507 218.032 122.517 218.036 122.486Z" fill="#5082EB"/>
<path d="M217.81 117.571C217.151 117.532 216.427 117.196 215.985 116.705C215.964 116.681 215.931 116.718 215.952 116.741C216.404 117.244 217.139 117.58 217.812 117.619C217.844 117.621 217.841 117.573 217.81 117.571Z" fill="#5082EB"/>
<path d="M217.669 116.138C218.33 115.766 218.862 115.162 219.24 114.511C219.256 114.484 219.212 114.462 219.197 114.489C218.824 115.132 218.295 115.73 217.642 116.097C217.615 116.113 217.642 116.154 217.669 116.138Z" fill="#5082EB"/>
<path d="M215.938 116.211C216.471 116.664 217.083 116.988 217.758 117.173C217.788 117.181 217.798 117.134 217.768 117.125C217.1 116.942 216.498 116.623 215.971 116.175C215.947 116.155 215.914 116.191 215.938 116.211Z" fill="#5082EB"/>
<path d="M225.168 122.899C227.187 123.637 227.463 124.329 227.211 125.188C226.959 126.047 226.222 126.673 224.795 126.38C221.344 125.673 217.966 123.104 218.135 122.526C218.258 122.107 222.358 121.872 225.168 122.899Z" fill="#ADC7FF"/>
<path d="M218.01 122.541C220.775 124.026 224.105 123.912 226.826 125.502C226.853 125.518 226.875 125.475 226.848 125.459C224.127 123.869 220.797 123.983 218.032 122.497C218.004 122.482 217.982 122.526 218.01 122.541Z" fill="#5082EB"/>
<path d="M222.697 124.028C222.961 123.423 223.522 122.858 224.137 122.612C224.166 122.6 224.151 122.554 224.122 122.565C223.495 122.816 222.922 123.389 222.654 124.006C222.641 124.035 222.684 124.057 222.697 124.028Z" fill="#5082EB"/>
<path d="M224.093 124.382C224.213 125.129 224.596 125.841 225.076 126.419C225.096 126.443 225.137 126.416 225.117 126.392C224.642 125.82 224.261 125.119 224.142 124.379C224.137 124.349 224.088 124.351 224.093 124.382Z" fill="#5082EB"/>
<path d="M224.618 122.737C224.01 123.079 223.497 123.54 223.092 124.108C223.074 124.134 223.11 124.166 223.128 124.141C223.531 123.577 224.041 123.118 224.645 122.777C224.672 122.762 224.645 122.721 224.618 122.737Z" fill="#5082EB"/>
<path d="M221.99 127.687C224.261 128.517 224.572 129.295 224.289 130.262C224.005 131.229 223.176 131.932 221.571 131.604C217.688 130.808 213.887 127.917 214.077 127.267C214.216 126.795 218.828 126.531 221.99 127.687Z" fill="#ADC7FF"/>
<path d="M213.567 127.034C216.794 128.772 220.678 128.756 223.853 130.615C223.883 130.633 223.908 130.584 223.878 130.567C220.703 128.707 216.819 128.724 213.592 126.985C213.561 126.968 213.536 127.017 213.567 127.034Z" fill="#5082EB"/>
<path d="M219.211 128.957C219.505 128.277 220.141 127.636 220.832 127.363C220.865 127.35 220.848 127.298 220.815 127.311C220.111 127.59 219.462 128.238 219.163 128.932C219.149 128.964 219.197 128.989 219.211 128.957Z" fill="#5082EB"/>
<path d="M220.78 129.353C220.913 130.193 221.346 130.996 221.886 131.645C221.908 131.671 221.954 131.642 221.932 131.614C221.397 130.973 220.967 130.181 220.834 129.35C220.829 129.315 220.774 129.318 220.78 129.353Z" fill="#5082EB"/>
<path d="M221.373 127.503C220.69 127.887 220.111 128.407 219.656 129.046C219.636 129.074 219.676 129.111 219.697 129.083C220.149 128.448 220.724 127.931 221.403 127.549C221.434 127.531 221.404 127.486 221.373 127.503Z" fill="#5082EB"/>
<path d="M217.894 131.888C220.309 132.015 220.834 132.668 220.847 133.675C220.859 134.683 220.273 135.599 218.642 135.755C214.697 136.133 210.214 134.485 210.206 133.808C210.2 133.315 214.532 131.71 217.894 131.888Z" fill="#ADC7FF"/>
<path d="M209.652 133.733C213.248 134.447 216.955 133.295 220.536 134.14C220.57 134.148 220.582 134.095 220.547 134.087C216.966 133.242 213.259 134.393 209.663 133.679C209.629 133.672 209.617 133.726 209.652 133.733Z" fill="#5082EB"/>
<path d="M215.608 133.917C215.69 133.181 216.11 132.381 216.69 131.917C216.717 131.895 216.687 131.849 216.66 131.871C216.068 132.345 215.638 133.154 215.555 133.905C215.551 133.94 215.605 133.952 215.608 133.917Z" fill="#5082EB"/>
<path d="M217.228 133.842C217.602 134.606 218.253 135.245 218.96 135.706C218.989 135.726 219.014 135.677 218.985 135.658C218.285 135.2 217.644 134.568 217.274 133.812C217.258 133.781 217.212 133.811 217.228 133.842Z" fill="#5082EB"/>
<path d="M217.25 131.892C216.707 132.462 216.306 133.132 216.058 133.878C216.047 133.911 216.101 133.923 216.112 133.89C216.357 133.153 216.755 132.492 217.29 131.929C217.315 131.903 217.274 131.867 217.25 131.892Z" fill="#5082EB"/>
<path d="M212.047 118.716C210.989 116.541 210.183 116.312 209.25 116.692C208.318 117.073 207.703 117.971 208.194 119.533C209.383 123.314 212.647 126.8 213.274 126.544C213.729 126.358 213.52 121.743 212.047 118.716Z" fill="#ADC7FF"/>
<path d="M213.604 126.995C211.544 123.963 211.163 120.098 208.989 117.13C208.968 117.101 208.922 117.131 208.943 117.16C211.118 120.128 211.498 123.993 213.558 127.025C213.578 127.055 213.624 127.024 213.604 126.995Z" fill="#5082EB"/>
<path d="M211.098 121.655C211.757 121.286 212.336 120.575 212.541 119.845C212.551 119.811 212.497 119.8 212.488 119.834C212.286 120.549 211.714 121.248 211.068 121.609C211.037 121.626 211.067 121.672 211.098 121.655Z" fill="#5082EB"/>
<path d="M210.508 120.035C209.668 119.988 208.836 119.641 208.143 119.175C208.114 119.155 208.089 119.204 208.118 119.223C208.819 119.694 209.662 120.043 210.511 120.089C210.547 120.091 210.543 120.037 210.508 120.035Z" fill="#5082EB"/>
<path d="M212.245 119.285C211.934 119.999 211.478 120.624 210.893 121.139C210.867 121.162 210.908 121.199 210.934 121.176C211.523 120.658 211.981 120.029 212.294 119.31C212.308 119.277 212.259 119.252 212.245 119.285Z" fill="#5082EB"/>
<path d="M204.233 125.511C202.11 123.649 201.138 123.766 200.307 124.598C199.475 125.43 199.218 126.674 200.454 128.134C203.444 131.667 208.535 133.944 209.094 133.385C209.501 132.978 207.188 128.104 204.233 125.511Z" fill="#ADC7FF"/>
<path d="M209.65 133.718C206.817 131.88 204.868 129.02 202.372 126.794C201.702 126.197 200.99 125.646 200.219 125.184C200.184 125.163 200.155 125.22 200.19 125.241C203.087 126.978 205.063 129.837 207.506 132.102C208.167 132.714 208.865 133.285 209.62 133.775C209.655 133.798 209.684 133.741 209.65 133.718Z" fill="#5082EB"/>
<path d="M204.539 129.109C205.082 128.419 205.389 127.382 205.278 126.508C205.273 126.468 205.209 126.471 205.214 126.512C205.323 127.369 205.024 128.389 204.492 129.066C204.466 129.098 204.514 129.141 204.539 129.109Z" fill="#5082EB"/>
<path d="M203.178 127.626C202.256 127.957 201.196 127.961 200.243 127.772C200.203 127.764 200.189 127.827 200.229 127.835C201.195 128.026 202.264 128.022 203.198 127.687C203.237 127.673 203.217 127.612 203.178 127.626Z" fill="#5082EB"/>
<path d="M204.704 126.039C204.694 126.946 204.486 127.823 204.089 128.639C204.071 128.676 204.128 128.705 204.146 128.668C204.548 127.843 204.757 126.953 204.768 126.036C204.768 125.995 204.704 125.998 204.704 126.039Z" fill="#5082EB"/>
</g>
<path d="M138.324 157.517H115.072C114.16 156.378 113.208 155.603 111.785 155.661C107.282 155.843 104.631 153.921 103.304 151.297C103.293 151.275 103.282 151.253 103.272 151.231C102.966 150.614 102.733 149.959 102.565 149.284C102.56 149.263 102.555 149.241 102.549 149.22C102.496 148.999 102.449 148.777 102.41 148.553C101.72 144.663 92.1149 143.937 95.1768 139.327C98.2387 134.717 107.039 139.202 110.428 136.831C110.799 136.571 111.203 136.327 111.633 136.107C111.651 136.097 111.67 136.088 111.689 136.078C115.18 134.307 120.318 134.035 123.201 138.63C123.637 139.326 124.07 139.857 124.506 140.268C125.007 140.741 125.514 141.056 126.037 141.283C126.057 141.292 126.076 141.301 126.097 141.309C128.497 142.319 131.255 141.544 135.494 145.676C138.59 148.694 138.824 153.535 138.324 157.517Z" fill="#5082EB"/>
<path d="M131.426 157.517H131.156C129.602 155.814 127.967 154.186 126.254 152.651C125.474 151.952 124.673 151.282 123.85 150.638C123.289 150.199 122.719 149.773 122.139 149.359C122.121 149.346 122.102 149.333 122.084 149.32C121.517 148.916 120.941 148.524 120.357 148.145C120.357 148.145 120.357 148.145 120.357 148.144C120.347 148.137 120.336 148.129 120.325 148.123C118.816 147.141 117.254 146.24 115.649 145.418C111.983 143.539 108.103 142.073 104.111 141.054C103.439 140.883 102.761 140.722 102.081 140.576C102.059 140.57 102.036 140.566 102.014 140.561C99.7747 140.081 97.4977 139.749 95.2123 139.653C95.0842 139.647 95.0842 139.449 95.2123 139.454C95.5134 139.467 95.8144 139.484 96.1154 139.505C99.294 139.729 102.449 140.36 105.512 141.226C105.888 141.332 106.262 141.442 106.636 141.556C106.657 141.562 106.678 141.568 106.699 141.575C109.732 142.505 112.688 143.693 115.518 145.128C115.54 145.139 115.562 145.15 115.585 145.162C116.132 145.439 116.675 145.727 117.212 146.024C117.322 146.084 117.431 146.145 117.54 146.206C117.559 146.217 117.578 146.228 117.597 146.238C119.794 147.476 121.885 148.869 123.866 150.411C124.456 150.871 125.036 151.343 125.606 151.83C125.622 151.843 125.639 151.856 125.655 151.87C126.267 152.394 126.869 152.933 127.458 153.486C128.831 154.775 130.155 156.122 131.426 157.517Z" fill="#5082EB"/>
<path d="M111.603 136.071C113.815 138.635 115.071 141.946 115.539 145.273C115.545 145.312 115.603 145.296 115.598 145.257C115.129 141.919 113.865 138.599 111.646 136.028C111.62 135.998 111.577 136.041 111.603 136.071Z" fill="#5082EB"/>
<path d="M113.64 135.38C114.847 136.974 115.838 138.726 116.569 140.588C117.283 142.405 117.86 144.353 117.52 146.319C117.513 146.357 117.572 146.374 117.579 146.335C117.914 144.395 117.368 142.485 116.673 140.687C115.935 138.778 114.928 136.981 113.692 135.349C113.669 135.318 113.616 135.348 113.64 135.38Z" fill="#5082EB"/>
<path d="M122.147 149.284C117.748 151.751 112.523 152.714 107.522 152.132C106.087 151.965 104.671 151.664 103.292 151.23C103.255 151.218 103.239 151.277 103.276 151.289C108.135 152.82 113.502 152.681 118.318 151.052C119.654 150.6 120.947 150.027 122.178 149.337C122.212 149.318 122.181 149.265 122.147 149.284Z" fill="#5082EB"/>
<path d="M120.313 148.126C116.031 150.204 111.078 150.717 106.396 150.056C105.101 149.873 103.82 149.593 102.566 149.221C102.528 149.21 102.512 149.269 102.55 149.28C107.105 150.63 112.09 150.793 116.687 149.545C117.946 149.203 119.171 148.748 120.344 148.179C120.38 148.162 120.349 148.109 120.313 148.126Z" fill="#5082EB"/>
<path d="M105.052 137.523C106.017 138.659 106.521 140.202 106.647 141.672C106.651 141.711 106.712 141.711 106.708 141.672C106.58 140.185 106.072 138.629 105.095 137.48C105.069 137.45 105.026 137.493 105.052 137.523Z" fill="#5082EB"/>
<path d="M102.11 140.45C100.695 142.149 98.6487 143.237 96.4482 143.455C96.4094 143.459 96.409 143.52 96.4482 143.516C98.6647 143.297 100.728 142.205 102.153 140.493C102.178 140.463 102.135 140.419 102.11 140.45Z" fill="#5082EB"/>
<path d="M126.035 141.295C126.126 143.112 126.326 144.921 126.456 146.735C126.581 148.479 126.45 150.281 125.599 151.843C125.58 151.877 125.633 151.908 125.651 151.873C126.467 150.378 126.632 148.655 126.534 146.98C126.422 145.083 126.191 143.194 126.096 141.295C126.094 141.256 126.033 141.256 126.035 141.295Z" fill="#5082EB"/>
<g opacity="0.4">
<path d="M213.211 152.62C213.211 152.62 212.389 143.677 217.242 140.989C222.095 138.3 223.334 141.38 226.315 138.637C229.296 135.894 233.03 137.612 234.779 139.716C236.528 141.82 242.925 140.494 244.075 143.969C245.225 147.445 238.969 146.232 237.851 148.594C236.732 150.956 234.398 152.691 230.629 151.495C226.859 150.3 225.83 159.908 213.211 152.62Z" fill="#5082EB"/>
<path d="M244.03 144.043C242.052 143.591 240.009 143.409 237.983 143.38C235.229 143.34 232.468 143.612 229.774 144.188C226.989 144.784 224.285 145.713 221.741 146.995C219.345 148.203 217.055 149.635 214.898 151.229C213.001 152.629 211.116 154.171 209.648 156.031C209.508 156.208 209.373 156.39 209.243 156.575C209.194 156.644 209.311 156.705 209.359 156.637C210.675 154.762 212.497 153.227 214.3 151.842C216.398 150.232 218.636 148.789 220.969 147.544C223.429 146.231 226.023 145.231 228.732 144.563C231.462 143.889 234.274 143.539 237.086 143.509C239.208 143.487 241.348 143.634 243.431 144.049C243.622 144.087 243.812 144.128 244.001 144.171C244.083 144.19 244.112 144.062 244.03 144.043Z" fill="#5082EB"/>
<path d="M219.326 140.166C217.445 142.863 217.537 146.282 217.658 149.421C217.659 149.447 217.699 149.445 217.698 149.419C217.577 146.286 217.484 142.877 219.362 140.185C219.377 140.164 219.341 140.145 219.326 140.166Z" fill="#5082EB"/>
<path d="M220.426 147.771C222.036 149.56 224.351 150.652 226.61 151.37C227.25 151.574 227.899 151.746 228.556 151.887C228.581 151.892 228.59 151.853 228.565 151.848C226.218 151.343 223.857 150.465 221.908 149.042C221.382 148.657 220.89 148.226 220.454 147.742C220.436 147.722 220.409 147.752 220.426 147.771Z" fill="#5082EB"/>
<path d="M234.14 138.992C232.276 140.244 230.889 142.145 230.009 144.192C229.998 144.216 230.034 144.235 230.044 144.211C230.922 142.17 232.303 140.275 234.162 139.026C234.183 139.011 234.162 138.977 234.14 138.992Z" fill="#5082EB"/>
<path d="M232.956 138.198C231.877 139.029 230.915 140.007 230.108 141.105C229.359 142.124 228.679 143.242 228.558 144.529C228.555 144.555 228.595 144.564 228.597 144.538C228.72 143.235 229.418 142.101 230.181 141.073C230.977 140.002 231.921 139.046 232.978 138.233C232.998 138.217 232.977 138.183 232.956 138.198Z" fill="#5082EB"/>
<path d="M225.101 145.648C227.493 148.005 230.687 149.538 234.003 150.033C234.936 150.172 235.88 150.225 236.822 150.189C236.848 150.188 236.846 150.148 236.82 150.149C233.481 150.278 230.109 149.267 227.337 147.415C226.546 146.886 225.806 146.285 225.128 145.618C225.11 145.6 225.082 145.63 225.101 145.648Z" fill="#5082EB"/>
<path d="M226.474 145.229C228.843 147.302 231.914 148.498 235.016 148.895C235.885 149.007 236.761 149.053 237.637 149.034C237.663 149.034 237.661 148.993 237.635 148.994C234.52 149.061 231.341 148.306 228.642 146.734C227.882 146.291 227.164 145.779 226.502 145.2C226.482 145.182 226.455 145.212 226.474 145.229Z" fill="#5082EB"/>
<path d="M238.067 141.061C237.243 141.622 236.647 142.53 236.307 143.455C236.298 143.479 236.338 143.488 236.346 143.464C236.682 142.549 237.275 141.65 238.089 141.095C238.11 141.081 238.089 141.047 238.067 141.061Z" fill="#5082EB"/>
<path d="M239.421 143.492C240.03 144.832 241.156 145.893 242.531 146.418C242.555 146.427 242.574 146.392 242.55 146.383C241.185 145.861 240.064 144.81 239.459 143.479C239.449 143.456 239.41 143.468 239.421 143.492Z" fill="#5082EB"/>
<path d="M224.002 139.834C223.615 141.013 223.15 142.164 222.748 143.337C222.382 144.402 222.177 145.549 222.441 146.661C222.447 146.687 222.486 146.674 222.48 146.649C222.205 145.492 222.446 144.306 222.836 143.205C223.234 142.083 223.67 140.974 224.041 139.843C224.049 139.818 224.01 139.809 224.002 139.834Z" fill="#5082EB"/>
<path d="M224.575 154.669C221.951 154.518 219.41 153.421 217.166 152.112C216.55 151.753 215.949 151.367 215.365 150.958C215.344 150.943 215.325 150.979 215.346 150.993C217.497 152.502 219.917 153.767 222.482 154.389C223.17 154.556 223.87 154.669 224.577 154.709C224.603 154.711 224.601 154.671 224.575 154.669Z" fill="#5082EB"/>
</g>
<path d="M165.141 117.399C164.698 119.314 158.855 123.128 158.347 124.846C158.3 125.004 158.298 125.144 158.35 125.263C158.462 125.521 158.557 125.772 158.638 126.017C158.647 126.041 158.653 126.063 158.659 126.085C158.729 126.296 158.786 126.501 158.832 126.703C158.876 126.891 158.911 127.076 158.938 127.258C158.942 127.281 158.947 127.305 158.949 127.326C159.029 129.02 158.642 130.409 158.044 131.532C157.152 133.209 155.79 134.29 154.811 134.898C154.114 135.332 153.613 135.526 153.613 135.526C153.283 136.466 154.451 151.725 156.402 157.518H131.59C130.845 139.394 129.921 133.835 129.921 133.835C125.134 129.886 125.218 122.979 125.956 118.897C125.956 118.893 125.956 118.89 125.957 118.887C125.992 118.692 126.043 118.518 126.108 118.363C126.108 118.361 126.109 118.361 126.109 118.36C126.88 116.509 129.682 117.096 133.557 112.025C133.883 111.599 134.21 111.152 134.537 110.685C134.888 110.184 135.238 109.658 135.583 109.107C135.711 108.906 135.836 108.701 135.961 108.494C135.983 108.46 136.002 108.428 136.021 108.394C136.188 108.121 136.351 107.841 136.513 107.555C136.699 107.231 136.88 106.901 137.062 106.563C137.081 106.525 137.101 106.487 137.121 106.45C138.744 103.388 140.194 99.7315 141.199 95.4105C141.379 94.6484 141.542 93.8672 141.69 93.0636C141.925 91.7831 143.633 92.6238 146.027 94.6204C147.388 95.7556 148.972 97.2626 150.633 98.9658C151.537 99.8915 152.465 100.875 153.392 101.887C154.74 103.36 156.089 104.893 157.367 106.4C159.048 108.381 160.607 110.316 161.881 112.003C161.945 112.087 162.006 112.17 162.068 112.251C162.08 112.267 162.091 112.283 162.101 112.296C164.047 114.894 165.266 116.852 165.141 117.399Z" fill="#FDBAA0"/>
<g opacity="0.5">
<path d="M168.862 106.071C164.841 105.384 155.913 106.574 155.913 106.574L155.911 106.571C155.067 105.276 154.2 103.689 153.322 101.732L155.538 100.284L168.862 106.071Z" fill="#F18E7B"/>
</g>
<path opacity="0.4" d="M158.045 131.53C157.952 131.43 157.86 131.251 157.771 130.979C156.71 127.738 146.371 128.325 146.371 128.325L158.347 124.844C158.3 125.002 158.298 125.142 158.35 125.261C158.462 125.519 158.558 125.77 158.638 126.015C158.647 126.038 158.653 126.061 158.659 126.083C158.729 126.294 158.786 126.499 158.832 126.701C158.876 126.889 158.911 127.074 158.939 127.256C158.942 127.279 158.948 127.303 158.949 127.324C159.029 129.018 158.642 130.407 158.045 131.53Z" fill="#F18E7B"/>
<path d="M161.612 112.098C163.409 112.876 165.333 113.2 167.285 113.053C167.409 113.043 167.392 112.852 167.269 112.861C165.348 113.006 163.463 112.69 161.695 111.924C161.581 111.874 161.498 112.049 161.612 112.098Z" fill="#F18E7B"/>
<path d="M142.949 128.07L178.706 124.989C181.265 124.768 183.16 122.515 182.939 119.957L177.096 52.1649C176.876 49.6063 174.623 47.711 172.064 47.9315L136.307 51.0135C133.749 51.234 131.854 53.4869 132.074 56.0454L137.917 123.837C138.138 126.396 140.391 128.291 142.949 128.07Z" fill="#E6EEFB"/>
<path d="M183.568 119.904L181.905 100.608V100.607L180.181 80.6118L180.137 80.105V80.1037L179.089 67.9344L178.317 58.9846L177.725 52.1125C177.475 49.2105 174.911 47.0537 172.01 47.3039L136.254 50.3861C134.845 50.5079 133.613 51.1742 132.744 52.1605C132.734 52.1722 132.724 52.1838 132.714 52.1968C131.814 53.2376 131.318 54.6258 131.445 56.1007L135.023 97.6054L135.961 108.494L137.288 123.892C137.539 126.794 140.102 128.951 143.003 128.701L144.225 128.596L144.333 128.587L158.949 127.327L167.281 126.607L167.403 126.597L178.761 125.618C180.212 125.493 181.476 124.789 182.347 123.753L182.366 123.73C183.225 122.698 183.693 121.343 183.568 119.904ZM136.362 51.6433L172.119 48.5611C174.327 48.3706 176.277 50.0128 176.468 52.2201L178.749 78.6832L178.8 79.2755L179.264 84.6518V84.6531L180.527 99.3123V99.3136L182.311 120.011C182.404 121.096 182.057 122.118 181.417 122.901C180.753 123.712 179.776 124.264 178.652 124.361L167.317 125.339L167.185 125.35L158.66 126.085L144.454 127.309L142.896 127.444C140.687 127.634 138.736 125.992 138.546 123.785L137.062 106.563L136.241 97.0468L132.703 55.9932C132.606 54.8694 132.984 53.8118 133.67 53.0199C134.329 52.255 135.278 51.7365 136.362 51.6433Z" fill="#383463"/>
<path d="M183.634 119.829L181.982 100.66V100.659L180.236 80.4082V80.4056L180.216 80.1762L179.185 68.2V68.1987L178.378 58.8446L177.791 52.036C177.541 49.1353 174.979 46.9785 172.077 47.2287L136.32 50.3109C134.878 50.4353 133.619 51.1327 132.748 52.1592C132.738 52.1709 132.727 52.1825 132.718 52.1955C131.858 53.2272 131.388 54.5842 131.512 56.0255L135.093 97.5717L136.026 108.393L137.356 123.817C137.606 126.718 140.168 128.875 143.07 128.624L144.245 128.523L144.347 128.514L158.943 127.257L167.28 126.539L167.403 126.527L178.827 125.543C180.244 125.422 181.483 124.748 182.351 123.752L182.37 123.729C183.267 122.688 183.761 121.302 183.634 119.829ZM178.719 124.286L167.316 125.269L167.184 125.28L158.642 126.017L144.46 127.239L142.962 127.368C140.754 127.558 138.802 125.917 138.613 123.709L137.125 106.449L136.312 97.0169L132.769 55.9166C132.676 54.8279 133.027 53.8014 133.674 53.0184C134.336 52.2135 135.309 51.664 136.428 51.5681L172.185 48.4859C174.393 48.2954 176.345 49.9363 176.534 52.1449L178.828 78.7635L178.859 79.1226V79.1239L179.315 84.4082L180.608 99.4018L182.378 119.936C182.474 121.055 182.101 122.107 181.42 122.899C180.759 123.671 179.808 124.193 178.719 124.286Z" fill="#5A669A"/>
<path d="M125.959 118.887C126.376 117.902 129.474 101.232 131.999 99.3995C136.326 96.2575 142.708 94.8027 146.232 94.6058C148.167 94.4977 150.354 93.9997 151.342 93.6469C151.913 93.4429 152.365 93.5255 152.68 94.0443C153.206 94.9102 153.031 96.2353 151.997 97.6109C149.566 100.842 143.961 101.543 143.961 101.543C142.589 102.535 141.8 104.113 139.208 105.246C138.714 105.462 148.877 127.633 142.189 132.952C130.783 142.025 125.822 119.21 125.959 118.887Z" fill="#FDBAA0"/>
<path d="M147.508 94.4667C147.508 94.4667 147.463 95.7527 148.586 95.7527C149.71 95.7527 152.479 94.568 152.479 93.7756C152.48 92.8039 149.015 94.1096 147.508 94.4667Z" fill="#FFC6B2"/>
<path d="M126.906 129.933C128.512 133.53 132.31 135.933 136.248 135.853C136.372 135.851 136.372 135.658 136.248 135.66C132.372 135.739 128.653 133.374 127.073 129.835C127.022 129.722 126.856 129.82 126.906 129.933Z" fill="#F18E7B"/>
<path d="M144.409 129.711C144.282 130.955 143.85 132.123 143.146 133.155C143.076 133.258 143.243 133.355 143.313 133.253C144.037 132.191 144.472 130.99 144.602 129.711C144.614 129.588 144.421 129.589 144.409 129.711Z" fill="#F18E7B"/>
<path d="M150.292 136.671C152.32 136.137 154.349 135.635 155.926 134.153C156.017 134.067 155.88 133.931 155.789 134.016C154.238 135.474 152.234 135.96 150.24 136.485C150.12 136.516 150.171 136.703 150.292 136.671Z" fill="#F18E7B"/>
<path d="M137.832 105.671C140.633 105.182 142.949 103.107 144.457 100.785C144.525 100.68 144.358 100.583 144.29 100.687C142.808 102.97 140.533 105.004 137.781 105.485C137.659 105.506 137.71 105.692 137.832 105.671Z" fill="#F18E7B"/>
<path d="M138.972 105.238C138.797 105.617 138.586 105.975 138.339 106.312C138.265 106.412 138.433 106.508 138.505 106.409C138.753 106.072 138.963 105.715 139.138 105.335C139.19 105.223 139.024 105.125 138.972 105.238Z" fill="#F18E7B"/>
<path opacity="0.2" d="M156.403 157.517H146.571C150.366 153.844 147.21 153.31 146.881 150.022C146.475 145.959 147.593 143.29 149.05 140.392C150.967 136.578 152.101 136.098 152.238 136.057L154.811 134.897C154.115 135.331 153.614 135.525 153.614 135.525C153.284 136.465 154.452 151.724 156.403 157.517Z" fill="#F18E7B"/>
<path d="M143.115 137.302C142.769 139.164 142.684 141.054 142.869 142.939C142.88 143.061 143.074 143.063 143.062 142.939C142.879 141.072 142.958 139.198 143.301 137.353C143.324 137.232 143.138 137.18 143.115 137.302Z" fill="#F18E7B"/>
<path d="M132.969 37.249C132.969 37.249 129.43 38.6448 130.519 42.0503L131.799 41.8898C131.799 41.8898 131.232 39.7265 133.602 38.4904L132.969 37.249Z" fill="#F6CC53"/>
<path d="M147.504 44.4521C147.504 44.4521 147.496 47.0075 145.495 47.0996L143.634 46.4635C143.634 46.4635 145.881 47.0424 145.707 44.6274L147.504 44.4521Z" fill="#F64D63"/>
<path d="M141.242 44.7478C141.242 44.7478 141.863 47.9641 145.882 47.0422C145.882 47.0422 143.613 46.4282 143.523 44.1611L141.242 44.7478Z" fill="#EB6E58"/>
<path d="M172.188 112.315L150.244 114.206C147.423 114.449 144.938 112.359 144.695 109.538C144.452 106.716 146.542 104.232 149.363 103.989L171.308 102.097C174.129 101.854 176.613 103.944 176.857 106.766C177.1 109.587 175.01 112.071 172.188 112.315Z" fill="#246AFF"/>
<path d="M223.126 157.516H186.856C186.054 156.894 185.194 156.194 184.268 155.405C184.267 155.404 184.265 155.404 184.264 155.403C184.142 155.299 184.026 155.187 183.918 155.071C180.997 151.946 183.32 144.949 185.436 144.661C185.464 144.657 185.491 144.654 185.518 144.653C185.544 144.651 185.572 144.651 185.598 144.652H185.605C185.617 144.653 185.629 144.654 185.641 144.654C185.641 144.654 185.566 144.524 185.427 144.274C185.376 144.179 185.314 144.068 185.242 143.94V143.939C185.173 143.814 185.095 143.674 185.01 143.518C184.979 143.462 184.947 143.402 184.914 143.341C184.912 143.339 184.911 143.336 184.91 143.334C184.623 142.809 184.263 142.139 183.844 141.346C182.584 138.947 180.805 135.425 178.999 131.393C177.173 127.314 175.885 123.973 174.433 120.82C173.042 117.796 171.724 114.989 170.331 112.219C166.932 105.457 171.239 103.448 173.666 106.585C177.581 111.646 183.532 123.261 185.785 126.032C186.026 126.329 186.226 126.524 186.375 126.599H186.376C186.427 126.625 186.472 126.636 186.512 126.633C186.56 126.629 186.599 126.603 186.628 126.552C187.046 125.837 186.186 121.618 191.03 121.769C192.942 121.828 194.127 123.952 194.833 124.714C195.008 124.902 195.152 125.008 195.272 124.978C195.323 124.966 195.37 124.929 195.412 124.864C195.998 123.95 195.19 121.486 199.147 121.082C200.798 120.914 201.914 121.901 202.525 122.282C202.624 122.343 202.71 122.389 202.783 122.411H202.784C202.839 122.428 202.887 122.432 202.927 122.417C202.953 122.409 202.975 122.392 202.995 122.368C204.309 120.72 205.797 120.789 207.063 121.527C209.405 122.892 209.606 125.565 214.365 133.433C215.254 134.903 215.902 138.725 216.707 142.69C217.446 146.328 218.315 150.086 219.622 152.258C220.189 153.2 221.469 155.113 223.126 157.516Z" fill="#FDBAA0"/>
<path d="M169.521 106.831C169.521 106.831 170.111 109.555 171.168 110.026C172.226 110.497 173.975 109.41 173.995 108.878C174.015 108.347 172.433 105.804 172.105 105.671C171.776 105.538 169.885 106.184 169.521 106.831Z" fill="#FFC6B2"/>
<path d="M185.214 144.053C186.328 145.693 187.289 147.424 188.092 149.237C188.137 149.337 188.283 149.25 188.239 149.151C187.436 147.338 186.475 145.607 185.361 143.967C185.3 143.877 185.152 143.962 185.214 144.053Z" fill="#F18E7B"/>
<path d="M199.15 157.517H186.637C185.841 156.855 185.045 156.142 184.271 155.406C184.271 155.405 184.269 155.404 184.268 155.404C184.152 155.294 184.037 155.183 183.922 155.072C181.705 152.931 179.691 150.647 178.352 148.936C175.109 144.793 174.471 143.601 173.831 140.864C173.606 139.897 172.976 138.779 172.253 137.738C170.965 135.878 169.385 134.259 169.308 134.181L169.306 134.179C168.393 133.189 170.328 131.453 173.239 132.149C176.148 132.844 179.141 137.456 179.141 137.456C180.272 138.314 182.609 141.3 183.222 142.429C183.392 142.742 184.035 143.084 184.996 143.511H184.997C185.003 143.514 185.008 143.516 185.014 143.519C187.518 144.627 192.171 146.306 196.333 149.539C199.256 151.809 199.949 155.019 199.15 157.517Z" fill="#FDBAA0"/>
<path d="M183.86 141.386C185.241 144.042 186.429 146.794 187.416 149.621C187.448 149.712 187.595 149.673 187.562 149.58C186.571 146.741 185.378 143.977 183.991 141.309C183.946 141.223 183.815 141.299 183.86 141.386Z" fill="#F18E7B"/>
<path d="M179 137.356C178.549 137.372 178.121 137.47 177.707 137.648C177.617 137.686 177.694 137.817 177.783 137.779C178.172 137.611 178.577 137.522 179 137.508C179.097 137.505 179.097 137.353 179 137.356Z" fill="#F18E7B"/>
<path d="M178.826 137.466C178.647 137.609 178.485 137.771 178.341 137.95C178.281 138.025 178.387 138.133 178.448 138.057C178.592 137.878 178.754 137.716 178.934 137.573C179.01 137.512 178.902 137.406 178.826 137.466Z" fill="#F18E7B"/>
<path d="M183.866 142.985C183.6 142.8 183.302 142.695 182.98 142.665C182.883 142.657 182.883 142.808 182.98 142.817C183.276 142.844 183.546 142.946 183.79 143.116C183.87 143.172 183.946 143.041 183.866 142.985Z" fill="#F18E7B"/>
<path d="M185.804 126.111C186.318 126.646 186.833 127.182 187.347 127.718C187.414 127.788 187.521 127.681 187.454 127.611C186.94 127.075 186.425 126.539 185.911 126.003C185.843 125.933 185.736 126.04 185.804 126.111Z" fill="#F18E7B"/>
<path d="M194.705 124.801C195.07 125.084 195.482 125.265 195.94 125.335C196.035 125.35 196.076 125.204 195.98 125.189C195.551 125.124 195.157 124.96 194.812 124.694C194.736 124.635 194.628 124.741 194.705 124.801Z" fill="#F18E7B"/>
<path d="M202.385 122.132C202.78 122.566 203.281 122.861 203.852 122.998C203.947 123.02 203.987 122.874 203.892 122.851C203.345 122.721 202.87 122.44 202.492 122.025C202.426 121.953 202.319 122.06 202.385 122.132Z" fill="#F18E7B"/>
<path d="M172.983 136.591C173.006 137.091 172.596 137.492 172.254 137.738C170.276 135.94 169.24 134.336 169.309 134.181L169.307 134.179C169.307 134.179 169.834 133.199 170.52 133.683C171.206 134.168 172.943 135.743 172.983 136.591Z" fill="#FFC6B2"/>
<path d="M176.791 120.296C177.46 119.78 178.226 119.448 179.061 119.311C179.156 119.296 179.116 119.15 179.02 119.165C178.174 119.304 177.394 119.642 176.714 120.165C176.638 120.224 176.713 120.356 176.791 120.296Z" fill="#F18E7B"/>
<path d="M177.851 120.595C178.092 120.51 178.333 120.426 178.574 120.341C178.665 120.309 178.626 120.163 178.533 120.195C178.293 120.28 178.052 120.364 177.811 120.449C177.719 120.481 177.759 120.628 177.851 120.595Z" fill="#F18E7B"/>
<path d="M185.993 49.7691L183.461 50.339L174.769 52.2949L140.906 59.9165L133.513 61.5808L127.162 63.0104L125.069 53.7154L123.193 45.3786L122.048 40.29L180.879 27.0488L181.726 30.8117L183.558 38.9507L185.993 49.7691Z" fill="#ADC7FF"/>
<path d="M180.88 27.0456L122.049 40.2881L122.516 42.3631L181.347 29.1207L180.88 27.0456Z" fill="#88B3FF"/>
<path d="M181.751 28.1683L176.33 29.3884L167.729 31.3244L141.149 37.3071L132.297 39.2992L121.458 41.7391L120.844 39.0102L119.85 34.5953L127.477 32.8786L155.988 26.4616L164.178 24.6185L175.979 21.9627L180.143 21.0254L181.474 26.942L181.751 28.1683Z" fill="#ADC7FF"/>
<path d="M150.224 27.5891C148.88 27.7497 147.323 27.8213 146.027 27.3678C144.877 26.9654 144.181 25.6968 144.593 24.5156C145.158 22.8948 147.079 24.1934 147.925 24.8507C148.904 25.6108 149.692 26.5794 150.26 27.6792C150.394 27.9393 150.853 27.7566 150.741 27.4763C150.31 26.3947 149.87 25.2471 149.882 24.0651C149.892 23.0368 150.441 21.5042 151.696 21.5248C153.323 21.5516 152.548 23.5793 152.17 24.4214C151.691 25.4888 151.055 26.4781 150.294 27.3656C150.432 27.4719 150.57 27.5784 150.708 27.6847C151.323 26.7601 152.071 25.9326 152.938 25.2379C153.356 24.9035 153.815 24.5451 154.318 24.3473C154.841 24.1414 155.601 24.1429 155.605 24.8874C155.611 26.0141 153.901 26.3279 153.078 26.5485C152.074 26.8176 151.058 27.0817 150.211 27.7129C149.942 27.9132 150.204 28.3706 150.477 28.1677C151.656 27.289 153.141 27.1777 154.481 26.6722C155.397 26.3267 156.603 25.4107 155.991 24.2814C155.375 23.146 153.914 23.8868 153.161 24.4162C152.009 25.2263 151.032 26.2474 150.253 27.4189C150.089 27.6652 150.471 27.9662 150.666 27.7381C151.643 26.6004 152.422 25.3129 152.947 23.907C153.175 23.2966 153.375 22.5881 153.134 21.9494C152.933 21.4155 152.444 21.0858 151.889 21.015C150.584 20.8483 149.67 22.1058 149.439 23.2501C149.139 24.7393 149.689 26.252 150.233 27.6164C150.393 27.5487 150.554 27.4811 150.714 27.4134C150.166 26.3508 149.413 25.3974 148.491 24.6329C147.685 23.9639 146.558 23.1284 145.45 23.1984C144.364 23.2669 143.887 24.4408 143.959 25.4001C144.038 26.4391 144.653 27.3518 145.614 27.7679C146.995 28.3661 148.763 28.2905 150.224 28.116C150.556 28.076 150.56 27.5488 150.224 27.5891Z" fill="#EB6E58"/>
<path d="M149.741 27.762C148.533 28.1966 147.242 28.6707 146.431 29.7228C146.056 30.2082 145.795 30.787 145.755 31.4043C145.706 32.1607 146.151 32.7572 146.242 33.4811C146.342 34.2728 145.77 34.9064 145.231 35.4041C144.739 35.858 144.237 36.2798 143.865 36.8437C143.161 37.9127 142.946 39.2358 143.219 40.4792C143.292 40.8102 143.799 40.6701 143.727 40.3391C143.455 39.0982 143.751 37.7497 144.572 36.7685C145.322 35.8724 146.521 35.2583 146.75 34.0136C146.861 33.4122 146.628 32.8962 146.436 32.3405C146.203 31.6684 146.251 31.0277 146.605 30.4055C147.287 29.2067 148.654 28.7115 149.881 28.2699C150.197 28.1559 150.061 27.6468 149.741 27.762Z" fill="#EB6E58"/>
<path d="M150.173 28.2627C151.083 27.6849 151.982 28.5297 152.575 29.1626C153.118 29.7429 153.702 30.37 154.518 30.5274C155.318 30.6815 156.094 30.3728 156.864 30.2035C157.823 29.9925 158.739 30.1961 159.429 30.9191C159.663 31.1648 160.035 30.792 159.801 30.5467C159.214 29.9314 158.398 29.5623 157.541 29.5828C156.537 29.6067 155.516 30.2538 154.513 29.9868C153.532 29.7258 152.989 28.7006 152.232 28.106C151.569 27.5856 150.664 27.3273 149.907 27.8079C149.622 27.989 149.885 28.4451 150.173 28.2627Z" fill="#EB6E58"/>
<path opacity="0.3" d="M127.654 34.2127C127.654 37.0265 125.373 39.3067 122.56 39.3067C121.957 39.3067 121.38 39.2019 120.844 39.0105L119.85 34.5956L127.477 32.8789C127.592 33.3043 127.654 33.7512 127.654 34.2127Z" fill="white"/>
<path opacity="0.3" d="M141.15 37.3077L132.297 39.2999C132.175 38.8899 132.11 38.4555 132.11 38.0058C132.11 35.4954 134.146 33.46 136.657 33.46C138.93 33.4599 140.814 35.1288 141.15 37.3077Z" fill="white"/>
<path opacity="0.1" d="M141.203 58.2969C141.203 58.8675 141.098 59.413 140.906 59.916L133.513 61.5803C132.649 60.7531 132.11 59.5882 132.11 58.2969C132.11 55.7864 134.146 53.751 136.657 53.751C139.167 53.751 141.203 55.7864 141.203 58.2969Z" fill="white"/>
<path opacity="0.1" d="M168.062 44.9385C168.639 42.495 167.126 40.0465 164.683 39.4695C162.239 38.8925 159.791 40.4056 159.214 42.8491C158.637 45.2926 160.15 47.7412 162.593 48.3181C165.037 48.8951 167.485 47.382 168.062 44.9385Z" fill="white"/>
<path opacity="0.1" d="M183.462 50.3388L174.769 52.2948C174.514 51.7268 174.372 51.0964 174.372 50.4336C174.372 47.9231 176.408 45.8877 178.918 45.8877C181.397 45.8878 183.412 47.8717 183.462 50.3388Z" fill="white"/>
<path opacity="0.1" d="M183.558 38.951C182.807 39.501 181.88 39.8251 180.878 39.8251C178.368 39.8251 176.332 37.7897 176.332 35.2792C176.332 32.7679 178.368 30.7324 180.878 30.7324C181.168 30.7324 181.451 30.7595 181.726 30.8119L183.558 38.951Z" fill="white"/>
<path opacity="0.1" d="M130.196 49.206C130.196 51.7165 128.16 53.7519 125.649 53.7519C125.452 53.7519 125.259 53.7393 125.069 53.7158L123.192 45.3789C123.9 44.9238 124.744 44.6592 125.649 44.6592C128.16 44.6592 130.196 46.6946 130.196 49.206Z" fill="white"/>
<path opacity="0.1" d="M147.144 51.5622C148.919 49.7869 148.919 46.9084 147.144 45.1331C145.368 43.3577 142.49 43.3577 140.715 45.1331C138.939 46.9084 138.939 49.7869 140.715 51.5622C142.49 53.3376 145.368 53.3376 147.144 51.5622Z" fill="white"/>
<path opacity="0.3" d="M165.014 27.2452C165.014 29.7565 162.978 31.792 160.467 31.792C157.956 31.792 155.921 29.7565 155.921 27.2452C155.921 26.9779 155.943 26.7169 155.989 26.4623L164.178 24.6191C164.704 25.3606 165.014 26.2672 165.014 27.2452Z" fill="white"/>
<path opacity="0.3" d="M176.332 29.2714C176.332 29.3102 176.331 29.3499 176.33 29.3888L167.729 31.3249C167.415 30.7081 167.239 30.0101 167.239 29.2715C167.239 26.761 169.275 24.7256 171.785 24.7256C174.296 24.7255 176.332 26.7609 176.332 29.2714Z" fill="white"/>
<path opacity="0.3" d="M181.475 26.9421C181.159 27.0116 180.83 27.0486 180.493 27.0486C177.983 27.0486 175.947 25.0132 175.947 22.5018C175.947 22.3194 175.958 22.1397 175.979 21.9627L180.143 21.0254L181.475 26.9421Z" fill="white"/>
<path d="M150.756 27.6384L149.522 27.916L155.963 56.5271L157.196 56.2495L150.756 27.6384Z" fill="#EB6E58"/>
<path d="M183.076 36.8005L124.245 50.043L124.453 50.9679L183.284 37.7254L183.076 36.8005Z" fill="#EB6E58"/>
<path d="M117.437 60.5078C117.437 60.5078 123.01 58.6838 121.646 53.3438L119.661 53.4735C119.661 53.4735 120.335 56.8544 116.576 58.5399L117.437 60.5078Z" fill="#75ACF2"/>
<path d="M94.3811 32.7367C94.3811 32.7367 90.9389 27.9885 86.2725 30.9212L87.0035 32.7714C87.0035 32.7714 90.0159 31.0951 92.771 34.1581L94.3811 32.7367Z" fill="#75ACF2"/>
<path d="M109.107 50.3899C109.107 50.3899 108.289 54.2431 105.24 53.7513L102.633 52.2049C102.633 52.2049 105.842 53.7868 106.341 50.0879L109.107 50.3899Z" fill="#F64D63"/>
<path d="M99.5625 48.8625C99.5625 48.8625 99.4862 53.9116 105.84 53.7871C105.84 53.7871 102.611 52.1455 103.19 48.6963L99.5625 48.8625Z" fill="#EB6E58"/>
<path d="M124.799 72.94C125.225 73.0226 125.46 73.6551 125.126 73.9783C124.951 74.1481 124.638 74.1609 124.418 74.2543C124.222 74.3374 124.046 74.4624 123.93 74.6437C123.465 75.3675 124.116 76.1528 124.088 76.8979C124.067 77.45 123.398 77.3145 123.01 77.3683C122.595 77.4258 122.247 77.6487 122.183 78.0898C122.102 78.6428 122.593 79.0892 122.48 79.6478C122.36 80.2391 121.753 80.7467 121.139 80.6487C120.765 80.5887 120.603 81.1625 120.981 81.2229C121.904 81.3705 122.796 80.7668 123.039 79.861C123.184 79.3224 122.965 78.9661 122.825 78.4642C122.708 78.0393 122.903 77.966 123.268 77.9427C123.488 77.9286 123.713 77.9342 123.929 77.8786C124.789 77.6564 124.732 76.8037 124.546 76.1142C124.462 75.8048 124.252 75.3271 124.404 75.0116C124.588 74.6316 125.31 74.6763 125.605 74.3357C126.161 73.6953 125.798 72.5286 124.957 72.3657C124.583 72.2931 124.423 72.8669 124.799 72.94Z" fill="#F6CC53"/>
<path d="M84.837 68.7243C85.7252 68.0231 86.0187 66.7623 85.6783 65.702C85.5208 65.2116 85.2269 64.75 84.8058 64.4457C84.4169 64.1648 83.8278 64.0661 83.6078 64.6025C83.1775 65.6515 84.3113 66.6627 85.2154 66.8935C86.366 67.1871 87.4494 66.58 88.0005 65.564C88.516 64.6137 88.7469 62.9709 87.9512 62.0958C87.6162 61.7274 87.0413 61.5806 86.5964 61.8496C86.0986 62.1507 86.1618 62.7323 86.3704 63.1968C86.8875 64.3487 88.1563 65.1688 89.4308 65.0537C90.6516 64.9434 91.7775 63.9827 91.9758 62.7551C92.0677 62.1859 91.9196 61.4298 91.292 61.235C90.807 61.0845 90.2073 61.3492 90.1968 61.9095C90.184 62.5952 90.9747 63.1804 91.5171 63.4586C92.1796 63.7986 92.9111 63.8968 93.6425 63.7795C93.9546 63.7294 93.8222 63.2548 93.5116 63.3045C92.6303 63.4458 91.701 63.1618 91.0641 62.5309C90.8952 62.3635 90.5443 61.9989 90.777 61.7758C90.9754 61.5856 91.2612 61.7048 91.393 61.9144C91.6389 62.3051 91.4901 62.8893 91.2954 63.2688C90.4319 64.9526 88.1421 64.9079 87.0846 63.4533C86.8656 63.1519 86.413 62.4047 86.9667 62.2246C87.4765 62.0587 87.7781 62.6484 87.8744 63.0411C88.062 63.8064 87.9352 64.685 87.5464 65.3684C87.1682 66.0333 86.5 66.5306 85.7094 66.477C85.0311 66.431 84.2824 66.0191 84.0806 65.3315C84.0278 65.1518 83.9468 64.7176 84.2416 64.7003C84.4241 64.6897 84.6775 64.967 84.7888 65.0931C85.0507 65.3895 85.2136 65.7653 85.2841 66.1526C85.4355 66.9855 85.158 67.8476 84.4886 68.376C84.2401 68.5723 84.5907 68.9187 84.837 68.7243Z" fill="#F6CC53"/>
<path d="M106.713 41.478C107.092 41.0641 107.787 40.3984 108.383 40.7945C108.728 41.0238 108.908 41.4656 109.163 41.7808C109.698 42.4427 110.396 42.3353 110.913 41.7155C111.149 41.4326 111.411 40.9212 111.677 41.4434C111.874 41.8307 112.057 42.1472 112.496 42.2943C112.935 42.4417 113.408 42.3766 113.857 42.316C114.276 42.2595 115.053 42.167 115.238 42.6792C115.368 43.0369 115.943 42.8826 115.813 42.5209C115.393 41.3605 114.078 41.7827 113.158 41.7887C112.827 41.7908 112.522 41.7369 112.332 41.4396C112.203 41.2374 112.156 40.9939 111.982 40.8174C111.694 40.5258 111.292 40.5223 110.974 40.7593C110.669 40.9867 110.45 41.5857 110.055 41.6573C109.649 41.731 109.329 40.9672 109.128 40.7097C108.276 39.6194 107.078 40.1984 106.292 41.0568C106.033 41.3391 106.453 41.7613 106.713 41.478Z" fill="#EB6E58"/>
<path d="M75 38.9527C75 38.9527 76.5631 37.9956 78.119 38.5227L78.3001 40.2634C78.3001 40.2634 76.3388 40.0394 75.5934 40.6955L75 38.9527Z" fill="#EB6E58"/>
<path d="M103.028 67.7321C103.028 67.7321 103.326 69.5405 102.252 70.7836L100.571 70.2962C100.571 70.2962 101.517 68.5633 101.19 67.626L103.028 67.7321Z" fill="#EB6E58"/>
<path d="M112.089 67.5053C112.089 67.5053 113.881 66.2017 115.807 66.6876L116.192 68.7683C116.192 68.7683 113.807 68.6866 112.971 69.549L112.089 67.5053Z" fill="#F6CC53"/>
<path d="M85.2031 47.4224C85.2031 47.4224 87.1219 43.3886 89.8083 42.6777L91.1276 44.5466C91.1276 44.5466 88.8611 46.3552 87.726 48.7371L85.2031 47.4224Z" fill="#F6CC53"/>
<path d="M206.542 51.1222C206.542 51.1222 210.232 47.9744 207.509 44.3184L206.032 45.0418C206.032 45.0418 207.61 47.4161 205.265 49.8874L206.542 51.1222Z" fill="#75ACF2"/>
<path d="M219.297 60.9385C219.297 60.9385 223.912 62.4324 225.599 58.198L224.209 57.3184C224.209 57.3184 223.014 59.9069 219.68 59.2038L219.297 60.9385Z" fill="#F6CC53"/>
<path d="M193.794 68.1406C193.794 68.1406 196.032 70.5086 194.264 72.352L191.986 73.3997C191.986 73.3997 194.571 71.9595 192.288 69.8814L193.794 68.1406Z" fill="#F64D63"/>
<path d="M188.27 73.9166C188.27 73.9166 191.67 76.3417 194.571 71.9593C194.571 71.9593 191.936 73.3854 189.861 71.3701L188.27 73.9166Z" fill="#EB6E58"/>
<path d="M218.925 90.6887C218.752 91.0889 218.102 91.1998 217.84 90.8086C217.695 90.5909 217.767 90.2669 217.712 90.0181C217.663 89.7962 217.563 89.5942 217.391 89.4431C216.739 88.8718 215.86 89.4079 215.142 89.1448C214.64 88.9612 214.984 88.2629 214.983 87.8761C214.983 87.4281 214.715 87.0732 214.265 87.0002C213.714 86.9108 213.223 87.2506 212.701 86.9153C212.203 86.5948 211.974 85.9719 212.191 85.4204C212.332 85.0637 211.756 84.909 211.617 85.2621C211.291 86.0904 211.728 87.069 212.495 87.4856C212.927 87.7201 213.335 87.6887 213.802 87.6155C214.186 87.5554 214.421 87.6311 214.371 88.0513C214.344 88.2877 214.274 88.5207 214.278 88.7607C214.293 89.663 215.125 89.8114 215.855 89.776C216.174 89.7605 216.69 89.6554 216.967 89.8653C217.318 90.1305 217.106 90.8413 217.399 91.2097C217.911 91.8541 219.104 91.7673 219.439 90.9891C219.589 90.641 219.076 90.3373 218.925 90.6887Z" fill="#F6CC53"/>
<path d="M217.949 71.1423C219.004 71.5205 220.212 71.1262 220.939 70.2939C221.286 69.8958 221.533 69.3949 221.573 68.8629C221.609 68.386 221.397 67.8393 220.825 67.9201C219.784 68.0671 219.471 69.4237 219.654 70.2741C219.904 71.4339 220.915 72.1428 222.078 72.1622C223.209 72.1812 224.743 71.5364 225.185 70.411C225.383 69.9051 225.246 69.2884 224.744 69.0142C224.198 68.7157 223.717 69.1223 223.427 69.5697C222.741 70.6294 222.75 72.1422 223.539 73.1447C224.27 74.0723 225.623 74.5063 226.739 74.0685C227.287 73.8535 227.896 73.3336 227.735 72.6736C227.603 72.1335 226.993 71.7775 226.509 72.1371C226.008 72.5093 225.923 73.363 225.956 73.9337C226 74.7047 226.302 75.4131 226.807 75.9934C227.015 76.233 227.362 75.8835 227.155 75.6451C226.572 74.9736 226.313 74.048 226.504 73.1731C226.55 72.9669 226.609 72.6895 226.796 72.5641C227.23 72.2733 227.311 72.9287 227.157 73.1763C226.919 73.5594 226.376 73.7161 225.951 73.7421C224.127 73.8538 223.005 71.9988 223.584 70.3631C223.706 70.0168 224.119 69.1335 224.587 69.4998C225.064 69.8726 224.618 70.5045 224.3 70.8008C223.696 71.363 222.838 71.7022 222.011 71.6686C221.234 71.637 220.53 71.2331 220.234 70.4975C220.005 69.9271 220.013 69.1865 220.438 68.7069C220.474 68.6662 220.534 68.5986 220.584 68.5675C220.667 68.468 220.768 68.4524 220.887 68.5206C221.051 68.491 221.118 68.5513 221.089 68.7014C221.134 68.8685 221.038 69.128 220.98 69.2894C220.854 69.6363 220.628 69.9425 220.352 70.1857C219.73 70.7352 218.869 70.9501 218.08 70.6674C217.781 70.5603 217.653 71.036 217.949 71.1423Z" fill="#F6CC53"/>
<path d="M188.704 86.8791C189.484 87.6723 190.71 87.8526 191.727 87.4419C192.215 87.2453 192.65 86.916 192.934 86.4695C193.206 86.0419 193.279 85.3738 192.663 85.2183C191.591 84.9475 190.739 86.1214 190.594 87.0334C190.409 88.191 191.083 89.2 192.13 89.6629C193.145 90.1116 194.812 90.1702 195.634 89.2916C195.977 88.9249 196.065 88.3426 195.764 87.9205C195.411 87.4245 194.803 87.5639 194.352 87.8378C193.282 88.4881 192.643 89.8008 192.869 91.0415C193.09 92.2528 194.179 93.2588 195.412 93.3428C195.969 93.3807 196.681 93.1756 196.855 92.574C197.001 92.0705 196.681 91.4515 196.108 91.4823C195.441 91.5181 194.949 92.3332 194.723 92.8766C194.429 93.5816 194.387 94.3524 194.589 95.0871C194.673 95.3924 195.148 95.2628 195.064 94.9562C194.823 94.0807 194.991 93.1264 195.562 92.4105C195.705 92.2307 196.032 91.8183 196.307 92.0409C196.467 92.1706 196.401 92.4718 196.285 92.6032C195.983 92.9456 195.379 92.8858 194.99 92.7702C193.139 92.2198 192.852 89.8848 194.141 88.6231C194.403 88.3669 195.092 87.7816 195.391 88.2508C195.694 88.7247 195.105 89.1501 194.729 89.2898C193.98 89.5685 193.082 89.5408 192.35 89.2232C191.65 88.9191 191.086 88.3102 191.054 87.5204C191.027 86.8574 191.334 86.09 191.967 85.7963C192.155 85.709 192.662 85.533 192.639 85.961C192.629 86.1466 192.403 86.3777 192.281 86.5042C192.012 86.7807 191.661 86.9691 191.291 87.0717C190.503 87.2909 189.634 87.123 189.052 86.531C188.83 86.3044 188.482 86.6527 188.704 86.8791Z" fill="#F6CC53"/>
<path d="M199.614 78.9668C199.614 78.9668 201.328 79.6178 201.862 81.171L200.596 82.3792C200.596 82.3792 199.574 80.6906 198.599 80.5023L199.614 78.9668Z" fill="#EB6E58"/>
<path d="M230.564 47.6827C230.564 47.6827 232.343 47.2401 233.668 48.2107L233.317 49.9253C233.317 49.9253 231.514 49.1218 230.606 49.5232L230.564 47.6827Z" fill="#EB6E58"/>
<path d="M236.847 84.335C236.847 84.335 238.127 85.6463 237.959 87.2804L236.302 87.8439C236.302 87.8439 236.085 85.8817 235.279 85.3009L236.847 84.335Z" fill="#EB6E58"/>
<path d="M205.446 62.583C205.446 62.583 206.919 61.4922 208.515 61.8804L208.849 63.5985C208.849 63.5985 206.875 63.5478 206.191 64.2669L205.446 62.583Z" fill="#EB6E58"/>
<path d="M196.565 38.125C196.565 38.125 198.038 37.0342 199.635 37.4224L199.968 39.1405C199.968 39.1405 197.995 39.0898 197.31 39.8089L196.565 38.125Z" fill="#EB6E58"/>
<path d="M188.857 60.1058C188.857 60.1058 190.764 56.0664 193.449 55.3477L194.773 57.2127C194.773 57.2127 192.512 59.0279 191.384 61.413L188.857 60.1058Z" fill="#F6CC53"/>
<path d="M237.852 66.1992C237.852 66.1992 241.962 67.9484 242.784 70.603L240.972 71.9989C240.972 71.9989 239.071 69.8097 236.644 68.7746L237.852 66.1992Z" fill="#F6CC53"/>
<path d="M206.867 72.3867C206.867 72.3867 211.127 73.7313 212.201 76.2942L210.532 77.8584C210.532 77.8584 208.429 75.8627 205.913 75.0666L206.867 72.3867Z" fill="#75ACF2"/>
<path d="M129.272 157.516C129.272 157.516 127.758 151.491 131.19 149.475C131.19 149.475 135.253 152.245 142.568 150.89C149.882 149.535 154.826 150.051 154.826 150.051C154.826 150.051 158.371 152.403 158.19 157.516H129.272Z" fill="#0F429F"/>
<path opacity="0.2" d="M223.13 157.516H208.489C219.597 157.516 216.677 142.664 216.677 142.664L216.711 142.69C217.449 146.328 218.319 150.086 219.626 152.258C220.193 153.2 221.472 155.112 223.13 157.516Z" fill="#F18E7B"/>
</svg>
