<svg width="320" height="158" viewBox="0 0 320 158" fill="none" xmlns="http://www.w3.org/2000/svg">
<path opacity="0.6" d="M299.832 157.032C302.426 152.467 306.489 141.62 308.809 130.391C315.846 95.9335 301.428 68.1309 273.403 51.6566C259.584 43.5184 246.83 42.3968 235.774 43.4138C223.206 44.5696 212.832 48.4944 205.583 48.0222C195.293 47.3503 189.421 33.7789 174.355 21.249C165.531 13.9143 153.552 6.95718 135.685 3.2095C113.87 -1.36919 84.8712 -1.76845 64.3087 6.78994C56.2168 10.1557 49.5072 14.8907 45.1453 21.2491C33.9249 37.5949 41.8351 59.0994 51.9516 76.1991C66.2897 100.433 47.5271 104.656 30.5727 114.267C17.7016 121.566 5.87194 132.396 10.3736 157.033H299.832V157.032Z" fill="#D5E6FE"/>
<path d="M319.638 157.457H0.362535C0.163141 157.457 0 157.294 0 157.095V156.971C0 156.772 0.163141 156.608 0.362535 156.608H319.637C319.837 156.608 320 156.772 320 156.971V157.095C320 157.294 319.837 157.457 319.638 157.457Z" fill="#8692C2"/>
<mask id="mask0_7622_70481" style="mask-type:alpha" maskUnits="userSpaceOnUse" x="43" y="37" width="203" height="120">
<rect x="43" y="37" width="203" height="120" fill="#D9D9D9"/>
</mask>
<g mask="url(#mask0_7622_70481)">
<path d="M84.502 136.714C84.5204 136.687 84.525 136.658 84.5158 136.627C84.496 136.561 84.4121 136.5 84.3398 136.459C84.4449 136.475 84.588 136.484 84.6472 136.431C84.6707 136.41 84.68 136.381 84.6748 136.346C84.6451 136.145 84.1633 136.185 84.1426 136.187L84.1456 136.221C84.2767 136.209 84.6207 136.21 84.6416 136.351C84.6451 136.374 84.6396 136.392 84.6247 136.406C84.5555 136.468 84.3128 136.424 84.2251 136.402L84.2146 136.434C84.217 136.435 84.4526 136.533 84.4837 136.637C84.4899 136.658 84.4869 136.677 84.4743 136.695L84.502 136.714Z" fill="#444092"/>
<path d="M78.7468 132.278L78.7671 132.251C78.6998 132.191 78.528 132.014 78.5412 131.922C78.5442 131.902 78.556 131.887 78.5776 131.877C78.7065 131.815 78.8989 132.101 78.962 132.216L78.9914 132.2C78.9815 132.182 78.7469 131.76 78.5632 131.847C78.5311 131.862 78.5126 131.886 78.5081 131.917C78.4968 131.996 78.5842 132.109 78.6561 132.188C78.5813 132.151 78.4843 132.115 78.4181 132.136C78.3875 132.145 78.3657 132.165 78.3535 132.195L78.3846 132.208C78.393 132.187 78.4072 132.174 78.428 132.167C78.531 132.135 78.7446 132.276 78.7468 132.278Z" fill="#444092"/>
<path d="M94.7584 133.439C94.7584 133.439 97.1161 144.49 93.166 147.515C91.0934 149.103 89.3454 149.182 88.3864 149.623C82.1802 152.474 80.5465 159.615 79.15 161.011C77.2499 162.91 61.6949 162.361 61.6949 162.361L52.5469 150.992C52.5469 150.992 58.5045 145.724 61.3121 141.597C62.3384 140.089 65.9079 139.146 66.0439 136.238C66.4601 127.339 69.5628 123.399 73.0339 119.17C74.5705 117.298 76.2244 114.672 78.6101 110.155C79.7583 107.982 81.8736 101.134 84.7088 101.543C88.5216 102.092 85.8722 111.619 84.6873 114.074C76.7384 130.541 94.7584 133.439 94.7584 133.439Z" fill="#E2A27D"/>
<path d="M43 156.754C48.1362 165.724 58.2581 171.842 69.9062 171.745C72.3463 171.724 75.2166 171.679 78.4236 171.616C82.7794 162.334 85.9778 154.776 85.0515 154.152C84.6727 153.895 84.1864 153.667 83.6147 153.446C80.4196 152.203 74.587 151.16 70.2275 146.646C67.1841 143.494 64.42 141.431 62.4115 140.573H62.4105C61.0289 139.985 60.006 139.965 59.4926 140.554C59.2946 140.782 51.4975 147.98 43 156.754Z" fill="#54749B"/>
<path d="M83.586 115.06C83.6476 115.687 84.4674 117.399 85.7917 115.075C88.9748 109.491 98.1997 98.245 100.337 99.4911C103.525 101.35 99.1741 107.498 94.6867 113.84C93.7832 115.117 93.2148 116.582 94.1718 115.999C96.365 114.663 105.283 98.9826 108.802 101.042C113.048 103.526 98.3895 119.153 98.9216 119.954C99.6889 121.109 109.623 106.943 112.309 109.134C115.559 111.786 101.726 124.569 103.089 125.362C104.452 126.156 112.179 115.581 113.997 120.362C114.662 122.111 106.127 129.251 101.726 137.026C100.24 139.651 98.4195 142.505 96.5783 144.544C90.0747 151.744 82.7715 149.755 82.7715 149.755C82.7715 149.755 75.9749 129.281 76.9371 122.935C77.8993 116.589 83.2027 111.159 83.586 115.06Z" fill="#E2A27D"/>
<path d="M83.9469 149.62C83.9687 149.628 83.9916 149.635 84.0154 149.639C87.4731 150.273 89.8408 149.565 91.2181 148.859C92.7357 148.081 93.4201 147.142 93.4485 147.102C93.5761 146.924 93.5353 146.677 93.3574 146.549C93.1799 146.422 92.9328 146.462 92.805 146.639C92.7989 146.647 92.1779 147.487 90.813 148.175C89.55 148.813 87.3703 149.448 84.1585 148.859C83.9432 148.82 83.7365 148.962 83.697 149.178C83.6618 149.369 83.7708 149.554 83.9469 149.62Z" fill="#CE7549"/>
<path d="M79.4632 136.354C79.546 136.354 79.6287 136.321 79.6889 136.254C83.4142 132.158 82.9655 129.532 82.3976 126.207C82.3161 125.73 82.2319 125.237 82.1581 124.725C81.603 120.872 83.0128 118.716 83.0271 118.695C83.1209 118.555 83.0836 118.365 82.9437 118.271C82.8038 118.178 82.6144 118.215 82.5204 118.355C82.4567 118.45 80.9662 120.729 81.5543 124.812C81.6292 125.332 81.7141 125.829 81.7963 126.31C82.3573 129.595 82.7628 131.968 79.2376 135.844C79.1242 135.968 79.1334 136.161 79.2579 136.275C79.3165 136.328 79.39 136.354 79.4632 136.354Z" fill="#CE7549"/>
<path d="M90.9531 134.357C91.0224 134.357 91.0921 134.333 91.1493 134.285C91.2781 134.177 91.2946 133.984 91.1861 133.856C86.9442 128.817 86.3494 119.737 86.3438 119.646C86.3336 119.478 86.1897 119.35 86.021 119.36C85.8529 119.37 85.7248 119.515 85.7349 119.683C85.7364 119.706 85.8831 122.045 86.5645 124.986C87.708 129.921 89.4552 132.747 90.7196 134.248C90.7799 134.32 90.8662 134.357 90.9531 134.357Z" fill="#F59A6D"/>
<path d="M232.362 61.4174V126.408C232.362 132.16 227.699 136.823 221.946 136.823H93.7815C88.0278 136.823 83.3652 132.16 83.3652 126.408V61.4174C83.3652 55.6638 88.0278 51 93.7815 51H221.946C227.699 51 232.362 55.6638 232.362 61.4174Z" fill="#246AFF"/>
<path d="M203.27 121.894C203.27 121.104 203.91 120.463 204.701 120.463C205.491 120.463 206.1 120.947 206.271 121.718C206.521 122.842 205.605 123.451 204.57 123.451C203.78 123.451 203.27 122.684 203.27 121.894Z" fill="#DEEBE9"/>
<path d="M208.797 121.894C208.797 121.104 209.438 120.463 210.228 120.463C211.019 120.463 211.918 121.104 211.918 121.894C211.918 123.045 211.019 123.451 210.228 123.451C209.438 123.451 208.797 122.684 208.797 121.894Z" fill="#DEEBE9"/>
<path d="M214.2 121.955C214.245 121.166 214.852 120.522 215.64 120.461C216.67 120.383 217.261 121.06 217.38 121.842C217.515 122.736 217.151 123.449 215.743 123.449C214.953 123.449 214.144 122.934 214.2 121.955Z" fill="#DEEBE9"/>
<path d="M203.27 127.453C203.27 126.663 203.81 126.089 204.596 126.011C205.709 125.9 206.236 126.653 206.271 127.442C206.312 128.387 205.491 128.884 204.701 128.884C203.91 128.884 203.27 128.243 203.27 127.453Z" fill="#DEEBE9"/>
<path d="M208.644 127.523C208.707 126.736 208.883 125.921 210.231 126.022C211.019 126.081 211.662 126.663 211.662 127.453C211.662 128.244 211.021 128.884 210.231 128.884C209.44 128.884 208.561 128.564 208.644 127.523Z" fill="#DEEBE9"/>
<path d="M214.207 127.42C214.264 126.631 214.813 125.955 215.604 125.955C216.837 125.955 217.289 126.725 217.289 127.516C217.289 128.306 216.55 128.884 215.759 128.884C214.969 128.884 214.137 128.389 214.207 127.42Z" fill="#DEEBE9"/>
<path d="M219.829 121.955C219.874 121.166 220.481 120.522 221.269 120.461C222.299 120.383 222.89 121.06 223.008 121.842C223.144 122.736 222.78 123.449 221.372 123.449C220.581 123.449 219.773 122.934 219.829 121.955Z" fill="#DEEBE9"/>
<path d="M219.834 127.42C219.891 126.631 220.44 125.955 221.231 125.955C222.464 125.955 222.916 126.725 222.916 127.516C222.916 128.306 222.177 128.884 221.386 128.884C220.596 128.884 219.764 128.389 219.834 127.42Z" fill="#DEEBE9"/>
<path d="M198.288 136.822H93.7815C88.0278 136.822 83.3652 132.16 83.3652 126.408V61.4174C83.3652 55.6638 88.0278 51 93.7815 51H134.362C134.801 51.2487 135.044 51.387 135.044 51.387C135.044 51.387 148.648 54.0801 149.694 63.2763C150.74 72.4725 151.796 81.1494 166.081 84.1307C180.365 87.1108 196.573 92.1649 191.868 108.198C187.162 124.23 202.988 122.318 198.288 136.822Z" fill="#ADC7FF"/>
<path d="M220.584 67.7671V74H218.819V66.0752H220.482L220.584 67.7671ZM220.27 69.7446L219.698 69.7373C219.703 69.1758 219.781 68.6606 219.933 68.1919C220.089 67.7231 220.304 67.3203 220.577 66.9834C220.855 66.6465 221.188 66.3877 221.573 66.207C221.959 66.0215 222.389 65.9287 222.862 65.9287C223.243 65.9287 223.587 65.9824 223.895 66.0898C224.208 66.1924 224.474 66.3608 224.693 66.5952C224.918 66.8296 225.089 67.1348 225.206 67.5107C225.323 67.8818 225.382 68.3384 225.382 68.8804V74H223.609V68.873C223.609 68.4922 223.553 68.1919 223.441 67.9722C223.333 67.7476 223.175 67.5889 222.965 67.4961C222.76 67.3984 222.503 67.3496 222.196 67.3496C221.893 67.3496 221.622 67.4131 221.383 67.54C221.144 67.667 220.941 67.8403 220.775 68.0601C220.614 68.2798 220.489 68.5337 220.401 68.8218C220.313 69.1099 220.27 69.4175 220.27 69.7446Z" fill="white"/>
<path d="M216.451 66.0752V74H214.679V66.0752H216.451ZM214.562 63.9951C214.562 63.7266 214.649 63.5044 214.825 63.3286C215.006 63.1479 215.255 63.0576 215.572 63.0576C215.885 63.0576 216.131 63.1479 216.312 63.3286C216.493 63.5044 216.583 63.7266 216.583 63.9951C216.583 64.2588 216.493 64.4785 216.312 64.6543C216.131 64.8301 215.885 64.918 215.572 64.918C215.255 64.918 215.006 64.8301 214.825 64.6543C214.649 64.4785 214.562 64.2588 214.562 63.9951Z" fill="white"/>
<path d="M209.562 74.1465C208.977 74.1465 208.447 74.0513 207.973 73.8608C207.504 73.6655 207.104 73.3945 206.772 73.0479C206.445 72.7012 206.193 72.2935 206.018 71.8247C205.842 71.356 205.754 70.8506 205.754 70.3086V70.0156C205.754 69.3955 205.844 68.834 206.025 68.3311C206.206 67.8281 206.457 67.3984 206.779 67.042C207.102 66.6807 207.482 66.4048 207.922 66.2144C208.361 66.0239 208.837 65.9287 209.35 65.9287C209.917 65.9287 210.412 66.0239 210.837 66.2144C211.262 66.4048 211.613 66.6733 211.892 67.02C212.175 67.3618 212.385 67.7695 212.521 68.2432C212.663 68.7168 212.734 69.2393 212.734 69.8105V70.5649H206.611V69.2979H210.991V69.1587C210.981 68.8413 210.917 68.5435 210.8 68.2651C210.688 67.9868 210.515 67.7622 210.28 67.5913C210.046 67.4204 209.733 67.335 209.343 67.335C209.05 67.335 208.789 67.3984 208.559 67.5254C208.334 67.6475 208.146 67.8257 207.995 68.0601C207.844 68.2944 207.727 68.5776 207.644 68.9097C207.565 69.2368 207.526 69.6055 207.526 70.0156V70.3086C207.526 70.6553 207.573 70.9775 207.666 71.2754C207.763 71.5684 207.905 71.8247 208.09 72.0444C208.276 72.2642 208.5 72.4375 208.764 72.5645C209.028 72.6865 209.328 72.7476 209.665 72.7476C210.09 72.7476 210.468 72.6621 210.8 72.4912C211.132 72.3203 211.42 72.0786 211.665 71.7661L212.595 72.667C212.424 72.916 212.202 73.1553 211.928 73.3848C211.655 73.6094 211.32 73.7925 210.925 73.9341C210.534 74.0757 210.08 74.1465 209.562 74.1465Z" fill="white"/>
<path d="M199.027 62.75V74H197.27V62.75H199.027ZM198.72 69.7446L198.148 69.7373C198.153 69.1904 198.229 68.6851 198.375 68.2212C198.527 67.7573 198.737 67.3545 199.005 67.0127C199.279 66.666 199.606 66.3999 199.987 66.2144C200.368 66.0239 200.79 65.9287 201.254 65.9287C201.645 65.9287 201.996 65.9824 202.309 66.0898C202.626 66.1973 202.899 66.3706 203.129 66.6099C203.358 66.8442 203.532 67.1519 203.649 67.5327C203.771 67.9087 203.832 68.3677 203.832 68.9097V74H202.06V68.895C202.06 68.5142 202.003 68.2114 201.891 67.9868C201.784 67.7622 201.625 67.6011 201.415 67.5034C201.205 67.4009 200.949 67.3496 200.646 67.3496C200.329 67.3496 200.048 67.4131 199.804 67.54C199.564 67.667 199.364 67.8403 199.203 68.0601C199.042 68.2798 198.92 68.5337 198.837 68.8218C198.759 69.1099 198.72 69.4175 198.72 69.7446Z" fill="white"/>
<path d="M192.234 72.7402C192.522 72.7402 192.781 72.6841 193.011 72.5718C193.245 72.4546 193.433 72.2935 193.575 72.0884C193.721 71.8833 193.802 71.6465 193.816 71.3779H195.479C195.469 71.8906 195.318 72.3569 195.025 72.7769C194.732 73.1968 194.344 73.5312 193.86 73.7803C193.377 74.0244 192.842 74.1465 192.256 74.1465C191.651 74.1465 191.124 74.0439 190.674 73.8389C190.225 73.6289 189.852 73.3408 189.554 72.9746C189.256 72.6084 189.031 72.186 188.88 71.7075C188.733 71.229 188.66 70.7163 188.66 70.1694V69.9131C188.66 69.3662 188.733 68.8535 188.88 68.375C189.031 67.8916 189.256 67.4668 189.554 67.1006C189.852 66.7344 190.225 66.4487 190.674 66.2437C191.124 66.0337 191.648 65.9287 192.249 65.9287C192.884 65.9287 193.44 66.0557 193.919 66.3096C194.397 66.5586 194.773 66.9077 195.047 67.3569C195.325 67.8013 195.469 68.3188 195.479 68.9097H193.816C193.802 68.6167 193.729 68.353 193.597 68.1187C193.47 67.8794 193.289 67.689 193.055 67.5474C192.825 67.4058 192.549 67.335 192.227 67.335C191.871 67.335 191.575 67.4082 191.341 67.5547C191.106 67.6963 190.923 67.8916 190.792 68.1406C190.66 68.3848 190.564 68.6606 190.506 68.9683C190.452 69.271 190.425 69.5859 190.425 69.9131V70.1694C190.425 70.4966 190.452 70.814 190.506 71.1216C190.56 71.4292 190.652 71.7051 190.784 71.9492C190.921 72.1885 191.106 72.3813 191.341 72.5278C191.575 72.6694 191.873 72.7402 192.234 72.7402Z" fill="white"/>
<path d="M185.273 71.854C185.273 71.6782 185.229 71.5195 185.142 71.3779C185.054 71.2314 184.885 71.0996 184.636 70.9824C184.392 70.8652 184.031 70.7578 183.552 70.6602C183.132 70.5674 182.747 70.4575 182.395 70.3306C182.048 70.1987 181.75 70.04 181.501 69.8545C181.252 69.6689 181.06 69.4492 180.923 69.1953C180.786 68.9414 180.718 68.6484 180.718 68.3164C180.718 67.9941 180.789 67.689 180.93 67.4009C181.072 67.1128 181.274 66.8589 181.538 66.6392C181.802 66.4194 182.122 66.2461 182.498 66.1191C182.878 65.9922 183.303 65.9287 183.772 65.9287C184.436 65.9287 185.005 66.041 185.479 66.2656C185.957 66.4854 186.323 66.7856 186.577 67.1665C186.831 67.5425 186.958 67.9673 186.958 68.4409H185.193C185.193 68.231 185.139 68.0356 185.032 67.855C184.929 67.6694 184.773 67.5205 184.563 67.4082C184.353 67.291 184.089 67.2324 183.772 67.2324C183.469 67.2324 183.218 67.2812 183.018 67.3789C182.822 67.4717 182.676 67.5938 182.578 67.7451C182.485 67.8965 182.439 68.0625 182.439 68.2432C182.439 68.375 182.463 68.4946 182.512 68.6021C182.566 68.7046 182.654 68.7998 182.776 68.8877C182.898 68.9707 183.064 69.0488 183.274 69.1221C183.489 69.1953 183.757 69.2661 184.08 69.3345C184.685 69.4614 185.205 69.625 185.64 69.8252C186.079 70.0205 186.416 70.2744 186.65 70.5869C186.885 70.8945 187.002 71.2852 187.002 71.7588C187.002 72.1104 186.926 72.4326 186.775 72.7256C186.628 73.0137 186.414 73.2651 186.13 73.48C185.847 73.6899 185.508 73.8535 185.112 73.9707C184.722 74.0879 184.282 74.1465 183.794 74.1465C183.076 74.1465 182.468 74.0195 181.97 73.7656C181.472 73.5068 181.094 73.1772 180.835 72.7769C180.581 72.3716 180.454 71.9517 180.454 71.5171H182.161C182.18 71.8442 182.271 72.1055 182.432 72.3008C182.598 72.4912 182.803 72.6304 183.047 72.7183C183.296 72.8013 183.552 72.8428 183.816 72.8428C184.133 72.8428 184.399 72.8013 184.614 72.7183C184.829 72.6304 184.993 72.5132 185.105 72.3667C185.217 72.2153 185.273 72.0444 185.273 71.854Z" fill="white"/>
<path d="M179.016 66.0757V67.3647H174.548V66.0757H179.016ZM175.837 64.1348H177.602V71.8105C177.602 72.0547 177.636 72.2427 177.705 72.3745C177.778 72.5015 177.878 72.5869 178.005 72.6309C178.132 72.6748 178.281 72.6968 178.452 72.6968C178.574 72.6968 178.691 72.6895 178.803 72.6748C178.916 72.6602 179.006 72.6455 179.074 72.6309L179.082 73.9785C178.935 74.0225 178.764 74.0615 178.569 74.0957C178.378 74.1299 178.159 74.147 177.91 74.147C177.504 74.147 177.146 74.0762 176.833 73.9346C176.521 73.7881 176.276 73.5513 176.101 73.2241C175.925 72.897 175.837 72.4624 175.837 71.9204V64.1348Z" fill="white"/>
<path d="M171.351 72.1323V66.0752H173.123V74H171.453L171.351 72.1323ZM171.6 70.4844L172.193 70.4697C172.193 71.002 172.134 71.4927 172.017 71.9419C171.9 72.3862 171.719 72.7744 171.475 73.1064C171.231 73.4336 170.918 73.6899 170.538 73.8755C170.157 74.0562 169.7 74.1465 169.168 74.1465C168.782 74.1465 168.428 74.0903 168.106 73.978C167.784 73.8657 167.505 73.6924 167.271 73.458C167.042 73.2236 166.863 72.9185 166.736 72.5425C166.609 72.1665 166.546 71.7173 166.546 71.1948V66.0752H168.311V71.2095C168.311 71.4976 168.345 71.7393 168.414 71.9346C168.482 72.125 168.575 72.2788 168.692 72.396C168.809 72.5132 168.946 72.5962 169.102 72.645C169.258 72.6938 169.424 72.7183 169.6 72.7183C170.103 72.7183 170.499 72.6206 170.787 72.4253C171.08 72.2251 171.287 71.9565 171.409 71.6196C171.536 71.2827 171.6 70.9043 171.6 70.4844Z" fill="white"/>
<path d="M164.272 68.5508V72.623C164.121 72.8232 163.884 73.043 163.562 73.2822C163.244 73.5166 162.822 73.7192 162.294 73.8901C161.767 74.061 161.11 74.1465 160.324 74.1465C159.655 74.1465 159.042 74.0342 158.486 73.8096C157.929 73.5801 157.448 73.2456 157.043 72.8062C156.643 72.3667 156.333 71.832 156.113 71.2021C155.893 70.5674 155.783 69.8447 155.783 69.0342V68.2944C155.783 67.4888 155.883 66.771 156.083 66.1411C156.289 65.5063 156.582 64.9692 156.962 64.5298C157.343 64.0903 157.802 63.7583 158.339 63.5337C158.881 63.3042 159.494 63.1895 160.178 63.1895C161.052 63.1895 161.774 63.3359 162.346 63.6289C162.922 63.917 163.366 64.3174 163.679 64.8301C163.991 65.3428 164.189 65.9287 164.272 66.5879H162.47C162.412 66.2168 162.297 65.8848 162.126 65.5918C161.96 65.2988 161.721 65.0693 161.408 64.9033C161.101 64.7324 160.7 64.647 160.207 64.647C159.782 64.647 159.409 64.7275 159.086 64.8887C158.764 65.0498 158.496 65.2866 158.281 65.5991C158.071 65.9116 157.912 66.2925 157.805 66.7417C157.697 67.1909 157.644 67.7036 157.644 68.2798V69.0342C157.644 69.6201 157.705 70.1401 157.827 70.5942C157.954 71.0483 158.134 71.4316 158.369 71.7441C158.608 72.0566 158.898 72.2935 159.24 72.4546C159.582 72.6108 159.968 72.689 160.397 72.689C160.817 72.689 161.162 72.6548 161.43 72.5864C161.699 72.5132 161.911 72.4277 162.067 72.3301C162.229 72.2275 162.353 72.1299 162.441 72.0371V69.9204H160.222V68.5508H164.272Z" fill="white"/>
<path d="M174.281 125.965C174.281 127.602 154.966 128.93 131.14 128.93C107.315 128.93 88 127.602 88 125.965C88 124.327 107.315 123 131.14 123C154.966 123 174.281 124.327 174.281 125.965Z" fill="#869BC9"/>
<path d="M152.848 85.3096H139.187V124.66H152.848V85.3096Z" fill="#5082EB"/>
<path d="M139.185 85.3096H103.093V124.66H139.185V85.3096Z" fill="#6E99F4"/>
<path d="M139.187 107.315V104.561H103.095V107.315H139.187Z" fill="white"/>
<path d="M152.847 107.315V104.561H139.185V107.315H152.847Z" fill="#C0D6FE"/>
<path d="M129.42 84.7068C129.42 84.7068 140.485 79.6844 148.198 81.5929L146.658 82.6233L147.434 84.4428C147.434 84.4428 138.853 82.2062 129.198 85.0037L129.42 84.7068Z" fill="#CB5F4C"/>
<path d="M127.528 84.5124C127.528 84.5124 126.089 84.3386 123.945 84.0436C118.252 83.2605 107.59 81.6224 105.676 80.1064C102.669 77.7251 109.795 67.611 112.879 66.2072C115.964 64.8046 127.528 84.5124 127.528 84.5124Z" fill="#EB6E58"/>
<path d="M150.09 71.9174C150.604 74.423 127.319 85.2477 127.319 85.2477C127.319 85.2477 127.743 84.1023 128.432 82.3085C128.432 82.3085 128.433 82.3069 128.434 82.3053C130.952 75.7543 137.016 60.5515 139.009 60.7619C139.209 60.7826 139.443 60.8543 139.705 60.9688C142.766 62.3157 149.617 69.6098 150.09 71.9174Z" fill="#EB6E58"/>
<path d="M139.502 63.197C138.08 65.6672 128.577 82.0501 128.428 82.3053C130.945 75.7543 137.01 60.5515 139.003 60.7619C139.003 60.7619 139.397 60.7506 139.699 60.9688C140.062 61.2336 140.287 61.8329 139.502 63.197Z" fill="#CB5F4C"/>
<path d="M123.948 84.044H123.944C118.252 83.2608 107.589 81.6227 105.675 80.1067C104.811 77.6726 107.053 77.4743 108.685 77.3029C110.316 77.1317 123.948 84.044 123.948 84.044Z" fill="#CB5F4C"/>
<path d="M123.182 85.2859C123.182 85.2859 124.487 82.3164 127.056 82.152C129.739 81.9802 131.263 85.2859 131.263 85.2859H123.182Z" fill="#CB5F4C"/>
<path d="M139.765 85.3096H102V90.7218H139.765V85.3096Z" fill="#88B3FF"/>
<path d="M154 85.3096H139.766V90.7218H154V85.3096Z" fill="#246AFF"/>
<path d="M124.504 84.8586C124.504 84.8586 117.107 82.5156 112.116 84.0646C106.363 85.8502 106.704 92.9492 106.704 92.9492L108.057 92.3929L109.884 93.2499C109.884 93.2499 110.192 85.7329 114.882 84.6805C118.938 83.7705 124.504 84.8586 124.504 84.8586Z" fill="#CB5F4C"/>
<path d="M120.71 85.3096H117.956V124.999H120.71V85.3096Z" fill="white"/>
</g>
</svg>
