<svg width="320" height="159" viewBox="0 0 320 159" fill="none" xmlns="http://www.w3.org/2000/svg">
<path opacity="0.6" d="M299.832 157.574C302.426 152.993 306.489 142.108 308.809 130.841C315.846 96.2642 301.428 68.3658 273.403 51.8347C259.584 43.6685 246.83 42.543 235.774 43.5634C223.206 44.7232 212.832 48.6616 205.583 48.1877C195.293 47.5135 189.421 33.8953 174.355 21.3222C165.531 13.9623 153.552 6.98116 135.685 3.22057C113.87 -1.37391 84.8712 -1.77454 64.3087 6.81335C56.2168 10.1907 49.5072 14.9421 45.1453 21.3224C33.9249 37.7245 41.8351 59.3031 51.9516 76.4618C66.2897 100.779 47.5271 105.017 30.5727 114.661C17.7016 121.985 5.87194 132.852 10.3736 157.574H299.832V157.574Z" fill="#D5E6FE"/>
<path d="M319.638 158H0.362535C0.163141 158 0 157.837 0 157.636V157.512C0 157.312 0.163141 157.148 0.362535 157.148H319.637C319.837 157.148 320 157.312 320 157.512V157.636C320 157.837 319.837 158 319.638 158Z" fill="#8692C2"/>
<path d="M143.867 106.075H130.469V144.666H143.867V106.075Z" fill="#7DA7FF"/>
<path d="M130.467 106.075H95.0713V144.666H130.467V106.075Z" fill="#ADC7FF"/>
<path d="M130.469 127.656V124.955H95.0735V127.656H130.469Z" fill="#E0EAFF"/>
<path d="M143.865 127.656V124.955H130.467V127.656H143.865Z" fill="#C0D6FE"/>
<path d="M120.89 105.484C120.89 105.484 131.742 100.559 139.306 102.43L137.796 103.441L138.557 105.225C138.557 105.225 130.142 103.032 120.673 105.775L120.89 105.484Z" fill="#246AFF"/>
<path d="M119.034 105.295C119.034 105.295 117.623 105.124 115.52 104.835C109.937 104.067 99.4803 102.46 97.6035 100.974C94.6542 98.6381 101.643 88.7193 104.668 87.3426C107.693 85.967 119.034 105.295 119.034 105.295Z" fill="#72A9F7"/>
<path d="M141.161 92.9423C141.665 95.3996 118.829 106.015 118.829 106.015C118.829 106.015 119.245 104.892 119.92 103.133C119.92 103.133 119.921 103.131 119.922 103.13C122.391 96.7052 128.339 81.7958 130.293 82.0021C130.489 82.0224 130.719 82.0927 130.976 82.205C133.977 83.5259 140.696 90.6793 141.161 92.9423Z" fill="#72A9F7"/>
<path d="M130.777 84.3902C129.382 86.8127 120.062 102.879 119.916 103.13C122.385 96.7052 128.333 81.7958 130.287 82.0021C130.287 82.0021 130.674 81.991 130.969 82.205C131.326 82.4647 131.547 83.0524 130.777 84.3902Z" fill="#246AFF"/>
<path d="M115.522 104.835H115.519C109.936 104.067 99.479 102.46 97.6022 100.973C96.7547 98.5863 98.9537 98.3918 100.554 98.2238C102.153 98.0559 115.522 104.835 115.522 104.835Z" fill="#246AFF"/>
<path d="M114.771 106.053C114.771 106.053 116.052 103.141 118.571 102.98C121.203 102.811 122.697 106.053 122.697 106.053H114.771Z" fill="#246AFF"/>
<path d="M131.035 106.075H93.999V111.383H131.035V106.075Z" fill="#88B3FF"/>
<path d="M144.995 106.075H131.036V111.383H144.995V106.075Z" fill="#246AFF"/>
<path d="M116.07 105.633C116.07 105.633 108.816 103.335 103.921 104.854C98.2788 106.605 98.6131 113.567 98.6131 113.567L99.9401 113.022L101.731 113.862C101.731 113.862 102.034 106.49 106.634 105.458C110.611 104.566 116.07 105.633 116.07 105.633Z" fill="#246AFF"/>
<path d="M112.348 106.075H109.647V144.999H112.348V106.075Z" fill="#E0EAFF"/>
<path d="M190.117 43.1619V151.741C190.117 155.145 187.3 157.903 183.823 157.903H128.596C126.85 157.903 125.27 157.207 124.13 156.083C123.001 154.969 122.303 153.435 122.303 151.741V43.1619C122.303 39.7582 125.12 37 128.596 37H183.823C184.851 37 185.821 37.2408 186.678 37.6692C188.72 38.6875 190.117 40.7644 190.117 43.1619Z" fill="#8692C2"/>
<path d="M190.118 43.1626V151.742C190.118 155.146 187.301 157.904 183.824 157.904H128.597C126.851 157.904 125.271 157.208 124.131 156.084L186.679 37.6699C188.721 38.6883 190.118 40.7651 190.118 43.1626Z" fill="#8692C2"/>
<path d="M122.302 70.8767H122.019C120.904 70.8767 120 69.9918 120 68.8999V58.5087C120 57.4171 120.904 56.5322 122.019 56.5322H122.302V70.8767Z" fill="#8692C2"/>
<path d="M190.116 67.1237H190.348C191.261 67.1237 192 66.3995 192 65.5066V57.0605C192 56.1672 191.26 55.4434 190.348 55.4434H190.116V67.1237Z" fill="#8692C2"/>
<path d="M122.302 87.1673H122.019C120.904 87.1673 120 86.2824 120 85.1909V74.7997C120 73.7081 120.904 72.8232 122.019 72.8232H122.302V87.1673Z" fill="#8692C2"/>
<path d="M186.976 42.7882V152.112C186.976 153.615 185.734 154.827 184.203 154.827H128.215C127.069 154.827 126.087 154.148 125.663 153.175C125.521 152.848 125.442 152.489 125.442 152.112V42.7882C125.442 41.2896 126.685 40.0732 128.215 40.0732H184.203C184.591 40.0732 184.958 40.1499 185.292 40.2893C186.282 40.7075 186.976 41.6695 186.976 42.7882Z" fill="white"/>
<path d="M177.67 145L181.999 145L181.999 126.603C178.707 126.603 175.999 124.502 175.645 121.802C175.439 122.015 175.129 122.154 174.777 122.154C174.156 122.154 173.652 121.728 173.652 121.204C173.652 120.679 174.156 120.253 174.777 120.253C175.128 120.253 175.438 120.392 175.644 120.605C175.996 117.903 178.706 115.8 181.999 115.8L181.999 60L177.66 60L177.66 60.0019C177.66 60.876 176.82 61.5844 175.786 61.5844C174.751 61.5844 173.912 60.876 173.912 60.0019L173.912 60L169.937 60L169.937 60.0019C169.937 60.876 169.098 61.5844 168.063 61.5844C167.028 61.5844 166.189 60.876 166.189 60.0019L166.189 60L162.214 60L162.214 60.0019C162.214 60.876 161.375 61.5844 160.34 61.5844C159.305 61.5844 158.466 60.876 158.466 60.0019L158.466 60L154.491 60L154.491 60.0019C154.491 60.876 153.652 61.5844 152.617 61.5844C151.582 61.5844 150.743 60.876 150.743 60.0019L150.743 60L146.768 60L146.768 60.0019C146.768 60.876 145.929 61.5844 144.894 61.5844C143.859 61.5844 143.02 60.876 143.02 60.0019L143.02 60L139.045 60L139.045 60.0019C139.045 60.876 138.206 61.5844 137.171 61.5844C136.136 61.5844 135.297 60.876 135.297 60.0019L135.297 60L130.999 60L130.999 115.8C134.295 115.8 137.007 117.907 137.355 120.612C137.562 120.395 137.875 120.253 138.232 120.253C138.853 120.253 139.357 120.679 139.357 121.204C139.357 121.728 138.853 122.154 138.232 122.154C137.875 122.154 137.561 122.012 137.354 121.795C137.004 124.498 134.294 126.603 130.999 126.603L130.999 145L135.328 145C135.381 144.166 136.191 143.502 137.192 143.502C138.193 143.502 139.003 144.166 139.056 145L143.051 145C143.104 144.166 143.914 143.502 144.915 143.502C145.916 143.502 146.726 144.166 146.779 145L150.774 145C150.827 144.166 151.638 143.502 152.639 143.502C153.639 143.502 154.45 144.166 154.503 145L158.498 145C158.551 144.166 159.361 143.502 160.362 143.502C161.363 143.502 162.173 144.166 162.226 145L166.221 145C166.274 144.166 167.084 143.502 168.085 143.502C169.086 143.502 169.896 144.166 169.949 145L173.942 145C173.995 144.166 174.806 143.502 175.806 143.502C176.807 143.502 177.617 144.166 177.67 145ZM141.163 121.204C141.163 120.679 141.667 120.253 142.292 120.253C142.913 120.253 143.414 120.679 143.414 121.204C143.414 121.729 142.913 122.154 142.292 122.154C141.667 122.154 141.163 121.729 141.163 121.204ZM145.224 121.204C145.224 120.679 145.728 120.253 146.35 120.253C146.971 120.253 147.475 120.679 147.475 121.204C147.475 121.729 146.971 122.154 146.35 122.154C145.728 122.154 145.224 121.729 145.224 121.204ZM149.285 121.204C149.285 120.679 149.789 120.253 150.411 120.253C151.032 120.253 151.536 120.679 151.536 121.204C151.536 121.729 151.032 122.154 150.411 122.154C149.789 122.154 149.285 121.729 149.285 121.204ZM153.346 121.204C153.346 120.679 153.85 120.253 154.472 120.253C155.093 120.253 155.597 120.679 155.597 121.204C155.597 121.729 155.093 122.154 154.472 122.154C153.85 122.154 153.346 121.729 153.346 121.204ZM157.407 121.204C157.407 120.679 157.911 120.253 158.533 120.253C159.154 120.253 159.658 120.679 159.658 121.204C159.658 121.729 159.154 122.154 158.533 122.154C157.912 122.154 157.407 121.729 157.407 121.204ZM161.468 121.204C161.468 120.679 161.972 120.253 162.594 120.253C163.215 120.253 163.719 120.679 163.719 121.204C163.719 121.729 163.215 122.154 162.594 122.154C161.973 122.154 161.468 121.729 161.468 121.204ZM165.529 121.204C165.529 120.679 166.033 120.253 166.655 120.253C167.276 120.253 167.78 120.679 167.78 121.204C167.78 121.729 167.276 122.154 166.655 122.154C166.033 122.154 165.529 121.729 165.529 121.204ZM169.591 121.204C169.591 120.679 170.095 120.253 170.716 120.253C171.337 120.253 171.841 120.679 171.841 121.204C171.841 121.729 171.337 122.154 170.716 122.154C170.094 122.154 169.591 121.729 169.591 121.204Z" fill="#ADC7FF"/>
<path d="M177.103 96.6914H175.391V98.4038H177.103V96.6914Z" fill="#246AFF"/>
<path d="M177.103 94.9775H175.391V96.69H177.103V94.9775Z" fill="#246AFF"/>
<path d="M177.103 93.2646H175.391V94.9771H177.103V93.2646Z" fill="#246AFF"/>
<path d="M177.103 88.127H175.391V89.8394H177.103V88.127Z" fill="#246AFF"/>
<path d="M177.103 86.415H175.391V88.1275H177.103V86.415Z" fill="#246AFF"/>
<path d="M177.103 84.7021H175.391V86.4146H177.103V84.7021Z" fill="#246AFF"/>
<path d="M175.39 94.9775H173.678V96.69H175.39V94.9775Z" fill="#246AFF"/>
<path d="M175.39 93.2646H173.678V94.9771H175.39V93.2646Z" fill="#246AFF"/>
<path d="M175.39 91.5527H173.678V93.2652H175.39V91.5527Z" fill="#246AFF"/>
<path d="M175.39 88.127H173.678V89.8394H175.39V88.127Z" fill="#246AFF"/>
<path d="M175.39 86.415H173.678V88.1275H175.39V86.415Z" fill="#246AFF"/>
<path d="M173.678 94.9775H171.966V96.69H173.678V94.9775Z" fill="#246AFF"/>
<path d="M173.678 93.2646H171.966V94.9771H173.678V93.2646Z" fill="#246AFF"/>
<path d="M173.678 89.8398H171.966V91.5523H173.678V89.8398Z" fill="#246AFF"/>
<path d="M173.678 88.127H171.966V89.8394H173.678V88.127Z" fill="#246AFF"/>
<path d="M173.678 86.415H171.966V88.1275H173.678V86.415Z" fill="#246AFF"/>
<path d="M173.678 84.7021H171.966V86.4146H173.678V84.7021Z" fill="#246AFF"/>
<path d="M171.965 96.6914H170.253V98.4038H171.965V96.6914Z" fill="#246AFF"/>
<path d="M171.965 94.9775H170.253V96.69H171.965V94.9775Z" fill="#246AFF"/>
<path d="M171.965 89.8398H170.253V91.5523H171.965V89.8398Z" fill="#246AFF"/>
<path d="M171.965 88.127H170.253V89.8394H171.965V88.127Z" fill="#246AFF"/>
<path d="M171.965 86.415H170.253V88.1275H171.965V86.415Z" fill="#246AFF"/>
<path d="M171.965 84.7021H170.253V86.4146H171.965V84.7021Z" fill="#246AFF"/>
<path d="M170.251 96.6914H168.539V98.4038H170.251V96.6914Z" fill="#246AFF"/>
<path d="M170.251 94.9775H168.539V96.69H170.251V94.9775Z" fill="#246AFF"/>
<path d="M170.251 93.2646H168.539V94.9771H170.251V93.2646Z" fill="#246AFF"/>
<path d="M170.251 91.5527H168.539V93.2652H170.251V91.5527Z" fill="#246AFF"/>
<path d="M170.251 89.8398H168.539V91.5523H170.251V89.8398Z" fill="#246AFF"/>
<path d="M170.251 86.415H168.539V88.1275H170.251V86.415Z" fill="#246AFF"/>
<path d="M170.251 84.7021H168.539V86.4146H170.251V84.7021Z" fill="#246AFF"/>
<path d="M168.54 94.9775H166.827V96.69H168.54V94.9775Z" fill="#246AFF"/>
<path d="M168.54 91.5527H166.827V93.2652H168.54V91.5527Z" fill="#246AFF"/>
<path d="M168.54 89.8398H166.827V91.5523H168.54V89.8398Z" fill="#246AFF"/>
<path d="M168.54 88.127H166.827V89.8394H168.54V88.127Z" fill="#246AFF"/>
<path d="M168.54 86.415H166.827V88.1275H168.54V86.415Z" fill="#246AFF"/>
<path d="M168.54 84.7021H166.827V86.4146H168.54V84.7021Z" fill="#246AFF"/>
<path d="M166.827 94.9775H165.114V96.69H166.827V94.9775Z" fill="#246AFF"/>
<path d="M166.827 93.2646H165.114V94.9771H166.827V93.2646Z" fill="#246AFF"/>
<path d="M166.827 91.5527H165.114V93.2652H166.827V91.5527Z" fill="#246AFF"/>
<path d="M166.827 84.7021H165.114V86.4146H166.827V84.7021Z" fill="#246AFF"/>
<path d="M177.103 81.2773H175.391V82.9898H177.103V81.2773Z" fill="#246AFF"/>
<path d="M177.103 79.5645H175.391V81.2769H177.103V79.5645Z" fill="#246AFF"/>
<path d="M177.103 77.8506H175.391V79.563H177.103V77.8506Z" fill="#246AFF"/>
<path d="M177.103 76.1377H175.391V77.8501H177.103V76.1377Z" fill="#246AFF"/>
<path d="M177.103 74.4258H175.391V76.1382H177.103V74.4258Z" fill="#246AFF"/>
<path d="M177.103 72.7129H175.391V74.4253H177.103V72.7129Z" fill="#246AFF"/>
<path d="M177.103 71H175.391V72.7124H177.103V71Z" fill="#246AFF"/>
<path d="M175.39 71H173.678V72.7124H175.39V71Z" fill="#246AFF"/>
<path d="M173.678 81.2773H171.966V82.9898H173.678V81.2773Z" fill="#246AFF"/>
<path d="M175.39 81.2773H173.678V82.9898H175.39V81.2773Z" fill="#246AFF"/>
<path d="M173.678 77.8506H171.966V79.563H173.678V77.8506Z" fill="#246AFF"/>
<path d="M173.678 76.1377H171.966V77.8501H173.678V76.1377Z" fill="#246AFF"/>
<path d="M173.678 74.4258H171.966V76.1382H173.678V74.4258Z" fill="#246AFF"/>
<path d="M173.678 71H171.966V72.7124H173.678V71Z" fill="#246AFF"/>
<path d="M171.965 81.2773H170.253V82.9898H171.965V81.2773Z" fill="#246AFF"/>
<path d="M171.965 77.8506H170.253V79.563H171.965V77.8506Z" fill="#246AFF"/>
<path d="M171.965 76.1377H170.253V77.8501H171.965V76.1377Z" fill="#246AFF"/>
<path d="M171.965 74.4258H170.253V76.1382H171.965V74.4258Z" fill="#246AFF"/>
<path d="M171.965 71H170.253V72.7124H171.965V71Z" fill="#246AFF"/>
<path d="M170.251 81.2773H168.539V82.9898H170.251V81.2773Z" fill="#246AFF"/>
<path d="M170.251 77.8506H168.539V79.563H170.251V77.8506Z" fill="#246AFF"/>
<path d="M170.251 76.1377H168.539V77.8501H170.251V76.1377Z" fill="#246AFF"/>
<path d="M170.251 74.4258H168.539V76.1382H170.251V74.4258Z" fill="#246AFF"/>
<path d="M170.251 71H168.539V72.7124H170.251V71Z" fill="#246AFF"/>
<path d="M168.54 81.2773H166.827V82.9898H168.54V81.2773Z" fill="#246AFF"/>
<path d="M168.54 71H166.827V72.7124H168.54V71Z" fill="#246AFF"/>
<path d="M166.827 81.2773H165.114V82.9898H166.827V81.2773Z" fill="#246AFF"/>
<path d="M166.827 79.5645H165.114V81.2769H166.827V79.5645Z" fill="#246AFF"/>
<path d="M166.827 77.8506H165.114V79.563H166.827V77.8506Z" fill="#246AFF"/>
<path d="M166.827 76.1377H165.114V77.8501H166.827V76.1377Z" fill="#246AFF"/>
<path d="M166.827 74.4258H165.114V76.1382H166.827V74.4258Z" fill="#246AFF"/>
<path d="M166.827 72.7129H165.114V74.4253H166.827V72.7129Z" fill="#246AFF"/>
<path d="M166.827 71H165.114V72.7124H166.827V71Z" fill="#246AFF"/>
<path d="M165.113 96.6914H163.4V98.4038H165.113V96.6914Z" fill="#246AFF"/>
<path d="M165.113 94.9775H163.4V96.69H165.113V94.9775Z" fill="#246AFF"/>
<path d="M165.113 91.5527H163.4V93.2652H165.113V91.5527Z" fill="#246AFF"/>
<path d="M165.113 86.415H163.4V88.1275H165.113V86.415Z" fill="#246AFF"/>
<path d="M165.113 84.7021H163.4V86.4146H165.113V84.7021Z" fill="#246AFF"/>
<path d="M163.401 84.7021H161.688V86.4146H163.401V84.7021Z" fill="#246AFF"/>
<path d="M163.401 72.7129H161.688V74.4253H163.401V72.7129Z" fill="#246AFF"/>
<path d="M163.401 81.2773H161.688V82.9898H163.401V81.2773Z" fill="#246AFF"/>
<path d="M163.401 77.8506H161.688V79.563H163.401V77.8506Z" fill="#246AFF"/>
<path d="M161.689 108.679H159.977V110.391H161.689V108.679Z" fill="#246AFF"/>
<path d="M163.401 110.392H161.688V112.104H163.401V110.392Z" fill="#246AFF"/>
<path d="M161.689 101.829H159.977V103.542H161.689V101.829Z" fill="#246AFF"/>
<path d="M161.689 100.116H159.977V101.829H161.689V100.116Z" fill="#246AFF"/>
<path d="M161.689 98.4033H159.977V100.116H161.689V98.4033Z" fill="#246AFF"/>
<path d="M161.689 84.7021H159.977V86.4146H161.689V84.7021Z" fill="#246AFF"/>
<path d="M161.689 79.5645H159.977V81.2769H161.689V79.5645Z" fill="#246AFF"/>
<path d="M161.689 74.4258H159.977V76.1382H161.689V74.4258Z" fill="#246AFF"/>
<path d="M161.689 72.7129H159.977V74.4253H161.689V72.7129Z" fill="#246AFF"/>
<path d="M161.689 71H159.977V72.7124H161.689V71Z" fill="#246AFF"/>
<path d="M165.113 89.8398H163.4V91.5523H165.113V89.8398Z" fill="#246AFF"/>
<path d="M163.401 88.127H161.688V89.8394H163.401V88.127Z" fill="#246AFF"/>
<path d="M159.976 108.679H158.264V110.391H159.976V108.679Z" fill="#246AFF"/>
<path d="M159.976 106.967H158.264V108.679H159.976V106.967Z" fill="#246AFF"/>
<path d="M159.976 101.829H158.264V103.542H159.976V101.829Z" fill="#246AFF"/>
<path d="M159.976 100.116H158.264V101.829H159.976V100.116Z" fill="#246AFF"/>
<path d="M159.976 98.4033H158.264V100.116H159.976V98.4033Z" fill="#246AFF"/>
<path d="M159.976 96.6914H158.264V98.4038H159.976V96.6914Z" fill="#246AFF"/>
<path d="M159.976 94.9775H158.264V96.69H159.976V94.9775Z" fill="#246AFF"/>
<path d="M159.976 93.2646H158.264V94.9771H159.976V93.2646Z" fill="#246AFF"/>
<path d="M159.976 91.5527H158.264V93.2652H159.976V91.5527Z" fill="#246AFF"/>
<path d="M159.976 89.8398H158.264V91.5523H159.976V89.8398Z" fill="#246AFF"/>
<path d="M159.976 88.127H158.264V89.8394H159.976V88.127Z" fill="#246AFF"/>
<path d="M159.976 82.9893H158.264V84.7017H159.976V82.9893Z" fill="#246AFF"/>
<path d="M159.976 81.2773H158.264V82.9898H159.976V81.2773Z" fill="#246AFF"/>
<path d="M159.976 79.5645H158.264V81.2769H159.976V79.5645Z" fill="#246AFF"/>
<path d="M159.976 74.4258H158.264V76.1382H159.976V74.4258Z" fill="#246AFF"/>
<path d="M159.976 72.7129H158.264V74.4253H159.976V72.7129Z" fill="#246AFF"/>
<path d="M158.264 108.679H156.552V110.391H158.264V108.679Z" fill="#246AFF"/>
<path d="M158.264 106.967H156.552V108.679H158.264V106.967Z" fill="#246AFF"/>
<path d="M158.264 100.116H156.552V101.829H158.264V100.116Z" fill="#246AFF"/>
<path d="M158.264 98.4033H156.552V100.116H158.264V98.4033Z" fill="#246AFF"/>
<path d="M158.264 93.2646H156.552V94.9771H158.264V93.2646Z" fill="#246AFF"/>
<path d="M158.264 91.5527H156.552V93.2652H158.264V91.5527Z" fill="#246AFF"/>
<path d="M158.264 86.415H156.552V88.1275H158.264V86.415Z" fill="#246AFF"/>
<path d="M158.264 84.7021H156.552V86.4146H158.264V84.7021Z" fill="#246AFF"/>
<path d="M158.264 82.9893H156.552V84.7017H158.264V82.9893Z" fill="#246AFF"/>
<path d="M158.264 81.2773H156.552V82.9898H158.264V81.2773Z" fill="#246AFF"/>
<path d="M158.264 79.5645H156.552V81.2769H158.264V79.5645Z" fill="#246AFF"/>
<path d="M158.264 76.1377H156.552V77.8501H158.264V76.1377Z" fill="#246AFF"/>
<path d="M158.264 72.7129H156.552V74.4253H158.264V72.7129Z" fill="#246AFF"/>
<path d="M156.551 110.392H154.839V112.104H156.551V110.392Z" fill="#246AFF"/>
<path d="M156.551 106.967H154.839V108.679H156.551V106.967Z" fill="#246AFF"/>
<path d="M156.551 105.254H154.839V106.966H156.551V105.254Z" fill="#246AFF"/>
<path d="M156.551 101.829H154.839V103.542H156.551V101.829Z" fill="#246AFF"/>
<path d="M156.551 100.116H154.839V101.829H156.551V100.116Z" fill="#246AFF"/>
<path d="M156.551 98.4033H154.839V100.116H156.551V98.4033Z" fill="#246AFF"/>
<path d="M156.551 96.6914H154.839V98.4038H156.551V96.6914Z" fill="#246AFF"/>
<path d="M156.551 86.415H154.839V88.1275H156.551V86.415Z" fill="#246AFF"/>
<path d="M156.551 84.7021H154.839V86.4146H156.551V84.7021Z" fill="#246AFF"/>
<path d="M153.126 77.8506H151.413V79.563H153.126V77.8506Z" fill="#246AFF"/>
<path d="M156.551 81.2773H154.839V82.9898H156.551V81.2773Z" fill="#246AFF"/>
<path d="M156.551 79.5645H154.839V81.2769H156.551V79.5645Z" fill="#246AFF"/>
<path d="M156.551 76.1377H154.839V77.8501H156.551V76.1377Z" fill="#246AFF"/>
<path d="M154.837 110.392H153.125V112.104H154.837V110.392Z" fill="#246AFF"/>
<path d="M154.837 108.679H153.125V110.391H154.837V108.679Z" fill="#246AFF"/>
<path d="M154.837 106.967H153.125V108.679H154.837V106.967Z" fill="#246AFF"/>
<path d="M154.837 101.829H153.125V103.542H154.837V101.829Z" fill="#246AFF"/>
<path d="M154.837 96.6914H153.125V98.4038H154.837V96.6914Z" fill="#246AFF"/>
<path d="M154.837 88.127H153.125V89.8394H154.837V88.127Z" fill="#246AFF"/>
<path d="M154.837 86.415H153.125V88.1275H154.837V86.415Z" fill="#246AFF"/>
<path d="M154.837 84.7021H153.125V86.4146H154.837V84.7021Z" fill="#246AFF"/>
<path d="M154.837 81.2773H153.125V82.9898H154.837V81.2773Z" fill="#246AFF"/>
<path d="M154.837 79.5645H153.125V81.2769H154.837V79.5645Z" fill="#246AFF"/>
<path d="M154.837 71H153.125V72.7124H154.837V71Z" fill="#246AFF"/>
<path d="M153.126 110.392H151.413V112.104H153.126V110.392Z" fill="#246AFF"/>
<path d="M153.126 108.679H151.413V110.391H153.126V108.679Z" fill="#246AFF"/>
<path d="M153.126 106.967H151.413V108.679H153.126V106.967Z" fill="#246AFF"/>
<path d="M153.126 105.254H151.413V106.966H153.126V105.254Z" fill="#246AFF"/>
<path d="M153.126 103.541H151.413V105.253H153.126V103.541Z" fill="#246AFF"/>
<path d="M153.126 101.829H151.413V103.542H153.126V101.829Z" fill="#246AFF"/>
<path d="M153.126 96.6914H151.413V98.4038H153.126V96.6914Z" fill="#246AFF"/>
<path d="M153.126 93.2646H151.413V94.9771H153.126V93.2646Z" fill="#246AFF"/>
<path d="M153.126 91.5527H151.413V93.2652H153.126V91.5527Z" fill="#246AFF"/>
<path d="M153.126 86.415H151.413V88.1275H153.126V86.415Z" fill="#246AFF"/>
<path d="M153.126 72.7129H151.413V74.4253H153.126V72.7129Z" fill="#246AFF"/>
<path d="M153.126 71H151.413V72.7124H153.126V71Z" fill="#246AFF"/>
<path d="M151.413 110.392H149.7V112.104H151.413V110.392Z" fill="#246AFF"/>
<path d="M151.413 105.254H149.7V106.966H151.413V105.254Z" fill="#246AFF"/>
<path d="M151.413 103.541H149.7V105.253H151.413V103.541Z" fill="#246AFF"/>
<path d="M151.413 101.829H149.7V103.542H151.413V101.829Z" fill="#246AFF"/>
<path d="M151.413 100.116H149.7V101.829H151.413V100.116Z" fill="#246AFF"/>
<path d="M151.413 98.4033H149.7V100.116H151.413V98.4033Z" fill="#246AFF"/>
<path d="M151.413 96.6914H149.7V98.4038H151.413V96.6914Z" fill="#246AFF"/>
<path d="M151.413 93.2646H149.7V94.9771H151.413V93.2646Z" fill="#246AFF"/>
<path d="M151.413 91.5527H149.7V93.2652H151.413V91.5527Z" fill="#246AFF"/>
<path d="M151.413 89.8398H149.7V91.5523H151.413V89.8398Z" fill="#246AFF"/>
<path d="M151.413 88.127H149.7V89.8394H151.413V88.127Z" fill="#246AFF"/>
<path d="M151.413 86.415H149.7V88.1275H151.413V86.415Z" fill="#246AFF"/>
<path d="M151.413 84.7021H149.7V86.4146H151.413V84.7021Z" fill="#246AFF"/>
<path d="M151.413 76.1377H149.7V77.8501H151.413V76.1377Z" fill="#246AFF"/>
<path d="M151.413 74.4258H149.7V76.1382H151.413V74.4258Z" fill="#246AFF"/>
<path d="M151.413 72.7129H149.7V74.4253H151.413V72.7129Z" fill="#246AFF"/>
<path d="M151.413 71H149.7V72.7124H151.413V71Z" fill="#246AFF"/>
<path d="M163.401 103.541H161.688V105.253H163.401V103.541Z" fill="#246AFF"/>
<path d="M163.401 94.9775H161.688V96.69H163.401V94.9775Z" fill="#246AFF"/>
<path d="M149.699 110.392H147.986V112.104H149.699V110.392Z" fill="#246AFF"/>
<path d="M149.699 108.679H147.986V110.391H149.699V108.679Z" fill="#246AFF"/>
<path d="M149.699 106.967H147.986V108.679H149.699V106.967Z" fill="#246AFF"/>
<path d="M149.699 105.254H147.986V106.966H149.699V105.254Z" fill="#246AFF"/>
<path d="M149.699 103.541H147.986V105.253H149.699V103.541Z" fill="#246AFF"/>
<path d="M149.699 101.829H147.986V103.542H149.699V101.829Z" fill="#246AFF"/>
<path d="M149.699 100.116H147.986V101.829H149.699V100.116Z" fill="#246AFF"/>
<path d="M149.699 98.4033H147.986V100.116H149.699V98.4033Z" fill="#246AFF"/>
<path d="M149.699 96.6914H147.986V98.4038H149.699V96.6914Z" fill="#246AFF"/>
<path d="M149.699 94.9775H147.986V96.69H149.699V94.9775Z" fill="#246AFF"/>
<path d="M149.699 93.2646H147.986V94.9771H149.699V93.2646Z" fill="#246AFF"/>
<path d="M149.699 89.8398H147.986V91.5523H149.699V89.8398Z" fill="#246AFF"/>
<path d="M149.699 88.127H147.986V89.8394H149.699V88.127Z" fill="#246AFF"/>
<path d="M149.699 86.415H147.986V88.1275H149.699V86.415Z" fill="#246AFF"/>
<path d="M147.987 105.254H146.274V106.966H147.987V105.254Z" fill="#246AFF"/>
<path d="M147.987 100.116H146.274V101.829H147.987V100.116Z" fill="#246AFF"/>
<path d="M147.987 98.4033H146.274V100.116H147.987V98.4033Z" fill="#246AFF"/>
<path d="M147.987 96.6914H146.274V98.4038H147.987V96.6914Z" fill="#246AFF"/>
<path d="M147.987 94.9775H146.274V96.69H147.987V94.9775Z" fill="#246AFF"/>
<path d="M147.987 93.2646H146.274V94.9771H147.987V93.2646Z" fill="#246AFF"/>
<path d="M147.987 91.5527H146.274V93.2652H147.987V91.5527Z" fill="#246AFF"/>
<path d="M147.987 88.127H146.274V89.8394H147.987V88.127Z" fill="#246AFF"/>
<path d="M147.987 84.7021H146.274V86.4146H147.987V84.7021Z" fill="#246AFF"/>
<path d="M146.274 100.116H144.562V101.829H146.274V100.116Z" fill="#246AFF"/>
<path d="M146.274 96.6914H144.562V98.4038H146.274V96.6914Z" fill="#246AFF"/>
<path d="M146.274 93.2646H144.562V94.9771H146.274V93.2646Z" fill="#246AFF"/>
<path d="M146.274 91.5527H144.562V93.2652H146.274V91.5527Z" fill="#246AFF"/>
<path d="M146.274 88.127H144.562V89.8394H146.274V88.127Z" fill="#246AFF"/>
<path d="M146.274 86.415H144.562V88.1275H146.274V86.415Z" fill="#246AFF"/>
<path d="M146.274 84.7021H144.562V86.4146H146.274V84.7021Z" fill="#246AFF"/>
<path d="M144.562 108.679H142.85V110.391H144.562V108.679Z" fill="#246AFF"/>
<path d="M144.562 100.116H142.85V101.829H144.562V100.116Z" fill="#246AFF"/>
<path d="M144.562 96.6914H142.85V98.4038H144.562V96.6914Z" fill="#246AFF"/>
<path d="M144.562 93.2646H142.85V94.9771H144.562V93.2646Z" fill="#246AFF"/>
<path d="M144.562 89.8398H142.85V91.5523H144.562V89.8398Z" fill="#246AFF"/>
<path d="M144.562 88.127H142.85V89.8394H144.562V88.127Z" fill="#246AFF"/>
<path d="M144.562 86.415H142.85V88.1275H144.562V86.415Z" fill="#246AFF"/>
<path d="M142.85 110.392H141.138V112.104H142.85V110.392Z" fill="#246AFF"/>
<path d="M142.85 108.679H141.138V110.391H142.85V108.679Z" fill="#246AFF"/>
<path d="M142.85 103.541H141.138V105.253H142.85V103.541Z" fill="#246AFF"/>
<path d="M142.85 101.829H141.138V103.542H142.85V101.829Z" fill="#246AFF"/>
<path d="M146.274 103.541H144.562V105.253H146.274V103.541Z" fill="#246AFF"/>
<path d="M142.85 100.116H141.138V101.829H142.85V100.116Z" fill="#246AFF"/>
<path d="M142.85 96.6914H141.138V98.4038H142.85V96.6914Z" fill="#246AFF"/>
<path d="M142.85 106.967H141.138V108.679H142.85V106.967Z" fill="#246AFF"/>
<path d="M142.85 105.254H141.138V106.966H142.85V105.254Z" fill="#246AFF"/>
<path d="M141.137 105.254H139.425V106.966H141.137V105.254Z" fill="#246AFF"/>
<path d="M139.423 106.967H137.711V108.679H139.423V106.967Z" fill="#246AFF"/>
<path d="M139.423 105.254H137.711V106.966H139.423V105.254Z" fill="#246AFF"/>
<path d="M142.85 88.127H141.138V89.8394H142.85V88.127Z" fill="#246AFF"/>
<path d="M142.85 86.415H141.138V88.1275H142.85V86.415Z" fill="#246AFF"/>
<path d="M142.85 84.7021H141.138V86.4146H142.85V84.7021Z" fill="#246AFF"/>
<path d="M141.137 110.392H139.425V112.104H141.137V110.392Z" fill="#246AFF"/>
<path d="M141.137 101.829H139.425V103.542H141.137V101.829Z" fill="#246AFF"/>
<path d="M141.137 100.116H139.425V101.829H141.137V100.116Z" fill="#246AFF"/>
<path d="M141.137 98.4033H139.425V100.116H141.137V98.4033Z" fill="#246AFF"/>
<path d="M141.137 89.8398H139.425V91.5523H141.137V89.8398Z" fill="#246AFF"/>
<path d="M141.137 84.7021H139.425V86.4146H141.137V84.7021Z" fill="#246AFF"/>
<path d="M139.423 101.829H137.711V103.542H139.423V101.829Z" fill="#246AFF"/>
<path d="M139.423 100.116H137.711V101.829H139.423V100.116Z" fill="#246AFF"/>
<path d="M139.423 93.2646H137.711V94.9771H139.423V93.2646Z" fill="#246AFF"/>
<path d="M139.423 91.5527H137.711V93.2652H139.423V91.5527Z" fill="#246AFF"/>
<path d="M139.423 89.8398H137.711V91.5523H139.423V89.8398Z" fill="#246AFF"/>
<path d="M139.423 84.7021H137.711V86.4146H139.423V84.7021Z" fill="#246AFF"/>
<path d="M137.711 110.392H135.999V112.104H137.711V110.392Z" fill="#246AFF"/>
<path d="M137.711 103.541H135.999V105.253H137.711V103.541Z" fill="#246AFF"/>
<path d="M137.711 101.829H135.999V103.542H137.711V101.829Z" fill="#246AFF"/>
<path d="M137.711 100.116H135.999V101.829H137.711V100.116Z" fill="#246AFF"/>
<path d="M137.711 96.6914H135.999V98.4038H137.711V96.6914Z" fill="#246AFF"/>
<path d="M137.711 93.2646H135.999V94.9771H137.711V93.2646Z" fill="#246AFF"/>
<path d="M137.711 91.5527H135.999V93.2652H137.711V91.5527Z" fill="#246AFF"/>
<path d="M137.711 89.8398H135.999V91.5523H137.711V89.8398Z" fill="#246AFF"/>
<path d="M137.711 86.415H135.999V88.1275H137.711V86.415Z" fill="#246AFF"/>
<path d="M137.711 84.7021H135.999V86.4146H137.711V84.7021Z" fill="#246AFF"/>
<path d="M147.987 81.2773H146.274V82.9898H147.987V81.2773Z" fill="#246AFF"/>
<path d="M147.987 79.5645H146.274V81.2769H147.987V79.5645Z" fill="#246AFF"/>
<path d="M147.987 77.8506H146.274V79.563H147.987V77.8506Z" fill="#246AFF"/>
<path d="M147.987 76.1377H146.274V77.8501H147.987V76.1377Z" fill="#246AFF"/>
<path d="M147.987 74.4258H146.274V76.1382H147.987V74.4258Z" fill="#246AFF"/>
<path d="M147.987 72.7129H146.274V74.4253H147.987V72.7129Z" fill="#246AFF"/>
<path d="M147.987 71H146.274V72.7124H147.987V71Z" fill="#246AFF"/>
<path d="M146.274 71H144.562V72.7124H146.274V71Z" fill="#246AFF"/>
<path d="M144.562 81.2773H142.85V82.9898H144.562V81.2773Z" fill="#246AFF"/>
<path d="M146.274 81.2773H144.562V82.9898H146.274V81.2773Z" fill="#246AFF"/>
<path d="M144.562 77.8506H142.85V79.563H144.562V77.8506Z" fill="#246AFF"/>
<path d="M144.562 76.1377H142.85V77.8501H144.562V76.1377Z" fill="#246AFF"/>
<path d="M144.562 74.4258H142.85V76.1382H144.562V74.4258Z" fill="#246AFF"/>
<path d="M144.562 71H142.85V72.7124H144.562V71Z" fill="#246AFF"/>
<path d="M142.85 81.2773H141.138V82.9898H142.85V81.2773Z" fill="#246AFF"/>
<path d="M142.85 77.8506H141.138V79.563H142.85V77.8506Z" fill="#246AFF"/>
<path d="M142.85 76.1377H141.138V77.8501H142.85V76.1377Z" fill="#246AFF"/>
<path d="M142.85 74.4258H141.138V76.1382H142.85V74.4258Z" fill="#246AFF"/>
<path d="M142.85 71H141.138V72.7124H142.85V71Z" fill="#246AFF"/>
<path d="M141.137 81.2773H139.425V82.9898H141.137V81.2773Z" fill="#246AFF"/>
<path d="M141.137 77.8506H139.425V79.563H141.137V77.8506Z" fill="#246AFF"/>
<path d="M141.137 76.1377H139.425V77.8501H141.137V76.1377Z" fill="#246AFF"/>
<path d="M141.137 74.4258H139.425V76.1382H141.137V74.4258Z" fill="#246AFF"/>
<path d="M141.137 71H139.425V72.7124H141.137V71Z" fill="#246AFF"/>
<path d="M139.423 81.2773H137.711V82.9898H139.423V81.2773Z" fill="#246AFF"/>
<path d="M139.423 71H137.711V72.7124H139.423V71Z" fill="#246AFF"/>
<path d="M137.711 81.2773H135.999V82.9898H137.711V81.2773Z" fill="#246AFF"/>
<path d="M137.711 79.5645H135.999V81.2769H137.711V79.5645Z" fill="#246AFF"/>
<path d="M137.711 77.8506H135.999V79.563H137.711V77.8506Z" fill="#246AFF"/>
<path d="M137.711 76.1377H135.999V77.8501H137.711V76.1377Z" fill="#246AFF"/>
<path d="M137.711 74.4258H135.999V76.1382H137.711V74.4258Z" fill="#246AFF"/>
<path d="M137.711 72.7129H135.999V74.4253H137.711V72.7129Z" fill="#246AFF"/>
<path d="M137.711 71H135.999V72.7124H137.711V71Z" fill="#246AFF"/>
<path d="M177.103 110.393H175.391V112.105H177.103V110.393Z" fill="#246AFF"/>
<path d="M177.103 108.68H175.391V110.392H177.103V108.68Z" fill="#246AFF"/>
<path d="M177.103 106.967H175.391V108.679H177.103V106.967Z" fill="#246AFF"/>
<path d="M177.103 105.254H175.391V106.966H177.103V105.254Z" fill="#246AFF"/>
<path d="M177.103 103.541H175.391V105.253H177.103V103.541Z" fill="#246AFF"/>
<path d="M177.103 101.829H175.391V103.542H177.103V101.829Z" fill="#246AFF"/>
<path d="M177.103 100.116H175.391V101.829H177.103V100.116Z" fill="#246AFF"/>
<path d="M175.39 100.116H173.678V101.829H175.39V100.116Z" fill="#246AFF"/>
<path d="M173.678 110.393H171.966V112.105H173.678V110.393Z" fill="#246AFF"/>
<path d="M175.39 110.393H173.678V112.105H175.39V110.393Z" fill="#246AFF"/>
<path d="M173.678 106.967H171.966V108.679H173.678V106.967Z" fill="#246AFF"/>
<path d="M173.678 105.254H171.966V106.966H173.678V105.254Z" fill="#246AFF"/>
<path d="M173.678 103.541H171.966V105.253H173.678V103.541Z" fill="#246AFF"/>
<path d="M173.678 100.116H171.966V101.829H173.678V100.116Z" fill="#246AFF"/>
<path d="M171.965 110.393H170.253V112.105H171.965V110.393Z" fill="#246AFF"/>
<path d="M171.965 106.967H170.253V108.679H171.965V106.967Z" fill="#246AFF"/>
<path d="M171.965 105.254H170.253V106.966H171.965V105.254Z" fill="#246AFF"/>
<path d="M171.965 103.541H170.253V105.253H171.965V103.541Z" fill="#246AFF"/>
<path d="M171.965 100.116H170.253V101.829H171.965V100.116Z" fill="#246AFF"/>
<path d="M170.251 110.393H168.539V112.105H170.251V110.393Z" fill="#246AFF"/>
<path d="M170.251 106.967H168.539V108.679H170.251V106.967Z" fill="#246AFF"/>
<path d="M170.251 105.254H168.539V106.966H170.251V105.254Z" fill="#246AFF"/>
<path d="M170.251 103.541H168.539V105.253H170.251V103.541Z" fill="#246AFF"/>
<path d="M170.251 100.116H168.539V101.829H170.251V100.116Z" fill="#246AFF"/>
<path d="M168.54 110.393H166.827V112.105H168.54V110.393Z" fill="#246AFF"/>
<path d="M168.54 100.116H166.827V101.829H168.54V100.116Z" fill="#246AFF"/>
<path d="M166.827 110.393H165.114V112.105H166.827V110.393Z" fill="#246AFF"/>
<path d="M166.827 108.68H165.114V110.392H166.827V108.68Z" fill="#246AFF"/>
<path d="M166.827 106.967H165.114V108.679H166.827V106.967Z" fill="#246AFF"/>
<path d="M166.827 105.254H165.114V106.966H166.827V105.254Z" fill="#246AFF"/>
<path d="M166.827 103.541H165.114V105.253H166.827V103.541Z" fill="#246AFF"/>
<path d="M166.827 101.829H165.114V103.542H166.827V101.829Z" fill="#246AFF"/>
<path d="M166.827 100.116H165.114V101.829H166.827V100.116Z" fill="#246AFF"/>
<path d="M172.445 45.5043H139.977C138.437 45.5043 137.178 44.2712 137.178 42.7639V41.9943C137.178 40.487 138.437 39.2539 139.977 39.2539H172.445C173.984 39.2539 175.244 40.487 175.244 41.9943V42.7639C175.243 44.2709 173.984 45.5043 172.445 45.5043Z" fill="#8692C2"/>
<path d="M165.346 42.7378H143.909C143.53 42.7378 143.221 42.4346 143.221 42.0641V41.8749C143.221 41.5044 143.53 41.2012 143.909 41.2012H165.346C165.725 41.2012 166.035 41.5044 166.035 41.8749V42.0641C166.035 42.4346 165.725 42.7378 165.346 42.7378Z" fill="#5A669A"/>
<path d="M171.594 41.9183C171.594 42.4275 171.172 42.8405 170.652 42.8405C170.132 42.8405 169.71 42.4275 169.71 41.9183C169.71 41.4091 170.132 40.9961 170.652 40.9961C171.172 40.9961 171.594 41.4091 171.594 41.9183Z" fill="#5A669A"/>
<path d="M224.848 118.55H211.187V157.9H224.848V118.55Z" fill="#5082EB"/>
<path d="M211.185 118.55H175.093V157.9H211.185V118.55Z" fill="#6E99F4"/>
<path d="M211.187 140.555V137.801H175.095V140.555H211.187Z" fill="white"/>
<path d="M224.847 140.555V137.801H211.185V140.555H224.847Z" fill="#C0D6FE"/>
<path d="M201.42 117.947C201.42 117.947 212.485 112.925 220.198 114.833L218.658 115.864L219.434 117.683C219.434 117.683 210.853 115.446 201.198 118.244L201.42 117.947Z" fill="#CB5F4C"/>
<path d="M199.528 117.753C199.528 117.753 198.089 117.579 195.945 117.284C190.252 116.501 179.59 114.863 177.676 113.347C174.669 110.965 181.795 100.851 184.879 99.4474C187.964 98.0448 199.528 117.753 199.528 117.753Z" fill="#EB6E58"/>
<path d="M222.09 105.158C222.604 107.663 199.319 118.488 199.319 118.488C199.319 118.488 199.743 117.343 200.432 115.549C200.432 115.549 200.433 115.547 200.434 115.546C202.952 108.995 209.016 93.7918 211.009 94.0022C211.209 94.0229 211.443 94.0945 211.705 94.2091C214.766 95.5559 221.617 102.85 222.09 105.158Z" fill="#EB6E58"/>
<path d="M211.502 96.4372C210.08 98.9074 200.577 115.29 200.428 115.546C202.945 108.995 209.01 93.7918 211.003 94.0022C211.003 94.0022 211.397 93.9909 211.699 94.2091C212.062 94.4739 212.287 95.0731 211.502 96.4372Z" fill="#CB5F4C"/>
<path d="M195.948 117.284H195.944C190.252 116.501 179.589 114.863 177.675 113.347C176.811 110.913 179.053 110.715 180.685 110.543C182.316 110.372 195.948 117.284 195.948 117.284Z" fill="#CB5F4C"/>
<path d="M195.182 118.526C195.182 118.526 196.487 115.557 199.056 115.392C201.739 115.22 203.263 118.526 203.263 118.526H195.182Z" fill="#CB5F4C"/>
<path d="M211.765 118.55H174V123.962H211.765V118.55Z" fill="#88B3FF"/>
<path d="M226 118.55H211.766V123.962H226V118.55Z" fill="#246AFF"/>
<path d="M196.504 118.099C196.504 118.099 189.107 115.756 184.116 117.305C178.363 119.09 178.704 126.189 178.704 126.189L180.057 125.633L181.884 126.49C181.884 126.49 182.192 118.973 186.882 117.921C190.938 117.011 196.504 118.099 196.504 118.099Z" fill="#CB5F4C"/>
<path d="M192.71 118.55H189.956V158.24H192.71V118.55Z" fill="white"/>
</svg>
