<svg width="80" height="80" viewBox="0 0 80 80" fill="none" xmlns="http://www.w3.org/2000/svg">
<path d="M79.984 35.1108C79.9948 34.9992 80.0008 34.886 80.0008 34.7714C80.0008 32.8279 78.4071 31.2523 76.4413 31.2523C75.8491 31.2523 75.2913 31.3961 74.7999 31.6491C74.1569 29.5169 72.1599 27.9619 69.7943 27.9619C67.4288 27.9619 65.4317 29.5169 64.7888 31.6491C64.2976 31.3961 63.7396 31.2523 63.1474 31.2523C61.1814 31.2523 59.5879 32.8279 59.5879 34.7714C59.5879 34.8858 59.5939 34.9989 59.6047 35.1108H79.984Z" fill="white"/>
<path d="M20.3961 37.7304C20.4069 37.6188 20.4129 37.5057 20.4129 37.391C20.4129 35.4476 18.8192 33.8719 16.8534 33.8719C16.2612 33.8719 15.7034 34.0157 15.212 34.2687C14.5691 32.1365 12.572 30.5815 10.2065 30.5815C7.84089 30.5815 5.84386 32.1365 5.20092 34.2687C4.70976 34.0157 4.15167 33.8719 3.55947 33.8719C1.59352 33.8719 0 35.4476 0 37.391C0 37.5057 0.00604488 37.6186 0.0168397 37.7304H20.3961Z" fill="#C2D5FF"/>
<path d="M35.623 77.9154H36.9463L45.8632 12.9121H44.54L35.623 77.9154Z" fill="#848E9D"/>
<path d="M62.7108 77.9154H61.3876L52.4707 12.9121H53.7939L62.7108 77.9154Z" fill="#848E9D"/>
<path d="M45.1217 15.379L44.709 15.8979L54.1438 23.2324L54.5566 22.7134L45.1217 15.379Z" fill="#848E9D"/>
<path d="M53.6566 15.384L43.7773 23.064L44.1901 23.5829L54.0694 15.903L53.6566 15.384Z" fill="#848E9D"/>
<path d="M44.1823 22.6537L43.6738 23.293L55.2976 32.3291L55.8061 31.6898L44.1823 22.6537Z" fill="#848E9D"/>
<path d="M54.6969 22.6531L42.5254 32.115L43.0338 32.7543L55.2053 23.2924L54.6969 22.6531Z" fill="#848E9D"/>
<path d="M41.3103 42.701L40.4688 43.6816L58.8456 59.0983L59.6872 58.1177L41.3103 42.701Z" fill="#848E9D"/>
<path d="M56.7946 43.1952L38.6602 57.6489L39.4764 58.6499L57.6108 44.1962L56.7946 43.1952Z" fill="#848E9D"/>
<path d="M42.8539 31.6169L42.1777 32.4048L56.9445 44.7928L57.6207 44.0049L42.8539 31.6169Z" fill="#848E9D"/>
<path d="M55.2967 32.0118L40.7246 43.6262L41.3805 44.4307L55.9526 32.8162L55.2967 32.0118Z" fill="#848E9D"/>
<path d="M39.4073 57.6222L38.5801 58.6853L61.1503 75.8506L61.9775 74.7875L39.4073 57.6222Z" fill="#848E9D"/>
<path d="M59.3824 58.075L36.3496 75.592L37.1768 76.6552L60.2095 59.1381L59.3824 58.075Z" fill="#848E9D"/>
<path d="M54.0677 0H44.4316V13.9541H54.0677V0Z" fill="#848E9D"/>
<path d="M43.0842 1.18604H39.5156V12.7676H43.0842V1.18604Z" fill="#848E9D"/>
<path d="M45.3916 2.24625L41.9512 3.18262L42.1501 3.89691L45.5905 2.96054L45.3916 2.24625Z" fill="#848E9D"/>
<path d="M45.5869 11.2337L42.1465 10.2974L41.9476 11.0116L45.388 11.948L45.5869 11.2337Z" fill="#848E9D"/>
<path d="M45.417 5.17586L41.9766 4.2395L41.7777 4.95379L45.2181 5.89015L45.417 5.17586Z" fill="#848E9D"/>
<path d="M45.3916 8.06461L41.9512 9.00098L42.1501 9.71527L45.5905 8.7789L45.3916 8.06461Z" fill="#848E9D"/>
<path d="M53.044 2.96305L56.4844 3.89941L56.6833 3.18513L53.2428 2.24876L53.044 2.96305Z" fill="#848E9D"/>
<path d="M53.2373 11.952L56.6777 11.0156L56.4789 10.3013L53.0384 11.2377L53.2373 11.952Z" fill="#848E9D"/>
<path d="M53.4111 5.8934L56.8516 4.95703L56.6527 4.24274L53.2122 5.17911L53.4111 5.8934Z" fill="#848E9D"/>
<path d="M53.044 8.78214L56.4844 9.71851L56.6833 9.00422L53.2428 8.06785L53.044 8.78214Z" fill="#848E9D"/>
<path d="M58.9826 1.18604H55.4141V12.7676H58.9826V1.18604Z" fill="#848E9D"/>
<path d="M57.9896 58.6236C58.5144 46.8177 48.4909 36.7932 35.6016 36.2332C22.7124 35.6732 11.8381 44.7898 11.3134 56.5957C10.7887 68.4016 20.8121 78.4261 33.7014 78.9861C46.5907 79.5461 57.4649 70.4295 57.9896 58.6236Z" fill="#84ACFF"/>
<path opacity="0.13" d="M33.3862 73.184C43.5104 73.184 51.7177 65.5186 51.7177 56.0627C51.7177 46.6069 43.5104 38.9414 33.3862 38.9414C23.262 38.9414 15.0547 46.6069 15.0547 56.0627C15.0547 65.5186 23.262 73.184 33.3862 73.184Z" fill="white"/>
<g opacity="0.68">
<path d="M40.7109 57.71C40.7075 59.5998 40.6382 61.4899 40.4886 63.3746C40.3342 65.2589 40.097 67.1375 39.7562 68.9994C39.4068 70.8586 38.9636 72.7078 38.2939 74.4891C37.9537 75.3762 37.5598 76.2509 37.0252 77.053C36.7541 77.4501 36.4502 77.8337 36.0696 78.149C35.8796 78.3057 35.6708 78.4458 35.4399 78.5482C35.2092 78.6502 34.9561 78.7123 34.6998 78.7179C34.4436 78.7265 34.1868 78.6768 33.9521 78.5831C33.7165 78.4903 33.5016 78.358 33.3072 78.2059C32.9193 77.899 32.6035 77.523 32.3309 77.1267C31.7855 76.3309 31.3873 75.4575 31.0436 74.5718C30.3652 72.7935 29.92 70.9445 29.5671 69.0862C28.8775 65.3629 28.5931 61.5787 28.5586 57.7988C28.5601 55.9087 28.6454 54.0192 28.7901 52.1348C28.9384 50.2507 29.1562 48.371 29.4765 46.5068C29.8017 44.6447 30.2159 42.7906 30.8569 41.0028C31.1835 40.1129 31.5633 39.2338 32.0915 38.4333C32.3564 38.0354 32.6638 37.6571 33.0444 37.352C33.235 37.2009 33.446 37.0706 33.6764 36.9809C33.9059 36.8898 34.156 36.8442 34.404 36.8554C34.6519 36.8638 34.8972 36.9212 35.1229 37.0189C35.3487 37.1168 35.5558 37.2501 35.7459 37.4006C36.1263 37.7037 36.4389 38.0747 36.7182 38.4625C37.2716 39.2448 37.689 40.1063 38.0516 40.9826C38.7668 42.7429 39.2515 44.5815 39.6355 46.4332C40.0114 48.2879 40.2758 50.1632 40.4511 52.0459C40.6209 53.9292 40.7028 55.8195 40.7109 57.71ZM40.2462 57.71C40.2512 55.832 40.1829 53.9533 40.0272 52.0817C39.8758 50.21 39.6468 48.3433 39.3013 46.4971C38.9538 44.6531 38.5056 42.8206 37.8305 41.0689C37.4883 40.197 37.0915 39.3405 36.5651 38.5673C36.2996 38.1842 36.0021 37.819 35.6442 37.5235C35.2902 37.2296 34.8605 37.0053 34.3997 36.9913C33.9384 36.9734 33.4996 37.1845 33.1469 37.4763C32.7914 37.7718 32.5 38.142 32.2493 38.5342C31.7487 39.323 31.3892 40.1961 31.0829 41.0807C30.4816 42.8584 30.1034 44.7061 29.8142 46.5606C29.2485 50.2765 29.0732 54.0428 29.0919 57.7982C29.0778 61.5522 29.3127 65.3169 29.9495 69.0186C30.2756 70.8656 30.6942 72.7039 31.3398 74.4625C31.6662 75.3379 32.0473 76.1994 32.5629 76.972C32.8201 77.3568 33.1173 77.7171 33.4708 78.0039C33.822 78.2869 34.2485 78.4913 34.6931 78.4746C34.9134 78.4668 35.1308 78.4111 35.3338 78.3185C35.5368 78.2252 35.7248 78.0962 35.8983 77.9492C36.2461 77.6538 36.5324 77.2847 36.7881 76.8991C37.2934 76.1193 37.6697 75.2563 37.9925 74.3794C38.6286 72.6174 39.0441 70.779 39.366 68.9313C39.686 67.0813 39.8963 65.2129 40.0371 63.3402C40.1818 61.4675 40.2468 59.5886 40.2462 57.71Z" fill="white"/>
<path d="M50.3532 57.7099C50.3374 60.1492 50.0178 62.5891 49.3548 64.941C48.6778 67.2868 47.6566 69.5413 46.2758 71.5644C44.8969 73.5835 43.1414 75.3727 41.0464 76.6706C40.0001 77.3172 38.8699 77.8347 37.6869 78.1854C36.5046 78.5369 35.2705 78.7196 34.0357 78.7196C32.8009 78.7214 31.5662 78.5405 30.3829 78.1906C29.1989 77.8415 28.0671 77.3254 27.019 76.6798C24.9204 75.3844 23.1598 73.5966 21.7758 71.5775C20.3904 69.5538 19.3658 67.2978 18.6836 64.95C18.3491 63.7737 18.0986 62.5742 17.9339 61.3635C17.7704 60.1526 17.6879 58.9315 17.6816 57.7099C17.6892 56.4884 17.7729 55.2674 17.9376 54.0569C18.1037 52.8465 18.3556 51.6476 18.6915 50.472C19.3764 48.1258 20.4036 45.8723 21.7905 43.8521C23.1755 41.8363 24.9355 40.0515 27.0327 38.7615C29.1244 37.4755 31.5667 36.7219 34.0357 36.7271C36.5047 36.7251 38.9448 37.4821 41.0328 38.7707C43.1262 40.0632 44.8812 41.8493 46.2611 43.8651C47.6434 45.8848 48.6672 48.1367 49.3469 50.4811C50.0123 52.8314 50.3347 55.2707 50.3532 57.7099ZM49.8206 57.7099C49.8207 55.316 49.5227 52.919 48.8874 50.6071C48.2511 48.2982 47.2931 46.0665 45.9676 44.058C44.6443 42.0553 42.9525 40.2648 40.909 38.9644C39.8853 38.3223 38.7799 37.8038 37.6196 37.4543C36.4598 37.1048 35.249 36.9208 34.0357 36.9162C32.8223 36.9225 31.612 37.1081 30.4532 37.4591C29.2939 37.8102 28.1901 38.3304 27.1682 38.9736C25.1285 40.2765 23.4417 42.0683 22.1234 44.071C20.8026 46.079 19.848 48.3091 19.2169 50.6162C18.9012 51.7707 18.6748 52.9479 18.5202 54.1333C18.3649 55.3187 18.2888 56.5142 18.2873 57.7099C18.2901 58.9057 18.3674 60.1009 18.524 61.2861C18.6799 62.4711 18.9078 63.6477 19.2248 64.8015C19.8586 67.107 20.8158 69.3346 22.1381 71.3391C23.4574 73.3385 25.1436 75.1273 27.1819 76.4248C28.2033 77.0653 29.3067 77.5791 30.4627 77.93C31.618 78.2817 32.8251 78.4688 34.0357 78.4768C35.2464 78.4706 36.454 78.2854 37.6104 77.9353C38.7673 77.5859 39.8722 77.0734 40.8954 76.434C42.9374 75.139 44.6287 73.3516 45.9531 71.3521C47.28 69.3472 48.2406 67.1179 48.8795 64.8105C49.5172 62.5001 49.8179 60.1038 49.8206 57.7099Z" fill="white"/>
<path d="M15.1144 49.4016C16.7374 49.3719 18.3605 49.3592 19.9835 49.3377L24.8525 49.3014C26.4755 49.286 28.0985 49.2877 29.7215 49.2829L34.5905 49.2722L39.4595 49.2844C41.0825 49.2917 42.7056 49.2877 44.3286 49.3044L49.1976 49.344C50.8206 49.3675 52.4436 49.3812 54.0666 49.413C54.0796 49.4133 54.0899 49.4239 54.0897 49.4367C54.0894 49.4493 54.0791 49.4593 54.0666 49.4595C52.4436 49.4914 50.8206 49.5051 49.1976 49.5286L44.3286 49.5682C42.7056 49.5849 41.0825 49.5808 39.4595 49.5882L34.5905 49.6004L29.7215 49.5897C28.0985 49.5849 26.4755 49.5866 24.8525 49.5711L19.9835 49.5349C18.3605 49.5134 16.7375 49.5006 15.1144 49.4709C15.0951 49.4706 15.0797 49.4548 15.0801 49.4357C15.0804 49.417 15.0957 49.402 15.1144 49.4016Z" fill="white"/>
<path d="M20.7646 41.3389C21.9169 41.3092 23.0692 41.2964 24.2214 41.2749L27.6783 41.2387C29.9829 41.2144 32.2874 41.2115 34.592 41.209C36.8966 41.2113 39.2012 41.2167 41.5057 41.2416L44.9626 41.2812C46.1149 41.3047 47.2672 41.3184 48.4195 41.3503C48.4324 41.3506 48.4427 41.3613 48.4423 41.3741C48.442 41.3865 48.4318 41.3964 48.4195 41.3967C47.2672 41.4286 46.1149 41.4423 44.9626 41.4658L41.5057 41.5054C39.2012 41.5303 36.8966 41.5357 34.592 41.538C32.2875 41.5355 29.9829 41.5326 27.6783 41.5083L24.2214 41.4721C23.0692 41.4506 21.9169 41.4378 20.7646 41.4081C20.7452 41.4076 20.73 41.3917 20.7305 41.3726C20.731 41.3541 20.7461 41.3394 20.7646 41.3389Z" fill="white"/>
<path d="M13.425 57.4644C15.1891 57.4347 16.9531 57.422 18.7171 57.4005L24.0091 57.3642C25.7731 57.3488 27.5371 57.3504 29.3011 57.3456L34.5932 57.335L39.8852 57.3471C41.6492 57.3545 43.4132 57.3505 45.1772 57.3671L50.4693 57.4067C52.2333 57.4302 53.9973 57.444 55.7613 57.4758C55.7743 57.476 55.7846 57.4866 55.7844 57.4994C55.7842 57.512 55.7739 57.522 55.7613 57.5222C53.9973 57.5541 52.2333 57.5678 50.4693 57.5913L45.1772 57.6309C43.4132 57.6476 41.6492 57.6436 39.8852 57.6509L34.5932 57.6631L29.3011 57.6524C27.5371 57.6476 25.7731 57.6493 24.0091 57.6338L18.7171 57.5976C16.9531 57.576 15.1891 57.5633 13.425 57.5336C13.4057 57.5333 13.3903 57.5175 13.3906 57.4984C13.391 57.4798 13.4063 57.4648 13.425 57.4644Z" fill="white"/>
<path d="M15.1144 65.5271C16.7374 65.4974 18.3605 65.4847 19.9835 65.4632L24.8525 65.4269C26.4755 65.4115 28.0985 65.4132 29.7215 65.4084L34.5905 65.3977L39.4595 65.4099C41.0825 65.4172 42.7056 65.4132 44.3286 65.4299L49.1976 65.4695C50.8206 65.493 52.4436 65.5067 54.0666 65.5385C54.0796 65.5388 54.0899 65.5494 54.0897 65.5622C54.0894 65.5748 54.0791 65.5848 54.0666 65.585C52.4436 65.6168 50.8206 65.6306 49.1976 65.6541L44.3286 65.6937C42.7056 65.7104 41.0825 65.7063 39.4595 65.7137L34.5905 65.7258L29.7215 65.7152C28.0985 65.7104 26.4755 65.712 24.8525 65.6966L19.9835 65.6604C18.3605 65.6388 16.7375 65.6261 15.1144 65.5964C15.0951 65.5961 15.0797 65.5803 15.0801 65.5611C15.0804 65.5424 15.0957 65.5275 15.1144 65.5271Z" fill="white"/>
<path d="M49.1175 73.7459H21.4626C21.3948 73.7459 21.3398 73.6917 21.3398 73.6246C21.3398 73.5575 21.3948 73.5032 21.4626 73.5032H49.1175C49.1853 73.5032 49.2403 73.5575 49.2403 73.6246C49.2403 73.6917 49.1853 73.7459 49.1175 73.7459Z" fill="white"/>
</g>
<path d="M24.257 21.2929C22.583 22.2485 21.3982 23.7229 20.7873 25.3928C20.5697 25.9878 20.9068 26.642 21.5201 26.8238L21.5207 26.824C22.085 26.9915 22.6883 26.699 22.8884 26.1508C23.3258 24.9528 24.1761 23.895 25.3764 23.2098C26.5768 22.5246 27.9285 22.3255 29.1966 22.55C29.7763 22.6527 30.3347 22.2824 30.4701 21.7155L30.4703 21.715C30.6173 21.0992 30.2132 20.4832 29.5832 20.372C27.8148 20.0598 25.9307 20.3376 24.257 21.2929Z" fill="#246AFF"/>
<path d="M19.8774 13.7882C16.1827 15.8972 13.6149 19.2039 12.383 22.9286C12.1877 23.5193 12.5233 24.1534 13.1254 24.332L13.1299 24.3332C13.7131 24.5063 14.3249 24.1846 14.5144 23.6124C15.5806 20.3903 17.8005 17.5295 20.9968 15.705C24.193 13.8805 27.8089 13.4102 31.1644 14.1084C31.7604 14.2323 32.348 13.8693 32.488 13.2834L32.4892 13.2789C32.6338 12.6741 32.2461 12.0697 31.6312 11.9415C27.7525 11.134 23.5721 11.6792 19.8774 13.7882Z" fill="#246AFF"/>
<path d="M22.0922 17.5822C19.4134 19.1113 17.5433 21.4982 16.627 24.1912C16.4271 24.779 16.7688 25.4135 17.3697 25.5915C17.9426 25.7613 18.5546 25.4575 18.7454 24.897C19.4943 22.6972 21.0234 20.7476 23.2114 19.4987C25.3994 18.2497 27.8717 17.9153 30.1731 18.374C30.7594 18.4909 31.3315 18.1187 31.4692 17.5433C31.6134 16.94 31.2287 16.3297 30.614 16.2072C27.797 15.6454 24.771 16.0531 22.0922 17.5822Z" fill="#246AFF"/>
<path d="M29.2868 26.1732C28.7659 25.2812 27.6121 24.9755 26.7099 25.4906C25.8076 26.0056 25.4985 27.1463 26.0194 28.0383C26.5403 28.9303 27.6941 29.236 28.5963 28.721C29.4986 28.2059 29.8077 27.0653 29.2868 26.1732Z" fill="#246AFF"/>
</svg>
