<svg width="80" height="80" viewBox="0 0 80 80" fill="none" xmlns="http://www.w3.org/2000/svg">
<path d="M72.906 4.19215C72.906 5.39512 72.3058 6.37024 71.6458 6.37024H8.50412C7.8439 6.37024 7.09375 5.39512 7.09375 4.19215V4.04191C7.09375 2.83894 7.8439 2.17505 8.50412 2.17505H71.6458C72.3061 2.17505 72.906 2.83894 72.906 4.04191V4.19215Z" fill="#4D4D4D"/>
<path d="M71.6453 2.17505H53.318L46 6.37024H71.6453C72.3055 6.37024 72.9054 5.39512 72.9054 4.19215V4.04191C72.9054 2.83894 72.3052 2.17505 71.6453 2.17505Z" fill="#333333"/>
<path d="M70.5462 4.27245C70.5462 4.60649 70.3732 4.79684 70.1595 4.79684H9.57815C9.36446 4.79684 9.19141 4.60649 9.19141 4.27245C9.19141 3.9384 9.36446 3.74805 9.57815 3.74805H70.1595C70.3732 3.74805 70.5462 3.9384 70.5462 4.27245Z" fill="black"/>
<path d="M70.4298 4.81396V76.9579H69.7601L68.0727 77.8247L66.2947 76.9579H64.9998L63.3124 77.8247L61.5341 76.9579H60.2398L58.5523 77.8247L56.7741 76.9579H55.3267L53.639 77.8247L51.8611 76.9579H50.5156L48.8279 77.8247L47.0497 76.9579H45.7042L44.0168 77.8247L42.2385 76.9579H40.8931L39.2056 77.8247L37.4274 76.9579H36.0819L34.3942 77.8247L32.6163 76.9579H31.2705L29.5831 77.8247L27.8049 76.9579H26.3575L24.6701 77.8247L22.8918 76.9579H21.5975L19.9098 77.8247L18.1315 76.9579H16.8372L15.1495 77.8247L13.3715 76.9579H12.4612V76.5564L12.373 76.5132L12.4612 76.513V4.81396H70.4298Z" fill="#E5E5E5"/>
<path d="M68.6693 3.93457V75.2093H68.0098L66.3479 76.0657L64.5969 75.2093H63.3216L61.6597 76.0657L59.9084 75.2093H58.6337L56.9718 76.0657L55.2205 75.2093H53.7951L52.1329 76.0657L50.3819 75.2093H49.0568L47.3947 76.0657L45.6434 75.2093H44.3183L42.6564 76.0657L40.9052 75.2093H39.5801L37.9182 76.0657L36.1669 75.2093H34.8419L33.1797 76.0657L31.4287 75.2093H30.1034L28.4415 76.0657L26.6902 75.2093H25.2648L23.6029 76.0657L21.8516 75.2093H20.5768L18.9147 76.0657L17.1634 75.2093H15.8887L14.2265 76.0657L12.4755 75.2093H11.579V74.8127L11.4922 74.77L11.579 74.7698V3.93457H68.6693Z" fill="#F7F7F7"/>
<path opacity="0.3" d="M69.0019 55.8501H11.5801V72.3687H69.0019V55.8501Z" fill="#ADC7FF"/>
<path d="M55.1973 20.0061V19.3066H60.0806V20.0061H58.0331V25.8177H57.2447V20.0061H55.1973Z" fill="#808080"/>
<path d="M49.8711 25.8177V19.3066H52.0711C52.5819 19.3066 52.9995 19.3988 53.3237 19.5832C53.6501 19.7655 53.8918 20.0124 54.0486 20.324C54.2054 20.6356 54.2839 20.9832 54.2839 21.3668C54.2839 21.7504 54.2054 22.0991 54.0486 22.4127C53.8939 22.7264 53.6544 22.9765 53.3301 23.163C53.0058 23.3474 52.5904 23.4396 52.0838 23.4396H50.5069V22.7402H52.0584C52.4081 22.7402 52.689 22.6798 52.9009 22.559C53.1128 22.4382 53.2665 22.275 53.3619 22.0694C53.4594 21.8617 53.5081 21.6275 53.5081 21.3668C53.5081 21.1061 53.4594 20.8729 53.3619 20.6673C53.2665 20.4618 53.1118 20.3007 52.8977 20.1841C52.6837 20.0654 52.3996 20.0061 52.0457 20.0061H50.6595V25.8177H49.8711Z" fill="#808080"/>
<path d="M48.2885 19.3066V25.8177H47.5V19.3066H48.2885Z" fill="#808080"/>
<path d="M42.1504 25.8177V19.3066H46.0799V20.0061H42.9388V22.2061H45.8765V22.9055H42.9388V25.1183H46.1308V25.8177H42.1504Z" fill="#808080"/>
<path d="M40.8746 21.341H40.0861C40.0395 21.1142 39.9579 20.915 39.8413 20.7433C39.7269 20.5716 39.587 20.4275 39.4217 20.3109C39.2585 20.1922 39.0772 20.1032 38.878 20.0439C38.6788 19.9845 38.4711 19.9549 38.2549 19.9549C37.8607 19.9549 37.5035 20.0545 37.1835 20.2537C36.8656 20.4529 36.6123 20.7465 36.4236 21.1344C36.2371 21.5222 36.1439 21.998 36.1439 22.5618C36.1439 23.1256 36.2371 23.6014 36.4236 23.9893C36.6123 24.3772 36.8656 24.6707 37.1835 24.8699C37.5035 25.0692 37.8607 25.1688 38.2549 25.1688C38.4711 25.1688 38.6788 25.1391 38.878 25.0798C39.0772 25.0204 39.2585 24.9325 39.4217 24.8159C39.587 24.6972 39.7269 24.552 39.8413 24.3803C39.9579 24.2065 40.0395 24.0073 40.0861 23.7826H40.8746C40.8152 24.1154 40.7071 24.4132 40.5503 24.676C40.3934 24.9388 40.1985 25.1624 39.9653 25.3468C39.7322 25.5291 39.4704 25.6679 39.18 25.7633C38.8918 25.8587 38.5834 25.9064 38.2549 25.9064C37.6996 25.9064 37.2057 25.7707 36.7734 25.4994C36.341 25.2281 36.0008 24.8424 35.7528 24.3422C35.5048 23.842 35.3809 23.2485 35.3809 22.5618C35.3809 21.8751 35.5048 21.2817 35.7528 20.7815C36.0008 20.2813 36.341 19.8955 36.7734 19.6242C37.2057 19.3529 37.6996 19.2173 38.2549 19.2173C38.5834 19.2173 38.8918 19.265 39.18 19.3604C39.4704 19.4557 39.7322 19.5956 39.9653 19.78C40.1985 19.9623 40.3934 20.1848 40.5503 20.4476C40.7071 20.7083 40.8152 21.0061 40.8746 21.341Z" fill="#808080"/>
<path d="M30.2852 25.8177V19.3066H34.2147V20.0061H31.0736V22.2061H34.0112V22.9055H31.0736V25.1183H34.2656V25.8177H30.2852Z" fill="#808080"/>
<path d="M24.5586 25.8177V19.3066H26.7586C27.2673 19.3066 27.6848 19.3935 28.0112 19.5673C28.3376 19.739 28.5793 19.9753 28.7361 20.2763C28.8929 20.5773 28.9714 20.9196 28.9714 21.3032C28.9714 21.6868 28.8929 22.027 28.7361 22.3237C28.5793 22.6205 28.3387 22.8536 28.0144 23.0232C27.6901 23.1906 27.2758 23.2743 26.7713 23.2743H24.991V22.5622H26.7459C27.0935 22.5622 27.3733 22.5113 27.5852 22.4096C27.7993 22.3078 27.954 22.1637 28.0494 21.9772C28.1469 21.7886 28.1956 21.5639 28.1956 21.3032C28.1956 21.0425 28.1469 20.8147 28.0494 20.6197C27.9519 20.4247 27.7961 20.2742 27.582 20.1682C27.368 20.0601 27.085 20.0061 26.7332 20.0061H25.347V25.8177H24.5586ZM27.6234 22.8928L29.2257 25.8177H28.3101L26.7332 22.8928H27.6234Z" fill="#808080"/>
<path d="M59.5181 65.6847L59.1455 66.4926H53.9883L54.2824 65.6847H59.5181ZM58.8161 67.277L58.4357 68.0928H53.9883L54.2824 67.277H58.8161ZM60.475 63.5552L60.0123 64.5474C59.8659 64.4219 59.7064 64.3082 59.5338 64.2062C59.3612 64.1042 59.1756 64.0232 58.9769 63.963C58.7782 63.9003 58.5651 63.8689 58.3376 63.8689C57.9193 63.8689 57.5467 63.9813 57.2199 64.2062C56.8931 64.4311 56.6355 64.7683 56.4473 65.218C56.2617 65.6651 56.1688 66.222 56.1688 66.8887C56.1688 67.5555 56.2617 68.1124 56.4473 68.5595C56.6355 69.0065 56.8931 69.3425 57.2199 69.5674C57.5467 69.7896 57.9193 69.9007 58.3376 69.9007C58.5677 69.9007 58.7821 69.8707 58.9808 69.8105C59.1821 69.7504 59.3652 69.672 59.5299 69.5752C59.6972 69.4759 59.8475 69.3713 59.9809 69.2615L60.4554 70.2498C60.1783 70.5008 59.8567 70.6903 59.4907 70.8184C59.1246 70.9466 58.7403 71.0106 58.3376 71.0106C57.6814 71.0106 57.0996 70.8446 56.5924 70.5125C56.0878 70.1805 55.6917 69.7073 55.4041 69.0928C55.1165 68.4758 54.9727 67.7411 54.9727 66.8887C54.9727 66.0338 55.1165 65.2978 55.4041 64.6807C55.6917 64.0637 56.0878 63.5892 56.5924 63.2571C57.0996 62.9251 57.6814 62.759 58.3376 62.759C58.756 62.759 59.1455 62.8283 59.5063 62.9669C59.8672 63.1028 60.1901 63.2989 60.475 63.5552Z" fill="#0F429F"/>
<path d="M47.1361 71.0106C46.5452 71.0106 46.0419 70.8498 45.6262 70.5282C45.2105 70.204 44.8928 69.7347 44.6732 69.1203C44.4536 68.5032 44.3438 67.7581 44.3438 66.8848C44.3438 66.0168 44.4536 65.2756 44.6732 64.6611C44.8954 64.0441 45.2144 63.5735 45.6301 63.2493C46.0485 62.9224 46.5505 62.759 47.1361 62.759C47.7218 62.759 48.2225 62.9224 48.6382 63.2493C49.0565 63.5735 49.3755 64.0441 49.5951 64.6611C49.8174 65.2756 49.9285 66.0168 49.9285 66.8848C49.9285 67.7581 49.8187 68.5032 49.599 69.1203C49.3794 69.7347 49.0618 70.204 48.646 70.5282C48.2303 70.8498 47.727 71.0106 47.1361 71.0106ZM47.1361 70.1478C47.7218 70.1478 48.1767 69.8654 48.5009 69.3007C48.8251 68.7359 48.9872 67.9307 48.9872 66.8848C48.9872 66.1893 48.9127 65.5971 48.7637 65.1082C48.6173 64.6193 48.4055 64.2467 48.1283 63.9905C47.8538 63.7343 47.5231 63.6062 47.1361 63.6062C46.5557 63.6062 46.1021 63.8924 45.7752 64.465C45.4484 65.035 45.285 65.8416 45.285 66.8848C45.285 67.5803 45.3582 68.1712 45.5046 68.6575C45.651 69.1438 45.8615 69.5138 46.136 69.7674C46.4132 70.021 46.7465 70.1478 47.1361 70.1478Z" fill="#0F429F"/>
<path d="M37.2441 69.2537V68.4536L40.7738 62.8689H41.3543V64.1082H40.9621L38.2952 68.3281V68.3909H43.0485V69.2537H37.2441ZM41.0248 70.9009V69.0105V68.6379V62.8689H41.9504V70.9009H41.0248Z" fill="#0F429F"/>
<path d="M54.6719 60.4759V56.8813H55.1072V60.0897H56.778V60.4759H54.6719Z" fill="#B3B3B3"/>
<path d="M51.4798 60.4759H51.0234L52.3433 56.8813H52.7926L54.1125 60.4759H53.6561L52.582 57.45H52.5539L51.4798 60.4759ZM51.6483 59.0718H53.4877V59.4579H51.6483V59.0718Z" fill="#B3B3B3"/>
<path d="M48.3828 57.2675V56.8813H51.0787V57.2675H49.9484V60.4759H49.5131V57.2675H48.3828Z" fill="#B3B3B3"/>
<path d="M48.0014 58.6779C48.0014 59.0571 47.933 59.3847 47.7961 59.6608C47.6592 59.937 47.4714 60.1499 47.2327 60.2997C46.994 60.4495 46.7213 60.5243 46.4148 60.5243C46.1082 60.5243 45.8356 60.4495 45.5969 60.2997C45.3582 60.1499 45.1704 59.937 45.0335 59.6608C44.8966 59.3847 44.8281 59.0571 44.8281 58.6779C44.8281 58.2988 44.8966 57.9712 45.0335 57.6951C45.1704 57.4189 45.3582 57.206 45.5969 57.0562C45.8356 56.9064 46.1082 56.8315 46.4148 56.8315C46.7213 56.8315 46.994 56.9064 47.2327 57.0562C47.4714 57.206 47.6592 57.4189 47.7961 57.6951C47.933 57.9712 48.0014 58.2988 48.0014 58.6779ZM47.5802 58.6779C47.5802 58.3667 47.5281 58.104 47.424 57.8899C47.321 57.6758 47.1812 57.5137 47.0045 57.4037C46.829 57.2937 46.6324 57.2387 46.4148 57.2387C46.1971 57.2387 46 57.2937 45.8233 57.4037C45.6478 57.5137 45.5079 57.6758 45.4038 57.8899C45.3008 58.104 45.2494 58.3667 45.2494 58.6779C45.2494 58.9892 45.3008 59.2519 45.4038 59.466C45.5079 59.6801 45.6478 59.8422 45.8233 59.9522C46 60.0622 46.1971 60.1172 46.4148 60.1172C46.6324 60.1172 46.829 60.0622 47.0045 59.9522C47.1812 59.8422 47.321 59.6801 47.424 59.466C47.5281 59.2519 47.5802 58.9892 47.5802 58.6779Z" fill="#B3B3B3"/>
<path d="M41.748 57.2675V56.8813H44.4439V57.2675H43.3136V60.4759H42.8784V57.2675H41.748Z" fill="#B3B3B3"/>
<path d="M53.2381 11.7449H26.7559V12.7937H53.2381V11.7449Z" fill="#B3B3B3"/>
<path d="M54.8098 13.9729H25.4434V15.0217H54.8098V13.9729Z" fill="#B3B3B3"/>
<path d="M56.382 9.51562H23.8691V10.5644H56.382V9.51562Z" fill="#B3B3B3"/>
<path d="M62.2809 33.39C62.235 33.39 62.1956 33.3736 62.1626 33.3406C62.1297 33.3077 62.1133 33.2683 62.1133 33.2223C62.1133 33.1764 62.1297 33.137 62.1626 33.1041C62.1956 33.0711 62.235 33.0547 62.2809 33.0547C62.3269 33.0547 62.3663 33.0711 62.3992 33.1041C62.4321 33.137 62.4486 33.1764 62.4486 33.2223C62.4486 33.2528 62.4408 33.2807 62.4253 33.3062C62.4104 33.3316 62.3902 33.3521 62.3648 33.3677C62.3399 33.3826 62.312 33.39 62.2809 33.39Z" fill="#808080"/>
<path d="M61.5583 33.39C61.5123 33.39 61.4729 33.3736 61.44 33.3406C61.4071 33.3077 61.3906 33.2683 61.3906 33.2223C61.3906 33.1764 61.4071 33.137 61.44 33.1041C61.4729 33.0711 61.5123 33.0547 61.5583 33.0547C61.6042 33.0547 61.6437 33.0711 61.6766 33.1041C61.7095 33.137 61.7259 33.1764 61.7259 33.2223C61.7259 33.2528 61.7182 33.2807 61.7027 33.3062C61.6878 33.3316 61.6676 33.3521 61.6421 33.3677C61.6173 33.3826 61.5893 33.39 61.5583 33.39Z" fill="#808080"/>
<path d="M60.8356 33.39C60.7897 33.39 60.7502 33.3736 60.7173 33.3406C60.6844 33.3077 60.668 33.2683 60.668 33.2223C60.668 33.1764 60.6844 33.137 60.7173 33.1041C60.7502 33.0711 60.7897 33.0547 60.8356 33.0547C60.8816 33.0547 60.921 33.0711 60.9539 33.1041C60.9868 33.137 61.0033 33.1764 61.0033 33.2223C61.0033 33.2528 60.9955 33.2807 60.98 33.3062C60.9651 33.3316 60.9449 33.3521 60.9195 33.3677C60.8946 33.3826 60.8667 33.39 60.8356 33.39Z" fill="#808080"/>
<path d="M60.1149 33.39C60.069 33.39 60.0295 33.3736 59.9966 33.3406C59.9637 33.3077 59.9473 33.2683 59.9473 33.2223C59.9473 33.1764 59.9637 33.137 59.9966 33.1041C60.0295 33.0711 60.069 33.0547 60.1149 33.0547C60.1609 33.0547 60.2003 33.0711 60.2332 33.1041C60.2661 33.137 60.2826 33.1764 60.2826 33.2223C60.2826 33.2528 60.2748 33.2807 60.2593 33.3062C60.2444 33.3316 60.2242 33.3521 60.1988 33.3677C60.1739 33.3826 60.146 33.39 60.1149 33.39Z" fill="#808080"/>
<path d="M59.3923 33.39C59.3463 33.39 59.3069 33.3736 59.274 33.3406C59.2411 33.3077 59.2246 33.2683 59.2246 33.2223C59.2246 33.1764 59.2411 33.137 59.274 33.1041C59.3069 33.0711 59.3463 33.0547 59.3923 33.0547C59.4382 33.0547 59.4777 33.0711 59.5106 33.1041C59.5435 33.137 59.5599 33.1764 59.5599 33.2223C59.5599 33.2528 59.5522 33.2807 59.5366 33.3062C59.5217 33.3316 59.5016 33.3521 59.4761 33.3677C59.4513 33.3826 59.4233 33.39 59.3923 33.39Z" fill="#808080"/>
<path d="M58.6716 33.39C58.6256 33.39 58.5862 33.3736 58.5533 33.3406C58.5204 33.3077 58.5039 33.2683 58.5039 33.2223C58.5039 33.1764 58.5204 33.137 58.5533 33.1041C58.5862 33.0711 58.6256 33.0547 58.6716 33.0547C58.7175 33.0547 58.757 33.0711 58.7899 33.1041C58.8228 33.137 58.8392 33.1764 58.8392 33.2223C58.8392 33.2528 58.8315 33.2807 58.8159 33.3062C58.801 33.3316 58.7809 33.3521 58.7554 33.3677C58.7306 33.3826 58.7026 33.39 58.6716 33.39Z" fill="#808080"/>
<path d="M57.9489 33.39C57.903 33.39 57.8635 33.3736 57.8306 33.3406C57.7977 33.3077 57.7812 33.2683 57.7812 33.2223C57.7812 33.1764 57.7977 33.137 57.8306 33.1041C57.8635 33.0711 57.903 33.0547 57.9489 33.0547C57.9949 33.0547 58.0343 33.0711 58.0672 33.1041C58.1001 33.137 58.1166 33.1764 58.1166 33.2223C58.1166 33.2528 58.1088 33.2807 58.0933 33.3062C58.0784 33.3316 58.0582 33.3521 58.0327 33.3677C58.0079 33.3826 57.98 33.39 57.9489 33.39Z" fill="#808080"/>
<path d="M57.2263 33.39C57.1803 33.39 57.1409 33.3736 57.108 33.3406C57.075 33.3077 57.0586 33.2683 57.0586 33.2223C57.0586 33.1764 57.075 33.137 57.108 33.1041C57.1409 33.0711 57.1803 33.0547 57.2263 33.0547C57.2722 33.0547 57.3116 33.0711 57.3446 33.1041C57.3775 33.137 57.3939 33.1764 57.3939 33.2223C57.3939 33.2528 57.3862 33.2807 57.3706 33.3062C57.3557 33.3316 57.3355 33.3521 57.3101 33.3677C57.2852 33.3826 57.2573 33.39 57.2263 33.39Z" fill="#808080"/>
<path d="M56.5056 33.39C56.4596 33.39 56.4202 33.3736 56.3873 33.3406C56.3543 33.3077 56.3379 33.2683 56.3379 33.2223C56.3379 33.1764 56.3543 33.137 56.3873 33.1041C56.4202 33.0711 56.4596 33.0547 56.5056 33.0547C56.5515 33.0547 56.5909 33.0711 56.6238 33.1041C56.6568 33.137 56.6732 33.1764 56.6732 33.2223C56.6732 33.2528 56.6655 33.2807 56.6499 33.3062C56.635 33.3316 56.6148 33.3521 56.5894 33.3677C56.5645 33.3826 56.5366 33.39 56.5056 33.39Z" fill="#808080"/>
<path d="M55.7848 33.39C55.7389 33.39 55.6995 33.3736 55.6666 33.3406C55.6336 33.3077 55.6172 33.2683 55.6172 33.2223C55.6172 33.1764 55.6336 33.137 55.6666 33.1041C55.6995 33.0711 55.7389 33.0547 55.7848 33.0547C55.8308 33.0547 55.8702 33.0711 55.9031 33.1041C55.9361 33.137 55.9525 33.1764 55.9525 33.2223C55.9525 33.2528 55.9447 33.2807 55.9292 33.3062C55.9143 33.3316 55.8941 33.3521 55.8687 33.3677C55.8438 33.3826 55.8159 33.39 55.7848 33.39Z" fill="#808080"/>
<path d="M55.0622 33.39C55.0162 33.39 54.9768 33.3736 54.9439 33.3406C54.911 33.3077 54.8945 33.2683 54.8945 33.2223C54.8945 33.1764 54.911 33.137 54.9439 33.1041C54.9768 33.0711 55.0162 33.0547 55.0622 33.0547C55.1081 33.0547 55.1476 33.0711 55.1805 33.1041C55.2134 33.137 55.2299 33.1764 55.2299 33.2223C55.2299 33.2528 55.2221 33.2807 55.2066 33.3062C55.1917 33.3316 55.1715 33.3521 55.146 33.3677C55.1212 33.3826 55.0932 33.39 55.0622 33.39Z" fill="#808080"/>
<path d="M54.3376 33.39C54.2916 33.39 54.2522 33.3736 54.2193 33.3406C54.1864 33.3077 54.1699 33.2683 54.1699 33.2223C54.1699 33.1764 54.1864 33.137 54.2193 33.1041C54.2522 33.0711 54.2916 33.0547 54.3376 33.0547C54.3835 33.0547 54.423 33.0711 54.4559 33.1041C54.4888 33.137 54.5052 33.1764 54.5052 33.2223C54.5052 33.2528 54.4975 33.2807 54.482 33.3062C54.4671 33.3316 54.4469 33.3521 54.4214 33.3677C54.3966 33.3826 54.3686 33.39 54.3376 33.39Z" fill="#808080"/>
<path d="M53.6169 33.39C53.5709 33.39 53.5315 33.3736 53.4986 33.3406C53.4657 33.3077 53.4492 33.2683 53.4492 33.2223C53.4492 33.1764 53.4657 33.137 53.4986 33.1041C53.5315 33.0711 53.5709 33.0547 53.6169 33.0547C53.6628 33.0547 53.7023 33.0711 53.7352 33.1041C53.7681 33.137 53.7845 33.1764 53.7845 33.2223C53.7845 33.2528 53.7768 33.2807 53.7613 33.3062C53.7464 33.3316 53.7262 33.3521 53.7007 33.3677C53.6759 33.3826 53.6479 33.39 53.6169 33.39Z" fill="#808080"/>
<path d="M52.8942 33.39C52.8483 33.39 52.8088 33.3736 52.7759 33.3406C52.743 33.3077 52.7266 33.2683 52.7266 33.2223C52.7266 33.1764 52.743 33.137 52.7759 33.1041C52.8088 33.0711 52.8483 33.0547 52.8942 33.0547C52.9402 33.0547 52.9796 33.0711 53.0125 33.1041C53.0454 33.137 53.0619 33.1764 53.0619 33.2223C53.0619 33.2528 53.0541 33.2807 53.0386 33.3062C53.0237 33.3316 53.0035 33.3521 52.9781 33.3677C52.9532 33.3826 52.9253 33.39 52.8942 33.39Z" fill="#808080"/>
<path d="M52.1716 33.39C52.1256 33.39 52.0862 33.3736 52.0533 33.3406C52.0204 33.3077 52.0039 33.2683 52.0039 33.2223C52.0039 33.1764 52.0204 33.137 52.0533 33.1041C52.0862 33.0711 52.1256 33.0547 52.1716 33.0547C52.2175 33.0547 52.257 33.0711 52.2899 33.1041C52.3228 33.137 52.3392 33.1764 52.3392 33.2223C52.3392 33.2528 52.3315 33.2807 52.3159 33.3062C52.301 33.3316 52.2809 33.3521 52.2554 33.3677C52.2306 33.3826 52.2026 33.39 52.1716 33.39Z" fill="#808080"/>
<path d="M51.4509 33.39C51.4049 33.39 51.3655 33.3736 51.3326 33.3406C51.2997 33.3077 51.2832 33.2683 51.2832 33.2223C51.2832 33.1764 51.2997 33.137 51.3326 33.1041C51.3655 33.0711 51.4049 33.0547 51.4509 33.0547C51.4968 33.0547 51.5362 33.0711 51.5692 33.1041C51.6021 33.137 51.6185 33.1764 51.6185 33.2223C51.6185 33.2528 51.6108 33.2807 51.5952 33.3062C51.5803 33.3316 51.5602 33.3521 51.5347 33.3677C51.5099 33.3826 51.4819 33.39 51.4509 33.39Z" fill="#808080"/>
<path d="M50.7282 33.39C50.6823 33.39 50.6428 33.3736 50.6099 33.3406C50.577 33.3077 50.5605 33.2683 50.5605 33.2223C50.5605 33.1764 50.577 33.137 50.6099 33.1041C50.6428 33.0711 50.6823 33.0547 50.7282 33.0547C50.7742 33.0547 50.8136 33.0711 50.8465 33.1041C50.8794 33.137 50.8959 33.1764 50.8959 33.2223C50.8959 33.2528 50.8881 33.2807 50.8726 33.3062C50.8577 33.3316 50.8375 33.3521 50.812 33.3677C50.7872 33.3826 50.7593 33.39 50.7282 33.39Z" fill="#808080"/>
<path d="M50.0036 33.39C49.9576 33.39 49.9182 33.3736 49.8853 33.3406C49.8524 33.3077 49.8359 33.2683 49.8359 33.2223C49.8359 33.1764 49.8524 33.137 49.8853 33.1041C49.9182 33.0711 49.9576 33.0547 50.0036 33.0547C50.0496 33.0547 50.089 33.0711 50.1219 33.1041C50.1548 33.137 50.1713 33.1764 50.1713 33.2223C50.1713 33.2528 50.1635 33.2807 50.148 33.3062C50.1331 33.3316 50.1129 33.3521 50.0874 33.3677C50.0626 33.3826 50.0346 33.39 50.0036 33.39Z" fill="#808080"/>
<path d="M49.2849 33.39C49.2389 33.39 49.1995 33.3736 49.1666 33.3406C49.1336 33.3077 49.1172 33.2683 49.1172 33.2223C49.1172 33.1764 49.1336 33.137 49.1666 33.1041C49.1995 33.0711 49.2389 33.0547 49.2849 33.0547C49.3308 33.0547 49.3702 33.0711 49.4031 33.1041C49.4361 33.137 49.4525 33.1764 49.4525 33.2223C49.4525 33.2528 49.4448 33.2807 49.4292 33.3062C49.4143 33.3316 49.3941 33.3521 49.3687 33.3677C49.3438 33.3826 49.3159 33.39 49.2849 33.39Z" fill="#808080"/>
<path d="M48.5602 33.39C48.5143 33.39 48.4749 33.3736 48.4419 33.3406C48.409 33.3077 48.3926 33.2683 48.3926 33.2223C48.3926 33.1764 48.409 33.137 48.4419 33.1041C48.4749 33.0711 48.5143 33.0547 48.5602 33.0547C48.6062 33.0547 48.6456 33.0711 48.6785 33.1041C48.7114 33.137 48.7279 33.1764 48.7279 33.2223C48.7279 33.2528 48.7201 33.2807 48.7046 33.3062C48.6897 33.3316 48.6695 33.3521 48.6441 33.3677C48.6192 33.3826 48.5913 33.39 48.5602 33.39Z" fill="#808080"/>
<path d="M47.8415 33.39C47.7955 33.39 47.7561 33.3736 47.7232 33.3406C47.6903 33.3077 47.6738 33.2683 47.6738 33.2223C47.6738 33.1764 47.6903 33.137 47.7232 33.1041C47.7561 33.0711 47.7955 33.0547 47.8415 33.0547C47.8874 33.0547 47.9269 33.0711 47.9598 33.1041C47.9927 33.137 48.0092 33.1764 48.0092 33.2223C48.0092 33.2528 48.0014 33.2807 47.9859 33.3062C47.971 33.3316 47.9508 33.3521 47.9253 33.3677C47.9005 33.3826 47.8725 33.39 47.8415 33.39Z" fill="#808080"/>
<path d="M47.1149 33.39C47.069 33.39 47.0295 33.3736 46.9966 33.3406C46.9637 33.3077 46.9473 33.2683 46.9473 33.2223C46.9473 33.1764 46.9637 33.137 46.9966 33.1041C47.0295 33.0711 47.069 33.0547 47.1149 33.0547C47.1609 33.0547 47.2003 33.0711 47.2332 33.1041C47.2661 33.137 47.2826 33.1764 47.2826 33.2223C47.2826 33.2528 47.2748 33.2807 47.2593 33.3062C47.2444 33.3316 47.2242 33.3521 47.1988 33.3677C47.1739 33.3826 47.146 33.39 47.1149 33.39Z" fill="#808080"/>
<path d="M46.3923 33.39C46.3463 33.39 46.3069 33.3736 46.274 33.3406C46.2411 33.3077 46.2246 33.2683 46.2246 33.2223C46.2246 33.1764 46.2411 33.137 46.274 33.1041C46.3069 33.0711 46.3463 33.0547 46.3923 33.0547C46.4382 33.0547 46.4777 33.0711 46.5106 33.1041C46.5435 33.137 46.5599 33.1764 46.5599 33.2223C46.5599 33.2528 46.5522 33.2807 46.5366 33.3062C46.5217 33.3316 46.5016 33.3521 46.4761 33.3677C46.4513 33.3826 46.4233 33.39 46.3923 33.39Z" fill="#808080"/>
<path d="M45.6716 33.39C45.6256 33.39 45.5862 33.3736 45.5533 33.3406C45.5204 33.3077 45.5039 33.2683 45.5039 33.2223C45.5039 33.1764 45.5204 33.137 45.5533 33.1041C45.5862 33.0711 45.6256 33.0547 45.6716 33.0547C45.7175 33.0547 45.757 33.0711 45.7899 33.1041C45.8228 33.137 45.8392 33.1764 45.8392 33.2223C45.8392 33.2528 45.8315 33.2807 45.8159 33.3062C45.801 33.3316 45.7809 33.3521 45.7554 33.3677C45.7306 33.3826 45.7026 33.39 45.6716 33.39Z" fill="#808080"/>
<path d="M44.9489 33.39C44.903 33.39 44.8635 33.3736 44.8306 33.3406C44.7977 33.3077 44.7812 33.2683 44.7812 33.2223C44.7812 33.1764 44.7977 33.137 44.8306 33.1041C44.8635 33.0711 44.903 33.0547 44.9489 33.0547C44.9949 33.0547 45.0343 33.0711 45.0672 33.1041C45.1001 33.137 45.1166 33.1764 45.1166 33.2223C45.1166 33.2528 45.1088 33.2807 45.0933 33.3062C45.0784 33.3316 45.0582 33.3521 45.0327 33.3677C45.0079 33.3826 44.98 33.39 44.9489 33.39Z" fill="#808080"/>
<path d="M44.2282 33.39C44.1823 33.39 44.1428 33.3736 44.1099 33.3406C44.077 33.3077 44.0605 33.2683 44.0605 33.2223C44.0605 33.1764 44.077 33.137 44.1099 33.1041C44.1428 33.0711 44.1823 33.0547 44.2282 33.0547C44.2742 33.0547 44.3136 33.0711 44.3465 33.1041C44.3794 33.137 44.3959 33.1764 44.3959 33.2223C44.3959 33.2528 44.3881 33.2807 44.3726 33.3062C44.3577 33.3316 44.3375 33.3521 44.312 33.3677C44.2872 33.3826 44.2593 33.39 44.2282 33.39Z" fill="#808080"/>
<path d="M43.5036 33.39C43.4576 33.39 43.4182 33.3736 43.3853 33.3406C43.3524 33.3077 43.3359 33.2683 43.3359 33.2223C43.3359 33.1764 43.3524 33.137 43.3853 33.1041C43.4182 33.0711 43.4576 33.0547 43.5036 33.0547C43.5496 33.0547 43.589 33.0711 43.6219 33.1041C43.6548 33.137 43.6713 33.1764 43.6713 33.2223C43.6713 33.2528 43.6635 33.2807 43.648 33.3062C43.6331 33.3316 43.6129 33.3521 43.5874 33.3677C43.5626 33.3826 43.5346 33.39 43.5036 33.39Z" fill="#808080"/>
<path d="M42.7829 33.39C42.7369 33.39 42.6975 33.3736 42.6646 33.3406C42.6317 33.3077 42.6152 33.2683 42.6152 33.2223C42.6152 33.1764 42.6317 33.137 42.6646 33.1041C42.6975 33.0711 42.7369 33.0547 42.7829 33.0547C42.8288 33.0547 42.8683 33.0711 42.9012 33.1041C42.9341 33.137 42.9506 33.1764 42.9506 33.2223C42.9506 33.2528 42.9428 33.2807 42.9273 33.3062C42.9124 33.3316 42.8922 33.3521 42.8667 33.3677C42.8419 33.3826 42.8139 33.39 42.7829 33.39Z" fill="#808080"/>
<path d="M42.0641 33.39C42.0182 33.39 41.9788 33.3736 41.9459 33.3406C41.9129 33.3077 41.8965 33.2683 41.8965 33.2223C41.8965 33.1764 41.9129 33.137 41.9459 33.1041C41.9788 33.0711 42.0182 33.0547 42.0641 33.0547C42.1101 33.0547 42.1495 33.0711 42.1824 33.1041C42.2154 33.137 42.2318 33.1764 42.2318 33.2223C42.2318 33.2528 42.224 33.2807 42.2085 33.3062C42.1936 33.3316 42.1734 33.3521 42.148 33.3677C42.1231 33.3826 42.0952 33.39 42.0641 33.39Z" fill="#808080"/>
<path d="M41.3395 33.39C41.2936 33.39 41.2542 33.3736 41.2212 33.3406C41.1883 33.3077 41.1719 33.2683 41.1719 33.2223C41.1719 33.1764 41.1883 33.137 41.2212 33.1041C41.2542 33.0711 41.2936 33.0547 41.3395 33.0547C41.3855 33.0547 41.4249 33.0711 41.4578 33.1041C41.4907 33.137 41.5072 33.1764 41.5072 33.2223C41.5072 33.2528 41.4994 33.2807 41.4839 33.3062C41.469 33.3316 41.4488 33.3521 41.4234 33.3677C41.3985 33.3826 41.3706 33.39 41.3395 33.39Z" fill="#808080"/>
<path d="M40.6227 33.39C40.5768 33.39 40.5374 33.3736 40.5044 33.3406C40.4715 33.3077 40.4551 33.2683 40.4551 33.2223C40.4551 33.1764 40.4715 33.137 40.5044 33.1041C40.5374 33.0711 40.5768 33.0547 40.6227 33.0547C40.6687 33.0547 40.7081 33.0711 40.741 33.1041C40.7739 33.137 40.7904 33.1764 40.7904 33.2223C40.7904 33.2528 40.7826 33.2807 40.7671 33.3062C40.7522 33.3316 40.732 33.3521 40.7066 33.3677C40.6817 33.3826 40.6538 33.39 40.6227 33.39Z" fill="#808080"/>
<path d="M39.8942 33.39C39.8483 33.39 39.8088 33.3736 39.7759 33.3406C39.743 33.3077 39.7266 33.2683 39.7266 33.2223C39.7266 33.1764 39.743 33.137 39.7759 33.1041C39.8088 33.0711 39.8483 33.0547 39.8942 33.0547C39.9402 33.0547 39.9796 33.0711 40.0125 33.1041C40.0454 33.137 40.0619 33.1764 40.0619 33.2223C40.0619 33.2528 40.0541 33.2807 40.0386 33.3062C40.0237 33.3316 40.0035 33.3521 39.9781 33.3677C39.9532 33.3826 39.9253 33.39 39.8942 33.39Z" fill="#808080"/>
<path d="M39.1735 33.39C39.1276 33.39 39.0881 33.3736 39.0552 33.3406C39.0223 33.3077 39.0059 33.2683 39.0059 33.2223C39.0059 33.1764 39.0223 33.137 39.0552 33.1041C39.0881 33.0711 39.1276 33.0547 39.1735 33.0547C39.2195 33.0547 39.2589 33.0711 39.2918 33.1041C39.3247 33.137 39.3412 33.1764 39.3412 33.2223C39.3412 33.2528 39.3334 33.2807 39.3179 33.3062C39.303 33.3316 39.2828 33.3521 39.2574 33.3677C39.2325 33.3826 39.2046 33.39 39.1735 33.39Z" fill="#808080"/>
<path d="M62.154 38.3722C62.108 38.3722 62.0686 38.3557 62.0357 38.3228C62.0028 38.2899 61.9863 38.2505 61.9863 38.2045C61.9863 38.1586 62.0028 38.1191 62.0357 38.0862C62.0686 38.0533 62.108 38.0369 62.154 38.0369C62.1999 38.0369 62.2394 38.0533 62.2723 38.0862C62.3052 38.1191 62.3217 38.1586 62.3217 38.2045C62.3217 38.235 62.3139 38.2629 62.2984 38.2884C62.2835 38.3138 62.2633 38.3343 62.2378 38.3498C62.213 38.3647 62.185 38.3722 62.154 38.3722Z" fill="#808080"/>
<path d="M61.4352 38.3722C61.3893 38.3722 61.3499 38.3557 61.3169 38.3228C61.284 38.2899 61.2676 38.2505 61.2676 38.2045C61.2676 38.1586 61.284 38.1191 61.3169 38.0862C61.3499 38.0533 61.3893 38.0369 61.4352 38.0369C61.4812 38.0369 61.5206 38.0533 61.5535 38.0862C61.5864 38.1191 61.6029 38.1586 61.6029 38.2045C61.6029 38.235 61.5951 38.2629 61.5796 38.2884C61.5647 38.3138 61.5445 38.3343 61.5191 38.3498C61.4942 38.3647 61.4663 38.3722 61.4352 38.3722Z" fill="#808080"/>
<path d="M60.7126 38.3722C60.6666 38.3722 60.6272 38.3557 60.5943 38.3228C60.5614 38.2899 60.5449 38.2505 60.5449 38.2045C60.5449 38.1586 60.5614 38.1191 60.5943 38.0862C60.6272 38.0533 60.6666 38.0369 60.7126 38.0369C60.7585 38.0369 60.798 38.0533 60.8309 38.0862C60.8638 38.1191 60.8802 38.1586 60.8802 38.2045C60.8802 38.235 60.8725 38.2629 60.857 38.2884C60.8421 38.3138 60.8219 38.3343 60.7964 38.3498C60.7716 38.3647 60.7436 38.3722 60.7126 38.3722Z" fill="#808080"/>
<path d="M59.988 38.3722C59.942 38.3722 59.9026 38.3557 59.8697 38.3228C59.8368 38.2899 59.8203 38.2505 59.8203 38.2045C59.8203 38.1586 59.8368 38.1191 59.8697 38.0862C59.9026 38.0533 59.942 38.0369 59.988 38.0369C60.0339 38.0369 60.0734 38.0533 60.1063 38.0862C60.1392 38.1191 60.1556 38.1586 60.1556 38.2045C60.1556 38.235 60.1479 38.2629 60.1324 38.2884C60.1174 38.3138 60.0973 38.3343 60.0718 38.3498C60.047 38.3647 60.019 38.3722 59.988 38.3722Z" fill="#808080"/>
<path d="M59.2692 38.3722C59.2233 38.3722 59.1838 38.3557 59.1509 38.3228C59.118 38.2899 59.1016 38.2505 59.1016 38.2045C59.1016 38.1586 59.118 38.1191 59.1509 38.0862C59.1838 38.0533 59.2233 38.0369 59.2692 38.0369C59.3152 38.0369 59.3546 38.0533 59.3875 38.0862C59.4204 38.1191 59.4369 38.1586 59.4369 38.2045C59.4369 38.235 59.4291 38.2629 59.4136 38.2884C59.3987 38.3138 59.3785 38.3343 59.3531 38.3498C59.3282 38.3647 59.3003 38.3722 59.2692 38.3722Z" fill="#808080"/>
<path d="M58.5466 38.3722C58.5006 38.3722 58.4612 38.3557 58.4283 38.3228C58.3954 38.2899 58.3789 38.2505 58.3789 38.2045C58.3789 38.1586 58.3954 38.1191 58.4283 38.0862C58.4612 38.0533 58.5006 38.0369 58.5466 38.0369C58.5925 38.0369 58.632 38.0533 58.6649 38.0862C58.6978 38.1191 58.7142 38.1586 58.7142 38.2045C58.7142 38.235 58.7065 38.2629 58.6909 38.2884C58.676 38.3138 58.6559 38.3343 58.6304 38.3498C58.6056 38.3647 58.5776 38.3722 58.5466 38.3722Z" fill="#808080"/>
<path d="M57.8239 38.3722C57.778 38.3722 57.7385 38.3557 57.7056 38.3228C57.6727 38.2899 57.6562 38.2505 57.6562 38.2045C57.6562 38.1586 57.6727 38.1191 57.7056 38.0862C57.7385 38.0533 57.778 38.0369 57.8239 38.0369C57.8699 38.0369 57.9093 38.0533 57.9422 38.0862C57.9751 38.1191 57.9916 38.1586 57.9916 38.2045C57.9916 38.235 57.9838 38.2629 57.9683 38.2884C57.9534 38.3138 57.9332 38.3343 57.9077 38.3498C57.8829 38.3647 57.855 38.3722 57.8239 38.3722Z" fill="#808080"/>
<path d="M57.1013 38.3722C57.0553 38.3722 57.0159 38.3557 56.983 38.3228C56.95 38.2899 56.9336 38.2505 56.9336 38.2045C56.9336 38.1586 56.95 38.1191 56.983 38.0862C57.0159 38.0533 57.0553 38.0369 57.1013 38.0369C57.1472 38.0369 57.1866 38.0533 57.2196 38.0862C57.2525 38.1191 57.2689 38.1586 57.2689 38.2045C57.2689 38.235 57.2612 38.2629 57.2456 38.2884C57.2307 38.3138 57.2105 38.3343 57.1851 38.3498C57.1602 38.3647 57.1323 38.3722 57.1013 38.3722Z" fill="#808080"/>
<path d="M56.3786 38.3722C56.3326 38.3722 56.2932 38.3557 56.2603 38.3228C56.2274 38.2899 56.2109 38.2505 56.2109 38.2045C56.2109 38.1586 56.2274 38.1191 56.2603 38.0862C56.2932 38.0533 56.3326 38.0369 56.3786 38.0369C56.4246 38.0369 56.464 38.0533 56.4969 38.0862C56.5298 38.1191 56.5463 38.1586 56.5463 38.2045C56.5463 38.235 56.5385 38.2629 56.523 38.2884C56.5081 38.3138 56.4879 38.3343 56.4624 38.3498C56.4376 38.3647 56.4096 38.3722 56.3786 38.3722Z" fill="#808080"/>
<path d="M55.6579 38.3722C55.6119 38.3722 55.5725 38.3557 55.5396 38.3228C55.5067 38.2899 55.4902 38.2505 55.4902 38.2045C55.4902 38.1586 55.5067 38.1191 55.5396 38.0862C55.5725 38.0533 55.6119 38.0369 55.6579 38.0369C55.7038 38.0369 55.7433 38.0533 55.7762 38.0862C55.8091 38.1191 55.8256 38.1586 55.8256 38.2045C55.8256 38.235 55.8178 38.2629 55.8023 38.2884C55.7874 38.3138 55.7672 38.3343 55.7417 38.3498C55.7169 38.3647 55.6889 38.3722 55.6579 38.3722Z" fill="#808080"/>
<path d="M54.9333 38.3722C54.8873 38.3722 54.8479 38.3557 54.815 38.3228C54.7821 38.2899 54.7656 38.2505 54.7656 38.2045C54.7656 38.1586 54.7821 38.1191 54.815 38.0862C54.8479 38.0533 54.8873 38.0369 54.9333 38.0369C54.9792 38.0369 55.0187 38.0533 55.0516 38.0862C55.0845 38.1191 55.1009 38.1586 55.1009 38.2045C55.1009 38.235 55.0932 38.2629 55.0777 38.2884C55.0628 38.3138 55.0426 38.3343 55.0171 38.3498C54.9923 38.3647 54.9643 38.3722 54.9333 38.3722Z" fill="#808080"/>
<path d="M54.2145 38.3722C54.1686 38.3722 54.1292 38.3557 54.0962 38.3228C54.0633 38.2899 54.0469 38.2505 54.0469 38.2045C54.0469 38.1586 54.0633 38.1191 54.0962 38.0862C54.1292 38.0533 54.1686 38.0369 54.2145 38.0369C54.2605 38.0369 54.2999 38.0533 54.3328 38.0862C54.3657 38.1191 54.3822 38.1586 54.3822 38.2045C54.3822 38.235 54.3744 38.2629 54.3589 38.2884C54.344 38.3138 54.3238 38.3343 54.2984 38.3498C54.2735 38.3647 54.2456 38.3722 54.2145 38.3722Z" fill="#808080"/>
<path d="M53.4919 38.3722C53.4459 38.3722 53.4065 38.3557 53.3736 38.3228C53.3407 38.2899 53.3242 38.2505 53.3242 38.2045C53.3242 38.1586 53.3407 38.1191 53.3736 38.0862C53.4065 38.0533 53.4459 38.0369 53.4919 38.0369C53.5378 38.0369 53.5773 38.0533 53.6102 38.0862C53.6431 38.1191 53.6595 38.1586 53.6595 38.2045C53.6595 38.235 53.6518 38.2629 53.6363 38.2884C53.6214 38.3138 53.6012 38.3343 53.5757 38.3498C53.5509 38.3647 53.5229 38.3722 53.4919 38.3722Z" fill="#808080"/>
<path d="M52.7692 38.3722C52.7233 38.3722 52.6838 38.3557 52.6509 38.3228C52.618 38.2899 52.6016 38.2505 52.6016 38.2045C52.6016 38.1586 52.618 38.1191 52.6509 38.0862C52.6838 38.0533 52.7233 38.0369 52.7692 38.0369C52.8152 38.0369 52.8546 38.0533 52.8875 38.0862C52.9204 38.1191 52.9369 38.1586 52.9369 38.2045C52.9369 38.235 52.9291 38.2629 52.9136 38.2884C52.8987 38.3138 52.8785 38.3343 52.8531 38.3498C52.8282 38.3647 52.8003 38.3722 52.7692 38.3722Z" fill="#808080"/>
<path d="M52.0485 38.3722C52.0026 38.3722 51.9631 38.3557 51.9302 38.3228C51.8973 38.2899 51.8809 38.2505 51.8809 38.2045C51.8809 38.1586 51.8973 38.1191 51.9302 38.0862C51.9631 38.0533 52.0026 38.0369 52.0485 38.0369C52.0945 38.0369 52.1339 38.0533 52.1668 38.0862C52.1997 38.1191 52.2162 38.1586 52.2162 38.2045C52.2162 38.235 52.2084 38.2629 52.1929 38.2884C52.178 38.3138 52.1578 38.3343 52.1324 38.3498C52.1075 38.3647 52.0796 38.3722 52.0485 38.3722Z" fill="#808080"/>
<path d="M51.3259 38.3722C51.2799 38.3722 51.2405 38.3557 51.2076 38.3228C51.1747 38.2899 51.1582 38.2505 51.1582 38.2045C51.1582 38.1586 51.1747 38.1191 51.2076 38.0862C51.2405 38.0533 51.2799 38.0369 51.3259 38.0369C51.3718 38.0369 51.4112 38.0533 51.4442 38.0862C51.4771 38.1191 51.4935 38.1586 51.4935 38.2045C51.4935 38.235 51.4858 38.2629 51.4702 38.2884C51.4553 38.3138 51.4352 38.3343 51.4097 38.3498C51.3849 38.3647 51.3569 38.3722 51.3259 38.3722Z" fill="#808080"/>
<path d="M50.6052 38.3722C50.5592 38.3722 50.5198 38.3557 50.4869 38.3228C50.454 38.2899 50.4375 38.2505 50.4375 38.2045C50.4375 38.1586 50.454 38.1191 50.4869 38.0862C50.5198 38.0533 50.5592 38.0369 50.6052 38.0369C50.6511 38.0369 50.6905 38.0533 50.7235 38.0862C50.7564 38.1191 50.7728 38.1586 50.7728 38.2045C50.7728 38.235 50.7651 38.2629 50.7495 38.2884C50.7346 38.3138 50.7145 38.3343 50.689 38.3498C50.6642 38.3647 50.6362 38.3722 50.6052 38.3722Z" fill="#808080"/>
<path d="M49.8825 38.3722C49.8366 38.3722 49.7971 38.3557 49.7642 38.3228C49.7313 38.2899 49.7148 38.2505 49.7148 38.2045C49.7148 38.1586 49.7313 38.1191 49.7642 38.0862C49.7971 38.0533 49.8366 38.0369 49.8825 38.0369C49.9285 38.0369 49.9679 38.0533 50.0008 38.0862C50.0337 38.1191 50.0502 38.1586 50.0502 38.2045C50.0502 38.235 50.0424 38.2629 50.0269 38.2884C50.012 38.3138 49.9918 38.3343 49.9663 38.3498C49.9415 38.3647 49.9136 38.3722 49.8825 38.3722Z" fill="#808080"/>
<path d="M49.1579 38.3722C49.1119 38.3722 49.0725 38.3557 49.0396 38.3228C49.0067 38.2899 48.9902 38.2505 48.9902 38.2045C48.9902 38.1586 49.0067 38.1191 49.0396 38.0862C49.0725 38.0533 49.1119 38.0369 49.1579 38.0369C49.2038 38.0369 49.2433 38.0533 49.2762 38.0862C49.3091 38.1191 49.3256 38.1586 49.3256 38.2045C49.3256 38.235 49.3178 38.2629 49.3023 38.2884C49.2874 38.3138 49.2672 38.3343 49.2417 38.3498C49.2169 38.3647 49.1889 38.3722 49.1579 38.3722Z" fill="#808080"/>
<path d="M48.4352 38.3722C48.3893 38.3722 48.3499 38.3557 48.3169 38.3228C48.284 38.2899 48.2676 38.2505 48.2676 38.2045C48.2676 38.1586 48.284 38.1191 48.3169 38.0862C48.3499 38.0533 48.3893 38.0369 48.4352 38.0369C48.4812 38.0369 48.5206 38.0533 48.5535 38.0862C48.5864 38.1191 48.6029 38.1586 48.6029 38.2045C48.6029 38.235 48.5951 38.2629 48.5796 38.2884C48.5647 38.3138 48.5445 38.3343 48.5191 38.3498C48.4942 38.3647 48.4663 38.3722 48.4352 38.3722Z" fill="#808080"/>
<path d="M47.7145 38.3722C47.6686 38.3722 47.6292 38.3557 47.5962 38.3228C47.5633 38.2899 47.5469 38.2505 47.5469 38.2045C47.5469 38.1586 47.5633 38.1191 47.5962 38.0862C47.6292 38.0533 47.6686 38.0369 47.7145 38.0369C47.7605 38.0369 47.7999 38.0533 47.8328 38.0862C47.8657 38.1191 47.8822 38.1586 47.8822 38.2045C47.8822 38.235 47.8744 38.2629 47.8589 38.2884C47.844 38.3138 47.8238 38.3343 47.7984 38.3498C47.7735 38.3647 47.7456 38.3722 47.7145 38.3722Z" fill="#808080"/>
<path d="M46.9938 38.3722C46.9479 38.3722 46.9085 38.3557 46.8755 38.3228C46.8426 38.2899 46.8262 38.2505 46.8262 38.2045C46.8262 38.1586 46.8426 38.1191 46.8755 38.0862C46.9085 38.0533 46.9479 38.0369 46.9938 38.0369C47.0398 38.0369 47.0792 38.0533 47.1121 38.0862C47.145 38.1191 47.1615 38.1586 47.1615 38.2045C47.1615 38.235 47.1537 38.2629 47.1382 38.2884C47.1233 38.3138 47.1031 38.3343 47.0777 38.3498C47.0528 38.3647 47.0249 38.3722 46.9938 38.3722Z" fill="#808080"/>
<path d="M46.2692 38.3722C46.2233 38.3722 46.1838 38.3557 46.1509 38.3228C46.118 38.2899 46.1016 38.2505 46.1016 38.2045C46.1016 38.1586 46.118 38.1191 46.1509 38.0862C46.1838 38.0533 46.2233 38.0369 46.2692 38.0369C46.3152 38.0369 46.3546 38.0533 46.3875 38.0862C46.4204 38.1191 46.4369 38.1586 46.4369 38.2045C46.4369 38.235 46.4291 38.2629 46.4136 38.2884C46.3987 38.3138 46.3785 38.3343 46.3531 38.3498C46.3282 38.3647 46.3003 38.3722 46.2692 38.3722Z" fill="#808080"/>
<path d="M45.5485 38.3722C45.5026 38.3722 45.4631 38.3557 45.4302 38.3228C45.3973 38.2899 45.3809 38.2505 45.3809 38.2045C45.3809 38.1586 45.3973 38.1191 45.4302 38.0862C45.4631 38.0533 45.5026 38.0369 45.5485 38.0369C45.5945 38.0369 45.6339 38.0533 45.6668 38.0862C45.6997 38.1191 45.7162 38.1586 45.7162 38.2045C45.7162 38.235 45.7084 38.2629 45.6929 38.2884C45.678 38.3138 45.6578 38.3343 45.6324 38.3498C45.6075 38.3647 45.5796 38.3722 45.5485 38.3722Z" fill="#808080"/>
<path d="M44.8259 38.3722C44.7799 38.3722 44.7405 38.3557 44.7076 38.3228C44.6747 38.2899 44.6582 38.2505 44.6582 38.2045C44.6582 38.1586 44.6747 38.1191 44.7076 38.0862C44.7405 38.0533 44.7799 38.0369 44.8259 38.0369C44.8718 38.0369 44.9112 38.0533 44.9442 38.0862C44.9771 38.1191 44.9935 38.1586 44.9935 38.2045C44.9935 38.235 44.9858 38.2629 44.9702 38.2884C44.9553 38.3138 44.9352 38.3343 44.9097 38.3498C44.8849 38.3647 44.8569 38.3722 44.8259 38.3722Z" fill="#808080"/>
<path d="M44.1032 38.3722C44.0573 38.3722 44.0178 38.3557 43.9849 38.3228C43.952 38.2899 43.9355 38.2505 43.9355 38.2045C43.9355 38.1586 43.952 38.1191 43.9849 38.0862C44.0178 38.0533 44.0573 38.0369 44.1032 38.0369C44.1492 38.0369 44.1886 38.0533 44.2215 38.0862C44.2544 38.1191 44.2709 38.1586 44.2709 38.2045C44.2709 38.235 44.2631 38.2629 44.2476 38.2884C44.2327 38.3138 44.2125 38.3343 44.187 38.3498C44.1622 38.3647 44.1343 38.3722 44.1032 38.3722Z" fill="#808080"/>
<path d="M43.3825 38.3722C43.3366 38.3722 43.2971 38.3557 43.2642 38.3228C43.2313 38.2899 43.2148 38.2505 43.2148 38.2045C43.2148 38.1586 43.2313 38.1191 43.2642 38.0862C43.2971 38.0533 43.3366 38.0369 43.3825 38.0369C43.4285 38.0369 43.4679 38.0533 43.5008 38.0862C43.5337 38.1191 43.5502 38.1586 43.5502 38.2045C43.5502 38.235 43.5424 38.2629 43.5269 38.2884C43.512 38.3138 43.4918 38.3343 43.4663 38.3498C43.4415 38.3647 43.4136 38.3722 43.3825 38.3722Z" fill="#808080"/>
<path d="M42.6599 38.3722C42.6139 38.3722 42.5745 38.3557 42.5416 38.3228C42.5086 38.2899 42.4922 38.2505 42.4922 38.2045C42.4922 38.1586 42.5086 38.1191 42.5416 38.0862C42.5745 38.0533 42.6139 38.0369 42.6599 38.0369C42.7058 38.0369 42.7452 38.0533 42.7781 38.0862C42.8111 38.1191 42.8275 38.1586 42.8275 38.2045C42.8275 38.235 42.8198 38.2629 42.8042 38.2884C42.7893 38.3138 42.7691 38.3343 42.7437 38.3498C42.7188 38.3647 42.6909 38.3722 42.6599 38.3722Z" fill="#808080"/>
<path d="M41.9352 38.3722C41.8893 38.3722 41.8499 38.3557 41.8169 38.3228C41.784 38.2899 41.7676 38.2505 41.7676 38.2045C41.7676 38.1586 41.784 38.1191 41.8169 38.0862C41.8499 38.0533 41.8893 38.0369 41.9352 38.0369C41.9812 38.0369 42.0206 38.0533 42.0535 38.0862C42.0864 38.1191 42.1029 38.1586 42.1029 38.2045C42.1029 38.235 42.0951 38.2629 42.0796 38.2884C42.0647 38.3138 42.0445 38.3343 42.0191 38.3498C41.9942 38.3647 41.9663 38.3722 41.9352 38.3722Z" fill="#808080"/>
<path d="M41.2126 38.3722C41.1666 38.3722 41.1272 38.3557 41.0943 38.3228C41.0614 38.2899 41.0449 38.2505 41.0449 38.2045C41.0449 38.1586 41.0614 38.1191 41.0943 38.0862C41.1272 38.0533 41.1666 38.0369 41.2126 38.0369C41.2585 38.0369 41.298 38.0533 41.3309 38.0862C41.3638 38.1191 41.3802 38.1586 41.3802 38.2045C41.3802 38.235 41.3725 38.2629 41.357 38.2884C41.3421 38.3138 41.3219 38.3343 41.2964 38.3498C41.2716 38.3647 41.2436 38.3722 41.2126 38.3722Z" fill="#808080"/>
<path d="M40.4919 38.3722C40.4459 38.3722 40.4065 38.3557 40.3736 38.3228C40.3407 38.2899 40.3242 38.2505 40.3242 38.2045C40.3242 38.1586 40.3407 38.1191 40.3736 38.0862C40.4065 38.0533 40.4459 38.0369 40.4919 38.0369C40.5378 38.0369 40.5773 38.0533 40.6102 38.0862C40.6431 38.1191 40.6595 38.1586 40.6595 38.2045C40.6595 38.235 40.6518 38.2629 40.6363 38.2884C40.6214 38.3138 40.6012 38.3343 40.5757 38.3498C40.5509 38.3647 40.5229 38.3722 40.4919 38.3722Z" fill="#808080"/>
<path d="M39.7731 38.3722C39.7272 38.3722 39.6877 38.3557 39.6548 38.3228C39.6219 38.2899 39.6055 38.2505 39.6055 38.2045C39.6055 38.1586 39.6219 38.1191 39.6548 38.0862C39.6877 38.0533 39.7272 38.0369 39.7731 38.0369C39.8191 38.0369 39.8585 38.0533 39.8914 38.0862C39.9243 38.1191 39.9408 38.1586 39.9408 38.2045C39.9408 38.235 39.933 38.2629 39.9175 38.2884C39.9026 38.3138 39.8824 38.3343 39.857 38.3498C39.8321 38.3647 39.8042 38.3722 39.7731 38.3722Z" fill="#808080"/>
<path d="M39.0505 38.3722C39.0045 38.3722 38.9651 38.3557 38.9322 38.3228C38.8993 38.2899 38.8828 38.2505 38.8828 38.2045C38.8828 38.1586 38.8993 38.1191 38.9322 38.0862C38.9651 38.0533 39.0045 38.0369 39.0505 38.0369C39.0964 38.0369 39.1359 38.0533 39.1688 38.0862C39.2017 38.1191 39.2181 38.1586 39.2181 38.2045C39.2181 38.235 39.2104 38.2629 39.1949 38.2884C39.1799 38.3138 39.1598 38.3343 39.1343 38.3498C39.1095 38.3647 39.0815 38.3722 39.0505 38.3722Z" fill="#808080"/>
<path d="M38.3278 38.3722C38.2819 38.3722 38.2424 38.3557 38.2095 38.3228C38.1766 38.2899 38.1602 38.2505 38.1602 38.2045C38.1602 38.1586 38.1766 38.1191 38.2095 38.0862C38.2424 38.0533 38.2819 38.0369 38.3278 38.0369C38.3738 38.0369 38.4132 38.0533 38.4461 38.0862C38.479 38.1191 38.4955 38.1586 38.4955 38.2045C38.4955 38.235 38.4877 38.2629 38.4722 38.2884C38.4573 38.3138 38.4371 38.3343 38.4117 38.3498C38.3868 38.3647 38.3589 38.3722 38.3278 38.3722Z" fill="#808080"/>
<path d="M37.6052 38.3722C37.5592 38.3722 37.5198 38.3557 37.4869 38.3228C37.454 38.2899 37.4375 38.2505 37.4375 38.2045C37.4375 38.1586 37.454 38.1191 37.4869 38.0862C37.5198 38.0533 37.5592 38.0369 37.6052 38.0369C37.6511 38.0369 37.6905 38.0533 37.7235 38.0862C37.7564 38.1191 37.7728 38.1586 37.7728 38.2045C37.7728 38.235 37.7651 38.2629 37.7495 38.2884C37.7346 38.3138 37.7145 38.3343 37.689 38.3498C37.6642 38.3647 37.6362 38.3722 37.6052 38.3722Z" fill="#808080"/>
<path d="M36.8825 38.3722C36.8366 38.3722 36.7971 38.3557 36.7642 38.3228C36.7313 38.2899 36.7148 38.2505 36.7148 38.2045C36.7148 38.1586 36.7313 38.1191 36.7642 38.0862C36.7971 38.0533 36.8366 38.0369 36.8825 38.0369C36.9285 38.0369 36.9679 38.0533 37.0008 38.0862C37.0337 38.1191 37.0502 38.1586 37.0502 38.2045C37.0502 38.235 37.0424 38.2629 37.0269 38.2884C37.012 38.3138 36.9918 38.3343 36.9663 38.3498C36.9415 38.3647 36.9136 38.3722 36.8825 38.3722Z" fill="#808080"/>
<path d="M36.1618 38.3722C36.1159 38.3722 36.0764 38.3557 36.0435 38.3228C36.0106 38.2899 35.9941 38.2505 35.9941 38.2045C35.9941 38.1586 36.0106 38.1191 36.0435 38.0862C36.0764 38.0533 36.1159 38.0369 36.1618 38.0369C36.2078 38.0369 36.2472 38.0533 36.2801 38.0862C36.313 38.1191 36.3295 38.1586 36.3295 38.2045C36.3295 38.235 36.3217 38.2629 36.3062 38.2884C36.2913 38.3138 36.2711 38.3343 36.2456 38.3498C36.2208 38.3647 36.1929 38.3722 36.1618 38.3722Z" fill="#808080"/>
<path d="M35.4391 38.3722C35.3932 38.3722 35.3538 38.3557 35.3209 38.3228C35.2879 38.2899 35.2715 38.2505 35.2715 38.2045C35.2715 38.1586 35.2879 38.1191 35.3209 38.0862C35.3538 38.0533 35.3932 38.0369 35.4391 38.0369C35.4851 38.0369 35.5245 38.0533 35.5574 38.0862C35.5904 38.1191 35.6068 38.1586 35.6068 38.2045C35.6068 38.235 35.599 38.2629 35.5835 38.2884C35.5686 38.3138 35.5484 38.3343 35.523 38.3498C35.4981 38.3647 35.4702 38.3722 35.4391 38.3722Z" fill="#808080"/>
<path d="M34.7165 38.3722C34.6705 38.3722 34.6311 38.3557 34.5982 38.3228C34.5653 38.2899 34.5488 38.2505 34.5488 38.2045C34.5488 38.1586 34.5653 38.1191 34.5982 38.0862C34.6311 38.0533 34.6705 38.0369 34.7165 38.0369C34.7624 38.0369 34.8019 38.0533 34.8348 38.0862C34.8677 38.1191 34.8842 38.1586 34.8842 38.2045C34.8842 38.235 34.8764 38.2629 34.8609 38.2884C34.846 38.3138 34.8258 38.3343 34.8003 38.3498C34.7755 38.3647 34.7475 38.3722 34.7165 38.3722Z" fill="#808080"/>
<path d="M33.9919 38.3722C33.9459 38.3722 33.9065 38.3557 33.8736 38.3228C33.8407 38.2899 33.8242 38.2505 33.8242 38.2045C33.8242 38.1586 33.8407 38.1191 33.8736 38.0862C33.9065 38.0533 33.9459 38.0369 33.9919 38.0369C34.0378 38.0369 34.0773 38.0533 34.1102 38.0862C34.1431 38.1191 34.1595 38.1586 34.1595 38.2045C34.1595 38.235 34.1518 38.2629 34.1363 38.2884C34.1214 38.3138 34.1012 38.3343 34.0757 38.3498C34.0509 38.3647 34.0229 38.3722 33.9919 38.3722Z" fill="#808080"/>
<path d="M33.2731 38.3722C33.2272 38.3722 33.1877 38.3557 33.1548 38.3228C33.1219 38.2899 33.1055 38.2505 33.1055 38.2045C33.1055 38.1586 33.1219 38.1191 33.1548 38.0862C33.1877 38.0533 33.2272 38.0369 33.2731 38.0369C33.3191 38.0369 33.3585 38.0533 33.3914 38.0862C33.4243 38.1191 33.4408 38.1586 33.4408 38.2045C33.4408 38.235 33.433 38.2629 33.4175 38.2884C33.4026 38.3138 33.3824 38.3343 33.357 38.3498C33.3321 38.3647 33.3042 38.3722 33.2731 38.3722Z" fill="#808080"/>
<path d="M61.7497 43.3546C61.7037 43.3546 61.6643 43.3382 61.6314 43.3052C61.5985 43.2723 61.582 43.2329 61.582 43.1869C61.582 43.141 61.5985 43.1016 61.6314 43.0687C61.6643 43.0357 61.7037 43.0193 61.7497 43.0193C61.7956 43.0193 61.8351 43.0357 61.868 43.0687C61.9009 43.1016 61.9174 43.141 61.9174 43.1869C61.9174 43.2174 61.9096 43.2453 61.8941 43.2708C61.8792 43.2962 61.859 43.3167 61.8335 43.3323C61.8087 43.3472 61.7807 43.3546 61.7497 43.3546Z" fill="#808080"/>
<path d="M61.029 43.3546C60.983 43.3546 60.9436 43.3382 60.9107 43.3052C60.8778 43.2723 60.8613 43.2329 60.8613 43.1869C60.8613 43.141 60.8778 43.1016 60.9107 43.0687C60.9436 43.0357 60.983 43.0193 61.029 43.0193C61.0749 43.0193 61.1144 43.0357 61.1473 43.0687C61.1802 43.1016 61.1967 43.141 61.1967 43.1869C61.1967 43.2174 61.1889 43.2453 61.1734 43.2708C61.1585 43.2962 61.1383 43.3167 61.1128 43.3323C61.088 43.3472 61.06 43.3546 61.029 43.3546Z" fill="#808080"/>
<path d="M60.3063 43.3546C60.2604 43.3546 60.221 43.3382 60.188 43.3052C60.1551 43.2723 60.1387 43.2329 60.1387 43.1869C60.1387 43.141 60.1551 43.1016 60.188 43.0687C60.221 43.0357 60.2604 43.0193 60.3063 43.0193C60.3523 43.0193 60.3917 43.0357 60.4246 43.0687C60.4575 43.1016 60.474 43.141 60.474 43.1869C60.474 43.2174 60.4662 43.2453 60.4507 43.2708C60.4358 43.2962 60.4156 43.3167 60.3902 43.3323C60.3653 43.3472 60.3374 43.3546 60.3063 43.3546Z" fill="#808080"/>
<path d="M59.5856 43.3546C59.5397 43.3546 59.5002 43.3382 59.4673 43.3052C59.4344 43.2723 59.418 43.2329 59.418 43.1869C59.418 43.141 59.4344 43.1016 59.4673 43.0687C59.5002 43.0357 59.5397 43.0193 59.5856 43.0193C59.6316 43.0193 59.671 43.0357 59.7039 43.0687C59.7368 43.1016 59.7533 43.141 59.7533 43.1869C59.7533 43.2174 59.7455 43.2453 59.73 43.2708C59.7151 43.2962 59.6949 43.3167 59.6695 43.3323C59.6446 43.3472 59.6167 43.3546 59.5856 43.3546Z" fill="#808080"/>
<path d="M58.861 43.3546C58.8151 43.3546 58.7756 43.3382 58.7427 43.3052C58.7098 43.2723 58.6934 43.2329 58.6934 43.1869C58.6934 43.141 58.7098 43.1016 58.7427 43.0687C58.7756 43.0357 58.8151 43.0193 58.861 43.0193C58.907 43.0193 58.9464 43.0357 58.9793 43.0687C59.0122 43.1016 59.0287 43.141 59.0287 43.1869C59.0287 43.2174 59.0209 43.2453 59.0054 43.2708C58.9905 43.2962 58.9703 43.3167 58.9449 43.3323C58.92 43.3472 58.8921 43.3546 58.861 43.3546Z" fill="#808080"/>
<path d="M58.1364 43.3546C58.0905 43.3546 58.051 43.3382 58.0181 43.3052C57.9852 43.2723 57.9688 43.2329 57.9688 43.1869C57.9688 43.141 57.9852 43.1016 58.0181 43.0687C58.051 43.0357 58.0905 43.0193 58.1364 43.0193C58.1824 43.0193 58.2218 43.0357 58.2547 43.0687C58.2876 43.1016 58.3041 43.141 58.3041 43.1869C58.3041 43.2174 58.2963 43.2453 58.2808 43.2708C58.2659 43.2962 58.2457 43.3167 58.2202 43.3323C58.1954 43.3472 58.1675 43.3546 58.1364 43.3546Z" fill="#808080"/>
<path d="M57.4177 43.3546C57.3717 43.3546 57.3323 43.3382 57.2994 43.3052C57.2665 43.2723 57.25 43.2329 57.25 43.1869C57.25 43.141 57.2665 43.1016 57.2994 43.0687C57.3323 43.0357 57.3717 43.0193 57.4177 43.0193C57.4636 43.0193 57.503 43.0357 57.536 43.0687C57.5689 43.1016 57.5853 43.141 57.5853 43.1869C57.5853 43.2174 57.5776 43.2453 57.562 43.2708C57.5471 43.2962 57.527 43.3167 57.5015 43.3323C57.4767 43.3472 57.4487 43.3546 57.4177 43.3546Z" fill="#808080"/>
<path d="M56.695 43.3546C56.6491 43.3546 56.6096 43.3382 56.5767 43.3052C56.5438 43.2723 56.5273 43.2329 56.5273 43.1869C56.5273 43.141 56.5438 43.1016 56.5767 43.0687C56.6096 43.0357 56.6491 43.0193 56.695 43.0193C56.741 43.0193 56.7804 43.0357 56.8133 43.0687C56.8462 43.1016 56.8627 43.141 56.8627 43.1869C56.8627 43.2174 56.8549 43.2453 56.8394 43.2708C56.8245 43.2962 56.8043 43.3167 56.7788 43.3323C56.754 43.3472 56.7261 43.3546 56.695 43.3546Z" fill="#808080"/>
<path d="M55.9724 43.3546C55.9264 43.3546 55.887 43.3382 55.8541 43.3052C55.8211 43.2723 55.8047 43.2329 55.8047 43.1869C55.8047 43.141 55.8211 43.1016 55.8541 43.0687C55.887 43.0357 55.9264 43.0193 55.9724 43.0193C56.0183 43.0193 56.0577 43.0357 56.0906 43.0687C56.1236 43.1016 56.14 43.141 56.14 43.1869C56.14 43.2174 56.1323 43.2453 56.1167 43.2708C56.1018 43.2962 56.0816 43.3167 56.0562 43.3323C56.0313 43.3472 56.0034 43.3546 55.9724 43.3546Z" fill="#808080"/>
<path d="M55.2497 43.3546C55.2037 43.3546 55.1643 43.3382 55.1314 43.3052C55.0985 43.2723 55.082 43.2329 55.082 43.1869C55.082 43.141 55.0985 43.1016 55.1314 43.0687C55.1643 43.0357 55.2037 43.0193 55.2497 43.0193C55.2956 43.0193 55.3351 43.0357 55.368 43.0687C55.4009 43.1016 55.4174 43.141 55.4174 43.1869C55.4174 43.2174 55.4096 43.2453 55.3941 43.2708C55.3792 43.2962 55.359 43.3167 55.3335 43.3323C55.3087 43.3472 55.2807 43.3546 55.2497 43.3546Z" fill="#808080"/>
<path d="M54.527 43.3546C54.4811 43.3546 54.4417 43.3382 54.4087 43.3052C54.3758 43.2723 54.3594 43.2329 54.3594 43.1869C54.3594 43.141 54.3758 43.1016 54.4087 43.0687C54.4417 43.0357 54.4811 43.0193 54.527 43.0193C54.573 43.0193 54.6124 43.0357 54.6453 43.0687C54.6782 43.1016 54.6947 43.141 54.6947 43.1869C54.6947 43.2174 54.6869 43.2453 54.6714 43.2708C54.6565 43.2962 54.6363 43.3167 54.6109 43.3323C54.586 43.3472 54.5581 43.3546 54.527 43.3546Z" fill="#808080"/>
<path d="M53.8044 43.3546C53.7584 43.3546 53.719 43.3382 53.6861 43.3052C53.6532 43.2723 53.6367 43.2329 53.6367 43.1869C53.6367 43.141 53.6532 43.1016 53.6861 43.0687C53.719 43.0357 53.7584 43.0193 53.8044 43.0193C53.8503 43.0193 53.8898 43.0357 53.9227 43.0687C53.9556 43.1016 53.972 43.141 53.972 43.1869C53.972 43.2174 53.9643 43.2453 53.9488 43.2708C53.9339 43.2962 53.9137 43.3167 53.8882 43.3323C53.8634 43.3472 53.8354 43.3546 53.8044 43.3546Z" fill="#808080"/>
<path d="M53.0856 43.3546C53.0397 43.3546 53.0002 43.3382 52.9673 43.3052C52.9344 43.2723 52.918 43.2329 52.918 43.1869C52.918 43.141 52.9344 43.1016 52.9673 43.0687C53.0002 43.0357 53.0397 43.0193 53.0856 43.0193C53.1316 43.0193 53.171 43.0357 53.2039 43.0687C53.2368 43.1016 53.2533 43.141 53.2533 43.1869C53.2533 43.2174 53.2455 43.2453 53.23 43.2708C53.2151 43.2962 53.1949 43.3167 53.1695 43.3323C53.1446 43.3472 53.1167 43.3546 53.0856 43.3546Z" fill="#808080"/>
<path d="M52.363 43.3546C52.317 43.3546 52.2776 43.3382 52.2447 43.3052C52.2118 43.2723 52.1953 43.2329 52.1953 43.1869C52.1953 43.141 52.2118 43.1016 52.2447 43.0687C52.2776 43.0357 52.317 43.0193 52.363 43.0193C52.4089 43.0193 52.4484 43.0357 52.4813 43.0687C52.5142 43.1016 52.5306 43.141 52.5306 43.1869C52.5306 43.2174 52.5229 43.2453 52.5074 43.2708C52.4924 43.2962 52.4723 43.3167 52.4468 43.3323C52.422 43.3472 52.394 43.3546 52.363 43.3546Z" fill="#808080"/>
<path d="M51.6364 43.3546C51.5905 43.3546 51.551 43.3382 51.5181 43.3052C51.4852 43.2723 51.4688 43.2329 51.4688 43.1869C51.4688 43.141 51.4852 43.1016 51.5181 43.0687C51.551 43.0357 51.5905 43.0193 51.6364 43.0193C51.6824 43.0193 51.7218 43.0357 51.7547 43.0687C51.7876 43.1016 51.8041 43.141 51.8041 43.1869C51.8041 43.2174 51.7963 43.2453 51.7808 43.2708C51.7659 43.2962 51.7457 43.3167 51.7202 43.3323C51.6954 43.3472 51.6675 43.3546 51.6364 43.3546Z" fill="#808080"/>
<path d="M50.9157 43.3546C50.8698 43.3546 50.8303 43.3382 50.7974 43.3052C50.7645 43.2723 50.748 43.2329 50.748 43.1869C50.748 43.141 50.7645 43.1016 50.7974 43.0687C50.8303 43.0357 50.8698 43.0193 50.9157 43.0193C50.9617 43.0193 51.0011 43.0357 51.034 43.0687C51.0669 43.1016 51.0834 43.141 51.0834 43.1869C51.0834 43.2174 51.0756 43.2453 51.0601 43.2708C51.0452 43.2962 51.025 43.3167 50.9995 43.3323C50.9747 43.3472 50.9468 43.3546 50.9157 43.3546Z" fill="#808080"/>
<path d="M50.195 43.3546C50.1491 43.3546 50.1096 43.3382 50.0767 43.3052C50.0438 43.2723 50.0273 43.2329 50.0273 43.1869C50.0273 43.141 50.0438 43.1016 50.0767 43.0687C50.1096 43.0357 50.1491 43.0193 50.195 43.0193C50.241 43.0193 50.2804 43.0357 50.3133 43.0687C50.3462 43.1016 50.3627 43.141 50.3627 43.1869C50.3627 43.2174 50.3549 43.2453 50.3394 43.2708C50.3245 43.2962 50.3043 43.3167 50.2788 43.3323C50.254 43.3472 50.2261 43.3546 50.195 43.3546Z" fill="#808080"/>
<path d="M49.4723 43.3546C49.4264 43.3546 49.387 43.3382 49.3541 43.3052C49.3211 43.2723 49.3047 43.2329 49.3047 43.1869C49.3047 43.141 49.3211 43.1016 49.3541 43.0687C49.387 43.0357 49.4264 43.0193 49.4723 43.0193C49.5183 43.0193 49.5577 43.0357 49.5906 43.0687C49.6236 43.1016 49.64 43.141 49.64 43.1869C49.64 43.2174 49.6323 43.2453 49.6167 43.2708C49.6018 43.2962 49.5816 43.3167 49.5562 43.3323C49.5313 43.3472 49.5034 43.3546 49.4723 43.3546Z" fill="#808080"/>
<path d="M48.7497 43.3546C48.7037 43.3546 48.6643 43.3382 48.6314 43.3052C48.5985 43.2723 48.582 43.2329 48.582 43.1869C48.582 43.141 48.5985 43.1016 48.6314 43.0687C48.6643 43.0357 48.7037 43.0193 48.7497 43.0193C48.7956 43.0193 48.8351 43.0357 48.868 43.0687C48.9009 43.1016 48.9174 43.141 48.9174 43.1869C48.9174 43.2174 48.9096 43.2453 48.8941 43.2708C48.8792 43.2962 48.859 43.3167 48.8335 43.3323C48.8087 43.3472 48.7807 43.3546 48.7497 43.3546Z" fill="#808080"/>
<path d="M48.029 43.3546C47.983 43.3546 47.9436 43.3382 47.9107 43.3052C47.8778 43.2723 47.8613 43.2329 47.8613 43.1869C47.8613 43.141 47.8778 43.1016 47.9107 43.0687C47.9436 43.0357 47.983 43.0193 48.029 43.0193C48.0749 43.0193 48.1144 43.0357 48.1473 43.0687C48.1802 43.1016 48.1967 43.141 48.1967 43.1869C48.1967 43.2174 48.1889 43.2453 48.1734 43.2708C48.1585 43.2962 48.1383 43.3167 48.1128 43.3323C48.088 43.3472 48.06 43.3546 48.029 43.3546Z" fill="#808080"/>
<path d="M47.3063 43.3546C47.2604 43.3546 47.221 43.3382 47.188 43.3052C47.1551 43.2723 47.1387 43.2329 47.1387 43.1869C47.1387 43.141 47.1551 43.1016 47.188 43.0687C47.221 43.0357 47.2604 43.0193 47.3063 43.0193C47.3523 43.0193 47.3917 43.0357 47.4246 43.0687C47.4575 43.1016 47.474 43.141 47.474 43.1869C47.474 43.2174 47.4662 43.2453 47.4507 43.2708C47.4358 43.2962 47.4156 43.3167 47.3902 43.3323C47.3653 43.3472 47.3374 43.3546 47.3063 43.3546Z" fill="#808080"/>
<path d="M46.5837 43.3546C46.5377 43.3546 46.4983 43.3382 46.4654 43.3052C46.4325 43.2723 46.416 43.2329 46.416 43.1869C46.416 43.141 46.4325 43.1016 46.4654 43.0687C46.4983 43.0357 46.5377 43.0193 46.5837 43.0193C46.6296 43.0193 46.6691 43.0357 46.702 43.0687C46.7349 43.1016 46.7513 43.141 46.7513 43.1869C46.7513 43.2174 46.7436 43.2453 46.7281 43.2708C46.7132 43.2962 46.693 43.3167 46.6675 43.3323C46.6427 43.3472 46.6147 43.3546 46.5837 43.3546Z" fill="#808080"/>
<path d="M45.8649 43.3546C45.819 43.3546 45.7795 43.3382 45.7466 43.3052C45.7137 43.2723 45.6973 43.2329 45.6973 43.1869C45.6973 43.141 45.7137 43.1016 45.7466 43.0687C45.7795 43.0357 45.819 43.0193 45.8649 43.0193C45.9109 43.0193 45.9503 43.0357 45.9832 43.0687C46.0161 43.1016 46.0326 43.141 46.0326 43.1869C46.0326 43.2174 46.0248 43.2453 46.0093 43.2708C45.9944 43.2962 45.9742 43.3167 45.9488 43.3323C45.9239 43.3472 45.896 43.3546 45.8649 43.3546Z" fill="#808080"/>
<path d="M45.1423 43.3546C45.0963 43.3546 45.0569 43.3382 45.024 43.3052C44.9911 43.2723 44.9746 43.2329 44.9746 43.1869C44.9746 43.141 44.9911 43.1016 45.024 43.0687C45.0569 43.0357 45.0963 43.0193 45.1423 43.0193C45.1882 43.0193 45.2277 43.0357 45.2606 43.0687C45.2935 43.1016 45.3099 43.141 45.3099 43.1869C45.3099 43.2174 45.3022 43.2453 45.2866 43.2708C45.2717 43.2962 45.2516 43.3167 45.2261 43.3323C45.2013 43.3472 45.1733 43.3546 45.1423 43.3546Z" fill="#808080"/>
<path d="M44.4177 43.3546C44.3717 43.3546 44.3323 43.3382 44.2994 43.3052C44.2665 43.2723 44.25 43.2329 44.25 43.1869C44.25 43.141 44.2665 43.1016 44.2994 43.0687C44.3323 43.0357 44.3717 43.0193 44.4177 43.0193C44.4636 43.0193 44.503 43.0357 44.536 43.0687C44.5689 43.1016 44.5853 43.141 44.5853 43.1869C44.5853 43.2174 44.5776 43.2453 44.562 43.2708C44.5471 43.2962 44.527 43.3167 44.5015 43.3323C44.4767 43.3472 44.4487 43.3546 44.4177 43.3546Z" fill="#808080"/>
<path d="M43.695 43.3546C43.6491 43.3546 43.6096 43.3382 43.5767 43.3052C43.5438 43.2723 43.5273 43.2329 43.5273 43.1869C43.5273 43.141 43.5438 43.1016 43.5767 43.0687C43.6096 43.0357 43.6491 43.0193 43.695 43.0193C43.741 43.0193 43.7804 43.0357 43.8133 43.0687C43.8462 43.1016 43.8627 43.141 43.8627 43.1869C43.8627 43.2174 43.8549 43.2453 43.8394 43.2708C43.8245 43.2962 43.8043 43.3167 43.7788 43.3323C43.754 43.3472 43.7261 43.3546 43.695 43.3546Z" fill="#808080"/>
<path d="M42.9743 43.3546C42.9284 43.3546 42.8889 43.3382 42.856 43.3052C42.8231 43.2723 42.8066 43.2329 42.8066 43.1869C42.8066 43.141 42.8231 43.1016 42.856 43.0687C42.8889 43.0357 42.9284 43.0193 42.9743 43.0193C43.0203 43.0193 43.0597 43.0357 43.0926 43.0687C43.1255 43.1016 43.142 43.141 43.142 43.1869C43.142 43.2174 43.1342 43.2453 43.1187 43.2708C43.1038 43.2962 43.0836 43.3167 43.0581 43.3323C43.0333 43.3472 43.0054 43.3546 42.9743 43.3546Z" fill="#808080"/>
<path d="M62.1442 48.3373C62.0983 48.3373 62.0588 48.3208 62.0259 48.2879C61.993 48.255 61.9766 48.2156 61.9766 48.1696C61.9766 48.1237 61.993 48.0842 62.0259 48.0513C62.0588 48.0184 62.0983 48.002 62.1442 48.002C62.1902 48.002 62.2296 48.0184 62.2625 48.0513C62.2954 48.0842 62.3119 48.1237 62.3119 48.1696C62.3119 48.2 62.3041 48.228 62.2886 48.2534C62.2737 48.2789 62.2535 48.2994 62.2281 48.3149C62.2032 48.3298 62.1753 48.3373 62.1442 48.3373Z" fill="#808080"/>
<path d="M61.4255 48.3373C61.3795 48.3373 61.3401 48.3208 61.3072 48.2879C61.2743 48.255 61.2578 48.2156 61.2578 48.1696C61.2578 48.1237 61.2743 48.0842 61.3072 48.0513C61.3401 48.0184 61.3795 48.002 61.4255 48.002C61.4714 48.002 61.5109 48.0184 61.5438 48.0513C61.5767 48.0842 61.5931 48.1237 61.5931 48.1696C61.5931 48.2 61.5854 48.228 61.5699 48.2534C61.5549 48.2789 61.5348 48.2994 61.5093 48.3149C61.4845 48.3298 61.4565 48.3373 61.4255 48.3373Z" fill="#808080"/>
<path d="M60.7028 48.3373C60.6569 48.3373 60.6174 48.3208 60.5845 48.2879C60.5516 48.255 60.5352 48.2156 60.5352 48.1696C60.5352 48.1237 60.5516 48.0842 60.5845 48.0513C60.6174 48.0184 60.6569 48.002 60.7028 48.002C60.7488 48.002 60.7882 48.0184 60.8211 48.0513C60.854 48.0842 60.8705 48.1237 60.8705 48.1696C60.8705 48.2 60.8627 48.228 60.8472 48.2534C60.8323 48.2789 60.8121 48.2994 60.7866 48.3149C60.7618 48.3298 60.7339 48.3373 60.7028 48.3373Z" fill="#808080"/>
<path d="M59.9802 48.3373C59.9342 48.3373 59.8948 48.3208 59.8619 48.2879C59.829 48.255 59.8125 48.2156 59.8125 48.1696C59.8125 48.1237 59.829 48.0842 59.8619 48.0513C59.8948 48.0184 59.9342 48.002 59.9802 48.002C60.0261 48.002 60.0655 48.0184 60.0985 48.0513C60.1314 48.0842 60.1478 48.1237 60.1478 48.1696C60.1478 48.2 60.1401 48.228 60.1245 48.2534C60.1096 48.2789 60.0895 48.2994 60.064 48.3149C60.0392 48.3298 60.0112 48.3373 59.9802 48.3373Z" fill="#808080"/>
<path d="M59.2575 48.3373C59.2116 48.3373 59.1721 48.3208 59.1392 48.2879C59.1063 48.255 59.0898 48.2156 59.0898 48.1696C59.0898 48.1237 59.1063 48.0842 59.1392 48.0513C59.1721 48.0184 59.2116 48.002 59.2575 48.002C59.3035 48.002 59.3429 48.0184 59.3758 48.0513C59.4087 48.0842 59.4252 48.1237 59.4252 48.1696C59.4252 48.2 59.4174 48.228 59.4019 48.2534C59.387 48.2789 59.3668 48.2994 59.3413 48.3149C59.3165 48.3298 59.2886 48.3373 59.2575 48.3373Z" fill="#808080"/>
<path d="M58.5368 48.3373C58.4908 48.3373 58.4514 48.3208 58.4185 48.2879C58.3856 48.255 58.3691 48.2156 58.3691 48.1696C58.3691 48.1237 58.3856 48.0842 58.4185 48.0513C58.4514 48.0184 58.4908 48.002 58.5368 48.002C58.5828 48.002 58.6222 48.0184 58.6551 48.0513C58.688 48.0842 58.7045 48.1237 58.7045 48.1696C58.7045 48.2 58.6967 48.228 58.6812 48.2534C58.6663 48.2789 58.6461 48.2994 58.6206 48.3149C58.5958 48.3298 58.5679 48.3373 58.5368 48.3373Z" fill="#808080"/>
<path d="M57.8161 48.3373C57.7701 48.3373 57.7307 48.3208 57.6978 48.2879C57.6649 48.255 57.6484 48.2156 57.6484 48.1696C57.6484 48.1237 57.6649 48.0842 57.6978 48.0513C57.7307 48.0184 57.7701 48.002 57.8161 48.002C57.8621 48.002 57.9015 48.0184 57.9344 48.0513C57.9673 48.0842 57.9838 48.1237 57.9838 48.1696C57.9838 48.2 57.976 48.228 57.9605 48.2534C57.9456 48.2789 57.9254 48.2994 57.8999 48.3149C57.8751 48.3298 57.8471 48.3373 57.8161 48.3373Z" fill="#808080"/>
<path d="M57.0934 48.3373C57.0475 48.3373 57.0081 48.3208 56.9751 48.2879C56.9422 48.255 56.9258 48.2156 56.9258 48.1696C56.9258 48.1237 56.9422 48.0842 56.9751 48.0513C57.0081 48.0184 57.0475 48.002 57.0934 48.002C57.1394 48.002 57.1788 48.0184 57.2117 48.0513C57.2446 48.0842 57.2611 48.1237 57.2611 48.1696C57.2611 48.2 57.2533 48.228 57.2378 48.2534C57.2229 48.2789 57.2027 48.2994 57.1773 48.3149C57.1524 48.3298 57.1245 48.3373 57.0934 48.3373Z" fill="#808080"/>
<path d="M56.3688 48.3373C56.3229 48.3373 56.2835 48.3208 56.2505 48.2879C56.2176 48.255 56.2012 48.2156 56.2012 48.1696C56.2012 48.1237 56.2176 48.0842 56.2505 48.0513C56.2835 48.0184 56.3229 48.002 56.3688 48.002C56.4148 48.002 56.4542 48.0184 56.4871 48.0513C56.52 48.0842 56.5365 48.1237 56.5365 48.1696C56.5365 48.2 56.5287 48.228 56.5132 48.2534C56.4983 48.2789 56.4781 48.2994 56.4527 48.3149C56.4278 48.3298 56.3999 48.3373 56.3688 48.3373Z" fill="#808080"/>
<path d="M55.6462 48.3373C55.6002 48.3373 55.5608 48.3208 55.5279 48.2879C55.495 48.255 55.4785 48.2156 55.4785 48.1696C55.4785 48.1237 55.495 48.0842 55.5279 48.0513C55.5608 48.0184 55.6002 48.002 55.6462 48.002C55.6921 48.002 55.7316 48.0184 55.7645 48.0513C55.7974 48.0842 55.8138 48.1237 55.8138 48.1696C55.8138 48.2 55.8061 48.228 55.7906 48.2534C55.7757 48.2789 55.7555 48.2994 55.73 48.3149C55.7052 48.3298 55.6772 48.3373 55.6462 48.3373Z" fill="#808080"/>
<path d="M54.9255 48.3373C54.8795 48.3373 54.8401 48.3208 54.8072 48.2879C54.7743 48.255 54.7578 48.2156 54.7578 48.1696C54.7578 48.1237 54.7743 48.0842 54.8072 48.0513C54.8401 48.0184 54.8795 48.002 54.9255 48.002C54.9714 48.002 55.0109 48.0184 55.0438 48.0513C55.0767 48.0842 55.0931 48.1237 55.0931 48.1696C55.0931 48.2 55.0854 48.228 55.0699 48.2534C55.0549 48.2789 55.0348 48.2994 55.0093 48.3149C54.9845 48.3298 54.9565 48.3373 54.9255 48.3373Z" fill="#808080"/>
<path d="M54.2048 48.3373C54.1588 48.3373 54.1194 48.3208 54.0865 48.2879C54.0536 48.255 54.0371 48.2156 54.0371 48.1696C54.0371 48.1237 54.0536 48.0842 54.0865 48.0513C54.1194 48.0184 54.1588 48.002 54.2048 48.002C54.2507 48.002 54.2902 48.0184 54.3231 48.0513C54.356 48.0842 54.3724 48.1237 54.3724 48.1696C54.3724 48.2 54.3647 48.228 54.3491 48.2534C54.3342 48.2789 54.3141 48.2994 54.2886 48.3149C54.2638 48.3298 54.2358 48.3373 54.2048 48.3373Z" fill="#808080"/>
<path d="M53.4821 48.3373C53.4362 48.3373 53.3967 48.3208 53.3638 48.2879C53.3309 48.255 53.3145 48.2156 53.3145 48.1696C53.3145 48.1237 53.3309 48.0842 53.3638 48.0513C53.3967 48.0184 53.4362 48.002 53.4821 48.002C53.5281 48.002 53.5675 48.0184 53.6004 48.0513C53.6333 48.0842 53.6498 48.1237 53.6498 48.1696C53.6498 48.2 53.642 48.228 53.6265 48.2534C53.6116 48.2789 53.5914 48.2994 53.5659 48.3149C53.5411 48.3298 53.5132 48.3373 53.4821 48.3373Z" fill="#808080"/>
<path d="M52.7595 48.3373C52.7135 48.3373 52.6741 48.3208 52.6412 48.2879C52.6083 48.255 52.5918 48.2156 52.5918 48.1696C52.5918 48.1237 52.6083 48.0842 52.6412 48.0513C52.6741 48.0184 52.7135 48.002 52.7595 48.002C52.8054 48.002 52.8448 48.0184 52.8778 48.0513C52.9107 48.0842 52.9271 48.1237 52.9271 48.1696C52.9271 48.2 52.9194 48.228 52.9038 48.2534C52.8889 48.2789 52.8688 48.2994 52.8433 48.3149C52.8185 48.3298 52.7905 48.3373 52.7595 48.3373Z" fill="#808080"/>
<path d="M52.0368 48.3373C51.9909 48.3373 51.9514 48.3208 51.9185 48.2879C51.8856 48.255 51.8691 48.2156 51.8691 48.1696C51.8691 48.1237 51.8856 48.0842 51.9185 48.0513C51.9514 48.0184 51.9909 48.002 52.0368 48.002C52.0828 48.002 52.1222 48.0184 52.1551 48.0513C52.188 48.0842 52.2045 48.1237 52.2045 48.1696C52.2045 48.2 52.1967 48.228 52.1812 48.2534C52.1663 48.2789 52.1461 48.2994 52.1206 48.3149C52.0958 48.3298 52.0679 48.3373 52.0368 48.3373Z" fill="#808080"/>
<path d="M51.3141 48.3373C51.2682 48.3373 51.2288 48.3208 51.1959 48.2879C51.1629 48.255 51.1465 48.2156 51.1465 48.1696C51.1465 48.1237 51.1629 48.0842 51.1959 48.0513C51.2288 48.0184 51.2682 48.002 51.3141 48.002C51.3601 48.002 51.3995 48.0184 51.4324 48.0513C51.4654 48.0842 51.4818 48.1237 51.4818 48.1696C51.4818 48.2 51.474 48.228 51.4585 48.2534C51.4436 48.2789 51.4234 48.2994 51.398 48.3149C51.3731 48.3298 51.3452 48.3373 51.3141 48.3373Z" fill="#808080"/>
<path d="M50.5954 48.3373C50.5494 48.3373 50.51 48.3208 50.4771 48.2879C50.4442 48.255 50.4277 48.2156 50.4277 48.1696C50.4277 48.1237 50.4442 48.0842 50.4771 48.0513C50.51 48.0184 50.5494 48.002 50.5954 48.002C50.6413 48.002 50.6808 48.0184 50.7137 48.0513C50.7466 48.0842 50.7631 48.1237 50.7631 48.1696C50.7631 48.2 50.7553 48.228 50.7398 48.2534C50.7249 48.2789 50.7047 48.2994 50.6792 48.3149C50.6544 48.3298 50.6264 48.3373 50.5954 48.3373Z" fill="#808080"/>
<path d="M49.8708 48.3373C49.8248 48.3373 49.7854 48.3208 49.7525 48.2879C49.7196 48.255 49.7031 48.2156 49.7031 48.1696C49.7031 48.1237 49.7196 48.0842 49.7525 48.0513C49.7854 48.0184 49.8248 48.002 49.8708 48.002C49.9167 48.002 49.9562 48.0184 49.9891 48.0513C50.022 48.0842 50.0384 48.1237 50.0384 48.1696C50.0384 48.2 50.0307 48.228 50.0152 48.2534C50.0003 48.2789 49.9801 48.2994 49.9546 48.3149C49.9298 48.3298 49.9018 48.3373 49.8708 48.3373Z" fill="#808080"/>
<path d="M49.1462 48.3373C49.1002 48.3373 49.0608 48.3208 49.0279 48.2879C48.995 48.255 48.9785 48.2156 48.9785 48.1696C48.9785 48.1237 48.995 48.0842 49.0279 48.0513C49.0608 48.0184 49.1002 48.002 49.1462 48.002C49.1921 48.002 49.2316 48.0184 49.2645 48.0513C49.2974 48.0842 49.3138 48.1237 49.3138 48.1696C49.3138 48.2 49.3061 48.228 49.2906 48.2534C49.2757 48.2789 49.2555 48.2994 49.23 48.3149C49.2052 48.3298 49.1772 48.3373 49.1462 48.3373Z" fill="#808080"/>
<path d="M48.4255 48.3373C48.3795 48.3373 48.3401 48.3208 48.3072 48.2879C48.2743 48.255 48.2578 48.2156 48.2578 48.1696C48.2578 48.1237 48.2743 48.0842 48.3072 48.0513C48.3401 48.0184 48.3795 48.002 48.4255 48.002C48.4714 48.002 48.5109 48.0184 48.5438 48.0513C48.5767 48.0842 48.5931 48.1237 48.5931 48.1696C48.5931 48.2 48.5854 48.228 48.5699 48.2534C48.5549 48.2789 48.5348 48.2994 48.5093 48.3149C48.4845 48.3298 48.4565 48.3373 48.4255 48.3373Z" fill="#808080"/>
<path d="M47.7028 48.3373C47.6569 48.3373 47.6174 48.3208 47.5845 48.2879C47.5516 48.255 47.5352 48.2156 47.5352 48.1696C47.5352 48.1237 47.5516 48.0842 47.5845 48.0513C47.6174 48.0184 47.6569 48.002 47.7028 48.002C47.7488 48.002 47.7882 48.0184 47.8211 48.0513C47.854 48.0842 47.8705 48.1237 47.8705 48.1696C47.8705 48.2 47.8627 48.228 47.8472 48.2534C47.8323 48.2789 47.8121 48.2994 47.7867 48.3149C47.7618 48.3298 47.7339 48.3373 47.7028 48.3373Z" fill="#808080"/>
<path d="M46.9821 48.3373C46.9362 48.3373 46.8967 48.3208 46.8638 48.2879C46.8309 48.255 46.8145 48.2156 46.8145 48.1696C46.8145 48.1237 46.8309 48.0842 46.8638 48.0513C46.8967 48.0184 46.9362 48.002 46.9821 48.002C47.0281 48.002 47.0675 48.0184 47.1004 48.0513C47.1333 48.0842 47.1498 48.1237 47.1498 48.1696C47.1498 48.2 47.142 48.228 47.1265 48.2534C47.1116 48.2789 47.0914 48.2994 47.0659 48.3149C47.0411 48.3298 47.0132 48.3373 46.9821 48.3373Z" fill="#808080"/>
<path d="M46.2595 48.3373C46.2135 48.3373 46.1741 48.3208 46.1412 48.2879C46.1083 48.255 46.0918 48.2156 46.0918 48.1696C46.0918 48.1237 46.1083 48.0842 46.1412 48.0513C46.1741 48.0184 46.2135 48.002 46.2595 48.002C46.3054 48.002 46.3448 48.0184 46.3778 48.0513C46.4107 48.0842 46.4271 48.1237 46.4271 48.1696C46.4271 48.2 46.4194 48.228 46.4038 48.2534C46.3889 48.2789 46.3688 48.2994 46.3433 48.3149C46.3185 48.3298 46.2905 48.3373 46.2595 48.3373Z" fill="#808080"/>
<path d="M45.5388 48.3373C45.4928 48.3373 45.4534 48.3208 45.4205 48.2879C45.3875 48.255 45.3711 48.2156 45.3711 48.1696C45.3711 48.1237 45.3875 48.0842 45.4205 48.0513C45.4534 48.0184 45.4928 48.002 45.5388 48.002C45.5847 48.002 45.6241 48.0184 45.6571 48.0513C45.69 48.0842 45.7064 48.1237 45.7064 48.1696C45.7064 48.2 45.6987 48.228 45.6831 48.2534C45.6682 48.2789 45.648 48.2994 45.6226 48.3149C45.5977 48.3298 45.5698 48.3373 45.5388 48.3373Z" fill="#808080"/>
<path d="M44.8141 48.3373C44.7682 48.3373 44.7288 48.3208 44.6959 48.2879C44.6629 48.255 44.6465 48.2156 44.6465 48.1696C44.6465 48.1237 44.6629 48.0842 44.6959 48.0513C44.7288 48.0184 44.7682 48.002 44.8141 48.002C44.8601 48.002 44.8995 48.0184 44.9324 48.0513C44.9654 48.0842 44.9818 48.1237 44.9818 48.1696C44.9818 48.2 44.974 48.228 44.9585 48.2534C44.9436 48.2789 44.9234 48.2994 44.898 48.3149C44.8731 48.3298 44.8452 48.3373 44.8141 48.3373Z" fill="#808080"/>
<path d="M44.0934 48.3373C44.0475 48.3373 44.0081 48.3208 43.9751 48.2879C43.9422 48.255 43.9258 48.2156 43.9258 48.1696C43.9258 48.1237 43.9422 48.0842 43.9751 48.0513C44.0081 48.0184 44.0475 48.002 44.0934 48.002C44.1394 48.002 44.1788 48.0184 44.2117 48.0513C44.2447 48.0842 44.2611 48.1237 44.2611 48.1696C44.2611 48.2 44.2533 48.228 44.2378 48.2534C44.2229 48.2789 44.2027 48.2994 44.1773 48.3149C44.1524 48.3298 44.1245 48.3373 44.0934 48.3373Z" fill="#808080"/>
<path d="M43.3747 48.3373C43.3287 48.3373 43.2893 48.3208 43.2564 48.2879C43.2235 48.255 43.207 48.2156 43.207 48.1696C43.207 48.1237 43.2235 48.0842 43.2564 48.0513C43.2893 48.0184 43.3287 48.002 43.3747 48.002C43.4206 48.002 43.4601 48.0184 43.493 48.0513C43.5259 48.0842 43.5424 48.1237 43.5424 48.1696C43.5424 48.2 43.5346 48.228 43.5191 48.2534C43.5042 48.2789 43.484 48.2994 43.4585 48.3149C43.4337 48.3298 43.4057 48.3373 43.3747 48.3373Z" fill="#808080"/>
<path d="M42.6501 48.3373C42.6041 48.3373 42.5647 48.3208 42.5318 48.2879C42.4989 48.255 42.4824 48.2156 42.4824 48.1696C42.4824 48.1237 42.4989 48.0842 42.5318 48.0513C42.5647 48.0184 42.6041 48.002 42.6501 48.002C42.696 48.002 42.7355 48.0184 42.7684 48.0513C42.8013 48.0842 42.8177 48.1237 42.8177 48.1696C42.8177 48.2 42.81 48.228 42.7945 48.2534C42.7796 48.2789 42.7594 48.2994 42.7339 48.3149C42.7091 48.3298 42.6811 48.3373 42.6501 48.3373Z" fill="#808080"/>
<path d="M41.9274 48.3373C41.8815 48.3373 41.842 48.3208 41.8091 48.2879C41.7762 48.255 41.7598 48.2156 41.7598 48.1696C41.7598 48.1237 41.7762 48.0842 41.8091 48.0513C41.842 48.0184 41.8815 48.002 41.9274 48.002C41.9734 48.002 42.0128 48.0184 42.0457 48.0513C42.0786 48.0842 42.0951 48.1237 42.0951 48.1696C42.0951 48.2 42.0873 48.228 42.0718 48.2534C42.0569 48.2789 42.0367 48.2994 42.0113 48.3149C41.9864 48.3298 41.9585 48.3373 41.9274 48.3373Z" fill="#808080"/>
<path d="M41.2028 48.3373C41.1569 48.3373 41.1174 48.3208 41.0845 48.2879C41.0516 48.255 41.0352 48.2156 41.0352 48.1696C41.0352 48.1237 41.0516 48.0842 41.0845 48.0513C41.1174 48.0184 41.1569 48.002 41.2028 48.002C41.2488 48.002 41.2882 48.0184 41.3211 48.0513C41.354 48.0842 41.3705 48.1237 41.3705 48.1696C41.3705 48.2 41.3627 48.228 41.3472 48.2534C41.3323 48.2789 41.3121 48.2994 41.2867 48.3149C41.2618 48.3298 41.2339 48.3373 41.2028 48.3373Z" fill="#808080"/>
<path d="M40.4841 48.3373C40.4381 48.3373 40.3987 48.3208 40.3658 48.2879C40.3329 48.255 40.3164 48.2156 40.3164 48.1696C40.3164 48.1237 40.3329 48.0842 40.3658 48.0513C40.3987 48.0184 40.4381 48.002 40.4841 48.002C40.53 48.002 40.5695 48.0184 40.6024 48.0513C40.6353 48.0842 40.6517 48.1237 40.6517 48.1696C40.6517 48.2 40.644 48.228 40.6284 48.2534C40.6135 48.2789 40.5934 48.2994 40.5679 48.3149C40.5431 48.3298 40.5151 48.3373 40.4841 48.3373Z" fill="#808080"/>
<path d="M61.8864 53.5812C61.8405 53.5812 61.801 53.5647 61.7681 53.5318C61.7352 53.4989 61.7188 53.4595 61.7188 53.4135C61.7188 53.3676 61.7352 53.3281 61.7681 53.2952C61.801 53.2623 61.8405 53.2458 61.8864 53.2458C61.9324 53.2458 61.9718 53.2623 62.0047 53.2952C62.0376 53.3281 62.0541 53.3676 62.0541 53.4135C62.0541 53.4439 62.0463 53.4719 62.0308 53.4973C62.0159 53.5228 61.9957 53.5433 61.9702 53.5588C61.9454 53.5737 61.9175 53.5812 61.8864 53.5812Z" fill="#808080"/>
<path d="M61.1657 53.5812C61.1198 53.5812 61.0803 53.5647 61.0474 53.5318C61.0145 53.4989 60.998 53.4595 60.998 53.4135C60.998 53.3676 61.0145 53.3281 61.0474 53.2952C61.0803 53.2623 61.1198 53.2458 61.1657 53.2458C61.2117 53.2458 61.2511 53.2623 61.284 53.2952C61.3169 53.3281 61.3334 53.3676 61.3334 53.4135C61.3334 53.4439 61.3256 53.4719 61.3101 53.4973C61.2952 53.5228 61.275 53.5433 61.2495 53.5588C61.2247 53.5737 61.1968 53.5812 61.1657 53.5812Z" fill="#808080"/>
<path d="M60.4431 53.5812C60.3971 53.5812 60.3577 53.5647 60.3248 53.5318C60.2918 53.4989 60.2754 53.4595 60.2754 53.4135C60.2754 53.3676 60.2918 53.3281 60.3248 53.2952C60.3577 53.2623 60.3971 53.2458 60.4431 53.2458C60.489 53.2458 60.5284 53.2623 60.5613 53.2952C60.5943 53.3281 60.6107 53.3676 60.6107 53.4135C60.6107 53.4439 60.603 53.4719 60.5874 53.4973C60.5725 53.5228 60.5523 53.5433 60.5269 53.5588C60.502 53.5737 60.4741 53.5812 60.4431 53.5812Z" fill="#808080"/>
<path d="M59.7223 53.5812C59.6764 53.5812 59.637 53.5647 59.6041 53.5318C59.5711 53.4989 59.5547 53.4595 59.5547 53.4135C59.5547 53.3676 59.5711 53.3281 59.6041 53.2952C59.637 53.2623 59.6764 53.2458 59.7223 53.2458C59.7683 53.2458 59.8077 53.2623 59.8406 53.2952C59.8736 53.3281 59.89 53.3676 59.89 53.4135C59.89 53.4439 59.8822 53.4719 59.8667 53.4973C59.8518 53.5228 59.8316 53.5433 59.8062 53.5588C59.7813 53.5737 59.7534 53.5812 59.7223 53.5812Z" fill="#808080"/>
<path d="M58.9997 53.5812C58.9537 53.5812 58.9143 53.5647 58.8814 53.5318C58.8485 53.4989 58.832 53.4595 58.832 53.4135C58.832 53.3676 58.8485 53.3281 58.8814 53.2952C58.9143 53.2623 58.9537 53.2458 58.9997 53.2458C59.0456 53.2458 59.0851 53.2623 59.118 53.2952C59.1509 53.3281 59.1674 53.3676 59.1674 53.4135C59.1674 53.4439 59.1596 53.4719 59.1441 53.4973C59.1292 53.5228 59.109 53.5433 59.0835 53.5588C59.0587 53.5737 59.0307 53.5812 58.9997 53.5812Z" fill="#808080"/>
<path d="M58.279 53.5812C58.233 53.5812 58.1936 53.5647 58.1607 53.5318C58.1278 53.4989 58.1113 53.4595 58.1113 53.4135C58.1113 53.3676 58.1278 53.3281 58.1607 53.2952C58.1936 53.2623 58.233 53.2458 58.279 53.2458C58.3249 53.2458 58.3644 53.2623 58.3973 53.2952C58.4302 53.3281 58.4467 53.3676 58.4467 53.4135C58.4467 53.4439 58.4389 53.4719 58.4234 53.4973C58.4085 53.5228 58.3883 53.5433 58.3628 53.5588C58.338 53.5737 58.31 53.5812 58.279 53.5812Z" fill="#808080"/>
<path d="M57.5544 53.5812C57.5084 53.5812 57.469 53.5647 57.4361 53.5318C57.4032 53.4989 57.3867 53.4595 57.3867 53.4135C57.3867 53.3676 57.4032 53.3281 57.4361 53.2952C57.469 53.2623 57.5084 53.2458 57.5544 53.2458C57.6003 53.2458 57.6398 53.2623 57.6727 53.2952C57.7056 53.3281 57.722 53.3676 57.722 53.4135C57.722 53.4439 57.7143 53.4719 57.6988 53.4973C57.6839 53.5228 57.6637 53.5433 57.6382 53.5588C57.6134 53.5737 57.5854 53.5812 57.5544 53.5812Z" fill="#808080"/>
<path d="M56.8298 53.5812C56.7838 53.5812 56.7444 53.5647 56.7115 53.5318C56.6786 53.4989 56.6621 53.4595 56.6621 53.4135C56.6621 53.3676 56.6786 53.3281 56.7115 53.2952C56.7444 53.2623 56.7838 53.2458 56.8298 53.2458C56.8757 53.2458 56.9152 53.2623 56.9481 53.2952C56.981 53.3281 56.9974 53.3676 56.9974 53.4135C56.9974 53.4439 56.9897 53.4719 56.9741 53.4973C56.9592 53.5228 56.9391 53.5433 56.9136 53.5588C56.8888 53.5737 56.8608 53.5812 56.8298 53.5812Z" fill="#808080"/>
<path d="M56.111 53.5812C56.0651 53.5812 56.0256 53.5647 55.9927 53.5318C55.9598 53.4989 55.9434 53.4595 55.9434 53.4135C55.9434 53.3676 55.9598 53.3281 55.9927 53.2952C56.0256 53.2623 56.0651 53.2458 56.111 53.2458C56.157 53.2458 56.1964 53.2623 56.2293 53.2952C56.2622 53.3281 56.2787 53.3676 56.2787 53.4135C56.2787 53.4439 56.2709 53.4719 56.2554 53.4973C56.2405 53.5228 56.2203 53.5433 56.1949 53.5588C56.17 53.5737 56.1421 53.5812 56.111 53.5812Z" fill="#808080"/>
<path d="M55.3903 53.5812C55.3444 53.5812 55.3049 53.5647 55.272 53.5318C55.2391 53.4989 55.2227 53.4595 55.2227 53.4135C55.2227 53.3676 55.2391 53.3281 55.272 53.2952C55.3049 53.2623 55.3444 53.2458 55.3903 53.2458C55.4363 53.2458 55.4757 53.2623 55.5086 53.2952C55.5415 53.3281 55.558 53.3676 55.558 53.4135C55.558 53.4439 55.5502 53.4719 55.5347 53.4973C55.5198 53.5228 55.4996 53.5433 55.4742 53.5588C55.4493 53.5737 55.4214 53.5812 55.3903 53.5812Z" fill="#808080"/>
<path d="M54.6657 53.5812C54.6198 53.5812 54.5803 53.5647 54.5474 53.5318C54.5145 53.4989 54.498 53.4595 54.498 53.4135C54.498 53.3676 54.5145 53.3281 54.5474 53.2952C54.5803 53.2623 54.6198 53.2458 54.6657 53.2458C54.7117 53.2458 54.7511 53.2623 54.784 53.2952C54.8169 53.3281 54.8334 53.3676 54.8334 53.4135C54.8334 53.4439 54.8256 53.4719 54.8101 53.4973C54.7952 53.5228 54.775 53.5433 54.7495 53.5588C54.7247 53.5737 54.6968 53.5812 54.6657 53.5812Z" fill="#808080"/>
<path d="M53.945 53.5812C53.8991 53.5812 53.8596 53.5647 53.8267 53.5318C53.7938 53.4989 53.7773 53.4595 53.7773 53.4135C53.7773 53.3676 53.7938 53.3281 53.8267 53.2952C53.8596 53.2623 53.8991 53.2458 53.945 53.2458C53.991 53.2458 54.0304 53.2623 54.0633 53.2952C54.0962 53.3281 54.1127 53.3676 54.1127 53.4135C54.1127 53.4439 54.1049 53.4719 54.0894 53.4973C54.0745 53.5228 54.0543 53.5433 54.0288 53.5588C54.004 53.5737 53.9761 53.5812 53.945 53.5812Z" fill="#808080"/>
<path d="M53.2224 53.5812C53.1764 53.5812 53.137 53.5647 53.1041 53.5318C53.0711 53.4989 53.0547 53.4595 53.0547 53.4135C53.0547 53.3676 53.0711 53.3281 53.1041 53.2952C53.137 53.2623 53.1764 53.2458 53.2224 53.2458C53.2683 53.2458 53.3077 53.2623 53.3406 53.2952C53.3736 53.3281 53.39 53.3676 53.39 53.4135C53.39 53.4439 53.3823 53.4719 53.3667 53.4973C53.3518 53.5228 53.3316 53.5433 53.3062 53.5588C53.2813 53.5737 53.2534 53.5812 53.2224 53.5812Z" fill="#808080"/>
<path d="M52.4997 53.5812C52.4537 53.5812 52.4143 53.5647 52.3814 53.5318C52.3485 53.4989 52.332 53.4595 52.332 53.4135C52.332 53.3676 52.3485 53.3281 52.3814 53.2952C52.4143 53.2623 52.4537 53.2458 52.4997 53.2458C52.5456 53.2458 52.5851 53.2623 52.618 53.2952C52.6509 53.3281 52.6674 53.3676 52.6674 53.4135C52.6674 53.4439 52.6596 53.4719 52.6441 53.4973C52.6292 53.5228 52.609 53.5433 52.5835 53.5588C52.5587 53.5737 52.5307 53.5812 52.4997 53.5812Z" fill="#808080"/>
<path d="M51.779 53.5812C51.733 53.5812 51.6936 53.5647 51.6607 53.5318C51.6278 53.4989 51.6113 53.4595 51.6113 53.4135C51.6113 53.3676 51.6278 53.3281 51.6607 53.2952C51.6936 53.2623 51.733 53.2458 51.779 53.2458C51.8249 53.2458 51.8644 53.2623 51.8973 53.2952C51.9302 53.3281 51.9467 53.3676 51.9467 53.4135C51.9467 53.4439 51.9389 53.4719 51.9234 53.4973C51.9085 53.5228 51.8883 53.5433 51.8628 53.5588C51.838 53.5737 51.81 53.5812 51.779 53.5812Z" fill="#808080"/>
<path d="M51.0563 53.5812C51.0104 53.5812 50.971 53.5647 50.938 53.5318C50.9051 53.4989 50.8887 53.4595 50.8887 53.4135C50.8887 53.3676 50.9051 53.3281 50.938 53.2952C50.971 53.2623 51.0104 53.2458 51.0563 53.2458C51.1023 53.2458 51.1417 53.2623 51.1746 53.2952C51.2075 53.3281 51.224 53.3676 51.224 53.4135C51.224 53.4439 51.2162 53.4719 51.2007 53.4973C51.1858 53.5228 51.1656 53.5433 51.1402 53.5588C51.1153 53.5737 51.0874 53.5812 51.0563 53.5812Z" fill="#808080"/>
<path d="M50.3337 53.5812C50.2877 53.5812 50.2483 53.5647 50.2154 53.5318C50.1825 53.4989 50.166 53.4595 50.166 53.4135C50.166 53.3676 50.1825 53.3281 50.2154 53.2952C50.2483 53.2623 50.2877 53.2458 50.3337 53.2458C50.3796 53.2458 50.4191 53.2623 50.452 53.2952C50.4849 53.3281 50.5013 53.3676 50.5013 53.4135C50.5013 53.4439 50.4936 53.4719 50.4781 53.4973C50.4632 53.5228 50.443 53.5433 50.4175 53.5588C50.3927 53.5737 50.3647 53.5812 50.3337 53.5812Z" fill="#808080"/>
<path d="M49.611 53.5812C49.5651 53.5812 49.5256 53.5647 49.4927 53.5318C49.4598 53.4989 49.4434 53.4595 49.4434 53.4135C49.4434 53.3676 49.4598 53.3281 49.4927 53.2952C49.5256 53.2623 49.5651 53.2458 49.611 53.2458C49.657 53.2458 49.6964 53.2623 49.7293 53.2952C49.7622 53.3281 49.7787 53.3676 49.7787 53.4135C49.7787 53.4439 49.7709 53.4719 49.7554 53.4973C49.7405 53.5228 49.7203 53.5433 49.6949 53.5588C49.67 53.5737 49.6421 53.5812 49.611 53.5812Z" fill="#808080"/>
<path d="M48.8903 53.5812C48.8444 53.5812 48.8049 53.5647 48.772 53.5318C48.7391 53.4989 48.7227 53.4595 48.7227 53.4135C48.7227 53.3676 48.7391 53.3281 48.772 53.2952C48.8049 53.2623 48.8444 53.2458 48.8903 53.2458C48.9363 53.2458 48.9757 53.2623 49.0086 53.2952C49.0415 53.3281 49.058 53.3676 49.058 53.4135C49.058 53.4439 49.0502 53.4719 49.0347 53.4973C49.0198 53.5228 48.9996 53.5433 48.9742 53.5588C48.9493 53.5737 48.9214 53.5812 48.8903 53.5812Z" fill="#808080"/>
<path d="M48.1696 53.5812C48.1237 53.5812 48.0842 53.5647 48.0513 53.5318C48.0184 53.4989 48.002 53.4595 48.002 53.4135C48.002 53.3676 48.0184 53.3281 48.0513 53.2952C48.0842 53.2623 48.1237 53.2458 48.1696 53.2458C48.2156 53.2458 48.255 53.2623 48.2879 53.2952C48.3208 53.3281 48.3373 53.3676 48.3373 53.4135C48.3373 53.4439 48.3295 53.4719 48.314 53.4973C48.2991 53.5228 48.2789 53.5433 48.2534 53.5588C48.2286 53.5737 48.2007 53.5812 48.1696 53.5812Z" fill="#808080"/>
<path d="M47.447 53.5812C47.401 53.5812 47.3616 53.5647 47.3287 53.5318C47.2958 53.4989 47.2793 53.4595 47.2793 53.4135C47.2793 53.3676 47.2958 53.3281 47.3287 53.2952C47.3616 53.2623 47.401 53.2458 47.447 53.2458C47.4929 53.2458 47.5323 53.2623 47.5653 53.2952C47.5982 53.3281 47.6146 53.3676 47.6146 53.4135C47.6146 53.4439 47.6069 53.4719 47.5913 53.4973C47.5764 53.5228 47.5563 53.5433 47.5308 53.5588C47.506 53.5737 47.478 53.5812 47.447 53.5812Z" fill="#808080"/>
<path d="M46.7243 53.5812C46.6784 53.5812 46.6389 53.5647 46.606 53.5318C46.5731 53.4989 46.5566 53.4595 46.5566 53.4135C46.5566 53.3676 46.5731 53.3281 46.606 53.2952C46.6389 53.2623 46.6784 53.2458 46.7243 53.2458C46.7703 53.2458 46.8097 53.2623 46.8426 53.2952C46.8755 53.3281 46.892 53.3676 46.892 53.4135C46.892 53.4439 46.8842 53.4719 46.8687 53.4973C46.8538 53.5228 46.8336 53.5433 46.8081 53.5588C46.7833 53.5737 46.7554 53.5812 46.7243 53.5812Z" fill="#808080"/>
<path d="M45.9997 53.5812C45.9537 53.5812 45.9143 53.5647 45.8814 53.5318C45.8485 53.4989 45.832 53.4595 45.832 53.4135C45.832 53.3676 45.8485 53.3281 45.8814 53.2952C45.9143 53.2623 45.9537 53.2458 45.9997 53.2458C46.0456 53.2458 46.0851 53.2623 46.118 53.2952C46.1509 53.3281 46.1674 53.3676 46.1674 53.4135C46.1674 53.4439 46.1596 53.4719 46.1441 53.4973C46.1292 53.5228 46.109 53.5433 46.0835 53.5588C46.0587 53.5737 46.0307 53.5812 45.9997 53.5812Z" fill="#808080"/>
<path d="M45.279 53.5812C45.233 53.5812 45.1936 53.5647 45.1607 53.5318C45.1278 53.4989 45.1113 53.4595 45.1113 53.4135C45.1113 53.3676 45.1278 53.3281 45.1607 53.2952C45.1936 53.2623 45.233 53.2458 45.279 53.2458C45.3249 53.2458 45.3644 53.2623 45.3973 53.2952C45.4302 53.3281 45.4467 53.3676 45.4467 53.4135C45.4467 53.4439 45.4389 53.4719 45.4234 53.4973C45.4085 53.5228 45.3883 53.5433 45.3628 53.5588C45.338 53.5737 45.31 53.5812 45.279 53.5812Z" fill="#808080"/>
<path d="M44.5602 53.5812C44.5143 53.5812 44.4749 53.5647 44.4419 53.5318C44.409 53.4989 44.3926 53.4595 44.3926 53.4135C44.3926 53.3676 44.409 53.3281 44.4419 53.2952C44.4749 53.2623 44.5143 53.2458 44.5602 53.2458C44.6062 53.2458 44.6456 53.2623 44.6785 53.2952C44.7114 53.3281 44.7279 53.3676 44.7279 53.4135C44.7279 53.4439 44.7201 53.4719 44.7046 53.4973C44.6897 53.5228 44.6695 53.5433 44.6441 53.5588C44.6192 53.5737 44.5913 53.5812 44.5602 53.5812Z" fill="#808080"/>
<path d="M43.8356 53.5812C43.7897 53.5812 43.7502 53.5647 43.7173 53.5318C43.6844 53.4989 43.668 53.4595 43.668 53.4135C43.668 53.3676 43.6844 53.3281 43.7173 53.2952C43.7502 53.2623 43.7897 53.2458 43.8356 53.2458C43.8816 53.2458 43.921 53.2623 43.9539 53.2952C43.9868 53.3281 44.0033 53.3676 44.0033 53.4135C44.0033 53.4439 43.9955 53.4719 43.98 53.4973C43.9651 53.5228 43.9449 53.5433 43.9195 53.5588C43.8946 53.5737 43.8667 53.5812 43.8356 53.5812Z" fill="#808080"/>
<path d="M43.113 53.5812C43.067 53.5812 43.0276 53.5647 42.9947 53.5318C42.9618 53.4989 42.9453 53.4595 42.9453 53.4135C42.9453 53.3676 42.9618 53.3281 42.9947 53.2952C43.0276 53.2623 43.067 53.2458 43.113 53.2458C43.1589 53.2458 43.1984 53.2623 43.2313 53.2952C43.2642 53.3281 43.2806 53.3676 43.2806 53.4135C43.2806 53.4439 43.2729 53.4719 43.2574 53.4973C43.2424 53.5228 43.2223 53.5433 43.1968 53.5588C43.172 53.5737 43.144 53.5812 43.113 53.5812Z" fill="#808080"/>
<path d="M42.3884 53.5812C42.3424 53.5812 42.303 53.5647 42.2701 53.5318C42.2372 53.4989 42.2207 53.4595 42.2207 53.4135C42.2207 53.3676 42.2372 53.3281 42.2701 53.2952C42.303 53.2623 42.3424 53.2458 42.3884 53.2458C42.4343 53.2458 42.4737 53.2623 42.5067 53.2952C42.5396 53.3281 42.556 53.3676 42.556 53.4135C42.556 53.4439 42.5483 53.4719 42.5327 53.4973C42.5178 53.5228 42.4977 53.5433 42.4722 53.5588C42.4474 53.5737 42.4194 53.5812 42.3884 53.5812Z" fill="#808080"/>
<path d="M41.6696 53.5812C41.6237 53.5812 41.5842 53.5647 41.5513 53.5318C41.5184 53.4989 41.502 53.4595 41.502 53.4135C41.502 53.3676 41.5184 53.3281 41.5513 53.2952C41.5842 53.2623 41.6237 53.2458 41.6696 53.2458C41.7156 53.2458 41.755 53.2623 41.7879 53.2952C41.8208 53.3281 41.8373 53.3676 41.8373 53.4135C41.8373 53.4439 41.8295 53.4719 41.814 53.4973C41.7991 53.5228 41.7789 53.5433 41.7534 53.5588C41.7286 53.5737 41.7007 53.5812 41.6696 53.5812Z" fill="#808080"/>
<path d="M37.7646 31.5403H17.0508V33.3757H37.7646V31.5403Z" fill="#808080"/>
<path d="M31.9962 36.5225H17.0508V38.3579H31.9962V36.5225Z" fill="#808080"/>
<path d="M41.4354 41.5042H17.0508V43.3395H41.4354V41.5042Z" fill="#808080"/>
<path d="M39.0756 46.4841H17.0508V48.3195H39.0756V46.4841Z" fill="#808080"/>
<path d="M40.3861 51.7283H17.3125V53.5637H40.3861V51.7283Z" fill="#808080"/>
</svg>
