<svg width="80" height="80" viewBox="0 0 80 80" fill="none" xmlns="http://www.w3.org/2000/svg">
<g opacity="0.8">
<path d="M38.8013 23.5404C38.8013 23.5404 40.3561 26.9005 38.6495 30.4506L38.1523 30.2336C38.1523 30.2336 39.2705 26.2092 38.5264 23.989C37.7824 21.7689 38.8013 23.5404 38.8013 23.5404Z" fill="#AEC3FF"/>
</g>
<path d="M49.8753 27.2205C49.8158 27.41 49.7678 27.5675 49.7324 27.6829C49.7737 27.524 49.8218 27.3688 49.8753 27.2205Z" fill="#D2E0FF"/>
<path d="M47.3192 57.0339H32.252V63.1543H47.3192V57.0339Z" fill="#143A72"/>
<path d="M52.0554 64.953H27.5137C27.5137 63.9598 28.3188 63.1545 29.3121 63.1545H50.2569C51.2501 63.1546 52.0554 63.9598 52.0554 64.953Z" fill="#1C468A"/>
<path d="M77.9275 57.9681H2.07244C0.927859 57.9681 0 57.0402 0 55.8956V18.0864C0 16.9418 0.927859 16.0139 2.07244 16.0139H77.9275C79.0721 16.0139 80 16.9418 80 18.0864V55.8956C80 57.0402 79.0721 57.9681 77.9275 57.9681Z" fill="#1E4199"/>
<path d="M76.5053 56.4511H3.49437C2.34974 56.4511 1.42188 55.5232 1.42188 54.3786V19.6037C1.42188 18.4591 2.34974 17.5312 3.49437 17.5312H76.5053C77.6499 17.5312 78.5777 18.4591 78.5777 19.6037V54.3786C78.5777 55.5232 77.6499 56.4511 76.5053 56.4511Z" fill="#E1E9F9"/>
<path d="M72.9113 47.4312H4.51758V48.0044H72.9113V47.4312Z" fill="white"/>
<path d="M42.0068 47.4312H4.50977V48.0044H42.0068V47.4312Z" fill="#F77D48"/>
<path d="M40.6387 47.7184C40.6387 47.1802 41.0749 46.7439 41.6131 46.7439C42.1515 46.7439 42.5877 47.1802 42.5877 47.7184C42.5877 48.2566 42.1515 48.693 41.6131 48.693C41.075 48.693 40.6387 48.2566 40.6387 47.7184Z" fill="#F77D48"/>
<path d="M48.2015 40.9182C52.7888 36.3308 52.7888 28.8933 48.2014 24.306C43.6141 19.7186 36.1766 19.7186 31.5893 24.306C27.002 28.8933 27.002 36.3308 31.5893 40.9182C36.1766 45.5055 43.6141 45.5055 48.2015 40.9182Z" fill="#F77D48"/>
<path d="M36.7227 26.4501V38.7739C36.7227 39.4382 37.4837 39.8147 38.0117 39.4117L46.0863 33.2497C46.507 32.9287 46.507 32.2952 46.0863 31.9742L38.0117 25.8122C37.4837 25.4093 36.7227 25.7858 36.7227 26.4501Z" fill="white"/>
<path d="M40.7267 54.5259C42.0913 54.5259 43.1976 53.4197 43.1976 52.0551C43.1976 50.6905 42.0913 49.5842 40.7267 49.5842C39.3621 49.5842 38.2559 50.6905 38.2559 52.0551C38.2559 53.4197 39.3621 54.5259 40.7267 54.5259Z" fill="#F77D48"/>
<path d="M30.6211 52.0551C30.6211 50.6905 31.7274 49.5842 33.092 49.5842C34.4565 49.5842 35.5628 50.6905 35.5628 52.0551C35.5628 53.4197 34.4565 54.5259 33.092 54.5259C31.7274 54.5259 30.6211 53.4197 30.6211 52.0551Z" fill="#F77D48"/>
<path d="M46 52.0551C46 50.6905 47.1063 49.5842 48.4709 49.5842C49.8355 49.5842 50.9417 50.6905 50.9417 52.0551C50.9417 53.4197 49.8355 54.5259 48.4709 54.5259C47.1063 54.5259 46 53.4197 46 52.0551Z" fill="#F77D48"/>
<path d="M33.4647 52.7453V51.3647C33.4647 51.1894 33.2639 51.09 33.1246 51.1964L32.2201 51.8867C32.1089 51.9714 32.1089 52.1386 32.2201 52.2233L33.1246 52.9136C33.2639 53.0199 33.4647 52.9205 33.4647 52.7453Z" fill="white"/>
<path d="M48.043 51.3832V52.7274C48.043 52.9101 48.2523 53.0137 48.3976 52.9028L49.2783 52.2308C49.3941 52.1424 49.3941 51.9682 49.2783 51.8798L48.3976 51.2078C48.2523 51.0969 48.043 51.2005 48.043 51.3832Z" fill="white"/>
<path d="M40.0972 53.1736C39.9421 53.1736 39.8164 53.0479 39.8164 52.8928V51.218C39.8164 51.063 39.9421 50.9373 40.0972 50.9373C40.2523 50.9373 40.3779 51.0629 40.3779 51.218V52.8928C40.378 53.0479 40.2523 53.1736 40.0972 53.1736Z" fill="white"/>
<path d="M41.4643 53.1736C41.3092 53.1736 41.1836 53.0479 41.1836 52.8928V51.218C41.1836 51.063 41.3092 50.9373 41.4643 50.9373C41.6194 50.9373 41.7451 51.0629 41.7451 51.218V52.8928C41.7451 53.0479 41.6194 53.1736 41.4643 53.1736Z" fill="white"/>
<path d="M70.3345 43.7472C70.9947 43.087 70.9947 42.0165 70.3345 41.3563C69.6742 40.696 68.6038 40.696 67.9435 41.3563C67.2833 42.0165 67.2833 43.087 67.9435 43.7472C68.6038 44.4075 69.6742 44.4075 70.3345 43.7472Z" fill="#246AFF"/>
<path d="M72.1661 40.7356C72.0275 40.7356 71.8886 40.6849 71.7797 40.5822C70.8915 39.7452 69.9731 39.3379 69.0487 39.3741C67.6101 39.429 66.5832 40.5388 66.573 40.55C66.364 40.7796 66.008 40.7976 65.7777 40.5893C65.5475 40.381 65.5283 40.0265 65.7358 39.7955C65.7895 39.7356 67.0743 38.3283 68.9913 38.2483C70.2329 38.1961 71.4319 38.7056 72.5527 39.7618C72.7792 39.9752 72.7898 40.3319 72.5764 40.5585C72.4654 40.6762 72.3159 40.7356 72.1661 40.7356Z" fill="#246AFF"/>
<path d="M73.9188 38.2931C73.7801 38.2931 73.6412 38.2423 73.5324 38.1397C72.0574 36.7499 70.5192 36.0752 68.9636 36.1379C66.5438 36.2336 64.8366 38.0882 64.8198 38.107C64.6111 38.3373 64.2549 38.3558 64.0242 38.1476C63.7934 37.9395 63.7744 37.5843 63.9819 37.3531C64.0632 37.2624 66.0074 35.1332 68.9057 35.0123C70.7812 34.9335 72.5977 35.7103 74.3054 37.3194C74.532 37.5329 74.5425 37.8896 74.3291 38.1161C74.2182 38.2336 74.0686 38.2931 73.9188 38.2931Z" fill="#246AFF"/>
<path d="M75.7696 35.9143C75.6309 35.9143 75.492 35.8634 75.3832 35.7608C73.2899 33.7883 71.1004 32.8323 68.8777 32.9229C65.4241 33.0615 63.0004 35.7012 62.9763 35.7278C62.7678 35.9586 62.4118 35.9772 62.1806 35.769C61.9497 35.561 61.9305 35.2055 62.1382 34.9742C62.2487 34.8513 64.8873 31.9612 68.8196 31.7971C71.362 31.6908 73.83 32.7487 76.1561 34.9406C76.3826 35.154 76.3932 35.5106 76.1798 35.7372C76.069 35.8549 75.9194 35.9143 75.7696 35.9143Z" fill="#246AFF"/>
</svg>
