<svg width="64" height="64" viewBox="0 0 64 64" fill="none" xmlns="http://www.w3.org/2000/svg">
<rect width="64" height="64" rx="32" fill="#FFC700"/>
<path d="M33.458 45.6533C33.4446 45.6639 33.4332 45.6744 33.4229 45.6836C33.5189 45.7685 33.6943 45.8802 33.9727 45.9893C34.5484 46.2148 35.4004 46.373 36.3828 46.373C37.3654 46.373 38.2172 46.2156 38.793 45.9902C39.0828 45.8768 39.2623 45.761 39.3555 45.6748C39.4464 45.5905 39.3968 45.5928 39.3965 45.6836C39.3965 45.6911 39.3977 45.6991 39.3984 45.7061L40.5869 44.6133C40.8357 44.8784 41.0398 45.2409 41.04 45.6836C41.04 46.1901 40.7749 46.5888 40.4785 46.8633C40.1835 47.1364 39.8011 47.3449 39.3975 47.5029C38.5851 47.8209 37.5188 48 36.3828 48C35.2466 48 34.1805 47.8211 33.3682 47.5029C32.9645 47.3448 32.582 47.1363 32.2871 46.8633C31.9909 46.5891 31.7256 46.1901 31.7256 45.6836C31.7259 45.0968 32.0787 44.6602 32.4346 44.3799L33.458 45.6533ZM43.3203 45.6533C43.3069 45.6639 43.2955 45.6744 43.2852 45.6836C43.3813 45.7685 43.5576 45.8802 43.8359 45.9893C44.4117 46.2147 45.2639 46.373 46.2461 46.373C47.2282 46.373 48.0796 46.2155 48.6553 45.9902C48.9455 45.8766 49.1256 45.761 49.2188 45.6748C49.3097 45.5905 49.26 45.5929 49.2598 45.6836C49.2598 45.6911 49.2609 45.699 49.2617 45.7061L50.4492 44.6133C50.6981 44.8785 50.9031 45.2408 50.9033 45.6836C50.9033 46.1901 50.6372 46.5888 50.3408 46.8633C50.046 47.1362 49.6642 47.3449 49.2607 47.5029C48.4485 47.8209 47.382 48 46.2461 48C45.1099 48 44.0428 47.8211 43.2305 47.5029C42.827 47.3449 42.4452 47.136 42.1504 46.8633C41.8541 46.5891 41.5879 46.1901 41.5879 45.6836C41.5882 45.0967 41.9419 44.6602 42.2979 44.3799L43.3203 45.6533ZM31.999 36.6104C33.4695 36.6104 34.7815 37.2856 35.6338 38.3369C35.9176 38.6872 35.8615 39.1993 35.5078 39.4805C35.1538 39.7617 34.6356 39.7049 34.3516 39.3545C33.7979 38.6717 32.9497 38.2373 31.999 38.2373C30.3349 38.2375 28.9855 39.5725 28.9854 41.2197C28.9854 42.5697 29.8925 43.7121 31.1377 44.0791C31.5727 44.2073 31.8208 44.6612 31.6914 45.0918C31.5618 45.5222 31.1038 45.7677 30.6689 45.6396C28.7457 45.073 27.3418 43.3093 27.3418 41.2197C27.342 38.6739 29.427 36.6106 31.999 36.6104ZM36.3828 39.8643C37.5259 39.8643 38.6001 40.0589 39.4189 40.4062C39.8268 40.5793 40.2094 40.8072 40.502 41.1006C40.7979 41.3975 41.04 41.8051 41.04 42.3047C41.04 42.8043 40.7979 43.2119 40.502 43.5088C40.2094 43.8022 39.8268 44.0301 39.4189 44.2031C38.6001 44.5505 37.5259 44.7451 36.3828 44.7451C35.2397 44.7451 34.1655 44.5505 33.3467 44.2031C32.9388 44.0301 32.5562 43.8022 32.2637 43.5088C32.0049 43.2491 31.7868 42.9049 31.7363 42.4883L31.7256 42.3047L31.7363 42.1211C31.7869 41.7046 32.0049 41.3603 32.2637 41.1006C32.5562 40.8072 32.9388 40.5793 33.3467 40.4062C34.1655 40.0589 35.2397 39.8643 36.3828 39.8643ZM43.3203 42.3994C43.3069 42.41 43.2955 42.4206 43.2852 42.4297C43.3813 42.5146 43.5575 42.6253 43.8359 42.7344C44.4117 42.9599 45.2638 43.1182 46.2461 43.1182C47.2282 43.1181 48.0796 42.9616 48.6553 42.7363C48.9456 42.6227 49.1257 42.5061 49.2188 42.4199C49.3095 42.3357 49.2599 42.3387 49.2598 42.4297C49.2598 42.4373 49.2609 42.4451 49.2617 42.4521L50.4492 41.3584C50.6981 41.6236 50.9032 41.9867 50.9033 42.4297C50.9033 42.9362 50.6372 43.3339 50.3408 43.6084C50.0459 43.8815 49.6644 44.091 49.2607 44.249C48.4485 44.567 47.382 44.7451 46.2461 44.7451C45.1099 44.7451 44.0428 44.5672 43.2305 44.249C42.8269 44.0909 42.4453 43.8813 42.1504 43.6084C41.8541 43.3342 41.5879 42.9362 41.5879 42.4297C41.588 41.8426 41.9418 41.4063 42.2979 41.126L43.3203 42.3994ZM36.3828 41.4912C35.4077 41.4912 34.5635 41.6608 33.9941 41.9023C33.7084 42.0236 33.5292 42.1474 33.4336 42.2432C33.4083 42.2686 33.394 42.2902 33.3838 42.3047C33.394 42.3191 33.4083 42.3408 33.4336 42.3662C33.5291 42.462 33.7083 42.5857 33.9941 42.707C34.5635 42.9486 35.4077 43.1182 36.3828 43.1182C37.358 43.1182 38.2021 42.9486 38.7715 42.707C39.0573 42.5858 39.2365 42.462 39.332 42.3662C39.357 42.3411 39.3706 42.3191 39.3809 42.3047C39.3706 42.2903 39.357 42.2683 39.332 42.2432C39.2364 42.1474 39.0572 42.0236 38.7715 41.9023C38.2021 41.6608 37.358 41.4912 36.3828 41.4912ZM46.2461 36.6104C47.3891 36.6104 48.4635 36.805 49.2822 37.1523C49.69 37.3254 50.0728 37.5524 50.3652 37.8457C50.6612 38.1427 50.9033 38.5511 50.9033 39.0508C50.9032 39.5502 50.6611 39.958 50.3652 40.2549C50.0727 40.5483 49.69 40.7762 49.2822 40.9492C48.4635 41.2965 47.3891 41.4912 46.2461 41.4912C45.1029 41.4912 44.0278 41.2966 43.209 40.9492C42.8012 40.7762 42.4185 40.5482 42.126 40.2549C41.8301 39.958 41.588 39.5502 41.5879 39.0508C41.5879 38.5511 41.83 38.1427 42.126 37.8457C42.4184 37.5524 42.8013 37.3254 43.209 37.1523C44.0278 36.805 45.1029 36.6104 46.2461 36.6104ZM46.2461 38.2373C45.2711 38.2373 44.4268 38.407 43.8574 38.6484C43.5715 38.7698 43.3914 38.8934 43.2959 38.9893C43.2707 39.0146 43.2573 39.0364 43.2471 39.0508C43.2573 39.0652 43.2708 39.087 43.2959 39.1123C43.3914 39.2081 43.5715 39.3318 43.8574 39.4531C44.4268 39.6946 45.2712 39.8643 46.2461 39.8643C47.2211 39.8642 48.0655 39.6946 48.6348 39.4531C48.9205 39.3319 49.0998 39.2081 49.1953 39.1123C49.2202 39.0873 49.2329 39.0652 49.2432 39.0508C49.2329 39.0364 49.2202 39.0143 49.1953 38.9893C49.0998 38.8935 48.9204 38.7697 48.6348 38.6484C48.0655 38.4069 47.2211 38.2374 46.2461 38.2373ZM32.0107 30.1016C36.7416 30.1017 40.8709 32.4378 43.1035 35.9014C43.3474 36.2801 43.235 36.7828 42.8525 37.0244C42.47 37.2658 41.963 37.1547 41.7188 36.7764C39.7966 33.7943 36.1962 31.7286 32.0107 31.7285C27.821 31.7285 24.1979 33.7804 22.2832 36.7744C22.0404 37.1536 21.5328 37.2663 21.1494 37.0264C20.766 36.786 20.6518 36.2829 20.8945 35.9033C23.1245 32.4166 27.2841 30.1016 32.0107 30.1016ZM31.9023 23.5928C38.1338 23.5928 43.9128 26.2507 47.4238 30.3916C47.7155 30.7357 47.6706 31.2492 47.3232 31.5381C46.9757 31.8268 46.4569 31.7823 46.165 31.4385C42.9888 27.6921 37.684 25.2197 31.9023 25.2197C26.1423 25.2199 21.0314 27.8035 17.8252 31.4482C17.5271 31.787 17.0083 31.8223 16.666 31.5273C16.3237 31.2323 16.2879 30.7187 16.5859 30.3799C20.0929 26.3933 25.6497 23.5929 31.9023 23.5928ZM32.0361 16C40.1177 16.0001 47.3056 19.5721 51.8115 24.9736C52.1003 25.3201 52.051 25.8321 51.7012 26.1182C51.3512 26.4042 50.834 26.3552 50.5449 26.0088C46.3526 20.9832 39.6294 17.627 32.0361 17.627C24.3941 17.627 17.6418 20.9381 13.459 26.0059C13.1718 26.3538 12.6533 26.4053 12.3018 26.1211C11.9505 25.8368 11.8985 25.3244 12.1855 24.9766C16.6907 19.5182 23.9167 16.0001 32.0361 16Z" fill="white"/>
</svg>
